<?xml version="1.0" standalone="no"?>
<!DOCTYPE svg PUBLIC "-//W3C//DTD SVG 1.1//EN" "http://www.w3.org/Graphics/SVG/1.1/DTD/svg11.dtd" >
<svg xmlns="http://www.w3.org/2000/svg" xmlns:xlink="http://www.w3.org/1999/xlink" version="1.1">
<metadata>
Created by FontForge 20170731 at Sun Apr 17 02:54:56 2016
 By Aleksey,,,
Copyright (c) 2015 by Letters from Sweden &#38; Stockholm Design Lab. All rights reserved.
</metadata>
<defs>
<font id="LabGrotesque-LightItalic" horiz-adv-x="590" >
  <font-face 
    font-family="Lab Grotesque Light"
    font-weight="300"
    font-style="italic"
    font-stretch="normal"
    units-per-em="1000"
    panose-1="0 0 4 0 0 0 0 0 0 0"
    ascent="750"
    descent="-250"
    x-height="483"
    cap-height="710"
    bbox="-290 -250 1742 935"
    underline-thickness="45"
    underline-position="-256"
    slope="-12"
    unicode-range="U+0020-FB02"
  />
<missing-glyph horiz-adv-x="579" 
d="M479 810v-910h-379v910h379z" />
    <glyph glyph-name="fi" unicode="fi" horiz-adv-x="532" 
d="M345 435h-124l-92 -435h-66l92 435h-97l10 48h97l21 97q30 144 155 144q39 0 84 -14l-20 -50q-31 9 -63 9q-37 0 -59 -25.5t-35 -82.5l-17 -78h124zM486 684h66l-20 -94h-66zM341 0l102 483h66l-102 -483h-66z" />
    <glyph glyph-name="fl" unicode="fl" horiz-adv-x="537" 
d="M345 435h-124l-92 -435h-66l92 435h-97l10 48h97l21 97q30 144 155 144q39 0 84 -14l-20 -50q-31 9 -63 9q-37 0 -59 -25.5t-35 -82.5l-17 -78h124zM495 710h66l-151 -710h-66z" />
    <glyph glyph-name="f_f.liga" unicode="ff" horiz-adv-x="639" 
d="M346 669q-41 0 -63 -24.5t-35 -83.5l-17 -78h106l-10 -48h-106l-92 -435h-66l92 435h-97l10 48h97l21 97q30 144 155 144q50 0 99 -20l-20 -48q-40 13 -74 13zM648 669q-39 0 -61 -24.5t-35 -83.5l-16 -78h123l-10 -48h-123l-93 -435h-66l93 435h-85l10 48h85l20 97
q15 71 55 107.5t101 36.5q50 0 97 -21l-19 -49q-39 15 -76 15z" />
    <glyph glyph-name="f_f_i.liga" unicode="ffi" horiz-adv-x="837" 
d="M346 669q-41 0 -63 -24.5t-35 -83.5l-17 -78h106l-10 -48h-106l-92 -435h-66l92 435h-97l10 48h97l21 97q30 144 155 144q50 0 99 -20l-20 -48q-40 13 -74 13zM649 435h-123l-93 -435h-66l93 435h-85l10 48h85l20 97q15 71 55 107.5t101 36.5q39 0 84 -14l-20 -50
q-32 9 -63 9q-39 0 -60.5 -24.5t-34.5 -83.5l-16 -78h123zM791 684h66l-20 -94h-66zM646 0l102 483h66l-102 -483h-66z" />
    <glyph glyph-name="f_f_j.liga" unicode="ffj" horiz-adv-x="825" 
d="M340 669q-41 0 -63.5 -24.5t-35.5 -83.5l-17 -78h106l-10 -49h-106l-92 -434h-66l92 434h-90l10 49h90l21 97q30 144 155 144q51 0 100 -20l-21 -48q-40 13 -73 13zM642 435h-123l-92 -435h-66l92 435h-85l10 48h85l21 97q30 144 155 144q39 0 84 -14l-20 -50
q-31 9 -63 9q-38 0 -60 -25t-34 -83l-17 -78h124zM784 684h66l-20 -94h-66zM632 -34l109 517h66l-113 -535q-15 -75 -48 -108.5t-95 -33.5q-48 0 -91 16l20 49q36 -10 66 -10q38 0 55.5 22.5t30.5 82.5z" />
    <glyph glyph-name="f_j.liga" unicode="fj" horiz-adv-x="527" 
d="M345 435h-124l-92 -435h-66l92 435h-97l10 48h97l21 97q30 144 155 144q39 0 84 -14l-20 -50q-31 9 -63 9q-37 0 -59 -25.5t-35 -82.5l-17 -78h124zM486 684h66l-20 -94h-66zM334 -34l109 517h66l-113 -535q-15 -75 -47.5 -108.5t-94.5 -33.5q-48 0 -91 16l19 49
q36 -10 67 -10q38 0 55 22.5t30 82.5z" />
    <glyph glyph-name=".notdef" horiz-adv-x="579" 
d="M479 810v-910h-379v910h379z" />
    <glyph glyph-name=".null" horiz-adv-x="0" 
 />
    <glyph glyph-name="nonmarkingreturn" horiz-adv-x="333" 
 />
    <glyph glyph-name="space" unicode=" " horiz-adv-x="230" 
 />
    <glyph glyph-name="exclam" unicode="!" horiz-adv-x="262" 
d="M272 710l-46 -213l-81 -306h-41l52 307l45 212h71zM146 92l-19 -92h-84l19 92h84z" />
    <glyph glyph-name="quotedbl" unicode="&#x22;" horiz-adv-x="345" 
d="M223 710l-54 -214h-47l38 214h63zM386 710l-55 -214h-47l39 214h63z" />
    <glyph glyph-name="numbersign" unicode="#" 
d="M572 441h-104l-43 -200h104l-11 -50h-103l-41 -191h-58l40 191h-166l-41 -191h-58l40 191h-106l11 50h106l42 200h-105l11 50h105l40 189h58l-40 -189h167l40 189h58l-40 -189h105zM367 241l42 200h-166l-43 -200h167z" />
    <glyph glyph-name="dollar" unicode="$" horiz-adv-x="610" 
d="M610 595l-42 -41q-75 69 -149 82l-55 -257q91 -33 132.5 -73.5t41.5 -98.5q0 -91 -67.5 -156.5t-185.5 -65.5h-5l-18 -85h-52l19 89q-58 8 -106.5 35t-104.5 79l43 42q95 -88 179 -100l62 290q-95 34 -135 71t-40 91q0 84 68.5 141.5t181.5 57.5h2l18 84h52l-18 -88
q95 -15 179 -97zM190 502q0 -34 29 -57.5t96 -48.5l52 244q-75 -2 -126 -39t-51 -99zM474 202q0 42 -28 66.5t-95 49.5l-59 -276q83 1 132.5 48.5t49.5 111.5z" />
    <glyph glyph-name="percent" unicode="%" horiz-adv-x="848" 
d="M737 694l38 -31l-624 -677l-36 32zM263 690q55 0 91 -35.5t36 -91.5q0 -72 -43.5 -128t-118.5 -56q-57 0 -93.5 36t-36.5 95q0 69 44.5 124.5t120.5 55.5zM257 645q-49 0 -76.5 -41t-27.5 -89q0 -42 20.5 -66t57.5 -24q49 0 76.5 42t27.5 94q0 84 -78 84zM648 301
q55 0 91.5 -35.5t36.5 -91.5q0 -72 -43.5 -128t-119.5 -56q-57 0 -93.5 36t-36.5 95q0 69 44.5 124.5t120.5 55.5zM642 256q-48 0 -75.5 -41t-27.5 -89q0 -42 20.5 -66t56.5 -24q49 0 76.5 42t27.5 94q0 84 -78 84z" />
    <glyph glyph-name="ampersand" unicode="&#x26;" horiz-adv-x="687" 
d="M662 300l-149 -152l85 -148h-73l-58 102q-66 -62 -120.5 -89t-118.5 -27q-89 0 -143 49t-54 114q2 85 53 140t202 130q-45 79 -45 142q0 62 46.5 110t130.5 48q63 0 102.5 -34t39.5 -87q-2 -60 -39 -104t-148 -100l109 -192l137 139zM414 668q-51 0 -81 -32.5t-30 -72.5
q0 -29 9 -53.5t33 -66.5q94 44 123.5 77t29.5 77q0 33 -23 52t-61 19zM227 42q53 0 100 26.5t109 87.5l-122 215q-135 -69 -174 -109t-42 -109q0 -43 38 -77t91 -34z" />
    <glyph glyph-name="quotesingle" unicode="'" horiz-adv-x="183" 
d="M223 710l-54 -214h-47l38 214h63z" />
    <glyph glyph-name="parenleft" unicode="(" horiz-adv-x="334" 
d="M377 783l33 -45q-275 -215 -275 -535q0 -161 95 -337l-50 -28q-112 189 -112 368q0 356 309 577z" />
    <glyph glyph-name="parenright" unicode=")" horiz-adv-x="334" 
d="M-21 -162l-33 45q280 216 280 537q0 157 -96 334l50 29q112 -187 112 -366q0 -356 -313 -579z" />
    <glyph glyph-name="asterisk" unicode="*" horiz-adv-x="435" 
d="M308 710v-138l130 43l14 -41l-133 -42l87 -113l-36 -27l-87 114l-84 -112l-37 28l87 110l-132 43l14 41l129 -44v138h48z" />
    <glyph glyph-name="plus" unicode="+" horiz-adv-x="600" 
d="M329 570v-232h231v-56h-231v-232h-58v232h-231v56h231v232h58z" />
    <glyph glyph-name="comma" unicode="," horiz-adv-x="204" 
d="M118 92l-19 -92l-79 -115h-43l74 115h-42l19 92h90z" />
    <glyph glyph-name="hyphen" unicode="-" horiz-adv-x="402" 
d="M358 316l-13 -59h-282l13 59h282z" />
    <glyph glyph-name="period" unicode="." horiz-adv-x="204" 
d="M112 92l-19 -92h-84l19 92h84z" />
    <glyph glyph-name="slash" unicode="/" horiz-adv-x="424" 
d="M499 710l-456 -710h-69l456 710h69z" />
    <glyph glyph-name="zero" unicode="0" 
d="M379 695q99 0 149 -62t50 -171q0 -88 -32 -201q-31 -111 -105 -194q-73 -82 -187 -82q-99 0 -149 61.5t-50 170.5q0 91 34 202q33 112 106 194t184 82zM377 637q-85 0 -142 -72q-58 -71 -85 -170q-28 -97 -28 -178q0 -83 33.5 -128.5t101.5 -45.5q85 0 142 73t85 173
q27 99 27 174q0 174 -134 174z" />
    <glyph glyph-name="one" unicode="1" horiz-adv-x="460" 
d="M344 680h49l-144 -680h-67l125 589l-175 -109l-27 48z" />
    <glyph glyph-name="two" unicode="2" horiz-adv-x="562" 
d="M288 252q-63 -34 -103 -60q-35 -24 -65 -57t-43 -77h402l-13 -58h-470l7 33q26 123 129 195q43 31 126 76l31 17q96 52 130 76q42 28 64 60q22 31 22 78q0 48 -35 75t-90 27q-64 0 -114 -29q-50 -30 -114 -96l-46 39q68 75 132 109.5t144 34.5q85 0 138 -44.5t53 -115.5
q0 -112 -111 -183q-48 -32 -174 -100z" />
    <glyph glyph-name="three" unicode="3" horiz-adv-x="573" 
d="M588 680l-12 -57l-276 -222q3 1 13 1q86 0 142 -48t56 -126q0 -95 -67.5 -169t-190.5 -74q-130 0 -249 88l41 47q110 -77 208 -77q89 0 140 53.5t51 127.5q0 60 -39 93t-116 33q-51 0 -80 -13l-23 40l304 245h-341l12 58h427z" />
    <glyph glyph-name="four" unicode="4" horiz-adv-x="578" 
d="M447 221h105l-11 -57h-106l-35 -164h-66l35 164h-352l12 59l388 457h79l-391 -459h275l35 162h66z" />
    <glyph glyph-name="five" unicode="5" 
d="M584 622h-330l-69 -232q62 43 147 43t141.5 -52.5t56.5 -132.5q0 -47 -16 -93t-47 -85t-84 -62.5t-120 -22.5q-123 0 -251 92l42 47q59 -44 108 -62.5t106 -18.5q93 0 144.5 61t51.5 141q0 60 -39 96t-107 36q-84 0 -157 -58l-56 7l105 354h386z" />
    <glyph glyph-name="six" unicode="6" 
d="M344 443q87 0 140.5 -53t53.5 -130q1 -63 -27 -125t-91 -107t-147 -43q-95 0 -153.5 55t-58.5 138q0 119 69.5 227t220.5 226l63 49h98v-1l-125 -96q-127 -97 -192 -189q59 49 149 49zM275 43q92 0 144.5 66t52.5 146q0 61 -38.5 96t-103.5 35q-98 0 -151 -59.5
t-53 -145.5q0 -61 41 -99.5t108 -38.5z" />
    <glyph glyph-name="seven" unicode="7" horiz-adv-x="527" 
d="M117 680h479l-10 -48q-127 -108 -249.5 -290t-168.5 -342h-74q47 161 161 332q113 170 242 291h-392z" />
    <glyph glyph-name="eight" unicode="8" 
d="M434 362q49 -22 76.5 -61.5t27.5 -89.5q0 -41 -15 -79.5t-45.5 -72.5t-84 -54.5t-121.5 -19.5q-104 0 -168 51.5t-64 127.5q0 70 43 129q41 59 134 82q-75 43 -75 123q0 76 60.5 136.5t174.5 60.5q83 0 138.5 -43.5t55.5 -111.5q0 -59 -35.5 -108t-101.5 -70zM371 639
q-73 0 -119.5 -38t-46.5 -100q0 -46 36.5 -76.5t93.5 -30.5q81 0 127 40.5t46 103.5q0 46 -36.5 73.5t-100.5 27.5zM282 43q92 0 141 49t49 119q0 57 -44.5 92.5t-118.5 35.5q-100 0 -151.5 -50t-51.5 -120q0 -56 47 -91t129 -35z" />
    <glyph glyph-name="nine" unicode="9" 
d="M359 695q95 0 153.5 -55t58.5 -138q0 -119 -69.5 -227t-220.5 -226l-63 -49h-98v1l125 96q129 100 191 189q-58 -49 -148 -49q-87 0 -140.5 53t-53.5 130q-1 63 27 125t91 107t147 43zM160 425q0 -61 38.5 -96t103.5 -35q98 0 151 59.5t53 145.5q0 61 -41 99.5t-108 38.5
q-92 0 -144.5 -66t-52.5 -146z" />
    <glyph glyph-name="colon" unicode=":" horiz-adv-x="244" 
d="M219 483l-19 -91h-84l19 91h84zM136 92l-19 -92h-84l19 92h84z" />
    <glyph glyph-name="semicolon" unicode=";" horiz-adv-x="244" 
d="M142 92l-19 -92l-79 -115h-43l74 115h-42l19 92h90zM221 484l-19 -92h-84l19 92h84z" />
    <glyph glyph-name="less" unicode="&#x3c;" horiz-adv-x="600" 
d="M540 524v-64l-407 -150l407 -150v-64l-480 180v68z" />
    <glyph glyph-name="equal" unicode="=" horiz-adv-x="600" 
d="M560 238v-56h-520v56h520zM560 438v-56h-520v56h520z" />
    <glyph glyph-name="greater" unicode="&#x3e;" horiz-adv-x="600" 
d="M60 524l480 -180v-68l-480 -180v64l407 150l-407 150v64z" />
    <glyph glyph-name="question" unicode="?" horiz-adv-x="483" 
d="M352 725q79 0 128.5 -38t49.5 -108q0 -77 -60 -134q-39 -35 -85 -70l-34 -26q-52 -40 -73 -64q-20 -24 -34 -66l-10 -33h-53l9 41q14 62 34 90t86 77q66 50 93 72q29 24 44 49q16 25 16 60q0 41 -31.5 65t-86.5 24q-99 0 -202 -85l-35 49q121 97 244 97zM231 92l-19 -92
h-84l19 92h84z" />
    <glyph glyph-name="at" unicode="@" horiz-adv-x="935" 
d="M522 668q165 0 267.5 -91t102.5 -245q0 -52 -12.5 -107t-37 -104t-67 -79.5t-95.5 -28.5q-62 0 -86 33t-24 74q-68 -107 -172 -107q-66 0 -104 39.5t-38 110.5q-1 69 28.5 137.5t85.5 114t122 43.5q54 0 85 -24t36 -67l17 83h56l-55 -261q-11 -46 -11 -67q0 -62 61 -62
q50 -2 87.5 43t54 105t15.5 118q0 141 -89.5 218t-228.5 77q-146 0 -238 -73q-94 -74 -134 -177q-42 -103 -42 -194q0 -153 92.5 -237t272.5 -84h198l-10 -46h-190q-204 0 -311 96t-107 269q0 104 47 219q47 113 153 194q106 80 271 80zM406 64q42 -2 78 23.5t57.5 64t33 80
t11.5 75.5q0 52 -21.5 77t-70.5 25q-73 3 -126 -74.5t-51 -165.5q0 -105 89 -105z" />
    <glyph glyph-name="A" unicode="A" horiz-adv-x="651" 
d="M511 0l-29 199h-323l-114 -199h-76l410 710h92l108 -710h-68zM193 259h280l-15 99l-14 95q-1 5 -2.5 16.5t-4.5 31t-6 38.5q-11 69 -15 119q-43 -83 -167 -301z" />
    <glyph glyph-name="B" unicode="B" horiz-adv-x="665" 
d="M513 369q44 -16 71.5 -54.5t27.5 -90.5q0 -94 -66.5 -159t-186.5 -65h-324l151 710h281q84 0 135.5 -43t51.5 -115q0 -66 -38 -115.5t-103 -67.5zM244 651l-53 -249h209q95 0 140.5 40t45.5 109q0 49 -34.5 74.5t-97.5 25.5h-210zM118 59h221q109 0 156 48q47 47 47 118
q0 57 -38 88t-110 31h-215z" />
    <glyph glyph-name="C" unicode="C" horiz-adv-x="661" 
d="M455 725q140 0 229 -115l-48 -39q-79 93 -186 93q-75 2 -138 -34.5t-102 -94.5t-60 -127t-20 -135q0 -105 54 -165.5t150 -60.5q61 0 112.5 26t120.5 88l43 -44q-129 -132 -273 -132q-132 0 -205 78t-73 203q-1 61 13.5 124t47 124t78 108.5t112.5 76t145 26.5z" />
    <glyph glyph-name="D" unicode="D" horiz-adv-x="702" 
d="M186 710h213q129 0 203 -74.5t74 -195.5q0 -62 -13.5 -123.5t-43.5 -119.5t-73.5 -102t-107 -70t-139.5 -25h-264zM386 651h-142l-126 -592h170q65 -1 119.5 22t90.5 61.5t61 88.5t35.5 101.5t10.5 102.5q0 104 -55 160t-164 56z" />
    <glyph glyph-name="E" unicode="E" horiz-adv-x="602" 
d="M646 710l-13 -59h-389l-55 -257h362l-13 -58h-361l-59 -277h398l-13 -59h-468l151 710h460z" />
    <glyph glyph-name="F" unicode="F" 
d="M646 710l-13 -59h-389l-57 -270h361l-13 -59h-361l-68 -322h-71l151 710h460z" />
    <glyph glyph-name="G" unicode="G" horiz-adv-x="735" 
d="M372 303l12 59h305l-76 -362h-56l14 101q-82 -115 -234 -115q-129 0 -203 80.5t-74 202.5q-1 64 14 128t47 123.5t78 105.5t114 72.5t148 25.5q163 0 270 -135l-52 -40q-53 61 -103.5 87.5t-120.5 26.5q-62 1 -115.5 -22t-91 -62t-64.5 -90t-40 -106t-12 -108
q0 -105 55.5 -166t158.5 -61q88 0 162.5 61t94.5 161l7 33h-238z" />
    <glyph glyph-name="H" unicode="H" horiz-adv-x="728" 
d="M738 710l-151 -710h-71l71 337h-410l-71 -337h-71l151 710h71l-67 -314h410l67 314h71z" />
    <glyph glyph-name="I" unicode="I" horiz-adv-x="261" 
d="M264 710l-151 -710h-71l151 710h71z" />
    <glyph glyph-name="J" unicode="J" horiz-adv-x="460" 
d="M476 710l-113 -531q-21 -97 -70 -143.5t-133 -46.5q-96 0 -183 51l32 53q77 -43 147 -43q57 0 90 34t49 109l110 517h71z" />
    <glyph glyph-name="K" unicode="K" horiz-adv-x="643" 
d="M708 710l-332 -279l203 -431h-74l-182 387l-164 -138l-53 -249h-71l151 710h71l-78 -368l435 368h94z" />
    <glyph glyph-name="L" unicode="L" horiz-adv-x="523" 
d="M257 710l-139 -651h340l-13 -59h-410l151 710h71z" />
    <glyph glyph-name="M" unicode="M" horiz-adv-x="855" 
d="M745 710h120l-151 -710h-69l74 352l68 309q-78 -139 -150 -261q-6 -9 -28 -48l-203 -352h-63l-57 353q-30 177 -46 309q-15 -79 -64 -311l-74 -351h-67l151 710h110l51 -323q34 -215 41 -304q65 124 170 304z" />
    <glyph glyph-name="N" unicode="N" horiz-adv-x="730" 
d="M671 710h69l-151 -710h-79l-152 340l-18 40q-65 144 -107 248q-15 -86 -55 -275l-74 -353h-69l151 710h79l151 -339q82 -185 125 -289q32 171 55 274z" />
    <glyph glyph-name="O" unicode="O" horiz-adv-x="744" 
d="M444 725q128 0 202 -78q72 -78 72 -211q1 -76 -24 -155t-71 -146.5t-121 -109.5t-165 -40q-130 0 -203.5 77.5t-73.5 212.5q-1 60 14.5 123t48 122.5t77 105.5t108.5 73.5t136 25.5zM443 664q-58 2 -109 -21t-88 -63t-63.5 -90.5t-39.5 -105.5t-12 -108
q0 -109 55.5 -169.5t150.5 -60.5q95 -2 168.5 59.5t108 150t33.5 179.5q0 108 -54 168.5t-150 60.5z" />
    <glyph glyph-name="P" unicode="P" horiz-adv-x="641" 
d="M186 710h283q88 0 141 -47t53 -128q0 -98 -68 -169t-195 -71h-231l-63 -295h-71zM453 651h-209l-63 -297h203q107 0 158.5 48.5t51.5 130.5q0 57 -37 87.5t-104 30.5z" />
    <glyph glyph-name="Q" unicode="Q" horiz-adv-x="744" 
d="M718 436q0 -108 -45 -214q-44 -107 -131 -172l44 -82l-52 -29l-44 80q-67 -34 -153 -34q-129 0 -203 77.5t-74 212.5q-1 60 14.5 123t48 122.5t77 105.5t108.5 73.5t136 25.5q127 0 200.5 -78.5t73.5 -210.5zM336 46q64 0 124 29l-71 131l53 30l68 -127q66 55 102 146
q35 91 35 180q0 108 -53.5 168.5t-149.5 60.5q-94 3 -168.5 -59t-110 -150.5t-34.5 -178.5q0 -109 55 -169.5t150 -60.5z" />
    <glyph glyph-name="R" unicode="R" horiz-adv-x="662" 
d="M656 534q0 -91 -60.5 -159.5t-171.5 -77.5l145 -297h-75l-142 295h-183l-63 -295h-71l151 710h274q88 0 142 -48t54 -128zM181 354h196q106 0 158 48.5t52 130.5q0 57 -37.5 87.5t-105.5 30.5h-200z" />
    <glyph glyph-name="S" unicode="S" horiz-adv-x="629" 
d="M373 724q145 0 257 -110l-45 -48q-98 98 -215 98q-78 0 -132.5 -42t-54.5 -103q0 -58 74 -89q36 -16 109 -38q118 -37 161 -77.5t43 -111.5q0 -87 -70 -152.5t-187 -65.5q-81 0 -149.5 29.5t-141.5 89.5l42 50q72 -58 130.5 -83t121.5 -25q83 0 134 45t51 111
q-4 55 -37.5 79.5t-140.5 57.5q-123 39 -164.5 73t-44.5 103q0 85 72.5 147t186.5 62z" />
    <glyph glyph-name="T" unicode="T" horiz-adv-x="592" 
d="M659 710l-13 -59h-229l-137 -651h-72l138 651h-228l13 59h528z" />
    <glyph glyph-name="U" unicode="U" horiz-adv-x="687" 
d="M704 710l-105 -490q-25 -116 -96 -175t-195 -59q-115 0 -174 45.5t-59 132.5q0 25 8 68l102 478h71l-104 -485q-6 -27 -6 -51q0 -127 166 -127q179 0 217 178l103 485h72z" />
    <glyph glyph-name="V" unicode="V" horiz-adv-x="624" 
d="M623 710h76l-395 -710h-91l-93 710h70l46 -357l11 -88q17 -131 23 -204q84 164 155 291z" />
    <glyph glyph-name="W" unicode="W" horiz-adv-x="929" 
d="M916 710h73l-322 -710h-90l-22 350q-9 154 -11 272q-58 -130 -128 -273l-169 -349h-92l-20 710h68l8 -358q3 -94 3 -186q0 -79 -1 -102q79 174 135 288l176 358h74l20 -358q7 -148 12 -287q32 79 124 287z" />
    <glyph glyph-name="X" unicode="X" horiz-adv-x="619" 
d="M676 710l-300 -341l173 -369h-73l-151 323l-281 -323h-83l332 378l-157 332h73l134 -287l251 287h82z" />
    <glyph glyph-name="Y" unicode="Y" horiz-adv-x="619" 
d="M618 710h83l-339 -405l-64 -305h-71l65 306l-164 404h72l136 -343z" />
    <glyph glyph-name="Z" unicode="Z" horiz-adv-x="614" 
d="M674 710l-12 -55l-571 -596h443l-13 -59h-532l11 55l571 596h-423l13 59h513z" />
    <glyph glyph-name="bracketleft" unicode="[" horiz-adv-x="317" 
d="M386 752l-11 -49h-112l-168 -790h112l-10 -48h-177l189 887h177z" />
    <glyph glyph-name="backslash" unicode="\" horiz-adv-x="404" 
d="M186 710l142 -710h-61l-142 710h61z" />
    <glyph glyph-name="bracketright" unicode="]" horiz-adv-x="317" 
d="M149 752h177l-189 -887h-177l10 48h112l168 790h-112z" />
    <glyph glyph-name="asciicircum" unicode="^" 
d="M330 710l199 -430h-63l-171 371l-171 -371h-63l200 430h69z" />
    <glyph glyph-name="underscore" unicode="_" horiz-adv-x="600" 
d="M523 -144v-46h-610v46h610z" />
    <glyph glyph-name="grave" unicode="`" horiz-adv-x="324" 
d="M176 710h70l44 -142h-52z" />
    <glyph glyph-name="a" unicode="a" horiz-adv-x="548" 
d="M458 483h62l-103 -483h-60l19 91q-66 -102 -175 -102q-81 0 -124 47t-43 131q-1 76 28.5 150.5t92 126.5t142.5 50q57 0 94 -24.5t50 -68.5zM209 44q81 -4 143 85t60 188q0 123 -111 123q-61 2 -109 -42t-70.5 -105t-21.5 -120q0 -129 109 -129z" />
    <glyph glyph-name="b" unicode="b" horiz-adv-x="546" 
d="M349 494q77 0 120.5 -47.5t43.5 -129.5q1 -77 -28 -151.5t-91 -126.5t-143 -50q-117 0 -150 97l-18 -86h-62l151 710h66l-66 -308q69 92 177 92zM247 44q63 -2 110.5 42t69 104t20.5 121q0 66 -26.5 97.5t-82.5 31.5q-57 2 -107 -40t-77.5 -105.5t-26.5 -126.5
q0 -56 32.5 -90t87.5 -34z" />
    <glyph glyph-name="c" unicode="c" horiz-adv-x="479" 
d="M476 400l-50 -35q-30 42 -58 59.5t-70 17.5q-60 2 -107.5 -42t-69.5 -102.5t-21 -112.5q0 -68 31.5 -105t92.5 -37q79 0 167 87l42 -41q-102 -102 -213 -102q-87 0 -137 52t-50 142q-1 71 29 142.5t93.5 123t145.5 49.5q113 0 175 -96z" />
    <glyph glyph-name="d" unicode="d" horiz-adv-x="545" 
d="M505 710h66l-151 -710h-60l21 99q-71 -110 -183 -110q-81 0 -124 47t-43 131q-1 76 28.5 150.5t92 126.5t142.5 50q114 0 146 -88zM206 44q83 -3 147 84.5t62 186.5q0 59 -29 92t-85 33q-61 2 -110 -42.5t-72 -105.5t-22 -119q0 -66 26.5 -97.5t82.5 -31.5z" />
    <glyph glyph-name="e" unicode="e" horiz-adv-x="521" 
d="M468 236h-365q-4 -20 -4 -50q0 -144 133 -144q89 0 178 100l45 -37q-103 -118 -225 -118q-92 0 -144.5 53t-52.5 144q-1 54 17.5 109t52.5 101.5t87.5 75t117.5 26.5q78 0 126.5 -44.5t48.5 -118.5q0 -54 -15 -97zM305 442q-69 0 -117.5 -42t-72.5 -114h305q3 18 3 40
q0 54 -31 85t-87 31z" />
    <glyph glyph-name="f" unicode="f" horiz-adv-x="335" 
d="M343 669q-39 0 -60.5 -24.5t-34.5 -83.5l-17 -78h124l-10 -48h-124l-92 -435h-66l92 435h-97l10 48h97l21 97q30 144 155 144q52 0 97 -21l-19 -49q-39 15 -76 15z" />
    <glyph glyph-name="g" unicode="g" horiz-adv-x="541" 
d="M455 483h62l-102 -480q-21 -97 -74.5 -145t-146.5 -48q-103 0 -204 74l36 46q91 -65 170 -65q123 0 155 143l18 83q-67 -88 -169 -88q-77 0 -122.5 48.5t-45.5 129.5q-1 51 16.5 106t48.5 102t81.5 76.5t108.5 28.5q118 0 149 -99zM209 58q59 -2 107 40t71.5 100.5
t22.5 114.5q0 60 -31 93.5t-88 33.5q-59 2 -105 -39.5t-67.5 -98.5t-20.5 -111q0 -133 111 -133z" />
    <glyph glyph-name="h" unicode="h" horiz-adv-x="533" 
d="M338 496q70 0 109 -34t39 -89q0 -25 -8 -65l-65 -308h-66l65 309q6 30 6 55q0 78 -93 78q-63 0 -113.5 -45t-65.5 -123l-58 -274h-66l150 710h66l-62 -293q58 79 162 79z" />
    <glyph glyph-name="i" unicode="i" horiz-adv-x="212" 
d="M189 483l-102 -483h-66l102 483h66zM232 684l-20 -94h-66l20 94h66z" />
    <glyph glyph-name="j" unicode="j" horiz-adv-x="208" 
d="M-157 -178l19 49q36 -10 67 -10q38 0 55.5 22.5t30.5 82.5l109 517h66l-113 -535q-15 -75 -48 -108.5t-95 -33.5q-48 0 -91 16zM232 684l-20 -94h-66l20 94h66z" />
    <glyph glyph-name="k" unicode="k" horiz-adv-x="478" 
d="M497 483l-209 -186l139 -297h-67l-120 258l-120 -101l-33 -157h-66l151 710h66l-101 -472l277 245h83z" />
    <glyph glyph-name="l" unicode="l" horiz-adv-x="217" 
d="M241 710l-151 -710h-66l151 710h66z" />
    <glyph glyph-name="m" unicode="m" horiz-adv-x="798" 
d="M612 496q66 0 103 -33t37 -87q0 -11 -8 -62l-66 -314h-66l66 318q4 14 6 45q-1 39 -21.5 58.5t-64.5 19.5q-55 0 -97.5 -44t-59.5 -124l-58 -273h-66l63 306q8 40 8 62q0 73 -84 73q-56 0 -97.5 -43t-59.5 -124l-58 -274h-66l102 483h62l-14 -64q56 77 150 77
q52 0 85 -25.5t38 -67.5q65 93 166 93z" />
    <glyph glyph-name="n" unicode="n" horiz-adv-x="535" 
d="M339 496q70 0 109 -34t39 -89q0 -34 -7 -65l-66 -308h-66l65 309q6 30 6 55q0 78 -93 78q-63 0 -113.5 -45t-65.5 -123l-58 -274h-66l102 483h62l-16 -74q58 87 168 87z" />
    <glyph glyph-name="o" unicode="o" horiz-adv-x="529" 
d="M301 496q89 0 140.5 -52.5t51.5 -145.5q1 -51 -16 -105t-48.5 -101t-84 -76.5t-116.5 -28.5q-91 0 -142.5 53t-51.5 147q-1 39 9.5 81.5t32.5 83.5t52.5 73.5t75.5 52t97 18.5zM299 442q-59 2 -106.5 -40t-70.5 -100t-22 -115q0 -68 34 -106.5t94 -38.5q60 -2 107.5 39.5
t70 100t21.5 116.5q0 70 -33 107t-95 37z" />
    <glyph glyph-name="p" unicode="p" horiz-adv-x="545" 
d="M348 494q77 0 120.5 -47.5t43.5 -129.5q1 -77 -28 -151.5t-91 -126.5t-143 -50q-113 0 -147 90l-55 -259h-66l141 663h62l-19 -88q71 99 182 99zM246 44q63 -2 110.5 42t69 104t20.5 121q0 66 -26.5 97.5t-82.5 31.5q-57 2 -107 -40t-77.5 -105.5t-26.5 -126.5
q0 -56 32.5 -90t87.5 -34z" />
    <glyph glyph-name="q" unicode="q" horiz-adv-x="547" 
d="M462 483h62l-141 -663h-66l57 268q-70 -99 -176 -99q-81 0 -124 47t-43 131q-1 76 28.5 150.5t92 126.5t142.5 50q121 0 149 -99zM206 44q83 -3 147 84.5t62 186.5q0 59 -30.5 92t-86.5 33q-61 2 -109 -42t-70.5 -105t-21.5 -120q0 -66 26.5 -97.5t82.5 -31.5z" />
    <glyph glyph-name="r" unicode="r" horiz-adv-x="346" 
d="M303 488q35 0 78 -18l-23 -53q-32 13 -62 13q-55 0 -95 -45t-58 -129l-54 -256h-66l102 483h62l-16 -73q52 78 132 78z" />
    <glyph glyph-name="s" unicode="s" horiz-adv-x="462" 
d="M249 496q106 0 189 -79l-40 -43q-73 70 -153 70q-50 0 -83.5 -25t-33.5 -60q3 -33 22.5 -45t93.5 -35q95 -31 126 -54.5t35 -81.5q0 -67 -52.5 -111.5t-143.5 -44.5q-107 0 -205 90l40 43q47 -41 86 -60t84 -19q58 0 92.5 27.5t34.5 70.5q0 42 -56 65q-30 11 -77 24
q-85 24 -114.5 51.5t-29.5 71.5q0 60 51.5 102.5t133.5 42.5z" />
    <glyph glyph-name="t" unicode="t" horiz-adv-x="341" 
d="M217 435l-64 -302q-6 -25 -6 -44q0 -43 51 -43q31 0 75 14l7 -52q-41 -18 -93 -18q-55 0 -81 21.5t-26 68.5q0 20 7 55l64 300h-93l10 48h93l36 168h66l-36 -168h133l-10 -48h-133z" />
    <glyph glyph-name="u" unicode="u" horiz-adv-x="528" 
d="M434 483h66l-102 -483h-62l16 75q-60 -88 -162 -88q-70 0 -107.5 33.5t-37.5 91.5q0 32 7 63l65 308h66l-65 -308q-6 -32 -6 -55q0 -76 86 -76q64 0 113.5 46.5t67.5 131.5z" />
    <glyph glyph-name="v" unicode="v" horiz-adv-x="463" 
d="M422 483h70l-272 -483h-88l-65 483h65l24 -187q3 -22 4 -36q25 -209 25 -211q55 107 132 246z" />
    <glyph glyph-name="w" unicode="w" horiz-adv-x="713" 
d="M666 484h67l-241 -484h-81l-13 168q-11 154 -14 236q-26 -57 -90 -189q-13 -26 -24 -49l-81 -166h-84l-31 484h64l11 -191q7 -111 10 -237q45 97 85 178l28 58l96 192h64l15 -192q12 -153 13 -237q48 108 111 235z" />
    <glyph glyph-name="x" unicode="x" horiz-adv-x="460" 
d="M485 483l-211 -231l120 -252h-68l-98 210l-187 -210h-77l234 257l-111 226h68l88 -186l165 186h77z" />
    <glyph glyph-name="y" unicode="y" horiz-adv-x="463" 
d="M424 483h68l-309 -560q-36 -67 -66.5 -91.5t-87.5 -24.5q-37 0 -66 10l17 51q24 -6 45 -6q34 0 55.5 18t49.5 69l12 21l-73 513h64l23 -169l4 -32l30 -234q85 166 136 258z" />
    <glyph glyph-name="z" unicode="z" horiz-adv-x="468" 
d="M475 483l-11 -47l-377 -381h297l-12 -55h-383l10 49l377 380h-277l11 54h365z" />
    <glyph glyph-name="braceleft" unicode="{" horiz-adv-x="363" 
d="M429 752l-11 -49h-40q-61 0 -74 -38q-5 -15 -16 -67l-34 -162q-12 -57 -39 -87t-81 -39l-1 -2q73 -13 73 -78q0 -22 -6 -48l-34 -163q-12 -48 -12 -69q0 -19 13 -28t44 -9h39l-10 -48h-53q-55 0 -76.5 15t-21.5 56q0 35 10 76l34 161q4 17 4 37q0 33 -20 48t-63 15l15 72
q53 0 82 23.5t40 76.5l34 160q21 92 50 119.5t101 27.5h53z" />
    <glyph glyph-name="bar" unicode="|" horiz-adv-x="380" 
d="M250 800v-940h-60v940h60z" />
    <glyph glyph-name="braceright" unicode="}" horiz-adv-x="363" 
d="M149 752h53q54 0 76 -15t22 -55q0 -25 -11 -77l-34 -160q-4 -15 -4 -35q0 -35 20.5 -50t63.5 -15l-15 -72q-52 0 -81.5 -23.5t-41.5 -76.5l-34 -161q-19 -91 -49 -119t-101 -28h-53l10 48h40q61 0 74 38q7 21 17 68l34 163q13 58 39.5 87.5t81.5 38.5l1 2q-74 13 -74 79
q0 13 6 47l34 162q12 52 12 68q0 20 -12.5 28.5t-45.5 8.5h-39z" />
    <glyph glyph-name="asciitilde" unicode="~" horiz-adv-x="600" 
d="M194 395q44 0 124 -33q67 -29 102 -29q30 0 44.5 14.5t16.5 44.5h56q-2 -52 -30.5 -82t-82.5 -30q-38 0 -117 32q-81 31 -114 31q-31 0 -50.5 -16.5t-22.5 -43.5h-57q3 50 37.5 81t93.5 31z" />
    <glyph glyph-name="exclamdown" unicode="&#xa1;" horiz-adv-x="220" 
d="M106 393l19 91h84l-19 -91h-84zM-20 -226l46 213l81 307h40l-51 -308l-45 -212h-71z" />
    <glyph glyph-name="cent" unicode="&#xa2;" 
d="M528 399l-47 -35q-48 65 -105 75l-84 -395q64 6 144 82l42 -42q-98 -93 -198 -97l-19 -87h-54l19 90q-72 12 -110.5 59t-38.5 120q-1 76 26.5 147.5t88 124t142.5 55.5l20 94h54l-20 -96q82 -13 140 -95zM144 175q0 -51 23.5 -85.5t70.5 -43.5l84 394q-56 -6 -98.5 -51
t-61.5 -101.5t-18 -112.5z" />
    <glyph glyph-name="sterling" unicode="&#xa3;" 
d="M407 635q-163 0 -163 -197q0 -54 3 -96h224l-10 -51h-213q-3 -144 -98 -213q25 -1 51 -5.5t44.5 -8.5t19.5 -4q67 -15 104 -15q54 0 130 40l20 -54q-79 -44 -150 -44q-43 0 -126 19q-70 17 -108 17q-17 0 -34 -2t-29 -4.5t-23.5 -6.5t-18 -7t-14 -6.5t-8.5 -3.5l-9 56
q97 35 139 90.5t43 151.5h-98l10 51h87q-2 74 -2 102q0 108 55 178q54 71 179 71q116 0 205 -82l-44 -45q-76 69 -166 69z" />
    <glyph glyph-name="currency" unicode="&#xa4;" 
d="M485 570l40 -39l-68 -68q42 -53 42 -123t-42 -123l67 -67l-40 -39l-68 68q-53 -35 -119 -35q-71 0 -121 37l-71 -71l-39 39l70 70q-41 53 -41 121t40 120l-70 70l40 39l70 -71q53 38 122 38q65 0 118 -35zM297 479q-61 0 -102 -39.5t-41 -99.5t41 -99.5t102 -39.5
t102 39.5t41 99.5t-41 99.5t-102 39.5z" />
    <glyph glyph-name="yen" unicode="&#xa5;" 
d="M642 680l-215 -268h124l-11 -52h-155l-45 -55l-10 -50h188l-11 -52h-188l-43 -203h-67l44 203h-187l11 52h187l10 51l-20 54h-155l11 52h124l-100 268h68l114 -315l246 315h80z" />
    <glyph glyph-name="brokenbar" unicode="&#xa6;" horiz-adv-x="380" 
d="M240 800v-400h-60v400h60zM240 260v-400h-60v400h60z" />
    <glyph glyph-name="section" unicode="&#xa7;" 
d="M419 196q43 -17 61.5 -42t18.5 -66q0 -67 -57.5 -110t-143.5 -43q-64 0 -113.5 17.5t-103.5 57.5l35 47q50 -38 92 -53q36 -14 89 -14q62 0 100.5 27t38.5 69q0 46 -66 67q-41 12 -95 23q-116 26 -165.5 61t-49.5 98q0 91 109 127q-41 17 -59.5 42.5t-18.5 66.5
q0 67 57 109.5t144 42.5q65 0 114.5 -17t102.5 -58l-35 -47q-55 40 -92 53q-40 14 -89 14q-62 0 -100.5 -26.5t-38.5 -68.5q4 -39 35 -55t126 -37q116 -25 165.5 -59.5t49.5 -97.5q0 -92 -111 -128zM125 338q3 -47 43 -69t134 -41l31 -6q132 21 132 99q-4 46 -41.5 66
t-135.5 41q-19 5 -36 8q-127 -25 -127 -98z" />
    <glyph glyph-name="dieresis" unicode="&#xa8;" horiz-adv-x="444" 
d="M265 684l-20 -94h-66l20 94h66zM433 684l-20 -94h-66l20 94h66z" />
    <glyph glyph-name="copyright" unicode="&#xa9;" horiz-adv-x="856" 
d="M451 723q153 3 261.5 -105.5t106.5 -262.5q2 -154 -106.5 -262.5t-261.5 -105.5q-153 -3 -261.5 105.5t-106.5 262.5q-2 154 106.5 262.5t261.5 105.5zM451 675q-132 2 -222.5 -91.5t-88.5 -228.5q-2 -135 88.5 -228.5t222.5 -91.5q132 -2 222.5 91.5t88.5 228.5
q2 135 -88.5 228.5t-222.5 91.5zM455 576q122 0 176 -107l-55 -26q-23 42 -51 60t-69 18q-64 0 -103 -47q-39 -48 -39 -119q0 -72 39.5 -118.5t102.5 -46.5q45 0 72 19t51 67l55 -27q-31 -61 -72.5 -88t-106.5 -27q-92 0 -150 63t-58 158t58 158t150 63z" />
    <glyph glyph-name="ordfeminine" unicode="&#xaa;" horiz-adv-x="405" 
d="M299 714q64 0 96.5 -26.5t32.5 -69.5q0 -12 -3 -24l-54 -256h-52l11 52q-50 -63 -135 -63q-54 0 -84 23t-30 63q0 59 45.5 91.5t148.5 49.5l90 15l4 19q1 5 1 19q0 61 -76 61q-62 0 -136 -62l-31 34q80 74 172 74zM202 374q55 0 94 28t50 78l10 47l-76 -15
q-79 -15 -112 -35.5t-33 -56.5q0 -46 67 -46z" />
    <glyph glyph-name="guillemotleft" unicode="&#xab;" horiz-adv-x="553" 
d="M324 468l-190 -221l92 -209h-65l-94 215l184 215h73zM535 468l-190 -221l92 -209h-65l-94 215l184 215h73z" />
    <glyph glyph-name="logicalnot" unicode="&#xac;" horiz-adv-x="600" 
d="M40 338h520v-260h-59v204h-461v56z" />
    <glyph glyph-name="registered" unicode="&#xae;" horiz-adv-x="562" 
d="M339 722q94 0 157.5 -63.5t63.5 -157.5t-63.5 -157.5t-157.5 -63.5t-157.5 63.5t-63.5 157.5t63.5 157.5t157.5 63.5zM339 687q-78 0 -129.5 -53t-51.5 -133t51.5 -133t129.5 -53t129.5 53.5t51.5 132.5t-51.5 132.5t-129.5 53.5zM254 628h101q35 0 57.5 -22t22.5 -55
q0 -51 -49 -70l63 -101h-47l-58 96h-48v-96h-42v248zM346 591h-50v-80h50q48 0 48 40t-48 40z" />
    <glyph glyph-name="overscore" unicode="&#xaf;" horiz-adv-x="459" 
d="M443 648l-11 -52h-253l11 52h253z" />
    <glyph glyph-name="degree" unicode="&#xb0;" horiz-adv-x="399" 
d="M269 720q59 0 100 -38q40 -39 40 -97q0 -60 -40 -97q-41 -39 -100 -39q-58 0 -98 38.5t-40 97.5q0 57 40.5 96t97.5 39zM269 671q-37 0 -61 -24t-24 -62t24 -62.5t61 -24.5q38 0 62 24.5t24 62.5t-24 62t-62 24z" />
    <glyph glyph-name="plusminus" unicode="&#xb1;" horiz-adv-x="600" 
d="M329 651v-232h231v-56h-231v-232h-58v232h-231v56h231v232h58zM560 56v-56h-520v56h520z" />
    <glyph glyph-name="uni00B2" unicode="&#xb2;" horiz-adv-x="407" 
d="M247 451q-55 -26 -82.5 -47t-38.5 -52h248l-12 -50h-308l5 23q14 60 54.5 100.5t111.5 72.5l32 15q82 36 100 60q12 15 12 39q0 26 -21 41t-55 15q-33 0 -60 -11t-69 -41l-30 42q81 62 159 62q60 0 96.5 -28t36.5 -73q0 -73 -70 -114q-30 -17 -109 -54z" />
    <glyph glyph-name="uni00B3" unicode="&#xb3;" horiz-adv-x="407" 
d="M429 710l-10 -49l-161 -115q60 1 92.5 -28t32.5 -78q0 -60 -44 -104t-121 -44q-86 0 -165 51l36 43q68 -42 131 -42q44 0 74 26t30 65q0 67 -84 67q-39 0 -52 -7l-24 37l178 128h-204l10 50h281z" />
    <glyph glyph-name="acute" unicode="&#xb4;" horiz-adv-x="324" 
d="M353 710l-123 -142h-61l102 142h82z" />
    <glyph glyph-name="paragraph" unicode="&#xb6;" horiz-adv-x="709" 
d="M402 710v-810h-58v379h-77q-102 0 -164.5 58.5t-62.5 157.5t62 157t165 58h135zM546 710v-810h-59v810h59z" />
    <glyph glyph-name="middot" unicode="&#xb7;" horiz-adv-x="204" 
d="M167 351l-19 -92h-84l19 92h84z" />
    <glyph glyph-name="cedilla" unicode="&#xb8;" horiz-adv-x="406" 
d="M139 -68h9q36 0 61.5 -19t25.5 -53q0 -38 -29 -64t-79 -26q-57 0 -110 33l26 36q49 -26 81 -26q65 0 65 46q0 17 -15.5 27t-40.5 10q-17 0 -29 -3l-20 24l67 101l34 -18z" />
    <glyph glyph-name="uni00B9" unicode="&#xb9;" horiz-adv-x="324" 
d="M260 710h44l-87 -408h-57l70 329l-91 -57l-23 44z" />
    <glyph glyph-name="ordmasculine" unicode="&#xba;" horiz-adv-x="442" 
d="M315 717q66 0 106.5 -40.5t40.5 -105.5q1 -55 -23.5 -110t-75.5 -94t-116 -37q-66 0 -106 40.5t-40 105.5q-1 54 23 109t75 94.5t116 37.5zM312 670q-69 0 -112.5 -60.5t-43.5 -130.5q0 -48 24.5 -75t69.5 -27q70 0 113 60.5t43 130.5q0 48 -24.5 75t-69.5 27z" />
    <glyph glyph-name="guillemotright" unicode="&#xbb;" horiz-adv-x="553" 
d="M185 468l94 -215l-184 -215h-73l189 221l-91 209h65zM396 468l94 -215l-184 -215h-73l190 221l-92 209h65z" />
    <glyph glyph-name="onequarter" unicode="&#xbc;" horiz-adv-x="861" 
d="M257 680h44l-87 -408h-57l70 329l-91 -57l-23 44zM714 694l38 -31l-624 -677l-36 32zM747 143h57l-10 -48h-58l-20 -95h-59l21 95h-211l11 54l222 259h70l-228 -265h147l18 90h59z" />
    <glyph glyph-name="onehalf" unicode="&#xbd;" horiz-adv-x="923" 
d="M257 680h44l-87 -408h-57l70 329l-91 -57l-23 44zM714 694l38 -31l-624 -677l-36 32zM704 149q-55 -25 -83 -46.5t-39 -52.5h249l-12 -50h-308l5 23q14 60 54.5 100.5t111.5 72.5l32 15q82 36 100 60q12 15 12 39q0 26 -21 41t-55 15q-33 0 -60 -11t-69 -41l-30 42
q81 62 159 62q60 0 96.5 -28t36.5 -73q0 -73 -70 -114q-30 -17 -109 -54z" />
    <glyph glyph-name="threequarters" unicode="&#xbe;" horiz-adv-x="959" 
d="M430 680l-10 -49l-161 -115q60 1 92.5 -28t32.5 -78q0 -60 -44 -104t-121 -44q-86 0 -165 51l36 43q68 -42 131 -42q44 0 74 26t30 65q0 67 -84 67q-39 0 -52 -7l-24 37l178 128h-204l10 50h281zM812 694l38 -31l-624 -677l-36 32zM845 143h57l-10 -48h-58l-20 -95h-59
l21 95h-211l11 54l222 259h70l-228 -265h147l18 90h59z" />
    <glyph glyph-name="questiondown" unicode="&#xbf;" horiz-adv-x="453" 
d="M239 393l19 91h84l-19 -91h-84zM117 -241q-75 0 -127 37q-51 38 -51 110q0 76 60 133q27 24 83 68l37 29q52 39 73 64q20 23 34 65l10 34h53l-9 -42q-14 -62 -33.5 -88.5t-86.5 -78.5l-20 -15q-57 -42 -81 -63.5t-38 -45.5q-15 -24 -15 -56q0 -42 32 -66t87 -24
q98 0 201 85l36 -49q-124 -97 -245 -97z" />
    <glyph glyph-name="Agrave" unicode="&#xc0;" horiz-adv-x="651" 
d="M511 0l-29 199h-323l-114 -199h-76l410 710h92l108 -710h-68zM193 259h280l-15 99l-14 95q-1 5 -2.5 16.5t-4.5 31t-6 38.5q-11 69 -15 119q-43 -83 -167 -301zM348 917h70l44 -142h-52z" />
    <glyph glyph-name="Aacute" unicode="&#xc1;" horiz-adv-x="651" 
d="M511 0l-29 199h-323l-114 -199h-76l410 710h92l108 -710h-68zM193 259h280l-15 99l-14 95q-1 5 -2.5 16.5t-4.5 31t-6 38.5q-11 69 -15 119q-43 -83 -167 -301zM590 917l-123 -142h-61l102 142h82z" />
    <glyph glyph-name="Acircumflex" unicode="&#xc2;" horiz-adv-x="651" 
d="M511 0l-29 199h-323l-114 -199h-76l410 710h92l108 -710h-68zM193 259h280l-15 99l-14 95q-1 5 -2.5 16.5t-4.5 31t-6 38.5q-11 69 -15 119q-43 -83 -167 -301zM525 775l-59 105l-104 -105h-63l129 142h83l67 -142h-53z" />
    <glyph glyph-name="Atilde" unicode="&#xc3;" horiz-adv-x="651" 
d="M511 0l-29 199h-323l-114 -199h-76l410 710h92l108 -710h-68zM193 259h280l-15 99l-14 95q-1 5 -2.5 16.5t-4.5 31t-6 38.5q-11 69 -15 119q-43 -83 -167 -301zM394 889q30 0 74 -30q31 -22 48 -22q29 0 42 51h47q-9 -46 -32 -73.5t-55 -27.5q-25 0 -66 26q-40 25 -61 25
q-34 0 -47 -51h-47q10 48 35.5 75t61.5 27z" />
    <glyph glyph-name="Adieresis" unicode="&#xc4;" horiz-adv-x="651" 
d="M511 0l-29 199h-323l-114 -199h-76l410 710h92l108 -710h-68zM193 259h280l-15 99l-14 95q-1 5 -2.5 16.5t-4.5 31t-6 38.5q-11 69 -15 119q-43 -83 -167 -301zM413 891l-20 -94h-66l20 94h66zM581 891l-20 -94h-66l20 94h66z" />
    <glyph glyph-name="Aring" unicode="&#xc5;" horiz-adv-x="655" 
d="M515 0l-30 199h-327l-113 -199h-76l407 705q-45 31 -45 85q0 50 35.5 85t84.5 35q47 0 76.5 -29t29.5 -75q0 -38 -22 -68t-58 -43l106 -695h-68zM450 871q-30 0 -52.5 -24.5t-22.5 -56.5q0 -26 17.5 -44t42.5 -18q33 0 55 22t22 56q0 30 -16.5 47.5t-45.5 17.5zM192 259
h284l-15 97l-5 33q-32 222 -37 275q-48 -92 -171 -308z" />
    <glyph glyph-name="AE" unicode="&#xc6;" horiz-adv-x="944" 
d="M975 651h-390l-55 -257h362l-12 -58h-362l-58 -277h397l-12 -59h-469l43 199h-238l-146 -199h-76l522 710h507zM225 259h206l85 398z" />
    <glyph glyph-name="Ccedilla" unicode="&#xc7;" horiz-adv-x="661" 
d="M455 725q140 0 229 -115l-48 -39q-79 93 -186 93q-75 2 -138 -34.5t-102 -94.5t-60 -127t-20 -135q0 -105 54 -165.5t150 -60.5q61 0 112.5 26t120.5 88l43 -44q-129 -132 -273 -132h-10l-36 -53h9q35 0 61 -19.5t26 -52.5q0 -38 -29 -64t-79 -26q-57 0 -110 33l26 36
q49 -26 81 -26q65 0 65 46q0 17 -15.5 27t-40.5 10q-17 0 -29 -3l-20 24l47 72q-108 15 -166 91t-58 186q-1 61 13.5 124t47 124t78 108.5t112.5 76t145 26.5z" />
    <glyph glyph-name="Egrave" unicode="&#xc8;" horiz-adv-x="602" 
d="M646 710l-13 -59h-389l-55 -257h362l-13 -58h-361l-59 -277h398l-13 -59h-468l151 710h460zM338 917h70l44 -142h-52z" />
    <glyph glyph-name="Eacute" unicode="&#xc9;" horiz-adv-x="602" 
d="M646 710l-13 -59h-389l-55 -257h362l-13 -58h-361l-59 -277h398l-13 -59h-468l151 710h460zM581 917l-123 -142h-61l102 142h82z" />
    <glyph glyph-name="Ecircumflex" unicode="&#xca;" horiz-adv-x="602" 
d="M646 710l-13 -59h-389l-55 -257h362l-13 -58h-361l-59 -277h398l-13 -59h-468l151 710h460zM516 775l-59 105l-104 -105h-63l129 142h83l67 -142h-53z" />
    <glyph glyph-name="Edieresis" unicode="&#xcb;" horiz-adv-x="602" 
d="M646 710l-13 -59h-389l-55 -257h362l-13 -58h-361l-59 -277h398l-13 -59h-468l151 710h460zM404 891l-20 -94h-66l20 94h66zM572 891l-20 -94h-66l20 94h66z" />
    <glyph glyph-name="Igrave" unicode="&#xcc;" horiz-adv-x="261" 
d="M264 710l-151 -710h-71l151 710h71zM151 917h70l44 -142h-52z" />
    <glyph glyph-name="Iacute" unicode="&#xcd;" horiz-adv-x="261" 
d="M264 710l-151 -710h-71l151 710h71zM393 917l-123 -142h-61l102 142h82z" />
    <glyph glyph-name="Icircumflex" unicode="&#xce;" horiz-adv-x="261" 
d="M264 710l-151 -710h-71l151 710h71zM328 775l-59 105l-104 -105h-63l129 142h83l67 -142h-53z" />
    <glyph glyph-name="Idieresis" unicode="&#xcf;" horiz-adv-x="261" 
d="M264 710l-151 -710h-71l151 710h71zM216 891l-20 -94h-66l20 94h66zM384 891l-20 -94h-66l20 94h66z" />
    <glyph glyph-name="Eth" unicode="&#xd0;" horiz-adv-x="730" 
d="M214 710h213q129 0 203 -74.5t74 -195.5q1 -62 -12.5 -123.5t-44 -119.5t-73.5 -102t-107 -70t-140 -25h-264l71 337h-88l13 58h88zM146 59h170q65 -1 119.5 22t90.5 61.5t61 88.5t35.5 101.5t10.5 102.5q0 104 -55 160t-164 56h-142l-55 -256h195l-14 -58h-193z" />
    <glyph glyph-name="Ntilde" unicode="&#xd1;" horiz-adv-x="730" 
d="M671 710h69l-151 -710h-79l-152 340l-18 40q-65 144 -107 248q-15 -86 -55 -275l-74 -353h-69l151 710h79l151 -339q82 -185 125 -289q32 171 55 274zM433 889q31 0 74 -30q31 -22 48 -22q29 0 42 51h47q-9 -46 -32 -73.5t-55 -27.5q-25 0 -66 26q-40 25 -61 25
q-34 0 -47 -51h-47q10 48 35.5 75t61.5 27z" />
    <glyph glyph-name="Ograve" unicode="&#xd2;" horiz-adv-x="744" 
d="M444 725q128 0 202 -78q72 -78 72 -211q1 -76 -24 -155t-71 -146.5t-121 -109.5t-165 -40q-130 0 -203.5 77.5t-73.5 212.5q-1 60 14.5 123t48 122.5t77 105.5t108.5 73.5t136 25.5zM443 664q-58 2 -109 -21t-88 -63t-63.5 -90.5t-39.5 -105.5t-12 -108
q0 -109 55.5 -169.5t150.5 -60.5q95 -2 168.5 59.5t108 150t33.5 179.5q0 108 -54 168.5t-150 60.5zM392 917h70l44 -142h-52z" />
    <glyph glyph-name="Oacute" unicode="&#xd3;" horiz-adv-x="744" 
d="M444 725q128 0 202 -78q72 -78 72 -211q1 -76 -24 -155t-71 -146.5t-121 -109.5t-165 -40q-130 0 -203.5 77.5t-73.5 212.5q-1 60 14.5 123t48 122.5t77 105.5t108.5 73.5t136 25.5zM443 664q-58 2 -109 -21t-88 -63t-63.5 -90.5t-39.5 -105.5t-12 -108
q0 -109 55.5 -169.5t150.5 -60.5q95 -2 168.5 59.5t108 150t33.5 179.5q0 108 -54 168.5t-150 60.5zM634 917l-123 -142h-61l102 142h82z" />
    <glyph glyph-name="Ocircumflex" unicode="&#xd4;" horiz-adv-x="744" 
d="M444 725q128 0 202 -78q72 -78 72 -211q1 -76 -24 -155t-71 -146.5t-121 -109.5t-165 -40q-130 0 -203.5 77.5t-73.5 212.5q-1 60 14.5 123t48 122.5t77 105.5t108.5 73.5t136 25.5zM443 664q-58 2 -109 -21t-88 -63t-63.5 -90.5t-39.5 -105.5t-12 -108
q0 -109 55.5 -169.5t150.5 -60.5q95 -2 168.5 59.5t108 150t33.5 179.5q0 108 -54 168.5t-150 60.5zM569 775l-59 105l-104 -105h-63l129 142h83l67 -142h-53z" />
    <glyph glyph-name="Otilde" unicode="&#xd5;" horiz-adv-x="744" 
d="M444 725q128 0 202 -78q72 -78 72 -211q1 -76 -24 -155t-71 -146.5t-121 -109.5t-165 -40q-130 0 -203.5 77.5t-73.5 212.5q-1 60 14.5 123t48 122.5t77 105.5t108.5 73.5t136 25.5zM443 664q-58 2 -109 -21t-88 -63t-63.5 -90.5t-39.5 -105.5t-12 -108
q0 -109 55.5 -169.5t150.5 -60.5q95 -2 168.5 59.5t108 150t33.5 179.5q0 108 -54 168.5t-150 60.5zM438 889q30 0 74 -30q31 -22 48 -22q29 0 42 51h47q-9 -46 -32 -73.5t-55 -27.5q-25 0 -66 26q-40 25 -61 25q-34 0 -47 -51h-47q10 48 35.5 75t61.5 27z" />
    <glyph glyph-name="Odieresis" unicode="&#xd6;" horiz-adv-x="744" 
d="M444 725q128 0 202 -78q72 -78 72 -211q1 -76 -24 -155t-71 -146.5t-121 -109.5t-165 -40q-130 0 -203.5 77.5t-73.5 212.5q-1 60 14.5 123t48 122.5t77 105.5t108.5 73.5t136 25.5zM443 664q-58 2 -109 -21t-88 -63t-63.5 -90.5t-39.5 -105.5t-12 -108
q0 -109 55.5 -169.5t150.5 -60.5q95 -2 168.5 59.5t108 150t33.5 179.5q0 108 -54 168.5t-150 60.5zM457 891l-20 -94h-66l20 94h66zM625 891l-20 -94h-66l20 94h66z" />
    <glyph glyph-name="multiply" unicode="&#xd7;" horiz-adv-x="600" 
d="M523 494l-184 -184l184 -184l-39 -39l-184 183l-185 -183l-39 39l184 184l-184 184l39 40l185 -184l184 184z" />
    <glyph glyph-name="Oslash" unicode="&#xd8;" horiz-adv-x="744" 
d="M758 674l-77 -76q37 -68 37 -162q1 -76 -24 -155t-71 -146.5t-121 -109.5t-165 -40q-126 0 -203 77l-64 -62l-39 36l71 69q-42 69 -42 170q-1 60 14.5 123t48 122.5t77 105.5t108.5 73.5t136 25.5q131 0 206 -83l70 68zM131 276q0 -68 23 -120l447 438q-52 70 -157 70
q-94 3 -168.5 -59t-110 -150.5t-34.5 -178.5zM647 435q0 67 -19 111l-445 -436q55 -64 153 -64q72 -2 133 33.5t99 93.5t59 126.5t20 135.5z" />
    <glyph glyph-name="Ugrave" unicode="&#xd9;" horiz-adv-x="687" 
d="M704 710l-105 -490q-25 -116 -96 -175t-195 -59q-115 0 -174 45.5t-59 132.5q0 25 8 68l102 478h71l-104 -485q-6 -27 -6 -51q0 -127 166 -127q179 0 217 178l103 485h72zM357 917h70l44 -142h-52z" />
    <glyph glyph-name="Uacute" unicode="&#xda;" horiz-adv-x="687" 
d="M704 710l-105 -490q-25 -116 -96 -175t-195 -59q-115 0 -174 45.5t-59 132.5q0 25 8 68l102 478h71l-104 -485q-6 -27 -6 -51q0 -127 166 -127q179 0 217 178l103 485h72zM599 917l-123 -142h-61l102 142h82z" />
    <glyph glyph-name="Ucircumflex" unicode="&#xdb;" horiz-adv-x="687" 
d="M704 710l-105 -490q-25 -116 -96 -175t-195 -59q-115 0 -174 45.5t-59 132.5q0 25 8 68l102 478h71l-104 -485q-6 -27 -6 -51q0 -127 166 -127q179 0 217 178l103 485h72zM534 775l-59 105l-104 -105h-63l129 142h83l67 -142h-53z" />
    <glyph glyph-name="Udieresis" unicode="&#xdc;" horiz-adv-x="687" 
d="M704 710l-105 -490q-25 -116 -96 -175t-195 -59q-115 0 -174 45.5t-59 132.5q0 25 8 68l102 478h71l-104 -485q-6 -27 -6 -51q0 -127 166 -127q179 0 217 178l103 485h72zM422 891l-20 -94h-66l20 94h66zM590 891l-20 -94h-66l20 94h66z" />
    <glyph glyph-name="Yacute" unicode="&#xdd;" horiz-adv-x="619" 
d="M618 710h83l-339 -405l-64 -305h-71l65 306l-164 404h72l136 -343zM563 917l-123 -142h-61l102 142h82z" />
    <glyph glyph-name="Thorn" unicode="&#xde;" horiz-adv-x="640" 
d="M229 577h212q88 0 141 -47t53 -128q0 -98 -68.5 -168.5t-194.5 -70.5h-232l-34 -163h-71l151 710h71zM153 222h203q104 0 157 49t53 129q0 57 -37 87.5t-104 30.5h-209z" />
    <glyph glyph-name="germandbls" unicode="&#xdf;" horiz-adv-x="565" 
d="M414 400q52 -19 81.5 -63.5t29.5 -105.5q0 -101 -63.5 -169.5t-178.5 -68.5q-73 0 -133 22l21 51q58 -18 109 -18q83 0 132 52.5t49 129.5q0 67 -43.5 105.5t-122.5 38.5h-25l11 51h25q80 0 120.5 44t40.5 101q0 44 -30.5 71.5t-82.5 27.5q-126 0 -157 -150l-110 -519
h-66l112 528q42 196 224 196q82 0 127 -44.5t45 -109.5q0 -54 -31 -100.5t-84 -69.5z" />
    <glyph glyph-name="agrave" unicode="&#xe0;" horiz-adv-x="548" 
d="M458 483h62l-103 -483h-60l19 91q-66 -102 -175 -102q-81 0 -124 47t-43 131q-1 76 28.5 150.5t92 126.5t142.5 50q57 0 94 -24.5t50 -68.5zM209 44q81 -4 143 85t60 188q0 123 -111 123q-61 2 -109 -42t-70.5 -105t-21.5 -120q0 -129 109 -129zM252 710h70l44 -142h-52z
" />
    <glyph glyph-name="aacute" unicode="&#xe1;" horiz-adv-x="548" 
d="M458 483h62l-103 -483h-60l19 91q-66 -102 -175 -102q-81 0 -124 47t-43 131q-1 76 28.5 150.5t92 126.5t142.5 50q57 0 94 -24.5t50 -68.5zM209 44q81 -4 143 85t60 188q0 123 -111 123q-61 2 -109 -42t-70.5 -105t-21.5 -120q0 -129 109 -129zM494 710l-123 -142h-61
l102 142h82z" />
    <glyph glyph-name="acircumflex" unicode="&#xe2;" horiz-adv-x="548" 
d="M458 483h62l-103 -483h-60l19 91q-66 -102 -175 -102q-81 0 -124 47t-43 131q-1 76 28.5 150.5t92 126.5t142.5 50q57 0 94 -24.5t50 -68.5zM209 44q81 -4 143 85t60 188q0 123 -111 123q-61 2 -109 -42t-70.5 -105t-21.5 -120q0 -129 109 -129zM429 568l-59 105
l-104 -105h-63l129 142h83l67 -142h-53z" />
    <glyph glyph-name="atilde" unicode="&#xe3;" horiz-adv-x="548" 
d="M458 483h62l-103 -483h-60l19 91q-66 -102 -175 -102q-81 0 -124 47t-43 131q-1 76 28.5 150.5t92 126.5t142.5 50q57 0 94 -24.5t50 -68.5zM209 44q81 -4 143 85t60 188q0 123 -111 123q-61 2 -109 -42t-70.5 -105t-21.5 -120q0 -129 109 -129zM298 682q30 0 74 -30
q31 -22 48 -22q29 0 42 51h47q-9 -46 -32 -73.5t-55 -27.5q-25 0 -66 26q-40 25 -61 25q-34 0 -47 -51h-47q10 48 35.5 75t61.5 27z" />
    <glyph glyph-name="adieresis" unicode="&#xe4;" horiz-adv-x="548" 
d="M458 483h62l-103 -483h-60l19 91q-66 -102 -175 -102q-81 0 -124 47t-43 131q-1 76 28.5 150.5t92 126.5t142.5 50q57 0 94 -24.5t50 -68.5zM209 44q81 -4 143 85t60 188q0 123 -111 123q-61 2 -109 -42t-70.5 -105t-21.5 -120q0 -129 109 -129zM317 684l-20 -94h-66
l20 94h66zM485 684l-20 -94h-66l20 94h66z" />
    <glyph glyph-name="aring" unicode="&#xe5;" horiz-adv-x="548" 
d="M458 483h62l-103 -483h-60l19 91q-66 -102 -175 -102q-81 0 -124 47t-43 131q-1 76 28.5 150.5t92 126.5t142.5 50q57 0 94 -24.5t50 -68.5zM209 44q81 -4 143 85t60 188q0 123 -111 123q-61 2 -109 -42t-70.5 -105t-21.5 -120q0 -129 109 -129zM367 749q42 0 67 -24.5
t25 -64.5q0 -46 -30.5 -77t-77.5 -31q-41 0 -66 24.5t-25 63.5q0 45 31 77t76 32zM365 712q-27 0 -45.5 -21.5t-18.5 -51.5q0 -23 14 -36t37 -13q29 0 47 20.5t18 50.5q0 51 -52 51z" />
    <glyph glyph-name="ae" unicode="&#xe6;" horiz-adv-x="852" 
d="M800 236h-366q-4 -21 -4 -52q0 -65 33 -103.5t99 -38.5q49 0 91 22.5t90 76.5l44 -36q-98 -118 -228 -118q-117 0 -168 87q-92 -89 -212 -89q-74 0 -119.5 35t-45.5 90q0 143 231 165l135 13l7 29q6 24 6 43q0 82 -106 82q-84 0 -168 -78l-39 40q104 92 211 92
q64 0 105 -22.5t53 -61.5q72 84 192 84q76 0 124.5 -46t48.5 -121q0 -45 -14 -93zM636 442q-70 0 -118.5 -42.5t-71.5 -113.5h304q4 17 4 39q0 55 -31 86t-87 31zM185 40q105 0 184 91q-5 30 -5 49q0 29 5 57l-118 -12q-91 -10 -131.5 -36t-40.5 -74q0 -33 29.5 -54
t76.5 -21z" />
    <glyph glyph-name="ccedilla" unicode="&#xe7;" horiz-adv-x="479" 
d="M224 43q79 0 167 87l42 -41q-99 -101 -207 -102l-38 -55h9q36 0 61.5 -19t25.5 -53q0 -38 -29 -64t-79 -26q-57 0 -110 33l26 36q49 -26 81 -26q65 0 65 46q0 17 -15.5 27t-40.5 10q-17 0 -29 -3l-20 24l48 73q-70 11 -109 61.5t-39 129.5q-1 71 29 142.5t93.5 123
t145.5 49.5q113 0 175 -96l-50 -35q-30 42 -58 59.5t-70 17.5q-60 2 -107.5 -42t-69.5 -102.5t-21 -112.5q0 -68 31.5 -105t92.5 -37z" />
    <glyph glyph-name="egrave" unicode="&#xe8;" horiz-adv-x="521" 
d="M468 236h-365q-4 -20 -4 -50q0 -144 133 -144q89 0 178 100l45 -37q-103 -118 -225 -118q-92 0 -144.5 53t-52.5 144q-1 54 17.5 109t52.5 101.5t87.5 75t117.5 26.5q78 0 126.5 -44.5t48.5 -118.5q0 -54 -15 -97zM305 442q-69 0 -117.5 -42t-72.5 -114h305q3 18 3 40
q0 54 -31 85t-87 31zM246 710h70l44 -142h-52z" />
    <glyph glyph-name="eacute" unicode="&#xe9;" horiz-adv-x="521" 
d="M468 236h-365q-4 -20 -4 -50q0 -144 133 -144q89 0 178 100l45 -37q-103 -118 -225 -118q-92 0 -144.5 53t-52.5 144q-1 54 17.5 109t52.5 101.5t87.5 75t117.5 26.5q78 0 126.5 -44.5t48.5 -118.5q0 -54 -15 -97zM305 442q-69 0 -117.5 -42t-72.5 -114h305q3 18 3 40
q0 54 -31 85t-87 31zM488 710l-123 -142h-61l102 142h82z" />
    <glyph glyph-name="ecircumflex" unicode="&#xea;" horiz-adv-x="521" 
d="M468 236h-365q-4 -20 -4 -50q0 -144 133 -144q89 0 178 100l45 -37q-103 -118 -225 -118q-92 0 -144.5 53t-52.5 144q-1 54 17.5 109t52.5 101.5t87.5 75t117.5 26.5q78 0 126.5 -44.5t48.5 -118.5q0 -54 -15 -97zM305 442q-69 0 -117.5 -42t-72.5 -114h305q3 18 3 40
q0 54 -31 85t-87 31zM423 568l-59 105l-104 -105h-63l129 142h83l67 -142h-53z" />
    <glyph glyph-name="edieresis" unicode="&#xeb;" horiz-adv-x="521" 
d="M468 236h-365q-4 -20 -4 -50q0 -144 133 -144q89 0 178 100l45 -37q-103 -118 -225 -118q-92 0 -144.5 53t-52.5 144q-1 54 17.5 109t52.5 101.5t87.5 75t117.5 26.5q78 0 126.5 -44.5t48.5 -118.5q0 -54 -15 -97zM305 442q-69 0 -117.5 -42t-72.5 -114h305q3 18 3 40
q0 54 -31 85t-87 31zM311 684l-20 -94h-66l20 94h66zM479 684l-20 -94h-66l20 94h66z" />
    <glyph glyph-name="igrave" unicode="&#xec;" horiz-adv-x="212" 
d="M189 483l-102 -483h-66l102 483h66zM84 710h70l44 -142h-52z" />
    <glyph glyph-name="iacute" unicode="&#xed;" horiz-adv-x="212" 
d="M189 483l-102 -483h-66l102 483h66zM326 710l-123 -142h-61l102 142h82z" />
    <glyph glyph-name="icircumflex" unicode="&#xee;" horiz-adv-x="212" 
d="M189 483l-102 -483h-66l102 483h66zM261 568l-59 105l-104 -105h-63l129 142h83l67 -142h-53z" />
    <glyph glyph-name="idieresis" unicode="&#xef;" horiz-adv-x="212" 
d="M189 483l-102 -483h-66l102 483h66zM149 684l-20 -94h-66l20 94h66zM317 684l-20 -94h-66l20 94h66z" />
    <glyph glyph-name="eth" unicode="&#xf0;" horiz-adv-x="537" 
d="M521 671l-89 -51q77 -74 77 -202q0 -75 -17 -149t-50 -139.5t-92 -106t-133 -38.5q-90 0 -138 51.5t-48 137.5q-1 49 15.5 101t47 98t81 75t111.5 27q64 0 106 -30.5t57 -80.5q2 22 2 54q0 108 -73 170l-126 -72l-25 37l112 64q-35 22 -76 40l-41 18l31 46l36 -15
q62 -25 107 -56l102 58zM221 42q86 -3 141.5 77t54.5 161q0 67 -33.5 102.5t-98.5 35.5q-47 1 -84.5 -21.5t-59 -59t-33 -77.5t-11.5 -81q0 -137 124 -137z" />
    <glyph glyph-name="ntilde" unicode="&#xf1;" horiz-adv-x="535" 
d="M339 496q70 0 109 -34t39 -89q0 -34 -7 -65l-66 -308h-66l65 309q6 30 6 55q0 78 -93 78q-63 0 -113.5 -45t-65.5 -123l-58 -274h-66l102 483h62l-16 -74q58 87 168 87zM295 682q31 0 74 -30q31 -22 48 -22q29 0 42 51h47q-9 -46 -32 -73.5t-55 -27.5q-25 0 -66 26
q-40 25 -61 25q-34 0 -47 -51h-47q10 48 35.5 75t61.5 27z" />
    <glyph glyph-name="ograve" unicode="&#xf2;" horiz-adv-x="529" 
d="M301 496q89 0 140.5 -52.5t51.5 -145.5q1 -51 -16 -105t-48.5 -101t-84 -76.5t-116.5 -28.5q-91 0 -142.5 53t-51.5 147q-1 39 9.5 81.5t32.5 83.5t52.5 73.5t75.5 52t97 18.5zM299 442q-59 2 -106.5 -40t-70.5 -100t-22 -115q0 -68 34 -106.5t94 -38.5q60 -2 107.5 39.5
t70 100t21.5 116.5q0 70 -33 107t-95 37zM243 710h70l44 -142h-52z" />
    <glyph glyph-name="oacute" unicode="&#xf3;" horiz-adv-x="529" 
d="M301 496q89 0 140.5 -52.5t51.5 -145.5q1 -51 -16 -105t-48.5 -101t-84 -76.5t-116.5 -28.5q-91 0 -142.5 53t-51.5 147q-1 39 9.5 81.5t32.5 83.5t52.5 73.5t75.5 52t97 18.5zM299 442q-59 2 -106.5 -40t-70.5 -100t-22 -115q0 -68 34 -106.5t94 -38.5q60 -2 107.5 39.5
t70 100t21.5 116.5q0 70 -33 107t-95 37zM485 710l-123 -142h-61l102 142h82z" />
    <glyph glyph-name="ocircumflex" unicode="&#xf4;" horiz-adv-x="529" 
d="M301 496q89 0 140.5 -52.5t51.5 -145.5q1 -51 -16 -105t-48.5 -101t-84 -76.5t-116.5 -28.5q-91 0 -142.5 53t-51.5 147q-1 39 9.5 81.5t32.5 83.5t52.5 73.5t75.5 52t97 18.5zM299 442q-59 2 -106.5 -40t-70.5 -100t-22 -115q0 -68 34 -106.5t94 -38.5q60 -2 107.5 39.5
t70 100t21.5 116.5q0 70 -33 107t-95 37zM420 568l-59 105l-104 -105h-63l129 142h83l67 -142h-53z" />
    <glyph glyph-name="otilde" unicode="&#xf5;" horiz-adv-x="529" 
d="M301 496q89 0 140.5 -52.5t51.5 -145.5q1 -51 -16 -105t-48.5 -101t-84 -76.5t-116.5 -28.5q-91 0 -142.5 53t-51.5 147q-1 39 9.5 81.5t32.5 83.5t52.5 73.5t75.5 52t97 18.5zM299 442q-59 2 -106.5 -40t-70.5 -100t-22 -115q0 -68 34 -106.5t94 -38.5q60 -2 107.5 39.5
t70 100t21.5 116.5q0 70 -33 107t-95 37zM289 682q31 0 74 -30q31 -22 48 -22q29 0 42 51h47q-9 -46 -32 -73.5t-55 -27.5q-25 0 -66 26q-40 25 -61 25q-34 0 -47 -51h-47q10 48 35.5 75t61.5 27z" />
    <glyph glyph-name="odieresis" unicode="&#xf6;" horiz-adv-x="529" 
d="M301 496q89 0 140.5 -52.5t51.5 -145.5q1 -51 -16 -105t-48.5 -101t-84 -76.5t-116.5 -28.5q-91 0 -142.5 53t-51.5 147q-1 39 9.5 81.5t32.5 83.5t52.5 73.5t75.5 52t97 18.5zM299 442q-59 2 -106.5 -40t-70.5 -100t-22 -115q0 -68 34 -106.5t94 -38.5q60 -2 107.5 39.5
t70 100t21.5 116.5q0 70 -33 107t-95 37zM308 684l-20 -94h-66l20 94h66zM476 684l-20 -94h-66l20 94h66z" />
    <glyph glyph-name="divide" unicode="&#xf7;" horiz-adv-x="600" 
d="M342 530v-92h-83v92h83zM560 338v-56h-520v56h520zM342 182v-92h-83v92h83z" />
    <glyph glyph-name="oslash" unicode="&#xf8;" horiz-adv-x="527" 
d="M504 479l-48 -54q36 -49 36 -127q1 -51 -16.5 -105t-49.5 -101t-84 -76.5t-115 -28.5q-76 0 -126 38l-40 -44l-33 28l42 48q-37 50 -37 130q-1 39 9.5 81.5t32.5 83.5t53 73.5t76 52t96 18.5q78 0 126 -39l44 50zM99 187q0 -49 16 -80l271 305q-34 30 -88 30
q-59 2 -106 -39.5t-70.5 -100t-22.5 -115.5zM426 298q0 46 -15 77l-269 -304q32 -29 85 -29q59 -2 106.5 39.5t70.5 100t22 116.5z" />
    <glyph glyph-name="ugrave" unicode="&#xf9;" horiz-adv-x="528" 
d="M434 483h66l-102 -483h-62l16 75q-60 -88 -162 -88q-70 0 -107.5 33.5t-37.5 91.5q0 32 7 63l65 308h66l-65 -308q-6 -32 -6 -55q0 -76 86 -76q64 0 113.5 46.5t67.5 131.5zM229 710h70l44 -142h-52z" />
    <glyph glyph-name="uacute" unicode="&#xfa;" horiz-adv-x="528" 
d="M434 483h66l-102 -483h-62l16 75q-60 -88 -162 -88q-70 0 -107.5 33.5t-37.5 91.5q0 32 7 63l65 308h66l-65 -308q-6 -32 -6 -55q0 -76 86 -76q64 0 113.5 46.5t67.5 131.5zM471 710l-123 -142h-61l102 142h82z" />
    <glyph glyph-name="ucircumflex" unicode="&#xfb;" horiz-adv-x="528" 
d="M434 483h66l-102 -483h-62l16 75q-60 -88 -162 -88q-70 0 -107.5 33.5t-37.5 91.5q0 32 7 63l65 308h66l-65 -308q-6 -32 -6 -55q0 -76 86 -76q64 0 113.5 46.5t67.5 131.5zM406 568l-59 105l-104 -105h-63l129 142h83l67 -142h-53z" />
    <glyph glyph-name="udieresis" unicode="&#xfc;" horiz-adv-x="528" 
d="M434 483h66l-102 -483h-62l16 75q-60 -88 -162 -88q-70 0 -107.5 33.5t-37.5 91.5q0 32 7 63l65 308h66l-65 -308q-6 -32 -6 -55q0 -76 86 -76q64 0 113.5 46.5t67.5 131.5zM294 684l-20 -94h-66l20 94h66zM462 684l-20 -94h-66l20 94h66z" />
    <glyph glyph-name="yacute" unicode="&#xfd;" horiz-adv-x="463" 
d="M424 483h68l-309 -560q-36 -67 -66.5 -91.5t-87.5 -24.5q-37 0 -66 10l17 51q24 -6 45 -6q34 0 55.5 18t49.5 69l12 21l-73 513h64l23 -169l4 -32l30 -234q85 166 136 258zM441 710l-123 -142h-61l102 142h82z" />
    <glyph glyph-name="thorn" unicode="&#xfe;" horiz-adv-x="545" 
d="M348 494q77 0 120.5 -47.5t43.5 -129.5q1 -77 -28 -151.5t-91 -126.5t-143 -50q-113 0 -147 90l-55 -259h-66l190 890h66l-66 -307q69 91 176 91zM246 44q63 -2 110.5 42t69 104t20.5 121q0 66 -26.5 97.5t-82.5 31.5q-57 2 -107 -40t-77.5 -105.5t-26.5 -126.5
q0 -56 32.5 -90t87.5 -34z" />
    <glyph glyph-name="ydieresis" unicode="&#xff;" horiz-adv-x="463" 
d="M424 483h68l-309 -560q-36 -67 -66.5 -91.5t-87.5 -24.5q-37 0 -66 10l17 51q24 -6 45 -6q34 0 55.5 18t49.5 69l12 21l-73 513h64l23 -169l4 -32l30 -234q85 166 136 258zM264 684l-20 -94h-66l20 94h66zM432 684l-20 -94h-66l20 94h66z" />
    <glyph glyph-name="Amacron" unicode="&#x100;" horiz-adv-x="651" 
d="M511 0l-29 199h-323l-114 -199h-76l410 710h92l108 -710h-68zM193 259h280l-15 99l-14 95q-1 5 -2.5 16.5t-4.5 31t-6 38.5q-11 69 -15 119q-43 -83 -167 -301zM582 855l-11 -52h-253l11 52h253z" />
    <glyph glyph-name="amacron" unicode="&#x101;" horiz-adv-x="548" 
d="M458 483h62l-103 -483h-60l19 91q-66 -102 -175 -102q-81 0 -124 47t-43 131q-1 76 28.5 150.5t92 126.5t142.5 50q57 0 94 -24.5t50 -68.5zM209 44q81 -4 143 85t60 188q0 123 -111 123q-61 2 -109 -42t-70.5 -105t-21.5 -120q0 -129 109 -129zM486 648l-11 -52h-253
l11 52h253z" />
    <glyph glyph-name="Abreve" unicode="&#x102;" horiz-adv-x="651" 
d="M511 0l-29 199h-323l-114 -199h-76l410 710h92l108 -710h-68zM193 259h280l-15 99l-14 95q-1 5 -2.5 16.5t-4.5 31t-6 38.5q-11 69 -15 119q-43 -83 -167 -301zM451 779q-58 0 -90.5 28t-32.5 72q0 4 2 22h54q-1 -3 -1 -17q0 -62 71 -62q38 0 60.5 21t28.5 58h56
q-24 -122 -148 -122z" />
    <glyph glyph-name="abreve" unicode="&#x103;" horiz-adv-x="548" 
d="M458 483h62l-103 -483h-60l19 91q-66 -102 -175 -102q-81 0 -124 47t-43 131q-1 76 28.5 150.5t92 126.5t142.5 50q57 0 94 -24.5t50 -68.5zM209 44q81 -4 143 85t60 188q0 123 -111 123q-61 2 -109 -42t-70.5 -105t-21.5 -120q0 -129 109 -129zM355 572q-58 0 -90.5 28
t-32.5 72q0 4 2 22h54q-1 -3 -1 -17q0 -62 71 -62q38 0 60.5 21t28.5 58h56q-24 -122 -148 -122z" />
    <glyph glyph-name="Aogonek" unicode="&#x104;" horiz-adv-x="652" 
d="M481 -120q0 -38 42 -38q12 0 24 3l-10 -44q-11 -4 -29 -4q-36 0 -56.5 18t-20.5 51q0 73 93 134h-13l-29 199h-323l-114 -199h-76l410 710h92l108 -710q-98 -63 -98 -120zM193 259h280l-15 99l-14 95q-1 5 -2.5 16.5t-4.5 31t-6 38.5q-11 69 -15 119q-43 -83 -167 -301z
" />
    <glyph glyph-name="aogonek" unicode="&#x105;" horiz-adv-x="547" 
d="M519 483l-103 -483q-98 -63 -98 -120q0 -38 42 -38q12 0 24 3l-10 -44q-11 -4 -29 -4q-36 0 -56.5 18t-20.5 51q0 76 96 134h-8l19 91q-66 -102 -175 -102q-81 0 -124 47t-43 131q-1 76 28.5 150.5t92 126.5t142.5 50q57 0 94 -24.5t50 -68.5l17 82h62zM208 44
q81 -4 143 85t60 188q0 123 -111 123q-61 2 -109 -42t-70.5 -105t-21.5 -120q0 -129 109 -129z" />
    <glyph glyph-name="Cacute" unicode="&#x106;" horiz-adv-x="661" 
d="M455 725q140 0 229 -115l-48 -39q-79 93 -186 93q-75 2 -138 -34.5t-102 -94.5t-60 -127t-20 -135q0 -105 54 -165.5t150 -60.5q61 0 112.5 26t120.5 88l43 -44q-129 -132 -273 -132q-132 0 -205 78t-73 203q-1 61 13.5 124t47 124t78 108.5t112.5 76t145 26.5zM622 917
l-123 -142h-61l102 142h82z" />
    <glyph glyph-name="cacute" unicode="&#x107;" horiz-adv-x="479" 
d="M476 400l-50 -35q-30 42 -58 59.5t-70 17.5q-60 2 -107.5 -42t-69.5 -102.5t-21 -112.5q0 -68 31.5 -105t92.5 -37q79 0 167 87l42 -41q-102 -102 -213 -102q-87 0 -137 52t-50 142q-1 71 29 142.5t93.5 123t145.5 49.5q113 0 175 -96zM485 710l-123 -142h-61l102 142h82
z" />
    <glyph glyph-name="Cdotaccent" unicode="&#x10a;" horiz-adv-x="661" 
d="M455 725q140 0 229 -115l-48 -39q-79 93 -186 93q-75 2 -138 -34.5t-102 -94.5t-60 -127t-20 -135q0 -105 54 -165.5t150 -60.5q61 0 112.5 26t120.5 88l43 -44q-129 -132 -273 -132q-132 0 -205 78t-73 203q-1 61 13.5 124t47 124t78 108.5t112.5 76t145 26.5zM528 891
l-20 -94h-66l20 94h66z" />
    <glyph glyph-name="cdotaccent" unicode="&#x10b;" horiz-adv-x="479" 
d="M476 400l-50 -35q-30 42 -58 59.5t-70 17.5q-60 2 -107.5 -42t-69.5 -102.5t-21 -112.5q0 -68 31.5 -105t92.5 -37q79 0 167 87l42 -41q-102 -102 -213 -102q-87 0 -137 52t-50 142q-1 71 29 142.5t93.5 123t145.5 49.5q113 0 175 -96zM391 684l-20 -94h-66l20 94h66z
" />
    <glyph glyph-name="Ccaron" unicode="&#x10c;" horiz-adv-x="661" 
d="M455 725q140 0 229 -115l-48 -39q-79 93 -186 93q-75 2 -138 -34.5t-102 -94.5t-60 -127t-20 -135q0 -105 54 -165.5t150 -60.5q61 0 112.5 26t120.5 88l43 -44q-129 -132 -273 -132q-132 0 -205 78t-73 203q-1 61 13.5 124t47 124t78 108.5t112.5 76t145 26.5zM640 917
l-129 -142h-83l-67 142h53l59 -105l105 105h62z" />
    <glyph glyph-name="ccaron" unicode="&#x10d;" horiz-adv-x="479" 
d="M476 400l-50 -35q-30 42 -58 59.5t-70 17.5q-60 2 -107.5 -42t-69.5 -102.5t-21 -112.5q0 -68 31.5 -105t92.5 -37q79 0 167 87l42 -41q-102 -102 -213 -102q-87 0 -137 52t-50 142q-1 71 29 142.5t93.5 123t145.5 49.5q113 0 175 -96zM504 710l-129 -142h-83l-67 142h53
l59 -105l105 105h62z" />
    <glyph glyph-name="Dcaron" unicode="&#x10e;" horiz-adv-x="702" 
d="M186 710h213q129 0 203 -74.5t74 -195.5q0 -62 -13.5 -123.5t-43.5 -119.5t-73.5 -102t-107 -70t-139.5 -25h-264zM386 651h-142l-126 -592h170q65 -1 119.5 22t90.5 61.5t61 88.5t35.5 101.5t10.5 102.5q0 104 -55 160t-164 56zM593 917l-129 -142h-83l-67 142h53
l59 -105l105 105h62z" />
    <glyph glyph-name="dcaron" unicode="&#x10f;" horiz-adv-x="672" 
d="M505 710h66l-151 -710h-60l21 99q-71 -110 -183 -110q-81 0 -124 47t-43 131q-1 76 28.5 150.5t92 126.5t142.5 50q114 0 146 -88zM206 44q83 -3 147 84.5t62 186.5q0 59 -29 92t-85 33q-61 2 -110 -42.5t-72 -105.5t-22 -119q0 -66 26.5 -97.5t82.5 -31.5zM763 710
l-99 -190h-45l77 190h67z" />
    <glyph glyph-name="Dcroat" unicode="&#x110;" horiz-adv-x="730" 
d="M214 710h213q129 0 203 -74.5t74 -195.5q1 -62 -12.5 -123.5t-44 -119.5t-73.5 -102t-107 -70t-140 -25h-264l71 337h-88l13 58h88zM146 59h170q65 -1 119.5 22t90.5 61.5t61 88.5t35.5 101.5t10.5 102.5q0 104 -55 160t-164 56h-142l-55 -256h195l-14 -58h-193z" />
    <glyph glyph-name="dslash" unicode="&#x111;" horiz-adv-x="575" 
d="M632 621l-11 -50h-80l-121 -571h-60l21 99q-71 -110 -183 -110q-81 0 -124 47t-43 131q-1 76 28.5 150.5t92 126.5t142.5 50q114 0 146 -88l35 165h-129l11 50h129l19 89h66l-19 -89h80zM206 44q83 -3 147 84.5t62 186.5q0 59 -29 92t-85 33q-61 2 -110 -42.5t-72 -105.5
t-22 -119q0 -66 26.5 -97.5t82.5 -31.5z" />
    <glyph glyph-name="Emacron" unicode="&#x112;" horiz-adv-x="602" 
d="M646 710l-13 -59h-389l-55 -257h362l-13 -58h-361l-59 -277h398l-13 -59h-468l151 710h460zM573 855l-11 -52h-253l11 52h253z" />
    <glyph glyph-name="emacron" unicode="&#x113;" horiz-adv-x="521" 
d="M468 236h-365q-4 -20 -4 -50q0 -144 133 -144q89 0 178 100l45 -37q-103 -118 -225 -118q-92 0 -144.5 53t-52.5 144q-1 54 17.5 109t52.5 101.5t87.5 75t117.5 26.5q78 0 126.5 -44.5t48.5 -118.5q0 -54 -15 -97zM305 442q-69 0 -117.5 -42t-72.5 -114h305q3 18 3 40
q0 54 -31 85t-87 31zM480 648l-11 -52h-253l11 52h253z" />
    <glyph glyph-name="Edotaccent" unicode="&#x116;" horiz-adv-x="602" 
d="M646 710l-13 -59h-389l-55 -257h362l-13 -58h-361l-59 -277h398l-13 -59h-468l151 710h460zM487 891l-20 -94h-66l20 94h66z" />
    <glyph glyph-name="edotaccent" unicode="&#x117;" horiz-adv-x="521" 
d="M468 236h-365q-4 -20 -4 -50q0 -144 133 -144q89 0 178 100l45 -37q-103 -118 -225 -118q-92 0 -144.5 53t-52.5 144q-1 54 17.5 109t52.5 101.5t87.5 75t117.5 26.5q78 0 126.5 -44.5t48.5 -118.5q0 -54 -15 -97zM305 442q-69 0 -117.5 -42t-72.5 -114h305q3 18 3 40
q0 54 -31 85t-87 31zM394 684l-20 -94h-66l20 94h66z" />
    <glyph glyph-name="Eogonek" unicode="&#x118;" horiz-adv-x="602" 
d="M633 651h-389l-55 -257h362l-13 -58h-361l-59 -277h398l-13 -59q-98 -66 -98 -120q0 -38 42 -38q12 0 24 3l-10 -44q-11 -4 -29 -4q-34 0 -55 18.5t-21 50.5q0 76 90 134h-411l151 710h460z" />
    <glyph glyph-name="eogonek" unicode="&#x119;" horiz-adv-x="521" 
d="M284 -203q-36 0 -56.5 19t-20.5 52q0 65 67 123q-17 -4 -44 -4q-92 0 -144.5 53t-52.5 144q-1 54 17.5 109t52.5 101.5t87.5 75t117.5 26.5q78 0 126.5 -44.5t48.5 -118.5q0 -54 -15 -97h-365q-4 -20 -4 -50q0 -144 133 -144q89 0 178 100l45 -37q-31 -38 -92 -82
q-106 -76 -106 -142q0 -39 44 -39q13 0 25 3l-10 -44q-11 -4 -32 -4zM115 286h305q3 18 3 40q0 54 -31 85t-87 31q-67 0 -116.5 -42.5t-73.5 -113.5z" />
    <glyph glyph-name="Ecaron" unicode="&#x11a;" horiz-adv-x="602" 
d="M646 710l-13 -59h-389l-55 -257h362l-13 -58h-361l-59 -277h398l-13 -59h-468l151 710h460zM599 917l-129 -142h-83l-67 142h53l59 -105l105 105h62z" />
    <glyph glyph-name="ecaron" unicode="&#x11b;" horiz-adv-x="521" 
d="M468 236h-365q-4 -20 -4 -50q0 -144 133 -144q89 0 178 100l45 -37q-103 -118 -225 -118q-92 0 -144.5 53t-52.5 144q-1 54 17.5 109t52.5 101.5t87.5 75t117.5 26.5q78 0 126.5 -44.5t48.5 -118.5q0 -54 -15 -97zM305 442q-69 0 -117.5 -42t-72.5 -114h305q3 18 3 40
q0 54 -31 85t-87 31zM507 710l-129 -142h-83l-67 142h53l59 -105l105 105h62z" />
    <glyph glyph-name="Gbreve" unicode="&#x11e;" horiz-adv-x="735" 
d="M372 303l12 59h305l-76 -362h-56l14 101q-82 -115 -234 -115q-129 0 -203 80.5t-74 202.5q-1 64 14 128t47 123.5t78 105.5t114 72.5t148 25.5q163 0 270 -135l-52 -40q-53 61 -103.5 87.5t-120.5 26.5q-62 1 -115.5 -22t-91 -62t-64.5 -90t-40 -106t-12 -108
q0 -105 55.5 -166t158.5 -61q88 0 162.5 61t94.5 161l7 33h-238zM508 779q-58 0 -90.5 28t-32.5 72q0 4 2 22h54q-1 -3 -1 -17q0 -62 71 -62q38 0 60.5 21t28.5 58h56q-24 -122 -148 -122z" />
    <glyph glyph-name="gbreve" unicode="&#x11f;" horiz-adv-x="541" 
d="M455 483h62l-102 -480q-21 -97 -74.5 -145t-146.5 -48q-103 0 -204 74l36 46q91 -65 170 -65q123 0 155 143l18 83q-67 -88 -169 -88q-77 0 -122.5 48.5t-45.5 129.5q-1 51 16.5 106t48.5 102t81.5 76.5t108.5 28.5q118 0 149 -99zM209 58q59 -2 107 40t71.5 100.5
t22.5 114.5q0 60 -31 93.5t-88 33.5q-59 2 -105 -39.5t-67.5 -98.5t-20.5 -111q0 -133 111 -133zM346 572q-58 0 -90.5 28t-32.5 72q0 4 2 22h54q-1 -3 -1 -17q0 -62 71 -62q38 0 60.5 21t28.5 58h56q-24 -122 -148 -122z" />
    <glyph glyph-name="Gdotaccent" unicode="&#x120;" horiz-adv-x="735" 
d="M372 303l12 59h305l-76 -362h-56l14 101q-82 -115 -234 -115q-129 0 -203 80.5t-74 202.5q-1 64 14 128t47 123.5t78 105.5t114 72.5t148 25.5q163 0 270 -135l-52 -40q-53 61 -103.5 87.5t-120.5 26.5q-62 1 -115.5 -22t-91 -62t-64.5 -90t-40 -106t-12 -108
q0 -105 55.5 -166t158.5 -61q88 0 162.5 61t94.5 161l7 33h-238zM553 891l-20 -94h-66l20 94h66z" />
    <glyph glyph-name="gdotaccent" unicode="&#x121;" horiz-adv-x="541" 
d="M455 483h62l-102 -480q-21 -97 -74.5 -145t-146.5 -48q-103 0 -204 74l36 46q91 -65 170 -65q123 0 155 143l18 83q-67 -88 -169 -88q-77 0 -122.5 48.5t-45.5 129.5q-1 51 16.5 106t48.5 102t81.5 76.5t108.5 28.5q118 0 149 -99zM209 58q59 -2 107 40t71.5 100.5
t22.5 114.5q0 60 -31 93.5t-88 33.5q-59 2 -105 -39.5t-67.5 -98.5t-20.5 -111q0 -133 111 -133zM391 684l-20 -94h-66l20 94h66z" />
    <glyph glyph-name="Gcommaaccent" unicode="&#x122;" horiz-adv-x="735" 
d="M372 303l12 59h305l-76 -362h-56l14 101q-82 -115 -234 -115q-129 0 -203 80.5t-74 202.5q-1 64 14 128t47 123.5t78 105.5t114 72.5t148 25.5q163 0 270 -135l-52 -40q-53 61 -103.5 87.5t-120.5 26.5q-62 1 -115.5 -22t-91 -62t-64.5 -90t-40 -106t-12 -108
q0 -105 55.5 -166t158.5 -61q88 0 162.5 61t94.5 161l7 33h-238zM358 -77l-17 -79l-70 -94h-39l65 94h-40l17 79h84z" />
    <glyph glyph-name="gcommaaccent" unicode="&#x123;" horiz-adv-x="541" 
d="M455 483h62l-102 -480q-21 -97 -74.5 -145t-146.5 -48q-103 0 -204 74l36 46q91 -65 170 -65q123 0 155 143l18 83q-67 -88 -169 -88q-77 0 -122.5 48.5t-45.5 129.5q-1 51 16.5 106t48.5 102t81.5 76.5t108.5 28.5q118 0 149 -99zM209 58q59 -2 107 40t71.5 100.5
t22.5 114.5q0 60 -31 93.5t-88 33.5q-59 2 -105 -39.5t-67.5 -98.5t-20.5 -111q0 -133 111 -133zM287 586l17 79l72 100h39l-66 -100h40l-17 -79h-85z" />
    <glyph glyph-name="Hbar" unicode="&#x126;" horiz-adv-x="777" 
d="M817 593l-12 -53h-79l-115 -540h-71l71 337h-410l-71 -337h-71l115 540h-81l12 53h80l25 117h71l-25 -117h411l24 117h71l-24 -117h79zM625 396l30 144h-410l-31 -144h411z" />
    <glyph glyph-name="hbar" unicode="&#x127;" horiz-adv-x="560" 
d="M369 496q70 0 107.5 -34t37.5 -92q0 -24 -4 -39l-70 -331h-66l65 309q6 30 6 53q0 40 -21.5 59t-69.5 19q-61 0 -112.5 -43t-66.5 -113l-60 -284h-66l121 571h-80l11 50h80l19 89h66l-19 -89h129l-11 -50h-129l-31 -146q67 71 164 71z" />
    <glyph glyph-name="Imacron" unicode="&#x12a;" horiz-adv-x="261" 
d="M264 710l-151 -710h-71l151 710h71zM385 855l-11 -52h-253l11 52h253z" />
    <glyph glyph-name="imacron" unicode="&#x12b;" horiz-adv-x="212" 
d="M189 483l-102 -483h-66l102 483h66zM318 648l-11 -52h-253l11 52h253z" />
    <glyph glyph-name="Iogonek" unicode="&#x12e;" horiz-adv-x="261" 
d="M264 710l-151 -710q-98 -63 -98 -120q0 -38 42 -38q12 0 24 3l-10 -44q-11 -4 -30 -4q-34 0 -55 18.5t-21 50.5q0 75 93 134h-16l151 710h71z" />
    <glyph glyph-name="iogonek" unicode="&#x12f;" horiz-adv-x="212" 
d="M166 684h66l-20 -94h-66zM21 0l102 483h66l-102 -483q-98 -63 -98 -120q0 -38 42 -38q12 0 24 3l-10 -44q-11 -4 -30 -4q-34 0 -55 18.5t-21 50.5q0 76 92 134h-10z" />
    <glyph glyph-name="Idot" unicode="&#x130;" horiz-adv-x="261" 
d="M264 710l-151 -710h-71l151 710h71zM299 891l-20 -94h-66l20 94h66z" />
    <glyph glyph-name="dotlessi" unicode="&#x131;" horiz-adv-x="212" 
d="M189 483l-102 -483h-66l102 483h66z" />
    <glyph glyph-name="IJ" unicode="&#x132;" horiz-adv-x="721" 
d="M264 710l-151 -710h-71l151 710h71zM737 710l-113 -531q-21 -97 -70 -143.5t-133 -46.5q-96 0 -183 51l32 53q77 -43 147 -43q57 0 90 34t49 109l110 517h71z" />
    <glyph glyph-name="ij" unicode="&#x133;" horiz-adv-x="419" 
d="M232 684l-20 -94h-66l20 94h66zM444 684l-20 -94h-66l20 94h66zM189 483l-102 -483h-66l102 483h66zM55 -178l19 49q36 -10 67 -10q38 0 55.5 22.5t30.5 82.5l109 517h66l-113 -535q-15 -75 -48 -108.5t-95 -33.5q-48 0 -91 16z" />
    <glyph glyph-name="Kcommaaccent" unicode="&#x136;" horiz-adv-x="643" 
d="M708 710l-332 -279l203 -431h-74l-182 387l-164 -138l-53 -249h-71l151 710h71l-78 -368l435 368h94zM325 -77l-17 -79l-70 -94h-39l65 94h-40l17 79h84z" />
    <glyph glyph-name="kcommaaccent" unicode="&#x137;" horiz-adv-x="478" 
d="M497 483l-209 -186l139 -297h-67l-120 258l-120 -101l-33 -157h-66l151 710h66l-101 -472l277 245h83zM237 -77l-17 -79l-70 -94h-39l65 94h-40l17 79h84z" />
    <glyph glyph-name="Lacute" unicode="&#x139;" horiz-adv-x="523" 
d="M257 710l-139 -651h340l-13 -59h-410l151 710h71zM387 917l-123 -142h-61l102 142h82z" />
    <glyph glyph-name="lacute" unicode="&#x13a;" horiz-adv-x="217" 
d="M241 710l-151 -710h-66l151 710h66zM370 907l-123 -142h-61l102 142h82z" />
    <glyph glyph-name="Lcommaaccent" unicode="&#x13b;" horiz-adv-x="523" 
d="M257 710l-139 -651h340l-13 -59h-410l151 710h71zM274 -77l-17 -79l-70 -94h-39l65 94h-40l17 79h84z" />
    <glyph glyph-name="lcommaaccent" unicode="&#x13c;" horiz-adv-x="217" 
d="M241 710l-151 -710h-66l151 710h66zM85 -77l-17 -79l-70 -94h-39l65 94h-40l17 79h84z" />
    <glyph glyph-name="Lcaron" unicode="&#x13d;" horiz-adv-x="523" 
d="M257 710l-139 -651h340l-13 -59h-410l151 710h71zM459 710l-99 -190h-45l77 190h67z" />
    <glyph glyph-name="lcaron" unicode="&#x13e;" horiz-adv-x="352" 
d="M241 710l-151 -710h-66l151 710h66zM442 710l-99 -190h-45l77 190h67z" />
    <glyph glyph-name="Ldot" unicode="&#x13f;" horiz-adv-x="523" 
d="M257 710l-139 -651h340l-13 -59h-410l151 710h71zM437 413l-19 -92h-84l19 92h84z" />
    <glyph glyph-name="ldot" unicode="&#x140;" horiz-adv-x="362" 
d="M241 710l-151 -710h-66l151 710h66zM348 351l-19 -92h-84l19 92h84z" />
    <glyph glyph-name="Lslash" unicode="&#x141;" horiz-adv-x="556" 
d="M148 59h343l-13 -59h-413l65 307l-96 -49l13 63l96 48l73 341h71l-66 -307l175 88l-13 -62l-175 -88z" />
    <glyph glyph-name="lslash" unicode="&#x142;" horiz-adv-x="334" 
d="M349 487l-14 -60l-103 -55l-79 -372h-66l70 333l-107 -57l12 61l108 57l68 316h66l-59 -277z" />
    <glyph glyph-name="Nacute" unicode="&#x143;" horiz-adv-x="730" 
d="M671 710h69l-151 -710h-79l-152 340l-18 40q-65 144 -107 248q-15 -86 -55 -275l-74 -353h-69l151 710h79l151 -339q82 -185 125 -289q32 171 55 274zM629 917l-123 -142h-61l102 142h82z" />
    <glyph glyph-name="nacute" unicode="&#x144;" horiz-adv-x="535" 
d="M339 496q70 0 109 -34t39 -89q0 -34 -7 -65l-66 -308h-66l65 309q6 30 6 55q0 78 -93 78q-63 0 -113.5 -45t-65.5 -123l-58 -274h-66l102 483h62l-16 -74q58 87 168 87zM491 710l-123 -142h-61l102 142h82z" />
    <glyph glyph-name="Ncommaaccent" unicode="&#x145;" horiz-adv-x="730" 
d="M671 710h69l-151 -710h-79l-152 340l-18 40q-65 144 -107 248q-15 -86 -55 -275l-74 -353h-69l151 710h79l151 -339q82 -185 125 -289q32 171 55 274zM339 -77l-17 -79l-70 -94h-39l65 94h-40l17 79h84z" />
    <glyph glyph-name="ncommaaccent" unicode="&#x146;" horiz-adv-x="535" 
d="M339 496q70 0 109 -34t39 -89q0 -34 -7 -65l-66 -308h-66l65 309q6 30 6 55q0 78 -93 78q-63 0 -113.5 -45t-65.5 -123l-58 -274h-66l102 483h62l-16 -74q58 87 168 87zM243 -77l-17 -79l-70 -94h-39l65 94h-40l17 79h84z" />
    <glyph glyph-name="Ncaron" unicode="&#x147;" horiz-adv-x="730" 
d="M671 710h69l-151 -710h-79l-152 340l-18 40q-65 144 -107 248q-15 -86 -55 -275l-74 -353h-69l151 710h79l151 -339q82 -185 125 -289q32 171 55 274zM647 917l-129 -142h-83l-67 142h53l59 -105l105 105h62z" />
    <glyph glyph-name="ncaron" unicode="&#x148;" horiz-adv-x="535" 
d="M339 496q70 0 109 -34t39 -89q0 -34 -7 -65l-66 -308h-66l65 309q6 30 6 55q0 78 -93 78q-63 0 -113.5 -45t-65.5 -123l-58 -274h-66l102 483h62l-16 -74q58 87 168 87zM510 710l-129 -142h-83l-67 142h53l59 -105l105 105h62z" />
    <glyph glyph-name="Eng" unicode="&#x14a;" horiz-adv-x="730" 
d="M740 710l-151 -710v-1l-11 -52q-16 -75 -51 -109t-105 -34q-52 0 -106 20l22 53q44 -15 84 -15q39 0 60 20.5t31 65.5l6 32l-161 360l-18 40q-65 144 -107 248q-15 -86 -55 -275l-74 -353h-69l151 710h79l151 -339q82 -185 125 -289q32 171 55 274l75 354h69z" />
    <glyph glyph-name="eng" unicode="&#x14b;" horiz-adv-x="535" 
d="M339 496q70 0 109 -34t39 -89q0 -34 -7 -65l-66 -308h-2l-10 -47q-16 -77 -47 -111t-94 -34q-54 0 -100 18l25 49q42 -12 70 -12q35 0 52.5 21.5t27.5 70.5l24 116h3l50 238q6 30 6 55q0 78 -93 78q-63 0 -113.5 -45t-65.5 -123l-58 -274h-66l102 483h62l-16 -74
q58 87 168 87z" />
    <glyph glyph-name="Omacron" unicode="&#x14c;" horiz-adv-x="744" 
d="M444 725q128 0 202 -78q72 -78 72 -211q1 -76 -24 -155t-71 -146.5t-121 -109.5t-165 -40q-130 0 -203.5 77.5t-73.5 212.5q-1 60 14.5 123t48 122.5t77 105.5t108.5 73.5t136 25.5zM443 664q-58 2 -109 -21t-88 -63t-63.5 -90.5t-39.5 -105.5t-12 -108
q0 -109 55.5 -169.5t150.5 -60.5q95 -2 168.5 59.5t108 150t33.5 179.5q0 108 -54 168.5t-150 60.5zM626 855l-11 -52h-253l11 52h253z" />
    <glyph glyph-name="omacron" unicode="&#x14d;" horiz-adv-x="529" 
d="M301 496q89 0 140.5 -52.5t51.5 -145.5q1 -51 -16 -105t-48.5 -101t-84 -76.5t-116.5 -28.5q-91 0 -142.5 53t-51.5 147q-1 39 9.5 81.5t32.5 83.5t52.5 73.5t75.5 52t97 18.5zM299 442q-59 2 -106.5 -40t-70.5 -100t-22 -115q0 -68 34 -106.5t94 -38.5q60 -2 107.5 39.5
t70 100t21.5 116.5q0 70 -33 107t-95 37zM477 648l-11 -52h-253l11 52h253z" />
    <glyph glyph-name="Ohungarumlaut" unicode="&#x150;" horiz-adv-x="744" 
d="M444 725q128 0 202 -78q72 -78 72 -211q1 -76 -24 -155t-71 -146.5t-121 -109.5t-165 -40q-130 0 -203.5 77.5t-73.5 212.5q-1 60 14.5 123t48 122.5t77 105.5t108.5 73.5t136 25.5zM443 664q-58 2 -109 -21t-88 -63t-63.5 -90.5t-39.5 -105.5t-12 -108
q0 -109 55.5 -169.5t150.5 -60.5q95 -2 168.5 59.5t108 150t33.5 179.5q0 108 -54 168.5t-150 60.5zM561 917l-123 -142h-57l105 142h75zM711 917l-123 -142h-58l106 142h75z" />
    <glyph glyph-name="ohungarumlaut" unicode="&#x151;" horiz-adv-x="529" 
d="M301 496q89 0 140.5 -52.5t51.5 -145.5q1 -51 -16 -105t-48.5 -101t-84 -76.5t-116.5 -28.5q-91 0 -142.5 53t-51.5 147q-1 39 9.5 81.5t32.5 83.5t52.5 73.5t75.5 52t97 18.5zM299 442q-59 2 -106.5 -40t-70.5 -100t-22 -115q0 -68 34 -106.5t94 -38.5q60 -2 107.5 39.5
t70 100t21.5 116.5q0 70 -33 107t-95 37zM412 710l-123 -142h-57l105 142h75zM562 710l-123 -142h-58l106 142h75z" />
    <glyph glyph-name="OE" unicode="&#x152;" horiz-adv-x="1149" 
d="M1180 651h-390l-55 -257h362l-12 -58h-362l-58 -277h397l-12 -59h-469l25 118q-107 -133 -276 -133q-128 0 -201 73t-73 200q0 100 47 211q47 109 139 182q92 74 222 74q187 0 239 -152l29 137h461zM329 46q63 -2 118.5 23t94.5 67t67.5 95.5t42.5 110t13 109.5
q0 103 -51 158t-149 55q-77 2 -143 -36t-108 -99t-65 -132t-22 -138q0 -103 52.5 -158t149.5 -55z" />
    <glyph glyph-name="oe" unicode="&#x153;" horiz-adv-x="905" 
d="M852 236h-365q-4 -20 -4 -50q0 -144 133 -144q93 0 180 99l44 -36q-99 -118 -226 -118q-70 0 -117.5 31.5t-66.5 89.5q-73 -121 -203 -121q-91 0 -142.5 53t-51.5 147q-1 39 9.5 81.5t32.5 83.5t53 73.5t76 52t96 18.5q137 0 173 -123q77 123 219 123q78 0 126.5 -44.5
t48.5 -118.5q0 -54 -15 -97zM689 442q-69 0 -117.5 -42t-72.5 -114h305q3 18 3 40q0 54 -31 85t-87 31zM227 42q59 -2 106.5 39.5t70.5 100t22 116.5q0 69 -34 106.5t-94 37.5q-59 2 -106 -39.5t-70.5 -100t-22.5 -115.5q0 -68 34 -106.5t94 -38.5z" />
    <glyph glyph-name="Racute" unicode="&#x154;" horiz-adv-x="662" 
d="M656 534q0 -91 -60.5 -159.5t-171.5 -77.5l145 -297h-75l-142 295h-183l-63 -295h-71l151 710h274q88 0 142 -48t54 -128zM181 354h196q106 0 158 48.5t52 130.5q0 57 -37.5 87.5t-105.5 30.5h-200zM569 917l-123 -142h-61l102 142h82z" />
    <glyph glyph-name="racute" unicode="&#x155;" horiz-adv-x="346" 
d="M303 488q35 0 78 -18l-23 -53q-32 13 -62 13q-55 0 -95 -45t-58 -129l-54 -256h-66l102 483h62l-16 -73q52 78 132 78zM423 710l-123 -142h-61l102 142h82z" />
    <glyph glyph-name="Rcommaaccent" unicode="&#x156;" horiz-adv-x="662" 
d="M656 534q0 -91 -60.5 -159.5t-171.5 -77.5l145 -297h-75l-142 295h-183l-63 -295h-71l151 710h274q88 0 142 -48t54 -128zM181 354h196q106 0 158 48.5t52 130.5q0 57 -37.5 87.5t-105.5 30.5h-200zM308 -77l-17 -79l-70 -94h-39l65 94h-40l17 79h84z" />
    <glyph glyph-name="rcommaaccent" unicode="&#x157;" horiz-adv-x="346" 
d="M303 488q35 0 78 -18l-23 -53q-32 13 -62 13q-55 0 -95 -45t-58 -129l-54 -256h-66l102 483h62l-16 -73q52 78 132 78zM84 -77l-17 -79l-70 -94h-39l65 94h-40l17 79h84z" />
    <glyph glyph-name="Rcaron" unicode="&#x158;" horiz-adv-x="662" 
d="M656 534q0 -91 -60.5 -159.5t-171.5 -77.5l145 -297h-75l-142 295h-183l-63 -295h-71l151 710h274q88 0 142 -48t54 -128zM181 354h196q106 0 158 48.5t52 130.5q0 57 -37.5 87.5t-105.5 30.5h-200zM587 917l-129 -142h-83l-67 142h53l59 -105l105 105h62z" />
    <glyph glyph-name="rcaron" unicode="&#x159;" horiz-adv-x="346" 
d="M303 488q35 0 78 -18l-23 -53q-32 13 -62 13q-55 0 -95 -45t-58 -129l-54 -256h-66l102 483h62l-16 -73q52 78 132 78zM441 710l-129 -142h-83l-67 142h53l59 -105l105 105h62z" />
    <glyph glyph-name="Sacute" unicode="&#x15a;" horiz-adv-x="629" 
d="M373 724q145 0 257 -110l-45 -48q-98 98 -215 98q-78 0 -132.5 -42t-54.5 -103q0 -58 74 -89q36 -16 109 -38q118 -37 161 -77.5t43 -111.5q0 -87 -70 -152.5t-187 -65.5q-81 0 -149.5 29.5t-141.5 89.5l42 50q72 -58 130.5 -83t121.5 -25q83 0 134 45t51 111
q-4 55 -37.5 79.5t-140.5 57.5q-123 39 -164.5 73t-44.5 103q0 85 72.5 147t186.5 62zM547 917l-123 -142h-61l102 142h82z" />
    <glyph glyph-name="sacute" unicode="&#x15b;" horiz-adv-x="462" 
d="M249 496q106 0 189 -79l-40 -43q-73 70 -153 70q-50 0 -83.5 -25t-33.5 -60q3 -33 22.5 -45t93.5 -35q95 -31 126 -54.5t35 -81.5q0 -67 -52.5 -111.5t-143.5 -44.5q-107 0 -205 90l40 43q47 -41 86 -60t84 -19q58 0 92.5 27.5t34.5 70.5q0 42 -56 65q-30 11 -77 24
q-85 24 -114.5 51.5t-29.5 71.5q0 60 51.5 102.5t133.5 42.5zM411 710l-123 -142h-61l102 142h82z" />
    <glyph glyph-name="Scedilla" unicode="&#x15e;" horiz-adv-x="629" 
d="M370 664q-78 0 -132.5 -42t-54.5 -103q0 -58 74 -89q36 -16 109 -38q118 -37 161 -77.5t43 -111.5q0 -87 -70 -152.5t-187 -65.5q-21 0 -27 1l-37 -54h9q36 0 61.5 -19t25.5 -53q0 -38 -29 -64t-79 -26q-57 0 -110 33l26 36q49 -26 81 -26q65 0 65 46q0 17 -15.5 27
t-40.5 10q-17 0 -29 -3l-20 24l49 74q-113 21 -221 113l42 50q72 -58 130.5 -83t121.5 -25q83 0 134 45t51 111q-4 55 -37.5 79.5t-140.5 57.5q-123 39 -164.5 73t-44.5 103q0 85 72.5 147t186.5 62q145 0 257 -110l-45 -48q-98 98 -215 98z" />
    <glyph glyph-name="scedilla" unicode="&#x15f;" horiz-adv-x="459" 
d="M244 279q95 -31 126 -54.5t35 -81.5q0 -67 -52 -111.5t-143 -44.5l-38 -55h10q35 0 61 -19.5t26 -52.5q0 -38 -29.5 -64t-79.5 -26q-58 0 -110 33l26 36q49 -26 81 -26q65 0 65 46q0 17 -15.5 27t-40.5 10q-17 0 -29 -3l-20 24l49 73q-85 15 -162 87l40 43q47 -41 86 -60
t84 -19q58 0 92.5 27.5t34.5 70.5q0 42 -56 65q-30 11 -77 24q-85 24 -114.5 51.5t-29.5 71.5q0 60 51.5 102.5t133.5 42.5q106 0 189 -79l-40 -43q-73 70 -153 70q-50 0 -83.5 -25t-33.5 -60q3 -33 22.5 -45t93.5 -35z" />
    <glyph glyph-name="Scaron" unicode="&#x160;" horiz-adv-x="629" 
d="M373 724q145 0 257 -110l-45 -48q-98 98 -215 98q-78 0 -132.5 -42t-54.5 -103q0 -58 74 -89q36 -16 109 -38q118 -37 161 -77.5t43 -111.5q0 -87 -70 -152.5t-187 -65.5q-81 0 -149.5 29.5t-141.5 89.5l42 50q72 -58 130.5 -83t121.5 -25q83 0 134 45t51 111
q-4 55 -37.5 79.5t-140.5 57.5q-123 39 -164.5 73t-44.5 103q0 85 72.5 147t186.5 62zM566 917l-129 -142h-83l-67 142h53l59 -105l105 105h62z" />
    <glyph glyph-name="scaron" unicode="&#x161;" horiz-adv-x="462" 
d="M249 496q106 0 189 -79l-40 -43q-73 70 -153 70q-50 0 -83.5 -25t-33.5 -60q3 -33 22.5 -45t93.5 -35q95 -31 126 -54.5t35 -81.5q0 -67 -52.5 -111.5t-143.5 -44.5q-107 0 -205 90l40 43q47 -41 86 -60t84 -19q58 0 92.5 27.5t34.5 70.5q0 42 -56 65q-30 11 -77 24
q-85 24 -114.5 51.5t-29.5 71.5q0 60 51.5 102.5t133.5 42.5zM430 710l-129 -142h-83l-67 142h53l59 -105l105 105h62z" />
    <glyph glyph-name="uni0162" unicode="&#x162;" horiz-adv-x="592" 
d="M131 710h528l-13 -59h-229l-137 -651h-12l-49 -68h8q35 0 61 -19.5t26 -52.5q0 -38 -29 -64t-79 -26q-58 0 -110 33l26 36q49 -26 81 -26q65 0 65 46q0 17 -15.5 27t-40.5 10q-17 0 -29 -3l-20 24l58 83h-13l138 651h-228z" />
    <glyph glyph-name="uni0163" unicode="&#x163;" horiz-adv-x="341" 
d="M217 435l-64 -302q-6 -25 -6 -44q0 -43 51 -43q31 0 75 14l7 -52q-41 -18 -93 -18h-3l-40 -58h9q36 0 61.5 -19t25.5 -53q0 -38 -29 -64t-79 -26q-58 0 -110 33l26 36q49 -26 81 -26q65 0 65 46q0 17 -15.5 27t-40.5 10q-17 0 -29 -3l-20 24l52 78q-61 16 -61 85
q0 20 7 55l64 300h-93l10 48h93l36 168h66l-36 -168h133l-10 -48h-133z" />
    <glyph glyph-name="Tcaron" unicode="&#x164;" horiz-adv-x="592" 
d="M659 710l-13 -59h-229l-137 -651h-72l138 651h-228l13 59h528zM579 917l-129 -142h-83l-67 142h53l59 -105l105 105h62z" />
    <glyph glyph-name="tcaron" unicode="&#x165;" horiz-adv-x="345" 
d="M217 435l-64 -302q-6 -25 -6 -44q0 -43 51 -43q31 0 75 14l7 -52q-41 -18 -93 -18q-55 0 -81 21.5t-26 68.5q0 20 7 55l64 300h-93l10 48h93l36 168h66l-36 -168h133l-10 -48h-133zM472 763l-99 -190h-45l77 190h67z" />
    <glyph glyph-name="Tbar" unicode="&#x166;" horiz-adv-x="592" 
d="M646 651h-229l-49 -232h133l-12 -54h-132l-77 -365h-72l78 365h-124l12 54h123l49 232h-228l13 59h528z" />
    <glyph glyph-name="tbar" unicode="&#x167;" horiz-adv-x="351" 
d="M360 435h-133l-32 -152h131l-10 -50h-132l-21 -100q-6 -27 -6 -45q0 -42 50 -42q37 0 77 14l6 -53q-42 -17 -90 -17q-57 0 -83.5 21t-26.5 68q0 29 7 56l21 98h-91l10 50h91l33 152h-93l10 48h93l36 168h66l-36 -168h133z" />
    <glyph glyph-name="Umacron" unicode="&#x16a;" horiz-adv-x="687" 
d="M704 710l-105 -490q-25 -116 -96 -175t-195 -59q-115 0 -174 45.5t-59 132.5q0 25 8 68l102 478h71l-104 -485q-6 -27 -6 -51q0 -127 166 -127q179 0 217 178l103 485h72zM591 855l-11 -52h-253l11 52h253z" />
    <glyph glyph-name="umacron" unicode="&#x16b;" horiz-adv-x="528" 
d="M434 483h66l-102 -483h-62l16 75q-60 -88 -162 -88q-70 0 -107.5 33.5t-37.5 91.5q0 32 7 63l65 308h66l-65 -308q-6 -32 -6 -55q0 -76 86 -76q64 0 113.5 46.5t67.5 131.5zM463 648l-11 -52h-253l11 52h253z" />
    <glyph glyph-name="Uring" unicode="&#x16e;" horiz-adv-x="680" 
d="M704 710l-105 -490q-25 -116 -96 -175t-195 -59q-115 0 -174 45.5t-59 132.5q0 25 8 68l102 478h71l-104 -485q-6 -27 -6 -51q0 -127 166 -127q179 0 217 178l103 485h72zM468 935q42 0 67 -24.5t25 -64.5q0 -46 -30.5 -77t-77.5 -31q-41 0 -66 24.5t-25 63.5q0 45 31 77
t76 32zM466 898q-27 0 -45.5 -21.5t-18.5 -51.5q0 -23 14 -36t37 -13q29 0 47 20.5t18 50.5q0 51 -52 51z" />
    <glyph glyph-name="uring" unicode="&#x16f;" horiz-adv-x="528" 
d="M434 483h66l-102 -483h-62l16 75q-60 -88 -162 -88q-70 0 -107.5 33.5t-37.5 91.5q0 32 7 63l65 308h66l-65 -308q-6 -32 -6 -55q0 -76 86 -76q64 0 113.5 46.5t67.5 131.5zM344 749q42 0 67 -24.5t25 -64.5q0 -46 -30.5 -77t-77.5 -31q-41 0 -66 24.5t-25 63.5
q0 45 31 77t76 32zM342 712q-27 0 -45.5 -21.5t-18.5 -51.5q0 -23 14 -36t37 -13q29 0 47 20.5t18 50.5q0 51 -52 51z" />
    <glyph glyph-name="Uhungarumlaut" unicode="&#x170;" horiz-adv-x="687" 
d="M704 710l-105 -490q-25 -116 -96 -175t-195 -59q-115 0 -174 45.5t-59 132.5q0 25 8 68l102 478h71l-104 -485q-6 -27 -6 -51q0 -127 166 -127q179 0 217 178l103 485h72zM526 917l-123 -142h-57l105 142h75zM676 917l-123 -142h-58l106 142h75z" />
    <glyph glyph-name="uhungarumlaut" unicode="&#x171;" horiz-adv-x="528" 
d="M434 483h66l-102 -483h-62l16 75q-60 -88 -162 -88q-70 0 -107.5 33.5t-37.5 91.5q0 32 7 63l65 308h66l-65 -308q-6 -32 -6 -55q0 -76 86 -76q64 0 113.5 46.5t67.5 131.5zM398 710l-123 -142h-57l105 142h75zM548 710l-123 -142h-58l106 142h75z" />
    <glyph glyph-name="Uogonek" unicode="&#x172;" horiz-adv-x="687" 
d="M632 710h72l-105 -490q-18 -77 -50.5 -125t-92.5 -81q-56 -31 -89 -66.5t-33 -67.5q0 -38 42 -38q13 0 25 3l-11 -44q-11 -4 -29 -4q-35 0 -55.5 18t-20.5 50q0 70 76 124q-24 -3 -53 -3q-115 0 -174 45.5t-59 132.5q0 25 8 68l102 478h71l-104 -485q-6 -27 -6 -51
q0 -127 166 -127q179 0 217 178z" />
    <glyph glyph-name="uogonek" unicode="&#x173;" horiz-adv-x="528" 
d="M500 483l-102 -483q-98 -63 -98 -120q0 -38 42 -38q12 0 24 3l-10 -44q-11 -4 -30 -4q-34 0 -55 18.5t-21 50.5q0 76 96 134h-10l16 75q-60 -88 -162 -88q-70 0 -107.5 33.5t-37.5 91.5q0 32 7 63l65 308h66l-65 -308q-6 -32 -6 -55q0 -76 86 -76q64 0 113.5 46.5
t67.5 131.5l55 261h66z" />
    <glyph glyph-name="Wcircumflex" unicode="&#x174;" horiz-adv-x="929" 
d="M916 710h73l-322 -710h-90l-22 350q-9 154 -11 272q-58 -130 -128 -273l-169 -349h-92l-20 710h68l8 -358q3 -94 3 -186q0 -79 -1 -102q79 174 135 288l176 358h74l20 -358q7 -148 12 -287q32 79 124 287zM658 775l-59 105l-104 -105h-63l129 142h83l67 -142h-53z" />
    <glyph glyph-name="wcircumflex" unicode="&#x175;" horiz-adv-x="713" 
d="M666 484h67l-241 -484h-81l-13 168q-11 154 -14 236q-26 -57 -90 -189q-13 -26 -24 -49l-81 -166h-84l-31 484h64l11 -191q7 -111 10 -237q45 97 85 178l28 58l96 192h64l15 -192q12 -153 13 -237q48 108 111 235zM500 568l-59 105l-104 -105h-63l129 142h83l67 -142h-53
z" />
    <glyph glyph-name="Ycircumflex" unicode="&#x176;" horiz-adv-x="619" 
d="M618 710h83l-339 -405l-64 -305h-71l65 306l-164 404h72l136 -343zM498 775l-59 105l-104 -105h-63l129 142h83l67 -142h-53z" />
    <glyph glyph-name="ycircumflex" unicode="&#x177;" horiz-adv-x="463" 
d="M424 483h68l-309 -560q-36 -67 -66.5 -91.5t-87.5 -24.5q-37 0 -66 10l17 51q24 -6 45 -6q34 0 55.5 18t49.5 69l12 21l-73 513h64l23 -169l4 -32l30 -234q85 166 136 258zM376 568l-59 105l-104 -105h-63l129 142h83l67 -142h-53z" />
    <glyph glyph-name="Ydieresis" unicode="&#x178;" horiz-adv-x="619" 
d="M618 710h83l-339 -405l-64 -305h-71l65 306l-164 404h72l136 -343zM386 891l-20 -94h-66l20 94h66zM554 891l-20 -94h-66l20 94h66z" />
    <glyph glyph-name="Zacute" unicode="&#x179;" horiz-adv-x="614" 
d="M674 710l-12 -55l-571 -596h443l-13 -59h-532l11 55l571 596h-423l13 59h513zM574 917l-123 -142h-61l102 142h82z" />
    <glyph glyph-name="zacute" unicode="&#x17a;" horiz-adv-x="468" 
d="M475 483l-11 -47l-377 -381h297l-12 -55h-383l10 49l377 380h-277l11 54h365zM464 710l-123 -142h-61l102 142h82z" />
    <glyph glyph-name="Zdotaccent" unicode="&#x17b;" horiz-adv-x="614" 
d="M674 710l-12 -55l-571 -596h443l-13 -59h-532l11 55l571 596h-423l13 59h513zM480 891l-20 -94h-66l20 94h66z" />
    <glyph glyph-name="zdotaccent" unicode="&#x17c;" horiz-adv-x="468" 
d="M475 483l-11 -47l-377 -381h297l-12 -55h-383l10 49l377 380h-277l11 54h365zM370 684l-20 -94h-66l20 94h66z" />
    <glyph glyph-name="Zcaron" unicode="&#x17d;" horiz-adv-x="614" 
d="M674 710l-12 -55l-571 -596h443l-13 -59h-532l11 55l571 596h-423l13 59h513zM592 917l-129 -142h-83l-67 142h53l59 -105l105 105h62z" />
    <glyph glyph-name="zcaron" unicode="&#x17e;" horiz-adv-x="468" 
d="M475 483l-11 -47l-377 -381h297l-12 -55h-383l10 49l377 380h-277l11 54h365zM482 710l-129 -142h-83l-67 142h53l59 -105l105 105h62z" />
    <glyph glyph-name="florin" unicode="&#x192;" 
d="M354 453h133l-10 -49h-134l-96 -453q-15 -74 -50.5 -109.5t-99.5 -35.5q-55 0 -99 15l25 51q42 -11 71 -11q40 0 58 20.5t30 71.5l95 451h-116l10 49h117l20 97q16 73 54.5 109t105.5 36q57 0 102 -17l-26 -52q-42 13 -72 13q-44 0 -66.5 -22.5t-34.5 -77.5z" />
    <glyph glyph-name="Scommaaccent" unicode="&#x218;" horiz-adv-x="629" 
d="M373 724q145 0 257 -110l-45 -48q-98 98 -215 98q-78 0 -132.5 -42t-54.5 -103q0 -58 74 -89q36 -16 109 -38q118 -37 161 -77.5t43 -111.5q0 -87 -70 -152.5t-187 -65.5q-81 0 -149.5 29.5t-141.5 89.5l42 50q72 -58 130.5 -83t121.5 -25q83 0 134 45t51 111
q-4 55 -37.5 79.5t-140.5 57.5q-123 39 -164.5 73t-44.5 103q0 85 72.5 147t186.5 62zM283 -77l-17 -79l-70 -94h-39l65 94h-40l17 79h84z" />
    <glyph glyph-name="scommaaccent" unicode="&#x219;" horiz-adv-x="462" 
d="M249 496q106 0 189 -79l-40 -43q-73 70 -153 70q-50 0 -83.5 -25t-33.5 -60q3 -33 22.5 -45t93.5 -35q95 -31 126 -54.5t35 -81.5q0 -67 -52.5 -111.5t-143.5 -44.5q-107 0 -205 90l40 43q47 -41 86 -60t84 -19q58 0 92.5 27.5t34.5 70.5q0 42 -56 65q-30 11 -77 24
q-85 24 -114.5 51.5t-29.5 71.5q0 60 51.5 102.5t133.5 42.5zM226 -77l-17 -79l-70 -94h-39l65 94h-40l17 79h84z" />
    <glyph glyph-name="uni021A" unicode="&#x21a;" horiz-adv-x="592" 
d="M659 710l-13 -59h-229l-137 -651h-72l138 651h-228l13 59h528zM272 -77l-17 -79l-70 -94h-39l65 94h-40l17 79h84z" />
    <glyph glyph-name="uni021B" unicode="&#x21b;" horiz-adv-x="341" 
d="M217 435l-64 -302q-6 -25 -6 -44q0 -43 51 -43q31 0 75 14l7 -52q-41 -18 -93 -18q-55 0 -81 21.5t-26 68.5q0 20 7 55l64 300h-93l10 48h93l36 168h66l-36 -168h133l-10 -48h-133zM198 -77l-17 -79l-70 -94h-39l65 94h-40l17 79h84z" />
    <glyph glyph-name="uni0237" unicode="&#x237;" horiz-adv-x="208" 
d="M-157 -178l19 49q36 -10 67 -10q38 0 55.5 22.5t30.5 82.5l109 517h66l-113 -535q-15 -75 -48 -108.5t-95 -33.5q-48 0 -91 16z" />
    <glyph glyph-name="circumflex" unicode="&#x2c6;" horiz-adv-x="442" 
d="M380 568l-59 105l-104 -105h-63l129 142h83l67 -142h-53z" />
    <glyph glyph-name="caron" unicode="&#x2c7;" horiz-adv-x="459" 
d="M469 710l-129 -142h-83l-67 142h53l59 -105l105 105h62z" />
    <glyph glyph-name="breve" unicode="&#x2d8;" horiz-adv-x="476" 
d="M320 572q-58 0 -90.5 28t-32.5 72q0 4 2 22h54q-1 -3 -1 -17q0 -62 71 -62q38 0 60.5 21t28.5 58h56q-24 -122 -148 -122z" />
    <glyph glyph-name="dotaccent" unicode="&#x2d9;" horiz-adv-x="266" 
d="M260 684l-20 -94h-66l20 94h66z" />
    <glyph glyph-name="ring" unicode="&#x2da;" horiz-adv-x="412" 
d="M299 749q42 0 67 -24.5t25 -64.5q0 -46 -30.5 -77t-77.5 -31q-41 0 -66 24.5t-25 63.5q0 45 31 77t76 32zM297 712q-27 0 -45.5 -21.5t-18.5 -51.5q0 -23 14 -36t37 -13q29 0 47 20.5t18 50.5q0 51 -52 51z" />
    <glyph glyph-name="ogonek" unicode="&#x2db;" horiz-adv-x="352" 
d="M181 19l21 -19q-98 -63 -98 -120q0 -38 42 -38q12 0 24 3l-10 -44q-11 -4 -29 -4q-34 0 -55 18.5t-21 50.5q0 89 126 153z" />
    <glyph glyph-name="tilde" unicode="&#x2dc;" horiz-adv-x="511" 
d="M281 682q31 0 74 -30q31 -22 48 -22q29 0 42 51h47q-9 -46 -32 -73.5t-55 -27.5q-25 0 -66 26q-40 25 -61 25q-34 0 -47 -51h-47q10 48 35.5 75t61.5 27z" />
    <glyph glyph-name="hungarumlaut" unicode="&#x2dd;" horiz-adv-x="491" 
d="M346 710l-123 -142h-57l105 142h75zM496 710l-123 -142h-58l106 142h75z" />
    <glyph glyph-name="uni0326" unicode="&#x326;" horiz-adv-x="0" 
d="M-164 -77l-17 -79l-70 -94h-39l65 94h-40l17 79h84z" />
    <glyph glyph-name="Delta" unicode="&#x394;" horiz-adv-x="650" 
d="M371 710l259 -710h-610l259 710h92zM113 60h423l-107 296q-76 213 -105 302q-27 -86 -87 -253q-1 -3 -17 -49z" />
    <glyph glyph-name="Omega" unicode="&#x3a9;" horiz-adv-x="776" 
d="M490 59h236v-59h-303v92q98 18 159 95.5t61 192.5q0 125 -72 204.5t-188 79.5t-188 -79.5t-72 -204.5q0 -114 61.5 -192t158.5 -96v-92h-293v59h225q-103 31 -163 117t-60 204q0 153 90 249t241 96t241 -96t90 -249q0 -118 -60 -204q-62 -86 -164 -117z" />
    <glyph glyph-name="mu" unicode="&#x3bc;" horiz-adv-x="525" 
d="M387 483h66v-483h-60v69q-42 -82 -147 -82q-74 0 -110 38v-208h-66v666h66v-322q0 -57 30 -87t86 -30q59 0 97 38.5t38 104.5v296z" />
    <glyph glyph-name="pi" unicode="&#x3c0;" horiz-adv-x="593" 
d="M565 58l10 -52q-44 -16 -80 -16q-59 0 -82.5 27.5t-23.5 87.5v328h-212v-433h-66v433h-92v50h524v-50h-88v-311q0 -45 10.5 -60.5t40.5 -15.5q22 0 59 12z" />
    <glyph glyph-name="Wgrave" unicode="&#x1e80;" horiz-adv-x="929" 
d="M916 710h73l-322 -710h-90l-22 350q-9 154 -11 272q-58 -130 -128 -273l-169 -349h-92l-20 710h68l8 -358q3 -94 3 -186q0 -79 -1 -102q79 174 135 288l176 358h74l20 -358q7 -148 12 -287q32 79 124 287zM481 917h70l44 -142h-52z" />
    <glyph glyph-name="wgrave" unicode="&#x1e81;" horiz-adv-x="713" 
d="M666 484h67l-241 -484h-81l-13 168q-11 154 -14 236q-26 -57 -90 -189q-13 -26 -24 -49l-81 -166h-84l-31 484h64l11 -191q7 -111 10 -237q45 97 85 178l28 58l96 192h64l15 -192q12 -153 13 -237q48 108 111 235zM323 710h70l44 -142h-52z" />
    <glyph glyph-name="Wacute" unicode="&#x1e82;" horiz-adv-x="929" 
d="M916 710h73l-322 -710h-90l-22 350q-9 154 -11 272q-58 -130 -128 -273l-169 -349h-92l-20 710h68l8 -358q3 -94 3 -186q0 -79 -1 -102q79 174 135 288l176 358h74l20 -358q7 -148 12 -287q32 79 124 287zM723 917l-123 -142h-61l102 142h82z" />
    <glyph glyph-name="wacute" unicode="&#x1e83;" horiz-adv-x="713" 
d="M666 484h67l-241 -484h-81l-13 168q-11 154 -14 236q-26 -57 -90 -189q-13 -26 -24 -49l-81 -166h-84l-31 484h64l11 -191q7 -111 10 -237q45 97 85 178l28 58l96 192h64l15 -192q12 -153 13 -237q48 108 111 235zM565 710l-123 -142h-61l102 142h82z" />
    <glyph glyph-name="Wdieresis" unicode="&#x1e84;" horiz-adv-x="929" 
d="M916 710h73l-322 -710h-90l-22 350q-9 154 -11 272q-58 -130 -128 -273l-169 -349h-92l-20 710h68l8 -358q3 -94 3 -186q0 -79 -1 -102q79 174 135 288l176 358h74l20 -358q7 -148 12 -287q32 79 124 287zM546 891l-20 -94h-66l20 94h66zM714 891l-20 -94h-66l20 94h66z
" />
    <glyph glyph-name="wdieresis" unicode="&#x1e85;" horiz-adv-x="713" 
d="M666 484h67l-241 -484h-81l-13 168q-11 154 -14 236q-26 -57 -90 -189q-13 -26 -24 -49l-81 -166h-84l-31 484h64l11 -191q7 -111 10 -237q45 97 85 178l28 58l96 192h64l15 -192q12 -153 13 -237q48 108 111 235zM388 684l-20 -94h-66l20 94h66zM556 684l-20 -94h-66
l20 94h66z" />
    <glyph glyph-name="Ygrave" unicode="&#x1ef2;" horiz-adv-x="619" 
d="M618 710h83l-339 -405l-64 -305h-71l65 306l-164 404h72l136 -343zM321 917h70l44 -142h-52z" />
    <glyph glyph-name="ygrave" unicode="&#x1ef3;" horiz-adv-x="463" 
d="M424 483h68l-309 -560q-36 -67 -66.5 -91.5t-87.5 -24.5q-37 0 -66 10l17 51q24 -6 45 -6q34 0 55.5 18t49.5 69l12 21l-73 513h64l23 -169l4 -32l30 -234q85 166 136 258zM199 710h70l44 -142h-52z" />
    <glyph glyph-name="endash" unicode="&#x2013;" horiz-adv-x="717" 
d="M661 314l-12 -56h-573l11 56h574z" />
    <glyph glyph-name="emdash" unicode="&#x2014;" horiz-adv-x="956" 
d="M888 314l-11 -56h-789l11 56h789z" />
    <glyph glyph-name="quoteleft" unicode="&#x2018;" horiz-adv-x="188" 
d="M100 515l18 86l74 109h42l-70 -109h40l-19 -86h-85z" />
    <glyph glyph-name="quoteright" unicode="&#x2019;" horiz-adv-x="188" 
d="M236 710l-18 -86l-75 -109h-41l69 109h-39l18 86h86z" />
    <glyph glyph-name="quotesinglbase" unicode="&#x201a;" horiz-adv-x="185" 
d="M102 87l-18 -87l-73 -104h-38l63 104h-38l18 87h86z" />
    <glyph glyph-name="quotedblleft" unicode="&#x201c;" horiz-adv-x="351" 
d="M100 515l18 86l74 109h42l-70 -109h40l-19 -86h-85zM263 515l19 86l74 109h42l-70 -109h39l-18 -86h-86z" />
    <glyph glyph-name="quotedblright" unicode="&#x201d;" horiz-adv-x="351" 
d="M236 710l-18 -86l-75 -109h-41l69 109h-39l18 86h86zM400 710l-19 -86l-74 -109h-42l70 109h-40l19 86h86z" />
    <glyph glyph-name="quotedblbase" unicode="&#x201e;" horiz-adv-x="348" 
d="M100 87l-18 -87l-73 -104h-38l63 104h-38l18 87h86zM264 87l-18 -87l-73 -104h-38l63 104h-38l18 87h86z" />
    <glyph glyph-name="dagger" unicode="&#x2020;" 
d="M580 433v-58h-220v-572h-66v572h-220v58h220v277h66v-277h220z" />
    <glyph glyph-name="daggerdbl" unicode="&#x2021;" 
d="M560 425h-220v-251h220v-58h-220v-313h-66v313h-220v58h220v251h-220v58h220v227h66v-227h220v-58z" />
    <glyph glyph-name="bullet" unicode="&#x2022;" horiz-adv-x="491" 
d="M250 469q69 0 119 -49.5t50 -118.5q0 -68 -50.5 -118.5t-118.5 -50.5q-69 0 -118.5 50t-49.5 119q0 70 49 119t119 49z" />
    <glyph glyph-name="ellipsis" unicode="&#x2026;" horiz-adv-x="591" 
d="M112 92l-19 -92h-84l19 92h84zM306 92l-20 -92h-84l20 92h84zM499 92l-19 -92h-84l19 92h84z" />
    <glyph glyph-name="perthousand" unicode="&#x2030;" horiz-adv-x="1218" 
d="M737 694l38 -31l-624 -677l-36 32zM263 690q55 0 91 -35.5t36 -91.5q0 -72 -43.5 -128t-118.5 -56q-57 0 -93.5 36t-36.5 95q0 69 44.5 124.5t120.5 55.5zM257 645q-49 0 -76.5 -41t-27.5 -89q0 -42 20.5 -66t57.5 -24q49 0 76.5 42t27.5 94q0 84 -78 84zM648 301
q55 0 91.5 -35.5t36.5 -91.5q0 -72 -43.5 -128t-119.5 -56q-57 0 -93.5 36t-36.5 95q0 69 44.5 124.5t120.5 55.5zM1014 301q55 0 91 -35.5t36 -91.5q0 -72 -43.5 -128t-118.5 -56q-58 0 -94.5 36t-36.5 95q0 69 45 124.5t121 55.5zM642 256q-48 0 -75.5 -41t-27.5 -89
q0 -42 20.5 -66t56.5 -24q49 0 76.5 42t27.5 94q0 84 -78 84zM1008 256q-49 0 -76.5 -41t-27.5 -89q0 -42 20.5 -66t57.5 -24q49 0 76 42t27 94q0 84 -77 84z" />
    <glyph glyph-name="guilsinglleft" unicode="&#x2039;" horiz-adv-x="342" 
d="M324 468l-190 -221l92 -209h-65l-94 215l184 215h73z" />
    <glyph glyph-name="guilsinglright" unicode="&#x203a;" horiz-adv-x="342" 
d="M185 468l94 -215l-184 -215h-73l189 221l-91 209h65z" />
    <glyph glyph-name="fraction" unicode="&#x2044;" horiz-adv-x="221" 
d="M410 694l38 -31l-624 -677l-36 32z" />
    <glyph glyph-name="Euro" unicode="&#x20ac;" horiz-adv-x="610" 
d="M477 637q-75 0 -133 -49.5t-96 -134.5h273l-11 -51h-282q-16 -52 -24 -106h284l-11 -51h-277v-13q0 -93 39 -141t113 -48q44 0 79 11.5t83 42.5l28 -49q-94 -63 -190 -63q-106 0 -162 64t-56 177v19h-78l11 51h71q4 40 22 106h-71l11 51h78q42 107 119 175q76 67 184 67
q107 0 180 -68l-42 -44q-61 54 -142 54z" />
    <glyph glyph-name="uni20B9" unicode="&#x20b9;" 
d="M634 680l-11 -53h-134q45 -43 47 -115h62l-10 -52h-57q-15 -77 -75 -123t-165 -46h-118l254 -291h-84l-250 291l11 52h176q80 0 127 31t60 86h-338l10 52h333q-4 110 -133 110h-176l1 5l11 53h459z" />
    <glyph glyph-name="uni20BA" unicode="&#x20ba;" 
d="M489 295l58 -9l-25 -63q-53 -129 -125 -175t-205 -48h-98l56 267l-104 -42l12 52l103 43l25 118l-103 -42l11 52l104 43l40 189h67l-34 -159l194 79l-11 -52l-194 -80l-25 -118l194 79l-11 -52l-194 -80l-51 -239h13q119 2 176 36.5t104 143.5z" />
    <glyph glyph-name="uni20BD" unicode="&#x20bd;" horiz-adv-x="610" 
d="M364 293h-148l-22 -104h226l-11 -51h-226l-29 -138h-67l29 138h-98l11 51h98l22 104h-98l11 51h98l71 336h191q83 0 134.5 -45t51.5 -125q0 -94 -62.5 -155.5t-181.5 -61.5zM286 622l-59 -278h126q95 0 143 44t48 119q0 56 -34.5 85.5t-97.5 29.5h-126z" />
    <glyph glyph-name="uni2116" unicode="&#x2116;" horiz-adv-x="1166" 
d="M986 339q-79 0 -129 51.5t-50 137.5q0 85 50 136.5t129 51.5q80 0 130 -51.5t50 -136.5q0 -86 -49.5 -137.5t-130.5 -51.5zM644 356v354h69v-710h-80l-210 339l-30 49q-104 169 -141 232q3 -88 3 -267v-353h-69v710h80l210 -338q37 -60 48 -79q62 -100 124 -205
q-4 104 -4 268zM987 659q-51 0 -82.5 -36t-31.5 -95q0 -60 31.5 -96t82.5 -36t82.5 36t31.5 96q0 59 -31.5 95t-82.5 36zM826 215v59h322v-59h-322z" />
    <glyph glyph-name="uni2117" unicode="&#x2117;" horiz-adv-x="856" 
d="M451 723q153 3 261.5 -105.5t106.5 -262.5q2 -154 -106.5 -262.5t-261.5 -105.5q-153 -3 -261.5 105.5t-106.5 262.5q-2 154 106.5 262.5t261.5 105.5zM451 675q-132 2 -222.5 -91.5t-88.5 -228.5q-2 -135 88.5 -228.5t222.5 -91.5q132 -2 222.5 91.5t88.5 228.5
q2 135 -88.5 228.5t-222.5 91.5zM319 561h165q59 0 96.5 -36t37.5 -92q0 -59 -36 -90t-98 -31h-105v-164h-60v413zM469 508h-90v-146h90q89 0 89 72q0 35 -23 54.5t-66 19.5z" />
    <glyph glyph-name="trademark" unicode="&#x2122;" horiz-adv-x="955" 
d="M433 710v-45h-140v-342h-53v342h-140v45h333zM935 710v-387h-50v325l-135 -325h-51l-139 321v-321h-51v387h78l138 -325l132 325h78z" />
    <glyph glyph-name="uni2154" unicode="&#x2154;" horiz-adv-x="1035" 
d="M248 421q-55 -26 -82.5 -47t-38.5 -52h248l-12 -50h-308l5 23q14 60 54.5 100.5t111.5 72.5l32 15q82 36 100 60q12 15 12 39q0 26 -21 41t-55 15q-33 0 -60 -11t-69 -41l-30 42q81 62 159 62q60 0 96.5 -28t36.5 -73q0 -73 -70 -114q-30 -17 -109 -54zM817 694l38 -31
l-624 -677l-36 32zM999 408l-10 -49l-161 -115q60 1 92.5 -28t32.5 -78q0 -60 -44 -104t-121 -44q-86 0 -165 51l36 43q68 -42 131 -42q44 0 74 26t30 65q0 67 -84 67q-39 0 -52 -7l-24 37l178 128h-204l10 50h281z" />
    <glyph glyph-name="oneeighth" unicode="&#x215b;" horiz-adv-x="922" 
d="M257 680h44l-87 -408h-57l70 329l-91 -57l-23 44zM714 694l38 -31l-624 -677l-36 32zM792 219q59 -27 59 -84q0 -62 -44.5 -100.5t-123.5 -38.5q-72 0 -112 29.5t-40 76.5q0 96 103 124q-45 25 -45 80q0 51 42 84.5t110 33.5q64 0 99.5 -27.5t35.5 -71.5q0 -76 -84 -106z
M738 376q-46 0 -71 -21.5t-25 -54.5q0 -25 21 -41.5t54 -16.5q46 0 74 21.5t28 57.5q0 55 -81 55zM684 46q49 0 79 24.5t30 64.5q0 28 -22.5 45.5t-62.5 17.5q-57 0 -88.5 -26t-31.5 -62q0 -28 25.5 -46t70.5 -18z" />
    <glyph glyph-name="threeeighths" unicode="&#x215c;" horiz-adv-x="1020" 
d="M430 680l-10 -49l-161 -115q60 1 92.5 -28t32.5 -78q0 -60 -44 -104t-121 -44q-86 0 -165 51l36 43q68 -42 131 -42q44 0 74 26t30 65q0 67 -84 67q-39 0 -52 -7l-24 37l178 128h-204l10 50h281zM812 694l38 -31l-624 -677l-36 32zM890 219q59 -27 59 -84
q0 -62 -44.5 -100.5t-123.5 -38.5q-72 0 -112 29.5t-40 76.5q0 96 103 124q-45 25 -45 80q0 51 42 84.5t110 33.5q64 0 99.5 -27.5t35.5 -71.5q0 -76 -84 -106zM836 376q-46 0 -71 -21.5t-25 -54.5q0 -25 21 -41.5t54 -16.5q46 0 74 21.5t28 57.5q0 55 -81 55zM782 46
q49 0 79 24.5t30 64.5q0 28 -22.5 45.5t-62.5 17.5q-57 0 -88.5 -26t-31.5 -62q0 -28 25.5 -46t70.5 -18z" />
    <glyph glyph-name="fiveeighths" unicode="&#x215d;" horiz-adv-x="1030" 
d="M426 630h-209l-33 -118q37 25 95 25q55 0 87.5 -32t32.5 -79q0 -63 -46.5 -113t-134.5 -50q-83 0 -156 53l35 43q64 -45 122 -45q51 0 86 31.5t35 76.5q0 31 -20.5 48.5t-58.5 17.5q-53 0 -99 -35l-45 6l63 221h256zM822 694l38 -31l-624 -677l-36 32zM900 219
q59 -27 59 -84q0 -62 -44.5 -100.5t-123.5 -38.5q-72 0 -112 29.5t-40 76.5q0 96 103 124q-45 25 -45 80q0 51 42 84.5t110 33.5q64 0 99.5 -27.5t35.5 -71.5q0 -76 -84 -106zM846 376q-46 0 -71 -21.5t-25 -54.5q0 -25 21 -41.5t54 -16.5q46 0 74 21.5t28 57.5q0 55 -81 55
zM792 46q49 0 79 24.5t30 64.5q0 28 -22.5 45.5t-62.5 17.5q-57 0 -88.5 -26t-31.5 -62q0 -28 25.5 -46t70.5 -18z" />
    <glyph glyph-name="seveneighths" unicode="&#x215e;" horiz-adv-x="945" 
d="M118 680h315l-11 -47q-90 -76 -153 -171.5t-91 -189.5h-63q24 87 88 186q63 100 148 172h-243zM737 694l38 -31l-624 -677l-36 32zM815 219q59 -27 59 -84q0 -62 -44.5 -100.5t-123.5 -38.5q-72 0 -112 29.5t-40 76.5q0 96 103 124q-45 25 -45 80q0 51 42 84.5t110 33.5
q64 0 99.5 -27.5t35.5 -71.5q0 -76 -84 -106zM761 376q-46 0 -71 -21.5t-25 -54.5q0 -25 21 -41.5t54 -16.5q46 0 74 21.5t28 57.5q0 55 -81 55zM707 46q49 0 79 24.5t30 64.5q0 28 -22.5 45.5t-62.5 17.5q-57 0 -88.5 -26t-31.5 -62q0 -28 25.5 -46t70.5 -18z" />
    <glyph glyph-name="arrowleft" unicode="&#x2190;" horiz-adv-x="920" 
d="M912 368v-55h-731l274 -272l-42 -42l-341 341l341 340l42 -43l-273 -269h730z" />
    <glyph glyph-name="arrowup" unicode="&#x2191;" horiz-adv-x="721" 
d="M701 445l-40 -42l-247 251v-654h-64v655l-248 -252l-42 42l321 321z" />
    <glyph glyph-name="arrowright" unicode="&#x2192;" horiz-adv-x="920" 
d="M549 680l341 -340l-341 -341l-42 42l274 272h-731v55h730l-273 269z" />
    <glyph glyph-name="arrowdown" unicode="&#x2193;" horiz-adv-x="721" 
d="M641 307l40 -42l-320 -321l-321 321l42 42l248 -252v655h64v-654z" />
    <glyph glyph-name="uni2196" unicode="&#x2196;" horiz-adv-x="721" 
d="M691 130l-41 -41l-521 521v-384h-59v484h484v-57h-386z" />
    <glyph glyph-name="uni2197" unicode="&#x2197;" horiz-adv-x="721" 
d="M167 710h484v-484h-58v384l-521 -521l-42 41l523 523h-386v57z" />
    <glyph glyph-name="uni2198" unicode="&#x2198;" horiz-adv-x="721" 
d="M593 484h58v-484h-484v57h386l-523 523l42 41l521 -521v384z" />
    <glyph glyph-name="uni2199" unicode="&#x2199;" horiz-adv-x="721" 
d="M691 580l-523 -523h386v-57h-484v484h59v-384l521 521z" />
    <glyph glyph-name="partialdiff" unicode="&#x2202;" horiz-adv-x="550" 
d="M138 663l15 54q174 -22 265.5 -130t91.5 -294q0 -142 -62 -225q-63 -84 -175 -84q-101 0 -167 73t-66 174t61 173t157 72q65 0 114.5 -31t76.5 -85q-15 131 -90.5 206.5t-220.5 96.5zM273 42q72 0 118 54t46 134q0 79 -49 133.5t-123 54.5q-72 0 -114 -53
q-43 -53 -43 -135q0 -81 45.5 -134.5t119.5 -53.5z" />
    <glyph glyph-name="product" unicode="&#x220f;" horiz-adv-x="714" 
d="M648 710v-820h-71v761h-400v-761h-71v820h542z" />
    <glyph glyph-name="summation" unicode="&#x2211;" horiz-adv-x="593" 
d="M556 710v-59h-400l254 -349l-257 -354h430v-59h-513v54l258 359l-255 354v54h483z" />
    <glyph glyph-name="minus" unicode="&#x2212;" horiz-adv-x="600" 
d="M560 338v-56h-520v56h520z" />
    <glyph glyph-name="radical" unicode="&#x221a;" horiz-adv-x="600" 
d="M548 710h72l-259 -710h-95l-186 483h73l161 -429z" />
    <glyph glyph-name="infinity" unicode="&#x221e;" horiz-adv-x="799" 
d="M587 450q72 0 116.5 -45.5t44.5 -114.5q0 -67 -43.5 -113t-108.5 -46q-52 0 -95 26t-94 83l-9 9q-59 -66 -100 -92t-99 -26q-63 0 -106 46t-43 113q0 68 45.5 114t116.5 46q50 0 90 -25.5t91 -85.5l4 -5q102 116 190 116zM202 182q42 0 76 24q32 21 85 83l-6 7l-20 22
q-39 46 -64 62.5t-62 16.5q-48 0 -76 -29.5t-28 -78.5q0 -47 26.5 -77t68.5 -30zM592 182q46 0 73 29t27 78t-28 78.5t-77 29.5q-78 0 -154 -106l9 -12q41 -50 75.5 -73.5t74.5 -23.5z" />
    <glyph glyph-name="integral" unicode="&#x222b;" horiz-adv-x="600" 
d="M309 569v-618q0 -145 -131 -145q-44 0 -91 15l15 51q44 -11 73 -11q37 0 52.5 22t15.5 70v627q0 69 36.5 107t102.5 38q46 0 95 -17l-15 -52q-40 13 -72 13q-44 0 -62.5 -23t-18.5 -77z" />
    <glyph glyph-name="approxequal" unicode="&#x2248;" horiz-adv-x="655" 
d="M222 459q36 0 109 -31q60 -26 90 -26q27 0 46 10q20 11 55 43l35 -35q-38 -41 -68 -56q-28 -14 -68 -14q-32 0 -101 28q-65 28 -99 28q-29 0 -50.5 -11t-51.5 -41l-35 35q36 39 67 54.5t71 15.5zM222 259q36 0 109 -31q60 -26 90 -26q27 0 46 10q20 11 55 43l35 -35
q-38 -41 -68 -56q-28 -14 -68 -14q-32 0 -101 28q-65 28 -99 28q-29 0 -50.5 -11t-51.5 -41l-35 35q36 39 67 54.5t71 15.5z" />
    <glyph glyph-name="notequal" unicode="&#x2260;" horiz-adv-x="600" 
d="M560 382h-207l-52 -144h259v-56h-280l-47 -127h-61l46 127h-178v56h199l53 144h-252v56h272l45 121h61l-44 -121h186v-56z" />
    <glyph glyph-name="lessequal" unicode="&#x2264;" horiz-adv-x="600" 
d="M540 525v-64l-407 -150l407 -150v-64l-480 180v68zM560 56v-56h-520v56h520z" />
    <glyph glyph-name="greaterequal" unicode="&#x2265;" horiz-adv-x="601" 
d="M60 525l480 -180v-68l-480 -180v64l407 150l-407 150v64zM560 56v-56h-520v56h520z" />
    <glyph glyph-name="lozenge" unicode="&#x25ca;" horiz-adv-x="606" 
d="M368 710l218 -356l-218 -354h-90l-218 354l218 356h90zM323 665l-190 -311l190 -309l189 309z" />
    <glyph glyph-name="uni2923" unicode="&#x2923;" horiz-adv-x="621" 
d="M280 711l45 -47l26 -26q79 -82 114 -125q41 -49 69 -108q27 -60 27 -128q0 -117 -98 -236q-39 -47 -114 -127l-23 -24l-47 44l18 19q76 79 108 119q40 49 64 97q25 51 25 108q0 108 -95 219q-41 47 -118 127l-47 49v-258h-55v351h350v-54h-249z" />
    <glyph glyph-name="uni2924" unicode="&#x2924;" horiz-adv-x="622" 
d="M192 765h350v-351h-55v257l-47 -48q-81 -84 -117 -127q-38 -44 -68 -102q-28 -55 -28 -117q0 -100 89 -205q32 -40 108 -119l18 -19l-47 -44l-23 24q-75 80 -114 127q-41 50 -70 111q-28 59 -28 125q0 123 96 236q35 43 114 125l26 26l46 47h-250v54z" />
    <glyph glyph-name="uni2925" unicode="&#x2925;" horiz-adv-x="622" 
d="M486 279h56v-351h-351v54h249l-45 47l-26 26q-79 82 -114 125q-42 51 -68 109q-28 57 -28 127q0 117 98 236q39 47 114 127l23 24l47 -44l-18 -19q-74 -77 -108 -118q-39 -48 -63 -98q-26 -54 -26 -108q0 -109 96 -219q36 -43 117 -127l47 -48v257z" />
    <glyph glyph-name="uni2926" unicode="&#x2926;" horiz-adv-x="621" 
d="M226 29l-45 -47h249v-54h-350v351h56v-257l46 48q77 80 118 127q38 45 67 102q28 55 28 117q0 100 -89 206q-34 41 -108 118l-18 19l47 44l23 -24q75 -80 114 -127q41 -50 70 -111q28 -59 28 -125q0 -123 -96 -236q-35 -43 -114 -125z" />
    <glyph glyph-name="uniE000" unicode="&#xe000;" horiz-adv-x="1792" 
d="M315 0h-265v230h13q38 -101 105 -159t145 -58q59 0 94.5 37.5t35.5 92.5q0 54 -38 94q-22 22 -48.5 34.5t-86.5 31.5q-59 17 -93 33.5t-62 44.5q-58 58 -58 144q0 78 49 131.5t126 53.5h243v-197h-10q-42 72 -76 106q-77 78 -158 78q-44 0 -78 -25q-36 -26 -36 -84
q0 -54 34 -88q23 -23 53 -36.5t88 -30.5q67 -20 105.5 -38t70.5 -50q50 -48 50 -135q0 -98 -55 -154t-148 -56zM503 710h375q141 2 233.5 -105.5t90.5 -261.5q0 -65 -19.5 -125t-59 -110t-105 -79.5t-149.5 -28.5h-365v13h20q56 0 82.5 23.5t26.5 75.5v486q0 51 -26.5 75
t-82.5 24h-21v13zM1149 13h16q57 0 83.5 24t26.5 75v486q0 52 -26.5 75.5t-83.5 23.5h-17v13h384v-13h-27q-56 0 -82 -23.5t-26 -75.5v-486q0 -55 16.5 -77t58.5 -22h66q37 2 60.5 18t52.5 63t79 150h12v-244h-593v13zM1654 697v13h-55v-13h20v-54h15v54h20zM1742 643v67
h-22l-17 -45l-16 45h-23v-67h15v49l18 -49h11l19 49v-49h15zM862 13q110 0 160 90q50 89 50 226q0 185 -60 276.5t-153 91.5h-65q-23 0 -31 -9.5t-8 -36.5v-554q0 -84 107 -84z" />
    <glyph glyph-name="uniE001" unicode="&#xe001;" horiz-adv-x="1011" 
d="M313 -39q-121 56 -192 169.5t-71 243.5q0 101 43 191q56 121 169 192t244 71q102 0 192 -43q121 -56 192 -169.5t71 -243.5q0 -101 -43 -191q-56 -121 -169 -192t-244 -71q-102 0 -192 43zM692 773q-90 41 -186 41q-126 0 -236 -68t-165 -186q-41 -90 -41 -186
q0 -126 68 -236q67 -109 187 -165q90 -41 186 -41q126 0 236.5 68.5t163.5 185.5q41 90 41 186q0 127 -68 237q-67 108 -186 164zM527 720l8 64l45 -6l-2 -15l-23 2l-1 -9l22 -3l-2 -16l-22 3l-3 -23zM430 723l-1 11l22 3l1 -4q0 -2 6 -2l5 3l-1 5q0 2 -6 2h-2q-21 0 -27 8
l-3 18q6 16 34 16q15 0 21 -9l2 -11l-23 -3v4q-2 2 -6 2q-5 -2 -5 -3v-4q2 -2 7 -2h2q23 -2 27 -8l2 -18q-4 -16 -33 -16q-14 0 -22 8zM621 700l-4 23l-5 2l-6 -20l-22 7l20 62l35 -12q13 -4 16 -16l-7 -21q-4 -3 -10 -5l4 -14l-4 -12zM402 704l-17 16l-4 -1l6 -20l-21 -7
l-21 61l35 12q2 1 8 1q9 0 14 -5l7 -20q-1 -8 -5 -11l12 -8l4 -12zM617 739l7 -3q5 0 6 1l3 8q-1 3 -5 4l-7 3zM376 733l8 3q1 0 4 3l-3 9q-3 1 -6 0l-7 -3zM314 663l-32 57l41 23l8 -14l-21 -12l4 -7l20 11l7 -14l-19 -11l4 -8l22 12l7 -14zM655 700l20 35q4 4 12 4
q9 0 19 -5q19 -10 19 -26l-20 -35q-4 -4 -12 -4t-20 5q-18 10 -18 26zM688 688l15 26q0 3 -5 5t-6 1l-15 -27q0 -3 4 -4q5 -3 7 -1zM276 633l-32 37l-11 -9l-10 12l40 33l10 -12l-11 -9l31 -38zM710 656l43 48l21 -19l-8 -22l2 -2l20 11l21 -19l-43 -48l-16 14l22 25l-1 1
l-23 -10l-7 7l8 23l-2 2l-22 -25zM371 84q-85 40 -135 120q-49 79 -49 170q0 70 30 134q41 86 119 135q79 49 170 49q70 0 134 -30q86 -41 135 -119t49 -171q0 -68 -30 -134q-41 -86 -119 -135q-79 -49 -170 -49q-69 0 -134 30zM634 649q-64 29 -128 29q-88 0 -164 -47.5
t-113 -128.5q-29 -64 -29 -128q0 -86 48 -163q46 -77 129 -114q64 -29 128 -29q88 0 164 47.5t113 128.5q29 66 29 129q0 87 -48 162t-129 114zM232 586l-38 32l-9 -12l-12 11l33 40l12 -10l-9 -12l37 -31zM799 579l9 5l12 -19l-4 -2q-1 -1 1 -6q1 -4 4 -4l4 2q2 2 0 7l-1 2
q-5 12 -5 19q0 3 2 9l15 9q14 0 25 -18q6 -7 6 -19q0 -6 -3 -11l-9 -5l-12 19l4 2q1 1 -1 6q-1 4 -4 4l-4 -2q0 -5 1 -7l1 -2q5 -17 5 -20q0 -2 -2 -8l-16 -9q-14 0 -25 18q-6 12 -6 19q0 5 3 11zM193 525l-56 32l23 41l14 -8l-12 -21l7 -4l11 19l14 -7l-11 -20l8 -5l12 22
l13 -8zM510 516q-12 -23 -29 -23q-16 0 -16 21q0 8 5 21q11 23 28 23t17 -21q0 -8 -5 -21zM827 507l47 25l12 3l6 -21l-33 -14v-2l37 3l5 -16l-32 -18v-1l36 5l6 -18l-12 -4l-53 -6l-7 26l21 12l-1 1l-24 -1zM174 475l-61 23l8 21l46 -17l6 17l15 -5zM652 450
q-11 -23 -28 -23t-17 21q0 8 5 21q11 23 28 23t17 -21q0 -8 -5 -21zM140 425q-2 -7 -10 -7l-5 1q-7 4 -7 11l1 5q3 6 10 6q5 0 6 -1q6 -2 6 -9q0 -5 -1 -6zM849 421l65 5l3 -46l-15 -2l-2 25l-8 -1l1 -23l-16 -1l-1 23l-9 -1l1 -24l-15 -2zM627 264l-15 7q-19 -32 -52 -50.5
t-69 -18.5q-33 0 -59 13q-38 18 -59.5 52.5t-21.5 74.5q0 21 8 47l-15 7q-10 -24 -10 -54q0 -45 24.5 -84t66.5 -58q31 -15 66 -15q42 0 78.5 21t57.5 58zM161 326l-65 -4l-2 20l22 7l-1 1l-21 4l-2 20l66 4l1 -15l-35 -2v-2l24 -4l1 -8l-24 -7v-1l35 2zM853 362l64 -7
l-3 -33q-3 -17 -15 -22l-40 4q-10 7 -10 22v3zM866 338l-1 -7q0 -3 2 -5l29 -3q2 0 2 5l1 7zM170 286l-64 -14l-4 16l52 12l-3 12l12 3zM844 294l61 -20l-13 -44l-15 4l7 24l-8 2l-7 -22l-15 5l7 22l-9 2l-7 -23l-15 4zM178 233l-45 -16q-12 0 -17 15q-1 2 -1 9q0 12 5 14
l44 16q12 0 17 -15l2 -9q0 -9 -5 -14zM164 254l-33 -12q-2 -2 -1 -5q2 -2 3 -2l34 12l1 4q-2 3 -4 3zM826 237l57 -30l-11 -21h-32l-1 -2l25 -13l-10 -18l-57 30l11 21h32l1 2l-25 13zM211 190l-58 -32l-8 15l22 12l-4 6l-21 -12l-8 15l57 31l8 -14l-23 -13l3 -7l24 13z
M240 149l-52 -39l-10 13l13 10v1l-19 -4l-7 11l8 6l20 2l15 24l9 7l8 -11l-12 -18l3 1l14 10zM270 106l-33 -34q-11 -4 -22 7q-8 8 -8 20l14 14l11 -11l-8 -9q-1 -1 -0.5 -3t3.5 -2h2l25 25q0 3 -1 4l-4 1l-10 -9l-11 11l15 15q10 3 20 -7q8 -10 8 -18zM800 118
q-3 -7 -11 -7q-4 0 -5 1q-6 3 -6 11q0 3 1 4q4 7 10 7q4 0 5 -1q7 -3 7 -11q0 -3 -1 -4zM730 108l39 -53l-17 -12l-17 14l-1 -1l8 -20l-16 -12l-39 53l13 9l21 -28l1 1l-9 23l6 4l18 -16l1 1l-20 28zM312 73l-27 -38q-11 -4 -23 4q-10 6 -10 17v3l28 38q8 8 22 -3
q10 -7 10 -17v-4zM290 83l-21 -29q-1 -1 1 -4q3 -2 5 0l21 29q-1 3 -2 4h-4zM653 60l9 -14l8 4l-5 15l13 7l4 -10l17 -53l-23 -11l-32 45l-5 10zM350 63l-25 -46l9 -5l-6 -11l-32 16l6 12l9 -5l25 47zM402 34l-4 -13l-15 5l2 6q0 3 -3 3q-2 2 -4 0l-2 -7q0 -2 3 -4l1 -1
q12 -11 12 -18l-7 -19q-6 -3 -13 -3q-6 0 -8 1q-12 5 -15 16l4 12l15 -5l-2 -6q0 -3 4 -3q2 0 3 1l2 5q0 2 -3 5h-1q-12 9 -12 18l7 20q7 4 12 4q1 0 9 -2q15 -5 15 -15zM629 49l19 -63l-23 -7q-10 -4 -18 4l-14 45q0 8 12 13zM681 19l-7 19l-6 -3l11 -17zM578 34l11 -65
l-30 -5l-2 13l14 2l-3 13l-13 -2l-2 12l13 3l-2 14l-14 -3l-2 13zM483 27l-9 -65l-17 2l-5 32h-1l-4 -31l-16 2l8 65l18 -2l5 -32l1 -1l4 32zM617 31l-4 -1q-3 0 -3 -3l11 -34q3 -3 4 -1l4 1zM512 26v-65h-17v66z" />
    <glyph glyph-name="uniE002" unicode="&#xe002;" 
d="M454 354q37 -16 60 -53t23 -87q0 -85 -56 -147.5t-156 -66.5l-21 -100h-51l21 100h-81l-22 -100h-51l21 100h-115l145 680h114l22 100h51l-21 -100h77h5l21 100h51l-23 -106q54 -14 84.5 -52t30.5 -94q0 -63 -34.5 -110.5t-94.5 -63.5zM223 623l-49 -238h181
q83 0 122.5 37.5t39.5 103.5q0 45 -32 71t-89 26h-173zM105 57h192q93 0 135 46q41 46 41 110q0 56 -32 86t-93 30h-186z" />
    <glyph glyph-name="Adieresis.ss02" horiz-adv-x="651" 
d="M511 0l-29 199h-323l-114 -199h-76l410 710h92l108 -710h-68zM193 259h280l-15 99l-14 95q-1 5 -2.5 16.5t-4.5 31t-6 38.5q-11 69 -15 119q-43 -83 -167 -301zM362 800q-18 0 -29.5 12t-11.5 29q0 21 15 36t36 15q18 0 30 -12t12 -29q0 -20 -15.5 -35.5t-36.5 -15.5z
M529 800q-17 0 -29.5 12t-12.5 29q0 20 15.5 35.5t36.5 15.5q18 0 29.5 -12t11.5 -29q0 -21 -15 -36t-36 -15z" />
    <glyph glyph-name="Cdotaccent.ss02" horiz-adv-x="661" 
d="M455 725q140 0 229 -115l-48 -39q-79 93 -186 93q-75 2 -138 -34.5t-102 -94.5t-60 -127t-20 -135q0 -105 54 -165.5t150 -60.5q61 0 112.5 26t120.5 88l43 -44q-129 -132 -273 -132q-132 0 -205 78t-73 203q-1 61 13.5 124t47 124t78 108.5t112.5 76t145 26.5zM475 798
q-18 0 -30 12t-12 29q0 22 15 37.5t37 15.5q19 0 31 -11.5t12 -29.5q0 -22 -15 -37.5t-38 -15.5z" />
    <glyph glyph-name="Edieresis.ss02" horiz-adv-x="602" 
d="M646 710l-13 -59h-389l-55 -257h362l-13 -58h-361l-59 -277h398l-13 -59h-468l151 710h460zM352 800q-18 0 -29.5 12t-11.5 29q0 21 15 36t36 15q18 0 30 -12t12 -29q0 -20 -15.5 -35.5t-36.5 -15.5zM519 800q-17 0 -29.5 12t-12.5 29q0 20 15.5 35.5t36.5 15.5
q18 0 29.5 -12t11.5 -29q0 -21 -15 -36t-36 -15z" />
    <glyph glyph-name="Edotaccent.ss02" horiz-adv-x="602" 
d="M646 710l-13 -59h-389l-55 -257h362l-13 -58h-361l-59 -277h398l-13 -59h-468l151 710h460zM434 798q-18 0 -30 12t-12 29q0 22 15 37.5t37 15.5q19 0 31 -11.5t12 -29.5q0 -22 -15 -37.5t-38 -15.5z" />
    <glyph glyph-name="Gcommaaccent.ss02" horiz-adv-x="735" 
d="M372 303l12 59h305l-76 -362h-56l14 101q-82 -115 -234 -115q-129 0 -203 80.5t-74 202.5q-1 64 14 128t47 123.5t78 105.5t114 72.5t148 25.5q163 0 270 -135l-52 -40q-53 61 -103.5 87.5t-120.5 26.5q-62 1 -115.5 -22t-91 -62t-64.5 -90t-40 -106t-12 -108
q0 -105 55.5 -166t158.5 -61q88 0 162.5 61t94.5 161l7 33h-238zM309 -76q24 0 38 -14.5t14 -40.5q0 -44 -33.5 -81t-80.5 -37l3 30q21 2 39.5 17.5t26.5 39.5q-6 -2 -17 -2q-19 0 -30.5 11t-11.5 28q0 21 15.5 35t36.5 14z" />
    <glyph glyph-name="Gdotaccent.ss02" horiz-adv-x="735" 
d="M372 303l12 59h305l-76 -362h-56l14 101q-82 -115 -234 -115q-129 0 -203 80.5t-74 202.5q-1 64 14 128t47 123.5t78 105.5t114 72.5t148 25.5q163 0 270 -135l-52 -40q-53 61 -103.5 87.5t-120.5 26.5q-62 1 -115.5 -22t-91 -62t-64.5 -90t-40 -106t-12 -108
q0 -105 55.5 -166t158.5 -61q88 0 162.5 61t94.5 161l7 33h-238zM500 798q-18 0 -30 12t-12 29q0 22 15 37.5t37 15.5q19 0 31 -11.5t12 -29.5q0 -22 -15 -37.5t-38 -15.5z" />
    <glyph glyph-name="Idieresis.ss02" horiz-adv-x="261" 
d="M264 710l-151 -710h-71l151 710h71zM165 800q-18 0 -29.5 12t-11.5 29q0 21 15 36t36 15q18 0 30 -12t12 -29q0 -20 -15.5 -35.5t-36.5 -15.5zM332 800q-17 0 -29.5 12t-12.5 29q0 20 15.5 35.5t36.5 15.5q18 0 29.5 -12t11.5 -29q0 -21 -15 -36t-36 -15z" />
    <glyph glyph-name="Idotaccent.ss02" horiz-adv-x="261" 
d="M264 710l-151 -710h-71l151 710h71zM246 798q-18 0 -30 12t-12 29q0 22 15 37.5t37 15.5q19 0 31 -11.5t12 -29.5q0 -22 -15 -37.5t-38 -15.5z" />
    <glyph glyph-name="K.ss01" horiz-adv-x="643" 
d="M694 680l-316 -255l201 -425h-74l-180 382l-167 -134l-52 -248h-71l151 710h71l-79 -373l474 386z" />
    <glyph glyph-name="Kcommaaccent.ss01" horiz-adv-x="643" 
d="M694 680l-316 -255l201 -425h-74l-180 382l-167 -134l-52 -248h-71l151 710h71l-79 -373l474 386zM326 -77l-17 -79l-70 -94h-39l65 94h-40l17 79h84z" />
    <glyph glyph-name="Kcommaaccent.ss01.ss02" horiz-adv-x="643" 
d="M694 680l-316 -255l201 -425h-74l-180 382l-167 -134l-52 -248h-71l151 710h71l-79 -373l474 386zM277 -76q24 0 38 -14.5t14 -40.5q0 -44 -33.5 -81t-80.5 -37l3 30q21 2 39.5 17.5t26.5 39.5q-6 -2 -17 -2q-19 0 -30.5 11t-11.5 28q0 21 15.5 35t36.5 14z" />
    <glyph glyph-name="Kcommaaccent.ss02" horiz-adv-x="643" 
d="M708 710l-332 -279l203 -431h-74l-182 387l-164 -138l-53 -249h-71l151 710h71l-78 -368l435 368h94zM276 -76q24 0 38 -14.5t14 -40.5q0 -44 -33.5 -81t-80.5 -37l3 30q21 2 39.5 17.5t26.5 39.5q-6 -2 -17 -2q-19 0 -30.5 11t-11.5 28q0 21 15.5 35t36.5 14z" />
    <glyph glyph-name="Lcommaaccent.ss02" horiz-adv-x="523" 
d="M257 710l-139 -651h340l-13 -59h-410l151 710h71zM225 -76q24 0 38 -14.5t14 -40.5q0 -44 -33.5 -81t-80.5 -37l3 30q21 2 39.5 17.5t26.5 39.5q-6 -2 -17 -2q-19 0 -30.5 11t-11.5 28q0 21 15.5 35t36.5 14z" />
    <glyph glyph-name="Ldot.ss02" horiz-adv-x="523" 
d="M257 710l-139 -651h340l-13 -59h-410l151 710h71zM391 314q-19 0 -32.5 13.5t-13.5 32.5q0 23 16 39.5t40 16.5q19 0 32.5 -13t13.5 -32q0 -24 -16 -40.5t-40 -16.5z" />
    <glyph glyph-name="Ncommaaccent.ss02" horiz-adv-x="730" 
d="M671 710h69l-151 -710h-79l-152 340l-18 40q-65 144 -107 248q-15 -86 -55 -275l-74 -353h-69l151 710h79l151 -339q82 -185 125 -289q32 171 55 274zM290 -76q24 0 38 -14.5t14 -40.5q0 -44 -33.5 -81t-80.5 -37l3 30q21 2 39.5 17.5t26.5 39.5q-6 -2 -17 -2
q-19 0 -30.5 11t-11.5 28q0 21 15.5 35t36.5 14z" />
    <glyph glyph-name="Odieresis.ss02" horiz-adv-x="744" 
d="M444 725q128 0 202 -78q72 -78 72 -211q1 -76 -24 -155t-71 -146.5t-121 -109.5t-165 -40q-130 0 -203.5 77.5t-73.5 212.5q-1 60 14.5 123t48 122.5t77 105.5t108.5 73.5t136 25.5zM443 664q-58 2 -109 -21t-88 -63t-63.5 -90.5t-39.5 -105.5t-12 -108
q0 -109 55.5 -169.5t150.5 -60.5q95 -2 168.5 59.5t108 150t33.5 179.5q0 108 -54 168.5t-150 60.5zM405 800q-18 0 -29.5 12t-11.5 29q0 21 15 36t36 15q18 0 30 -12t12 -29q0 -20 -15.5 -35.5t-36.5 -15.5zM572 800q-17 0 -29.5 12t-12.5 29q0 20 15.5 35.5t36.5 15.5
q18 0 29.5 -12t11.5 -29q0 -21 -15 -36t-36 -15z" />
    <glyph glyph-name="Rcommaaccent.ss02" horiz-adv-x="662" 
d="M656 534q0 -91 -60.5 -159.5t-171.5 -77.5l145 -297h-75l-142 295h-183l-63 -295h-71l151 710h274q88 0 142 -48t54 -128zM181 354h196q106 0 158 48.5t52 130.5q0 57 -37.5 87.5t-105.5 30.5h-200zM259 -76q24 0 38 -14.5t14 -40.5q0 -44 -33.5 -81t-80.5 -37l3 30
q21 2 39.5 17.5t26.5 39.5q-6 -2 -17 -2q-19 0 -30.5 11t-11.5 28q0 21 15.5 35t36.5 14z" />
    <glyph glyph-name="Scommaaccent.ss02" horiz-adv-x="629" 
d="M373 724q145 0 257 -110l-45 -48q-98 98 -215 98q-78 0 -132.5 -42t-54.5 -103q0 -58 74 -89q36 -16 109 -38q118 -37 161 -77.5t43 -111.5q0 -87 -70 -152.5t-187 -65.5q-81 0 -149.5 29.5t-141.5 89.5l42 50q72 -58 130.5 -83t121.5 -25q83 0 134 45t51 111
q-4 55 -37.5 79.5t-140.5 57.5q-123 39 -164.5 73t-44.5 103q0 85 72.5 147t186.5 62zM234 -76q24 0 38 -14.5t14 -40.5q0 -44 -33.5 -81t-80.5 -37l3 30q21 2 39.5 17.5t26.5 39.5q-6 -2 -17 -2q-19 0 -30.5 11t-11.5 28q0 21 15.5 35t36.5 14z" />
    <glyph glyph-name="uni021A.ss02" horiz-adv-x="592" 
d="M659 710l-13 -59h-229l-137 -651h-72l138 651h-228l13 59h528zM223 -76q24 0 38 -14.5t14 -40.5q0 -44 -33.5 -81t-80.5 -37l3 30q21 2 39.5 17.5t26.5 39.5q-6 -2 -17 -2q-19 0 -30.5 11t-11.5 28q0 21 15.5 35t36.5 14z" />
    <glyph glyph-name="Udieresis.ss02" horiz-adv-x="687" 
d="M704 710l-105 -490q-25 -116 -96 -175t-195 -59q-115 0 -174 45.5t-59 132.5q0 25 8 68l102 478h71l-104 -485q-6 -27 -6 -51q0 -127 166 -127q179 0 217 178l103 485h72zM370 800q-18 0 -29.5 12t-11.5 29q0 21 15 36t36 15q18 0 30 -12t12 -29q0 -20 -15.5 -35.5
t-36.5 -15.5zM537 800q-17 0 -29.5 12t-12.5 29q0 20 15.5 35.5t36.5 15.5q18 0 29.5 -12t11.5 -29q0 -21 -15 -36t-36 -15z" />
    <glyph glyph-name="Wdieresis.ss02" horiz-adv-x="929" 
d="M916 710h73l-322 -710h-90l-22 350q-9 154 -11 272q-58 -130 -128 -273l-169 -349h-92l-20 710h68l8 -358q3 -94 3 -186q0 -79 -1 -102q79 174 135 288l176 358h74l20 -358q7 -148 12 -287q32 79 124 287zM495 800q-18 0 -29.5 12t-11.5 29q0 21 15 36t36 15q18 0 30 -12
t12 -29q0 -20 -15.5 -35.5t-36.5 -15.5zM662 800q-17 0 -29.5 12t-12.5 29q0 20 15.5 35.5t36.5 15.5q18 0 29.5 -12t11.5 -29q0 -21 -15 -36t-36 -15z" />
    <glyph glyph-name="Ydieresis.ss02" horiz-adv-x="619" 
d="M618 710h83l-339 -405l-64 -305h-71l65 306l-164 404h72l136 -343zM335 800q-18 0 -29.5 12t-11.5 29q0 21 15 36t36 15q18 0 30 -12t12 -29q0 -20 -15.5 -35.5t-36.5 -15.5zM502 800q-17 0 -29.5 12t-12.5 29q0 20 15.5 35.5t36.5 15.5q18 0 29.5 -12t11.5 -29
q0 -21 -15 -36t-36 -15z" />
    <glyph glyph-name="Zdotaccent.ss02" horiz-adv-x="614" 
d="M674 710l-12 -55l-571 -596h443l-13 -59h-532l11 55l571 596h-423l13 59h513zM427 798q-18 0 -30 12t-12 29q0 22 15 37.5t37 15.5q19 0 31 -11.5t12 -29.5q0 -22 -15 -37.5t-38 -15.5z" />
    <glyph glyph-name="adieresis.ss02" horiz-adv-x="548" 
d="M458 483h62l-103 -483h-60l19 91q-66 -102 -175 -102q-81 0 -124 47t-43 131q-1 76 28.5 150.5t92 126.5t142.5 50q57 0 94 -24.5t50 -68.5zM209 44q81 -4 143 85t60 188q0 123 -111 123q-61 2 -109 -42t-70.5 -105t-21.5 -120q0 -129 109 -129zM266 593q-18 0 -29.5 12
t-11.5 29q0 21 15 36t36 15q18 0 30 -12t12 -29q0 -20 -15.5 -35.5t-36.5 -15.5zM433 593q-17 0 -29.5 12t-12.5 29q0 20 15.5 35.5t36.5 15.5q18 0 29.5 -12t11.5 -29q0 -21 -15 -36t-36 -15z" />
    <glyph glyph-name="cdotaccent.ss02" horiz-adv-x="479" 
d="M476 400l-50 -35q-30 42 -58 59.5t-70 17.5q-60 2 -107.5 -42t-69.5 -102.5t-21 -112.5q0 -68 31.5 -105t92.5 -37q79 0 167 87l42 -41q-102 -102 -213 -102q-87 0 -137 52t-50 142q-1 71 29 142.5t93.5 123t145.5 49.5q113 0 175 -96zM338 591q-18 0 -30 12t-12 29
q0 22 15 37.5t37 15.5q19 0 31 -11.5t12 -29.5q0 -22 -15 -37.5t-38 -15.5z" />
    <glyph glyph-name="edieresis.ss02" horiz-adv-x="521" 
d="M468 236h-365q-4 -20 -4 -50q0 -144 133 -144q89 0 178 100l45 -37q-103 -118 -225 -118q-92 0 -144.5 53t-52.5 144q-1 54 17.5 109t52.5 101.5t87.5 75t117.5 26.5q78 0 126.5 -44.5t48.5 -118.5q0 -54 -15 -97zM305 442q-69 0 -117.5 -42t-72.5 -114h305q3 18 3 40
q0 54 -31 85t-87 31zM260 593q-18 0 -29.5 12t-11.5 29q0 21 15 36t36 15q18 0 30 -12t12 -29q0 -20 -15.5 -35.5t-36.5 -15.5zM427 593q-17 0 -29.5 12t-12.5 29q0 20 15.5 35.5t36.5 15.5q18 0 29.5 -12t11.5 -29q0 -21 -15 -36t-36 -15z" />
    <glyph glyph-name="edotaccent.ss02" horiz-adv-x="521" 
d="M468 236h-365q-4 -20 -4 -50q0 -144 133 -144q89 0 178 100l45 -37q-103 -118 -225 -118q-92 0 -144.5 53t-52.5 144q-1 54 17.5 109t52.5 101.5t87.5 75t117.5 26.5q78 0 126.5 -44.5t48.5 -118.5q0 -54 -15 -97zM305 442q-69 0 -117.5 -42t-72.5 -114h305q3 18 3 40
q0 54 -31 85t-87 31zM341 591q-18 0 -30 12t-12 29q0 22 15 37.5t37 15.5q19 0 31 -11.5t12 -29.5q0 -22 -15 -37.5t-38 -15.5z" />
    <glyph glyph-name="gcommaaccent.ss02" horiz-adv-x="541" 
d="M455 483h62l-102 -480q-21 -97 -74.5 -145t-146.5 -48q-103 0 -204 74l36 46q91 -65 170 -65q123 0 155 143l18 83q-67 -88 -169 -88q-77 0 -122.5 48.5t-45.5 129.5q-1 51 16.5 106t48.5 102t81.5 76.5t108.5 28.5q118 0 149 -99zM209 58q59 -2 107 40t71.5 100.5
t22.5 114.5q0 60 -31 93.5t-88 33.5q-59 2 -105 -39.5t-67.5 -98.5t-20.5 -111q0 -133 111 -133zM392 766l-8 -30q-22 -2 -40 -18t-25 -40q9 3 18 3q19 0 30.5 -11t11.5 -28q0 -20 -16 -34.5t-37 -14.5q-23 0 -37 14.5t-14 40.5q0 43 34.5 80.5t82.5 37.5z" />
    <glyph glyph-name="gdotaccent.ss02" horiz-adv-x="541" 
d="M455 483h62l-102 -480q-21 -97 -74.5 -145t-146.5 -48q-103 0 -204 74l36 46q91 -65 170 -65q123 0 155 143l18 83q-67 -88 -169 -88q-77 0 -122.5 48.5t-45.5 129.5q-1 51 16.5 106t48.5 102t81.5 76.5t108.5 28.5q118 0 149 -99zM209 58q59 -2 107 40t71.5 100.5
t22.5 114.5q0 60 -31 93.5t-88 33.5q-59 2 -105 -39.5t-67.5 -98.5t-20.5 -111q0 -133 111 -133zM338 591q-18 0 -30 12t-12 29q0 22 15 37.5t37 15.5q19 0 31 -11.5t12 -29.5q0 -22 -15 -37.5t-38 -15.5z" />
    <glyph glyph-name="i.ss02" horiz-adv-x="212" 
d="M189 483l-102 -483h-66l102 483h66zM179 591q-18 0 -30 12t-12 29q0 22 15 37.5t37 15.5q19 0 31 -11.5t12 -29.5q0 -22 -15 -37.5t-38 -15.5z" />
    <glyph glyph-name="idieresis.ss02" horiz-adv-x="212" 
d="M189 483l-102 -483h-66l102 483h66zM98 593q-18 0 -29.5 12t-11.5 29q0 21 15 36t36 15q18 0 30 -12t12 -29q0 -20 -15.5 -35.5t-36.5 -15.5zM265 593q-17 0 -29.5 12t-12.5 29q0 20 15.5 35.5t36.5 15.5q18 0 29.5 -12t11.5 -29q0 -21 -15 -36t-36 -15z" />
    <glyph glyph-name="i.loclTRK" horiz-adv-x="212" 
d="M189 483l-102 -483h-66l102 483h66zM232 684l-20 -94h-66l20 94h66z" />
    <glyph glyph-name="i.loclTRK.ss02" horiz-adv-x="212" 
d="M189 483l-102 -483h-66l102 483h66zM179 591q-18 0 -30 12t-12 29q0 22 15 37.5t37 15.5q19 0 31 -11.5t12 -29.5q0 -22 -15 -37.5t-38 -15.5z" />
    <glyph glyph-name="ij.ss02" horiz-adv-x="419" 
d="M179 591q-18 0 -30 12t-12 29q0 22 15 37.5t37 15.5q19 0 31 -11.5t12 -29.5q0 -22 -15 -37.5t-38 -15.5zM391 591q-18 0 -30 12t-12 29q0 22 15 37.5t37 15.5q19 0 31 -11.5t12 -29.5q0 -22 -15 -37.5t-38 -15.5zM189 483l-102 -483h-66l102 483h66zM55 -178l19 49
q36 -10 67 -10q38 0 55.5 22.5t30.5 82.5l109 517h66l-113 -535q-15 -75 -48 -108.5t-95 -33.5q-48 0 -91 16z" />
    <glyph glyph-name="iogonek.ss02" horiz-adv-x="212" 
d="M189 685q19 0 31 -11.5t12 -29.5q0 -22 -15.5 -37.5t-37.5 -15.5q-18 0 -30 12t-12 29q0 22 15 37.5t37 15.5zM21 0l102 483h66l-102 -483q-98 -63 -98 -120q0 -38 42 -38q12 0 24 3l-10 -44q-11 -4 -30 -4q-34 0 -55 18.5t-21 50.5q0 76 92 134h-10z" />
    <glyph glyph-name="j.calt" horiz-adv-x="207" 
d="M231 684l-20 -94h-64l20 94h64zM-101 -191l14 53q16 -2 25 -2q29 0 44.5 18t24.5 56l117 549h65l-119 -559q-12 -55 -44 -86.5t-82 -31.5q-24 0 -45 3z" />
    <glyph glyph-name="j.calt.ss02" horiz-adv-x="208" 
d="M179 591q-18 0 -30 12t-12 29q0 22 15 37.5t37 15.5q19 0 31 -11.5t12 -29.5q0 -22 -15.5 -37.5t-37.5 -15.5zM-101 -191l14 53q16 -2 25 -2q29 0 44.5 18t24.5 56l117 549h65l-119 -559q-12 -55 -44 -86.5t-82 -31.5q-24 0 -45 3z" />
    <glyph glyph-name="j.ss02" horiz-adv-x="208" 
d="M-157 -178l19 49q36 -10 67 -10q38 0 55.5 22.5t30.5 82.5l109 517h66l-113 -535q-15 -75 -48 -108.5t-95 -33.5q-48 0 -91 16zM179 591q-18 0 -30 12t-12 29q0 22 15 37.5t37 15.5q19 0 31 -11.5t12 -29.5q0 -22 -15 -37.5t-38 -15.5z" />
    <glyph glyph-name="k.ss01" horiz-adv-x="478" 
d="M489 452l-197 -163l135 -289h-67l-116 249l-126 -104l-31 -145h-66l151 710h66l-103 -481l313 263z" />
    <glyph glyph-name="kcommaaccent.ss01" horiz-adv-x="478" 
d="M489 452l-197 -163l135 -289h-67l-116 249l-126 -104l-31 -145h-66l151 710h66l-103 -481l313 263zM240 -77l-17 -79l-70 -94h-39l65 94h-40l17 79h84z" />
    <glyph glyph-name="kcommaaccent.ss01.ss02" horiz-adv-x="478" 
d="M489 452l-197 -163l135 -289h-67l-116 249l-126 -104l-31 -145h-66l151 710h66l-103 -481l313 263zM191 -76q24 0 38 -14.5t14 -40.5q0 -44 -33.5 -81t-80.5 -37l3 30q21 2 39.5 17.5t26.5 39.5q-6 -2 -17 -2q-19 0 -30.5 11t-11.5 28q0 21 15.5 35t36.5 14z" />
    <glyph glyph-name="kcommaaccent.ss02" horiz-adv-x="478" 
d="M497 483l-209 -186l139 -297h-67l-120 258l-120 -101l-33 -157h-66l151 710h66l-101 -472l277 245h83zM188 -76q24 0 38 -14.5t14 -40.5q0 -44 -33.5 -81t-80.5 -37l3 30q21 2 39.5 17.5t26.5 39.5q-6 -2 -17 -2q-19 0 -30.5 11t-11.5 28q0 21 15.5 35t36.5 14z" />
    <glyph glyph-name="lcommaaccent.ss02" horiz-adv-x="217" 
d="M241 710l-151 -710h-66l151 710h66zM36 -76q24 0 38 -14.5t14 -40.5q0 -44 -33.5 -81t-80.5 -37l3 30q21 2 39.5 17.5t26.5 39.5q-6 -2 -17 -2q-19 0 -30.5 11t-11.5 28q0 21 15.5 35t36.5 14z" />
    <glyph glyph-name="ldot.ss02" horiz-adv-x="377" 
d="M241 710l-151 -710h-66l151 710h66zM296 249q-19 0 -32.5 13.5t-13.5 32.5q0 23 16 39.5t40 16.5q19 0 32.5 -13t13.5 -32q0 -24 -16 -40.5t-40 -16.5z" />
    <glyph glyph-name="ncommaaccent.ss02" horiz-adv-x="535" 
d="M339 496q70 0 109 -34t39 -89q0 -34 -7 -65l-66 -308h-66l65 309q6 30 6 55q0 78 -93 78q-63 0 -113.5 -45t-65.5 -123l-58 -274h-66l102 483h62l-16 -74q58 87 168 87zM194 -76q24 0 38 -14.5t14 -40.5q0 -44 -33.5 -81t-80.5 -37l3 30q21 2 39.5 17.5t26.5 39.5
q-6 -2 -17 -2q-19 0 -30.5 11t-11.5 28q0 21 15.5 35t36.5 14z" />
    <glyph glyph-name="odieresis.ss02" horiz-adv-x="529" 
d="M301 496q89 0 140.5 -52.5t51.5 -145.5q1 -51 -16 -105t-48.5 -101t-84 -76.5t-116.5 -28.5q-91 0 -142.5 53t-51.5 147q-1 39 9.5 81.5t32.5 83.5t52.5 73.5t75.5 52t97 18.5zM299 442q-59 2 -106.5 -40t-70.5 -100t-22 -115q0 -68 34 -106.5t94 -38.5q60 -2 107.5 39.5
t70 100t21.5 116.5q0 70 -33 107t-95 37zM257 593q-18 0 -29.5 12t-11.5 29q0 21 15 36t36 15q18 0 30 -12t12 -29q0 -20 -15.5 -35.5t-36.5 -15.5zM424 593q-17 0 -29.5 12t-12.5 29q0 20 15.5 35.5t36.5 15.5q18 0 29.5 -12t11.5 -29q0 -21 -15 -36t-36 -15z" />
    <glyph glyph-name="rcommaaccent.ss02" horiz-adv-x="346" 
d="M303 488q35 0 78 -18l-23 -53q-32 13 -62 13q-55 0 -95 -45t-58 -129l-54 -256h-66l102 483h62l-16 -73q52 78 132 78zM35 -76q24 0 38 -14.5t14 -40.5q0 -44 -33.5 -81t-80.5 -37l3 30q21 2 39.5 17.5t26.5 39.5q-6 -2 -17 -2q-19 0 -30.5 11t-11.5 28q0 21 15.5 35
t36.5 14z" />
    <glyph glyph-name="scommaaccent.ss02" horiz-adv-x="462" 
d="M249 496q106 0 189 -79l-40 -43q-73 70 -153 70q-50 0 -83.5 -25t-33.5 -60q3 -33 22.5 -45t93.5 -35q95 -31 126 -54.5t35 -81.5q0 -67 -52.5 -111.5t-143.5 -44.5q-107 0 -205 90l40 43q47 -41 86 -60t84 -19q58 0 92.5 27.5t34.5 70.5q0 42 -56 65q-30 11 -77 24
q-85 24 -114.5 51.5t-29.5 71.5q0 60 51.5 102.5t133.5 42.5zM177 -76q24 0 38 -14.5t14 -40.5q0 -44 -33.5 -81t-80.5 -37l3 30q21 2 39.5 17.5t26.5 39.5q-6 -2 -17 -2q-19 0 -30.5 11t-11.5 28q0 21 15.5 35t36.5 14z" />
    <glyph glyph-name="uni021B.ss02" horiz-adv-x="341" 
d="M217 435l-64 -302q-6 -25 -6 -44q0 -43 51 -43q31 0 75 14l7 -52q-41 -18 -93 -18q-55 0 -81 21.5t-26 68.5q0 20 7 55l64 300h-93l10 48h93l36 168h66l-36 -168h133l-10 -48h-133zM149 -76q24 0 38 -14.5t14 -40.5q0 -44 -33.5 -81t-80.5 -37l3 30q21 2 39.5 17.5
t26.5 39.5q-6 -2 -17 -2q-19 0 -30.5 11t-11.5 28q0 21 15.5 35t36.5 14z" />
    <glyph glyph-name="udieresis.ss02" horiz-adv-x="528" 
d="M434 483h66l-102 -483h-62l16 75q-60 -88 -162 -88q-70 0 -107.5 33.5t-37.5 91.5q0 32 7 63l65 308h66l-65 -308q-6 -32 -6 -55q0 -76 86 -76q64 0 113.5 46.5t67.5 131.5zM243 593q-18 0 -29.5 12t-11.5 29q0 21 15 36t36 15q18 0 30 -12t12 -29q0 -20 -15.5 -35.5
t-36.5 -15.5zM410 593q-17 0 -29.5 12t-12.5 29q0 20 15.5 35.5t36.5 15.5q18 0 29.5 -12t11.5 -29q0 -21 -15 -36t-36 -15z" />
    <glyph glyph-name="wdieresis.ss02" horiz-adv-x="713" 
d="M666 484h67l-241 -484h-81l-13 168q-11 154 -14 236q-26 -57 -90 -189q-13 -26 -24 -49l-81 -166h-84l-31 484h64l11 -191q7 -111 10 -237q45 97 85 178l28 58l96 192h64l15 -192q12 -153 13 -237q48 108 111 235zM337 593q-18 0 -29.5 12t-11.5 29q0 21 15 36t36 15
q18 0 30 -12t12 -29q0 -20 -15.5 -35.5t-36.5 -15.5zM504 593q-17 0 -29.5 12t-12.5 29q0 20 15.5 35.5t36.5 15.5q18 0 29.5 -12t11.5 -29q0 -21 -15 -36t-36 -15z" />
    <glyph glyph-name="ydieresis.ss02" horiz-adv-x="463" 
d="M424 483h68l-309 -560q-36 -67 -66.5 -91.5t-87.5 -24.5q-37 0 -66 10l17 51q24 -6 45 -6q34 0 55.5 18t49.5 69l12 21l-73 513h64l23 -169l4 -32l30 -234q85 166 136 258zM213 593q-18 0 -29.5 12t-11.5 29q0 21 15 36t36 15q18 0 30 -12t12 -29q0 -20 -15.5 -35.5
t-36.5 -15.5zM380 593q-17 0 -29.5 12t-12.5 29q0 20 15.5 35.5t36.5 15.5q18 0 29.5 -12t11.5 -29q0 -21 -15 -36t-36 -15z" />
    <glyph glyph-name="zdotaccent.ss02" horiz-adv-x="468" 
d="M475 483l-11 -47l-377 -381h297l-12 -55h-383l10 49l377 380h-277l11 54h365zM317 591q-18 0 -30 12t-12 29q0 22 15 37.5t37 15.5q19 0 31 -11.5t12 -29.5q0 -22 -15 -37.5t-38 -15.5z" />
    <glyph glyph-name="f_f_i.liga.ss02" horiz-adv-x="837" 
d="M346 669q-41 0 -63 -24.5t-35 -83.5l-17 -78h106l-10 -48h-106l-92 -435h-66l92 435h-97l10 48h97l21 97q30 144 155 144q50 0 99 -20l-20 -48q-40 13 -74 13zM649 435h-123l-93 -435h-66l93 435h-85l10 48h85l20 97q15 71 55 107.5t101 36.5q39 0 84 -14l-20 -50
q-32 9 -63 9q-39 0 -60.5 -24.5t-34.5 -83.5l-16 -78h123zM815 685q19 0 30.5 -11.5t11.5 -29.5q0 -22 -15 -37.5t-38 -15.5q-18 0 -30 12t-12 29q0 22 15 37.5t38 15.5zM646 0l102 483h66l-102 -483h-66z" />
    <glyph glyph-name="f_f_j.liga.ss02" horiz-adv-x="833" 
d="M346 669q-41 0 -63 -24.5t-35 -83.5l-17 -78h106l-10 -48h-106l-92 -435h-66l92 435h-97l10 48h97l21 97q30 144 155 144q50 0 99 -20l-20 -48q-40 13 -74 13zM649 435h-123l-93 -435h-66l93 435h-85l10 48h85l20 97q15 71 55 107.5t101 36.5q39 0 84 -14l-20 -50
q-32 9 -63 9q-39 0 -60.5 -24.5t-34.5 -83.5l-16 -78h123zM815 685q19 0 30.5 -11.5t11.5 -29.5q0 -22 -15 -37.5t-37 -15.5q-19 0 -31 11.5t-12 29.5q0 22 15 37.5t38 15.5zM639 -34l109 517h66l-113 -535q-15 -75 -48 -108.5t-95 -33.5q-48 0 -91 16l19 49q36 -10 67 -10
q38 0 55.5 22.5t30.5 82.5z" />
    <glyph glyph-name="f_j.liga.ss02" horiz-adv-x="528" 
d="M345 435h-124l-92 -435h-66l92 435h-97l10 48h97l21 97q30 144 155 144q39 0 84 -14l-20 -50q-31 9 -63 9q-37 0 -59 -25.5t-35 -82.5l-17 -78h124zM510 685q19 0 30.5 -11.5t11.5 -29.5q0 -22 -15 -37.5t-37 -15.5q-19 0 -31 12t-12 29q0 22 15.5 37.5t37.5 15.5z
M334 -34l109 517h66l-113 -535q-15 -75 -47.5 -108.5t-94.5 -33.5q-48 0 -91 16l19 49q36 -10 67 -10q38 0 55 22.5t30 82.5z" />
    <glyph glyph-name="fi.ss02" horiz-adv-x="532" 
d="M345 435h-124l-92 -435h-66l92 435h-97l10 48h97l21 97q30 144 155 144q39 0 84 -14l-20 -50q-31 9 -63 9q-37 0 -59 -25.5t-35 -82.5l-17 -78h124zM510 685q19 0 30.5 -11.5t11.5 -29.5q0 -22 -15 -37.5t-37 -15.5q-19 0 -31 12t-12 29q0 22 15.5 37.5t37.5 15.5zM341 0
l102 483h66l-102 -483h-66z" />
    <glyph glyph-name="zero.case" horiz-adv-x="600" 
d="M390 725q98 0 147 -63.5t49 -176.5q0 -94 -33 -211t-107 -203q-75 -87 -191 -87q-97 0 -145.5 63.5t-48.5 175.5q0 95 34 212q35 117 108 204q74 86 187 86zM389 667q-89 0 -148 -77t-86 -181q-28 -103 -28 -186q0 -181 131 -181q90 0 148 79q57 76 86 183q27 105 27 183
q0 180 -130 180z" />
    <glyph glyph-name="one.case" horiz-adv-x="468" 
d="M359 710h50l-151 -710h-68l133 620l-176 -110l-27 48z" />
    <glyph glyph-name="two.case" horiz-adv-x="572" 
d="M315 275l-22 -12q-72 -42 -106 -64q-38 -27 -63 -59q-29 -35 -42 -82h401l-13 -58h-470l7 34q26 126 131 202q36 27 127 80l42 24q84 48 125 76q39 27 61 61q21 33 21 82q0 51 -33.5 79t-88.5 28q-66 0 -116 -30q-52 -32 -115 -101l-46 39q68 76 134.5 113t144.5 37
q84 0 136 -45t52 -115q0 -117 -107 -191q-56 -40 -160 -98z" />
    <glyph glyph-name="three.case" horiz-adv-x="583" 
d="M600 710l-12 -57l-280 -235h6q90 0 147 -51t57 -131q1 -60 -27.5 -117t-90 -96.5t-143.5 -38.5q-137 0 -247 90l41 47q103 -79 207 -79q87 0 140.5 58t53.5 134q0 63 -40 97.5t-120 34.5q-41 0 -65 -10l-30 41l302 255h-338l12 58h427z" />
    <glyph glyph-name="four.case" horiz-adv-x="588" 
d="M453 229h105l-11 -57h-106l-37 -172h-66l37 172h-352l12 58l392 480h82l-397 -481h274l37 170h66z" />
    <glyph glyph-name="five.case" horiz-adv-x="600" 
d="M595 652h-328l-71 -242q62 42 146 42t139.5 -54.5t55.5 -137.5q0 -48 -16.5 -96t-48 -89.5t-85 -66.5t-120.5 -24q-69 0 -126.5 23t-122.5 73l42 47q57 -46 106 -65.5t107 -19.5q93 0 145.5 66t52.5 149q0 63 -39 101.5t-105 38.5q-82 0 -158 -63l-56 7l109 369h385z" />
    <glyph glyph-name="six.case" horiz-adv-x="600" 
d="M350 460q90 0 143.5 -53t53.5 -133q1 -47 -18 -97.5t-52.5 -94.5t-87 -72t-116.5 -26q-94 0 -150.5 55t-56.5 140q0 124 71.5 239.5t224.5 240.5l63 51h97l-1 -1l-126 -100q-140 -113 -204 -214q63 65 159 65zM274 42q90 -3 149 72t58 155q0 64 -37.5 99t-107.5 35
q-92 0 -148.5 -66.5t-56.5 -154.5q0 -62 39 -101t104 -39z" />
    <glyph glyph-name="seven.case" horiz-adv-x="537" 
d="M121 710h494l-10 -48q-134 -131 -253 -307q-121 -179 -182 -355h-73q58 167 178 347q117 175 248 306h-414z" />
    <glyph glyph-name="eight.case" horiz-adv-x="600" 
d="M436 377q49 -23 76.5 -64t27.5 -92q0 -43 -15 -83.5t-45 -76t-83 -56.5t-122 -21q-103 0 -167.5 53.5t-64.5 131.5q0 74 43 136q43 63 136 85q-75 43 -75 127q0 37 14 72t41 66t74 50t106 19q83 0 138.5 -45t55.5 -115q0 -63 -36 -113.5t-104 -73.5zM377 667
q-75 0 -121 -40t-46 -106q0 -49 36 -80.5t93 -31.5q82 0 128 43t46 110q0 49 -35.5 77t-100.5 28zM282 43q92 0 142 52t50 126q0 60 -44 96.5t-118 36.5q-100 0 -151 -53t-51 -127q0 -58 45.5 -94.5t126.5 -36.5z" />
    <glyph glyph-name="nine.case" horiz-adv-x="600" 
d="M378 726q94 0 150.5 -55t56.5 -140q0 -124 -71.5 -239.5t-224.5 -240.5l-63 -51h-97l1 1l126 100q140 113 204 214q-63 -65 -159 -65q-90 0 -143.5 53t-53.5 133q-1 47 18 97.5t52.5 94.5t87 72t116.5 26zM315 307q92 0 148.5 66.5t56.5 154.5q0 62 -39 101t-104 39
q-62 2 -111.5 -35.5t-73 -89.5t-22.5 -102q0 -64 37.5 -99t107.5 -35z" />
    <glyph glyph-name="zero.tf" 
d="M377 695q99 0 149 -62t50 -171q0 -88 -32 -201q-31 -111 -105 -194q-73 -82 -187 -82q-99 0 -149 61.5t-50 170.5q0 91 34 202q33 112 106 194t184 82zM375 637q-85 0 -142 -72q-58 -71 -85 -170q-28 -97 -28 -178q0 -83 33.5 -128.5t101.5 -45.5q85 0 142 73t85 173
q27 99 27 174q0 174 -134 174z" />
    <glyph glyph-name="one.tf" 
d="M321 54h169l-11 -54h-417l11 54h181l114 536l-188 -117l-28 47l252 160h49z" />
    <glyph glyph-name="two.tf" 
d="M302 252q-63 -34 -103 -60q-35 -24 -65 -57t-43 -77h402l-13 -58h-470l7 33q26 123 129 195q43 31 126 76l31 17q96 52 130 76q42 28 64 60q22 31 22 78q0 48 -35 75t-90 27q-64 0 -114 -29q-50 -30 -114 -96l-46 39q68 75 132 109.5t144 34.5q85 0 138 -44.5t53 -115.5
q0 -112 -111 -183q-48 -32 -174 -100z" />
    <glyph glyph-name="three.tf" 
d="M591 680l-12 -57l-276 -222q3 1 13 1q86 0 142 -48t56 -126q0 -95 -67.5 -169t-190.5 -74q-130 0 -249 88l41 47q110 -77 208 -77q89 0 140 53.5t51 127.5q0 60 -39 93t-116 33q-51 0 -80 -13l-23 40l304 245h-341l12 58h427z" />
    <glyph glyph-name="four.tf" 
d="M460 221h105l-11 -57h-106l-35 -164h-66l35 164h-352l12 59l388 457h79l-391 -459h275l35 162h66z" />
    <glyph glyph-name="five.tf" 
d="M585 622h-330l-69 -232q62 43 147 43t141.5 -52.5t56.5 -132.5q0 -47 -16 -93t-47 -85t-84 -62.5t-120 -22.5q-123 0 -251 92l42 47q59 -44 108 -62.5t106 -18.5q93 0 144.5 61t51.5 141q0 60 -39 96t-107 36q-84 0 -157 -58l-56 7l105 354h386z" />
    <glyph glyph-name="six.tf" 
d="M345 443q87 0 140.5 -53t53.5 -130q1 -63 -27 -125t-91 -107t-147 -43q-95 0 -153.5 55t-58.5 138q0 119 69.5 227t220.5 226l63 49h98v-1l-125 -96q-128 -97 -192 -189q59 49 149 49zM276 43q92 0 144.5 66t52.5 146q0 61 -38.5 96t-103.5 35q-98 0 -151 -59.5
t-53 -145.5q0 -61 41 -99.5t108 -38.5z" />
    <glyph glyph-name="seven.tf" 
d="M140 680h479l-10 -48q-127 -108 -249.5 -290t-168.5 -342h-74q47 161 161 332q113 170 242 291h-392z" />
    <glyph glyph-name="eight.tf" 
d="M435 362q49 -22 76.5 -61.5t27.5 -89.5q0 -41 -15 -79.5t-45.5 -72.5t-84 -54.5t-121.5 -19.5q-104 0 -168 51.5t-64 127.5q0 70 43 129q41 59 134 82q-75 43 -75 123q0 76 60.5 136.5t174.5 60.5q83 0 138.5 -43.5t55.5 -111.5q0 -59 -35.5 -108t-101.5 -70zM372 639
q-73 0 -119.5 -38t-46.5 -100q0 -46 36.5 -76.5t93.5 -30.5q81 0 127 40.5t46 103.5q0 46 -36.5 73.5t-100.5 27.5zM283 43q92 0 141 49t49 119q0 57 -44.5 92.5t-118.5 35.5q-100 0 -151.5 -50t-51.5 -120q0 -56 47 -91t129 -35z" />
    <glyph glyph-name="nine.tf" 
d="M360 695q95 0 153.5 -55t58.5 -138q0 -119 -69.5 -227t-220.5 -226l-63 -49h-98v1l125 96q129 100 191 189q-58 -49 -148 -49q-87 0 -140.5 53t-53.5 130q-1 63 27 125t91 107t147 43zM161 425q0 -61 38.5 -96t103.5 -35q98 0 151 59.5t53 145.5q0 61 -41 99.5t-108 38.5
q-92 0 -144.5 -66t-52.5 -146z" />
    <glyph glyph-name="zero.zero" 
d="M379 695q99 0 149 -62t50 -171q0 -88 -32 -201q-31 -111 -105 -194q-73 -82 -187 -82q-99 0 -149 61.5t-50 170.5q0 91 34 202q33 112 106 194t184 82zM377 637q-85 0 -142 -72q-58 -71 -85 -170q-28 -97 -28 -178q0 -43 8 -73l349 446q-33 47 -102 47zM257 43
q85 0 142 73t85 173q27 99 27 174q0 43 -9 78l-350 -448q35 -50 105 -50z" />
    <glyph glyph-name="zero.dnom" horiz-adv-x="406" 
d="M229 418q62 0 96.5 -40.5t34.5 -107.5q0 -46 -12.5 -94.5t-36.5 -91t-64 -69t-89 -25.5q-63 0 -97.5 40t-34.5 107q-1 63 20.5 126t70 110t112.5 45zM226 366q-44 2 -77.5 -36.5t-49 -89.5t-14.5 -101q0 -97 73 -97q45 -1 79 36.5t49.5 88.5t14.5 101q0 98 -75 98z" />
    <glyph glyph-name="one.dnom" horiz-adv-x="324" 
d="M198 408h44l-87 -408h-57l70 329l-91 -57l-23 44z" />
    <glyph glyph-name="two.dnom" horiz-adv-x="407" 
d="M189 149q-55 -25 -83 -46.5t-39 -52.5h249l-12 -50h-308l5 23q14 60 54.5 100.5t111.5 72.5l32 15q82 36 100 60q12 15 12 39q0 26 -21 41t-55 15q-33 0 -60 -11t-69 -41l-30 42q81 62 159 62q60 0 96.5 -28t36.5 -73q0 -73 -70 -114q-30 -17 -109 -54z" />
    <glyph glyph-name="three.dnom" horiz-adv-x="407" 
d="M371 408l-10 -49l-161 -115q60 1 92.5 -28t32.5 -78q0 -60 -44 -104t-121 -44q-86 0 -165 51l36 43q68 -42 131 -42q44 0 74 26t30 65q0 67 -84 67q-39 0 -52 -7l-24 37l178 128h-204l10 50h281z" />
    <glyph glyph-name="four.dnom" horiz-adv-x="400" 
d="M286 143h57l-10 -48h-58l-20 -95h-59l21 95h-211l11 54l222 259h70l-228 -265h147l18 90h59z" />
    <glyph glyph-name="five.dnom" horiz-adv-x="412" 
d="M367 358h-209l-33 -118q37 25 95 25q55 0 87.5 -32t32.5 -79q0 -63 -46.5 -113t-134.5 -50q-83 0 -156 53l35 43q64 -45 122 -45q51 0 86 31.5t35 76.5q0 31 -20.5 48.5t-58.5 17.5q-53 0 -99 -35l-45 6l63 221h256z" />
    <glyph glyph-name="six.dnom" horiz-adv-x="404" 
d="M220 274q55 0 89 -33t34 -82q0 -64 -47 -116.5t-131 -52.5q-65 0 -103 35.5t-38 95.5q0 75 54.5 150t159.5 137h92v-1q-139 -76 -203 -158q38 25 93 25zM166 42q55 0 86.5 31t31.5 81q0 31 -22.5 50.5t-60.5 19.5q-56 0 -88.5 -31t-32.5 -80q0 -31 23.5 -51t62.5 -20z
" />
    <glyph glyph-name="seven.dnom" horiz-adv-x="379" 
d="M59 408h315l-11 -47q-90 -76 -153 -171.5t-91 -189.5h-63q24 87 88 186q63 100 148 172h-243z" />
    <glyph glyph-name="eight.dnom" horiz-adv-x="407" 
d="M277 219q59 -27 59 -84q0 -62 -44.5 -100.5t-123.5 -38.5q-72 0 -112 29.5t-40 76.5q0 96 103 124q-45 25 -45 80q0 51 42 84.5t110 33.5q64 0 99.5 -27.5t35.5 -71.5q0 -76 -84 -106zM223 376q-46 0 -71 -21.5t-25 -54.5q0 -25 21 -41.5t54 -16.5q46 0 74 21.5t28 57.5
q0 55 -81 55zM169 46q49 0 79 24.5t30 64.5q0 28 -22.5 45.5t-62.5 17.5q-57 0 -88.5 -26t-31.5 -62q0 -28 25.5 -46t70.5 -18z" />
    <glyph glyph-name="nine.dnom" horiz-adv-x="406" 
d="M221 418q65 0 102 -35t37 -96q0 -75 -54.5 -150t-159.5 -137h-91v1q137 74 203 158q-40 -25 -95 -25t-89.5 33.5t-34.5 81.5q0 64 48 116.5t134 52.5zM98 254q0 -31 22.5 -50.5t61.5 -19.5q56 0 89 31t33 80q0 32 -23 51.5t-62 19.5q-55 0 -88 -31.5t-33 -80.5z" />
    <glyph glyph-name="zero.numr" horiz-adv-x="406" 
d="M288 690q62 0 96.5 -40.5t34.5 -107.5q0 -46 -12.5 -94.5t-36.5 -91t-64 -69t-89 -25.5q-63 0 -97.5 40t-34.5 107q-1 63 20.5 126t70 110t112.5 45zM285 638q-44 2 -77.5 -36.5t-49 -89.5t-14.5 -101q0 -97 73 -97q45 -1 79 36.5t49.5 88.5t14.5 101q0 98 -75 98z" />
    <glyph glyph-name="one.numr" horiz-adv-x="324" 
d="M257 680h44l-87 -408h-57l70 329l-91 -57l-23 44z" />
    <glyph glyph-name="two.numr" horiz-adv-x="407" 
d="M248 421q-55 -26 -82.5 -47t-38.5 -52h248l-12 -50h-308l5 23q14 60 54.5 100.5t111.5 72.5l32 15q82 36 100 60q12 15 12 39q0 26 -21 41t-55 15q-33 0 -60 -11t-69 -41l-30 42q81 62 159 62q60 0 96.5 -28t36.5 -73q0 -73 -70 -114q-30 -17 -109 -54z" />
    <glyph glyph-name="three.numr" horiz-adv-x="407" 
d="M430 680l-10 -49l-161 -115q60 1 92.5 -28t32.5 -78q0 -60 -44 -104t-121 -44q-86 0 -165 51l36 43q68 -42 131 -42q44 0 74 26t30 65q0 67 -84 67q-39 0 -52 -7l-24 37l178 128h-204l10 50h281z" />
    <glyph glyph-name="four.numr" horiz-adv-x="400" 
d="M345 415h57l-10 -48h-58l-20 -95h-59l21 95h-211l11 54l222 259h70l-228 -265h147l18 90h59z" />
    <glyph glyph-name="five.numr" horiz-adv-x="412" 
d="M426 630h-209l-33 -118q37 25 95 25q55 0 87.5 -32t32.5 -79q0 -63 -46.5 -113t-134.5 -50q-83 0 -156 53l35 43q64 -45 122 -45q51 0 86 31.5t35 76.5q0 31 -20.5 48.5t-58.5 17.5q-53 0 -99 -35l-45 6l63 221h256z" />
    <glyph glyph-name="six.numr" horiz-adv-x="404" 
d="M279 546q55 0 89 -33t34 -82q0 -64 -47 -116.5t-131 -52.5q-65 0 -103 35.5t-38 95.5q0 75 54.5 150t159.5 137h92v-1q-139 -76 -203 -158q38 25 93 25zM225 314q55 0 86.5 31t31.5 81q0 31 -22.5 50.5t-60.5 19.5q-56 0 -88.5 -31t-32.5 -80q0 -31 23.5 -51t62.5 -20z
" />
    <glyph glyph-name="seven.numr" horiz-adv-x="379" 
d="M118 680h315l-11 -47q-90 -76 -153 -171.5t-91 -189.5h-63q24 87 88 186q63 100 148 172h-243z" />
    <glyph glyph-name="eight.numr" horiz-adv-x="407" 
d="M337 491q58 -27 58 -84q0 -62 -44.5 -100.5t-123.5 -38.5q-72 0 -112 29.5t-40 76.5q0 96 103 124q-45 26 -45 80q0 51 42 84.5t110 33.5q64 0 99.5 -27.5t35.5 -71.5q0 -76 -83 -106zM282 648q-46 0 -71 -21.5t-25 -54.5q0 -25 21 -41.5t54 -16.5q46 0 74.5 21.5
t28.5 57.5q0 26 -21.5 40.5t-60.5 14.5zM228 318q49 0 79 24.5t30 64.5q0 28 -22.5 45.5t-62.5 17.5q-57 0 -88.5 -26t-31.5 -62q0 -28 25.5 -46t70.5 -18z" />
    <glyph glyph-name="nine.numr" horiz-adv-x="406" 
d="M280 690q65 0 102 -35t37 -96q0 -75 -54.5 -150t-159.5 -137h-91v1q137 74 203 158q-40 -25 -95 -25t-89.5 33.5t-34.5 81.5q0 64 48 116.5t134 52.5zM157 526q0 -31 22.5 -50.5t61.5 -19.5q56 0 89 31t33 80q0 32 -23 51.5t-62 19.5q-55 0 -88 -31.5t-33 -80.5z" />
    <glyph glyph-name="exclamdown.case" horiz-adv-x="252" 
d="M172 619l19 91h84l-19 -91h-84zM46 0l46 213l81 307h40l-51 -308l-45 -212h-71z" />
    <glyph glyph-name="questiondown.case" horiz-adv-x="477" 
d="M307 618l19 92h84l-20 -92h-83zM185 -15q-76 0 -126 38q-52 37 -52 108q0 78 63 136q28 25 84 69l33 25q53 41 73 65q20 23 34 65l10 33h53l-9 -41q-12 -60 -33 -88.5t-88 -78.5q-14 -11 -18 -13q-60 -46 -83.5 -67t-36.5 -44q-15 -26 -15 -57q0 -41 32 -65t86 -24
q99 0 202 85l36 -49q-124 -97 -245 -97z" />
    <glyph glyph-name="periodcentered.ss02" horiz-adv-x="222" 
d="M114 252q-19 0 -32.5 13.5t-13.5 32.5q0 23 16 39.5t40 16.5q19 0 32.5 -13t13.5 -32q0 -24 -16 -40.5t-40 -16.5z" />
    <glyph glyph-name="exclamdown.case.ss02" horiz-adv-x="252" 
d="M225 717q20 0 33.5 -13.5t13.5 -32.5q0 -23 -16.5 -39.5t-40.5 -16.5q-19 0 -32.5 13t-13.5 32q0 23 16.5 40t39.5 17zM46 0l46 213l81 306h40l-51 -307l-45 -212h-71z" />
    <glyph glyph-name="questiondown.case.ss02" horiz-adv-x="477" 
d="M360 725q20 0 33 -13t13 -33q0 -23 -16.5 -39.5t-40.5 -16.5q-19 0 -32 13t-13 32q0 24 16 40.5t40 16.5zM187 -7q-79 0 -129 38t-50 108q0 77 61 135q32 29 84 68q33 25 35 27q53 41 73 65q20 23 34 65l10 33h53l-9 -41q-14 -62 -33.5 -88.5t-86.5 -78.5l-17 -12
q-46 -34 -62.5 -47.5t-33.5 -30.5t-26 -33q-15 -25 -15 -58q0 -41 32 -65t87 -24q99 0 202 85l35 -49q-121 -97 -244 -97z" />
    <glyph glyph-name="colon.ss02" horiz-adv-x="242" 
d="M158 385q-19 0 -32.5 13.5t-13.5 33.5q0 22 16.5 39t39.5 17q19 0 32.5 -13.5t13.5 -32.5q0 -24 -16 -40.5t-40 -16.5zM76 -7q-19 0 -32.5 13.5t-13.5 32.5q0 23 16 39.5t40 16.5q19 0 32.5 -13t13.5 -32q0 -24 -16 -40.5t-40 -16.5z" />
    <glyph glyph-name="comma.ss02" horiz-adv-x="202" 
d="M66 95q25 0 40 -17t15 -49q0 -56 -40.5 -101.5t-92.5 -48.5l7 35q28 7 49 29t28 52q-14 -2 -17 -2q-20 0 -32.5 12.5t-12.5 31.5q0 25 16.5 41.5t39.5 16.5z" />
    <glyph glyph-name="ellipsis.ss02" horiz-adv-x="623" 
d="M64 -7q-19 0 -32.5 13.5t-13.5 32.5q0 23 16.5 39.5t40.5 16.5q19 0 32 -13t13 -32q0 -24 -16 -40.5t-40 -16.5zM265 -7q-19 0 -32.5 13.5t-13.5 32.5q0 23 16 39.5t40 16.5q19 0 32.5 -13t13.5 -32q0 -23 -16.5 -40t-39.5 -17zM466 -7q-20 0 -33.5 13t-13.5 33
q0 23 16.5 39.5t40.5 16.5q19 0 32 -13t13 -32q0 -23 -16 -40t-39 -17z" />
    <glyph glyph-name="exclam.ss02" horiz-adv-x="262" 
d="M272 710l-46 -213l-81 -306h-41l52 307l45 212h71zM92 -7q-19 0 -32.5 13.5t-13.5 32.5q0 23 16 39.5t40 16.5q19 0 32.5 -13t13.5 -32q0 -24 -16 -40.5t-40 -16.5z" />
    <glyph glyph-name="exclamdown.ss02" horiz-adv-x="220" 
d="M159 492q20 0 33.5 -13.5t13.5 -33.5q0 -22 -16.5 -39t-40.5 -17q-19 0 -32 13.5t-13 32.5q0 23 16 40t39 17zM-20 -226l46 213l81 307h40l-51 -308l-45 -212h-71z" />
    <glyph glyph-name="period.ss02" horiz-adv-x="204" 
d="M56 -7q-19 0 -32.5 13.5t-13.5 32.5q0 23 16 39.5t40 16.5q19 0 32.5 -13t13.5 -32q0 -24 -16 -40.5t-40 -16.5z" />
    <glyph glyph-name="question.ss02" horiz-adv-x="483" 
d="M352 725q79 0 128.5 -38t49.5 -108q0 -77 -60 -134q-39 -35 -85 -70l-34 -26q-52 -40 -73 -64q-20 -24 -34 -66l-10 -33h-53l9 41q14 62 34 90t86 77q66 50 93 72q29 24 44 49q16 25 16 60q0 41 -31.5 65t-86.5 24q-99 0 -202 -85l-35 49q121 97 244 97zM179 -7
q-19 0 -32.5 13.5t-13.5 32.5q0 23 16 39.5t40 16.5q19 0 32.5 -13t13.5 -32q0 -24 -16 -40.5t-40 -16.5z" />
    <glyph glyph-name="questiondown.ss02" horiz-adv-x="453" 
d="M293 492q20 0 33.5 -13t13.5 -33q0 -22 -16.5 -39t-40.5 -17q-19 0 -32 13.5t-13 32.5q0 23 16 39.5t39 16.5zM120 -240q-75 0 -127 37q-51 37 -51 110q0 76 62 135q32 29 84 68l34 26q53 41 73 65q20 23 34 65l10 34h53l-9 -42q-12 -60 -33 -88.5t-88 -78.5
q-14 -10 -18 -13q-62 -47 -84.5 -67t-35.5 -43q-15 -26 -15 -57q0 -42 32 -66t87 -24q98 0 201 85l36 -49q-124 -97 -245 -97z" />
    <glyph glyph-name="semicolon.ss02" horiz-adv-x="242" 
d="M159 385q-19 0 -32.5 13.5t-13.5 32.5q0 23 16 39.5t40 16.5q19 0 32.5 -13t13.5 -32q0 -24 -16 -40.5t-40 -16.5zM86 95q25 0 40 -17t15 -49q0 -56 -40.5 -101.5t-92.5 -48.5l7 35q28 7 49 29t28 52q-14 -2 -17 -2q-20 0 -32.5 12.5t-12.5 31.5q0 25 16.5 41.5
t39.5 16.5z" />
    <glyph glyph-name="emdash.case" horiz-adv-x="957" 
d="M900 368l-11 -56h-789l11 56h789z" />
    <glyph glyph-name="endash.case" horiz-adv-x="718" 
d="M673 368l-12 -56h-573l11 56h574z" />
    <glyph glyph-name="hyphen.case" horiz-adv-x="403" 
d="M370 370l-13 -59h-282l13 59h282z" />
    <glyph glyph-name="guillemotleft.case" horiz-adv-x="553" 
d="M341 548l-190 -221l92 -209h-65l-94 215l184 215h73zM552 548l-190 -221l92 -209h-65l-94 215l184 215h73z" />
    <glyph glyph-name="guillemotright.case" horiz-adv-x="553" 
d="M202 548l94 -215l-184 -215h-73l189 221l-91 209h65zM413 548l94 -215l-184 -215h-73l190 221l-92 209h65z" />
    <glyph glyph-name="guilsinglleft.case" horiz-adv-x="342" 
d="M341 548l-190 -221l92 -209h-65l-94 215l184 215h73z" />
    <glyph glyph-name="guilsinglright.case" horiz-adv-x="342" 
d="M202 548l94 -215l-184 -215h-73l189 221l-91 209h65z" />
    <glyph glyph-name="quotedblbase.ss02" horiz-adv-x="368" 
d="M63 90q24 0 38 -16t14 -46q0 -54 -38 -96.5t-88 -45.5l6 32q26 7 46.5 28t27.5 49q-16 -2 -17 -2q-18 0 -30.5 12t-12.5 30q0 24 15.5 39.5t38.5 15.5zM226 90q24 0 38 -16t14 -46q0 -54 -38 -96.5t-88 -45.5l6 32q26 7 46 28t27 49q-14 -2 -16 -2q-18 0 -30.5 12
t-12.5 30q0 24 15.5 39.5t38.5 15.5z" />
    <glyph glyph-name="quotedblleft.ss02" horiz-adv-x="374" 
d="M115 572q0 54 38 96.5t88 45.5l-6 -32q-26 -7 -46.5 -28t-27.5 -50q7 3 16 3q19 0 31.5 -12t12.5 -31q0 -23 -16 -38.5t-39 -15.5t-37 16t-14 46zM407 714l-7 -32q-26 -7 -46 -28t-27 -50q7 3 16 3q18 0 31 -12.5t13 -30.5q0 -23 -16 -38.5t-39 -15.5q-24 0 -38 16
t-14 46q0 54 38 96.5t89 45.5z" />
    <glyph glyph-name="quotedblright.ss02" horiz-adv-x="371" 
d="M188 714q24 0 38 -16t14 -46q0 -54 -38 -96.5t-88 -45.5l6 32q26 7 46 28t27 49q-14 -2 -16 -2q-18 0 -30.5 12t-12.5 30q0 24 15.5 39.5t38.5 15.5zM351 714q24 0 38 -16t14 -46q0 -54 -38 -96.5t-88 -45.5l6 32q26 7 46 28t27 49q-14 -2 -16 -2q-18 0 -30.5 12
t-12.5 30q0 24 15.5 39.5t38.5 15.5z" />
    <glyph glyph-name="quoteleft.ss02" horiz-adv-x="208" 
d="M241 714l-6 -32q-26 -7 -46.5 -28t-27.5 -50q7 3 16 3q19 0 31.5 -12t12.5 -31q0 -23 -16 -38.5t-39 -15.5t-37 16t-14 46q0 54 38 96.5t88 45.5z" />
    <glyph glyph-name="quoteright.ss02" horiz-adv-x="208" 
d="M188 714q24 0 38 -16t14 -46q0 -54 -38 -96.5t-88 -45.5l6 32q26 7 46 28t27 49q-14 -2 -16 -2q-18 0 -30.5 12t-12.5 30q0 24 15.5 39.5t38.5 15.5z" />
    <glyph glyph-name="quotesinglbase.ss02" horiz-adv-x="205" 
d="M63 90q24 0 38 -16t14 -46q0 -54 -38 -96.5t-88 -45.5l6 32q26 7 46.5 28t27.5 49q-16 -2 -17 -2q-18 0 -30.5 12t-12.5 30q0 24 15.5 39.5t38.5 15.5z" />
    <glyph glyph-name="divide.ss02" horiz-adv-x="600" 
d="M301 438q-21 0 -36.5 15t-15.5 36t15.5 36t36.5 15q20 0 35.5 -15t15.5 -36t-15.5 -36t-35.5 -15zM560 338v-56h-520v56h520zM301 80q-21 0 -36.5 15t-15.5 37q0 20 15.5 35t36.5 15q20 0 35.5 -15t15.5 -35q0 -21 -15 -36.5t-36 -15.5z" />
    <glyph glyph-name="registered.ss03" horiz-adv-x="856" 
d="M451 723q153 3 261.5 -105.5t106.5 -262.5q2 -154 -106.5 -262.5t-261.5 -105.5q-153 -3 -261.5 105.5t-106.5 262.5q-2 154 106.5 262.5t261.5 105.5zM451 675q-132 2 -222.5 -91.5t-88.5 -228.5q-2 -135 88.5 -228.5t222.5 -91.5q132 -2 222.5 91.5t88.5 228.5
q2 135 -88.5 228.5t-222.5 91.5zM309 566h165q59 0 96.5 -36t37.5 -92q0 -82 -82 -112l108 -173h-68l-100 164h-97v-164h-60v413zM459 513h-90v-146h90q89 0 89 72q0 35 -23 54.5t-66 19.5z" />
    <glyph glyph-name="uni0326.alt" horiz-adv-x="0" 
d="M-117 586l17 79l72 100h39l-66 -100h40l-17 -79h-85z" />
    <glyph glyph-name="uni0326.alt.ss02" horiz-adv-x="0" 
d="M-36 766l-8 -30q-22 -2 -40 -18t-25 -40q9 3 18 3q19 0 30.5 -11t11.5 -28q0 -20 -16 -34.5t-37 -14.5q-23 0 -37 14.5t-14 40.5q0 43 34.5 80.5t82.5 37.5z" />
    <glyph glyph-name="uni0326.ss02" horiz-adv-x="0" 
d="M-165 -76q24 0 38 -14.5t14 -40.5q0 -44 -33.5 -81t-80.5 -37l3 30q21 2 39.5 17.5t26.5 39.5q-6 -2 -17 -2q-19 0 -30.5 11t-11.5 28q0 21 15.5 35t36.5 14z" />
    <glyph glyph-name="caron.alt" horiz-adv-x="284" 
d="M296 710l-99 -190h-45l77 190h67z" />
    <glyph glyph-name="dieresis.ss02" horiz-adv-x="434" 
d="M208 593q-18 0 -29.5 12t-11.5 29q0 21 15 36t36 15q18 0 30 -12t12 -29q0 -20 -15.5 -35.5t-36.5 -15.5zM375 593q-17 0 -29.5 12t-12.5 29q0 20 15.5 35.5t36.5 15.5q18 0 29.5 -12t11.5 -29q0 -21 -15 -36t-36 -15z" />
    <glyph glyph-name="dotaccent.ss02" horiz-adv-x="266" 
d="M206 591q-18 0 -30 12t-12 29q0 22 15 37.5t37 15.5q19 0 31 -11.5t12 -29.5q0 -22 -15 -37.5t-38 -15.5z" />
    </font>
</defs>
</svg>
