<?xml version="1.0" standalone="no"?>
<!DOCTYPE svg PUBLIC "-//W3C//DTD SVG 1.1//EN" "http://www.w3.org/Graphics/SVG/1.1/DTD/svg11.dtd" >
<svg xmlns="http://www.w3.org/2000/svg" xmlns:xlink="http://www.w3.org/1999/xlink" version="1.1">
<metadata>
Created by FontForge 20170731 at Sun Apr 17 02:54:57 2016
 By Aleksey,,,
Copyright (c) 2015 by Letters from Sweden &#38; Stockholm Design Lab. All rights reserved.
</metadata>
<defs>
<font id="LabGrotesque-Italic" horiz-adv-x="590" >
  <font-face 
    font-family="Lab Grotesque"
    font-weight="400"
    font-style="italic"
    font-stretch="normal"
    units-per-em="1000"
    panose-1="0 0 5 0 0 0 0 0 0 0"
    ascent="750"
    descent="-250"
    x-height="492"
    cap-height="710"
    bbox="-308 -253 1742 937"
    underline-thickness="59"
    underline-position="-277"
    slope="-12"
    unicode-range="U+0020-FB02"
  />
<missing-glyph horiz-adv-x="579" 
d="M479 810v-910h-379v910h379z" />
    <glyph glyph-name="fi" unicode="fi" horiz-adv-x="557" 
d="M358 428h-122l-90 -428h-86l91 428h-95l13 64h95l17 82q33 151 165 151q41 0 88 -14l-25 -65q-34 8 -58 8q-35 0 -55.5 -22.5t-31.5 -74.5l-14 -65h121zM495 692h86l-22 -103h-86zM348 0l104 492h86l-104 -492h-86z" />
    <glyph glyph-name="fl" unicode="fl" horiz-adv-x="561" 
d="M356 428h-120l-91 -428h-86l91 428h-94l13 64h95l17 82q31 151 165 151q41 0 88 -14l-25 -65q-34 8 -58 8q-36 0 -56 -22t-32 -75l-13 -65h119zM502 710h86l-151 -710h-86z" />
    <glyph glyph-name="f_f.liga" unicode="ff" horiz-adv-x="666" 
d="M355 654q-39 0 -59.5 -22t-31.5 -75l-14 -65h102l-14 -64h-102l-90 -428h-86l91 428h-95l13 64h95l17 82q33 151 165 151q53 0 104 -20l-25 -63q-41 12 -70 12zM670 654q-37 0 -57.5 -22t-31.5 -75l-13 -65h118l-13 -64h-119l-91 -428h-86l91 428h-83l14 64h83l17 82
q31 151 165 151q56 0 102 -21l-25 -63q-33 13 -71 13z" />
    <glyph glyph-name="f_f_i.liga" unicode="ffi" horiz-adv-x="875" 
d="M355 654q-39 0 -59.5 -22t-31.5 -75l-14 -65h102l-14 -64h-102l-90 -428h-86l91 428h-95l13 64h95l17 82q33 151 165 151q53 0 104 -20l-25 -63q-41 12 -70 12zM675 428h-121l-91 -428h-86l91 428h-83l14 64h83l17 82q31 151 165 151q40 0 88 -14l-26 -65q-32 8 -57 8
q-36 0 -56.5 -22.5t-31.5 -74.5l-13 -65h120zM813 692h86l-22 -103h-86zM666 0l104 492h86l-104 -492h-86z" />
    <glyph glyph-name="f_f_j.liga" unicode="ffj" horiz-adv-x="864" 
d="M350 654q-39 0 -59.5 -22t-31.5 -75l-14 -65h102l-13 -64h-102l-91 -428h-86l91 428h-90l13 64h90l18 82q31 151 164 151q51 0 105 -20l-26 -63q-40 12 -70 12zM670 428h-121l-90 -428h-86l90 428h-83l14 64h83l17 82q33 151 165 151q40 0 88 -14l-25 -65q-34 8 -58 8
q-36 0 -56 -22t-31 -75l-14 -65h121zM808 692h86l-22 -103h-86zM655 -30l110 522h86l-113 -536q-16 -80 -52 -115t-105 -35q-53 0 -95 16l25 63q41 -9 62 -9q36 0 53 21t29 73z" />
    <glyph glyph-name="f_j.liga" unicode="fj" horiz-adv-x="552" 
d="M358 428h-122l-90 -428h-86l91 428h-95l13 64h95l17 82q33 151 165 151q41 0 88 -14l-25 -65q-34 8 -58 8q-35 0 -55.5 -22.5t-31.5 -74.5l-14 -65h121zM495 692h86l-22 -103h-86zM342 -30l110 522h86l-113 -536q-16 -80 -52 -115t-104 -35q-54 0 -96 16l25 63
q40 -9 63 -9q36 0 52.5 21t28.5 73z" />
    <glyph glyph-name=".notdef" horiz-adv-x="579" 
d="M479 810v-910h-379v910h379z" />
    <glyph glyph-name=".null" horiz-adv-x="0" 
 />
    <glyph glyph-name="nonmarkingreturn" horiz-adv-x="333" 
 />
    <glyph glyph-name="space" unicode=" " horiz-adv-x="227" 
 />
    <glyph glyph-name="exclam" unicode="!" horiz-adv-x="273" 
d="M287 710l-46 -214l-83 -295h-53l44 296l45 213h93zM163 108l-22 -108h-103l23 108h102z" />
    <glyph glyph-name="quotedbl" unicode="&#x22;" horiz-adv-x="375" 
d="M238 710l-59 -234h-64l41 234h82zM417 710l-60 -234h-64l41 234h83z" />
    <glyph glyph-name="numbersign" unicode="#" 
d="M571 436h-98l-40 -190h97l-13 -61h-97l-39 -185h-70l39 185h-156l-39 -185h-70l39 185h-100l13 61h100l40 190h-99l14 61h98l39 183h70l-39 -183h156l39 183h70l-39 -183h99zM363 246l40 190h-155l-41 -190h156z" />
    <glyph glyph-name="dollar" unicode="$" horiz-adv-x="610" 
d="M615 591l-57 -53q-74 68 -140 80l-49 -235q92 -34 133.5 -74t41.5 -101q0 -91 -68.5 -157.5t-188.5 -66.5h-3l-18 -84h-64l19 90q-104 17 -208 118l57 54q90 -85 167 -98l56 261q-95 36 -134.5 73.5t-39.5 94.5q0 84 68.5 143.5t183.5 59.5l18 84h64l-19 -88
q96 -16 181 -101zM202 500q0 -32 24 -53t83 -43l47 219q-68 -3 -111 -36.5t-43 -86.5zM460 199q0 37 -25 60t-83 45l-52 -245q72 3 116 43.5t44 96.5z" />
    <glyph glyph-name="percent" unicode="%" horiz-adv-x="858" 
d="M733 695l47 -38l-620 -672l-45 39zM261 691q58 0 95.5 -37t37.5 -95q0 -73 -44.5 -130t-123.5 -57q-60 0 -97.5 37t-37.5 99q0 69 46 126t124 57zM255 636q-45 0 -71.5 -38.5t-26.5 -86.5q0 -39 19 -61t54 -22q47 0 73 41q25 40 25 87q0 80 -73 80zM657 308
q59 0 96 -36.5t37 -94.5q0 -73 -44.5 -130t-123.5 -57q-60 0 -97.5 37t-37.5 99q0 69 46 125.5t124 56.5zM651 253q-47 0 -72 -39q-26 -40 -26 -85q0 -39 19 -61.5t54 -22.5q46 0 72 40t26 89q0 79 -73 79z" />
    <glyph glyph-name="ampersand" unicode="&#x26;" horiz-adv-x="692" 
d="M668 297l-146 -147l86 -150h-95l-52 92q-64 -56 -118 -81t-116 -25q-91 0 -146.5 48.5t-55.5 116.5q2 82 53.5 138.5t195.5 127.5q-42 78 -42 136q0 67 49 117.5t138 50.5q68 0 110 -35.5t42 -91.5q-1 -62 -37.5 -106.5t-148.5 -100.5l98 -170l131 132zM415 658
q-46 0 -74 -29.5t-28 -69.5q0 -45 37 -111q86 41 114 72t28 72q0 30 -21 48t-56 18zM230 58q50 0 93 23t100 77l-114 199q-122 -64 -158.5 -101t-38.5 -97q0 -41 34 -71t84 -30z" />
    <glyph glyph-name="quotesingle" unicode="'" horiz-adv-x="196" 
d="M238 710l-59 -234h-64l41 234h82z" />
    <glyph glyph-name="parenleft" unicode="(" horiz-adv-x="337" 
d="M372 785l44 -52q-269 -220 -269 -524q0 -161 92 -337l-64 -34q-112 188 -112 370q0 173 77.5 320.5t231.5 256.5z" />
    <glyph glyph-name="parenright" unicode=")" horiz-adv-x="337" 
d="M-11 -167l-44 53q271 219 271 530q0 152 -91 328l63 36q112 -188 112 -368q0 -171 -78.5 -320t-232.5 -259z" />
    <glyph glyph-name="asterisk" unicode="*" horiz-adv-x="436" 
d="M311 710v-134l124 42l18 -51l-129 -41l85 -108l-45 -34l-84 111l-80 -109l-46 35l85 105l-128 42l17 51l123 -43v134h60z" />
    <glyph glyph-name="plus" unicode="+" horiz-adv-x="600" 
d="M338 570v-223h222v-74h-222v-223h-76v223h-222v74h222v223h76z" />
    <glyph glyph-name="comma" unicode="," horiz-adv-x="216" 
d="M136 108l-22 -108l-89 -125h-54l83 125h-49l23 108h108z" />
    <glyph glyph-name="hyphen" unicode="-" horiz-adv-x="405" 
d="M365 326l-17 -77h-291l17 77h291z" />
    <glyph glyph-name="period" unicode="." horiz-adv-x="216" 
d="M130 108l-23 -108h-102l23 108h102z" />
    <glyph glyph-name="slash" unicode="/" horiz-adv-x="438" 
d="M515 710l-455 -710h-90l455 710h90z" />
    <glyph glyph-name="zero" unicode="0" 
d="M375 696q102 0 154.5 -63t52.5 -173q0 -89 -32 -202q-32 -111 -105 -192q-73 -82 -190 -82q-102 0 -154 63t-52 173q0 90 33 203q33 110 107 192q73 81 186 81zM373 620q-79 0 -132 -68q-53 -69 -78 -163q-26 -96 -26 -170q0 -159 122 -159q79 0 131 70q54 71 79 164
t25 167q0 159 -121 159z" />
    <glyph glyph-name="one" unicode="1" horiz-adv-x="460" 
d="M336 680h67l-144 -680h-88l120 564l-161 -99l-35 62z" />
    <glyph glyph-name="two" unicode="2" horiz-adv-x="572" 
d="M299 247q-69 -38 -96 -55q-35 -22 -60 -49q-28 -29 -41 -68h389l-16 -75h-482l8 39q27 123 131 197q58 40 125 76l47 26q76 42 114 66q37 24 57 53t20 70q0 43 -32 68t-82 25q-58 0 -106 -28t-112 -95l-61 50q70 78 136.5 113.5t145.5 35.5q88 0 143.5 -46t55.5 -119
q0 -60 -28 -103.5t-85 -81.5q-56 -36 -171 -99z" />
    <glyph glyph-name="three" unicode="3" horiz-adv-x="575" 
d="M592 680l-16 -73l-261 -206h8q84 0 138.5 -48.5t54.5 -125.5q1 -43 -16 -86t-48.5 -79t-83.5 -57.5t-115 -20.5q-137 0 -254 90l52 61q59 -40 104.5 -57.5t97.5 -17.5q82 0 128.5 48.5t46.5 113.5q0 55 -37 86t-107 31q-48 0 -78 -13l-29 53l287 226h-324l16 75h436z" />
    <glyph glyph-name="four" unicode="4" horiz-adv-x="580" 
d="M457 232h102l-14 -73h-103l-34 -159h-86l33 159h-343l17 80l375 441h102l-381 -448h245l33 155h87z" />
    <glyph glyph-name="five" unicode="5" horiz-adv-x="587" 
d="M579 605h-321l-62 -210q58 39 138 39q85 0 140.5 -53.5t55.5 -133.5q1 -102 -70.5 -183.5t-200.5 -79.5q-70 0 -129.5 22.5t-125.5 71.5l54 61q59 -43 105 -61t101 -18q82 0 130.5 54t48.5 128q0 55 -35.5 87.5t-97.5 32.5q-76 0 -141 -51l-75 8l106 361h396z" />
    <glyph glyph-name="six" unicode="6" horiz-adv-x="589" 
d="M348 444q87 0 140.5 -53.5t53.5 -132.5q0 -46 -17.5 -94t-49.5 -89t-85.5 -66t-117.5 -24q-97 0 -158 56t-61 144q0 116 69 224t218 225l58 46h126v-1l-129 -100q-122 -93 -185 -179q56 44 138 44zM276 60q84 0 131.5 58.5t47.5 131.5q0 57 -35.5 89.5t-96.5 32.5
q-88 0 -136.5 -54.5t-48.5 -130.5q0 -57 37.5 -92t100.5 -35z" />
    <glyph glyph-name="seven" unicode="7" horiz-adv-x="532" 
d="M116 680h486l-13 -64q-129 -114 -242 -282q-113 -166 -164 -334h-99q43 153 154 320q111 166 237 286h-375z" />
    <glyph glyph-name="eight" unicode="8" horiz-adv-x="589" 
d="M444 361q98 -51 98 -150q0 -90 -68.5 -158.5t-200.5 -68.5q-106 0 -172 52.5t-66 130.5q0 67 41 128q41 59 130 83q-71 43 -71 121q0 76 62.5 136.5t177.5 60.5q86 0 143.5 -45.5t57.5 -114.5q0 -57 -34 -105t-98 -70zM367 625q-67 0 -108 -34.5t-41 -90.5
q0 -43 33.5 -71t86.5 -28q73 0 114 37t41 93q0 43 -33.5 68.5t-92.5 25.5zM281 58q84 0 129.5 45t45.5 110q0 52 -41 85t-109 33q-91 0 -138 -45.5t-47 -109.5q0 -52 43 -85t117 -33z" />
    <glyph glyph-name="nine" unicode="9" horiz-adv-x="589" 
d="M357 695q97 0 158 -56t61 -144q0 -116 -69 -224t-218 -225l-58 -46h-126v1l129 100q119 91 185 178q-55 -43 -138 -43q-87 0 -140.5 54t-53.5 132q0 46 17.5 94t49.5 89t85.5 66t117.5 24zM174 430q0 -57 35.5 -89.5t96.5 -32.5q88 0 136.5 54.5t48.5 130.5
q0 57 -37.5 92t-100.5 35q-84 0 -131.5 -58.5t-47.5 -131.5z" />
    <glyph glyph-name="colon" unicode=":" horiz-adv-x="256" 
d="M234 492l-23 -108h-102l23 108h102zM153 108l-23 -108h-102l23 108h102z" />
    <glyph glyph-name="semicolon" unicode=";" horiz-adv-x="256" 
d="M159 108l-22 -108l-89 -125h-54l83 125h-49l23 108h108zM236 492l-23 -108h-102l23 108h102z" />
    <glyph glyph-name="less" unicode="&#x3c;" horiz-adv-x="600" 
d="M540 529v-80l-384 -139l384 -139v-80l-480 180v78z" />
    <glyph glyph-name="equal" unicode="=" horiz-adv-x="600" 
d="M560 247v-74h-520v74h520zM560 447v-74h-520v74h520z" />
    <glyph glyph-name="greater" unicode="&#x3e;" horiz-adv-x="600" 
d="M60 529l480 -180v-78l-480 -180v80l384 139l-384 139v80z" />
    <glyph glyph-name="question" unicode="?" horiz-adv-x="491" 
d="M354 726q82 0 133.5 -40.5t51.5 -110.5q0 -85 -70 -145q-27 -24 -106 -83q-48 -36 -70 -60q-21 -22 -35 -62l-9 -29h-73l8 36q14 62 34 90.5t90 80.5l17 13q53 38 76 58t35 41q13 22 13 51q0 37 -28.5 58.5t-78.5 21.5q-91 0 -195 -82l-44 63q123 99 251 99zM247 108
l-23 -108h-102l23 108h102z" />
    <glyph glyph-name="at" unicode="@" horiz-adv-x="947" 
d="M529 681q170 0 274 -93t104 -249q0 -54 -13 -109t-38 -104.5t-69 -80t-99 -29.5q-109 0 -116 100q-61 -100 -166 -100q-71 0 -109.5 41.5t-38.5 114.5q-1 70 28.5 138.5t85.5 114t122 43.5q52 0 83.5 -23t37.5 -64l14 79h71l-55 -262q-10 -36 -10 -65q0 -60 56 -60
q36 -1 65.5 24.5t46.5 66t26 85t9 85.5q0 138 -86.5 211.5t-225.5 73.5q-142 0 -234 -71q-91 -72 -132 -173q-40 -99 -40 -192q0 -150 89.5 -231.5t265.5 -81.5h207l-13 -60h-198q-207 0 -315 98t-108 271q0 109 48 224q47 114 156 197q108 81 277 81zM416 79q52 -2 92.5 40
t58 94.5t16.5 97.5q0 48 -20 71.5t-64 23.5q-69 2 -117.5 -71.5t-46.5 -156.5q0 -99 81 -99z" />
    <glyph glyph-name="A" unicode="A" horiz-adv-x="670" 
d="M510 0l-26 181h-319l-102 -181h-98l408 710h121l107 -710h-91zM209 259h264l-13 93q-2 13 -14 98q-20 145 -25 192q-31 -62 -83 -155q-58 -104 -65 -117l-11 -19z" />
    <glyph glyph-name="B" unicode="B" horiz-adv-x="673" 
d="M523 367q46 -19 72.5 -56t26.5 -89q0 -92 -66 -157t-186 -65h-340l151 710h291q85 0 138 -44t53 -116q0 -65 -38 -115t-102 -68zM257 636l-48 -227h195q86 0 128 36t42 98q0 44 -32 68.5t-92 24.5h-193zM138 74h206q95 0 140.5 41t45.5 110q0 52 -36 81t-105 29h-196z
" />
    <glyph glyph-name="C" unicode="C" horiz-adv-x="667" 
d="M454 726q144 0 238 -118l-65 -54q-74 91 -180 91q-70 2 -128.5 -32t-95 -89.5t-56 -119.5t-18.5 -126q0 -99 50.5 -156t140.5 -57q59 0 109 26q49 26 113 84l57 -57q-128 -134 -278 -134q-134 0 -209.5 79.5t-75.5 205.5q-1 61 13.5 124t46.5 124t77.5 108t113 75
t147.5 26z" />
    <glyph glyph-name="D" unicode="D" horiz-adv-x="709" 
d="M181 710h220q133 0 208.5 -75t75.5 -200q1 -61 -12.5 -121.5t-44 -118t-73.5 -101t-107 -69.5t-140 -25h-278zM390 633h-134l-118 -556h157q77 -1 136.5 31t93.5 85.5t50.5 114t16.5 122.5q0 99 -51.5 151t-150.5 52z" />
    <glyph glyph-name="E" unicode="E" horiz-adv-x="611" 
d="M653 710l-17 -77h-380l-49 -229h354l-16 -77h-354l-53 -250h389l-16 -77h-481l151 710h472z" />
    <glyph glyph-name="F" unicode="F" horiz-adv-x="597" 
d="M653 710l-17 -77h-380l-51 -244h353l-17 -77h-353l-66 -312h-92l151 710h472z" />
    <glyph glyph-name="G" unicode="G" horiz-adv-x="742" 
d="M370 294l16 78h313l-78 -372h-72l12 92q-83 -107 -228 -107q-127 0 -202 80t-75 204q-1 63 14 126.5t48 124t79.5 106.5t115.5 73.5t150 25.5q166 0 276 -135l-68 -54q-52 58 -100.5 83t-114.5 25q-72 2 -132.5 -31.5t-97.5 -88.5t-57 -119.5t-19 -129.5q0 -97 51.5 -153
t147.5 -56q86 0 154.5 55.5t87.5 144.5l6 28h-227z" />
    <glyph glyph-name="H" unicode="H" horiz-adv-x="734" 
d="M747 710l-151 -710h-93l70 330h-381l-70 -330h-92l151 710h92l-64 -303h381l64 303h93z" />
    <glyph glyph-name="I" unicode="I" horiz-adv-x="274" 
d="M280 710l-151 -710h-92l151 710h92z" />
    <glyph glyph-name="J" unicode="J" horiz-adv-x="466" 
d="M485 710l-113 -527q-21 -101 -72.5 -148t-139.5 -47q-100 0 -186 50l39 70q77 -39 141 -39q52 0 83 31.5t47 100.5l108 509h93z" />
    <glyph glyph-name="K" unicode="K" horiz-adv-x="659" 
d="M727 710l-328 -277l199 -433h-97l-172 374l-155 -132l-52 -242h-92l151 710h92l-74 -348l406 348h122z" />
    <glyph glyph-name="L" unicode="L" horiz-adv-x="533" 
d="M273 710l-135 -632h332l-16 -78h-424l151 710h92z" />
    <glyph glyph-name="M" unicode="M" horiz-adv-x="873" 
d="M735 710h152l-151 -710h-90l74 355l64 289q-42 -78 -141 -253q-2 -4 -20 -36l-199 -355h-82l-51 355l-6 45q-24 149 -34 242q-21 -111 -59 -288l-75 -354h-87l151 710h142l45 -313q27 -186 35 -286q67 132 155 286z" />
    <glyph glyph-name="N" unicode="N" horiz-adv-x="736" 
d="M659 710h90l-151 -710h-100l-142 324q-90 209 -115 275q-22 -136 -54 -280l-68 -319h-89l151 710h100l144 -329q75 -174 111 -269q22 133 54 274z" />
    <glyph glyph-name="O" unicode="O" horiz-adv-x="749" 
d="M445 726q130 0 205.5 -79t75.5 -214q1 -77 -24.5 -156t-72.5 -146t-122.5 -108t-165.5 -39q-131 0 -207.5 79t-76.5 214q-1 60 14.5 123t48 122t78 105.5t110 73.5t137.5 25zM443 645q-68 2 -125.5 -32t-93 -88.5t-55.5 -118.5t-19 -125q0 -102 51 -159t141 -57
q68 -2 125 32t92.5 88.5t55 118.5t18.5 126q0 102 -50 158.5t-140 56.5z" />
    <glyph glyph-name="P" unicode="P" horiz-adv-x="654" 
d="M181 710h291q92 0 147 -49.5t55 -131.5q0 -102 -69.5 -173t-200.5 -71h-221l-61 -285h-92zM453 633h-197l-57 -271h192q98 0 145.5 43.5t47.5 117.5q0 110 -131 110z" />
    <glyph glyph-name="Q" unicode="Q" horiz-adv-x="750" 
d="M726 433q0 -104 -44 -210q-44 -105 -129 -170l43 -79l-71 -38l-42 77q-67 -29 -141 -29q-131 0 -208 79t-77 215q-1 76 24.5 154.5t72.5 145.5t123 109t167 39q131 0 206.5 -79.5t75.5 -213.5zM341 65q53 0 103 21l-69 126l71 38l65 -120q59 53 91 136q31 81 31 164
q0 102 -50 158.5t-140 56.5q-68 2 -125.5 -32t-93 -88.5t-55.5 -118.5t-19 -125q0 -102 50.5 -159t140.5 -57z" />
    <glyph glyph-name="R" unicode="R" horiz-adv-x="672" 
d="M667 529q0 -91 -56.5 -159t-164.5 -82l137 -288h-97l-134 285h-169l-61 -285h-92l151 710h283q92 0 147.5 -50t55.5 -131zM199 362h185q97 0 145 43.5t48 117.5q0 53 -34.5 81.5t-97.5 28.5h-189z" />
    <glyph glyph-name="S" unicode="S" horiz-adv-x="639" 
d="M376 725q146 0 264 -112l-57 -62q-101 95 -212 95q-73 0 -122.5 -37.5t-49.5 -92.5q0 -29 17 -47.5t52 -32.5q31 -13 104 -36q119 -38 164 -79t45 -114q0 -89 -70.5 -156t-191.5 -67q-87 0 -157 29.5t-144 93.5l56 66q75 -61 128 -84q54 -25 120 -25q75 0 122 40t47 99
q-4 50 -36 71.5t-136 54.5q-119 36 -164 74t-45 107q0 86 73 150.5t193 64.5z" />
    <glyph glyph-name="T" unicode="T" horiz-adv-x="595" 
d="M664 710l-18 -78h-222l-133 -632h-93l134 632h-222l17 78h537z" />
    <glyph glyph-name="U" unicode="U" horiz-adv-x="695" 
d="M714 710l-104 -485q-50 -240 -295 -240q-120 0 -182.5 46.5t-62.5 136.5q0 32 9 74l100 468h92l-102 -476q-5 -32 -5 -50q0 -58 39.5 -88t114.5 -30q164 0 201 165l102 479h93z" />
    <glyph glyph-name="V" unicode="V" horiz-adv-x="638" 
d="M616 710h100l-392 -710h-118l-90 710h92l43 -352l3 -21q21 -178 27 -253q58 118 143 273z" />
    <glyph glyph-name="W" unicode="W" horiz-adv-x="943" 
d="M911 710h96l-322 -710h-113l-19 326q-7 172 -9 266q-52 -118 -123 -267l-156 -325h-114l-20 710h90l7 -342q2 -144 2 -160l-1 -114q63 144 126 274l166 342h93l18 -342q8 -188 9 -274l15 37q74 173 102 237z" />
    <glyph glyph-name="X" unicode="X" horiz-adv-x="646" 
d="M703 710l-301 -340l175 -370h-96l-145 309l-269 -309h-108l336 380l-158 330h96l127 -271l236 271h107z" />
    <glyph glyph-name="Y" unicode="Y" horiz-adv-x="631" 
d="M607 710h108l-339 -407l-64 -303h-92l64 304l-163 406h94l127 -325z" />
    <glyph glyph-name="Z" unicode="Z" horiz-adv-x="623" 
d="M680 710l-16 -74l-542 -559h422l-16 -77h-539l16 74l541 559h-404l17 77h521z" />
    <glyph glyph-name="bracketleft" unicode="[" horiz-adv-x="328" 
d="M400 759l-14 -64h-111l-165 -774h112l-14 -63h-194l192 901h194z" />
    <glyph glyph-name="backslash" unicode="\" horiz-adv-x="417" 
d="M201 710l142 -710h-79l-143 710h80z" />
    <glyph glyph-name="bracketright" unicode="]" horiz-adv-x="328" 
d="M146 759h194l-192 -901h-194l13 63h112l165 774h-112z" />
    <glyph glyph-name="asciicircum" unicode="^" 
d="M335 710l199 -430h-76l-163 353l-162 -353h-77l200 430h79z" />
    <glyph glyph-name="underscore" unicode="_" horiz-adv-x="600" 
d="M525 -130v-60h-610v60h610z" />
    <glyph glyph-name="grave" unicode="`" horiz-adv-x="341" 
d="M178 716h91l42 -144h-69z" />
    <glyph glyph-name="a" unicode="a" horiz-adv-x="563" 
d="M460 492h80l-105 -492h-78l18 86q-64 -97 -173 -97q-81 0 -125.5 48.5t-44.5 135.5q-1 78 29.5 153t94 127.5t143.5 50.5q117 0 144 -93zM221 61q52 -2 96.5 37.5t69 99.5t23.5 120q0 114 -104 114q-58 2 -102.5 -39.5t-65.5 -97.5t-20 -112q0 -122 103 -122z" />
    <glyph glyph-name="b" unicode="b" horiz-adv-x="561" 
d="M360 503q79 0 123.5 -49t44.5 -134q1 -80 -29 -155t-92 -127t-143 -50q-57 0 -96 25.5t-55 70.5l-17 -84h-81l151 710h86l-63 -294q67 87 171 87zM257 60q59 -2 103 39t63.5 97.5t18.5 113.5q0 121 -103 121q-54 2 -100.5 -36.5t-71.5 -98t-24 -119.5q0 -52 31.5 -84.5
t82.5 -32.5z" />
    <glyph glyph-name="c" unicode="c" horiz-adv-x="494" 
d="M491 409l-63 -48q-29 41 -56.5 57t-67.5 16q-56 2 -100 -38t-65.5 -95t-20.5 -108q0 -64 30 -99t86 -35q40 0 77 19t87 66l52 -52q-106 -106 -220 -106q-91 0 -145 55t-54 148q0 42 11 86.5t34.5 86.5t56 74.5t78.5 51.5t98 18q115 0 182 -97z" />
    <glyph glyph-name="d" unicode="d" horiz-adv-x="560" 
d="M502 710h86l-151 -710h-78l19 91q-69 -102 -179 -102q-81 0 -125.5 48.5t-44.5 135.5q-1 78 29.5 153t94 127.5t143.5 50.5q111 0 144 -84zM218 61q79 -3 137.5 79t56.5 175q0 55 -27.5 86t-79.5 31q-59 2 -104 -39.5t-66 -97.5t-20 -112q0 -62 25 -92t78 -30z" />
    <glyph glyph-name="e" unicode="e" horiz-adv-x="536" 
d="M483 232h-364q-3 -20 -3 -39q0 -63 31 -99t94 -36q83 0 172 94l56 -48q-104 -118 -232 -118q-96 0 -151 55.5t-55 150.5q0 53 18.5 108t53 102.5t90.5 76.5t122 27q80 0 133 -47q51 -48 51 -124q0 -55 -16 -103zM310 437q-62 0 -107.5 -38.5t-68.5 -103.5h284q2 30 2 35
q0 50 -29 78.5t-81 28.5z" />
    <glyph glyph-name="f" unicode="f" horiz-adv-x="348" 
d="M352 654q-37 0 -57 -22t-31 -75l-14 -65h121l-13 -64h-122l-90 -428h-86l91 428h-95l13 64h95l17 82q33 151 165 151q57 0 102 -21l-24 -63q-33 13 -72 13z" />
    <glyph glyph-name="g" unicode="g" horiz-adv-x="554" 
d="M457 492h79l-102 -482q-43 -201 -232 -201q-114 0 -215 76l46 59q94 -64 170 -64q60 0 96 33t52 104l15 72q-65 -83 -163 -83q-78 0 -125 49.5t-47 131.5q-2 114 71.5 217t189.5 100q115 0 147 -96zM221 78q55 -2 100 37t67 93t21 105q0 57 -28.5 88t-82.5 31
q-55 2 -98 -36.5t-63.5 -91t-19.5 -103.5q0 -123 104 -123z" />
    <glyph glyph-name="h" unicode="h" horiz-adv-x="547" 
d="M351 506q71 0 111 -35.5t40 -94.5q0 -24 -9 -65l-65 -311h-86l65 310q6 27 6 49q0 75 -87 75q-59 0 -104.5 -41.5t-60.5 -113.5l-59 -279h-86l150 710h86l-59 -279q59 75 158 75z" />
    <glyph glyph-name="i" unicode="i" horiz-adv-x="224" 
d="M205 492l-104 -492h-86l104 492h86zM248 692l-22 -103h-86l22 103h86z" />
    <glyph glyph-name="j" unicode="j" horiz-adv-x="219" 
d="M-159 -178l25 63q41 -9 62 -9q36 0 53 20.5t29 73.5l110 522h86l-113 -536q-16 -79 -52.5 -114.5t-104.5 -35.5q-53 0 -95 16zM248 692l-22 -103h-86l22 103h86z" />
    <glyph glyph-name="k" unicode="k" horiz-adv-x="494" 
d="M519 492l-212 -190l139 -302h-87l-115 251l-109 -92l-34 -159h-86l151 710h86l-95 -448l257 230h105z" />
    <glyph glyph-name="l" unicode="l" horiz-adv-x="228" 
d="M255 710l-151 -710h-86l151 710h86z" />
    <glyph glyph-name="m" unicode="m" horiz-adv-x="816" 
d="M628 506q66 0 104.5 -34t38.5 -91q0 -17 -9 -67l-66 -314h-86l65 313q6 27 7 48q-2 72 -79 72q-52 0 -91 -40.5t-54 -114.5l-59 -278h-86l63 304q8 35 8 61q0 68 -76 68q-52 0 -91.5 -40t-54.5 -114l-59 -279h-86l104 492h79l-14 -66q56 80 151 80q52 0 85.5 -24.5
t41.5 -66.5q65 91 164 91z" />
    <glyph glyph-name="n" unicode="n" horiz-adv-x="549" 
d="M352 506q71 0 111 -35t40 -94q0 -29 -8 -66l-66 -311h-86l65 310q6 27 6 50q0 74 -87 74q-58 0 -104 -41.5t-61 -114.5l-59 -278h-86l104 492h80l-16 -72q60 86 167 86z" />
    <glyph glyph-name="o" unicode="o" horiz-adv-x="545" 
d="M308 506q94 0 148 -54.5t54 -152.5q0 -51 -17.5 -105t-50 -102t-87 -77.5t-120.5 -28.5q-96 0 -149.5 55t-53.5 154q-1 50 16.5 103.5t50.5 101.5t88 78t121 28zM304 434q-56 2 -100.5 -37.5t-65.5 -94t-20 -107.5q0 -64 31.5 -100.5t88.5 -36.5q56 -2 100 37.5
t65.5 94.5t20.5 109q0 66 -30.5 100.5t-89.5 34.5z" />
    <glyph glyph-name="p" unicode="p" horiz-adv-x="560" 
d="M359 503q79 0 123.5 -49t44.5 -134q1 -80 -29 -155t-92 -127t-143 -50q-108 0 -146 87l-55 -255h-86l143 672h81l-19 -86q67 97 178 97zM256 60q59 -2 103 39t63.5 97.5t18.5 113.5q0 121 -103 121q-54 2 -100.5 -36.5t-71.5 -98t-24 -119.5q0 -52 31.5 -84.5t82.5 -32.5
z" />
    <glyph glyph-name="q" unicode="q" horiz-adv-x="562" 
d="M463 492h80l-143 -672h-86l55 258q-68 -89 -170 -89q-81 0 -125.5 48.5t-44.5 135.5q0 57 18 115.5t51 107.5t85 79t112 29q119 0 150 -98zM218 61q79 -3 137.5 79.5t56.5 175.5q0 55 -28 85.5t-81 30.5q-59 2 -103.5 -39.5t-65 -97.5t-19.5 -112q0 -62 25 -92t78 -30z
" />
    <glyph glyph-name="r" unicode="r" horiz-adv-x="364" 
d="M319 497q39 0 80 -19l-30 -72q-34 14 -63 14q-54 0 -93 -44t-57 -126l-53 -250h-86l104 492h81l-17 -77q52 82 134 82z" />
    <glyph glyph-name="s" unicode="s" horiz-adv-x="477" 
d="M256 506q111 0 199 -82l-50 -56q-75 69 -155 69q-45 0 -75.5 -22t-30.5 -53q4 -29 21.5 -40t88.5 -33q98 -30 131 -56.5t36 -84.5q0 -72 -56 -117t-150 -45q-114 0 -216 93l52 55q89 -78 170 -78q53 0 84.5 23.5t31.5 62.5q0 37 -52 58q-29 10 -73 23q-88 25 -119.5 53
t-31.5 76q0 62 53.5 108t141.5 46z" />
    <glyph glyph-name="t" unicode="t" horiz-adv-x="355" 
d="M234 428l-62 -289q-4 -17 -4 -36q0 -21 11 -30.5t37 -9.5q31 0 69 13l7 -68q-44 -19 -98 -19q-114 0 -114 95q0 23 6 53l62 291h-92l13 64h92l35 164h86l-35 -164h127l-14 -64h-126z" />
    <glyph glyph-name="u" unicode="u" horiz-adv-x="541" 
d="M432 492h86l-104 -492h-79l16 74q-29 -42 -72 -65t-91 -23q-71 0 -109 34.5t-38 93.5q0 30 8 67l65 311h86l-64 -304q-7 -35 -7 -57q0 -71 80 -71q59 0 104.5 43.5t62.5 123.5z" />
    <glyph glyph-name="v" unicode="v" horiz-adv-x="483" 
d="M423 492h92l-274 -492h-112l-64 492h86l21 -181q11 -100 26 -245q39 82 126 244z" />
    <glyph glyph-name="w" unicode="w" horiz-adv-x="740" 
d="M674 493h89l-242 -493h-108l-10 159q-10 136 -11 226q-17 -38 -107 -228l-75 -157h-108l-30 493h85l9 -184q6 -133 7 -235q45 99 109 234l91 185h82l13 -185q9 -129 10 -235q56 131 107 234z" />
    <glyph glyph-name="x" unicode="x" horiz-adv-x="480" 
d="M508 492l-215 -236l121 -256h-88l-91 199l-177 -199h-99l238 262l-112 230h88l82 -176l155 176h98z" />
    <glyph glyph-name="y" unicode="y" horiz-adv-x="483" 
d="M427 492h89l-311 -564q-37 -68 -73.5 -95t-94.5 -27q-41 0 -77 12l23 65q29 -6 48 -6q34 0 55.5 17t47.5 64l9 15l-76 519h86l22 -169q17 -125 30 -248q57 114 126 241z" />
    <glyph glyph-name="z" unicode="z" horiz-adv-x="478" 
d="M486 492l-13 -63l-361 -358h285l-15 -71h-396l14 64l360 358h-266l14 70h378z" />
    <glyph glyph-name="braceleft" unicode="{" horiz-adv-x="366" 
d="M437 759l-14 -64h-35q-61 0 -74 -38q-5 -15 -16 -67l-33 -153q-12 -57 -39 -86.5t-81 -38.5l-1 -2q73 -13 73 -77q0 -23 -6 -48l-33 -159q-12 -48 -12 -69q0 -19 12.5 -27.5t44.5 -8.5h35l-13 -63h-53q-60 0 -84.5 18t-24.5 63q0 29 9 71l34 162q5 22 5 41q0 31 -18.5 44
t-59.5 13l17 82q52 0 78 22t37 76l34 157q21 91 55 121.5t110 30.5h53z" />
    <glyph glyph-name="bar" unicode="|" horiz-adv-x="383" 
d="M256 800v-940h-76v940h76z" />
    <glyph glyph-name="braceright" unicode="}" horiz-adv-x="366" 
d="M146 759h53q59 0 84 -17.5t25 -62.5q0 -29 -9 -72l-34 -157q-5 -28 -5 -40q0 -31 19 -44.5t60 -13.5l-17 -82q-52 0 -78 -22t-38 -76l-34 -162q-19 -91 -53.5 -121.5t-111.5 -30.5h-53l13 63h35q61 0 74 38q7 18 17 67l33 159q13 57 39.5 86.5t81.5 38.5l1 2
q-74 13 -74 78q0 12 6 47l33 153q12 52 12 68q0 20 -12.5 28.5t-45.5 8.5h-35z" />
    <glyph glyph-name="asciitilde" unicode="~" horiz-adv-x="600" 
d="M195 403q42 0 123 -32q65 -27 95 -27q53 0 58 55h72q-2 -57 -34 -90.5t-88 -33.5q-45 0 -120 32q-71 28 -103 28q-29 0 -47.5 -15t-21.5 -40h-72q2 55 39 89t99 34z" />
    <glyph glyph-name="exclamdown" unicode="&#xa1;" horiz-adv-x="234" 
d="M99 385l23 108h102l-23 -108h-102zM-25 -217l46 214l83 295h53l-44 -296l-45 -213h-93z" />
    <glyph glyph-name="cent" unicode="&#xa2;" 
d="M435 141l53 -53q-54 -52 -100.5 -75.5t-100.5 -26.5l-18 -86h-67l20 90q-74 12 -114.5 60.5t-40.5 124.5q-1 75 27.5 148t91.5 126.5t146 56.5l19 89h66l-20 -93q80 -12 140 -94l-60 -48q-47 60 -95 70l-79 -368q61 11 132 79zM154 184q0 -47 21 -79.5t62 -41.5l79 369
q-50 -7 -88.5 -49t-56.5 -95t-17 -104z" />
    <glyph glyph-name="sterling" unicode="&#xa3;" 
d="M406 617q-148 0 -148 -183q0 -14 2 -84h214l-13 -67h-200q-6 -128 -94 -189q38 -3 96 -17q59 -15 106 -15q54 0 129 38l23 -69q-81 -44 -152 -44q-49 0 -129 20q-22 7 -72 15q-26 2 -38 2q-53 0 -118 -29l-12 70q93 33 132 82t41 136h-97l13 67h82q-2 64 -2 88
q0 108 56 182q55 73 185 73q118 0 210 -83l-56 -58q-77 65 -158 65z" />
    <glyph glyph-name="currency" unicode="&#xa4;" 
d="M486 575l44 -43l-66 -66q41 -55 41 -126t-41 -126l65 -65l-44 -43l-66 66q-52 -34 -122 -34q-71 0 -124 36l-69 -69l-43 43l68 68q-40 52 -40 124q0 70 39 123l-68 68l44 43l68 -69q52 37 125 37q69 0 121 -34zM297 477q-61 0 -100 -37.5t-39 -99.5t39 -99.5t100 -37.5
t100 37.5t39 99.5t-39 99.5t-100 37.5z" />
    <glyph glyph-name="yen" unicode="&#xa5;" 
d="M649 680l-212 -268h120l-14 -64h-157l-36 -45l-10 -47h184l-14 -64h-183l-41 -192h-88l41 192h-183l14 64h182l10 48l-16 44h-157l14 64h120l-97 268h90l102 -297l229 297h102z" />
    <glyph glyph-name="brokenbar" unicode="&#xa6;" horiz-adv-x="383" 
d="M250 800v-400h-76v400h76zM250 260v-400h-76v400h76z" />
    <glyph glyph-name="section" unicode="&#xa7;" 
d="M441 194q67 -34 67 -110q0 -70 -59.5 -114.5t-151.5 -44.5q-68 0 -119.5 18t-106.5 61l46 59q50 -38 92 -53q39 -14 88 -14q57 0 93 24t36 61q0 43 -63 62q-35 10 -92 23q-118 25 -168.5 62t-50.5 102q0 86 97 125q-67 34 -67 110q0 70 59.5 114.5t151.5 44.5
q68 0 119.5 -18t106.5 -61l-46 -59q-52 38 -91 52.5t-89 14.5q-57 0 -93 -24.5t-36 -61.5q4 -35 31 -48.5t124 -36.5q118 -25 168.5 -61.5t50.5 -101.5q0 -88 -97 -125zM136 334q0 -52 78 -76q33 -10 93 -24q6 -1 17.5 -3.5t15.5 -3.5q114 20 114 88q-4 42 -40 60t-131 38
l-36 9q-111 -22 -111 -88z" />
    <glyph glyph-name="dieresis" unicode="&#xa8;" horiz-adv-x="465" 
d="M281 692l-21 -103h-85l22 103h84zM457 692l-22 -103h-84l22 103h84z" />
    <glyph glyph-name="copyright" unicode="&#xa9;" horiz-adv-x="856" 
d="M449 723q153 3 261.5 -105.5t106.5 -262.5q2 -154 -106.5 -262.5t-261.5 -105.5q-153 -3 -261.5 105.5t-106.5 262.5q-2 154 106.5 262.5t261.5 105.5zM449 670q-129 2 -218.5 -90.5t-87.5 -224.5q-2 -132 87.5 -224.5t218.5 -90.5q131 -2 220 90.5t87 224.5
q2 132 -87 224.5t-220 90.5zM453 576q122 0 176 -107l-60 -28q-41 74 -115 74q-62 0 -99 -44.5t-37 -115.5q0 -69 38 -114t98 -45q42 0 68.5 18t50.5 65l59 -30q-31 -61 -72.5 -88t-106.5 -27q-92 0 -150 63t-58 158t58 158t150 63z" />
    <glyph glyph-name="ordfeminine" unicode="&#xaa;" horiz-adv-x="416" 
d="M302 715q69 0 103 -28t34 -75q0 -14 -3 -28l-55 -256h-63l11 49q-49 -61 -138 -61q-54 0 -85.5 24t-31.5 65q0 62 46.5 96t153.5 51l91 15l3 14q1 4 1 18q0 59 -74 59q-61 0 -135 -62l-38 43q83 76 180 76zM207 373q52 0 90 27t49 75l8 41l-76 -15q-73 -15 -104 -34
t-31 -51q0 -43 64 -43z" />
    <glyph glyph-name="guillemotleft" unicode="&#xab;" horiz-adv-x="571" 
d="M339 471l-193 -225l92 -211h-81l-94 218l186 218h90zM557 471l-194 -225l93 -211h-81l-94 218l186 218h90z" />
    <glyph glyph-name="logicalnot" unicode="&#xac;" horiz-adv-x="600" 
d="M40 347h520v-273h-75v199h-445v74z" />
    <glyph glyph-name="registered" unicode="&#xae;" horiz-adv-x="556" 
d="M336 722q94 0 157.5 -63.5t63.5 -157.5t-63.5 -157.5t-157.5 -63.5t-157.5 63.5t-63.5 157.5t63.5 157.5t157.5 63.5zM336 684q-76 0 -127 -52.5t-51 -130.5t51 -130.5t127 -52.5t127 52.5t51 130.5t-51 130.5t-127 52.5zM251 629h102q35 0 57.5 -22.5t22.5 -55.5
q0 -52 -49 -71l62 -100h-50l-57 95h-43v-95h-45v249zM344 588h-48v-75h48q45 0 45 38q0 16 -12 26.5t-33 10.5z" />
    <glyph glyph-name="overscore" unicode="&#xaf;" horiz-adv-x="468" 
d="M458 659l-14 -64h-271l13 64h272z" />
    <glyph glyph-name="degree" unicode="&#xb0;" horiz-adv-x="409" 
d="M272 722q60 0 102.5 -40.5t42.5 -100.5t-42.5 -101t-102.5 -41q-59 0 -101.5 41t-42.5 101q0 59 42.5 100t101.5 41zM272 664q-36 0 -59 -23.5t-23 -59.5q0 -37 23 -60.5t59 -23.5q37 0 60 23.5t23 60.5q0 36 -23 59.5t-60 23.5z" />
    <glyph glyph-name="plusminus" unicode="&#xb1;" horiz-adv-x="600" 
d="M338 662v-223h222v-74h-222v-223h-76v223h-222v74h222v223h76zM560 74v-74h-520v74h520z" />
    <glyph glyph-name="uni00B2" unicode="&#xb2;" horiz-adv-x="408" 
d="M251 449q-53 -25 -78 -43.5t-36 -44.5h244l-14 -59h-316l6 28q14 60 54.5 100t112.5 72l34 16q64 29 84.5 45.5t20.5 44.5q0 24 -19 37.5t-52 13.5q-56 0 -129 -51l-32 50q80 62 165 62q62 0 99 -28.5t37 -74.5q-2 -32 -9.5 -52t-31 -39.5t-52 -34.5t-88.5 -42z" />
    <glyph glyph-name="uni00B3" unicode="&#xb3;" horiz-adv-x="407" 
d="M432 710l-12 -58l-153 -106q56 0 88.5 -29t32.5 -76q0 -61 -45.5 -105t-123.5 -44q-88 0 -167 52l40 50q69 -41 127 -41q45 0 71.5 22t26.5 58q0 63 -81 63q-38 0 -51 -7l-26 43l170 119h-197l12 59h288z" />
    <glyph glyph-name="acute" unicode="&#xb4;" horiz-adv-x="341" 
d="M369 716l-125 -144h-79l101 144h103z" />
    <glyph glyph-name="paragraph" unicode="&#xb6;" horiz-adv-x="726" 
d="M412 710v-810h-71v372h-77q-102 0 -164.5 59.5t-62.5 159.5t62.5 159.5t164.5 59.5h148zM567 710v-810h-72v810h72z" />
    <glyph glyph-name="middot" unicode="&#xb7;" horiz-adv-x="216" 
d="M185 367l-23 -108h-102l23 108h102z" />
    <glyph glyph-name="cedilla" unicode="&#xb8;" horiz-adv-x="413" 
d="M146 -67h7q37 0 62.5 -20t25.5 -53q0 -41 -30 -67.5t-83 -26.5q-58 0 -113 34l30 42q47 -26 81 -26q29 0 45 11.5t16 30.5q0 15 -15 24.5t-38 9.5q-17 0 -29 -3l-22 26l69 104l40 -19z" />
    <glyph glyph-name="uni00B9" unicode="&#xb9;" horiz-adv-x="325" 
d="M253 710h54l-87 -408h-69l67 317l-85 -53l-26 52z" />
    <glyph glyph-name="ordmasculine" unicode="&#xba;" horiz-adv-x="452" 
d="M319 717q69 0 111 -42t42 -109q1 -57 -24 -113.5t-78 -96.5t-121 -38q-69 0 -111 42t-42 110q0 41 14.5 84.5t41.5 80.5t71 60t96 22zM314 659q-66 0 -107.5 -59t-41.5 -126q0 -45 23.5 -71t65.5 -26q66 0 107 58.5t41 125.5q0 45 -23 71.5t-65 26.5z" />
    <glyph glyph-name="guillemotright" unicode="&#xbb;" horiz-adv-x="571" 
d="M198 471l95 -218l-186 -218h-90l193 225l-93 211h81zM416 471l95 -218l-187 -218h-90l194 225l-93 211h81z" />
    <glyph glyph-name="onequarter" unicode="&#xbc;" horiz-adv-x="870" 
d="M253 680h54l-87 -408h-69l67 317l-85 -53l-26 52zM712 695l47 -38l-620 -672l-45 39zM761 149h56l-12 -57h-56l-19 -92h-70l20 92h-208l14 65l214 251h82l-221 -259h132l17 86h70z" />
    <glyph glyph-name="onehalf" unicode="&#xbd;" horiz-adv-x="933" 
d="M253 680h54l-87 -408h-69l67 317l-85 -53l-26 52zM712 695l47 -38l-620 -672l-45 39zM714 147q-53 -25 -78 -43.5t-36 -44.5h244l-14 -59h-316l6 28q14 60 54.5 100t112.5 72l34 16q64 29 84.5 45.5t20.5 44.5q0 51 -71 51q-53 0 -129 -51l-32 50q80 62 165 62
q62 0 99 -28.5t37 -74.5q-2 -32 -9.5 -52t-31 -39.5t-52 -34.5t-88.5 -42z" />
    <glyph glyph-name="threequarters" unicode="&#xbe;" horiz-adv-x="967" 
d="M433 680l-12 -58l-153 -106q56 0 88.5 -29t32.5 -76q0 -61 -45.5 -105t-123.5 -44q-88 0 -167 52l40 50q69 -41 127 -41q45 0 71.5 22t26.5 58q0 63 -81 63q-38 0 -51 -7l-26 43l170 119h-197l12 59h288zM809 695l47 -38l-620 -672l-45 39zM859 149h56l-12 -57h-56
l-19 -92h-70l20 92h-208l14 65l214 251h82l-221 -259h132l17 86h70z" />
    <glyph glyph-name="questiondown" unicode="&#xbf;" horiz-adv-x="464" 
d="M232 385l22 108h103l-23 -108h-102zM124 -233q-82 0 -133.5 40.5t-51.5 110.5q0 85 71 145q25 22 105 83q51 39 72 61q20 21 34 61l9 29h73l-8 -35q-15 -64 -35 -91.5t-90 -80.5l-21 -15q-53 -40 -74 -58.5t-33 -39.5q-13 -22 -13 -50q0 -37 28.5 -58.5t78.5 -21.5
q91 0 195 83l44 -64q-123 -99 -251 -99z" />
    <glyph glyph-name="Agrave" unicode="&#xc0;" horiz-adv-x="670" 
d="M510 0l-26 181h-319l-102 -181h-98l408 710h121l107 -710h-91zM209 259h264l-13 93q-2 13 -14 98q-20 145 -25 192q-31 -62 -83 -155q-58 -104 -65 -117l-11 -19zM347 920h91l42 -144h-69z" />
    <glyph glyph-name="Aacute" unicode="&#xc1;" horiz-adv-x="670" 
d="M510 0l-26 181h-319l-102 -181h-98l408 710h121l107 -710h-91zM209 259h264l-13 93q-2 13 -14 98q-20 145 -25 192q-31 -62 -83 -155q-58 -104 -65 -117l-11 -19zM610 920l-125 -144h-79l101 144h103z" />
    <glyph glyph-name="Acircumflex" unicode="&#xc2;" horiz-adv-x="670" 
d="M510 0l-26 181h-319l-102 -181h-98l408 710h121l107 -710h-91zM209 259h264l-13 93q-2 13 -14 98q-20 145 -25 192q-31 -62 -83 -155q-58 -104 -65 -117l-11 -19zM533 776l-59 101l-102 -101h-79l131 144h108l69 -144h-68z" />
    <glyph glyph-name="Atilde" unicode="&#xc3;" horiz-adv-x="670" 
d="M510 0l-26 181h-319l-102 -181h-98l408 710h121l107 -710h-91zM209 259h264l-13 93q-2 13 -14 98q-20 145 -25 192q-31 -62 -83 -155q-58 -104 -65 -117l-11 -19zM404 896q32 0 75 -30q32 -21 48 -21q31 0 42 50h56q-10 -51 -35.5 -80t-59.5 -29q-29 0 -70 27
q-39 23 -60 23q-32 0 -46 -49h-56q11 51 39.5 80t66.5 29z" />
    <glyph glyph-name="Adieresis" unicode="&#xc4;" horiz-adv-x="670" 
d="M510 0l-26 181h-319l-102 -181h-98l408 710h121l107 -710h-91zM209 259h264l-13 93q-2 13 -14 98q-20 145 -25 192q-31 -62 -83 -155q-58 -104 -65 -117l-11 -19zM427 896l-21 -103h-85l22 103h84zM603 896l-22 -103h-84l22 103h84z" />
    <glyph glyph-name="Aring" unicode="&#xc5;" horiz-adv-x="675" 
d="M516 0l-26 181h-325l-103 -181h-97l405 705q-39 31 -39 84q0 52 38 90q37 37 92 37q50 0 81.5 -31t31.5 -79q0 -36 -19.5 -66.5t-52.5 -46.5l104 -693h-90zM459 870q-31 0 -53.5 -24t-22.5 -57q0 -27 17.5 -45t43.5 -18q33 0 55.5 22.5t22.5 56.5q0 29 -17 47t-46 18z
M209 259h270l-14 92q-31 213 -39 301q-50 -99 -165 -301z" />
    <glyph glyph-name="AE" unicode="&#xc6;" horiz-adv-x="964" 
d="M989 633h-380l-49 -229h354l-17 -77h-353l-53 -250h389l-16 -77h-482l39 181h-235l-132 -181h-99l518 710h533zM242 259h195l81 380z" />
    <glyph glyph-name="Ccedilla" unicode="&#xc7;" horiz-adv-x="667" 
d="M447 645q-70 2 -128.5 -32t-95 -89.5t-56 -119.5t-18.5 -126q0 -99 50.5 -156t140.5 -57q59 0 109 26q49 26 113 84l57 -57q-128 -134 -278 -134h-10l-36 -51h7q37 0 62.5 -20t25.5 -53q0 -41 -30 -67.5t-83 -26.5q-58 0 -113 34l30 42q47 -26 81 -26q29 0 45 11.5
t16 30.5q0 15 -15 24.5t-38 9.5q-17 0 -29 -3l-22 26l49 74q-107 17 -166 92.5t-59 187.5q-1 61 13.5 124t46.5 124t77.5 108t113 75t147.5 26q144 0 238 -118l-65 -54q-74 91 -180 91z" />
    <glyph glyph-name="Egrave" unicode="&#xc8;" horiz-adv-x="611" 
d="M653 710l-17 -77h-380l-49 -229h354l-16 -77h-354l-53 -250h389l-16 -77h-481l151 710h472zM330 920h91l42 -144h-69z" />
    <glyph glyph-name="Eacute" unicode="&#xc9;" horiz-adv-x="611" 
d="M653 710l-17 -77h-380l-49 -229h354l-16 -77h-354l-53 -250h389l-16 -77h-481l151 710h472zM593 920l-125 -144h-79l101 144h103z" />
    <glyph glyph-name="Ecircumflex" unicode="&#xca;" horiz-adv-x="611" 
d="M653 710l-17 -77h-380l-49 -229h354l-16 -77h-354l-53 -250h389l-16 -77h-481l151 710h472zM516 776l-59 101l-102 -101h-79l131 144h108l69 -144h-68z" />
    <glyph glyph-name="Edieresis" unicode="&#xcb;" horiz-adv-x="611" 
d="M653 710l-17 -77h-380l-49 -229h354l-16 -77h-354l-53 -250h389l-16 -77h-481l151 710h472zM410 896l-21 -103h-85l22 103h84zM586 896l-22 -103h-84l22 103h84z" />
    <glyph glyph-name="Igrave" unicode="&#xcc;" horiz-adv-x="274" 
d="M280 710l-151 -710h-92l151 710h92zM147 920h91l42 -144h-69z" />
    <glyph glyph-name="Iacute" unicode="&#xcd;" horiz-adv-x="274" 
d="M280 710l-151 -710h-92l151 710h92zM410 920l-125 -144h-79l101 144h103z" />
    <glyph glyph-name="Icircumflex" unicode="&#xce;" horiz-adv-x="274" 
d="M280 710l-151 -710h-92l151 710h92zM333 776l-59 101l-102 -101h-79l131 144h108l69 -144h-68z" />
    <glyph glyph-name="Idieresis" unicode="&#xcf;" horiz-adv-x="274" 
d="M280 710l-151 -710h-92l151 710h92zM227 896l-21 -103h-85l22 103h84zM403 896l-22 -103h-84l22 103h84z" />
    <glyph glyph-name="Eth" unicode="&#xd0;" horiz-adv-x="738" 
d="M209 710h220q134 0 209.5 -75.5t75.5 -199.5q1 -61 -12.5 -121.5t-43.5 -118t-73.5 -101t-107.5 -69.5t-141 -25h-278l70 328h-85l17 77h84zM167 77h156q62 -1 113.5 20.5t85 57t56.5 82.5t33 95.5t10 97.5q0 99 -51 151t-152 52h-133l-49 -228h187l-17 -77h-186z" />
    <glyph glyph-name="Ntilde" unicode="&#xd1;" horiz-adv-x="736" 
d="M659 710h90l-151 -710h-100l-142 324q-90 209 -115 275q-22 -136 -54 -280l-68 -319h-89l151 710h100l144 -329q75 -174 111 -269q22 133 54 274zM435 896q32 0 75 -30q32 -21 48 -21q31 0 42 50h56q-10 -51 -35.5 -80t-59.5 -29q-29 0 -70 27q-39 23 -60 23
q-32 0 -46 -49h-56q11 51 39.5 80t66.5 29z" />
    <glyph glyph-name="Ograve" unicode="&#xd2;" horiz-adv-x="749" 
d="M445 726q130 0 205.5 -79t75.5 -214q1 -77 -24.5 -156t-72.5 -146t-122.5 -108t-165.5 -39q-131 0 -207.5 79t-76.5 214q-1 60 14.5 123t48 122t78 105.5t110 73.5t137.5 25zM443 645q-68 2 -125.5 -32t-93 -88.5t-55.5 -118.5t-19 -125q0 -102 51 -159t141 -57
q68 -2 125 32t92.5 88.5t55 118.5t18.5 126q0 102 -50 158.5t-140 56.5zM384 920h91l42 -144h-69z" />
    <glyph glyph-name="Oacute" unicode="&#xd3;" horiz-adv-x="749" 
d="M445 726q130 0 205.5 -79t75.5 -214q1 -77 -24.5 -156t-72.5 -146t-122.5 -108t-165.5 -39q-131 0 -207.5 79t-76.5 214q-1 60 14.5 123t48 122t78 105.5t110 73.5t137.5 25zM443 645q-68 2 -125.5 -32t-93 -88.5t-55.5 -118.5t-19 -125q0 -102 51 -159t141 -57
q68 -2 125 32t92.5 88.5t55 118.5t18.5 126q0 102 -50 158.5t-140 56.5zM647 920l-125 -144h-79l101 144h103z" />
    <glyph glyph-name="Ocircumflex" unicode="&#xd4;" horiz-adv-x="749" 
d="M445 726q130 0 205.5 -79t75.5 -214q1 -77 -24.5 -156t-72.5 -146t-122.5 -108t-165.5 -39q-131 0 -207.5 79t-76.5 214q-1 60 14.5 123t48 122t78 105.5t110 73.5t137.5 25zM443 645q-68 2 -125.5 -32t-93 -88.5t-55.5 -118.5t-19 -125q0 -102 51 -159t141 -57
q68 -2 125 32t92.5 88.5t55 118.5t18.5 126q0 102 -50 158.5t-140 56.5zM570 776l-59 101l-102 -101h-79l131 144h108l69 -144h-68z" />
    <glyph glyph-name="Otilde" unicode="&#xd5;" horiz-adv-x="749" 
d="M445 726q130 0 205.5 -79t75.5 -214q1 -77 -24.5 -156t-72.5 -146t-122.5 -108t-165.5 -39q-131 0 -207.5 79t-76.5 214q-1 60 14.5 123t48 122t78 105.5t110 73.5t137.5 25zM443 645q-68 2 -125.5 -32t-93 -88.5t-55.5 -118.5t-19 -125q0 -102 51 -159t141 -57
q68 -2 125 32t92.5 88.5t55 118.5t18.5 126q0 102 -50 158.5t-140 56.5zM441 896q31 0 75 -30q32 -21 48 -21q31 0 42 50h56q-10 -51 -35.5 -80t-59.5 -29q-29 0 -70 27q-39 23 -60 23q-32 0 -46 -49h-56q11 51 39.5 80t66.5 29z" />
    <glyph glyph-name="Odieresis" unicode="&#xd6;" horiz-adv-x="749" 
d="M445 726q130 0 205.5 -79t75.5 -214q1 -77 -24.5 -156t-72.5 -146t-122.5 -108t-165.5 -39q-131 0 -207.5 79t-76.5 214q-1 60 14.5 123t48 122t78 105.5t110 73.5t137.5 25zM443 645q-68 2 -125.5 -32t-93 -88.5t-55.5 -118.5t-19 -125q0 -102 51 -159t141 -57
q68 -2 125 32t92.5 88.5t55 118.5t18.5 126q0 102 -50 158.5t-140 56.5zM465 896l-21 -103h-85l22 103h84zM641 896l-22 -103h-84l22 103h84z" />
    <glyph glyph-name="multiply" unicode="&#xd7;" horiz-adv-x="600" 
d="M529 488l-177 -178l177 -178l-51 -51l-178 177l-178 -177l-52 51l178 178l-178 178l52 52l178 -178l178 178z" />
    <glyph glyph-name="Oslash" unicode="&#xd8;" horiz-adv-x="750" 
d="M764 669l-76 -74q38 -68 38 -162q1 -61 -14.5 -124.5t-48 -122.5t-77.5 -104.5t-108.5 -72.5t-135.5 -25q-127 0 -203 74l-62 -61l-48 44l70 68q-42 67 -42 169q-1 76 24.5 154.5t72.5 145.5t123 109t167 39q130 0 206 -79l67 66zM150 281q0 -60 18 -105l418 409
q-49 60 -143 60q-68 2 -125.5 -32t-93 -88.5t-55.5 -118.5t-19 -125zM633 430q0 55 -15 97l-416 -407q49 -55 139 -55q68 -2 125.5 32t93 88.5t55 118.5t18.5 126z" />
    <glyph glyph-name="Ugrave" unicode="&#xd9;" horiz-adv-x="695" 
d="M714 710l-104 -485q-50 -240 -295 -240q-120 0 -182.5 46.5t-62.5 136.5q0 32 9 74l100 468h92l-102 -476q-5 -32 -5 -50q0 -58 39.5 -88t114.5 -30q164 0 201 165l102 479h93zM349 920h91l42 -144h-69z" />
    <glyph glyph-name="Uacute" unicode="&#xda;" horiz-adv-x="695" 
d="M714 710l-104 -485q-50 -240 -295 -240q-120 0 -182.5 46.5t-62.5 136.5q0 32 9 74l100 468h92l-102 -476q-5 -32 -5 -50q0 -58 39.5 -88t114.5 -30q164 0 201 165l102 479h93zM612 920l-125 -144h-79l101 144h103z" />
    <glyph glyph-name="Ucircumflex" unicode="&#xdb;" horiz-adv-x="695" 
d="M714 710l-104 -485q-50 -240 -295 -240q-120 0 -182.5 46.5t-62.5 136.5q0 32 9 74l100 468h92l-102 -476q-5 -32 -5 -50q0 -58 39.5 -88t114.5 -30q164 0 201 165l102 479h93zM535 776l-59 101l-102 -101h-79l131 144h108l69 -144h-68z" />
    <glyph glyph-name="Udieresis" unicode="&#xdc;" horiz-adv-x="695" 
d="M714 710l-104 -485q-50 -240 -295 -240q-120 0 -182.5 46.5t-62.5 136.5q0 32 9 74l100 468h92l-102 -476q-5 -32 -5 -50q0 -58 39.5 -88t114.5 -30q164 0 201 165l102 479h93zM430 896l-21 -103h-85l22 103h84zM606 896l-22 -103h-84l22 103h84z" />
    <glyph glyph-name="Yacute" unicode="&#xdd;" horiz-adv-x="631" 
d="M607 710h108l-339 -407l-64 -303h-92l64 304l-163 406h94l127 -325zM581 920l-125 -144h-79l101 144h103z" />
    <glyph glyph-name="Thorn" unicode="&#xde;" horiz-adv-x="655" 
d="M246 581h195q96 0 150.5 -49.5t54.5 -131.5q0 -102 -69 -172.5t-201 -70.5h-221l-33 -157h-92l151 710h92zM172 233h192q97 0 145 43.5t48 117.5q0 110 -135 110h-193z" />
    <glyph glyph-name="germandbls" unicode="&#xdf;" horiz-adv-x="576" 
d="M428 395q51 -21 79.5 -64.5t28.5 -102.5q0 -99 -63.5 -167.5t-180.5 -68.5q-72 0 -131 22l27 67q48 -16 102 -16q76 0 119.5 47.5t43.5 116.5q0 60 -41 95.5t-113 35.5h-24l14 68h24q73 0 110.5 40.5t37.5 92.5q0 40 -28 65.5t-75 25.5q-119 0 -149 -144l-108 -508h-86
l110 519q44 205 238 205q84 0 132 -46t48 -112q0 -55 -30.5 -101.5t-84.5 -69.5z" />
    <glyph glyph-name="agrave" unicode="&#xe0;" horiz-adv-x="563" 
d="M460 492h80l-105 -492h-78l18 86q-64 -97 -173 -97q-81 0 -125.5 48.5t-44.5 135.5q-1 78 29.5 153t94 127.5t143.5 50.5q117 0 144 -93zM221 61q52 -2 96.5 37.5t69 99.5t23.5 120q0 114 -104 114q-58 2 -102.5 -39.5t-65.5 -97.5t-20 -112q0 -122 103 -122zM249 716h91
l42 -144h-69z" />
    <glyph glyph-name="aacute" unicode="&#xe1;" horiz-adv-x="563" 
d="M460 492h80l-105 -492h-78l18 86q-64 -97 -173 -97q-81 0 -125.5 48.5t-44.5 135.5q-1 78 29.5 153t94 127.5t143.5 50.5q117 0 144 -93zM221 61q52 -2 96.5 37.5t69 99.5t23.5 120q0 114 -104 114q-58 2 -102.5 -39.5t-65.5 -97.5t-20 -112q0 -122 103 -122zM512 716
l-125 -144h-79l101 144h103z" />
    <glyph glyph-name="acircumflex" unicode="&#xe2;" horiz-adv-x="563" 
d="M460 492h80l-105 -492h-78l18 86q-64 -97 -173 -97q-81 0 -125.5 48.5t-44.5 135.5q-1 78 29.5 153t94 127.5t143.5 50.5q117 0 144 -93zM221 61q52 -2 96.5 37.5t69 99.5t23.5 120q0 114 -104 114q-58 2 -102.5 -39.5t-65.5 -97.5t-20 -112q0 -122 103 -122zM435 572
l-59 101l-102 -101h-79l131 144h108l69 -144h-68z" />
    <glyph glyph-name="atilde" unicode="&#xe3;" horiz-adv-x="563" 
d="M460 492h80l-105 -492h-78l18 86q-64 -97 -173 -97q-81 0 -125.5 48.5t-44.5 135.5q-1 78 29.5 153t94 127.5t143.5 50.5q117 0 144 -93zM221 61q52 -2 96.5 37.5t69 99.5t23.5 120q0 114 -104 114q-58 2 -102.5 -39.5t-65.5 -97.5t-20 -112q0 -122 103 -122zM306 692
q32 0 75 -30q32 -21 48 -21q31 0 42 50h56q-10 -51 -35.5 -80t-59.5 -29q-29 0 -70 27q-39 23 -60 23q-32 0 -46 -49h-56q11 51 39.5 80t66.5 29z" />
    <glyph glyph-name="adieresis" unicode="&#xe4;" horiz-adv-x="563" 
d="M460 492h80l-105 -492h-78l18 86q-64 -97 -173 -97q-81 0 -125.5 48.5t-44.5 135.5q-1 78 29.5 153t94 127.5t143.5 50.5q117 0 144 -93zM221 61q52 -2 96.5 37.5t69 99.5t23.5 120q0 114 -104 114q-58 2 -102.5 -39.5t-65.5 -97.5t-20 -112q0 -122 103 -122zM329 692
l-21 -103h-85l22 103h84zM505 692l-22 -103h-84l22 103h84z" />
    <glyph glyph-name="aring" unicode="&#xe5;" horiz-adv-x="563" 
d="M460 492h80l-105 -492h-78l18 86q-64 -97 -173 -97q-81 0 -125.5 48.5t-44.5 135.5q-1 78 29.5 153t94 127.5t143.5 50.5q117 0 144 -93zM221 61q52 -2 96.5 37.5t69 99.5t23.5 120q0 114 -104 114q-58 2 -102.5 -39.5t-65.5 -97.5t-20 -112q0 -122 103 -122zM376 766
q45 0 71.5 -26t26.5 -68q0 -48 -32.5 -81t-82.5 -33q-44 0 -71 26.5t-27 66.5q0 48 33.5 81.5t81.5 33.5zM373 723q-27 0 -45.5 -21t-18.5 -51q0 -24 13.5 -37t37.5 -13q29 0 47.5 20.5t18.5 50.5q0 51 -53 51z" />
    <glyph glyph-name="ae" unicode="&#xe6;" horiz-adv-x="870" 
d="M817 232h-364q-3 -21 -3 -41q0 -61 31.5 -97t93.5 -36q47 0 86.5 21.5t87.5 71.5l55 -47q-100 -118 -233 -118q-117 0 -173 84q-94 -86 -213 -86q-76 0 -124 35.5t-48 94.5q0 147 233 170l136 13l6 25q5 25 5 38q0 75 -98 75q-83 0 -172 -80l-49 54q109 97 227 97
q125 0 159 -77q74 77 191 77q81 0 131.5 -49t50.5 -126q0 -51 -16 -99zM645 437q-64 0 -108.5 -38.5t-67.5 -103.5h282q3 19 3 35q0 50 -28.5 78.5t-80.5 28.5zM195 55q97 0 175 84q-5 30 -5 49q0 21 3 45l-113 -13q-83 -10 -119.5 -33t-36.5 -65q0 -30 26 -48.5t70 -18.5z
" />
    <glyph glyph-name="ccedilla" unicode="&#xe7;" horiz-adv-x="494" 
d="M234 59q40 0 77 19t87 66l52 -52q-103 -105 -218 -106l-36 -53h6q37 0 62.5 -20t25.5 -53q0 -41 -29.5 -67.5t-82.5 -26.5q-58 0 -113 34l30 42q49 -26 81 -26q29 0 44.5 11.5t15.5 30.5q0 16 -14.5 25t-37.5 9q-17 0 -29 -3l-23 26l51 75q-72 14 -112 66.5t-40 132.5
q0 42 11 86.5t34.5 86.5t56 74.5t78.5 51.5t98 18q115 0 182 -97l-63 -48q-29 41 -56.5 57t-67.5 16q-56 2 -100 -38t-65.5 -95t-20.5 -108q0 -64 30 -99t86 -35z" />
    <glyph glyph-name="egrave" unicode="&#xe8;" horiz-adv-x="536" 
d="M483 232h-364q-3 -20 -3 -39q0 -63 31 -99t94 -36q83 0 172 94l56 -48q-104 -118 -232 -118q-96 0 -151 55.5t-55 150.5q0 53 18.5 108t53 102.5t90.5 76.5t122 27q80 0 133 -47q51 -48 51 -124q0 -55 -16 -103zM310 437q-62 0 -107.5 -38.5t-68.5 -103.5h284q2 30 2 35
q0 50 -29 78.5t-81 28.5zM244 716h91l42 -144h-69z" />
    <glyph glyph-name="eacute" unicode="&#xe9;" horiz-adv-x="536" 
d="M483 232h-364q-3 -20 -3 -39q0 -63 31 -99t94 -36q83 0 172 94l56 -48q-104 -118 -232 -118q-96 0 -151 55.5t-55 150.5q0 53 18.5 108t53 102.5t90.5 76.5t122 27q80 0 133 -47q51 -48 51 -124q0 -55 -16 -103zM310 437q-62 0 -107.5 -38.5t-68.5 -103.5h284q2 30 2 35
q0 50 -29 78.5t-81 28.5zM507 716l-125 -144h-79l101 144h103z" />
    <glyph glyph-name="ecircumflex" unicode="&#xea;" horiz-adv-x="536" 
d="M483 232h-364q-3 -20 -3 -39q0 -63 31 -99t94 -36q83 0 172 94l56 -48q-104 -118 -232 -118q-96 0 -151 55.5t-55 150.5q0 53 18.5 108t53 102.5t90.5 76.5t122 27q80 0 133 -47q51 -48 51 -124q0 -55 -16 -103zM310 437q-62 0 -107.5 -38.5t-68.5 -103.5h284q2 30 2 35
q0 50 -29 78.5t-81 28.5zM430 572l-59 101l-102 -101h-79l131 144h108l69 -144h-68z" />
    <glyph glyph-name="edieresis" unicode="&#xeb;" horiz-adv-x="536" 
d="M483 232h-364q-3 -20 -3 -39q0 -63 31 -99t94 -36q83 0 172 94l56 -48q-104 -118 -232 -118q-96 0 -151 55.5t-55 150.5q0 53 18.5 108t53 102.5t90.5 76.5t122 27q80 0 133 -47q51 -48 51 -124q0 -55 -16 -103zM310 437q-62 0 -107.5 -38.5t-68.5 -103.5h284q2 30 2 35
q0 50 -29 78.5t-81 28.5zM324 692l-21 -103h-85l22 103h84zM500 692l-22 -103h-84l22 103h84z" />
    <glyph glyph-name="igrave" unicode="&#xec;" horiz-adv-x="224" 
d="M205 492l-104 -492h-86l104 492h86zM79 716h91l42 -144h-69z" />
    <glyph glyph-name="iacute" unicode="&#xed;" horiz-adv-x="224" 
d="M205 492l-104 -492h-86l104 492h86zM342 716l-125 -144h-79l101 144h103z" />
    <glyph glyph-name="icircumflex" unicode="&#xee;" horiz-adv-x="224" 
d="M205 492l-104 -492h-86l104 492h86zM265 572l-59 101l-102 -101h-79l131 144h108l69 -144h-68z" />
    <glyph glyph-name="idieresis" unicode="&#xef;" horiz-adv-x="224" 
d="M205 492l-104 -492h-86l104 492h86zM160 692l-21 -103h-85l22 103h84zM336 692l-22 -103h-84l22 103h84z" />
    <glyph glyph-name="eth" unicode="&#xf0;" horiz-adv-x="547" 
d="M526 666l-86 -48q79 -79 79 -210q0 -96 -29 -194q-30 -97 -97 -163t-172 -66q-91 0 -142 52.5t-51 138.5q-1 50 15.5 102t47 97t81 72.5t110.5 26.5q61 0 101.5 -26.5t56.5 -73.5q1 9 1 39q0 103 -72 164l-118 -67l-28 43l101 57q-30 18 -69 36l-41 18l40 59l40 -16
q63 -26 105 -55l100 57zM228 59q54 -2 96.5 34t63 85.5t19.5 96.5q0 60 -31.5 93.5t-90.5 33.5q-83 0 -127.5 -67.5t-44.5 -150.5q0 -125 115 -125z" />
    <glyph glyph-name="ntilde" unicode="&#xf1;" horiz-adv-x="549" 
d="M352 506q71 0 111 -35t40 -94q0 -29 -8 -66l-66 -311h-86l65 310q6 27 6 50q0 74 -87 74q-58 0 -104 -41.5t-61 -114.5l-59 -278h-86l104 492h80l-16 -72q60 86 167 86zM301 692q31 0 75 -30q32 -21 48 -21q31 0 42 50h56q-10 -51 -35.5 -80t-59.5 -29q-29 0 -70 27
q-39 23 -60 23q-32 0 -46 -49h-56q11 51 39.5 80t66.5 29z" />
    <glyph glyph-name="ograve" unicode="&#xf2;" horiz-adv-x="545" 
d="M308 506q94 0 148 -54.5t54 -152.5q0 -51 -17.5 -105t-50 -102t-87 -77.5t-120.5 -28.5q-96 0 -149.5 55t-53.5 154q-1 50 16.5 103.5t50.5 101.5t88 78t121 28zM304 434q-56 2 -100.5 -37.5t-65.5 -94t-20 -107.5q0 -64 31.5 -100.5t88.5 -36.5q56 -2 100 37.5
t65.5 94.5t20.5 109q0 66 -30.5 100.5t-89.5 34.5zM240 716h91l42 -144h-69z" />
    <glyph glyph-name="oacute" unicode="&#xf3;" horiz-adv-x="545" 
d="M308 506q94 0 148 -54.5t54 -152.5q0 -51 -17.5 -105t-50 -102t-87 -77.5t-120.5 -28.5q-96 0 -149.5 55t-53.5 154q-1 50 16.5 103.5t50.5 101.5t88 78t121 28zM304 434q-56 2 -100.5 -37.5t-65.5 -94t-20 -107.5q0 -64 31.5 -100.5t88.5 -36.5q56 -2 100 37.5
t65.5 94.5t20.5 109q0 66 -30.5 100.5t-89.5 34.5zM504 716l-125 -144h-79l101 144h103z" />
    <glyph glyph-name="ocircumflex" unicode="&#xf4;" horiz-adv-x="545" 
d="M308 506q94 0 148 -54.5t54 -152.5q0 -51 -17.5 -105t-50 -102t-87 -77.5t-120.5 -28.5q-96 0 -149.5 55t-53.5 154q-1 50 16.5 103.5t50.5 101.5t88 78t121 28zM304 434q-56 2 -100.5 -37.5t-65.5 -94t-20 -107.5q0 -64 31.5 -100.5t88.5 -36.5q56 -2 100 37.5
t65.5 94.5t20.5 109q0 66 -30.5 100.5t-89.5 34.5zM426 572l-59 101l-102 -101h-79l131 144h108l69 -144h-68z" />
    <glyph glyph-name="otilde" unicode="&#xf5;" horiz-adv-x="545" 
d="M308 506q94 0 148 -54.5t54 -152.5q0 -51 -17.5 -105t-50 -102t-87 -77.5t-120.5 -28.5q-96 0 -149.5 55t-53.5 154q-1 50 16.5 103.5t50.5 101.5t88 78t121 28zM304 434q-56 2 -100.5 -37.5t-65.5 -94t-20 -107.5q0 -64 31.5 -100.5t88.5 -36.5q56 -2 100 37.5
t65.5 94.5t20.5 109q0 66 -30.5 100.5t-89.5 34.5zM297 692q31 0 75 -30q32 -21 48 -21q31 0 42 50h56q-10 -51 -35.5 -80t-59.5 -29q-29 0 -70 27q-39 23 -60 23q-32 0 -46 -49h-56q11 51 39.5 80t66.5 29z" />
    <glyph glyph-name="odieresis" unicode="&#xf6;" horiz-adv-x="545" 
d="M308 506q94 0 148 -54.5t54 -152.5q0 -51 -17.5 -105t-50 -102t-87 -77.5t-120.5 -28.5q-96 0 -149.5 55t-53.5 154q-1 50 16.5 103.5t50.5 101.5t88 78t121 28zM304 434q-56 2 -100.5 -37.5t-65.5 -94t-20 -107.5q0 -64 31.5 -100.5t88.5 -36.5q56 -2 100 37.5
t65.5 94.5t20.5 109q0 66 -30.5 100.5t-89.5 34.5zM321 692l-21 -103h-85l22 103h84zM497 692l-22 -103h-84l22 103h84z" />
    <glyph glyph-name="divide" unicode="&#xf7;" horiz-adv-x="600" 
d="M351 543v-109h-102v109h102zM560 347v-74h-520v74h520zM351 186v-109h-102v109h102z" />
    <glyph glyph-name="oslash" unicode="&#xf8;" horiz-adv-x="544" 
d="M517 483l-45 -51q37 -52 37 -133q1 -50 -17 -104.5t-51 -102.5t-87 -78t-119 -28q-77 0 -127 36l-39 -44l-41 35l42 47q-39 52 -39 135q-1 50 17 103.5t51 101.5t87.5 78t120.5 28q77 0 127 -36l42 47zM117 195q0 -41 12 -69l252 285q-29 23 -77 23q-56 2 -100.5 -37.5
t-66 -94t-20.5 -107.5zM423 299q0 42 -10 66l-252 -283q29 -24 76 -24q56 -2 100 37.5t65.5 94.5t20.5 109z" />
    <glyph glyph-name="ugrave" unicode="&#xf9;" horiz-adv-x="541" 
d="M432 492h86l-104 -492h-79l16 74q-29 -42 -72 -65t-91 -23q-71 0 -109 34.5t-38 93.5q0 30 8 67l65 311h86l-64 -304q-7 -35 -7 -57q0 -71 80 -71q59 0 104.5 43.5t62.5 123.5zM226 716h91l42 -144h-69z" />
    <glyph glyph-name="uacute" unicode="&#xfa;" horiz-adv-x="541" 
d="M432 492h86l-104 -492h-79l16 74q-29 -42 -72 -65t-91 -23q-71 0 -109 34.5t-38 93.5q0 30 8 67l65 311h86l-64 -304q-7 -35 -7 -57q0 -71 80 -71q59 0 104.5 43.5t62.5 123.5zM490 716l-125 -144h-79l101 144h103z" />
    <glyph glyph-name="ucircumflex" unicode="&#xfb;" horiz-adv-x="541" 
d="M432 492h86l-104 -492h-79l16 74q-29 -42 -72 -65t-91 -23q-71 0 -109 34.5t-38 93.5q0 30 8 67l65 311h86l-64 -304q-7 -35 -7 -57q0 -71 80 -71q59 0 104.5 43.5t62.5 123.5zM412 572l-59 101l-102 -101h-79l131 144h108l69 -144h-68z" />
    <glyph glyph-name="udieresis" unicode="&#xfc;" horiz-adv-x="541" 
d="M432 492h86l-104 -492h-79l16 74q-29 -42 -72 -65t-91 -23q-71 0 -109 34.5t-38 93.5q0 30 8 67l65 311h86l-64 -304q-7 -35 -7 -57q0 -71 80 -71q59 0 104.5 43.5t62.5 123.5zM307 692l-21 -103h-85l22 103h84zM483 692l-22 -103h-84l22 103h84z" />
    <glyph glyph-name="yacute" unicode="&#xfd;" horiz-adv-x="483" 
d="M427 492h89l-311 -564q-37 -68 -73.5 -95t-94.5 -27q-41 0 -77 12l23 65q29 -6 48 -6q34 0 55.5 17t47.5 64l9 15l-76 519h86l22 -169q17 -125 30 -248q57 114 126 241zM463 716l-125 -144h-79l101 144h103z" />
    <glyph glyph-name="thorn" unicode="&#xfe;" horiz-adv-x="560" 
d="M359 503q79 0 123.5 -49t44.5 -134q1 -80 -29 -155t-92 -127t-143 -50q-108 0 -146 87l-55 -255h-86l190 890h86l-63 -293q68 86 170 86zM256 60q59 -2 103 39t63.5 97.5t18.5 113.5q0 121 -103 121q-54 2 -100.5 -36.5t-71.5 -98t-24 -119.5q0 -52 31.5 -84.5
t82.5 -32.5z" />
    <glyph glyph-name="ydieresis" unicode="&#xff;" horiz-adv-x="483" 
d="M427 492h89l-311 -564q-37 -68 -73.5 -95t-94.5 -27q-41 0 -77 12l23 65q29 -6 48 -6q34 0 55.5 17t47.5 64l9 15l-76 519h86l22 -169q17 -125 30 -248q57 114 126 241zM280 692l-21 -103h-85l22 103h84zM456 692l-22 -103h-84l22 103h84z" />
    <glyph glyph-name="Amacron" unicode="&#x100;" horiz-adv-x="670" 
d="M510 0l-26 181h-319l-102 -181h-98l408 710h121l107 -710h-91zM209 259h264l-13 93q-2 13 -14 98q-20 145 -25 192q-31 -62 -83 -155q-58 -104 -65 -117l-11 -19zM602 863l-14 -64h-271l13 64h272z" />
    <glyph glyph-name="amacron" unicode="&#x101;" horiz-adv-x="563" 
d="M460 492h80l-105 -492h-78l18 86q-64 -97 -173 -97q-81 0 -125.5 48.5t-44.5 135.5q-1 78 29.5 153t94 127.5t143.5 50.5q117 0 144 -93zM221 61q52 -2 96.5 37.5t69 99.5t23.5 120q0 114 -104 114q-58 2 -102.5 -39.5t-65.5 -97.5t-20 -112q0 -122 103 -122zM504 659
l-14 -64h-271l13 64h272z" />
    <glyph glyph-name="Abreve" unicode="&#x102;" horiz-adv-x="670" 
d="M510 0l-26 181h-319l-102 -181h-98l408 710h121l107 -710h-91zM209 259h264l-13 93q-2 13 -14 98q-20 145 -25 192q-31 -62 -83 -155q-58 -104 -65 -117l-11 -19zM461 775q-62 0 -97 30t-35 77q0 14 2 24h67q-1 -3 -1 -16q0 -62 67 -62q73 0 86 78h68
q-11 -64 -51.5 -97.5t-105.5 -33.5z" />
    <glyph glyph-name="abreve" unicode="&#x103;" horiz-adv-x="563" 
d="M460 492h80l-105 -492h-78l18 86q-64 -97 -173 -97q-81 0 -125.5 48.5t-44.5 135.5q-1 78 29.5 153t94 127.5t143.5 50.5q117 0 144 -93zM221 61q52 -2 96.5 37.5t69 99.5t23.5 120q0 114 -104 114q-58 2 -102.5 -39.5t-65.5 -97.5t-20 -112q0 -122 103 -122zM363 571
q-62 0 -97 30t-35 77q0 14 2 24h67q-1 -3 -1 -16q0 -62 67 -62q73 0 86 78h68q-11 -64 -51.5 -97.5t-105.5 -33.5z" />
    <glyph glyph-name="Aogonek" unicode="&#x104;" horiz-adv-x="671" 
d="M500 -115q0 -37 43 -37q14 0 26 3l-12 -54q-13 -5 -34 -5q-40 0 -62.5 20t-22.5 54q0 75 95 134h-23l-26 181h-319l-102 -181h-98l408 710h121l107 -710q-101 -61 -101 -115zM209 259h264l-13 93q-2 13 -14 98q-20 145 -25 192q-31 -62 -83 -155q-58 -104 -65 -117
l-11 -19z" />
    <glyph glyph-name="aogonek" unicode="&#x105;" horiz-adv-x="563" 
d="M540 492l-105 -492q-100 -61 -100 -115q0 -37 42 -37q14 0 26 3l-12 -54q-13 -5 -34 -5q-39 0 -61.5 20t-22.5 54q0 76 97 134h-13l18 86q-64 -97 -173 -97q-81 0 -125.5 48.5t-44.5 135.5q-1 78 29.5 153t94 127.5t143.5 50.5q117 0 144 -93l17 81h80zM221 61
q52 -2 96.5 37.5t69 99.5t23.5 120q0 114 -104 114q-58 2 -102.5 -39.5t-65.5 -97.5t-20 -112q0 -122 103 -122z" />
    <glyph glyph-name="Cacute" unicode="&#x106;" horiz-adv-x="667" 
d="M454 726q144 0 238 -118l-65 -54q-74 91 -180 91q-70 2 -128.5 -32t-95 -89.5t-56 -119.5t-18.5 -126q0 -99 50.5 -156t140.5 -57q59 0 109 26q49 26 113 84l57 -57q-128 -134 -278 -134q-134 0 -209.5 79.5t-75.5 205.5q-1 61 13.5 124t46.5 124t77.5 108t113 75
t147.5 26zM635 920l-125 -144h-79l101 144h103z" />
    <glyph glyph-name="cacute" unicode="&#x107;" horiz-adv-x="494" 
d="M491 409l-63 -48q-29 41 -56.5 57t-67.5 16q-56 2 -100 -38t-65.5 -95t-20.5 -108q0 -64 30 -99t86 -35q40 0 77 19t87 66l52 -52q-106 -106 -220 -106q-91 0 -145 55t-54 148q0 42 11 86.5t34.5 86.5t56 74.5t78.5 51.5t98 18q115 0 182 -97zM503 716l-125 -144h-79
l101 144h103z" />
    <glyph glyph-name="Cdotaccent" unicode="&#x10a;" horiz-adv-x="667" 
d="M454 726q144 0 238 -118l-65 -54q-74 91 -180 91q-70 2 -128.5 -32t-95 -89.5t-56 -119.5t-18.5 -126q0 -99 50.5 -156t140.5 -57q59 0 109 26q49 26 113 84l57 -57q-128 -134 -278 -134q-134 0 -209.5 79.5t-75.5 205.5q-1 61 13.5 124t46.5 124t77.5 108t113 75
t147.5 26zM541 896l-22 -103h-86l22 103h86z" />
    <glyph glyph-name="cdotaccent" unicode="&#x10b;" horiz-adv-x="494" 
d="M491 409l-63 -48q-29 41 -56.5 57t-67.5 16q-56 2 -100 -38t-65.5 -95t-20.5 -108q0 -64 30 -99t86 -35q40 0 77 19t87 66l52 -52q-106 -106 -220 -106q-91 0 -145 55t-54 148q0 42 11 86.5t34.5 86.5t56 74.5t78.5 51.5t98 18q115 0 182 -97zM409 692l-22 -103h-86
l22 103h86z" />
    <glyph glyph-name="Ccaron" unicode="&#x10c;" horiz-adv-x="667" 
d="M454 726q144 0 238 -118l-65 -54q-74 91 -180 91q-70 2 -128.5 -32t-95 -89.5t-56 -119.5t-18.5 -126q0 -99 50.5 -156t140.5 -57q59 0 109 26q49 26 113 84l57 -57q-128 -134 -278 -134q-134 0 -209.5 79.5t-75.5 205.5q-1 61 13.5 124t46.5 124t77.5 108t113 75
t147.5 26zM657 920l-131 -144h-108l-69 144h69l58 -102l102 102h79z" />
    <glyph glyph-name="ccaron" unicode="&#x10d;" horiz-adv-x="494" 
d="M491 409l-63 -48q-29 41 -56.5 57t-67.5 16q-56 2 -100 -38t-65.5 -95t-20.5 -108q0 -64 30 -99t86 -35q40 0 77 19t87 66l52 -52q-106 -106 -220 -106q-91 0 -145 55t-54 148q0 42 11 86.5t34.5 86.5t56 74.5t78.5 51.5t98 18q115 0 182 -97zM525 716l-131 -144h-108
l-69 144h69l58 -102l102 102h79z" />
    <glyph glyph-name="Dcaron" unicode="&#x10e;" horiz-adv-x="709" 
d="M181 710h220q133 0 208.5 -75t75.5 -200q1 -61 -12.5 -121.5t-44 -118t-73.5 -101t-107 -69.5t-140 -25h-278zM390 633h-134l-118 -556h157q77 -1 136.5 31t93.5 85.5t50.5 114t16.5 122.5q0 99 -51.5 151t-150.5 52zM608 920l-131 -144h-108l-69 144h69l58 -102l102 102
h79z" />
    <glyph glyph-name="dcaron" unicode="&#x10f;" horiz-adv-x="697" 
d="M502 710h86l-151 -710h-78l19 91q-69 -102 -179 -102q-81 0 -125.5 48.5t-44.5 135.5q-1 78 29.5 153t94 127.5t143.5 50.5q111 0 144 -84zM218 61q79 -3 137.5 79t56.5 175q0 55 -27.5 86t-79.5 31q-59 2 -104 -39.5t-66 -97.5t-20 -112q0 -62 25 -92t78 -30zM796 710
l-109 -198h-57l81 198h85z" />
    <glyph glyph-name="Dcroat" unicode="&#x110;" horiz-adv-x="738" 
d="M209 710h220q134 0 209.5 -75.5t75.5 -199.5q1 -61 -12.5 -121.5t-43.5 -118t-73.5 -101t-107.5 -69.5t-141 -25h-278l70 328h-85l17 77h84zM167 77h156q62 -1 113.5 20.5t85 57t56.5 82.5t33 95.5t10 97.5q0 99 -51 151t-152 52h-133l-49 -228h187l-17 -77h-186z" />
    <glyph glyph-name="dslash" unicode="&#x111;" horiz-adv-x="585" 
d="M648 628l-14 -63h-77l-120 -565h-78l19 91q-69 -102 -179 -102q-81 0 -125.5 48.5t-44.5 135.5q-1 78 29.5 153t94 127.5t143.5 50.5q111 0 144 -84l31 145h-127l13 63h128l17 82h86l-17 -82h77zM218 61q79 -3 137.5 79t56.5 175q0 55 -27.5 86t-79.5 31
q-59 2 -104 -39.5t-66 -97.5t-20 -112q0 -62 25 -92t78 -30z" />
    <glyph glyph-name="Emacron" unicode="&#x112;" horiz-adv-x="611" 
d="M653 710l-17 -77h-380l-49 -229h354l-16 -77h-354l-53 -250h389l-16 -77h-481l151 710h472zM584 863l-14 -64h-271l13 64h272z" />
    <glyph glyph-name="emacron" unicode="&#x113;" horiz-adv-x="536" 
d="M483 232h-364q-3 -20 -3 -39q0 -63 31 -99t94 -36q83 0 172 94l56 -48q-104 -118 -232 -118q-96 0 -151 55.5t-55 150.5q0 53 18.5 108t53 102.5t90.5 76.5t122 27q80 0 133 -47q51 -48 51 -124q0 -55 -16 -103zM310 437q-62 0 -107.5 -38.5t-68.5 -103.5h284q2 30 2 35
q0 50 -29 78.5t-81 28.5zM499 659l-14 -64h-271l13 64h272z" />
    <glyph glyph-name="Edotaccent" unicode="&#x116;" horiz-adv-x="611" 
d="M653 710l-17 -77h-380l-49 -229h354l-16 -77h-354l-53 -250h389l-16 -77h-481l151 710h472zM499 896l-22 -103h-86l22 103h86z" />
    <glyph glyph-name="edotaccent" unicode="&#x117;" horiz-adv-x="536" 
d="M483 232h-364q-3 -20 -3 -39q0 -63 31 -99t94 -36q83 0 172 94l56 -48q-104 -118 -232 -118q-96 0 -151 55.5t-55 150.5q0 53 18.5 108t53 102.5t90.5 76.5t122 27q80 0 133 -47q51 -48 51 -124q0 -55 -16 -103zM310 437q-62 0 -107.5 -38.5t-68.5 -103.5h284q2 30 2 35
q0 50 -29 78.5t-81 28.5zM413 692l-22 -103h-86l22 103h86z" />
    <glyph glyph-name="Eogonek" unicode="&#x118;" horiz-adv-x="611" 
d="M636 633h-380l-49 -229h354l-16 -77h-354l-53 -250h389l-16 -77q-100 -61 -100 -115q0 -37 42 -37q14 0 26 3l-12 -54q-13 -5 -34 -5q-39 0 -61.5 20t-22.5 54q0 79 93 134h-412l151 710h472z" />
    <glyph glyph-name="eogonek" unicode="&#x119;" horiz-adv-x="536" 
d="M291 -208q-40 0 -63 20t-23 55q0 65 69 122q-20 -3 -37 -3q-96 0 -151 55.5t-55 150.5q0 53 18.5 108t53 102.5t90.5 76.5t122 27q80 0 133 -47q51 -48 51 -124q0 -55 -16 -103h-364q-3 -20 -3 -39q0 -63 31 -99t94 -36q83 0 172 94l56 -48q-32 -38 -94 -83
q-107 -77 -107 -136q0 -37 44 -37q15 0 27 3l-12 -54q-17 -5 -36 -5zM134 295h284q2 30 2 35q0 50 -29 78.5t-81 28.5q-62 0 -107 -38t-69 -104z" />
    <glyph glyph-name="Ecaron" unicode="&#x11a;" horiz-adv-x="611" 
d="M653 710l-17 -77h-380l-49 -229h354l-16 -77h-354l-53 -250h389l-16 -77h-481l151 710h472zM615 920l-131 -144h-108l-69 144h69l58 -102l102 102h79z" />
    <glyph glyph-name="ecaron" unicode="&#x11b;" horiz-adv-x="536" 
d="M483 232h-364q-3 -20 -3 -39q0 -63 31 -99t94 -36q83 0 172 94l56 -48q-104 -118 -232 -118q-96 0 -151 55.5t-55 150.5q0 53 18.5 108t53 102.5t90.5 76.5t122 27q80 0 133 -47q51 -48 51 -124q0 -55 -16 -103zM310 437q-62 0 -107.5 -38.5t-68.5 -103.5h284q2 30 2 35
q0 50 -29 78.5t-81 28.5zM529 716l-131 -144h-108l-69 144h69l58 -102l102 102h79z" />
    <glyph glyph-name="Gbreve" unicode="&#x11e;" horiz-adv-x="742" 
d="M370 294l16 78h313l-78 -372h-72l12 92q-83 -107 -228 -107q-127 0 -202 80t-75 204q-1 63 14 126.5t48 124t79.5 106.5t115.5 73.5t150 25.5q166 0 276 -135l-68 -54q-52 58 -100.5 83t-114.5 25q-72 2 -132.5 -31.5t-97.5 -88.5t-57 -119.5t-19 -129.5q0 -97 51.5 -153
t147.5 -56q86 0 154.5 55.5t87.5 144.5l6 28h-227zM509 775q-62 0 -97 30t-35 77q0 14 2 24h67q-1 -3 -1 -16q0 -62 67 -62q73 0 86 78h68q-11 -64 -51.5 -97.5t-105.5 -33.5z" />
    <glyph glyph-name="gbreve" unicode="&#x11f;" horiz-adv-x="554" 
d="M457 492h79l-102 -482q-43 -201 -232 -201q-114 0 -215 76l46 59q94 -64 170 -64q60 0 96 33t52 104l15 72q-65 -83 -163 -83q-78 0 -125 49.5t-47 131.5q-2 114 71.5 217t189.5 100q115 0 147 -96zM221 78q55 -2 100 37t67 93t21 105q0 57 -28.5 88t-82.5 31
q-55 2 -98 -36.5t-63.5 -91t-19.5 -103.5q0 -123 104 -123zM355 571q-62 0 -97 30t-35 77q0 14 2 24h67q-1 -3 -1 -16q0 -62 67 -62q73 0 86 78h68q-11 -64 -51.5 -97.5t-105.5 -33.5z" />
    <glyph glyph-name="Gdotaccent" unicode="&#x120;" horiz-adv-x="742" 
d="M370 294l16 78h313l-78 -372h-72l12 92q-83 -107 -228 -107q-127 0 -202 80t-75 204q-1 63 14 126.5t48 124t79.5 106.5t115.5 73.5t150 25.5q166 0 276 -135l-68 -54q-52 58 -100.5 83t-114.5 25q-72 2 -132.5 -31.5t-97.5 -88.5t-57 -119.5t-19 -129.5q0 -97 51.5 -153
t147.5 -56q86 0 154.5 55.5t87.5 144.5l6 28h-227zM564 896l-22 -103h-86l22 103h86z" />
    <glyph glyph-name="gdotaccent" unicode="&#x121;" horiz-adv-x="554" 
d="M457 492h79l-102 -482q-43 -201 -232 -201q-114 0 -215 76l46 59q94 -64 170 -64q60 0 96 33t52 104l15 72q-65 -83 -163 -83q-78 0 -125 49.5t-47 131.5q-2 114 71.5 217t189.5 100q115 0 147 -96zM221 78q55 -2 100 37t67 93t21 105q0 57 -28.5 88t-82.5 31
q-55 2 -98 -36.5t-63.5 -91t-19.5 -103.5q0 -123 104 -123zM410 692l-22 -103h-86l22 103h86z" />
    <glyph glyph-name="Gcommaaccent" unicode="&#x122;" horiz-adv-x="742" 
d="M370 294l16 78h313l-78 -372h-72l12 92q-83 -107 -228 -107q-127 0 -202 80t-75 204q-1 63 14 126.5t48 124t79.5 106.5t115.5 73.5t150 25.5q166 0 276 -135l-68 -54q-52 58 -100.5 83t-114.5 25q-72 2 -132.5 -31.5t-97.5 -88.5t-57 -119.5t-19 -129.5q0 -97 51.5 -153
t147.5 -56q86 0 154.5 55.5t87.5 144.5l6 28h-227zM367 -72l-19 -88l-77 -92h-48l71 92h-47l19 88h101z" />
    <glyph glyph-name="gcommaaccent" unicode="&#x123;" horiz-adv-x="554" 
d="M457 492h79l-102 -482q-43 -201 -232 -201q-114 0 -215 76l46 59q94 -64 170 -64q60 0 96 33t52 104l15 72q-65 -83 -163 -83q-78 0 -125 49.5t-47 131.5q-2 114 71.5 217t189.5 100q115 0 147 -96zM221 78q55 -2 100 37t67 93t21 105q0 57 -28.5 88t-82.5 31
q-55 2 -98 -36.5t-63.5 -91t-19.5 -103.5q0 -123 104 -123zM287 587l19 88l78 100h48l-73 -100h47l-18 -88h-101z" />
    <glyph glyph-name="Hbar" unicode="&#x126;" horiz-adv-x="783" 
d="M825 599l-14 -66h-76l-114 -533h-92l69 330h-381l-70 -330h-92l113 533h-77l14 66h77l24 111h92l-23 -111h381l24 111h92l-23 -111h76zM615 407l27 126h-381l-27 -126h381z" />
    <glyph glyph-name="hbar" unicode="&#x127;" horiz-adv-x="571" 
d="M380 506q71 0 109.5 -35t38.5 -96q0 -27 -4 -44l-70 -331h-86l65 310q6 27 6 48q0 38 -20.5 56t-65.5 18q-57 0 -103 -39q-49 -41 -62 -107l-60 -286h-86l120 565h-77l13 63h77l18 82h86l-18 -82h128l-14 -63h-127l-27 -126q65 67 159 67z" />
    <glyph glyph-name="Imacron" unicode="&#x12a;" horiz-adv-x="274" 
d="M280 710l-151 -710h-92l151 710h92zM402 863l-14 -64h-271l13 64h272z" />
    <glyph glyph-name="imacron" unicode="&#x12b;" horiz-adv-x="224" 
d="M205 492l-104 -492h-86l104 492h86zM334 659l-14 -64h-271l13 64h272z" />
    <glyph glyph-name="Iogonek" unicode="&#x12e;" horiz-adv-x="274" 
d="M280 710l-151 -710q-100 -61 -100 -115q0 -37 42 -37q14 0 26 3l-11 -54q-15 -5 -35 -5q-39 0 -61.5 20t-22.5 54q0 76 94 134h-24l151 710h92z" />
    <glyph glyph-name="iogonek" unicode="&#x12f;" horiz-adv-x="224" 
d="M162 692h86l-22 -103h-86zM15 0l104 492h86l-104 -492q-100 -61 -100 -115q0 -37 42 -37q13 0 27 3l-12 -54q-15 -5 -35 -5q-39 0 -61.5 20t-22.5 54q0 76 94 134h-18z" />
    <glyph glyph-name="Idot" unicode="&#x130;" horiz-adv-x="274" 
d="M280 710l-151 -710h-92l151 710h92zM316 896l-22 -103h-86l22 103h86z" />
    <glyph glyph-name="dotlessi" unicode="&#x131;" horiz-adv-x="224" 
d="M205 492l-104 -492h-86l104 492h86z" />
    <glyph glyph-name="IJ" unicode="&#x132;" horiz-adv-x="740" 
d="M280 710l-151 -710h-92l151 710h92zM759 710l-113 -527q-21 -101 -72.5 -148t-139.5 -47q-100 0 -186 50l39 70q77 -39 141 -39q52 0 83 31.5t47 100.5l108 509h93z" />
    <glyph glyph-name="ij" unicode="&#x133;" horiz-adv-x="443" 
d="M248 692l-22 -103h-86l22 103h86zM472 692l-22 -103h-86l22 103h86zM205 492l-104 -492h-86l104 492h86zM65 -178l25 63q40 -9 62 -9q36 0 53 20.5t29 73.5l110 522h86l-113 -536q-16 -79 -52.5 -114.5t-104.5 -35.5q-53 0 -95 16z" />
    <glyph glyph-name="Kcommaaccent" unicode="&#x136;" horiz-adv-x="659" 
d="M727 710l-328 -277l199 -433h-97l-172 374l-155 -132l-52 -242h-92l151 710h92l-74 -348l406 348h122zM339 -72l-19 -88l-77 -92h-48l71 92h-47l19 88h101z" />
    <glyph glyph-name="kcommaaccent" unicode="&#x137;" horiz-adv-x="494" 
d="M519 492l-212 -190l139 -302h-87l-115 251l-109 -92l-34 -159h-86l151 710h86l-95 -448l257 230h105zM253 -72l-19 -88l-77 -92h-48l71 92h-47l19 88h101z" />
    <glyph glyph-name="Lacute" unicode="&#x139;" horiz-adv-x="533" 
d="M273 710l-135 -632h332l-16 -78h-424l151 710h92zM404 920l-125 -144h-79l101 144h103z" />
    <glyph glyph-name="lacute" unicode="&#x13a;" horiz-adv-x="228" 
d="M255 710l-151 -710h-86l151 710h86zM385 910l-125 -144h-79l101 144h103z" />
    <glyph glyph-name="Lcommaaccent" unicode="&#x13b;" horiz-adv-x="533" 
d="M273 710l-135 -632h332l-16 -78h-424l151 710h92zM282 -72l-19 -88l-77 -92h-48l71 92h-47l19 88h101z" />
    <glyph glyph-name="lcommaaccent" unicode="&#x13c;" horiz-adv-x="228" 
d="M255 710l-151 -710h-86l151 710h86zM96 -72l-19 -88l-77 -92h-48l71 92h-47l19 88h101z" />
    <glyph glyph-name="Lcaron" unicode="&#x13d;" horiz-adv-x="533" 
d="M273 710l-135 -632h332l-16 -78h-424l151 710h92zM488 710l-109 -198h-57l81 198h85z" />
    <glyph glyph-name="lcaron" unicode="&#x13e;" horiz-adv-x="373" 
d="M255 710l-151 -710h-86l151 710h86zM471 710l-109 -198h-57l81 198h85z" />
    <glyph glyph-name="Ldot" unicode="&#x13f;" horiz-adv-x="533" 
d="M273 710l-135 -632h332l-16 -78h-424l151 710h92zM456 425l-23 -108h-102l23 108h102z" />
    <glyph glyph-name="ldot" unicode="&#x140;" horiz-adv-x="396" 
d="M255 710l-151 -710h-86l151 710h86zM382 367l-23 -108h-102l23 108h102z" />
    <glyph glyph-name="Lslash" unicode="&#x141;" horiz-adv-x="566" 
d="M168 78h335l-17 -78h-426l61 291l-94 -47l16 80l95 47l73 339h92l-63 -294l171 85l-17 -79l-171 -86z" />
    <glyph glyph-name="lslash" unicode="&#x142;" horiz-adv-x="342" 
d="M360 496l-17 -75l-100 -53l-78 -368h-86l67 318l-103 -54l15 75l104 54l68 317h86l-57 -267z" />
    <glyph glyph-name="Nacute" unicode="&#x143;" horiz-adv-x="736" 
d="M659 710h90l-151 -710h-100l-142 324q-90 209 -115 275q-22 -136 -54 -280l-68 -319h-89l151 710h100l144 -329q75 -174 111 -269q22 133 54 274zM641 920l-125 -144h-79l101 144h103z" />
    <glyph glyph-name="nacute" unicode="&#x144;" horiz-adv-x="549" 
d="M352 506q71 0 111 -35t40 -94q0 -29 -8 -66l-66 -311h-86l65 310q6 27 6 50q0 74 -87 74q-58 0 -104 -41.5t-61 -114.5l-59 -278h-86l104 492h80l-16 -72q60 86 167 86zM507 716l-125 -144h-79l101 144h103z" />
    <glyph glyph-name="Ncommaaccent" unicode="&#x145;" horiz-adv-x="736" 
d="M659 710h90l-151 -710h-100l-142 324q-90 209 -115 275q-22 -136 -54 -280l-68 -319h-89l151 710h100l144 -329q75 -174 111 -269q22 133 54 274zM350 -72l-19 -88l-77 -92h-48l71 92h-47l19 88h101z" />
    <glyph glyph-name="ncommaaccent" unicode="&#x146;" horiz-adv-x="549" 
d="M352 506q71 0 111 -35t40 -94q0 -29 -8 -66l-66 -311h-86l65 310q6 27 6 50q0 74 -87 74q-58 0 -104 -41.5t-61 -114.5l-59 -278h-86l104 492h80l-16 -72q60 86 167 86zM255 -72l-19 -88l-77 -92h-48l71 92h-47l19 88h101z" />
    <glyph glyph-name="Ncaron" unicode="&#x147;" horiz-adv-x="736" 
d="M659 710h90l-151 -710h-100l-142 324q-90 209 -115 275q-22 -136 -54 -280l-68 -319h-89l151 710h100l144 -329q75 -174 111 -269q22 133 54 274zM663 920l-131 -144h-108l-69 144h69l58 -102l102 102h79z" />
    <glyph glyph-name="ncaron" unicode="&#x148;" horiz-adv-x="549" 
d="M352 506q71 0 111 -35t40 -94q0 -29 -8 -66l-66 -311h-86l65 310q6 27 6 50q0 74 -87 74q-58 0 -104 -41.5t-61 -114.5l-59 -278h-86l104 492h80l-16 -72q60 86 167 86zM529 716l-131 -144h-108l-69 144h69l58 -102l102 102h79z" />
    <glyph glyph-name="Eng" unicode="&#x14a;" horiz-adv-x="736" 
d="M749 710l-151 -710l-10 -45q-18 -80 -55.5 -116t-108.5 -36q-55 0 -112 20l28 69q45 -14 79 -14q36 0 55.5 18.5t28.5 60.5l5 22l-152 345q-92 212 -115 275q-22 -136 -54 -280l-68 -319h-89l151 710h100l144 -329q75 -174 111 -269q22 133 54 274l69 324h90z" />
    <glyph glyph-name="eng" unicode="&#x14b;" horiz-adv-x="547" 
d="M352 506q71 0 111 -35t40 -94q0 -29 -8 -66l-66 -311h-2l-8 -38q-18 -83 -51 -118.5t-99 -35.5q-53 0 -107 19l31 63q42 -11 67 -11q32 0 47.5 18.5t25.5 64.5l25 123h3l47 225q6 27 6 50q0 74 -87 74q-58 0 -104 -41.5t-61 -114.5l-59 -278h-86l104 492h80l-16 -72
q60 86 167 86z" />
    <glyph glyph-name="Omacron" unicode="&#x14c;" horiz-adv-x="749" 
d="M445 726q130 0 205.5 -79t75.5 -214q1 -77 -24.5 -156t-72.5 -146t-122.5 -108t-165.5 -39q-131 0 -207.5 79t-76.5 214q-1 60 14.5 123t48 122t78 105.5t110 73.5t137.5 25zM443 645q-68 2 -125.5 -32t-93 -88.5t-55.5 -118.5t-19 -125q0 -102 51 -159t141 -57
q68 -2 125 32t92.5 88.5t55 118.5t18.5 126q0 102 -50 158.5t-140 56.5zM639 863l-14 -64h-271l13 64h272z" />
    <glyph glyph-name="omacron" unicode="&#x14d;" horiz-adv-x="545" 
d="M308 506q94 0 148 -54.5t54 -152.5q0 -51 -17.5 -105t-50 -102t-87 -77.5t-120.5 -28.5q-96 0 -149.5 55t-53.5 154q-1 50 16.5 103.5t50.5 101.5t88 78t121 28zM304 434q-56 2 -100.5 -37.5t-65.5 -94t-20 -107.5q0 -64 31.5 -100.5t88.5 -36.5q56 -2 100 37.5
t65.5 94.5t20.5 109q0 66 -30.5 100.5t-89.5 34.5zM495 659l-14 -64h-271l13 64h272z" />
    <glyph glyph-name="Ohungarumlaut" unicode="&#x150;" horiz-adv-x="749" 
d="M445 726q130 0 205.5 -79t75.5 -214q1 -77 -24.5 -156t-72.5 -146t-122.5 -108t-165.5 -39q-131 0 -207.5 79t-76.5 214q-1 60 14.5 123t48 122t78 105.5t110 73.5t137.5 25zM443 645q-68 2 -125.5 -32t-93 -88.5t-55.5 -118.5t-19 -125q0 -102 51 -159t141 -57
q68 -2 125 32t92.5 88.5t55 118.5t18.5 126q0 102 -50 158.5t-140 56.5zM566 920l-124 -145h-69l103 145h90zM724 920l-125 -145h-70l105 145h90z" />
    <glyph glyph-name="ohungarumlaut" unicode="&#x151;" horiz-adv-x="545" 
d="M308 506q94 0 148 -54.5t54 -152.5q0 -51 -17.5 -105t-50 -102t-87 -77.5t-120.5 -28.5q-96 0 -149.5 55t-53.5 154q-1 50 16.5 103.5t50.5 101.5t88 78t121 28zM304 434q-56 2 -100.5 -37.5t-65.5 -94t-20 -107.5q0 -64 31.5 -100.5t88.5 -36.5q56 -2 100 37.5
t65.5 94.5t20.5 109q0 66 -30.5 100.5t-89.5 34.5zM422 716l-124 -145h-69l103 145h90zM580 716l-125 -145h-70l105 145h90z" />
    <glyph glyph-name="OE" unicode="&#x152;" horiz-adv-x="1148" 
d="M1174 633h-380l-49 -229h353l-16 -77h-354l-52 -250h389l-17 -77h-481l21 99q-103 -115 -256 -115q-132 0 -205.5 74t-73.5 204q-1 61 16 125.5t52 126t83 109.5t116 76.5t145 26.5q172 0 228 -130l25 114h472zM336 65q73 -2 134.5 33.5t100 93t59.5 123.5t20 129
q0 97 -47.5 149t-139.5 52q-59 2 -111 -21.5t-89 -62.5t-64.5 -89t-40.5 -103t-12 -103q0 -97 49 -149t141 -52z" />
    <glyph glyph-name="oe" unicode="&#x153;" horiz-adv-x="920" 
d="M867 232h-364q-2 -34 -2 -39q0 -63 31 -99t94 -36q85 0 173 93l56 -47q-101 -118 -233 -118q-68 0 -115.5 29t-69.5 81q-72 -110 -202 -110q-96 0 -150 55t-54 154q-1 50 17 103.5t51 101.5t87.5 78t120.5 28q133 0 175 -113q79 113 217 113q82 0 133 -47.5t51 -123.5
q0 -55 -16 -103zM694 437q-62 0 -107 -38.5t-68 -103.5h283q3 16 3 35q0 50 -29 78.5t-82 28.5zM237 58q56 -2 100 37.5t65.5 94.5t20.5 109q0 66 -30.5 100.5t-88.5 34.5q-56 2 -100.5 -37.5t-66 -94t-20.5 -107.5q0 -64 31.5 -100.5t88.5 -36.5z" />
    <glyph glyph-name="Racute" unicode="&#x154;" horiz-adv-x="672" 
d="M667 529q0 -91 -56.5 -159t-164.5 -82l137 -288h-97l-134 285h-169l-61 -285h-92l151 710h283q92 0 147.5 -50t55.5 -131zM199 362h185q97 0 145 43.5t48 117.5q0 53 -34.5 81.5t-97.5 28.5h-189zM583 920l-125 -144h-79l101 144h103z" />
    <glyph glyph-name="racute" unicode="&#x155;" horiz-adv-x="364" 
d="M319 497q39 0 80 -19l-30 -72q-34 14 -63 14q-54 0 -93 -44t-57 -126l-53 -250h-86l104 492h81l-17 -77q52 82 134 82zM438 716l-125 -144h-79l101 144h103z" />
    <glyph glyph-name="Rcommaaccent" unicode="&#x156;" horiz-adv-x="672" 
d="M667 529q0 -91 -56.5 -159t-164.5 -82l137 -288h-97l-134 285h-169l-61 -285h-92l151 710h283q92 0 147.5 -50t55.5 -131zM199 362h185q97 0 145 43.5t48 117.5q0 53 -34.5 81.5t-97.5 28.5h-189zM319 -72l-19 -88l-77 -92h-48l71 92h-47l19 88h101z" />
    <glyph glyph-name="rcommaaccent" unicode="&#x157;" horiz-adv-x="364" 
d="M319 497q39 0 80 -19l-30 -72q-34 14 -63 14q-54 0 -93 -44t-57 -126l-53 -250h-86l104 492h81l-17 -77q52 82 134 82zM95 -72l-19 -88l-77 -92h-48l71 92h-47l19 88h101z" />
    <glyph glyph-name="Rcaron" unicode="&#x158;" horiz-adv-x="672" 
d="M667 529q0 -91 -56.5 -159t-164.5 -82l137 -288h-97l-134 285h-169l-61 -285h-92l151 710h283q92 0 147.5 -50t55.5 -131zM199 362h185q97 0 145 43.5t48 117.5q0 53 -34.5 81.5t-97.5 28.5h-189zM605 920l-131 -144h-108l-69 144h69l58 -102l102 102h79z" />
    <glyph glyph-name="rcaron" unicode="&#x159;" horiz-adv-x="364" 
d="M319 497q39 0 80 -19l-30 -72q-34 14 -63 14q-54 0 -93 -44t-57 -126l-53 -250h-86l104 492h81l-17 -77q52 82 134 82zM460 716l-131 -144h-108l-69 144h69l58 -102l102 102h79z" />
    <glyph glyph-name="Sacute" unicode="&#x15a;" horiz-adv-x="639" 
d="M376 725q146 0 264 -112l-57 -62q-101 95 -212 95q-73 0 -122.5 -37.5t-49.5 -92.5q0 -29 17 -47.5t52 -32.5q31 -13 104 -36q119 -38 164 -79t45 -114q0 -89 -70.5 -156t-191.5 -67q-87 0 -157 29.5t-144 93.5l56 66q75 -61 128 -84q54 -25 120 -25q75 0 122 40t47 99
q-4 50 -36 71.5t-136 54.5q-119 36 -164 74t-45 107q0 86 73 150.5t193 64.5zM564 920l-125 -144h-79l101 144h103z" />
    <glyph glyph-name="sacute" unicode="&#x15b;" horiz-adv-x="477" 
d="M256 506q111 0 199 -82l-50 -56q-75 69 -155 69q-45 0 -75.5 -22t-30.5 -53q4 -29 21.5 -40t88.5 -33q98 -30 131 -56.5t36 -84.5q0 -72 -56 -117t-150 -45q-114 0 -216 93l52 55q89 -78 170 -78q53 0 84.5 23.5t31.5 62.5q0 37 -52 58q-29 10 -73 23q-88 25 -119.5 53
t-31.5 76q0 62 53.5 108t141.5 46zM437 716l-125 -144h-79l101 144h103z" />
    <glyph glyph-name="Scedilla" unicode="&#x15e;" horiz-adv-x="639" 
d="M371 646q-73 0 -122.5 -37.5t-49.5 -92.5q0 -29 17 -47.5t52 -32.5q31 -13 104 -36q119 -38 164 -79t45 -114q0 -89 -70.5 -156t-191.5 -67l-24 1l-36 -52h7q37 0 62.5 -20t25.5 -53q0 -41 -30 -67.5t-83 -26.5q-58 0 -113 35l30 41q49 -26 81 -26q29 0 45 11.5t16 30.5
q0 16 -14.5 25t-38.5 9q-17 0 -29 -3l-22 26l50 75q-113 20 -228 117l56 66q75 -61 128 -84q54 -25 120 -25q75 0 122 40t47 99q-4 50 -36 71.5t-136 54.5q-119 36 -164 74t-45 107q0 86 73 150.5t193 64.5q146 0 264 -112l-57 -62q-101 95 -212 95z" />
    <glyph glyph-name="scedilla" unicode="&#x15f;" horiz-adv-x="475" 
d="M254 289q98 -30 131.5 -56.5t35.5 -84.5q0 -71 -54 -116t-146 -46l-36 -53h7q36 0 62 -20.5t26 -52.5q0 -41 -30 -67.5t-83 -26.5q-58 0 -113 34l30 42q49 -26 81 -26q29 0 45 11.5t16 30.5q0 15 -15 24.5t-38 9.5q-17 0 -29 -3l-22 26l49 74q-89 13 -171 90l51 55
q48 -41 87 -59.5t83 -18.5q54 0 85.5 23.5t31.5 62.5q0 37 -52 58q-32 10 -74 23q-88 25 -119.5 53t-31.5 76q0 62 53.5 108t141.5 46q112 0 200 -82l-51 -56q-75 69 -155 69q-45 0 -75.5 -22t-30.5 -53q4 -29 21.5 -40t88.5 -33z" />
    <glyph glyph-name="Scaron" unicode="&#x160;" horiz-adv-x="639" 
d="M376 725q146 0 264 -112l-57 -62q-101 95 -212 95q-73 0 -122.5 -37.5t-49.5 -92.5q0 -29 17 -47.5t52 -32.5q31 -13 104 -36q119 -38 164 -79t45 -114q0 -89 -70.5 -156t-191.5 -67q-87 0 -157 29.5t-144 93.5l56 66q75 -61 128 -84q54 -25 120 -25q75 0 122 40t47 99
q-4 50 -36 71.5t-136 54.5q-119 36 -164 74t-45 107q0 86 73 150.5t193 64.5zM586 920l-131 -144h-108l-69 144h69l58 -102l102 102h79z" />
    <glyph glyph-name="scaron" unicode="&#x161;" horiz-adv-x="477" 
d="M256 506q111 0 199 -82l-50 -56q-75 69 -155 69q-45 0 -75.5 -22t-30.5 -53q4 -29 21.5 -40t88.5 -33q98 -30 131 -56.5t36 -84.5q0 -72 -56 -117t-150 -45q-114 0 -216 93l52 55q89 -78 170 -78q53 0 84.5 23.5t31.5 62.5q0 37 -52 58q-29 10 -73 23q-88 25 -119.5 53
t-31.5 76q0 62 53.5 108t141.5 46zM459 716l-131 -144h-108l-69 144h69l58 -102l102 102h79z" />
    <glyph glyph-name="uni0162" unicode="&#x162;" horiz-adv-x="595" 
d="M127 710h537l-18 -78h-222l-133 -632h-19l-48 -67h6q37 0 62.5 -20t25.5 -53q0 -41 -29.5 -67.5t-82.5 -26.5q-58 0 -113 34l30 42q49 -26 81 -26q29 0 44.5 11.5t15.5 30.5q0 16 -14.5 25t-38.5 9q-17 0 -29 -3l-22 26l59 85h-21l134 632h-222z" />
    <glyph glyph-name="uni0163" unicode="&#x163;" horiz-adv-x="355" 
d="M233 428l-61 -289q-5 -25 -5 -36q0 -40 48 -40q31 0 70 13l7 -68q-44 -19 -98 -19h-2l-38 -56h6q37 0 62.5 -20t25.5 -53q0 -41 -30 -67.5t-82 -26.5q-58 0 -113 34l30 42q49 -26 81 -26q29 0 44.5 11.5t15.5 30.5q0 16 -14.5 25t-38.5 9q-17 0 -29 -3l-22 26l53 80
q-64 16 -64 90q0 23 6 52l62 291h-92l14 64h92l35 164h86l-35 -164h126l-13 -64h-127z" />
    <glyph glyph-name="Tcaron" unicode="&#x164;" horiz-adv-x="595" 
d="M664 710l-18 -78h-222l-133 -632h-93l134 632h-222l17 78h537zM597 920l-131 -144h-108l-69 144h69l58 -102l102 102h79z" />
    <glyph glyph-name="tcaron" unicode="&#x165;" horiz-adv-x="364" 
d="M234 428l-62 -289q-4 -17 -4 -36q0 -21 11 -30.5t37 -9.5q31 0 69 13l7 -68q-44 -19 -98 -19q-114 0 -114 95q0 23 6 53l62 291h-92l13 64h92l35 164h86l-35 -164h127l-14 -64h-126zM506 773l-109 -198h-57l81 198h85z" />
    <glyph glyph-name="Tbar" unicode="&#x166;" horiz-adv-x="595" 
d="M646 632h-222l-45 -216h129l-15 -66h-128l-74 -350h-93l74 350h-120l15 66h119l46 216h-222l17 78h537z" />
    <glyph glyph-name="tbar" unicode="&#x167;" horiz-adv-x="364" 
d="M370 428h-127l-28 -134h124l-13 -65h-125l-19 -90q-5 -28 -5 -37q0 -21 11 -30t37 -9q35 0 70 13l6 -70q-46 -17 -96 -17q-116 0 -116 95q0 23 6 53l20 92h-90l14 65h90l28 134h-92l14 64h92l35 164h86l-35 -164h126z" />
    <glyph glyph-name="Umacron" unicode="&#x16a;" horiz-adv-x="695" 
d="M714 710l-104 -485q-50 -240 -295 -240q-120 0 -182.5 46.5t-62.5 136.5q0 32 9 74l100 468h92l-102 -476q-5 -32 -5 -50q0 -58 39.5 -88t114.5 -30q164 0 201 165l102 479h93zM604 863l-14 -64h-271l13 64h272z" />
    <glyph glyph-name="umacron" unicode="&#x16b;" horiz-adv-x="541" 
d="M432 492h86l-104 -492h-79l16 74q-29 -42 -72 -65t-91 -23q-71 0 -109 34.5t-38 93.5q0 30 8 67l65 311h86l-64 -304q-7 -35 -7 -57q0 -71 80 -71q59 0 104.5 43.5t62.5 123.5zM481 659l-14 -64h-271l13 64h272z" />
    <glyph glyph-name="Uring" unicode="&#x16e;" horiz-adv-x="688" 
d="M714 710l-104 -485q-50 -240 -295 -240q-120 0 -182.5 46.5t-62.5 136.5q0 32 9 74l100 468h92l-102 -476q-5 -32 -5 -50q0 -58 39.5 -88t114.5 -30q164 0 201 165l102 479h93zM469 937q45 0 71.5 -26t26.5 -68q0 -48 -32.5 -81t-82.5 -33q-44 0 -71 26.5t-27 66.5
q0 48 33.5 81.5t81.5 33.5zM466 894q-27 0 -45.5 -21t-18.5 -51q0 -24 13.5 -37t37.5 -13q29 0 47.5 20.5t18.5 50.5q0 51 -53 51z" />
    <glyph glyph-name="uring" unicode="&#x16f;" horiz-adv-x="541" 
d="M432 492h86l-104 -492h-79l16 74q-29 -42 -72 -65t-91 -23q-71 0 -109 34.5t-38 93.5q0 30 8 67l65 311h86l-64 -304q-7 -35 -7 -57q0 -71 80 -71q59 0 104.5 43.5t62.5 123.5zM353 766q45 0 71.5 -26t26.5 -68q0 -48 -32.5 -81t-82.5 -33q-44 0 -71 26.5t-27 66.5
q0 48 33.5 81.5t81.5 33.5zM350 723q-27 0 -45.5 -21t-18.5 -51q0 -24 13.5 -37t37.5 -13q29 0 47.5 20.5t18.5 50.5q0 51 -53 51z" />
    <glyph glyph-name="Uhungarumlaut" unicode="&#x170;" horiz-adv-x="695" 
d="M714 710l-104 -485q-50 -240 -295 -240q-120 0 -182.5 46.5t-62.5 136.5q0 32 9 74l100 468h92l-102 -476q-5 -32 -5 -50q0 -58 39.5 -88t114.5 -30q164 0 201 165l102 479h93zM531 920l-124 -145h-69l103 145h90zM689 920l-125 -145h-70l105 145h90z" />
    <glyph glyph-name="uhungarumlaut" unicode="&#x171;" horiz-adv-x="541" 
d="M432 492h86l-104 -492h-79l16 74q-29 -42 -72 -65t-91 -23q-71 0 -109 34.5t-38 93.5q0 30 8 67l65 311h86l-64 -304q-7 -35 -7 -57q0 -71 80 -71q59 0 104.5 43.5t62.5 123.5zM408 716l-124 -145h-69l103 145h90zM566 716l-125 -145h-70l105 145h90z" />
    <glyph glyph-name="Uogonek" unicode="&#x172;" horiz-adv-x="695" 
d="M621 710h93l-104 -485q-17 -80 -51.5 -129t-95.5 -83q-120 -64 -120 -128q0 -37 42 -37q14 0 26 3l-12 -54q-13 -5 -34 -5q-40 0 -62 19.5t-22 54.5q0 68 71 121q-30 -2 -37 -2q-120 0 -182.5 46.5t-62.5 136.5q0 32 9 74l100 468h92l-102 -476q-5 -32 -5 -50
q0 -58 39.5 -88t114.5 -30q164 0 201 165z" />
    <glyph glyph-name="uogonek" unicode="&#x173;" horiz-adv-x="541" 
d="M518 492l-104 -492q-100 -61 -100 -115q0 -37 42 -37q14 0 26 3l-11 -54q-15 -5 -35 -5q-39 0 -61.5 20t-22.5 54q0 76 97 134h-14l15 74q-27 -42 -71 -65t-92 -23q-70 0 -108 34.5t-38 93.5q0 30 8 67l65 311h86l-64 -304q-7 -35 -7 -57q0 -71 79 -71q60 0 105.5 43.5
t62.5 123.5l56 265h86z" />
    <glyph glyph-name="Wcircumflex" unicode="&#x174;" horiz-adv-x="943" 
d="M911 710h96l-322 -710h-113l-19 326q-7 172 -9 266q-52 -118 -123 -267l-156 -325h-114l-20 710h90l7 -342q2 -144 2 -160l-1 -114q63 144 126 274l166 342h93l18 -342q8 -188 9 -274l15 37q74 173 102 237zM664 776l-59 101l-102 -101h-79l131 144h108l69 -144h-68z" />
    <glyph glyph-name="wcircumflex" unicode="&#x175;" horiz-adv-x="740" 
d="M674 493h89l-242 -493h-108l-10 159q-10 136 -11 226q-17 -38 -107 -228l-75 -157h-108l-30 493h85l9 -184q6 -133 7 -235q45 99 109 234l91 185h82l13 -185q9 -129 10 -235q56 131 107 234zM513 572l-59 101l-102 -101h-79l131 144h108l69 -144h-68z" />
    <glyph glyph-name="Ycircumflex" unicode="&#x176;" horiz-adv-x="631" 
d="M607 710h108l-339 -407l-64 -303h-92l64 304l-163 406h94l127 -325zM504 776l-59 101l-102 -101h-79l131 144h108l69 -144h-68z" />
    <glyph glyph-name="ycircumflex" unicode="&#x177;" horiz-adv-x="483" 
d="M427 492h89l-311 -564q-37 -68 -73.5 -95t-94.5 -27q-41 0 -77 12l23 65q29 -6 48 -6q34 0 55.5 17t47.5 64l9 15l-76 519h86l22 -169q17 -125 30 -248q57 114 126 241zM386 572l-59 101l-102 -101h-79l131 144h108l69 -144h-68z" />
    <glyph glyph-name="Ydieresis" unicode="&#x178;" horiz-adv-x="631" 
d="M607 710h108l-339 -407l-64 -303h-92l64 304l-163 406h94l127 -325zM398 896l-21 -103h-85l22 103h84zM574 896l-22 -103h-84l22 103h84z" />
    <glyph glyph-name="Zacute" unicode="&#x179;" horiz-adv-x="623" 
d="M680 710l-16 -74l-542 -559h422l-16 -77h-539l16 74l541 559h-404l17 77h521zM588 920l-125 -144h-79l101 144h103z" />
    <glyph glyph-name="zacute" unicode="&#x17a;" horiz-adv-x="478" 
d="M486 492l-13 -63l-361 -358h285l-15 -71h-396l14 64l360 358h-266l14 70h378zM479 716l-125 -144h-79l101 144h103z" />
    <glyph glyph-name="Zdotaccent" unicode="&#x17b;" horiz-adv-x="623" 
d="M680 710l-16 -74l-542 -559h422l-16 -77h-539l16 74l541 559h-404l17 77h521zM494 896l-22 -103h-86l22 103h86z" />
    <glyph glyph-name="zdotaccent" unicode="&#x17c;" horiz-adv-x="478" 
d="M486 492l-13 -63l-361 -358h285l-15 -71h-396l14 64l360 358h-266l14 70h378zM385 692l-22 -103h-86l22 103h86z" />
    <glyph glyph-name="Zcaron" unicode="&#x17d;" horiz-adv-x="623" 
d="M680 710l-16 -74l-542 -559h422l-16 -77h-539l16 74l541 559h-404l17 77h521zM610 920l-131 -144h-108l-69 144h69l58 -102l102 102h79z" />
    <glyph glyph-name="zcaron" unicode="&#x17e;" horiz-adv-x="478" 
d="M486 492l-13 -63l-361 -358h285l-15 -71h-396l14 64l360 358h-266l14 70h378zM501 716l-131 -144h-108l-69 144h69l58 -102l102 102h79z" />
    <glyph glyph-name="florin" unicode="&#x192;" 
d="M366 462h129l-13 -65h-129l-94 -438q-16 -79 -53.5 -116t-105.5 -37q-64 0 -105 15l31 65q40 -10 67 -10q36 0 53.5 19t27.5 65l93 437h-113l14 65h112l18 82q30 151 169 151q58 0 107 -17l-32 -66q-44 12 -68 12q-39 0 -60.5 -21t-32.5 -69z" />
    <glyph glyph-name="Scommaaccent" unicode="&#x218;" horiz-adv-x="639" 
d="M376 725q146 0 264 -112l-57 -62q-101 95 -212 95q-73 0 -122.5 -37.5t-49.5 -92.5q0 -29 17 -47.5t52 -32.5q31 -13 104 -36q119 -38 164 -79t45 -114q0 -89 -70.5 -156t-191.5 -67q-87 0 -157 29.5t-144 93.5l56 66q75 -61 128 -84q54 -25 120 -25q75 0 122 40t47 99
q-4 50 -36 71.5t-136 54.5q-119 36 -164 74t-45 107q0 86 73 150.5t193 64.5zM298 -72l-19 -88l-77 -92h-48l71 92h-47l19 88h101z" />
    <glyph glyph-name="scommaaccent" unicode="&#x219;" horiz-adv-x="477" 
d="M256 506q111 0 199 -82l-50 -56q-75 69 -155 69q-45 0 -75.5 -22t-30.5 -53q4 -29 21.5 -40t88.5 -33q98 -30 131 -56.5t36 -84.5q0 -72 -56 -117t-150 -45q-114 0 -216 93l52 55q89 -78 170 -78q53 0 84.5 23.5t31.5 62.5q0 37 -52 58q-29 10 -73 23q-88 25 -119.5 53
t-31.5 76q0 62 53.5 108t141.5 46zM243 -72l-19 -88l-77 -92h-48l71 92h-47l19 88h101z" />
    <glyph glyph-name="uni021A" unicode="&#x21a;" horiz-adv-x="595" 
d="M664 710l-18 -78h-222l-133 -632h-93l134 632h-222l17 78h537zM282 -72l-19 -88l-77 -92h-48l71 92h-47l19 88h101z" />
    <glyph glyph-name="uni021B" unicode="&#x21b;" horiz-adv-x="355" 
d="M234 428l-62 -289q-4 -17 -4 -36q0 -21 11 -30.5t37 -9.5q31 0 69 13l7 -68q-44 -19 -98 -19q-114 0 -114 95q0 23 6 53l62 291h-92l13 64h92l35 164h86l-35 -164h127l-14 -64h-126zM209 -72l-19 -88l-77 -92h-48l71 92h-47l19 88h101z" />
    <glyph glyph-name="uni0237" unicode="&#x237;" horiz-adv-x="219" 
d="M-159 -178l25 63q41 -9 62 -9q36 0 53 20.5t29 73.5l110 522h86l-113 -536q-16 -79 -52.5 -114.5t-104.5 -35.5q-53 0 -95 16z" />
    <glyph glyph-name="circumflex" unicode="&#x2c6;" horiz-adv-x="467" 
d="M390 572l-59 101l-102 -101h-79l131 144h108l69 -144h-68z" />
    <glyph glyph-name="caron" unicode="&#x2c7;" horiz-adv-x="488" 
d="M498 716l-131 -144h-108l-69 144h69l58 -102l102 102h79z" />
    <glyph glyph-name="breve" unicode="&#x2d8;" horiz-adv-x="490" 
d="M328 571q-62 0 -97 30t-35 77q0 14 2 24h67q-1 -3 -1 -16q0 -62 67 -62q73 0 86 78h68q-11 -64 -51.5 -97.5t-105.5 -33.5z" />
    <glyph glyph-name="dotaccent" unicode="&#x2d9;" horiz-adv-x="280" 
d="M278 692l-22 -103h-86l22 103h86z" />
    <glyph glyph-name="ring" unicode="&#x2da;" horiz-adv-x="426" 
d="M308 766q45 0 71.5 -26t26.5 -68q0 -48 -32.5 -81t-82.5 -33q-44 0 -71 26.5t-27 66.5q0 48 33.5 81.5t81.5 33.5zM305 723q-27 0 -45.5 -21t-18.5 -51q0 -24 13.5 -37t37.5 -13q29 0 47.5 20.5t18.5 50.5q0 51 -53 51z" />
    <glyph glyph-name="ogonek" unicode="&#x2db;" horiz-adv-x="358" 
d="M184 22l25 -22q-100 -61 -100 -115q0 -37 42 -37q13 0 27 3l-12 -54q-13 -5 -35 -5q-39 0 -61.5 20t-22.5 54q0 94 137 156z" />
    <glyph glyph-name="tilde" unicode="&#x2dc;" horiz-adv-x="520" 
d="M286 692q32 0 75 -30q32 -21 48 -21q31 0 42 50h56q-10 -51 -35.5 -80t-59.5 -29q-29 0 -70 27q-39 23 -60 23q-32 0 -46 -49h-56q11 51 39.5 80t66.5 29z" />
    <glyph glyph-name="hungarumlaut" unicode="&#x2dd;" horiz-adv-x="507" 
d="M357 716l-124 -145h-69l103 145h90zM515 716l-125 -145h-70l105 145h90z" />
    <glyph glyph-name="uni0326" unicode="&#x326;" horiz-adv-x="0" 
d="M-164 -72l-19 -88l-77 -92h-48l71 92h-47l19 88h101z" />
    <glyph glyph-name="Delta" unicode="&#x394;" horiz-adv-x="669" 
d="M395 710l258 -710h-636l257 710h121zM138 77h392l-97 274q-78 219 -100 292q-24 -83 -99 -293z" />
    <glyph glyph-name="Omega" unicode="&#x3a9;" horiz-adv-x="781" 
d="M515 78h219v-78h-307v121q90 17 146.5 88t56.5 176q0 115 -67 187.5t-176 72.5q-108 0 -175.5 -72.5t-67.5 -187.5q0 -105 57 -176t146 -88v-121h-300v78h212q-97 34 -153 115.5t-56 191.5q0 150 92 245.5t245 95.5t245 -95.5t92 -245.5q0 -110 -56 -191.5t-153 -115.5z
" />
    <glyph glyph-name="mu" unicode="&#x3bc;" horiz-adv-x="537" 
d="M384 492h86v-492h-78v68q-43 -82 -139 -82q-67 0 -101 34v-203h-86v675h86v-324q0 -108 108 -108q55 0 89.5 35t34.5 97v300z" />
    <glyph glyph-name="pi" unicode="&#x3c0;" horiz-adv-x="604" 
d="M575 73l10 -67q-42 -16 -85 -16q-64 0 -90.5 29.5t-26.5 95.5v311h-187v-426h-86v426h-92v66h539v-66h-88v-296q0 -38 10.5 -52.5t38.5 -14.5q26 0 57 10z" />
    <glyph glyph-name="Wgrave" unicode="&#x1e80;" horiz-adv-x="943" 
d="M911 710h96l-322 -710h-113l-19 326q-7 172 -9 266q-52 -118 -123 -267l-156 -325h-114l-20 710h90l7 -342q2 -144 2 -160l-1 -114q63 144 126 274l166 342h93l18 -342q8 -188 9 -274l15 37q74 173 102 237zM478 920h91l42 -144h-69z" />
    <glyph glyph-name="wgrave" unicode="&#x1e81;" horiz-adv-x="740" 
d="M674 493h89l-242 -493h-108l-10 159q-10 136 -11 226q-17 -38 -107 -228l-75 -157h-108l-30 493h85l9 -184q6 -133 7 -235q45 99 109 234l91 185h82l13 -185q9 -129 10 -235q56 131 107 234zM327 716h91l42 -144h-69z" />
    <glyph glyph-name="Wacute" unicode="&#x1e82;" horiz-adv-x="943" 
d="M911 710h96l-322 -710h-113l-19 326q-7 172 -9 266q-52 -118 -123 -267l-156 -325h-114l-20 710h90l7 -342q2 -144 2 -160l-1 -114q63 144 126 274l166 342h93l18 -342q8 -188 9 -274l15 37q74 173 102 237zM741 920l-125 -144h-79l101 144h103z" />
    <glyph glyph-name="wacute" unicode="&#x1e83;" horiz-adv-x="740" 
d="M674 493h89l-242 -493h-108l-10 159q-10 136 -11 226q-17 -38 -107 -228l-75 -157h-108l-30 493h85l9 -184q6 -133 7 -235q45 99 109 234l91 185h82l13 -185q9 -129 10 -235q56 131 107 234zM590 716l-125 -144h-79l101 144h103z" />
    <glyph glyph-name="Wdieresis" unicode="&#x1e84;" horiz-adv-x="943" 
d="M911 710h96l-322 -710h-113l-19 326q-7 172 -9 266q-52 -118 -123 -267l-156 -325h-114l-20 710h90l7 -342q2 -144 2 -160l-1 -114q63 144 126 274l166 342h93l18 -342q8 -188 9 -274l15 37q74 173 102 237zM558 896l-21 -103h-85l22 103h84zM734 896l-22 -103h-84
l22 103h84z" />
    <glyph glyph-name="wdieresis" unicode="&#x1e85;" horiz-adv-x="740" 
d="M674 493h89l-242 -493h-108l-10 159q-10 136 -11 226q-17 -38 -107 -228l-75 -157h-108l-30 493h85l9 -184q6 -133 7 -235q45 99 109 234l91 185h82l13 -185q9 -129 10 -235q56 131 107 234zM408 692l-21 -103h-85l22 103h84zM584 692l-22 -103h-84l22 103h84z" />
    <glyph glyph-name="Ygrave" unicode="&#x1ef2;" horiz-adv-x="631" 
d="M607 710h108l-339 -407l-64 -303h-92l64 304l-163 406h94l127 -325zM318 920h91l42 -144h-69z" />
    <glyph glyph-name="ygrave" unicode="&#x1ef3;" horiz-adv-x="483" 
d="M427 492h89l-311 -564q-37 -68 -73.5 -95t-94.5 -27q-41 0 -77 12l23 65q29 -6 48 -6q34 0 55.5 17t47.5 64l9 15l-76 519h86l22 -169q17 -125 30 -248q57 114 126 241zM200 716h91l42 -144h-69z" />
    <glyph glyph-name="endash" unicode="&#x2013;" horiz-adv-x="723" 
d="M671 324l-15 -73h-586l14 73h587z" />
    <glyph glyph-name="emdash" unicode="&#x2014;" horiz-adv-x="966" 
d="M903 324l-15 -73h-807l15 73h807z" />
    <glyph glyph-name="quoteleft" unicode="&#x2018;" horiz-adv-x="200" 
d="M90 489l22 102l85 119h51l-79 -119h47l-22 -102h-104z" />
    <glyph glyph-name="quoteright" unicode="&#x2019;" horiz-adv-x="200" 
d="M250 710l-22 -102l-84 -119h-52l79 119h-47l22 102h104z" />
    <glyph glyph-name="quotesinglbase" unicode="&#x201a;" horiz-adv-x="197" 
d="M120 104l-21 -104l-83 -114h-49l73 114h-46l22 104h104z" />
    <glyph glyph-name="quotedblleft" unicode="&#x201c;" horiz-adv-x="381" 
d="M90 489l22 102l85 119h51l-79 -119h47l-22 -102h-104zM271 489l22 102l84 119h52l-79 -119h47l-22 -102h-104z" />
    <glyph glyph-name="quotedblright" unicode="&#x201d;" horiz-adv-x="381" 
d="M250 710l-22 -102l-84 -119h-52l79 119h-47l22 102h104zM431 710l-22 -102l-85 -119h-51l79 119h-47l22 102h104z" />
    <glyph glyph-name="quotedblbase" unicode="&#x201e;" horiz-adv-x="378" 
d="M119 104l-22 -104l-83 -114h-48l73 114h-46l22 104h104zM300 104l-22 -104l-83 -114h-49l73 114h-45l21 104h105z" />
    <glyph glyph-name="dagger" unicode="&#x2020;" 
d="M580 442v-77h-210v-562h-87v562h-210v77h210v268h87v-268h210z" />
    <glyph glyph-name="daggerdbl" unicode="&#x2021;" 
d="M560 415h-210v-230h210v-77h-210v-305h-87v305h-210v77h210v230h-210v77h210v218h87v-218h210v-77z" />
    <glyph glyph-name="bullet" unicode="&#x2022;" horiz-adv-x="500" 
d="M254 475q72 0 124.5 -52t52.5 -124q0 -71 -52.5 -124t-124.5 -53t-124 52.5t-52 124.5q0 73 51.5 124.5t124.5 51.5z" />
    <glyph glyph-name="ellipsis" unicode="&#x2026;" horiz-adv-x="630" 
d="M130 108l-23 -108h-102l23 108h102zM337 108l-23 -108h-102l23 108h102zM544 108l-22 -108h-102l22 108h102z" />
    <glyph glyph-name="perthousand" unicode="&#x2030;" horiz-adv-x="1238" 
d="M733 695l47 -38l-620 -672l-45 39zM261 691q58 0 95.5 -37t37.5 -95q0 -73 -44.5 -130t-123.5 -57q-60 0 -97.5 37t-37.5 99q0 69 46 126t124 57zM255 636q-45 0 -71.5 -38.5t-26.5 -86.5q0 -39 19 -61t54 -22q47 0 73 41q25 40 25 87q0 80 -73 80zM657 308
q59 0 96 -36.5t37 -94.5q0 -73 -44.5 -130t-123.5 -57q-60 0 -97.5 37t-37.5 99q0 69 46 125.5t124 56.5zM1028 308q58 0 95 -36.5t37 -94.5q0 -73 -44.5 -130t-123.5 -57q-60 0 -97.5 37t-37.5 99q0 69 46.5 125.5t124.5 56.5zM651 253q-47 0 -72 -39q-26 -40 -26 -85
q0 -39 19 -61.5t54 -22.5q46 0 72 40t26 89q0 79 -73 79zM1021 253q-47 0 -72 -39q-26 -40 -26 -85q0 -39 19 -61.5t54 -22.5q46 0 72 40t26 89q0 79 -73 79z" />
    <glyph glyph-name="guilsinglleft" unicode="&#x2039;" horiz-adv-x="354" 
d="M339 471l-193 -225l92 -211h-81l-94 218l186 218h90z" />
    <glyph glyph-name="guilsinglright" unicode="&#x203a;" horiz-adv-x="354" 
d="M198 471l95 -218l-186 -218h-90l193 225l-93 211h81z" />
    <glyph glyph-name="fraction" unicode="&#x2044;" horiz-adv-x="227" 
d="M407 695l47 -38l-620 -672l-45 39z" />
    <glyph glyph-name="Euro" unicode="&#x20ac;" horiz-adv-x="610" 
d="M473 620q-132 0 -207 -161h259l-14 -64h-269q-15 -47 -21 -93h271l-14 -63h-262v-4q0 -175 141 -175q39 0 71.5 11t80.5 41l37 -64q-95 -64 -193 -64q-107 0 -165 66t-58 180q0 7 1 9h-79l14 63h69q6 52 19 93h-69l14 64h77q44 110 121 173.5t181 63.5q109 0 184 -72
l-54 -56q-60 52 -135 52z" />
    <glyph glyph-name="uni20B9" unicode="&#x20b9;" 
d="M624 617h-130q38 -41 41 -105h66l-12 -62h-60q-17 -77 -79 -123t-166 -46h-92l236 -281h-108l-232 281l15 68h173q140 0 168 101h-320l13 62h312q-4 45 -35 69t-83 24h-174l16 75h464z" />
    <glyph glyph-name="uni20BA" unicode="&#x20ba;" 
d="M479 299l77 -13l-24 -61q-54 -130 -124.5 -176.5t-209.5 -48.5h-111l55 257l-103 -41l15 66l102 41l22 105l-102 -41l14 66l102 41l39 186h89l-32 -147l181 74l-14 -66l-181 -74l-22 -105l181 74l-14 -66l-181 -73l-47 -221h11q105 0 159 33.5t95 132.5z" />
    <glyph glyph-name="uni20BD" unicode="&#x20bd;" horiz-adv-x="610" 
d="M365 283h-137l-19 -92h215l-14 -62h-214l-27 -129h-89l28 129h-95l14 62h94l19 92h-94l15 67h93l70 330h194q87 0 140 -46.5t53 -127.5q0 -97 -63.5 -160t-182.5 -63zM297 605l-54 -255h111q87 0 130 40.5t43 108.5q0 51 -32 78.5t-90 27.5h-108z" />
    <glyph glyph-name="uni2116" unicode="&#x2116;" horiz-adv-x="1177" 
d="M996 332q-82 0 -133.5 53t-51.5 139q0 87 51.5 139.5t133.5 52.5q81 0 133 -53t52 -139q0 -87 -50.5 -139.5t-134.5 -52.5zM632 386v324h90v-710h-101l-197 323l-21 35q-38 63 -58 96q-39 64 -79 135q4 -76 4 -270v-319h-89v710h101l200 -328q5 -8 18.5 -31t22.5 -37
q79 -132 113 -195q-4 100 -4 267zM996 650q-48 0 -78.5 -34.5t-30.5 -91.5t30.5 -91.5t78.5 -34.5t79 34.5t31 91.5t-31 91.5t-79 34.5zM831 202v68h331v-68h-331z" />
    <glyph glyph-name="uni2117" unicode="&#x2117;" horiz-adv-x="856" 
d="M449 723q153 3 261.5 -105.5t106.5 -262.5q2 -154 -106.5 -262.5t-261.5 -105.5q-153 -3 -261.5 105.5t-106.5 262.5q-2 154 106.5 262.5t261.5 105.5zM449 670q-129 2 -218.5 -90.5t-87.5 -224.5q-2 -132 87.5 -224.5t218.5 -90.5q131 -2 220 90.5t87 224.5
q2 132 -87 224.5t-220 90.5zM317 562h166q59 0 96.5 -36.5t37.5 -92.5q0 -61 -35 -92t-99 -31h-102v-162h-64v414zM468 504h-87v-140h87q85 0 85 70q0 33 -22 51.5t-63 18.5z" />
    <glyph glyph-name="trademark" unicode="&#x2122;" horiz-adv-x="955" 
d="M433 710v-54h-137v-333h-62v333h-137v54h336zM941 710v-387h-59v310l-127 -310h-57l-131 306v-306h-60v387h88l132 -313l125 313h89z" />
    <glyph glyph-name="uni2154" unicode="&#x2154;" horiz-adv-x="1042" 
d="M249 419q-53 -25 -78 -43.5t-36 -44.5h244l-14 -59h-316l6 28q14 60 54.5 100t112.5 72l34 16q64 29 84.5 45.5t20.5 44.5q0 24 -19 37.5t-52 13.5q-56 0 -129 -51l-32 50q80 62 165 62q62 0 99 -28.5t37 -74.5q-2 -32 -9.5 -52t-31 -39.5t-52 -34.5t-88.5 -42zM815 695
l47 -38l-620 -672l-45 39zM1008 408l-12 -58l-152 -106q56 0 88 -29t32 -76q0 -61 -45.5 -105t-123.5 -44q-88 0 -167 52l40 50q69 -41 127 -41q45 0 71.5 22t26.5 58q0 63 -81 63q-38 0 -51 -7l-26 43l170 119h-197l12 59h288z" />
    <glyph glyph-name="oneeighth" unicode="&#x215b;" horiz-adv-x="926" 
d="M253 680h54l-87 -408h-69l67 317l-85 -53l-26 52zM712 695l47 -38l-620 -672l-45 39zM801 218q56 -27 56 -85q0 -62 -46 -100.5t-127 -38.5q-73 0 -113 30t-40 79q0 43 25.5 75t74.5 47q-42 25 -42 78t43 86.5t113 33.5q65 0 100.5 -28t35.5 -72q0 -75 -80 -105zM740 367
q-43 0 -65.5 -19.5t-22.5 -50.5q0 -23 18.5 -38t49.5 -15q42 0 68.5 19.5t26.5 52.5q0 23 -20 37t-55 14zM686 53q47 0 75 22.5t28 58.5q0 27 -21.5 43t-59.5 16q-51 0 -80 -24t-29 -58q0 -26 23 -42t64 -16z" />
    <glyph glyph-name="threeeighths" unicode="&#x215c;" horiz-adv-x="1024" 
d="M433 680l-12 -58l-153 -106q56 0 88.5 -29t32.5 -76q0 -61 -45.5 -105t-123.5 -44q-88 0 -167 52l40 50q69 -41 127 -41q45 0 71.5 22t26.5 58q0 63 -81 63q-38 0 -51 -7l-26 43l170 119h-197l12 59h288zM809 695l47 -38l-620 -672l-45 39zM899 218q56 -27 56 -85
q0 -62 -46 -100.5t-127 -38.5q-73 0 -113 30t-40 79q0 43 25.5 75t74.5 47q-42 25 -42 78t43 86.5t113 33.5q65 0 100.5 -28t35.5 -72q0 -75 -80 -105zM838 367q-43 0 -65.5 -19.5t-22.5 -50.5q0 -23 18.5 -38t49.5 -15q42 0 68.5 19.5t26.5 52.5q0 23 -20 37t-55 14z
M784 53q47 0 75 22.5t28 58.5q0 27 -21.5 43t-59.5 16q-51 0 -80 -24t-29 -58q0 -26 23 -42t64 -16z" />
    <glyph glyph-name="fiveeighths" unicode="&#x215d;" horiz-adv-x="1030" 
d="M425 621h-206l-30 -106q38 23 90 23q56 0 89 -32t33 -80q0 -64 -46.5 -114t-134.5 -50q-86 0 -162 54l39 51q64 -44 124 -44q48 0 78.5 27.5t30.5 68.5q0 28 -19.5 44.5t-54.5 16.5q-48 0 -92 -32l-54 6l64 226h264zM815 695l47 -38l-620 -672l-45 39zM905 218
q56 -27 56 -85q0 -62 -46 -100.5t-127 -38.5q-73 0 -113 30t-40 79q0 43 25.5 75t74.5 47q-42 25 -42 78t43 86.5t113 33.5q65 0 100.5 -28t35.5 -72q0 -75 -80 -105zM844 367q-43 0 -65.5 -19.5t-22.5 -50.5q0 -23 18.5 -38t49.5 -15q42 0 68.5 19.5t26.5 52.5q0 23 -20 37
t-55 14zM790 53q47 0 75 22.5t28 58.5q0 27 -21.5 43t-59.5 16q-51 0 -80 -24t-29 -58q0 -26 23 -42t64 -16z" />
    <glyph glyph-name="seveneighths" unicode="&#x215e;" horiz-adv-x="944" 
d="M117 680h319l-12 -54q-181 -157 -239 -354h-75q24 90 86 184q66 99 143 165h-235zM730 695l47 -38l-620 -672l-45 39zM819 218q56 -27 56 -85q0 -62 -46 -100.5t-127 -38.5q-73 0 -113 30t-40 79q0 43 25.5 75t74.5 47q-42 25 -42 78t43 86.5t113 33.5q65 0 100.5 -28
t35.5 -72q0 -75 -80 -105zM758 367q-43 0 -65.5 -19.5t-22.5 -50.5q0 -23 18.5 -38t49.5 -15q42 0 68.5 19.5t26.5 52.5q0 23 -20 37t-55 14zM704 53q47 0 75 22.5t28 58.5q0 27 -21.5 43t-59.5 16q-51 0 -80 -24t-29 -58q0 -26 23 -42t64 -16z" />
    <glyph glyph-name="arrowleft" unicode="&#x2190;" horiz-adv-x="924" 
d="M910 376v-73h-701l256 -252l-54 -53l-341 341l341 341l54 -53l-255 -251h700z" />
    <glyph glyph-name="arrowup" unicode="&#x2191;" horiz-adv-x="728" 
d="M708 441l-51 -52l-232 235v-624h-80v625l-233 -236l-52 52l325 325z" />
    <glyph glyph-name="arrowright" unicode="&#x2192;" horiz-adv-x="923" 
d="M552 680l341 -341l-341 -341l-53 53l255 252h-701v73h700l-254 251z" />
    <glyph glyph-name="arrowdown" unicode="&#x2193;" horiz-adv-x="728" 
d="M637 321l51 -52l-323 -325l-325 325l52 52l233 -236v625h80v-624z" />
    <glyph glyph-name="uni2196" unicode="&#x2196;" horiz-adv-x="731" 
d="M701 131l-53 -52l-504 505v-363h-74v489h489v-72h-364z" />
    <glyph glyph-name="uni2197" unicode="&#x2197;" horiz-adv-x="731" 
d="M172 710h489v-489h-73v363l-505 -505l-53 52l507 507h-365v72z" />
    <glyph glyph-name="uni2198" unicode="&#x2198;" horiz-adv-x="731" 
d="M588 489h73v-489h-489v72h365l-507 507l53 52l505 -505v363z" />
    <glyph glyph-name="uni2199" unicode="&#x2199;" horiz-adv-x="731" 
d="M701 579l-506 -507h364v-72h-489v489h74v-363l504 505z" />
    <glyph glyph-name="partialdiff" unicode="&#x2202;" horiz-adv-x="555" 
d="M134 646l19 74q181 -24 273.5 -133.5t92.5 -293.5q0 -143 -65 -226t-179 -83q-106 0 -172 73t-66 175q0 101 61 172.5t158 71.5q120 0 178 -96q-39 228 -300 266zM275 59q66 0 108 49.5t42 122.5q0 71 -45 121t-111 50t-105 -49q-40 -49 -40 -122q0 -72 41 -122t110 -50z
" />
    <glyph glyph-name="product" unicode="&#x220f;" horiz-adv-x="716" 
d="M655 710v-820h-93v743h-368v-743h-93v820h554z" />
    <glyph glyph-name="summation" unicode="&#x2211;" horiz-adv-x="597" 
d="M560 710v-77h-379l249 -332l-252 -337h409v-77h-517v72l252 342l-249 337v72h487z" />
    <glyph glyph-name="minus" unicode="&#x2212;" horiz-adv-x="600" 
d="M560 347v-74h-520v74h520z" />
    <glyph glyph-name="radical" unicode="&#x221a;" horiz-adv-x="611" 
d="M541 710h94l-254 -710h-121l-183 492h95l150 -412z" />
    <glyph glyph-name="infinity" unicode="&#x221e;" horiz-adv-x="808" 
d="M590 456q72 0 119 -47.5t47 -118.5q0 -70 -46 -117.5t-114 -47.5q-97 0 -190 108l-4 5q-53 -63 -96 -88t-97 -25q-67 0 -112 47.5t-45 117.5q0 71 47.5 118.5t119.5 47.5q51 0 94 -26.5t90 -83.5l1 -2q95 112 186 112zM212 192q38 0 71 21.5t76 73.5l-2 2l-16 18
q-39 47 -63.5 63.5t-59.5 16.5q-42 0 -68 -27.5t-26 -70.5t25 -70t63 -27zM593 192q40 0 65 26.5t25 70.5q0 43 -26 70.5t-68 27.5q-71 0 -142 -95l4 -5q42 -50 73.5 -72.5t68.5 -22.5z" />
    <glyph glyph-name="integral" unicode="&#x222b;" horiz-adv-x="600" 
d="M320 564v-605q0 -153 -139 -153q-51 0 -96 15l18 65q41 -10 68 -10q35 0 49 19.5t14 64.5v614q0 73 38 112t110 39q49 0 100 -17l-18 -66q-40 12 -68 12q-41 0 -58.5 -21t-17.5 -69z" />
    <glyph glyph-name="approxequal" unicode="&#x2248;" horiz-adv-x="661" 
d="M223 468q41 0 110 -30q66 -26 91 -26q27 0 46 9.5t54 41.5l43 -49q-44 -46 -70 -58q-30 -14 -71 -14q-33 0 -102 28q-68 27 -100 27q-29 0 -50 -10.5t-52 -40.5l-43 49q38 41 71 57t73 16zM223 268q41 0 110 -30q66 -26 91 -26q27 0 46 9.5t54 41.5l43 -49
q-44 -46 -70 -58q-30 -14 -71 -14q-36 0 -101 28q-68 27 -101 27q-29 0 -50 -10.5t-52 -40.5l-43 49q38 41 71 57t73 16z" />
    <glyph glyph-name="notequal" unicode="&#x2260;" horiz-adv-x="600" 
d="M560 373h-202l-46 -126h248v-74h-275l-44 -118h-76l43 118h-168v74h195l46 126h-241v74h268l42 114h77l-42 -114h175v-74z" />
    <glyph glyph-name="lessequal" unicode="&#x2264;" horiz-adv-x="600" 
d="M540 548v-80l-384 -139l384 -139v-80l-480 180v78zM560 74v-74h-520v74h520z" />
    <glyph glyph-name="greaterequal" unicode="&#x2265;" horiz-adv-x="601" 
d="M60 548l480 -180v-78l-480 -180v80l384 139l-384 139v80zM560 74v-74h-520v74h520z" />
    <glyph glyph-name="lozenge" unicode="&#x25ca;" horiz-adv-x="609" 
d="M375 710l216 -356l-216 -354h-103l-217 354l217 356h103zM323 640l-174 -286l174 -284l174 284z" />
    <glyph glyph-name="uni2923" unicode="&#x2923;" horiz-adv-x="631" 
d="M325 670l24 -24q71 -73 116 -127q43 -51 71 -111t28 -131q0 -118 -100 -241q-40 -48 -117 -130l-21 -22l-60 56l18 19q72 75 107 117q38 47 63 97t25 104q0 105 -94 215q-41 47 -116 125l-25 26v-241h-71v363h362v-69h-235z" />
    <glyph glyph-name="uni2924" unicode="&#x2924;" horiz-adv-x="632" 
d="M189 765h363v-363h-71v241l-26 -26q-75 -78 -116 -125q-39 -44 -67 -101q-27 -55 -27 -114q0 -97 89 -201q32 -40 106 -117l18 -19l-59 -56l-19 20q-79 84 -117 131q-46 55 -73 114q-30 61 -30 128q0 123 101 243q40 47 117 127l22 23l24 26h-235v69z" />
    <glyph glyph-name="uni2925" unicode="&#x2925;" horiz-adv-x="632" 
d="M464 291h72v-363h-363v69h235l-25 26l-24 24q-71 73 -116 127q-40 47 -70 112q-29 63 -29 130q0 119 101 241q37 46 116 130l21 22l60 -56l-18 -19q-74 -77 -106 -117q-38 -46 -64 -97q-25 -50 -25 -104q0 -104 94 -214q50 -57 116 -126l25 -26v241z" />
    <glyph glyph-name="uni2926" unicode="&#x2926;" horiz-adv-x="631" 
d="M247 23l-25 -26h236v-69h-363v363h71v-241l25 26q66 69 116 126q40 46 67 101q27 54 27 113q0 98 -89 202q-31 37 -107 118l-16 17l59 56l19 -20q85 -90 118 -130q42 -51 73 -114q29 -63 29 -129q0 -123 -101 -243q-40 -47 -117 -127z" />
    <glyph glyph-name="uniE000" unicode="&#xe000;" horiz-adv-x="1792" 
d="M315 0h-265v230h13q38 -101 105 -159t145 -58q59 0 94.5 37.5t35.5 92.5q0 54 -38 94q-22 22 -48.5 34.5t-86.5 31.5q-59 17 -93 33.5t-62 44.5q-58 58 -58 144q0 78 49 131.5t126 53.5h243v-197h-10q-42 72 -76 106q-77 78 -158 78q-44 0 -78 -25q-36 -26 -36 -84
q0 -54 34 -88q23 -23 53 -36.5t88 -30.5q67 -20 105.5 -38t70.5 -50q50 -48 50 -135q0 -98 -55 -154t-148 -56zM503 710h375q141 2 233.5 -105.5t90.5 -261.5q0 -65 -19.5 -125t-59 -110t-105 -79.5t-149.5 -28.5h-365v13h20q56 0 82.5 23.5t26.5 75.5v486q0 51 -26.5 75
t-82.5 24h-21v13zM1149 13h16q57 0 83.5 24t26.5 75v486q0 52 -26.5 75.5t-83.5 23.5h-17v13h384v-13h-27q-56 0 -82 -23.5t-26 -75.5v-486q0 -55 16.5 -77t58.5 -22h66q37 2 60.5 18t52.5 63t79 150h12v-244h-593v13zM1654 697v13h-55v-13h20v-54h15v54h20zM1742 643v67
h-22l-17 -45l-16 45h-23v-67h15v49l18 -49h11l19 49v-49h15zM862 13q110 0 160 90q50 89 50 226q0 185 -60 276.5t-153 91.5h-65q-23 0 -31 -9.5t-8 -36.5v-554q0 -84 107 -84z" />
    <glyph glyph-name="uniE001" unicode="&#xe001;" horiz-adv-x="1011" 
d="M313 -39q-121 56 -192 169.5t-71 243.5q0 101 43 191q56 121 169 192t244 71q102 0 192 -43q121 -56 192 -169.5t71 -243.5q0 -101 -43 -191q-56 -121 -169 -192t-244 -71q-102 0 -192 43zM692 773q-90 41 -186 41q-126 0 -236 -68t-165 -186q-41 -90 -41 -186
q0 -126 68 -236q67 -109 187 -165q90 -41 186 -41q126 0 236.5 68.5t163.5 185.5q41 90 41 186q0 127 -68 237q-67 108 -186 164zM527 720l8 64l45 -6l-2 -15l-23 2l-1 -9l22 -3l-2 -16l-22 3l-3 -23zM430 723l-1 11l22 3l1 -4q0 -2 6 -2l5 3l-1 5q0 2 -6 2h-2q-21 0 -27 8
l-3 18q6 16 34 16q15 0 21 -9l2 -11l-23 -3v4q-2 2 -6 2q-5 -2 -5 -3v-4q2 -2 7 -2h2q23 -2 27 -8l2 -18q-4 -16 -33 -16q-14 0 -22 8zM621 700l-4 23l-5 2l-6 -20l-22 7l20 62l35 -12q13 -4 16 -16l-7 -21q-4 -3 -10 -5l4 -14l-4 -12zM402 704l-17 16l-4 -1l6 -20l-21 -7
l-21 61l35 12q2 1 8 1q9 0 14 -5l7 -20q-1 -8 -5 -11l12 -8l4 -12zM617 739l7 -3q5 0 6 1l3 8q-1 3 -5 4l-7 3zM376 733l8 3q1 0 4 3l-3 9q-3 1 -6 0l-7 -3zM314 663l-32 57l41 23l8 -14l-21 -12l4 -7l20 11l7 -14l-19 -11l4 -8l22 12l7 -14zM655 700l20 35q4 4 12 4
q9 0 19 -5q19 -10 19 -26l-20 -35q-4 -4 -12 -4t-20 5q-18 10 -18 26zM688 688l15 26q0 3 -5 5t-6 1l-15 -27q0 -3 4 -4q5 -3 7 -1zM276 633l-32 37l-11 -9l-10 12l40 33l10 -12l-11 -9l31 -38zM710 656l43 48l21 -19l-8 -22l2 -2l20 11l21 -19l-43 -48l-16 14l22 25l-1 1
l-23 -10l-7 7l8 23l-2 2l-22 -25zM371 84q-85 40 -135 120q-49 79 -49 170q0 70 30 134q41 86 119 135q79 49 170 49q70 0 134 -30q86 -41 135 -119t49 -171q0 -68 -30 -134q-41 -86 -119 -135q-79 -49 -170 -49q-69 0 -134 30zM634 649q-64 29 -128 29q-88 0 -164 -47.5
t-113 -128.5q-29 -64 -29 -128q0 -86 48 -163q46 -77 129 -114q64 -29 128 -29q88 0 164 47.5t113 128.5q29 66 29 129q0 87 -48 162t-129 114zM232 586l-38 32l-9 -12l-12 11l33 40l12 -10l-9 -12l37 -31zM799 579l9 5l12 -19l-4 -2q-1 -1 1 -6q1 -4 4 -4l4 2q2 2 0 7l-1 2
q-5 12 -5 19q0 3 2 9l15 9q14 0 25 -18q6 -7 6 -19q0 -6 -3 -11l-9 -5l-12 19l4 2q1 1 -1 6q-1 4 -4 4l-4 -2q0 -5 1 -7l1 -2q5 -17 5 -20q0 -2 -2 -8l-16 -9q-14 0 -25 18q-6 12 -6 19q0 5 3 11zM193 525l-56 32l23 41l14 -8l-12 -21l7 -4l11 19l14 -7l-11 -20l8 -5l12 22
l13 -8zM510 516q-12 -23 -29 -23q-16 0 -16 21q0 8 5 21q11 23 28 23t17 -21q0 -8 -5 -21zM827 507l47 25l12 3l6 -21l-33 -14v-2l37 3l5 -16l-32 -18v-1l36 5l6 -18l-12 -4l-53 -6l-7 26l21 12l-1 1l-24 -1zM174 475l-61 23l8 21l46 -17l6 17l15 -5zM652 450
q-11 -23 -28 -23t-17 21q0 8 5 21q11 23 28 23t17 -21q0 -8 -5 -21zM140 425q-2 -7 -10 -7l-5 1q-7 4 -7 11l1 5q3 6 10 6q5 0 6 -1q6 -2 6 -9q0 -5 -1 -6zM849 421l65 5l3 -46l-15 -2l-2 25l-8 -1l1 -23l-16 -1l-1 23l-9 -1l1 -24l-15 -2zM627 264l-15 7q-19 -32 -52 -50.5
t-69 -18.5q-33 0 -59 13q-38 18 -59.5 52.5t-21.5 74.5q0 21 8 47l-15 7q-10 -24 -10 -54q0 -45 24.5 -84t66.5 -58q31 -15 66 -15q42 0 78.5 21t57.5 58zM161 326l-65 -4l-2 20l22 7l-1 1l-21 4l-2 20l66 4l1 -15l-35 -2v-2l24 -4l1 -8l-24 -7v-1l35 2zM853 362l64 -7
l-3 -33q-3 -17 -15 -22l-40 4q-10 7 -10 22v3zM866 338l-1 -7q0 -3 2 -5l29 -3q2 0 2 5l1 7zM170 286l-64 -14l-4 16l52 12l-3 12l12 3zM844 294l61 -20l-13 -44l-15 4l7 24l-8 2l-7 -22l-15 5l7 22l-9 2l-7 -23l-15 4zM178 233l-45 -16q-12 0 -17 15q-1 2 -1 9q0 12 5 14
l44 16q12 0 17 -15l2 -9q0 -9 -5 -14zM164 254l-33 -12q-2 -2 -1 -5q2 -2 3 -2l34 12l1 4q-2 3 -4 3zM826 237l57 -30l-11 -21h-32l-1 -2l25 -13l-10 -18l-57 30l11 21h32l1 2l-25 13zM211 190l-58 -32l-8 15l22 12l-4 6l-21 -12l-8 15l57 31l8 -14l-23 -13l3 -7l24 13z
M240 149l-52 -39l-10 13l13 10v1l-19 -4l-7 11l8 6l20 2l15 24l9 7l8 -11l-12 -18l3 1l14 10zM270 106l-33 -34q-11 -4 -22 7q-8 8 -8 20l14 14l11 -11l-8 -9q-1 -1 -0.5 -3t3.5 -2h2l25 25q0 3 -1 4l-4 1l-10 -9l-11 11l15 15q10 3 20 -7q8 -10 8 -18zM800 118
q-3 -7 -11 -7q-4 0 -5 1q-6 3 -6 11q0 3 1 4q4 7 10 7q4 0 5 -1q7 -3 7 -11q0 -3 -1 -4zM730 108l39 -53l-17 -12l-17 14l-1 -1l8 -20l-16 -12l-39 53l13 9l21 -28l1 1l-9 23l6 4l18 -16l1 1l-20 28zM312 73l-27 -38q-11 -4 -23 4q-10 6 -10 17v3l28 38q8 8 22 -3
q10 -7 10 -17v-4zM290 83l-21 -29q-1 -1 1 -4q3 -2 5 0l21 29q-1 3 -2 4h-4zM653 60l9 -14l8 4l-5 15l13 7l4 -10l17 -53l-23 -11l-32 45l-5 10zM350 63l-25 -46l9 -5l-6 -11l-32 16l6 12l9 -5l25 47zM402 34l-4 -13l-15 5l2 6q0 3 -3 3q-2 2 -4 0l-2 -7q0 -2 3 -4l1 -1
q12 -11 12 -18l-7 -19q-6 -3 -13 -3q-6 0 -8 1q-12 5 -15 16l4 12l15 -5l-2 -6q0 -3 4 -3q2 0 3 1l2 5q0 2 -3 5h-1q-12 9 -12 18l7 20q7 4 12 4q1 0 9 -2q15 -5 15 -15zM629 49l19 -63l-23 -7q-10 -4 -18 4l-14 45q0 8 12 13zM681 19l-7 19l-6 -3l11 -17zM578 34l11 -65
l-30 -5l-2 13l14 2l-3 13l-13 -2l-2 12l13 3l-2 14l-14 -3l-2 13zM483 27l-9 -65l-17 2l-5 32h-1l-4 -31l-16 2l8 65l18 -2l5 -32l1 -1l4 32zM617 31l-4 -1q-3 0 -3 -3l11 -34q3 -3 4 -1l4 1zM512 26v-65h-17v66z" />
    <glyph glyph-name="uniE002" unicode="&#xe002;" 
d="M459 352q38 -19 60.5 -55t22.5 -84q0 -84 -56 -147t-156 -66l-22 -100h-62l21 100h-75l-22 -100h-62l21 100h-111l144 680h111l22 100h62l-21 -100h76l21 100h62l-23 -107q54 -14 84.5 -52.5t30.5 -93.5q0 -63 -34.5 -110.5t-93.5 -64.5zM233 609l-45 -218h166
q74 0 110.5 34.5t36.5 93.5q0 42 -29 66t-82 24h-157zM121 72h176q81 0 120.5 39.5t39.5 102.5q0 51 -29.5 78.5t-85.5 27.5h-170z" />
    <glyph glyph-name="Adieresis.ss02" horiz-adv-x="670" 
d="M510 0l-26 181h-319l-102 -181h-98l408 710h121l107 -710h-91zM209 259h264l-13 93q-2 13 -14 98q-20 145 -25 192q-31 -62 -83 -155q-58 -104 -65 -117l-11 -19zM363 792q-21 0 -35.5 14.5t-14.5 34.5q0 24 18 42t43 18q21 0 35.5 -14t14.5 -34q0 -25 -18 -43t-43 -18z
M541 792q-21 0 -35 14.5t-14 34.5q0 24 18 42t43 18q21 0 35 -14t14 -34q0 -25 -18 -43t-43 -18z" />
    <glyph glyph-name="Cdotaccent.ss02" horiz-adv-x="667" 
d="M454 726q144 0 238 -118l-65 -54q-74 91 -180 91q-70 2 -128.5 -32t-95 -89.5t-56 -119.5t-18.5 -126q0 -99 50.5 -156t140.5 -57q59 0 109 26q49 26 113 84l57 -57q-128 -134 -278 -134q-134 0 -209.5 79.5t-75.5 205.5q-1 61 13.5 124t46.5 124t77.5 108t113 75
t147.5 26zM477 789q-22 0 -36.5 14.5t-14.5 35.5q0 26 18.5 44t44.5 18q22 0 36 -14t14 -35q0 -26 -18 -44.5t-44 -18.5z" />
    <glyph glyph-name="Edieresis.ss02" horiz-adv-x="611" 
d="M653 710l-17 -77h-380l-49 -229h354l-16 -77h-354l-53 -250h389l-16 -77h-481l151 710h472zM346 792q-21 0 -35.5 14.5t-14.5 34.5q0 24 18 42t43 18q21 0 35.5 -14t14.5 -34q0 -25 -18 -43t-43 -18zM524 792q-21 0 -35 14.5t-14 34.5q0 24 18 42t43 18q21 0 35 -14
t14 -34q0 -25 -18 -43t-43 -18z" />
    <glyph glyph-name="Edotaccent.ss02" horiz-adv-x="611" 
d="M653 710l-17 -77h-380l-49 -229h354l-16 -77h-354l-53 -250h389l-16 -77h-481l151 710h472zM434 789q-22 0 -36.5 14.5t-14.5 35.5q0 26 18.5 44t44.5 18q22 0 36 -14t14 -35q0 -26 -18 -44.5t-44 -18.5z" />
    <glyph glyph-name="Gcommaaccent.ss02" horiz-adv-x="742" 
d="M370 294l16 78h313l-78 -372h-72l12 92q-83 -107 -228 -107q-127 0 -202 80t-75 204q-1 63 14 126.5t48 124t79.5 106.5t115.5 73.5t150 25.5q166 0 276 -135l-68 -54q-52 58 -100.5 83t-114.5 25q-72 2 -132.5 -31.5t-97.5 -88.5t-57 -119.5t-19 -129.5q0 -97 51.5 -153
t147.5 -56q86 0 154.5 55.5t87.5 144.5l6 28h-227zM312 -69q26 0 41.5 -15.5t15.5 -44.5q0 -49 -36 -86.5t-89 -37.5l4 36q54 6 70 52q-6 -2 -17 -2q-23 0 -36 12t-13 32q0 23 17.5 38.5t42.5 15.5z" />
    <glyph glyph-name="Gdotaccent.ss02" horiz-adv-x="742" 
d="M370 294l16 78h313l-78 -372h-72l12 92q-83 -107 -228 -107q-127 0 -202 80t-75 204q-1 63 14 126.5t48 124t79.5 106.5t115.5 73.5t150 25.5q166 0 276 -135l-68 -54q-52 58 -100.5 83t-114.5 25q-72 2 -132.5 -31.5t-97.5 -88.5t-57 -119.5t-19 -129.5q0 -97 51.5 -153
t147.5 -56q86 0 154.5 55.5t87.5 144.5l6 28h-227zM499 789q-22 0 -36.5 14.5t-14.5 35.5q0 26 18.5 44t44.5 18q22 0 36 -14t14 -35q0 -26 -18 -44.5t-44 -18.5z" />
    <glyph glyph-name="Idieresis.ss02" horiz-adv-x="274" 
d="M280 710l-151 -710h-92l151 710h92zM163 792q-21 0 -35.5 14.5t-14.5 34.5q0 24 18 42t43 18q21 0 35.5 -14t14.5 -34q0 -25 -18 -43t-43 -18zM341 792q-21 0 -35 14.5t-14 34.5q0 24 18 42t43 18q21 0 35 -14t14 -34q0 -25 -18 -43t-43 -18z" />
    <glyph glyph-name="Idotaccent.ss02" horiz-adv-x="274" 
d="M280 710l-151 -710h-92l151 710h92zM252 789q-22 0 -36.5 14.5t-14.5 35.5q0 26 18.5 44t44.5 18q22 0 36 -14t14 -35q0 -26 -18 -44.5t-44 -18.5z" />
    <glyph glyph-name="K.ss01" horiz-adv-x="659" 
d="M704 666l-301 -242l195 -424h-97l-169 368l-159 -127l-51 -241h-92l151 710h92l-75 -353l454 368z" />
    <glyph glyph-name="Kcommaaccent.ss01" horiz-adv-x="659" 
d="M704 666l-301 -242l195 -424h-97l-169 368l-159 -127l-51 -241h-92l151 710h92l-75 -353l454 368zM339 -72l-19 -88l-77 -92h-48l71 92h-47l19 88h101z" />
    <glyph glyph-name="Kcommaaccent.ss01.ss02" horiz-adv-x="659" 
d="M704 666l-301 -242l195 -424h-97l-169 368l-159 -127l-51 -241h-92l151 710h92l-75 -353l454 368zM284 -69q26 0 41.5 -15.5t15.5 -44.5q0 -49 -36 -86.5t-89 -37.5l4 36q54 6 70 52q-6 -2 -17 -2q-23 0 -36 12t-13 32q0 23 17.5 38.5t42.5 15.5z" />
    <glyph glyph-name="Kcommaaccent.ss02" horiz-adv-x="659" 
d="M727 710l-328 -277l199 -433h-97l-172 374l-155 -132l-52 -242h-92l151 710h92l-74 -348l406 348h122zM284 -69q26 0 41.5 -15.5t15.5 -44.5q0 -49 -36 -86.5t-89 -37.5l4 36q54 6 70 52q-6 -2 -17 -2q-23 0 -36 12t-13 32q0 23 17.5 38.5t42.5 15.5z" />
    <glyph glyph-name="Lcommaaccent.ss02" horiz-adv-x="533" 
d="M273 710l-135 -632h332l-16 -78h-424l151 710h92zM227 -69q25 0 41 -15.5t16 -44.5q0 -49 -36 -86.5t-89 -37.5l4 36q54 6 70 52q-6 -2 -17 -2q-23 0 -36 12t-13 32q0 23 17.5 38.5t42.5 15.5z" />
    <glyph glyph-name="Ldot.ss02" horiz-adv-x="533" 
d="M273 710l-135 -632h332l-16 -78h-424l151 710h92zM395 305q-24 0 -40 16.5t-16 40.5q0 27 20 47.5t49 20.5q23 0 39 -16.5t16 -39.5q0 -28 -20 -48.5t-48 -20.5z" />
    <glyph glyph-name="Ncommaaccent.ss02" horiz-adv-x="736" 
d="M659 710h90l-151 -710h-100l-142 324q-90 209 -115 275q-22 -136 -54 -280l-68 -319h-89l151 710h100l144 -329q75 -174 111 -269q22 133 54 274zM295 -69q25 0 41 -15.5t16 -44.5q0 -49 -36 -86.5t-89 -37.5l4 36q54 6 70 52q-6 -2 -17 -2q-23 0 -36 12t-13 32
q0 23 17.5 38.5t42.5 15.5z" />
    <glyph glyph-name="Odieresis.ss02" horiz-adv-x="749" 
d="M445 726q130 0 205.5 -79t75.5 -214q1 -77 -24.5 -156t-72.5 -146t-122.5 -108t-165.5 -39q-131 0 -207.5 79t-76.5 214q-1 60 14.5 123t48 122t78 105.5t110 73.5t137.5 25zM443 645q-68 2 -125.5 -32t-93 -88.5t-55.5 -118.5t-19 -125q0 -102 51 -159t141 -57
q68 -2 125 32t92.5 88.5t55 118.5t18.5 126q0 102 -50 158.5t-140 56.5zM400 792q-21 0 -35.5 14.5t-14.5 34.5q0 24 18 42t43 18q21 0 35.5 -14t14.5 -34q0 -25 -18 -43t-43 -18zM578 792q-21 0 -35 14.5t-14 34.5q0 24 18 42t43 18q21 0 35 -14t14 -34q0 -25 -18 -43
t-43 -18z" />
    <glyph glyph-name="Rcommaaccent.ss02" horiz-adv-x="672" 
d="M667 529q0 -91 -56.5 -159t-164.5 -82l137 -288h-97l-134 285h-169l-61 -285h-92l151 710h283q92 0 147.5 -50t55.5 -131zM199 362h185q97 0 145 43.5t48 117.5q0 53 -34.5 81.5t-97.5 28.5h-189zM264 -69q26 0 41.5 -15.5t15.5 -44.5q0 -49 -36 -86.5t-89 -37.5l4 36
q54 6 70 52q-6 -2 -17 -2q-23 0 -36 12t-13 32q0 23 17.5 38.5t42.5 15.5z" />
    <glyph glyph-name="Scommaaccent.ss02" horiz-adv-x="639" 
d="M376 725q146 0 264 -112l-57 -62q-101 95 -212 95q-73 0 -122.5 -37.5t-49.5 -92.5q0 -29 17 -47.5t52 -32.5q31 -13 104 -36q119 -38 164 -79t45 -114q0 -89 -70.5 -156t-191.5 -67q-87 0 -157 29.5t-144 93.5l56 66q75 -61 128 -84q54 -25 120 -25q75 0 122 40t47 99
q-4 50 -36 71.5t-136 54.5q-119 36 -164 74t-45 107q0 86 73 150.5t193 64.5zM243 -69q25 0 41 -15.5t16 -44.5q0 -49 -36 -86.5t-89 -37.5l4 36q54 6 70 52q-6 -2 -17 -2q-23 0 -36 12t-13 32q0 23 17.5 38.5t42.5 15.5z" />
    <glyph glyph-name="uni021A.ss02" horiz-adv-x="595" 
d="M664 710l-18 -78h-222l-133 -632h-93l134 632h-222l17 78h537zM228 -69q26 0 41.5 -15.5t15.5 -44.5q0 -49 -36 -86.5t-89 -37.5l4 36q54 6 70 52q-6 -2 -17 -2q-23 0 -36 12t-13 32q0 23 17.5 38.5t42.5 15.5z" />
    <glyph glyph-name="Udieresis.ss02" horiz-adv-x="695" 
d="M714 710l-104 -485q-50 -240 -295 -240q-120 0 -182.5 46.5t-62.5 136.5q0 32 9 74l100 468h92l-102 -476q-5 -32 -5 -50q0 -58 39.5 -88t114.5 -30q164 0 201 165l102 479h93zM365 792q-21 0 -35.5 14.5t-14.5 34.5q0 24 18 42t43 18q21 0 35.5 -14t14.5 -34
q0 -25 -18 -43t-43 -18zM543 792q-21 0 -35 14.5t-14 34.5q0 24 18 42t43 18q21 0 35 -14t14 -34q0 -25 -18 -43t-43 -18z" />
    <glyph glyph-name="Wdieresis.ss02" horiz-adv-x="943" 
d="M911 710h96l-322 -710h-113l-19 326q-7 172 -9 266q-52 -118 -123 -267l-156 -325h-114l-20 710h90l7 -342q2 -144 2 -160l-1 -114q63 144 126 274l166 342h93l18 -342q8 -188 9 -274l15 37q74 173 102 237zM494 792q-21 0 -35.5 14.5t-14.5 34.5q0 24 18 42t43 18
q21 0 35.5 -14t14.5 -34q0 -25 -18 -43t-43 -18zM672 792q-21 0 -35 14.5t-14 34.5q0 24 18 42t43 18q21 0 35 -14t14 -34q0 -25 -18 -43t-43 -18z" />
    <glyph glyph-name="Ydieresis.ss02" horiz-adv-x="631" 
d="M607 710h108l-339 -407l-64 -303h-92l64 304l-163 406h94l127 -325zM334 792q-21 0 -35.5 14.5t-14.5 34.5q0 24 18 42t43 18q21 0 35.5 -14t14.5 -34q0 -25 -18 -43t-43 -18zM512 792q-21 0 -35 14.5t-14 34.5q0 24 18 42t43 18q21 0 35 -14t14 -34q0 -25 -18 -43
t-43 -18z" />
    <glyph glyph-name="Zdotaccent.ss02" horiz-adv-x="623" 
d="M680 710l-16 -74l-542 -559h422l-16 -77h-539l16 74l541 559h-404l17 77h521zM430 789q-22 0 -36.5 14.5t-14.5 35.5q0 26 18.5 44t44.5 18q22 0 36 -14t14 -35q0 -26 -18 -44.5t-44 -18.5z" />
    <glyph glyph-name="adieresis.ss02" horiz-adv-x="563" 
d="M460 492h80l-105 -492h-78l18 86q-64 -97 -173 -97q-81 0 -125.5 48.5t-44.5 135.5q-1 78 29.5 153t94 127.5t143.5 50.5q117 0 144 -93zM221 61q52 -2 96.5 37.5t69 99.5t23.5 120q0 114 -104 114q-58 2 -102.5 -39.5t-65.5 -97.5t-20 -112q0 -122 103 -122zM265 588
q-21 0 -35.5 14.5t-14.5 34.5q0 24 18 42t43 18q21 0 35.5 -14t14.5 -34q0 -25 -18 -43t-43 -18zM443 588q-21 0 -35 14.5t-14 34.5q0 24 18 42t43 18q21 0 35 -14t14 -34q0 -25 -18 -43t-43 -18z" />
    <glyph glyph-name="cdotaccent.ss02" horiz-adv-x="494" 
d="M491 409l-63 -48q-29 41 -56.5 57t-67.5 16q-56 2 -100 -38t-65.5 -95t-20.5 -108q0 -64 30 -99t86 -35q40 0 77 19t87 66l52 -52q-106 -106 -220 -106q-91 0 -145 55t-54 148q0 42 11 86.5t34.5 86.5t56 74.5t78.5 51.5t98 18q115 0 182 -97zM344 585q-22 0 -36.5 14.5
t-14.5 35.5q0 26 18.5 44t44.5 18q22 0 36 -14t14 -35q0 -26 -18 -44.5t-44 -18.5z" />
    <glyph glyph-name="edieresis.ss02" horiz-adv-x="536" 
d="M483 232h-364q-3 -20 -3 -39q0 -63 31 -99t94 -36q83 0 172 94l56 -48q-104 -118 -232 -118q-96 0 -151 55.5t-55 150.5q0 53 18.5 108t53 102.5t90.5 76.5t122 27q80 0 133 -47q51 -48 51 -124q0 -55 -16 -103zM310 437q-62 0 -107.5 -38.5t-68.5 -103.5h284q2 30 2 35
q0 50 -29 78.5t-81 28.5zM260 588q-21 0 -35.5 14.5t-14.5 34.5q0 24 18 42t43 18q21 0 35.5 -14t14.5 -34q0 -25 -18 -43t-43 -18zM438 588q-21 0 -35 14.5t-14 34.5q0 24 18 42t43 18q21 0 35 -14t14 -34q0 -25 -18 -43t-43 -18z" />
    <glyph glyph-name="edotaccent.ss02" horiz-adv-x="536" 
d="M483 232h-364q-3 -20 -3 -39q0 -63 31 -99t94 -36q83 0 172 94l56 -48q-104 -118 -232 -118q-96 0 -151 55.5t-55 150.5q0 53 18.5 108t53 102.5t90.5 76.5t122 27q80 0 133 -47q51 -48 51 -124q0 -55 -16 -103zM310 437q-62 0 -107.5 -38.5t-68.5 -103.5h284q2 30 2 35
q0 50 -29 78.5t-81 28.5zM348 585q-22 0 -36.5 14.5t-14.5 35.5q0 26 18.5 44t44.5 18q22 0 36 -14t14 -35q0 -26 -18 -44.5t-44 -18.5z" />
    <glyph glyph-name="gcommaaccent.ss02" horiz-adv-x="554" 
d="M457 492h79l-102 -482q-43 -201 -232 -201q-114 0 -215 76l46 59q94 -64 170 -64q60 0 96 33t52 104l15 72q-65 -83 -163 -83q-78 0 -125 49.5t-47 131.5q-2 114 71.5 217t189.5 100q115 0 147 -96zM221 78q55 -2 100 37t67 93t21 105q0 57 -28.5 88t-82.5 31
q-55 2 -98 -36.5t-63.5 -91t-19.5 -103.5q0 -123 104 -123zM402 770l-8 -35q-54 -6 -70 -53q8 3 18 3q48 0 48 -43q0 -24 -18 -40t-42 -16q-26 0 -41.5 16t-15.5 44q0 49 38 86.5t91 37.5z" />
    <glyph glyph-name="gdotaccent.ss02" horiz-adv-x="554" 
d="M457 492h79l-102 -482q-43 -201 -232 -201q-114 0 -215 76l46 59q94 -64 170 -64q60 0 96 33t52 104l15 72q-65 -83 -163 -83q-78 0 -125 49.5t-47 131.5q-2 114 71.5 217t189.5 100q115 0 147 -96zM221 78q55 -2 100 37t67 93t21 105q0 57 -28.5 88t-82.5 31
q-55 2 -98 -36.5t-63.5 -91t-19.5 -103.5q0 -123 104 -123zM345 585q-22 0 -36.5 14.5t-14.5 35.5q0 26 18.5 44t44.5 18q22 0 36 -14t14 -35q0 -26 -18 -44.5t-44 -18.5z" />
    <glyph glyph-name="i.ss02" horiz-adv-x="224" 
d="M205 492l-104 -492h-86l104 492h86zM184 585q-22 0 -36.5 14.5t-14.5 35.5q0 26 18.5 44t44.5 18q22 0 36 -14t14 -35q0 -26 -18 -44.5t-44 -18.5z" />
    <glyph glyph-name="idieresis.ss02" horiz-adv-x="224" 
d="M205 492l-104 -492h-86l104 492h86zM95 588q-21 0 -35.5 14.5t-14.5 34.5q0 24 18 42t43 18q21 0 35.5 -14t14.5 -34q0 -25 -18 -43t-43 -18zM273 588q-21 0 -35 14.5t-14 34.5q0 24 18 42t43 18q21 0 35 -14t14 -34q0 -25 -18 -43t-43 -18z" />
    <glyph glyph-name="i.loclTRK" horiz-adv-x="224" 
d="M205 492l-104 -492h-86l104 492h86zM248 692l-22 -103h-86l22 103h86z" />
    <glyph glyph-name="i.loclTRK.ss02" horiz-adv-x="224" 
d="M205 492l-104 -492h-86l104 492h86zM184 585q-22 0 -36.5 14.5t-14.5 35.5q0 26 18.5 44t44.5 18q22 0 36 -14t14 -35q0 -26 -18 -44.5t-44 -18.5z" />
    <glyph glyph-name="ij.ss02" horiz-adv-x="443" 
d="M184 585q-22 0 -36.5 14.5t-14.5 35.5q0 26 18.5 44t44.5 18q22 0 36 -14t14 -35q0 -26 -18 -44.5t-44 -18.5zM408 585q-22 0 -36.5 14.5t-14.5 35.5q0 26 18.5 44t44.5 18q22 0 36 -14t14 -35q0 -26 -18 -44.5t-44 -18.5zM205 492l-104 -492h-86l104 492h86zM65 -178
l25 63q40 -9 62 -9q36 0 53 20.5t29 73.5l110 522h86l-113 -536q-16 -79 -52.5 -114.5t-104.5 -35.5q-53 0 -95 16z" />
    <glyph glyph-name="iogonek.ss02" horiz-adv-x="224" 
d="M195 696q22 0 36.5 -14t14.5 -35q0 -26 -18 -44.5t-44 -18.5q-22 0 -36.5 14.5t-14.5 35.5q0 26 18 44t44 18zM15 0l104 492h86l-104 -492q-100 -61 -100 -115q0 -37 42 -37q13 0 27 3l-12 -54q-15 -5 -35 -5q-39 0 -61.5 20t-22.5 54q0 76 94 134h-18z" />
    <glyph glyph-name="j.calt" horiz-adv-x="217" 
d="M247 692l-22 -103h-84l22 103h84zM-89 -123l25 -2q54 0 68 69l116 548h85l-119 -558q-26 -128 -138 -128q-38 0 -55 4z" />
    <glyph glyph-name="j.calt.ss02" horiz-adv-x="219" 
d="M184 585q-22 0 -36.5 14.5t-14.5 35.5q0 26 18 44t44 18q22 0 36.5 -14t14.5 -35q0 -26 -18 -44.5t-44 -18.5zM-89 -123l25 -2q54 0 68 69l116 548h85l-119 -558q-26 -128 -138 -128q-38 0 -55 4z" />
    <glyph glyph-name="j.ss02" horiz-adv-x="219" 
d="M-159 -178l25 63q41 -9 62 -9q36 0 53 20.5t29 73.5l110 522h86l-113 -536q-16 -79 -52.5 -114.5t-104.5 -35.5q-53 0 -95 16zM184 585q-22 0 -36.5 14.5t-14.5 35.5q0 26 18.5 44t44.5 18q22 0 36 -14t14 -35q0 -26 -18 -44.5t-44 -18.5z" />
    <glyph glyph-name="k.ss01" horiz-adv-x="494" 
d="M504 449l-192 -158l134 -291h-87l-110 239l-117 -96l-31 -143h-86l151 710h86l-97 -459l299 251z" />
    <glyph glyph-name="kcommaaccent.ss01" horiz-adv-x="494" 
d="M504 449l-192 -158l134 -291h-87l-110 239l-117 -96l-31 -143h-86l151 710h86l-97 -459l299 251zM256 -72l-19 -88l-77 -92h-48l71 92h-47l19 88h101z" />
    <glyph glyph-name="kcommaaccent.ss01.ss02" horiz-adv-x="494" 
d="M504 449l-192 -158l134 -291h-87l-110 239l-117 -96l-31 -143h-86l151 710h86l-97 -459l299 251zM201 -69q25 0 41 -15.5t16 -44.5q0 -49 -36 -86.5t-89 -37.5l4 36q54 6 70 52q-6 -2 -17 -2q-23 0 -36 12t-13 32q0 23 17.5 38.5t42.5 15.5z" />
    <glyph glyph-name="kcommaaccent.ss02" horiz-adv-x="494" 
d="M519 492l-212 -190l139 -302h-87l-115 251l-109 -92l-34 -159h-86l151 710h86l-95 -448l257 230h105zM199 -69q25 0 41 -15.5t16 -44.5q0 -49 -36 -86.5t-89 -37.5l4 36q54 6 70 52q-6 -2 -17 -2q-23 0 -36 12t-13 32q0 23 17.5 38.5t42.5 15.5z" />
    <glyph glyph-name="lcommaaccent.ss02" horiz-adv-x="228" 
d="M255 710l-151 -710h-86l151 710h86zM41 -69q25 0 41 -15.5t16 -44.5q0 -49 -36 -86.5t-89 -37.5l4 36q54 6 70 52q-6 -2 -17 -2q-23 0 -36 12t-13 32q0 23 17.5 38.5t42.5 15.5z" />
    <glyph glyph-name="ldot.ss02" horiz-adv-x="414" 
d="M255 710l-151 -710h-86l151 710h86zM318 246q-24 0 -40 16.5t-16 40.5q0 27 20 47.5t49 20.5q23 0 39 -16.5t16 -39.5q0 -28 -20 -48.5t-48 -20.5z" />
    <glyph glyph-name="ncommaaccent.ss02" horiz-adv-x="549" 
d="M352 506q71 0 111 -35t40 -94q0 -29 -8 -66l-66 -311h-86l65 310q6 27 6 50q0 74 -87 74q-58 0 -104 -41.5t-61 -114.5l-59 -278h-86l104 492h80l-16 -72q60 86 167 86zM200 -69q26 0 41.5 -15.5t15.5 -44.5q0 -49 -36 -86.5t-89 -37.5l4 36q54 6 70 52q-6 -2 -17 -2
q-23 0 -36 12t-13 32q0 23 17.5 38.5t42.5 15.5z" />
    <glyph glyph-name="odieresis.ss02" horiz-adv-x="545" 
d="M308 506q94 0 148 -54.5t54 -152.5q0 -51 -17.5 -105t-50 -102t-87 -77.5t-120.5 -28.5q-96 0 -149.5 55t-53.5 154q-1 50 16.5 103.5t50.5 101.5t88 78t121 28zM304 434q-56 2 -100.5 -37.5t-65.5 -94t-20 -107.5q0 -64 31.5 -100.5t88.5 -36.5q56 -2 100 37.5
t65.5 94.5t20.5 109q0 66 -30.5 100.5t-89.5 34.5zM257 588q-21 0 -35.5 14.5t-14.5 34.5q0 24 18 42t43 18q21 0 35.5 -14t14.5 -34q0 -25 -18 -43t-43 -18zM435 588q-21 0 -35 14.5t-14 34.5q0 24 18 42t43 18q21 0 35 -14t14 -34q0 -25 -18 -43t-43 -18z" />
    <glyph glyph-name="rcommaaccent.ss02" horiz-adv-x="364" 
d="M319 497q39 0 80 -19l-30 -72q-34 14 -63 14q-54 0 -93 -44t-57 -126l-53 -250h-86l104 492h81l-17 -77q52 82 134 82zM40 -69q26 0 41.5 -15.5t15.5 -44.5q0 -49 -36 -86.5t-89 -37.5l4 36q54 6 70 52q-6 -2 -17 -2q-23 0 -36 12t-13 32q0 23 17.5 38.5t42.5 15.5z" />
    <glyph glyph-name="scommaaccent.ss02" horiz-adv-x="477" 
d="M256 506q111 0 199 -82l-50 -56q-75 69 -155 69q-45 0 -75.5 -22t-30.5 -53q4 -29 21.5 -40t88.5 -33q98 -30 131 -56.5t36 -84.5q0 -72 -56 -117t-150 -45q-114 0 -216 93l52 55q89 -78 170 -78q53 0 84.5 23.5t31.5 62.5q0 37 -52 58q-29 10 -73 23q-88 25 -119.5 53
t-31.5 76q0 62 53.5 108t141.5 46zM189 -69q25 0 41 -15.5t16 -44.5q0 -49 -36 -86.5t-89 -37.5l4 36q54 6 70 52q-6 -2 -17 -2q-23 0 -36 12t-13 32q0 23 17.5 38.5t42.5 15.5z" />
    <glyph glyph-name="uni021B.ss02" horiz-adv-x="355" 
d="M234 428l-62 -289q-4 -17 -4 -36q0 -21 11 -30.5t37 -9.5q31 0 69 13l7 -68q-44 -19 -98 -19q-114 0 -114 95q0 23 6 53l62 291h-92l13 64h92l35 164h86l-35 -164h127l-14 -64h-126zM154 -69q26 0 41.5 -15.5t15.5 -44.5q0 -49 -36 -86.5t-89 -37.5l4 36q54 6 70 52
q-6 -2 -17 -2q-23 0 -36 12t-13 32q0 23 17.5 38.5t42.5 15.5z" />
    <glyph glyph-name="udieresis.ss02" horiz-adv-x="541" 
d="M432 492h86l-104 -492h-79l16 74q-29 -42 -72 -65t-91 -23q-71 0 -109 34.5t-38 93.5q0 30 8 67l65 311h86l-64 -304q-7 -35 -7 -57q0 -71 80 -71q59 0 104.5 43.5t62.5 123.5zM243 588q-21 0 -35.5 14.5t-14.5 34.5q0 24 18 42t43 18q21 0 35.5 -14t14.5 -34
q0 -25 -18 -43t-43 -18zM421 588q-21 0 -35 14.5t-14 34.5q0 24 18 42t43 18q21 0 35 -14t14 -34q0 -25 -18 -43t-43 -18z" />
    <glyph glyph-name="wdieresis.ss02" horiz-adv-x="740" 
d="M674 493h89l-242 -493h-108l-10 159q-10 136 -11 226q-17 -38 -107 -228l-75 -157h-108l-30 493h85l9 -184q6 -133 7 -235q45 99 109 234l91 185h82l13 -185q9 -129 10 -235q56 131 107 234zM343 588q-21 0 -35.5 14.5t-14.5 34.5q0 24 18 42t43 18q21 0 35.5 -14
t14.5 -34q0 -25 -18 -43t-43 -18zM521 588q-21 0 -35 14.5t-14 34.5q0 24 18 42t43 18q21 0 35 -14t14 -34q0 -25 -18 -43t-43 -18z" />
    <glyph glyph-name="ydieresis.ss02" horiz-adv-x="483" 
d="M427 492h89l-311 -564q-37 -68 -73.5 -95t-94.5 -27q-41 0 -77 12l23 65q29 -6 48 -6q34 0 55.5 17t47.5 64l9 15l-76 519h86l22 -169q17 -125 30 -248q57 114 126 241zM216 588q-21 0 -35.5 14.5t-14.5 34.5q0 24 18 42t43 18q21 0 35.5 -14t14.5 -34q0 -25 -18 -43
t-43 -18zM394 588q-21 0 -35 14.5t-14 34.5q0 24 18 42t43 18q21 0 35 -14t14 -34q0 -25 -18 -43t-43 -18z" />
    <glyph glyph-name="zdotaccent.ss02" horiz-adv-x="478" 
d="M486 492l-13 -63l-361 -358h285l-15 -71h-396l14 64l360 358h-266l14 70h378zM320 585q-22 0 -36.5 14.5t-14.5 35.5q0 26 18.5 44t44.5 18q22 0 36 -14t14 -35q0 -26 -18 -44.5t-44 -18.5z" />
    <glyph glyph-name="f_f_i.liga.ss02" horiz-adv-x="875" 
d="M355 654q-39 0 -59.5 -22t-31.5 -75l-14 -65h102l-14 -64h-102l-90 -428h-86l91 428h-95l13 64h95l17 82q33 151 165 151q53 0 104 -20l-25 -63q-41 12 -70 12zM675 428h-121l-91 -428h-86l91 428h-83l14 64h83l17 82q31 151 165 151q40 0 88 -14l-26 -65q-32 8 -57 8
q-36 0 -56.5 -22.5t-31.5 -74.5l-13 -65h120zM846 696q22 0 36.5 -14t14.5 -35q0 -26 -18 -44.5t-45 -18.5q-22 0 -36 14.5t-14 35.5q0 26 18 44t44 18zM666 0l104 492h86l-104 -492h-86z" />
    <glyph glyph-name="f_f_j.liga.ss02" horiz-adv-x="871" 
d="M355 654q-39 0 -59.5 -22t-31.5 -75l-14 -65h102l-14 -64h-102l-90 -428h-86l91 428h-95l13 64h95l17 82q33 151 165 151q53 0 104 -20l-25 -63q-41 12 -70 12zM675 428h-121l-91 -428h-86l91 428h-83l14 64h83l17 82q31 151 165 151q40 0 88 -14l-26 -65q-32 8 -57 8
q-36 0 -56.5 -22.5t-31.5 -74.5l-13 -65h120zM847 696q22 0 36.5 -14t14.5 -35q0 -26 -18.5 -44.5t-44.5 -18.5q-22 0 -36.5 14.5t-14.5 35.5q0 26 18.5 44t44.5 18zM660 -30l110 522h86l-113 -536q-16 -80 -52 -115t-105 -35q-53 0 -95 16l25 63q40 -9 62 -9q36 0 53 21
t29 73z" />
    <glyph glyph-name="f_j.liga.ss02" horiz-adv-x="553" 
d="M358 428h-122l-90 -428h-86l91 428h-95l13 64h95l17 82q33 151 165 151q41 0 88 -14l-25 -65q-34 8 -58 8q-35 0 -55.5 -22.5t-31.5 -74.5l-14 -65h121zM529 696q22 0 36.5 -14t14.5 -35q0 -26 -18.5 -44.5t-44.5 -18.5q-22 0 -36.5 14.5t-14.5 35.5q0 26 18.5 44
t44.5 18zM342 -30l110 522h86l-113 -536q-16 -80 -52 -115t-104 -35q-54 0 -96 16l25 63q40 -9 63 -9q36 0 52.5 21t28.5 73z" />
    <glyph glyph-name="fi.ss02" horiz-adv-x="557" 
d="M358 428h-122l-90 -428h-86l91 428h-95l13 64h95l17 82q33 151 165 151q41 0 88 -14l-25 -65q-34 8 -58 8q-35 0 -55.5 -22.5t-31.5 -74.5l-14 -65h121zM528 696q22 0 36.5 -14t14.5 -35q0 -26 -18 -44.5t-45 -18.5q-22 0 -36 14.5t-14 35.5q0 26 18 44t44 18zM348 0
l104 492h86l-104 -492h-86z" />
    <glyph glyph-name="zero.case" horiz-adv-x="600" 
d="M388 725q100 0 151 -64.5t51 -178.5q0 -94 -33 -210q-35 -118 -108 -203q-75 -86 -192 -86q-100 0 -150.5 64t-50.5 178q0 97 34 212q35 119 109 203q73 85 189 85zM384 649q-82 0 -136 -74q-53 -74 -79 -174q-26 -102 -26 -176q0 -166 118 -166q82 0 137 76
q53 74 79 176q25 99 25 173q0 165 -118 165z" />
    <glyph glyph-name="one.case" horiz-adv-x="468" 
d="M352 710h67l-151 -710h-88l127 595l-161 -100l-35 62z" />
    <glyph glyph-name="two.case" horiz-adv-x="582" 
d="M305 258q-60 -33 -97 -57q-32 -21 -61 -53q-26 -31 -40 -73h389l-17 -75h-482l9 40q26 127 130 203q47 33 128 80l57 33q82 48 110 67q35 24 54 54q19 29 19 73q0 47 -31 73t-80 26q-59 0 -108 -29.5t-113 -99.5l-61 50q136 154 287 154q88 0 141 -46t53 -118
q0 -66 -28 -112.5t-84 -84.5q-48 -33 -175 -105z" />
    <glyph glyph-name="three.case" horiz-adv-x="585" 
d="M605 710l-17 -73l-265 -220h1q87 0 143 -51t56 -130q2 -96 -71.5 -175.5t-195.5 -77.5q-138 0 -251 92l52 61q105 -77 201 -77q80 0 129 52t49 121q0 59 -37.5 91t-110.5 32q-40 0 -64 -10l-37 53l289 237h-325l17 75h437z" />
    <glyph glyph-name="four.case" 
d="M463 240h102l-15 -73h-102l-36 -167h-86l35 167h-343l17 79l379 464h105l-386 -470h243l35 163h87z" />
    <glyph glyph-name="five.case" horiz-adv-x="597" 
d="M590 635h-319l-64 -220q59 38 135 38q84 0 139.5 -55.5t55.5 -138.5q1 -48 -16 -96t-49.5 -89.5t-86.5 -66.5t-120 -24q-72 0 -130.5 23.5t-124.5 74.5l54 61q57 -45 103.5 -64t102.5 -19q82 0 131.5 59t49.5 136q0 58 -35.5 93t-96.5 35q-76 0 -142 -57l-75 9l110 376
h395z" />
    <glyph glyph-name="six.case" horiz-adv-x="600" 
d="M355 462q90 0 142.5 -54.5t52.5 -135.5q1 -48 -17.5 -98.5t-52.5 -94t-88.5 -70.5t-118.5 -25q-96 0 -155.5 56t-59.5 146q0 122 71 237.5t222 238.5l58 48h124l-1 -1l-129 -103q-132 -105 -196 -200q62 56 148 56zM277 59q84 0 135 64.5t51 140.5q0 60 -35 92.5
t-99 32.5q-85 0 -135 -59.5t-50 -140.5q0 -58 36 -94t97 -36z" />
    <glyph glyph-name="seven.case" horiz-adv-x="542" 
d="M120 710h501l-13 -64q-132 -129 -246 -299q-115 -172 -177 -347h-98q58 168 172 335q118 173 243 301h-398z" />
    <glyph glyph-name="eight.case" horiz-adv-x="599" 
d="M445 376q47 -24 73 -64.5t26 -90.5q1 -92 -68.5 -165.5t-200.5 -72.5q-106 0 -172 54.5t-66 133.5q0 72 42 135q41 62 132 86q-72 46 -72 126q0 37 14.5 72.5t42.5 66.5t76 49.5t108 18.5q86 0 143.5 -46.5t57.5 -118.5q0 -62 -35 -112t-101 -72zM373 653
q-68 0 -109.5 -37t-41.5 -96q0 -45 33.5 -74.5t86.5 -29.5q73 0 114.5 39.5t41.5 99.5q0 45 -33 71.5t-92 26.5zM281 58q84 0 130.5 48t46.5 116q0 55 -40.5 89.5t-108.5 34.5q-91 0 -138 -49t-47 -116q0 -55 42 -89t115 -34z" />
    <glyph glyph-name="nine.case" horiz-adv-x="600" 
d="M375 726q96 0 155.5 -56t59.5 -146q0 -122 -71 -237.5t-222 -238.5l-58 -48h-124l1 1l129 103q129 102 195 199q-61 -55 -147 -55q-90 0 -142.5 54.5t-52.5 135.5q-1 65 30 130.5t97 112.5t150 45zM185 446q0 -60 35 -92.5t99 -32.5q85 0 135 59.5t50 140.5q0 58 -36 94
t-97 36q-84 0 -135 -64.5t-51 -140.5z" />
    <glyph glyph-name="zero.tf" 
d="M373 696q102 0 154.5 -63t52.5 -173q0 -89 -32 -202q-32 -111 -105 -192q-73 -82 -190 -82q-102 0 -154 63t-52 173q0 90 33 203q33 110 107 192q73 81 186 81zM371 620q-79 0 -132 -68q-53 -69 -78 -163q-26 -96 -26 -170q0 -159 122 -159q79 0 131 70q54 71 79 164
t25 167q0 159 -121 159z" />
    <glyph glyph-name="one.tf" 
d="M333 69h166l-15 -69h-429l14 69h176l105 496l-170 -106l-36 62l252 159h67z" />
    <glyph glyph-name="two.tf" 
d="M307 247q-69 -38 -96 -55q-35 -22 -60 -49q-28 -29 -41 -68h389l-16 -75h-482l8 39q27 123 131 197q58 40 125 76l47 26q76 42 114 66q37 24 57 53t20 70q0 43 -32 68t-82 25q-58 0 -106 -28t-112 -95l-61 50q70 78 136.5 113.5t145.5 35.5q88 0 143.5 -46t55.5 -119
q0 -60 -28 -103.5t-85 -81.5q-56 -36 -171 -99z" />
    <glyph glyph-name="three.tf" 
d="M594 680l-16 -73l-261 -206h8q84 0 138.5 -48.5t54.5 -125.5q1 -43 -16 -86t-48.5 -79t-83.5 -57.5t-115 -20.5q-137 0 -254 90l52 61q59 -40 104.5 -57.5t97.5 -17.5q82 0 128.5 48.5t46.5 113.5q0 55 -37 86t-107 31q-48 0 -78 -13l-29 53l287 226h-324l16 75h436z" />
    <glyph glyph-name="four.tf" 
d="M468 232h102l-14 -73h-103l-34 -159h-86l33 159h-343l17 80l375 441h102l-381 -448h245l33 155h87z" />
    <glyph glyph-name="five.tf" 
d="M582 605h-321l-62 -210q59 39 138 39q85 0 140.5 -53.5t55.5 -133.5q1 -102 -70.5 -183.5t-200.5 -79.5q-70 0 -129.5 22.5t-125.5 71.5l54 61q59 -43 105 -61t101 -18q82 0 130.5 54t48.5 128q0 55 -35.5 87.5t-97.5 32.5q-77 0 -141 -51l-75 8l106 361h396z" />
    <glyph glyph-name="six.tf" 
d="M350 444q87 0 140.5 -53.5t53.5 -132.5q0 -46 -17.5 -94t-49.5 -89t-85.5 -66t-117.5 -24q-97 0 -158 56t-61 144q0 116 69 224t218 225l58 46h126v-1l-129 -100q-122 -93 -185 -179q56 44 138 44zM278 60q84 0 131.5 58.5t47.5 131.5q0 57 -35.5 89.5t-96.5 32.5
q-88 0 -136.5 -54.5t-48.5 -130.5q0 -57 37.5 -92t100.5 -35z" />
    <glyph glyph-name="seven.tf" 
d="M137 680h486l-13 -64q-129 -114 -242 -282q-113 -166 -164 -334h-99q43 153 154 320q111 166 237 286h-375z" />
    <glyph glyph-name="eight.tf" 
d="M445 361q98 -51 98 -150q0 -90 -68.5 -158.5t-200.5 -68.5q-106 0 -172 52.5t-66 130.5q0 67 41 128q41 59 130 83q-71 43 -71 121q0 76 62.5 136.5t177.5 60.5q86 0 143.5 -45.5t57.5 -114.5q0 -57 -34 -105t-98 -70zM368 625q-67 0 -108 -34.5t-41 -90.5
q0 -43 33.5 -71t86.5 -28q73 0 114 37t41 93q0 43 -33.5 68.5t-92.5 25.5zM282 58q84 0 129.5 45t45.5 110q0 52 -41 85t-109 33q-91 0 -138 -45.5t-47 -109.5q0 -52 43 -85t117 -33z" />
    <glyph glyph-name="nine.tf" 
d="M358 695q97 0 158 -56t61 -144q0 -116 -69 -224t-218 -225l-58 -46h-126v1l129 100q119 91 185 178q-55 -43 -138 -43q-87 0 -140.5 54t-53.5 132q0 46 17.5 94t49.5 89t85.5 66t117.5 24zM175 430q0 -57 35.5 -89.5t96.5 -32.5q88 0 136.5 54.5t48.5 130.5
q0 57 -37.5 92t-100.5 35q-84 0 -131.5 -58.5t-47.5 -131.5z" />
    <glyph glyph-name="zero.zero" 
d="M375 696q102 0 154.5 -63t52.5 -173q0 -89 -32 -202q-32 -111 -105 -192q-73 -82 -190 -82q-102 0 -154 63t-52 173q0 90 33 203q33 110 107 192q73 81 186 81zM373 620q-79 0 -132 -68q-53 -69 -78 -163q-26 -96 -26 -170q0 -32 4 -51l323 410q-32 42 -91 42zM259 60
q79 0 131 70q54 71 79 164t25 167q0 23 -5 55l-324 -412q32 -44 94 -44z" />
    <glyph glyph-name="zero.dnom" horiz-adv-x="404" 
d="M226 418q64 0 99 -40.5t35 -107.5q1 -64 -20.5 -127t-70 -109t-114.5 -44q-65 0 -100 40t-35 108q-1 63 21 126t71 109.5t114 44.5zM221 357q-40 2 -71.5 -34.5t-46 -86t-13.5 -95.5q0 -43 17.5 -66.5t50.5 -23.5q61 -2 97 68.5t35 146.5q0 91 -69 91z" />
    <glyph glyph-name="one.dnom" horiz-adv-x="325" 
d="M193 408h54l-87 -408h-69l67 317l-85 -53l-26 52z" />
    <glyph glyph-name="two.dnom" horiz-adv-x="408" 
d="M189 147q-53 -25 -78 -43.5t-36 -44.5h244l-14 -59h-316l6 28q14 60 54.5 100t112.5 72l34 16q64 29 84.5 45.5t20.5 44.5q0 51 -71 51q-53 0 -129 -51l-32 50q80 62 165 62q62 0 99 -28.5t37 -74.5q-2 -32 -9.5 -52t-31 -39.5t-52 -34.5t-88.5 -42z" />
    <glyph glyph-name="three.dnom" horiz-adv-x="407" 
d="M373 408l-12 -58l-152 -106q56 0 88 -29t32 -76q0 -61 -45.5 -105t-123.5 -44q-88 0 -167 52l40 50q69 -41 127 -41q45 0 71.5 22t26.5 58q0 63 -81 63q-38 0 -51 -7l-26 43l170 119h-197l12 59h288z" />
    <glyph glyph-name="four.dnom" horiz-adv-x="399" 
d="M291 149h56l-12 -57h-56l-19 -92h-70l20 92h-208l14 65l214 251h82l-221 -259h132l17 86h70z" />
    <glyph glyph-name="five.dnom" horiz-adv-x="408" 
d="M365 349h-206l-30 -106q38 23 90 23q56 0 89 -32t33 -80q0 -64 -46.5 -114t-134.5 -50q-86 0 -162 54l39 51q64 -44 124 -44q48 0 78.5 27.5t30.5 68.5q0 28 -19.5 44.5t-54.5 16.5q-48 0 -92 -32l-54 6l64 226h264z" />
    <glyph glyph-name="six.dnom" horiz-adv-x="402" 
d="M220 273q56 0 90 -32.5t34 -83.5q0 -66 -46 -116.5t-130 -50.5q-70 0 -109 36t-39 98q0 73 53.5 147t154.5 137h102v-1q-140 -83 -195 -156q35 22 85 22zM167 51q50 0 79 27t29 72q0 30 -21 48t-58 18q-50 0 -79.5 -28t-29.5 -71q0 -30 22 -48t58 -18z" />
    <glyph glyph-name="seven.dnom" horiz-adv-x="379" 
d="M57 408h319l-12 -54q-181 -157 -239 -354h-75q24 90 86 184q66 99 143 165h-235z" />
    <glyph glyph-name="eight.dnom" horiz-adv-x="405" 
d="M280 218q56 -27 56 -85q0 -62 -46 -100.5t-127 -38.5q-73 0 -113 30t-40 79q0 43 25.5 75t74.5 47q-42 25 -42 78t43 86.5t113 33.5q65 0 100.5 -28t35.5 -72q0 -75 -80 -105zM219 367q-43 0 -65.5 -19.5t-22.5 -50.5q0 -23 18.5 -38t49.5 -15q42 0 68.5 19.5t26.5 52.5
q0 23 -20 37t-55 14zM165 53q47 0 75 22.5t28 58.5q0 27 -21.5 43t-59.5 16q-51 0 -80 -24t-29 -58q0 -26 23 -42t64 -16z" />
    <glyph glyph-name="nine.dnom" horiz-adv-x="404" 
d="M217 418q69 0 106.5 -35t37.5 -98q0 -74 -53.5 -148.5t-154.5 -136.5h-102v1q139 79 195 156q-35 -23 -85 -23q-56 0 -91 32.5t-35 82.5q0 66 47.5 117.5t134.5 51.5zM104 256q0 -29 21.5 -46.5t57.5 -17.5q52 0 81.5 28t29.5 72q0 30 -21 47.5t-59 17.5q-50 0 -80 -28
t-30 -73z" />
    <glyph glyph-name="zero.numr" horiz-adv-x="404" 
d="M286 690q64 0 99 -40.5t35 -107.5q1 -64 -20.5 -127t-70 -109t-114.5 -44q-65 0 -100 40t-35 108q-1 63 21 126t71 109.5t114 44.5zM281 629q-40 2 -71.5 -34.5t-46 -86t-13.5 -95.5q0 -43 17.5 -66.5t50.5 -23.5q61 -2 97 68.5t35 146.5q0 91 -69 91z" />
    <glyph glyph-name="one.numr" horiz-adv-x="325" 
d="M253 680h54l-87 -408h-69l67 317l-85 -53l-26 52z" />
    <glyph glyph-name="two.numr" horiz-adv-x="408" 
d="M249 419q-53 -25 -78 -43.5t-36 -44.5h244l-14 -59h-316l6 28q14 60 54.5 100t112.5 72l34 16q64 29 84.5 45.5t20.5 44.5q0 24 -19 37.5t-52 13.5q-56 0 -129 -51l-32 50q80 62 165 62q62 0 99 -28.5t37 -74.5q-2 -32 -9.5 -52t-31 -39.5t-52 -34.5t-88.5 -42z" />
    <glyph glyph-name="three.numr" horiz-adv-x="407" 
d="M433 680l-12 -58l-153 -106q56 0 88.5 -29t32.5 -76q0 -61 -45.5 -105t-123.5 -44q-88 0 -167 52l40 50q69 -41 127 -41q45 0 71.5 22t26.5 58q0 63 -81 63q-38 0 -51 -7l-26 43l170 119h-197l12 59h288z" />
    <glyph glyph-name="four.numr" horiz-adv-x="399" 
d="M351 421h56l-12 -57h-56l-19 -92h-70l20 92h-208l14 65l214 251h82l-222 -259h132l18 86h70z" />
    <glyph glyph-name="five.numr" horiz-adv-x="408" 
d="M425 621h-206l-30 -106q38 23 90 23q56 0 89 -32t33 -80q0 -64 -46.5 -114t-134.5 -50q-86 0 -162 54l39 51q64 -44 124 -44q48 0 78.5 27.5t30.5 68.5q0 28 -19.5 44.5t-54.5 16.5q-48 0 -92 -32l-54 6l64 226h264z" />
    <glyph glyph-name="six.numr" horiz-adv-x="402" 
d="M279 545q56 0 90 -32.5t34 -83.5q0 -66 -46 -116.5t-130 -50.5q-70 0 -109 36t-39 98q0 73 53.5 147t154.5 137h102v-1q-139 -83 -195 -156q35 22 85 22zM226 323q50 0 79 27t29 72q0 30 -21 48t-58 18q-50 0 -79.5 -28t-29.5 -71q0 -30 22 -48t58 -18z" />
    <glyph glyph-name="seven.numr" horiz-adv-x="379" 
d="M117 680h319l-12 -54q-181 -157 -239 -354h-75q24 90 86 184q66 99 143 165h-235z" />
    <glyph glyph-name="eight.numr" horiz-adv-x="405" 
d="M341 490q55 -27 55 -85q0 -62 -46 -100.5t-127 -38.5q-73 0 -113 30t-40 79q0 43 25 75t74 47q-41 27 -41 78q0 53 43 86.5t113 33.5q65 0 100.5 -28t35.5 -72q0 -76 -79 -105zM279 639q-43 0 -65.5 -19.5t-22.5 -50.5q0 -23 18.5 -38t49.5 -15q42 0 68.5 19.5t26.5 52.5
q0 23 -20 37t-55 14zM225 325q47 0 75 22.5t28 58.5q0 27 -21.5 43t-59.5 16q-51 0 -80 -24t-29 -58q0 -26 23 -42t64 -16z" />
    <glyph glyph-name="nine.numr" horiz-adv-x="404" 
d="M277 690q69 0 106.5 -35t37.5 -98q0 -74 -53.5 -148.5t-154.5 -136.5h-102v1q139 79 195 156q-35 -23 -85 -23q-56 0 -91 32.5t-35 82.5q0 66 47.5 117.5t134.5 51.5zM164 528q0 -29 21.5 -46.5t57.5 -17.5q52 0 81.5 28t29.5 72q0 30 -21 47.5t-59 17.5q-50 0 -80 -28
t-30 -73z" />
    <glyph glyph-name="exclamdown.case" horiz-adv-x="265" 
d="M162 602l23 108h102l-23 -108h-102zM38 0l46 214l83 295h53l-44 -296l-45 -213h-93z" />
    <glyph glyph-name="questiondown.case" horiz-adv-x="485" 
d="M298 602l23 108h102l-23 -108h-102zM190 -16q-82 0 -133.5 40.5t-51.5 110.5q0 85 71 145q25 22 105 83q51 39 72 61q20 21 34 61l9 29h73l-8 -36q-16 -63 -35.5 -91t-89.5 -80l-21 -15q-53 -40 -74 -58.5t-33 -39.5q-13 -22 -13 -50q0 -37 28.5 -58.5t78.5 -21.5
q92 0 195 82l44 -63q-123 -99 -251 -99z" />
    <glyph glyph-name="periodcentered.ss02" horiz-adv-x="238" 
d="M120 250q-24 0 -40 16.5t-16 40.5q0 27 20 47.5t49 20.5q23 0 39 -16.5t16 -39.5q0 -28 -20 -48.5t-48 -20.5z" />
    <glyph glyph-name="exclamdown.case.ss02" horiz-adv-x="265" 
d="M227 719q24 0 40 -16.5t16 -40.5q0 -27 -20 -47.5t-49 -20.5q-23 0 -39 16.5t-16 39.5q0 28 20 48.5t48 20.5zM38 0l46 214l84 295h52l-43 -296l-45 -213h-94z" />
    <glyph glyph-name="questiondown.case.ss02" horiz-adv-x="485" 
d="M350 726q24 0 40.5 -16.5t16.5 -40.5q0 -27 -20 -47.5t-49 -20.5q-23 0 -39.5 16.5t-16.5 39.5q0 28 20 48.5t48 20.5zM179 -9q-82 0 -133.5 40.5t-51.5 110.5q0 85 71 145q25 22 105 83q51 39 72 61t33 61l9 29h73l-7 -35q-15 -64 -35 -91.5t-90 -80.5l-21 -15
q-53 -40 -74 -58.5t-33 -39.5q-13 -22 -13 -50q0 -37 28.5 -58.5t78.5 -21.5q91 0 195 83l44 -64q-123 -99 -251 -99z" />
    <glyph glyph-name="colon.ss02" horiz-adv-x="258" 
d="M163 373q-25 0 -41 16.5t-16 40.5q0 27 20 47.5t49 20.5q23 0 39 -16.5t16 -39.5q0 -28 -19.5 -48.5t-47.5 -20.5zM83 -9q-24 0 -40 16.5t-16 40.5q0 27 20 47.5t49 20.5q23 0 39 -16.5t16 -39.5q0 -28 -20 -48.5t-48 -20.5z" />
    <glyph glyph-name="comma.ss02" horiz-adv-x="218" 
d="M76 115q29 0 46.5 -20t17.5 -56q0 -65 -46.5 -116t-108.5 -54l8 42q29 6 53.5 28.5t33.5 54.5q-14 -2 -17 -2q-25 0 -41 15t-16 39q0 28 20.5 48.5t49.5 20.5z" />
    <glyph glyph-name="ellipsis.ss02" horiz-adv-x="664" 
d="M72 -9q-24 0 -40 16.5t-16 40.5q0 27 20 47.5t49 20.5q23 0 39 -16.5t16 -39.5q0 -28 -20 -48.5t-48 -20.5zM285 -9q-24 0 -40 16.5t-16 40.5q0 27 20 47.5t49 20.5q23 0 39 -16.5t16 -39.5q0 -28 -20 -48.5t-48 -20.5zM498 -9q-24 0 -40 16.5t-16 40.5q0 27 20 47.5
t49 20.5q23 0 39 -16.5t16 -39.5q0 -28 -20 -48.5t-48 -20.5z" />
    <glyph glyph-name="exclam.ss02" horiz-adv-x="273" 
d="M287 710l-46 -214l-83 -295h-53l44 296l45 213h93zM99 -9q-24 0 -40 16.5t-16 40.5q0 27 20 47.5t49 20.5q23 0 39 -16.5t16 -39.5q0 -28 -20 -48.5t-48 -20.5z" />
    <glyph glyph-name="exclamdown.ss02" horiz-adv-x="234" 
d="M163 502q24 0 40.5 -16.5t16.5 -40.5q0 -27 -20.5 -47.5t-48.5 -20.5q-24 0 -40 16.5t-16 39.5q0 28 20 48.5t48 20.5zM-25 -217l46 214l83 295h53l-44 -296l-45 -213h-93z" />
    <glyph glyph-name="period.ss02" horiz-adv-x="219" 
d="M63 -9q-24 0 -40 16.5t-16 40.5q0 27 20 47.5t49 20.5q23 0 39 -16.5t16 -39.5q0 -28 -20 -48.5t-48 -20.5z" />
    <glyph glyph-name="question.ss02" horiz-adv-x="491" 
d="M354 726q82 0 133.5 -40.5t51.5 -110.5q0 -85 -70 -145q-27 -24 -106 -83q-48 -36 -70 -60q-21 -22 -35 -62l-9 -29h-73l8 36q14 62 34 90.5t90 80.5l17 13q53 38 76 58t35 41q13 22 13 51q0 37 -28.5 58.5t-78.5 21.5q-91 0 -195 -82l-44 63q123 99 251 99zM183 -9
q-24 0 -40 16.5t-16 40.5q0 27 20 47.5t48 20.5q24 0 40 -16.5t16 -39.5q0 -28 -20 -48.5t-48 -20.5z" />
    <glyph glyph-name="questiondown.ss02" horiz-adv-x="464" 
d="M298 501q24 0 40 -16t16 -40q0 -27 -20 -47.5t-49 -20.5q-23 0 -39 16t-16 39q0 28 20 48.5t48 20.5zM126 -233q-80 0 -132 39q-53 41 -53 111q0 85 71 145q25 22 105 83q47 36 73 62q21 23 33 60l9 29h73l-8 -35q-15 -64 -35 -91.5t-90 -80.5q-15 -11 -35.5 -26.5
t-32 -24t-18.5 -14.5q-24 -18 -40 -44q-15 -22 -15 -54q0 -37 29 -58.5t78 -21.5q91 0 195 83l44 -64q-127 -98 -251 -98z" />
    <glyph glyph-name="semicolon.ss02" horiz-adv-x="258" 
d="M163 373q-24 0 -40 16.5t-16 40.5q0 27 20 47.5t49 20.5q23 0 39 -16.5t16 -39.5q0 -28 -20 -48.5t-48 -20.5zM96 115q29 0 46.5 -20t17.5 -56q0 -65 -46.5 -116t-108.5 -54l8 42q29 6 53.5 28.5t33.5 54.5q-14 -2 -17 -2q-25 0 -41 15t-16 39q0 28 20.5 48.5t49.5 20.5z
" />
    <glyph glyph-name="emdash.case" horiz-adv-x="966" 
d="M916 383l-15 -73h-807l15 73h807z" />
    <glyph glyph-name="endash.case" horiz-adv-x="724" 
d="M684 383l-15 -73h-586l14 73h587z" />
    <glyph glyph-name="hyphen.case" horiz-adv-x="405" 
d="M378 385l-17 -77h-291l17 77h291z" />
    <glyph glyph-name="guillemotleft.case" horiz-adv-x="571" 
d="M356 551l-193 -225l92 -211h-81l-94 218l186 218h90zM574 551l-194 -225l93 -211h-81l-94 218l186 218h90z" />
    <glyph glyph-name="guillemotright.case" horiz-adv-x="571" 
d="M215 551l95 -218l-186 -218h-90l193 225l-93 211h81zM433 551l95 -218l-187 -218h-90l194 225l-93 211h81z" />
    <glyph glyph-name="guilsinglleft.case" horiz-adv-x="354" 
d="M356 551l-193 -225l92 -211h-81l-94 218l186 218h90z" />
    <glyph glyph-name="guilsinglright.case" horiz-adv-x="354" 
d="M215 551l95 -218l-186 -218h-90l193 225l-93 211h81z" />
    <glyph glyph-name="quotedblbase.ss02" horiz-adv-x="400" 
d="M72 109q28 0 44.5 -18.5t16.5 -52.5q0 -63 -43.5 -111t-103.5 -51l8 39q28 6 50.5 27t31.5 52q-14 -2 -17 -2q-23 0 -38 14.5t-15 37.5q0 27 19.5 46t46.5 19zM252 109q28 0 44.5 -18.5t16.5 -52.5q0 -63 -43.5 -111t-103.5 -51l8 39q28 6 50.5 27t31.5 52q-14 -2 -16 -2
q-23 0 -38.5 14.5t-15.5 37.5q0 27 19.5 46t46.5 19z" />
    <glyph glyph-name="quotedblleft.ss02" horiz-adv-x="407" 
d="M107 553q0 63 44.5 111t103.5 51l-8 -39q-28 -7 -51 -28t-32 -52q8 2 17 2q24 0 39 -14t15 -37q0 -28 -19.5 -46.5t-47.5 -18.5t-44.5 18.5t-16.5 52.5zM438 715l-8 -39q-28 -7 -51 -28t-32 -52q8 2 17 2q24 0 39 -14t15 -37q0 -28 -19.5 -46.5t-47.5 -18.5q-27 0 -44 19
t-17 52q0 63 44.5 111t103.5 51z" />
    <glyph glyph-name="quotedblright.ss02" horiz-adv-x="404" 
d="M194 714q28 0 44.5 -18.5t16.5 -52.5q0 -63 -43.5 -111t-103.5 -51l8 39q28 6 50.5 27t31.5 52q-14 -2 -16 -2q-23 0 -38.5 14.5t-15.5 37.5q0 27 19.5 46t46.5 19zM374 714q28 0 44.5 -18.5t16.5 -52.5q0 -63 -43.5 -111t-103.5 -51l8 39q28 6 50.5 27t31.5 52
q-14 -2 -16 -2q-23 0 -38.5 14.5t-15.5 37.5q0 27 19.5 46t46.5 19z" />
    <glyph glyph-name="quoteleft.ss02" horiz-adv-x="223" 
d="M255 714l-8 -39q-27 -6 -50.5 -27.5t-32.5 -51.5q16 2 17 2q23 0 38.5 -14.5t15.5 -37.5q0 -27 -19.5 -46t-47.5 -19t-44.5 18.5t-16.5 52.5q0 63 44.5 111t103.5 51z" />
    <glyph glyph-name="quoteright.ss02" horiz-adv-x="223" 
d="M194 714q28 0 44.5 -18.5t16.5 -52.5q0 -63 -43.5 -111t-103.5 -51l8 39q28 6 50.5 27t31.5 52q-14 -2 -16 -2q-23 0 -38.5 14.5t-15.5 37.5q0 27 19.5 46t46.5 19z" />
    <glyph glyph-name="quotesinglbase.ss02" horiz-adv-x="220" 
d="M72 109q28 0 44.5 -18.5t16.5 -52.5q0 -63 -43.5 -111t-103.5 -51l8 39q28 6 50.5 27t31.5 52q-14 -2 -17 -2q-23 0 -38 14.5t-15 37.5q0 27 19.5 46t46.5 19z" />
    <glyph glyph-name="divide.ss02" horiz-adv-x="600" 
d="M301 434q-26 0 -44.5 18.5t-18.5 44.5q0 25 18.5 43t44.5 18q25 0 43.5 -18t18.5 -43q0 -26 -18.5 -44.5t-43.5 -18.5zM560 347v-74h-520v74h520zM301 62q-26 0 -44.5 18.5t-18.5 43.5t18.5 43.5t44.5 18.5q25 0 43.5 -18.5t18.5 -43.5t-18.5 -43.5t-43.5 -18.5z" />
    <glyph glyph-name="registered.ss03" horiz-adv-x="856" 
d="M449 723q153 3 261.5 -105.5t106.5 -262.5q2 -154 -106.5 -262.5t-261.5 -105.5q-153 -3 -261.5 105.5t-106.5 262.5q-2 154 106.5 262.5t261.5 105.5zM449 670q-129 2 -218.5 -90.5t-87.5 -224.5q-2 -132 87.5 -224.5t218.5 -90.5q131 -2 220 90.5t87 224.5
q2 132 -87 224.5t-220 90.5zM307 567h166q59 0 96.5 -36.5t37.5 -92.5q0 -40 -21.5 -70t-60.5 -44l107 -171h-73l-98 162h-90v-162h-64v414zM458 509h-87v-140h87q85 0 85 70q0 33 -22 51.5t-63 18.5z" />
    <glyph glyph-name="uni0326.alt" horiz-adv-x="0" 
d="M-139 587l19 88l78 100h48l-73 -100h47l-18 -88h-101z" />
    <glyph glyph-name="uni0326.alt.ss02" horiz-adv-x="0" 
d="M-36 770l-8 -35q-54 -6 -70 -53q8 3 18 3q48 0 48 -43q0 -24 -18 -40t-42 -16q-26 0 -41.5 16t-15.5 44q0 49 37.5 86.5t91.5 37.5z" />
    <glyph glyph-name="uni0326.ss02" horiz-adv-x="0" 
d="M-170 -69q26 0 41.5 -15.5t15.5 -44.5q0 -49 -36 -86.5t-89 -37.5l4 36q54 6 70 52q-6 -2 -17 -2q-23 0 -36 12t-13 32q0 23 17.5 38.5t42.5 15.5z" />
    <glyph glyph-name="caron.alt" horiz-adv-x="296" 
d="M317 710l-109 -198h-57l81 198h85z" />
    <glyph glyph-name="dieresis.ss02" horiz-adv-x="461" 
d="M213 588q-21 0 -35.5 14.5t-14.5 34.5q0 24 18 42t43 18q21 0 35.5 -14t14.5 -34q0 -25 -18 -43t-43 -18zM391 588q-21 0 -35 14.5t-14 34.5q0 24 18 42t43 18q21 0 35 -14t14 -34q0 -25 -18 -43t-43 -18z" />
    <glyph glyph-name="dotaccent.ss02" horiz-adv-x="286" 
d="M214 585q-22 0 -36.5 14.5t-14.5 35.5q0 26 18.5 44t44.5 18q22 0 36 -14t14 -35q0 -26 -18 -44.5t-44 -18.5z" />
    </font>
</defs>
</svg>
