<?xml version="1.0" standalone="no"?>
<!DOCTYPE svg PUBLIC "-//W3C//DTD SVG 1.1//EN" "http://www.w3.org/Graphics/SVG/1.1/DTD/svg11.dtd" >
<svg xmlns="http://www.w3.org/2000/svg" xmlns:xlink="http://www.w3.org/1999/xlink" version="1.1">
<metadata>
Created by FontForge 20170731 at Sun Apr 17 02:54:57 2016
 By Aleksey,,,
Copyright (c) 2015 by Letters from Sweden &#38; Stockholm Design Lab. All rights reserved.
</metadata>
<defs>
<font id="LabGrotesque-Regular" horiz-adv-x="590" >
  <font-face 
    font-family="Lab Grotesque"
    font-weight="400"
    font-stretch="normal"
    units-per-em="1000"
    panose-1="0 0 5 0 0 0 0 0 0 0"
    ascent="750"
    descent="-250"
    x-height="492"
    cap-height="710"
    bbox="-215 -253 1742 938"
    underline-thickness="59"
    underline-position="-277"
    unicode-range="U+0020-FB02"
  />
<missing-glyph horiz-adv-x="579" 
d="M479 810v-910h-379v910h379z" />
    <glyph glyph-name="fi" unicode="fi" horiz-adv-x="554" 
d="M109 492v78q0 73 37.5 112.5t108.5 39.5q34 0 79 -12l-13 -66q-34 6 -52 6q-41 0 -57.5 -20.5t-16.5 -69.5v-68h123v-65h-123v-427h-86v427h-91v65h91zM400 692h86v-103h-86v103zM400 0v492h86v-492h-86z" />
    <glyph glyph-name="fl" unicode="fl" horiz-adv-x="556" 
d="M109 492v78q0 73 37.5 112.5t108.5 39.5q34 0 79 -12l-13 -66q-34 6 -52 6q-41 0 -57.5 -20.5t-16.5 -69.5v-68h123v-65h-123v-427h-86v427h-91v65h91zM400 710h86v-710h-86v710z" />
    <glyph glyph-name="f_f.liga" unicode="ff" horiz-adv-x="658" 
d="M271 654q-41 0 -58.5 -20.5t-17.5 -69.5v-72h102v-65h-102v-427h-86v427h-91v65h91v82q0 73 38 112.5t110 39.5q46 0 99 -17l-17 -66q-46 11 -68 11zM590 654q-41 0 -58.5 -20.5t-17.5 -69.5v-72h123v-65h-123v-427h-86v427h-82v65h82v82q0 73 38 112.5t110 39.5
q46 0 99 -17l-17 -66q-46 11 -68 11z" />
    <glyph glyph-name="f_f_i.liga" unicode="ffi" horiz-adv-x="872" 
d="M271 650q-41 0 -58.5 -20.5t-17.5 -68.5v-69h102v-65h-102v-427h-86v427h-91v65h91v78q0 73 38 112.5t110 39.5q46 0 99 -17l-17 -66q-39 11 -68 11zM428 492v78q0 73 37.5 112.5t107.5 39.5q35 0 80 -12l-13 -66q-34 6 -52 6q-41 0 -57.5 -20.5t-16.5 -69.5v-68h123v-65
h-123v-427h-86v427h-82v65h82zM719 692h86v-103h-86v103zM719 0v492h86v-492h-86z" />
    <glyph glyph-name="f_f_j.liga" unicode="ffj" horiz-adv-x="872" 
d="M271 650q-41 0 -58.5 -20.5t-17.5 -68.5v-69h102v-65h-102v-427h-86v427h-91v65h91v78q0 73 38 112.5t110 39.5q46 0 99 -17l-17 -66q-39 11 -68 11zM637 427h-123v-427h-86v427h-82v65h82v78q0 73 37.5 112.5t107.5 39.5q35 0 80 -12l-13 -66q-34 6 -52 6
q-41 0 -57.5 -20.5t-16.5 -69.5v-68h123v-65zM719 692h86v-103h-86v103zM719 -37v529h86v-529q0 -154 -139 -154q-46 0 -96 15l18 65q41 -10 68 -10q34 0 48.5 20t14.5 64z" />
    <glyph glyph-name="f_j.liga" unicode="fj" horiz-adv-x="554" 
d="M318 427h-123v-427h-86v427h-91v65h91v78q0 73 37.5 112.5t108.5 39.5q34 0 79 -12l-13 -66q-34 6 -52 6q-41 0 -57.5 -20.5t-16.5 -69.5v-68h123v-65zM400 692h86v-103h-86v103zM400 -37v529h86v-530q0 -153 -139 -153q-51 0 -95 15l17 65q41 -10 68 -10q35 0 49 19.5
t14 64.5z" />
    <glyph glyph-name=".notdef" horiz-adv-x="579" 
d="M479 810v-910h-379v910h379z" />
    <glyph glyph-name=".null" horiz-adv-x="0" 
 />
    <glyph glyph-name="nonmarkingreturn" horiz-adv-x="333" 
 />
    <glyph glyph-name="space" unicode=" " horiz-adv-x="227" 
 />
    <glyph glyph-name="exclam" unicode="!" horiz-adv-x="273" 
d="M188 710v-213l-20 -296h-53l-20 296v213h93zM193 108v-108h-103v108h103z" />
    <glyph glyph-name="quotedbl" unicode="&#x22;" horiz-adv-x="375" 
d="M139 710l-9 -234h-64l-9 234h82zM318 710l-9 -234h-64l-10 234h83z" />
    <glyph glyph-name="numbersign" unicode="#" 
d="M568 436h-98l-40 -190h97l-13 -61h-97l-40 -185h-70l39 185h-155l-39 -185h-70l39 185h-100l13 61h100l40 190h-99l13 61h99l39 183h70l-39 -183h156l38 183h70l-38 -183h98zM359 246l41 190h-156l-40 -190h155z" />
    <glyph glyph-name="dollar" unicode="$" horiz-adv-x="610" 
d="M553 189q0 -84 -58 -139.5t-154 -63.5v-86h-66v86q-67 5 -123 32t-118 83l54 59q100 -87 187 -97v260q-120 33 -164 71t-44 114q0 75 59.5 127t148.5 60v85h66v-86q112 -10 209 -97l-54 -60q-78 71 -155 81v-230q118 -32 165 -75.5t47 -123.5zM151 510q0 -41 27.5 -63.5
t96.5 -41.5v214q-57 -7 -90.5 -37t-33.5 -72zM341 305v-243q58 7 92.5 40t34.5 84q0 47 -29.5 73.5t-97.5 45.5z" />
    <glyph glyph-name="percent" unicode="%" horiz-adv-x="858" 
d="M642 695l54 -33l-477 -677l-52 34zM212 691q66 0 110.5 -45t44.5 -114q0 -70 -44.5 -115t-110.5 -45t-110.5 45t-44.5 115q0 69 44.5 114t110.5 45zM212 633q-40 0 -64.5 -28.5t-24.5 -72.5q0 -46 24 -74t65 -28t65 28t24 74q0 44 -24.5 72.5t-64.5 28.5zM646 308
q66 0 111 -44.5t45 -113.5q0 -70 -45 -115t-111 -45t-110.5 45t-44.5 115q0 69 44.5 113.5t110.5 44.5zM646 251q-39 0 -63.5 -28t-24.5 -73q0 -46 23.5 -74t64.5 -28t65 28t24 74q0 44 -24.5 72.5t-64.5 28.5z" />
    <glyph glyph-name="ampersand" unicode="&#x26;" horiz-adv-x="699" 
d="M692 0h-106l-86 100q-52 -59 -105.5 -87t-125.5 -28q-98 0 -160 54t-62 136q0 74 43 124q45 53 145 110q-40 49 -59 85.5t-19 75.5q0 65 50.5 108.5t123.5 43.5q74 0 122 -42t48 -104q0 -56 -30 -96q-31 -40 -114 -90l144 -167l101 127l62 -45l-112 -142zM330 657
q-39 0 -65.5 -24.5t-25.5 -63.5q0 -26 16 -52.5t55 -71.5q64 37 87.5 65t23.5 66q0 36 -26 58.5t-65 22.5zM273 57q50 0 90 24t87 78l-168 196q-85 -51 -115 -87q-33 -38 -33 -87q0 -55 39 -89.5t100 -34.5z" />
    <glyph glyph-name="quotesingle" unicode="'" horiz-adv-x="196" 
d="M139 710l-9 -234h-64l-9 234h82z" />
    <glyph glyph-name="parenleft" unicode="(" horiz-adv-x="337" 
d="M275 783l55 -46q-87 -107 -129 -207t-42 -223q0 -124 43 -223q41 -99 128 -207l-55 -46q-101 111 -151 224t-50 252t50 252t151 224z" />
    <glyph glyph-name="parenright" unicode=")" horiz-adv-x="337" 
d="M62 -168l-55 46q87 109 129 208t42 222q0 124 -42 224q-43 98 -129 206l55 46q101 -111 151.5 -224t50.5 -252q0 -138 -50.5 -251.5t-151.5 -224.5z" />
    <glyph glyph-name="asterisk" unicode="*" horiz-adv-x="436" 
d="M247 710v-134l124 42l18 -51l-128 -41l84 -108l-45 -34l-84 111l-80 -109l-46 35l85 105l-128 42l17 51l124 -43v134h59z" />
    <glyph glyph-name="plus" unicode="+" horiz-adv-x="600" 
d="M338 570v-223h222v-74h-222v-223h-76v223h-222v74h222v223h76z" />
    <glyph glyph-name="comma" unicode="," horiz-adv-x="216" 
d="M165 108v-108l-61 -125h-52l55 125h-50v108h108z" />
    <glyph glyph-name="hyphen" unicode="-" horiz-adv-x="405" 
d="M348 326v-77h-291v77h291z" />
    <glyph glyph-name="period" unicode="." horiz-adv-x="216" 
d="M159 108v-108h-102v108h102z" />
    <glyph glyph-name="slash" unicode="/" horiz-adv-x="438" 
d="M416 710l-310 -710h-84l310 710h84z" />
    <glyph glyph-name="zero" unicode="0" 
d="M295 696q142 0 207 -126q48 -93 48 -230t-48 -230q-65 -126 -207 -126t-207 126q-48 93 -48 230t48 230q65 126 207 126zM295 620q-87 0 -129 -88q-36 -74 -36 -192t36 -192q42 -88 129 -88t129 88q36 74 36 192t-36 192q-42 88 -129 88z" />
    <glyph glyph-name="one" unicode="1" horiz-adv-x="460" 
d="M243 680h67v-680h-88v568l-144 -102l-44 61z" />
    <glyph glyph-name="two" unicode="2" horiz-adv-x="572" 
d="M131 75h396v-75h-486v33q0 125 93 200q44 35 111 76l50 29q55 31 80.5 50.5t42.5 45.5q18 29 18 67q0 56 -37 87.5t-95 31.5q-57 0 -100 -27.5t-97 -94.5l-65 46q105 152 260 152q100 0 161.5 -54.5t61.5 -137.5q0 -102 -83 -166q-34 -26 -98 -63l-47 -28l-19 -11
q-54 -32 -79.5 -51.5t-43.5 -45.5q-20 -27 -24 -64z" />
    <glyph glyph-name="three" unicode="3" horiz-adv-x="575" 
d="M282 406l13 1q99 0 163 -54t64 -147q0 -88 -65 -155t-175 -67q-127 0 -252 84l45 65q64 -40 109 -56.5t95 -16.5q69 0 111.5 40.5t42.5 104.5q0 63 -43 98.5t-120 35.5q-51 0 -81 -13l-41 56l245 223h-329v75h438v-73z" />
    <glyph glyph-name="four" unicode="4" horiz-adv-x="580" 
d="M460 232h102v-73h-102v-159h-86v159h-345v80l282 441h98l-286 -448h251v155h86v-155z" />
    <glyph glyph-name="five" unicode="5" horiz-adv-x="587" 
d="M310 439q100 0 162.5 -61t62.5 -156q0 -97 -68 -167.5t-174 -70.5q-72 0 -129 20q-50 18 -128 70l44 65q71 -47 110 -62q45 -17 95 -17q71 0 116 45.5t45 112.5t-40.5 107t-111.5 40q-84 0 -139 -54l-77 8l30 361h395v-75h-319l-18 -211q57 45 144 45z" />
    <glyph glyph-name="six" unicode="6" horiz-adv-x="589" 
d="M322 445q101 0 164 -66t63 -162t-67.5 -164t-178.5 -68q-116 0 -183.5 74t-67.5 191q0 104 52 195t157 189l49 46h118v-1l-108 -99q-114 -102 -158 -197q59 62 160 62zM303 60q71 0 114 43.5t43 112.5q0 68 -41.5 111.5t-111.5 43.5q-74 0 -119 -43.5t-45 -111.5
t44.5 -112t115.5 -44z" />
    <glyph glyph-name="seven" unicode="7" horiz-adv-x="535" 
d="M24 680h488v-64q-100 -124 -176 -287q-79 -166 -101 -329h-96q21 151 98 314q78 164 173 292h-386v74z" />
    <glyph glyph-name="eight" unicode="8" horiz-adv-x="589" 
d="M419 369q63 -24 97 -71.5t34 -110.5q0 -88 -69.5 -145.5t-186.5 -57.5q-116 0 -185.5 57.5t-69.5 145.5q0 63 34 110.5t97 71.5q-96 45 -96 148q0 80 61 129.5t159 49.5q99 0 160 -49.5t61 -129.5q0 -103 -96 -148zM294 625q-61 0 -98 -30.5t-37 -79.5q0 -50 37.5 -82
t97.5 -32q61 0 98.5 32t37.5 82q0 49 -37 79.5t-99 30.5zM294 58q76 0 121 37.5t45 96.5q0 63 -44.5 101t-121.5 38q-75 0 -120 -38t-45 -101q0 -59 45 -96.5t120 -37.5z" />
    <glyph glyph-name="nine" unicode="9" horiz-adv-x="589" 
d="M286 695q116 0 183.5 -74t67.5 -191q0 -104 -52 -195t-157 -189l-49 -46h-117v1l108 99q113 103 158 197q-59 -62 -161 -62q-100 0 -163.5 66.5t-63.5 161.5t68 163.5t178 68.5zM283 309q73 0 118 43.5t45 111.5t-44.5 112t-115.5 44t-114 -43.5t-43 -112.5
q0 -68 42 -111.5t112 -43.5z" />
    <glyph glyph-name="colon" unicode=":" horiz-adv-x="256" 
d="M179 492v-108h-102v108h102zM179 108v-108h-102v108h102z" />
    <glyph glyph-name="semicolon" unicode=";" horiz-adv-x="256" 
d="M189 108v-108l-61 -125h-52l55 125h-50v108h108zM186 492v-108h-102v108h102z" />
    <glyph glyph-name="less" unicode="&#x3c;" horiz-adv-x="600" 
d="M540 529v-80l-384 -139l384 -139v-80l-480 180v78z" />
    <glyph glyph-name="equal" unicode="=" horiz-adv-x="600" 
d="M560 447v-74h-520v74h520zM560 247v-74h-520v74h520z" />
    <glyph glyph-name="greater" unicode="&#x3e;" horiz-adv-x="600" 
d="M60 529l480 -180v-78l-480 -180v80l384 139l-384 139v80z" />
    <glyph glyph-name="question" unicode="?" horiz-adv-x="491" 
d="M260 726q91 0 152.5 -48.5t61.5 -131.5q0 -69 -51 -125q-26 -26 -58 -54l-23 -21q-42 -36 -60 -61q-17 -23 -20 -60l-3 -29h-71v36q0 58 16.5 88t75.5 82l18 15q48 39 66.5 65.5t18.5 61.5q0 47 -34 74.5t-91 27.5q-45 0 -84.5 -18.5t-94.5 -63.5l-52 59q115 103 233 103
zM276 108v-108h-102v108h102z" />
    <glyph glyph-name="at" unicode="@" horiz-adv-x="947" 
d="M695 460l-56 -262q-7 -28 -7 -52q0 -73 73 -73q55 0 90.5 57t35.5 150q0 160 -97.5 249.5t-247.5 89.5q-162 2 -265.5 -108t-101.5 -276q0 -164 101 -264.5t282 -100.5h218v-60h-235q-202 0 -320 118t-118 309q-2 192 120 319t315 125q183 2 301.5 -109.5t116.5 -288.5
q0 -120 -55.5 -193.5t-144.5 -73.5q-60 0 -92 26.5t-39 69.5q-61 -96 -168 -96q-71 0 -110 41.5t-39 114.5q-1 70 28.5 138.5t85.5 114t122 43.5q49 0 81.5 -21t41.5 -58l12 71h72zM411 79q52 -2 92 40t58 94.5t17 97.5q0 48 -20 71.5t-64 23.5q-69 2 -117.5 -71.5
t-47.5 -156.5q0 -48 21.5 -73.5t60.5 -25.5z" />
    <glyph glyph-name="A" unicode="A" horiz-adv-x="669" 
d="M558 0l-65 181h-318l-65 -181h-93l257 710h121l258 -710h-95zM202 259h264l-33 93q-67 185 -100 289q-23 -74 -41 -127q-8 -23 -20 -58.5t-16 -45.5l-21 -59z" />
    <glyph glyph-name="B" unicode="B" horiz-adv-x="667" 
d="M492 375q64 -19 99.5 -64t35.5 -112q0 -92 -59.5 -145.5t-158.5 -53.5h-328v710h314q95 0 151 -47t56 -133q0 -57 -29 -97.5t-81 -57.5zM174 636v-227h202q64 0 100 30.5t36 85.5q0 54 -35.5 82.5t-100.5 28.5h-202zM174 74h206q75 0 115 34.5t40 95.5q0 60 -41 95.5
t-113 35.5h-207v-261z" />
    <glyph glyph-name="C" unicode="C" horiz-adv-x="666" 
d="M383 726q69 0 127 -23.5t122 -78.5l-53 -63q-55 47 -100.5 65.5t-96.5 18.5q-113 0 -180 -80.5t-67 -209.5q0 -128 67 -209t174 -81q58 0 104 23.5t109 80.5l56 -62q-68 -67 -129 -95t-138 -28q-155 0 -246 103.5t-91 268.5t91 267.5t251 102.5z" />
    <glyph glyph-name="D" unicode="D" horiz-adv-x="702" 
d="M81 710h266q147 0 230.5 -97.5t83.5 -257.5t-83.5 -257.5t-230.5 -97.5h-266v710zM332 633h-158v-556h158q112 0 173.5 73.5t61.5 204.5q0 130 -62 204t-173 74z" />
    <glyph glyph-name="E" unicode="E" horiz-adv-x="609" 
d="M554 710v-77h-380v-229h354v-77h-354v-250h389v-77h-482v710h473z" />
    <glyph glyph-name="F" unicode="F" horiz-adv-x="594" 
d="M554 710v-77h-380v-244h351v-77h-351v-312h-93v710h473z" />
    <glyph glyph-name="G" unicode="G" horiz-adv-x="741" 
d="M362 294v78h313v-372h-72l-7 91q-65 -106 -222 -106q-154 0 -243.5 102t-89.5 268q0 162 93.5 266t250.5 104q86 0 155 -32.5t136 -102.5l-59 -60q-64 62 -115.5 88t-117.5 26q-112 0 -180.5 -79.5t-68.5 -209.5q0 -133 65.5 -211.5t178.5 -78.5q95 0 152.5 54.5
t57.5 146.5v28h-227z" />
    <glyph glyph-name="H" unicode="H" horiz-adv-x="729" 
d="M648 710v-710h-93v330h-381v-330h-93v710h93v-303h381v303h93z" />
    <glyph glyph-name="I" unicode="I" horiz-adv-x="270" 
d="M181 710v-710h-93v710h93z" />
    <glyph glyph-name="J" unicode="J" horiz-adv-x="462" 
d="M385 710v-527q0 -195 -192 -195q-92 0 -181 47l32 72q90 -38 146 -38q103 0 103 122v519h92z" />
    <glyph glyph-name="K" unicode="K" horiz-adv-x="656" 
d="M544 0l-243 366l-127 -130v-236h-93v710h93v-363l346 363h114l-271 -279l286 -431h-105z" />
    <glyph glyph-name="L" unicode="L" horiz-adv-x="533" 
d="M174 710v-632h332v-78h-425v710h93z" />
    <glyph glyph-name="M" unicode="M" horiz-adv-x="869" 
d="M640 710h148v-710h-90v355q0 38 2 288q-30 -89 -63 -181l-37 -107l-124 -355h-82l-127 355q0 1 -3.5 10.5t-12.5 35t-18 50.5q-4 11 -31 88q-22 62 -35 103q2 -126 2 -288v-354h-88v710h148l111 -313q63 -174 96 -286q26 91 94 286z" />
    <glyph glyph-name="N" unicode="N" horiz-adv-x="731" 
d="M560 710h90v-710h-102l-211 323q-23 38 -43 67q-95 146 -128 205q5 -122 5 -276v-319h-90v710h104l213 -328q5 -9 13 -20.5t9 -13.5q61 -95 64 -99q32 -50 80 -132q-4 100 -4 269v324z" />
    <glyph glyph-name="O" unicode="O" horiz-adv-x="757" 
d="M379 726q153 0 245 -104.5t92 -266.5t-92 -266.5t-245 -104.5t-245.5 104.5t-92.5 266.5t92.5 266.5t245.5 104.5zM379 645q-108 0 -176 -81.5t-68 -208.5q0 -128 67.5 -209t176.5 -81t176 80.5t67 209.5q0 128 -67 209t-176 81z" />
    <glyph glyph-name="P" unicode="P" horiz-adv-x="651" 
d="M81 710h306q106 0 168.5 -56.5t62.5 -155.5t-63 -156t-168 -57h-213v-285h-93v710zM373 633h-199v-271h199q72 0 112.5 35.5t40.5 100.5t-40.5 100t-112.5 35z" />
    <glyph glyph-name="Q" unicode="Q" horiz-adv-x="757" 
d="M716 355q0 -192 -118 -293l61 -81l-67 -47l-62 83q-69 -33 -151 -33q-153 0 -245.5 104.5t-92.5 266.5t92.5 266.5t245.5 104.5t245 -104.5t92 -266.5zM379 65q54 0 99 21l-94 124l66 47l94 -124q78 78 78 222q0 128 -67 209t-176 81q-108 0 -176 -81.5t-68 -208.5
q0 -128 67.5 -209t176.5 -81z" />
    <glyph glyph-name="R" unicode="R" horiz-adv-x="667" 
d="M634 0h-104l-190 285h-166v-285h-93v710h299q101 0 165.5 -57.5t64.5 -154.5q0 -82 -46 -137t-125 -70zM174 633v-271h191q72 0 112.5 35.5t40.5 100.5t-41 100t-113 35h-190z" />
    <glyph glyph-name="S" unicode="S" horiz-adv-x="629" 
d="M308 725q80 0 142 -24.5t126 -79.5l-54 -64q-56 49 -104.5 69t-109.5 20q-72 0 -117.5 -32.5t-45.5 -83.5q0 -66 81 -92q38 -14 114 -30q138 -33 191 -76t55 -128q0 -98 -73.5 -159t-188.5 -61q-89 0 -154 29q-71 30 -145 94l55 65q74 -62 130 -85q55 -23 115 -23
q75 0 122 36.5t47 98.5q0 72 -84 102q-38 13 -114 30q-138 31 -189.5 72.5t-51.5 124.5q0 86 73 141.5t180 55.5z" />
    <glyph glyph-name="T" unicode="T" horiz-adv-x="598" 
d="M568 710v-78h-223v-632h-92v632h-223v78h538z" />
    <glyph glyph-name="U" unicode="U" horiz-adv-x="688" 
d="M612 710v-484q0 -118 -68 -179.5t-200 -61.5q-131 0 -199 61.5t-68 179.5v484h92v-479q0 -81 44.5 -123t130.5 -42t130.5 42t44.5 123v479h93z" />
    <glyph glyph-name="V" unicode="V" horiz-adv-x="633" 
d="M521 710h95l-241 -710h-117l-241 710h96l117 -352q55 -161 88 -277q31 110 86 276z" />
    <glyph glyph-name="W" unicode="W" horiz-adv-x="939" 
d="M816 710h91l-171 -710h-113l-87 326q-44 166 -66 265q-35 -153 -65 -266l-88 -325h-114l-172 710h94l81 -342q23 -98 58 -274q35 159 69 274l93 342h93l91 -342q24 -87 67 -273l10 49q30 141 49 224z" />
    <glyph glyph-name="X" unicode="X" horiz-adv-x="643" 
d="M631 0h-104l-206 307l-206 -307h-104l254 374l-229 336h103l183 -272l183 272h103l-230 -337z" />
    <glyph glyph-name="Y" unicode="Y" horiz-adv-x="631" 
d="M516 710h100l-252 -407v-303h-92v304l-250 406h102l196 -325z" />
    <glyph glyph-name="Z" unicode="Z" horiz-adv-x="623" 
d="M581 710v-74l-430 -559h429v-77h-539v74l430 559h-411v77h521z" />
    <glyph glyph-name="bracketleft" unicode="[" horiz-adv-x="328" 
d="M291 759v-64h-112v-774h112v-63h-194v901h194z" />
    <glyph glyph-name="backslash" unicode="\" horiz-adv-x="438" 
d="M22 710h84l310 -710h-84z" />
    <glyph glyph-name="bracketright" unicode="]" horiz-adv-x="328" 
d="M37 759h194v-901h-194v63h111v774h-111v64z" />
    <glyph glyph-name="asciicircum" unicode="^" 
d="M335 710l199 -430h-76l-163 353l-162 -353h-77l200 430h79z" />
    <glyph glyph-name="underscore" unicode="_" horiz-adv-x="600" 
d="M605 -130v-60h-610v60h610z" />
    <glyph glyph-name="grave" unicode="`" horiz-adv-x="341" 
d="M77 716h96l72 -144h-76z" />
    <glyph glyph-name="a" unicode="a" horiz-adv-x="532" 
d="M266 506q94 0 147 -44.5t53 -119.5v-342h-78v60q-51 -76 -167 -76q-81 0 -128.5 35t-47.5 103q0 79 60 115q59 36 169 56l110 20v25q0 45 -31.5 71t-83.5 26q-45 0 -80.5 -18.5t-81.5 -64.5l-55 49q89 105 214 105zM230 55q67 0 110.5 35.5t43.5 93.5v65l-90 -18
q-92 -19 -126.5 -39t-38.5 -67q0 -34 26.5 -52t74.5 -18z" />
    <glyph glyph-name="b" unicode="b" horiz-adv-x="572" 
d="M316 505q96 0 156.5 -72t60.5 -187t-61.5 -187t-155.5 -72q-116 0 -168 88v-75h-81v710h86v-287q55 82 163 82zM303 61q64 0 103 51t39 134q0 84 -39 135t-103 51q-69 0 -111 -50.5t-42 -135.5t42 -135t111 -50z" />
    <glyph glyph-name="c" unicode="c" horiz-adv-x="500" 
d="M473 412l-56 -52q-38 41 -71 57.5t-72 16.5q-73 0 -110 -55q-39 -55 -39 -133t39 -132q39 -55 112 -55q40 0 72.5 17.5t74.5 64.5l56 -48q-48 -59 -94 -83t-109 -24q-108 0 -173.5 71t-65.5 189q0 117 66 188.5t173 71.5q61 0 107 -21.5t90 -72.5z" />
    <glyph glyph-name="d" unicode="d" horiz-adv-x="572" 
d="M419 710h86v-710h-81v77q-54 -90 -168 -90q-95 0 -156 72t-61 187t62 187t157 72q107 0 161 -79v284zM269 60q69 0 111 50.5t42 135.5t-42 135t-111 50q-64 0 -103 -51t-39 -134q0 -84 38.5 -135t103.5 -51z" />
    <glyph glyph-name="e" unicode="e" horiz-adv-x="534" 
d="M444 140l51 -52q-53 -56 -102 -79t-113 -23q-111 0 -177 70.5t-66 186.5t64.5 189.5t170.5 73.5q105 0 163.5 -63t58.5 -174q0 -14 -2 -38h-370q4 -78 45 -125.5t114 -47.5q45 0 80 18q33 17 83 64zM271 437q-60 0 -98 -37t-48 -105h284q-3 66 -39.5 104t-98.5 38z" />
    <glyph glyph-name="f" unicode="f" horiz-adv-x="339" 
d="M271 654q-41 0 -58.5 -20.5t-17.5 -69.5v-72h124v-65h-124v-427h-86v427h-91v65h91v82q0 73 38 112.5t110 39.5q46 0 99 -17l-17 -66q-46 11 -68 11z" />
    <glyph glyph-name="g" unicode="g" horiz-adv-x="565" 
d="M418 492h80v-481q0 -95 -60 -149.5t-163 -54.5q-120 0 -223 73l43 63q54 -34 94 -48.5t85 -14.5q65 0 102 34.5t37 103.5v68q-51 -80 -157 -80q-94 0 -155 70.5t-61 179.5t61 179.5t155 70.5q111 0 162 -86v72zM270 79q65 0 105 49.5t40 127.5t-40 127.5t-105 49.5
t-103.5 -48.5t-38.5 -128.5t38.5 -128.5t103.5 -48.5z" />
    <glyph glyph-name="h" unicode="h" horiz-adv-x="545" 
d="M303 506q83 0 129.5 -47t46.5 -122v-337h-86v310q0 60 -29 91.5t-84 31.5q-54 0 -90.5 -36.5t-36.5 -91.5v-305h-86v710h86v-274q48 70 150 70z" />
    <glyph glyph-name="i" unicode="i" horiz-adv-x="220" 
d="M153 492v-492h-86v492h86zM153 692v-103h-86v103h86z" />
    <glyph glyph-name="j" unicode="j" horiz-adv-x="224" 
d="M-78 -177l17 66q36 -10 68 -10q35 0 49 19.5t14 63.5v530h86v-530q0 -154 -139 -154q-47 0 -95 15zM156 692v-103h-86v103h86z" />
    <glyph glyph-name="k" unicode="k" horiz-adv-x="508" 
d="M407 0l-165 247l-89 -90v-157h-86v710h86v-456l228 238h101l-181 -189l201 -303h-95z" />
    <glyph glyph-name="l" unicode="l" horiz-adv-x="226" 
d="M156 710v-710h-86v710h86z" />
    <glyph glyph-name="m" unicode="m" horiz-adv-x="812" 
d="M582 506q79 0 121.5 -44.5t42.5 -118.5v-343h-86v319q0 114 -98 114q-51 0 -82 -34.5t-31 -89.5v-309h-86v319q0 114 -98 114q-47 0 -77.5 -30.5t-34.5 -79.5v-323h-86v492h81v-59q45 73 141 73q102 0 142 -79q49 79 151 79z" />
    <glyph glyph-name="n" unicode="n" horiz-adv-x="545" 
d="M303 506q84 0 130 -47t46 -122v-337h-86v310q0 60 -29 91.5t-84 31.5q-54 0 -90.5 -36.5t-36.5 -91.5v-305h-86v492h81v-64q49 78 155 78z" />
    <glyph glyph-name="o" unicode="o" horiz-adv-x="561" 
d="M280 506q107 0 175.5 -72.5t68.5 -187.5t-68.5 -187.5t-175.5 -72.5t-175 72.5t-68 187.5t68 187.5t175 72.5zM280 434q-71 0 -113 -51.5t-42 -136.5t42 -136.5t113 -51.5t113.5 52t42.5 136t-42.5 136t-113.5 52z" />
    <glyph glyph-name="p" unicode="p" horiz-adv-x="572" 
d="M316 505q95 0 156 -72t61 -186q0 -116 -61 -188t-156 -72q-111 0 -163 78v-245h-86v672h81v-77q54 90 168 90zM303 61q64 0 103 51t39 135t-38.5 134.5t-103.5 50.5q-69 0 -111 -50t-42 -135q0 -86 42 -136t111 -50z" />
    <glyph glyph-name="q" unicode="q" horiz-adv-x="572" 
d="M424 492h81v-672h-86v247q-53 -80 -162 -80q-95 0 -156.5 72t-61.5 187t61.5 187t156.5 72q116 0 167 -88v75zM269 60q69 0 111 50.5t42 135.5q0 86 -42 135.5t-111 49.5q-64 0 -103 -51t-39 -134q0 -84 39 -135t103 -51z" />
    <glyph glyph-name="r" unicode="r" horiz-adv-x="358" 
d="M270 497q34 0 78 -14l-16 -72q-34 10 -64 10q-52 0 -83.5 -42.5t-31.5 -114.5v-264h-86v492h81v-75q38 80 122 80z" />
    <glyph glyph-name="s" unicode="s" horiz-adv-x="479" 
d="M235 506q61 0 107 -16.5t95 -55.5l-47 -58q-45 35 -78.5 47.5t-76.5 12.5q-49 0 -78.5 -20.5t-29.5 -52.5q4 -31 26 -42.5t106 -30.5q102 -24 144 -56.5t42 -94.5q0 -69 -54 -111t-143 -42q-67 0 -118.5 20.5t-108.5 71.5l51 56q52 -44 91.5 -60.5t85.5 -16.5
q49 0 80.5 21t31.5 57q0 35 -30 52t-108 34q-105 24 -141 50.5t-38 88.5q0 65 53 105.5t138 40.5z" />
    <glyph glyph-name="t" unicode="t" horiz-adv-x="356" 
d="M325 76l13 -68q-48 -17 -101 -17q-67 0 -97 30.5t-30 92.5v313h-92v65h92v165h86v-165h133v-65h-133v-303q0 -33 13.5 -46.5t44.5 -13.5q28 0 71 12z" />
    <glyph glyph-name="u" unicode="u" horiz-adv-x="537" 
d="M384 492h86v-492h-80v61q-45 -75 -149 -75q-87 0 -131 43t-44 118v345h86v-324q0 -108 103 -108q58 0 93.5 35t35.5 97v300z" />
    <glyph glyph-name="v" unicode="v" horiz-adv-x="480" 
d="M377 492h88l-171 -492h-109l-170 492h90l61 -181q52 -160 75 -244q32 114 75 244z" />
    <glyph glyph-name="w" unicode="w" horiz-adv-x="735" 
d="M626 493h88l-138 -493h-104l-46 158q-36 126 -60 230q-28 -117 -60 -231l-43 -157h-104l-138 493h89l49 -184q25 -94 56 -234q31 127 60 234l52 184h81l52 -184q26 -88 61 -235q20 98 56 235z" />
    <glyph glyph-name="x" unicode="x" horiz-adv-x="480" 
d="M468 0h-95l-133 198l-134 -198h-94l179 257l-164 235h95l119 -175l117 175h94l-161 -232z" />
    <glyph glyph-name="y" unicode="y" horiz-adv-x="484" 
d="M379 492h87l-197 -560q-25 -70 -56 -97.5t-92 -27.5q-43 0 -76 10l15 66q27 -6 53 -6q31 0 49.5 17t33.5 61l6 18l-185 519h91l55 -163q56 -166 67 -199l14 -42l22 66q25 80 58 177z" />
    <glyph glyph-name="z" unicode="z" horiz-adv-x="478" 
d="M434 492v-63l-290 -358h290v-71h-396v64l290 358h-272v70h378z" />
    <glyph glyph-name="braceleft" unicode="{" horiz-adv-x="366" 
d="M329 759v-64h-34q-61 0 -66 -38q-2 -22 -2 -67v-153q0 -57 -20.5 -86.5t-73.5 -38.5v-2q53 -9 73.5 -38.5t20.5 -86.5v-159v-45q0 -36 16 -48q17 -12 52 -12h34v-63h-53q-75 0 -103.5 31t-28.5 121v162q0 55 -21 76.5t-73 21.5v82q52 0 73 21.5t21 76.5v157
q0 90 28.5 121t103.5 31h53z" />
    <glyph glyph-name="bar" unicode="|" horiz-adv-x="383" 
d="M230 800v-940h-76v940h76z" />
    <glyph glyph-name="braceright" unicode="}" horiz-adv-x="366" 
d="M37 759h53q75 0 103.5 -31t28.5 -121v-157q0 -55 21 -76.5t73 -21.5v-82q-52 0 -73 -21.5t-21 -76.5v-162q0 -90 -28.5 -121t-103.5 -31h-53v63h35q61 0 66 38q2 22 2 67v159q0 57 20.5 86.5t73.5 38.5v2q-53 9 -73.5 38.5t-20.5 86.5v153v45q0 36 -16 48t-52 12h-35v64z
" />
    <glyph glyph-name="asciitilde" unicode="~" horiz-adv-x="600" 
d="M195 403q47 0 123 -31q67 -26 95 -26q29 0 42.5 13t15.5 40h72q-2 -57 -34 -90.5t-88 -33.5q-42 0 -120 31q-71 28 -103 28q-29 0 -47.5 -15t-21.5 -39h-72q2 55 39 89t99 34z" />
    <glyph glyph-name="exclamdown" unicode="&#xa1;" horiz-adv-x="225" 
d="M62 385v108h102v-108h-102zM66 -217v213l21 296h53l20 -296v-213h-94z" />
    <glyph glyph-name="cent" unicode="&#xa2;" 
d="M458 141l57 -48q-77 -95 -168 -105v-88h-67v88q-95 10 -151.5 79.5t-56.5 178.5q0 108 57 178t151 81v90h67v-91q92 -10 161 -92l-56 -52q-55 59 -105 70v-367q50 11 111 78zM160 246q0 -71 32 -122t88 -62v369q-56 -11 -88 -62.5t-32 -122.5z" />
    <glyph glyph-name="sterling" unicode="&#xa3;" 
d="M528 100l31 -68q-72 -45 -145 -45q-50 0 -128 20q-70 17 -107 17q-26 0 -44.5 -3.5t-29.5 -8t-40 -17.5l-27 70q67 26 99.5 58.5t33.5 91.5q0 27 -6 68h-98v67h80q-27 81 -27 152q0 87 61.5 139t151.5 52q116 0 212 -79l-49 -63q-47 36 -84 51t-78 15q-55 0 -89.5 -32
t-34.5 -85q0 -63 27 -150h216v-67h-200q4 -32 4 -58q-1 -84 -70 -130q51 -4 110 -18q75 -15 111 -15q52 0 120 38z" />
    <glyph glyph-name="currency" unicode="&#xa4;" 
d="M486 575l44 -43l-66 -66q41 -55 41 -126t-41 -126l65 -65l-44 -43l-66 66q-52 -34 -122 -34q-71 0 -124 36l-69 -69l-43 43l68 68q-40 52 -40 124q0 70 39 123l-68 68l44 43l68 -69q52 37 125 37q69 0 121 -34zM297 477q-61 0 -100 -37.5t-39 -99.5t39 -99.5t100 -37.5
t100 37.5t39 99.5t-39 99.5t-100 37.5z" />
    <glyph glyph-name="yen" unicode="&#xa5;" 
d="M557 680l-155 -268h120v-64h-157l-27 -45v-47h184v-64h-184v-192h-88v192h-182v64h182v48l-26 44h-156v64h120l-155 268h98l166 -297l165 297h95z" />
    <glyph glyph-name="brokenbar" unicode="&#xa6;" horiz-adv-x="383" 
d="M230 800v-400h-76v400h76zM230 260v-400h-76v400h76z" />
    <glyph glyph-name="section" unicode="&#xa7;" 
d="M441 194q67 -34 67 -110q0 -70 -59.5 -114.5t-151.5 -44.5q-68 0 -119.5 18t-106.5 61l46 59q50 -38 92 -53q39 -14 88 -14q57 0 93 24t36 61q0 43 -63 62q-35 10 -92 23q-118 25 -168.5 62t-50.5 102q0 86 97 125q-67 34 -67 110q0 70 59.5 114.5t151.5 44.5
q68 0 119.5 -18t106.5 -61l-46 -59q-52 38 -91 52.5t-89 14.5q-57 0 -93 -24.5t-36 -61.5q4 -35 31 -48.5t124 -36.5q118 -25 168.5 -61.5t50.5 -101.5q0 -88 -97 -125zM136 334q0 -52 78 -76q33 -10 93 -24q6 -1 17.5 -3.5t15.5 -3.5q114 20 114 88q-4 42 -40 60t-131 38
l-36 9q-111 -22 -111 -88z" />
    <glyph glyph-name="dieresis" unicode="&#xa8;" horiz-adv-x="461" 
d="M184 692v-103h-84v103h84zM361 692v-103h-84v103h84z" />
    <glyph glyph-name="copyright" unicode="&#xa9;" horiz-adv-x="856" 
d="M428 723q153 3 261.5 -105.5t106.5 -262.5q2 -154 -106.5 -262.5t-261.5 -105.5q-153 -3 -261.5 105.5t-106.5 262.5q-2 154 106.5 262.5t261.5 105.5zM428 670q-129 2 -218.5 -90.5t-87.5 -224.5q-2 -132 87.5 -224.5t218.5 -90.5q129 -2 218.5 90.5t87.5 224.5
q2 132 -87.5 224.5t-218.5 90.5zM432 576q122 0 176 -107l-60 -28q-23 40 -50 57t-65 17q-62 0 -99.5 -45t-37.5 -115t37.5 -114.5t99.5 -44.5q42 0 67.5 18t50.5 65l60 -30q-31 -61 -72.5 -88t-106.5 -27q-92 0 -150 63t-58 158t58 158t150 63z" />
    <glyph glyph-name="ordfeminine" unicode="&#xaa;" horiz-adv-x="416" 
d="M209 715q74 0 114.5 -34t40.5 -93v-260h-63v49q-37 -61 -132 -61q-59 0 -95.5 27.5t-36.5 77.5q0 56 43 85t135 46l82 15v14q0 37 -24 57t-66 20q-63 0 -122 -62l-44 40q67 79 168 79zM179 373q53 0 85.5 27t32.5 75v39l-68 -13q-71 -15 -97.5 -30t-26.5 -45
q0 -25 19.5 -39t54.5 -14z" />
    <glyph glyph-name="guillemotleft" unicode="&#xab;" horiz-adv-x="571" 
d="M287 471l-141 -218l141 -218h-86l-139 218l139 218h86zM505 471l-141 -218l141 -218h-86l-139 218l139 218h86z" />
    <glyph glyph-name="logicalnot" unicode="&#xac;" horiz-adv-x="600" 
d="M40 347h520v-273h-75v199h-445v74z" />
    <glyph glyph-name="registered" unicode="&#xae;" horiz-adv-x="556" 
d="M278 722q94 0 157.5 -63.5t63.5 -157.5t-63.5 -157.5t-157.5 -63.5t-157.5 63.5t-63.5 157.5t63.5 157.5t157.5 63.5zM278 684q-78 0 -128 -52t-50 -131t50 -131t128 -52q76 0 127 52.5t51 130.5t-51 130.5t-127 52.5zM192 629h103q35 0 57.5 -22.5t22.5 -55.5
q0 -52 -49 -71l61 -100h-50l-56 95h-43v-95h-46v249zM286 588h-48v-75h48q44 0 44 38q0 37 -44 37z" />
    <glyph glyph-name="overscore" unicode="&#xaf;" horiz-adv-x="468" 
d="M374 660v-66h-279v66h279z" />
    <glyph glyph-name="degree" unicode="&#xb0;" horiz-adv-x="409" 
d="M204 722q60 0 102.5 -40.5t42.5 -100.5t-42.5 -101t-102.5 -41q-61 0 -102.5 40.5t-41.5 101.5q0 60 41.5 100.5t102.5 40.5zM204 664q-37 0 -60 -23.5t-23 -59.5q0 -37 23 -60.5t60 -23.5t60 23.5t23 60.5q0 36 -23 59.5t-60 23.5z" />
    <glyph glyph-name="plusminus" unicode="&#xb1;" horiz-adv-x="600" 
d="M338 662v-223h222v-74h-222v-223h-76v223h-222v74h222v223h76zM560 74v-74h-520v74h520z" />
    <glyph glyph-name="uni00B2" unicode="&#xb2;" horiz-adv-x="397" 
d="M237 464l-28 -15q-52 -29 -72 -46t-25 -42h242v-59h-314v28q0 58 31 95t99 73q4 2 13 7t13 7q50 26 69 43t19 44q0 29 -21.5 44.5t-58.5 15.5q-56 0 -118 -55l-40 46q74 70 159 70q68 0 109 -33.5t41 -84.5q-2 -36 -17 -60.5t-35 -38.5t-66 -39z" />
    <glyph glyph-name="uni00B3" unicode="&#xb3;" horiz-adv-x="393" 
d="M199 547h4q61 0 100.5 -33t39.5 -88t-42 -94.5t-113 -39.5q-80 0 -164 52l35 50q70 -41 128 -41q39 0 62 20t23 53q0 32 -24.5 51t-67.5 19q-37 0 -52 -7l-31 43l145 119h-199v59h285v-58z" />
    <glyph glyph-name="acute" unicode="&#xb4;" horiz-adv-x="341" 
d="M264 716l-92 -144h-76l72 144h96z" />
    <glyph glyph-name="paragraph" unicode="&#xb6;" horiz-adv-x="648" 
d="M412 710v-810h-71v372h-77q-102 0 -164.5 59.5t-62.5 159.5t62.5 159.5t164.5 59.5h148zM567 710v-810h-72v810h72z" />
    <glyph glyph-name="middot" unicode="&#xb7;" horiz-adv-x="216" 
d="M159 367v-108h-102v108h102z" />
    <glyph glyph-name="cedilla" unicode="&#xb8;" horiz-adv-x="413" 
d="M244 0l-31 -67q47 2 77 -19.5t30 -58.5q0 -40 -29.5 -65t-75.5 -25q-53 0 -108 36l25 41q47 -27 81 -27q53 0 53 39q0 17 -16 27t-41 10q-17 0 -29 -3l-28 27l49 104z" />
    <glyph glyph-name="uni00B9" unicode="&#xb9;" horiz-adv-x="318" 
d="M161 710h53v-408h-69v323l-75 -55l-35 48z" />
    <glyph glyph-name="ordmasculine" unicode="&#xba;" horiz-adv-x="452" 
d="M226 717q81 0 133 -56t52 -144q0 -87 -52 -143t-133 -56q-80 0 -132 56t-52 143q0 88 52 144t132 56zM226 659q-52 0 -82.5 -39t-30.5 -103q0 -63 30.5 -101.5t82.5 -38.5t83 38.5t31 101.5q0 64 -31 103t-83 39z" />
    <glyph glyph-name="guillemotright" unicode="&#xbb;" horiz-adv-x="571" 
d="M67 471h85l140 -218l-140 -218h-85l139 218zM285 471h85l140 -218l-140 -218h-85l139 218z" />
    <glyph glyph-name="onequarter" unicode="&#xbc;" horiz-adv-x="879" 
d="M165 680h53v-408h-69v323l-75 -55l-35 48zM626 695l54 -33l-476 -677l-53 34zM792 149h57v-57h-57v-92h-69v92h-207v65l168 251h76l-173 -259h136v86h69v-86z" />
    <glyph glyph-name="onehalf" unicode="&#xbd;" horiz-adv-x="910" 
d="M165 680h53v-408h-69v323l-75 -55l-35 48zM626 695l54 -33l-476 -677l-53 34zM752 162l-28 -15q-54 -31 -73 -47t-24 -41h242v-59h-314v28q0 58 31 95t99 73q4 2 13 7t13 7q50 26 69 43t19 44q0 29 -21.5 44.5t-58.5 15.5q-56 0 -118 -55l-40 46q74 70 159 70
q68 0 109 -33.5t41 -84.5q-2 -36 -17 -60.5t-35 -38.5t-66 -39z" />
    <glyph glyph-name="threequarters" unicode="&#xbe;" horiz-adv-x="954" 
d="M205 517h4q61 0 100.5 -33t39.5 -88t-42 -94.5t-113 -39.5q-80 0 -164 52l35 50q70 -41 128 -41q39 0 62 20t23 53q0 32 -24.5 51t-67.5 19q-37 0 -52 -7l-31 43l145 119h-199v59h285v-58zM701 695l54 -33l-476 -677l-53 34zM867 149h57v-57h-57v-92h-69v92h-207v65
l168 251h76l-173 -259h136v86h69v-86z" />
    <glyph glyph-name="questiondown" unicode="&#xbf;" horiz-adv-x="464" 
d="M205 385v108h102v-108h-102zM221 -233q-92 0 -153.5 48.5t-61.5 132.5q3 57 27 92t83 87l23 20q42 36 60 61q15 21 20 60l3 29h71v-35q0 -59 -16.5 -89.5t-76.5 -81.5q-19 -17 -20 -17q-47 -40 -65 -65.5t-18 -59.5q0 -47 34.5 -74.5t91.5 -27.5q44 0 83.5 18.5
t94.5 64.5l53 -60q-115 -103 -233 -103z" />
    <glyph glyph-name="Agrave" unicode="&#xc0;" horiz-adv-x="669" 
d="M558 0l-65 181h-318l-65 -181h-93l257 710h121l258 -710h-95zM202 259h264l-33 93q-67 185 -100 289q-23 -74 -41 -127q-8 -23 -20 -58.5t-16 -45.5l-21 -59zM206 920h96l72 -144h-76z" />
    <glyph glyph-name="Aacute" unicode="&#xc1;" horiz-adv-x="669" 
d="M558 0l-65 181h-318l-65 -181h-93l257 710h121l258 -710h-95zM202 259h264l-33 93q-67 185 -100 289q-23 -74 -41 -127q-8 -23 -20 -58.5t-16 -45.5l-21 -59zM462 920l-92 -144h-76l72 144h96z" />
    <glyph glyph-name="Acircumflex" unicode="&#xc2;" horiz-adv-x="669" 
d="M558 0l-65 181h-318l-65 -181h-93l257 710h121l258 -710h-95zM202 259h264l-33 93q-67 185 -100 289q-23 -74 -41 -127q-8 -23 -20 -58.5t-16 -45.5l-21 -59zM414 776l-80 101l-80 -101h-74l100 144h108l100 -144h-74z" />
    <glyph glyph-name="Atilde" unicode="&#xc3;" horiz-adv-x="669" 
d="M558 0l-65 181h-318l-65 -181h-93l257 710h121l258 -710h-95zM202 259h264l-33 93q-67 185 -100 289q-23 -74 -41 -127q-8 -23 -20 -58.5t-16 -45.5l-21 -59zM266 900q30 0 81 -30q34 -23 56 -23q32 0 32 53h54q0 -51 -22 -81t-59 -30q-26 0 -77 28q-43 24 -65 24
q-34 0 -34 -51h-55q0 51 24.5 80.5t64.5 29.5z" />
    <glyph glyph-name="Adieresis" unicode="&#xc4;" horiz-adv-x="669" 
d="M558 0l-65 181h-318l-65 -181h-93l257 710h121l258 -710h-95zM202 259h264l-33 93q-67 185 -100 289q-23 -74 -41 -127q-8 -23 -20 -58.5t-16 -45.5l-21 -59zM288 896v-103h-84v103h84zM465 896v-103h-84v103h84z" />
    <glyph glyph-name="Aring" unicode="&#xc5;" horiz-adv-x="674" 
d="M563 0l-65 182h-323l-65 -182h-93l253 699q-54 34 -54 98q0 49 36 84q34 34 85 34t86 -34q36 -35 36 -84q0 -64 -54 -98l253 -699h-95zM337 867q-30 0 -49 -19.5t-19 -50.5q0 -30 19.5 -49.5t48.5 -19.5q30 0 49 19t19 50t-19 50.5t-49 19.5zM202 259h269l-33 92l-26 74
q-50 139 -76 223q-28 -91 -88 -260q-8 -22 -13 -37z" />
    <glyph glyph-name="AE" unicode="&#xc6;" horiz-adv-x="962" 
d="M527 77h389v-77h-482v181h-239l-94 -181h-94l369 710h531v-77h-380v-229h353v-77h-353v-250zM235 259h199v385z" />
    <glyph glyph-name="Ccedilla" unicode="&#xc7;" horiz-adv-x="666" 
d="M389 -15l-24 -52q47 2 77 -19.5t30 -58.5q0 -40 -29 -65t-76 -25q-53 0 -108 35l25 42q47 -27 82 -27q24 0 38.5 10.5t14.5 28.5q0 17 -16.5 27t-41.5 10q-16 0 -28 -3l-28 27l33 71q-137 13 -217 115.5t-80 254.5q0 165 91 267.5t251 102.5q69 0 127 -23.5t122 -78.5
l-53 -63q-55 47 -100.5 65.5t-96.5 18.5q-113 0 -180 -80.5t-67 -209.5q0 -128 67 -209t174 -81q58 0 104 23.5t109 80.5l56 -62q-67 -65 -125 -93t-131 -29z" />
    <glyph glyph-name="Egrave" unicode="&#xc8;" horiz-adv-x="609" 
d="M554 710v-77h-380v-229h354v-77h-354v-250h389v-77h-482v710h473zM191 920h96l72 -144h-76z" />
    <glyph glyph-name="Eacute" unicode="&#xc9;" horiz-adv-x="609" 
d="M554 710v-77h-380v-229h354v-77h-354v-250h389v-77h-482v710h473zM448 920l-92 -144h-76l72 144h96z" />
    <glyph glyph-name="Ecircumflex" unicode="&#xca;" horiz-adv-x="609" 
d="M554 710v-77h-380v-229h354v-77h-354v-250h389v-77h-482v710h473zM399 776l-80 101l-80 -101h-74l100 144h108l100 -144h-74z" />
    <glyph glyph-name="Edieresis" unicode="&#xcb;" horiz-adv-x="609" 
d="M554 710v-77h-380v-229h354v-77h-354v-250h389v-77h-482v710h473zM273 896v-103h-84v103h84zM450 896v-103h-84v103h84z" />
    <glyph glyph-name="Igrave" unicode="&#xcc;" horiz-adv-x="270" 
d="M181 710v-710h-93v710h93zM7 920h96l72 -144h-76z" />
    <glyph glyph-name="Iacute" unicode="&#xcd;" horiz-adv-x="270" 
d="M181 710v-710h-93v710h93zM263 920l-92 -144h-76l72 144h96z" />
    <glyph glyph-name="Icircumflex" unicode="&#xce;" horiz-adv-x="270" 
d="M181 710v-710h-93v710h93zM214 776l-80 101l-80 -101h-74l100 144h108l100 -144h-74z" />
    <glyph glyph-name="Idieresis" unicode="&#xcf;" horiz-adv-x="270" 
d="M181 710v-710h-93v710h93zM89 896v-103h-84v103h84zM266 896v-103h-84v103h84z" />
    <glyph glyph-name="Eth" unicode="&#xd0;" horiz-adv-x="730" 
d="M109 710h266q147 0 230.5 -97.5t83.5 -257.5t-83.5 -257.5t-230.5 -97.5h-266v328h-83v77h83v305zM202 77h158q112 0 173.5 73.5t61.5 204.5q0 130 -62 204t-173 74h-158v-228h187v-77h-187v-251z" />
    <glyph glyph-name="Ntilde" unicode="&#xd1;" horiz-adv-x="731" 
d="M560 710h90v-710h-102l-211 323q-23 38 -43 67q-95 146 -128 205q5 -122 5 -276v-319h-90v710h104l213 -328q5 -9 13 -20.5t9 -13.5q61 -95 64 -99q32 -50 80 -132q-4 100 -4 269v324zM306 900q30 0 81 -30q35 -23 56 -23q32 0 32 53h54q0 -51 -22 -81t-59 -30
q-26 0 -77 28q-44 24 -65 24q-34 0 -34 -51h-55q0 51 24.5 80.5t64.5 29.5z" />
    <glyph glyph-name="Ograve" unicode="&#xd2;" horiz-adv-x="757" 
d="M379 726q153 0 245 -104.5t92 -266.5t-92 -266.5t-245 -104.5t-245.5 104.5t-92.5 266.5t92.5 266.5t245.5 104.5zM379 645q-108 0 -176 -81.5t-68 -208.5q0 -128 67.5 -209t176.5 -81t176 80.5t67 209.5q0 128 -67 209t-176 81zM251 920h96l72 -144h-76z" />
    <glyph glyph-name="Oacute" unicode="&#xd3;" horiz-adv-x="757" 
d="M379 726q153 0 245 -104.5t92 -266.5t-92 -266.5t-245 -104.5t-245.5 104.5t-92.5 266.5t92.5 266.5t245.5 104.5zM379 645q-108 0 -176 -81.5t-68 -208.5q0 -128 67.5 -209t176.5 -81t176 80.5t67 209.5q0 128 -67 209t-176 81zM507 920l-92 -144h-76l72 144h96z" />
    <glyph glyph-name="Ocircumflex" unicode="&#xd4;" horiz-adv-x="757" 
d="M379 726q153 0 245 -104.5t92 -266.5t-92 -266.5t-245 -104.5t-245.5 104.5t-92.5 266.5t92.5 266.5t245.5 104.5zM379 645q-108 0 -176 -81.5t-68 -208.5q0 -128 67.5 -209t176.5 -81t176 80.5t67 209.5q0 128 -67 209t-176 81zM459 776l-80 101l-80 -101h-74l100 144
h108l100 -144h-74z" />
    <glyph glyph-name="Otilde" unicode="&#xd5;" horiz-adv-x="757" 
d="M379 726q153 0 245 -104.5t92 -266.5t-92 -266.5t-245 -104.5t-245.5 104.5t-92.5 266.5t92.5 266.5t245.5 104.5zM379 645q-108 0 -176 -81.5t-68 -208.5q0 -128 67.5 -209t176.5 -81t176 80.5t67 209.5q0 128 -67 209t-176 81zM311 900q30 0 81 -30q34 -23 56 -23
q32 0 32 53h54q0 -51 -22 -81t-59 -30q-26 0 -77 28q-44 24 -65 24q-34 0 -34 -51h-55q0 51 24.5 80.5t64.5 29.5z" />
    <glyph glyph-name="Odieresis" unicode="&#xd6;" horiz-adv-x="757" 
d="M379 726q153 0 245 -104.5t92 -266.5t-92 -266.5t-245 -104.5t-245.5 104.5t-92.5 266.5t92.5 266.5t245.5 104.5zM379 645q-108 0 -176 -81.5t-68 -208.5q0 -128 67.5 -209t176.5 -81t176 80.5t67 209.5q0 128 -67 209t-176 81zM333 896v-103h-84v103h84zM510 896v-103
h-84v103h84z" />
    <glyph glyph-name="multiply" unicode="&#xd7;" horiz-adv-x="600" 
d="M529 488l-177 -178l177 -178l-51 -51l-178 177l-178 -177l-52 51l178 178l-178 178l52 52l178 -178l178 178z" />
    <glyph glyph-name="Oslash" unicode="&#xd8;" horiz-adv-x="757" 
d="M685 670l-50 -60q81 -104 81 -255q0 -162 -92 -266.5t-245 -104.5q-121 0 -209 69l-47 -56l-51 43l51 61q-82 101 -82 254q0 162 92.5 266.5t245.5 104.5q123 0 208 -69l47 56zM135 355q0 -108 48 -182l348 416q-62 56 -152 56q-108 0 -176 -81.5t-68 -208.5zM379 65
q109 0 176 80.5t67 209.5q0 106 -47 182l-348 -416q62 -56 152 -56z" />
    <glyph glyph-name="Ugrave" unicode="&#xd9;" horiz-adv-x="688" 
d="M612 710v-484q0 -118 -68 -179.5t-200 -61.5q-131 0 -199 61.5t-68 179.5v484h92v-479q0 -81 44.5 -123t130.5 -42t130.5 42t44.5 123v479h93zM216 920h96l72 -144h-76z" />
    <glyph glyph-name="Uacute" unicode="&#xda;" horiz-adv-x="688" 
d="M612 710v-484q0 -118 -68 -179.5t-200 -61.5q-131 0 -199 61.5t-68 179.5v484h92v-479q0 -81 44.5 -123t130.5 -42t130.5 42t44.5 123v479h93zM472 920l-92 -144h-76l72 144h96z" />
    <glyph glyph-name="Ucircumflex" unicode="&#xdb;" horiz-adv-x="688" 
d="M612 710v-484q0 -118 -68 -179.5t-200 -61.5q-131 0 -199 61.5t-68 179.5v484h92v-479q0 -81 44.5 -123t130.5 -42t130.5 42t44.5 123v479h93zM424 776l-80 101l-80 -101h-74l100 144h108l100 -144h-74z" />
    <glyph glyph-name="Udieresis" unicode="&#xdc;" horiz-adv-x="688" 
d="M612 710v-484q0 -118 -68 -179.5t-200 -61.5q-131 0 -199 61.5t-68 179.5v484h92v-479q0 -81 44.5 -123t130.5 -42t130.5 42t44.5 123v479h93zM298 896v-103h-84v103h84zM475 896v-103h-84v103h84z" />
    <glyph glyph-name="Yacute" unicode="&#xdd;" horiz-adv-x="631" 
d="M516 710h100l-252 -407v-303h-92v304l-250 406h102l196 -325zM447 920l-92 -144h-76l72 144h96z" />
    <glyph glyph-name="Thorn" unicode="&#xde;" horiz-adv-x="651" 
d="M174 581h213q106 0 168.5 -56.5t62.5 -155.5t-62.5 -155.5t-168.5 -56.5h-213v-157h-93v710h93v-129zM174 233h199q72 0 112.5 35.5t40.5 100.5t-40.5 100t-112.5 35h-199v-271z" />
    <glyph glyph-name="germandbls" unicode="&#xdf;" horiz-adv-x="581" 
d="M395 406q70 -21 108.5 -71.5t38.5 -123.5q0 -92 -60 -155.5t-157 -63.5q-50 0 -116 17l14 69q61 -14 96 -14q60 0 98 41t38 107q0 71 -46.5 109.5t-133.5 38.5h-25v68h25q58 0 89 30.5t31 85.5q0 48 -33 78t-85 30q-60 0 -92 -36t-32 -104v-512h-86v519q0 97 57.5 151
t153.5 54q86 0 143.5 -52t57.5 -125q0 -100 -84 -141z" />
    <glyph glyph-name="agrave" unicode="&#xe0;" horiz-adv-x="532" 
d="M266 506q94 0 147 -44.5t53 -119.5v-342h-78v60q-51 -76 -167 -76q-81 0 -128.5 35t-47.5 103q0 79 60 115q59 36 169 56l110 20v25q0 45 -31.5 71t-83.5 26q-45 0 -80.5 -18.5t-81.5 -64.5l-55 49q89 105 214 105zM230 55q67 0 110.5 35.5t43.5 93.5v65l-90 -18
q-92 -19 -126.5 -39t-38.5 -67q0 -34 26.5 -52t74.5 -18zM140 716h96l72 -144h-76z" />
    <glyph glyph-name="aacute" unicode="&#xe1;" horiz-adv-x="532" 
d="M266 506q94 0 147 -44.5t53 -119.5v-342h-78v60q-51 -76 -167 -76q-81 0 -128.5 35t-47.5 103q0 79 60 115q59 36 169 56l110 20v25q0 45 -31.5 71t-83.5 26q-45 0 -80.5 -18.5t-81.5 -64.5l-55 49q89 105 214 105zM230 55q67 0 110.5 35.5t43.5 93.5v65l-90 -18
q-92 -19 -126.5 -39t-38.5 -67q0 -34 26.5 -52t74.5 -18zM396 716l-92 -144h-76l72 144h96z" />
    <glyph glyph-name="acircumflex" unicode="&#xe2;" horiz-adv-x="532" 
d="M266 506q94 0 147 -44.5t53 -119.5v-342h-78v60q-51 -76 -167 -76q-81 0 -128.5 35t-47.5 103q0 79 60 115q59 36 169 56l110 20v25q0 45 -31.5 71t-83.5 26q-45 0 -80.5 -18.5t-81.5 -64.5l-55 49q89 105 214 105zM230 55q67 0 110.5 35.5t43.5 93.5v65l-90 -18
q-92 -19 -126.5 -39t-38.5 -67q0 -34 26.5 -52t74.5 -18zM348 572l-80 101l-80 -101h-74l100 144h108l100 -144h-74z" />
    <glyph glyph-name="atilde" unicode="&#xe3;" horiz-adv-x="532" 
d="M266 506q94 0 147 -44.5t53 -119.5v-342h-78v60q-51 -76 -167 -76q-81 0 -128.5 35t-47.5 103q0 79 60 115q59 36 169 56l110 20v25q0 45 -31.5 71t-83.5 26q-45 0 -80.5 -18.5t-81.5 -64.5l-55 49q89 105 214 105zM230 55q67 0 110.5 35.5t43.5 93.5v65l-90 -18
q-92 -19 -126.5 -39t-38.5 -67q0 -34 26.5 -52t74.5 -18zM201 696q30 0 81 -30q34 -23 56 -23q32 0 32 53h54q0 -51 -22 -81t-59 -30q-26 0 -77 28q-44 24 -65 24q-34 0 -34 -51h-55q0 51 24.5 80.5t64.5 29.5z" />
    <glyph glyph-name="adieresis" unicode="&#xe4;" horiz-adv-x="532" 
d="M266 506q94 0 147 -44.5t53 -119.5v-342h-78v60q-51 -76 -167 -76q-81 0 -128.5 35t-47.5 103q0 79 60 115q59 36 169 56l110 20v25q0 45 -31.5 71t-83.5 26q-45 0 -80.5 -18.5t-81.5 -64.5l-55 49q89 105 214 105zM230 55q67 0 110.5 35.5t43.5 93.5v65l-90 -18
q-92 -19 -126.5 -39t-38.5 -67q0 -34 26.5 -52t74.5 -18zM222 692v-103h-84v103h84zM399 692v-103h-84v103h84z" />
    <glyph glyph-name="aring" unicode="&#xe5;" horiz-adv-x="532" 
d="M266 506q94 0 147 -44.5t53 -119.5v-342h-78v60q-51 -76 -167 -76q-81 0 -128.5 35t-47.5 103q0 79 60 115q59 36 169 56l110 20v25q0 45 -31.5 71t-83.5 26q-45 0 -80.5 -18.5t-81.5 -64.5l-55 49q89 105 214 105zM230 55q67 0 110.5 35.5t43.5 93.5v65l-90 -18
q-92 -19 -126.5 -39t-38.5 -67q0 -34 26.5 -52t74.5 -18zM268 767q44 0 75.5 -30.5t31.5 -73.5t-31.5 -73.5t-75.5 -30.5q-45 0 -76 30.5t-31 73.5q0 44 31 74t76 30zM268 724q-26 0 -43 -17t-17 -44t17 -44t43 -17t42.5 17t16.5 44t-16.5 44t-42.5 17z" />
    <glyph glyph-name="ae" unicode="&#xe6;" horiz-adv-x="881" 
d="M791 140l51 -52q-52 -55 -102.5 -78.5t-112.5 -23.5q-125 0 -193 90q-84 -92 -211 -92q-83 0 -130.5 34.5t-47.5 101.5q0 66 45.5 104t146.5 58l147 28v22q0 103 -112 103q-79 0 -161 -79l-53 52q50 52 101.5 75t116.5 23q125 0 168 -79q62 79 175 79q105 0 163.5 -63
t58.5 -174l-2 -39h-369q4 -77 44.5 -124.5t113.5 -47.5q46 0 80 18q33 17 83 64zM618 438q-60 0 -98 -38t-48 -107h285q-3 67 -39.5 106t-99.5 39zM231 55q106 0 170 82q-15 41 -17 109l-125 -26q-69 -14 -99 -36t-30 -58q0 -35 27 -53t74 -18z" />
    <glyph glyph-name="ccedilla" unicode="&#xe7;" horiz-adv-x="500" 
d="M423 141l56 -48q-44 -56 -87 -80t-100 -27l-25 -53q47 2 77.5 -19.5t30.5 -58.5q0 -40 -29.5 -65t-76.5 -25q-53 0 -108 36l25 41q50 -27 82 -27q24 0 38.5 10.5t14.5 28.5q0 17 -16.5 27t-41.5 10q-16 0 -28 -3l-28 27l34 73q-94 11 -149 80.5t-55 177.5q0 117 66 188.5
t173 71.5q61 0 107 -21.5t90 -72.5l-56 -52q-38 41 -71 57.5t-72 16.5q-73 0 -110 -55q-39 -55 -39 -133t39 -132q39 -55 112 -55q40 0 72.5 17.5t74.5 64.5z" />
    <glyph glyph-name="egrave" unicode="&#xe8;" horiz-adv-x="534" 
d="M444 140l51 -52q-53 -56 -102 -79t-113 -23q-111 0 -177 70.5t-66 186.5t64.5 189.5t170.5 73.5q105 0 163.5 -63t58.5 -174q0 -14 -2 -38h-370q4 -78 45 -125.5t114 -47.5q45 0 80 18q33 17 83 64zM271 437q-60 0 -98 -37t-48 -105h284q-3 66 -39.5 104t-98.5 38z
M148 716h96l72 -144h-76z" />
    <glyph glyph-name="eacute" unicode="&#xe9;" horiz-adv-x="534" 
d="M444 140l51 -52q-53 -56 -102 -79t-113 -23q-111 0 -177 70.5t-66 186.5t64.5 189.5t170.5 73.5q105 0 163.5 -63t58.5 -174q0 -14 -2 -38h-370q4 -78 45 -125.5t114 -47.5q45 0 80 18q33 17 83 64zM271 437q-60 0 -98 -37t-48 -105h284q-3 66 -39.5 104t-98.5 38z
M404 716l-92 -144h-76l72 144h96z" />
    <glyph glyph-name="ecircumflex" unicode="&#xea;" horiz-adv-x="534" 
d="M444 140l51 -52q-53 -56 -102 -79t-113 -23q-111 0 -177 70.5t-66 186.5t64.5 189.5t170.5 73.5q105 0 163.5 -63t58.5 -174q0 -14 -2 -38h-370q4 -78 45 -125.5t114 -47.5q45 0 80 18q33 17 83 64zM271 437q-60 0 -98 -37t-48 -105h284q-3 66 -39.5 104t-98.5 38z
M356 572l-80 101l-80 -101h-74l100 144h108l100 -144h-74z" />
    <glyph glyph-name="edieresis" unicode="&#xeb;" horiz-adv-x="534" 
d="M444 140l51 -52q-53 -56 -102 -79t-113 -23q-111 0 -177 70.5t-66 186.5t64.5 189.5t170.5 73.5q105 0 163.5 -63t58.5 -174q0 -14 -2 -38h-370q4 -78 45 -125.5t114 -47.5q45 0 80 18q33 17 83 64zM271 437q-60 0 -98 -37t-48 -105h284q-3 66 -39.5 104t-98.5 38z
M230 692v-103h-84v103h84zM407 692v-103h-84v103h84z" />
    <glyph glyph-name="igrave" unicode="&#xec;" horiz-adv-x="220" 
d="M153 492v-492h-86v492h86zM-18 716h96l72 -144h-76z" />
    <glyph glyph-name="iacute" unicode="&#xed;" horiz-adv-x="220" 
d="M153 492v-492h-86v492h86zM239 716l-92 -144h-76l72 144h96z" />
    <glyph glyph-name="icircumflex" unicode="&#xee;" horiz-adv-x="220" 
d="M153 492v-492h-86v492h86zM190 572l-80 101l-80 -101h-74l100 144h108l100 -144h-74z" />
    <glyph glyph-name="idieresis" unicode="&#xef;" horiz-adv-x="220" 
d="M153 492v-492h-86v492h86zM64 692v-103h-84v103h84zM241 692v-103h-84v103h84z" />
    <glyph glyph-name="eth" unicode="&#xf0;" horiz-adv-x="569" 
d="M448 665l-69 -44q140 -110 140 -328q0 -143 -65 -226t-179 -83q-106 0 -172 73t-66 175q0 101 61 172.5t158 71.5q59 0 105.5 -26.5t74.5 -73.5q-10 66 -40 114t-86 86l-104 -67l-30 44l83 53q-30 15 -72 32l-46 18l32 67l43 -16q67 -23 116 -54l86 56zM275 59
q66 0 108 49.5t42 122.5q0 71 -45 121t-111 50t-105 -49q-40 -49 -40 -122q0 -72 41 -122t110 -50z" />
    <glyph glyph-name="ntilde" unicode="&#xf1;" horiz-adv-x="545" 
d="M303 506q84 0 130 -47t46 -122v-337h-86v310q0 60 -29 91.5t-84 31.5q-54 0 -90.5 -36.5t-36.5 -91.5v-305h-86v492h81v-64q49 78 155 78zM206 696q30 0 81 -30q34 -23 56 -23q32 0 32 53h54q0 -51 -22 -81t-59 -30q-26 0 -77 28q-43 24 -65 24q-34 0 -34 -51h-55
q0 51 24.5 80.5t64.5 29.5z" />
    <glyph glyph-name="ograve" unicode="&#xf2;" horiz-adv-x="561" 
d="M280 506q107 0 175.5 -72.5t68.5 -187.5t-68.5 -187.5t-175.5 -72.5t-175 72.5t-68 187.5t68 187.5t175 72.5zM280 434q-71 0 -113 -51.5t-42 -136.5t42 -136.5t113 -51.5t113.5 52t42.5 136t-42.5 136t-113.5 52zM150 716h96l72 -144h-76z" />
    <glyph glyph-name="oacute" unicode="&#xf3;" horiz-adv-x="561" 
d="M280 506q107 0 175.5 -72.5t68.5 -187.5t-68.5 -187.5t-175.5 -72.5t-175 72.5t-68 187.5t68 187.5t175 72.5zM280 434q-71 0 -113 -51.5t-42 -136.5t42 -136.5t113 -51.5t113.5 52t42.5 136t-42.5 136t-113.5 52zM407 716l-92 -144h-76l72 144h96z" />
    <glyph glyph-name="ocircumflex" unicode="&#xf4;" horiz-adv-x="561" 
d="M280 506q107 0 175.5 -72.5t68.5 -187.5t-68.5 -187.5t-175.5 -72.5t-175 72.5t-68 187.5t68 187.5t175 72.5zM280 434q-71 0 -113 -51.5t-42 -136.5t42 -136.5t113 -51.5t113.5 52t42.5 136t-42.5 136t-113.5 52zM358 572l-80 101l-80 -101h-74l100 144h108l100 -144
h-74z" />
    <glyph glyph-name="otilde" unicode="&#xf5;" horiz-adv-x="561" 
d="M280 506q107 0 175.5 -72.5t68.5 -187.5t-68.5 -187.5t-175.5 -72.5t-175 72.5t-68 187.5t68 187.5t175 72.5zM280 434q-71 0 -113 -51.5t-42 -136.5t42 -136.5t113 -51.5t113.5 52t42.5 136t-42.5 136t-113.5 52zM211 696q30 0 81 -30q34 -23 56 -23q32 0 32 53h54
q0 -51 -22 -81t-59 -30q-26 0 -77 28q-43 24 -65 24q-34 0 -34 -51h-55q0 51 24.5 80.5t64.5 29.5z" />
    <glyph glyph-name="odieresis" unicode="&#xf6;" horiz-adv-x="561" 
d="M280 506q107 0 175.5 -72.5t68.5 -187.5t-68.5 -187.5t-175.5 -72.5t-175 72.5t-68 187.5t68 187.5t175 72.5zM280 434q-71 0 -113 -51.5t-42 -136.5t42 -136.5t113 -51.5t113.5 52t42.5 136t-42.5 136t-113.5 52zM232 692v-103h-84v103h84zM409 692v-103h-84v103h84z
" />
    <glyph glyph-name="divide" unicode="&#xf7;" horiz-adv-x="600" 
d="M351 543v-109h-102v109h102zM560 347v-74h-520v74h520zM351 186v-109h-102v109h102z" />
    <glyph glyph-name="oslash" unicode="&#xf8;" horiz-adv-x="561" 
d="M480 483l-30 -43q74 -72 74 -194q0 -115 -68.5 -187.5t-175.5 -72.5q-69 0 -125 32l-28 -40l-48 35l29 42q-71 74 -71 191q0 115 68 187.5t175 72.5q68 0 123 -30l29 41zM125 246q0 -72 32 -122l202 289q-33 21 -79 21q-71 0 -113 -51.5t-42 -136.5zM280 58
q71 0 113.5 52t42.5 136q0 76 -34 125l-203 -290q35 -23 81 -23z" />
    <glyph glyph-name="ugrave" unicode="&#xf9;" horiz-adv-x="537" 
d="M384 492h86v-492h-80v61q-45 -75 -149 -75q-87 0 -131 43t-44 118v345h86v-324q0 -108 103 -108q58 0 93.5 35t35.5 97v300zM132 716h96l72 -144h-76z" />
    <glyph glyph-name="uacute" unicode="&#xfa;" horiz-adv-x="537" 
d="M384 492h86v-492h-80v61q-45 -75 -149 -75q-87 0 -131 43t-44 118v345h86v-324q0 -108 103 -108q58 0 93.5 35t35.5 97v300zM389 716l-92 -144h-76l72 144h96z" />
    <glyph glyph-name="ucircumflex" unicode="&#xfb;" horiz-adv-x="537" 
d="M384 492h86v-492h-80v61q-45 -75 -149 -75q-87 0 -131 43t-44 118v345h86v-324q0 -108 103 -108q58 0 93.5 35t35.5 97v300zM340 572l-80 101l-80 -101h-74l100 144h108l100 -144h-74z" />
    <glyph glyph-name="udieresis" unicode="&#xfc;" horiz-adv-x="537" 
d="M384 492h86v-492h-80v61q-45 -75 -149 -75q-87 0 -131 43t-44 118v345h86v-324q0 -108 103 -108q58 0 93.5 35t35.5 97v300zM214 692v-103h-84v103h84zM391 692v-103h-84v103h84z" />
    <glyph glyph-name="yacute" unicode="&#xfd;" horiz-adv-x="484" 
d="M379 492h87l-197 -560q-25 -70 -56 -97.5t-92 -27.5q-43 0 -76 10l15 66q27 -6 53 -6q31 0 49.5 17t33.5 61l6 18l-185 519h91l55 -163q56 -166 67 -199l14 -42l22 66q25 80 58 177zM369 716l-92 -144h-76l72 144h96z" />
    <glyph glyph-name="thorn" unicode="&#xfe;" horiz-adv-x="572" 
d="M316 505q95 0 156 -72t61 -186q0 -116 -61 -188t-156 -72q-111 0 -163 78v-245h-86v890h86v-286q55 81 163 81zM303 61q64 0 103 51t39 135t-38.5 134.5t-103.5 50.5q-69 0 -111 -50t-42 -135q0 -86 42 -136t111 -50z" />
    <glyph glyph-name="ydieresis" unicode="&#xff;" horiz-adv-x="484" 
d="M379 492h87l-197 -560q-25 -70 -56 -97.5t-92 -27.5q-43 0 -76 10l15 66q27 -6 53 -6q31 0 49.5 17t33.5 61l6 18l-185 519h91l55 -163q56 -166 67 -199l14 -42l22 66q25 80 58 177zM194 692v-103h-84v103h84zM371 692v-103h-84v103h84z" />
    <glyph glyph-name="Amacron" unicode="&#x100;" horiz-adv-x="669" 
d="M558 0l-65 181h-318l-65 -181h-93l257 710h121l258 -710h-95zM202 259h264l-33 93q-67 185 -100 289q-23 -74 -41 -127q-8 -23 -20 -58.5t-16 -45.5l-21 -59zM473 864v-66h-279v66h279z" />
    <glyph glyph-name="amacron" unicode="&#x101;" horiz-adv-x="532" 
d="M266 506q94 0 147 -44.5t53 -119.5v-342h-78v60q-51 -76 -167 -76q-81 0 -128.5 35t-47.5 103q0 79 60 115q59 36 169 56l110 20v25q0 45 -31.5 71t-83.5 26q-45 0 -80.5 -18.5t-81.5 -64.5l-55 49q89 105 214 105zM230 55q67 0 110.5 35.5t43.5 93.5v65l-90 -18
q-92 -19 -126.5 -39t-38.5 -67q0 -34 26.5 -52t74.5 -18zM408 660v-66h-279v66h279z" />
    <glyph glyph-name="Abreve" unicode="&#x102;" horiz-adv-x="669" 
d="M558 0l-65 181h-318l-65 -181h-93l257 710h121l258 -710h-95zM202 259h264l-33 93q-67 185 -100 289q-23 -74 -41 -127q-8 -23 -20 -58.5t-16 -45.5l-21 -59zM334 775q-65 0 -104.5 35.5t-39.5 95.5h68q0 -35 19.5 -56.5t56.5 -21.5t56 21.5t19 56.5h68
q0 -60 -39.5 -95.5t-103.5 -35.5z" />
    <glyph glyph-name="abreve" unicode="&#x103;" horiz-adv-x="532" 
d="M266 506q94 0 147 -44.5t53 -119.5v-342h-78v60q-51 -76 -167 -76q-81 0 -128.5 35t-47.5 103q0 79 60 115q59 36 169 56l110 20v25q0 45 -31.5 71t-83.5 26q-45 0 -80.5 -18.5t-81.5 -64.5l-55 49q89 105 214 105zM230 55q67 0 110.5 35.5t43.5 93.5v65l-90 -18
q-92 -19 -126.5 -39t-38.5 -67q0 -34 26.5 -52t74.5 -18zM268 571q-65 0 -104.5 35.5t-39.5 95.5h68q0 -35 19.5 -56.5t56.5 -21.5t56 21.5t19 56.5h68q0 -60 -39.5 -95.5t-103.5 -35.5z" />
    <glyph glyph-name="Aogonek" unicode="&#x104;" horiz-adv-x="669" 
d="M573 -110q0 -42 51 -42q16 0 26 3v-54q-14 -6 -38 -6q-47 0 -74.5 22t-27.5 62q0 67 72 125h-24l-65 181h-318l-65 -181h-93l257 710h121l258 -710q-80 -54 -80 -110zM202 259h264l-33 93q-67 185 -100 289q-23 -74 -41 -127q-8 -23 -20 -58.5t-16 -45.5l-21 -59z" />
    <glyph glyph-name="aogonek" unicode="&#x105;" horiz-adv-x="532" 
d="M466 342v-342q-79 -54 -79 -110q0 -42 51 -42q15 0 26 3v-54q-14 -6 -38 -6q-47 0 -74.5 22t-27.5 62q0 67 72 125h-8v60q-51 -76 -167 -76q-81 0 -128.5 35t-47.5 103q0 79 60 115q59 36 169 56l110 20v25q0 45 -31.5 71t-83.5 26q-45 0 -80.5 -18.5t-81.5 -64.5l-55 49
q89 105 214 105q94 0 147 -44.5t53 -119.5zM230 55q67 0 110.5 35.5t43.5 93.5v65l-90 -18q-92 -19 -126.5 -39t-38.5 -67q0 -34 26.5 -52t74.5 -18z" />
    <glyph glyph-name="Cacute" unicode="&#x106;" horiz-adv-x="666" 
d="M383 726q69 0 127 -23.5t122 -78.5l-53 -63q-55 47 -100.5 65.5t-96.5 18.5q-113 0 -180 -80.5t-67 -209.5q0 -128 67 -209t174 -81q58 0 104 23.5t109 80.5l56 -62q-68 -67 -129 -95t-138 -28q-155 0 -246 103.5t-91 268.5t91 267.5t251 102.5zM511 920l-92 -144h-76
l72 144h96z" />
    <glyph glyph-name="cacute" unicode="&#x107;" horiz-adv-x="500" 
d="M473 412l-56 -52q-38 41 -71 57.5t-72 16.5q-73 0 -110 -55q-39 -55 -39 -133t39 -132q39 -55 112 -55q40 0 72.5 17.5t74.5 64.5l56 -48q-48 -59 -94 -83t-109 -24q-108 0 -173.5 71t-65.5 189q0 117 66 188.5t173 71.5q61 0 107 -21.5t90 -72.5zM401 716l-92 -144h-76
l72 144h96z" />
    <glyph glyph-name="Cdotaccent" unicode="&#x10a;" horiz-adv-x="666" 
d="M383 726q69 0 127 -23.5t122 -78.5l-53 -63q-55 47 -100.5 65.5t-96.5 18.5q-113 0 -180 -80.5t-67 -209.5q0 -128 67 -209t174 -81q58 0 104 23.5t109 80.5l56 -62q-68 -67 -129 -95t-138 -28q-155 0 -246 103.5t-91 268.5t91 267.5t251 102.5zM425 896v-103h-86v103h86
z" />
    <glyph glyph-name="cdotaccent" unicode="&#x10b;" horiz-adv-x="500" 
d="M473 412l-56 -52q-38 41 -71 57.5t-72 16.5q-73 0 -110 -55q-39 -55 -39 -133t39 -132q39 -55 112 -55q40 0 72.5 17.5t74.5 64.5l56 -48q-48 -59 -94 -83t-109 -24q-108 0 -173.5 71t-65.5 189q0 117 66 188.5t173 71.5q61 0 107 -21.5t90 -72.5zM316 692v-103h-86v103
h86z" />
    <glyph glyph-name="Ccaron" unicode="&#x10c;" horiz-adv-x="666" 
d="M383 726q69 0 127 -23.5t122 -78.5l-53 -63q-55 47 -100.5 65.5t-96.5 18.5q-113 0 -180 -80.5t-67 -209.5q0 -128 67 -209t174 -81q58 0 104 23.5t109 80.5l56 -62q-68 -67 -129 -95t-138 -28q-155 0 -246 103.5t-91 268.5t91 267.5t251 102.5zM536 920l-100 -144h-108
l-100 144h74l80 -102l80 102h74z" />
    <glyph glyph-name="ccaron" unicode="&#x10d;" horiz-adv-x="500" 
d="M473 412l-56 -52q-38 41 -71 57.5t-72 16.5q-73 0 -110 -55q-39 -55 -39 -133t39 -132q39 -55 112 -55q40 0 72.5 17.5t74.5 64.5l56 -48q-48 -59 -94 -83t-109 -24q-108 0 -173.5 71t-65.5 189q0 117 66 188.5t173 71.5q61 0 107 -21.5t90 -72.5zM427 716l-100 -144
h-108l-100 144h74l80 -102l80 102h74z" />
    <glyph glyph-name="Dcaron" unicode="&#x10e;" horiz-adv-x="702" 
d="M81 710h266q147 0 230.5 -97.5t83.5 -257.5t-83.5 -257.5t-230.5 -97.5h-266v710zM332 633h-158v-556h158q112 0 173.5 73.5t61.5 204.5q0 130 -62 204t-173 74zM499 920l-100 -144h-108l-100 144h74l80 -102l80 102h74z" />
    <glyph glyph-name="dcaron" unicode="&#x10f;" horiz-adv-x="716" 
d="M417 710h86v-710h-81v77q-54 -90 -168 -90q-95 0 -156 72t-61 187t62 187t157 72q107 0 161 -79v284zM267 60q69 0 111 50.5t42 135.5t-42 135t-111 50q-64 0 -103 -51t-39 -134q0 -84 38.5 -135t103.5 -51zM704 710l-61 -198h-55l30 198h86z" />
    <glyph glyph-name="Dcroat" unicode="&#x110;" horiz-adv-x="730" 
d="M109 710h266q147 0 230.5 -97.5t83.5 -257.5t-83.5 -257.5t-230.5 -97.5h-266v328h-83v77h83v305zM202 77h158q112 0 173.5 73.5t61.5 204.5q0 130 -62 204t-173 74h-158v-228h187v-77h-187v-251z" />
    <glyph glyph-name="dslash" unicode="&#x111;" horiz-adv-x="598" 
d="M581 628v-62h-77v-566h-79v77q-55 -90 -169 -90q-95 0 -156 71.5t-61 185.5t62 185.5t157 71.5q107 0 160 -77v142h-128v62h128v82h86v-82h77zM269 60q69 0 111 50t42 134t-42 134t-111 50q-64 0 -103 -50.5t-39 -133.5q0 -82 38.5 -133t103.5 -51z" />
    <glyph glyph-name="Emacron" unicode="&#x112;" horiz-adv-x="609" 
d="M554 710v-77h-380v-229h354v-77h-354v-250h389v-77h-482v710h473zM459 864v-66h-279v66h279z" />
    <glyph glyph-name="emacron" unicode="&#x113;" horiz-adv-x="534" 
d="M444 140l51 -52q-53 -56 -102 -79t-113 -23q-111 0 -177 70.5t-66 186.5t64.5 189.5t170.5 73.5q105 0 163.5 -63t58.5 -174q0 -14 -2 -38h-370q4 -78 45 -125.5t114 -47.5q45 0 80 18q33 17 83 64zM271 437q-60 0 -98 -37t-48 -105h284q-3 66 -39.5 104t-98.5 38z
M416 660v-66h-279v66h279z" />
    <glyph glyph-name="Edotaccent" unicode="&#x116;" horiz-adv-x="609" 
d="M554 710v-77h-380v-229h354v-77h-354v-250h389v-77h-482v710h473zM362 896v-103h-86v103h86z" />
    <glyph glyph-name="edotaccent" unicode="&#x117;" horiz-adv-x="534" 
d="M444 140l51 -52q-53 -56 -102 -79t-113 -23q-111 0 -177 70.5t-66 186.5t64.5 189.5t170.5 73.5q105 0 163.5 -63t58.5 -174q0 -14 -2 -38h-370q4 -78 45 -125.5t114 -47.5q45 0 80 18q33 17 83 64zM271 437q-60 0 -98 -37t-48 -105h284q-3 66 -39.5 104t-98.5 38z
M319 692v-103h-86v103h86z" />
    <glyph glyph-name="Eogonek" unicode="&#x118;" horiz-adv-x="609" 
d="M563 77v-77q-80 -56 -80 -110q0 -42 51 -42q16 0 26 3v-54q-13 -6 -38 -6q-46 0 -73.5 22.5t-27.5 61.5q0 66 71 125h-411v710h473v-77h-380v-229h354v-77h-354v-250h389z" />
    <glyph glyph-name="eogonek" unicode="&#x119;" horiz-adv-x="534" 
d="M404 -209q-49 0 -78 23.5t-29 66.5q0 57 47 112q-27 -7 -64 -7q-111 0 -177 70.5t-66 186.5t64.5 189.5t170.5 73.5q105 0 163.5 -63t58.5 -174q0 -14 -2 -38h-370q6 -78 46.5 -125.5t112.5 -47.5q45 0 80 18q33 17 83 64l51 -52q-19 -21 -45 -43q-89 -82 -89 -150
q0 -47 54 -47q17 0 27 3v-55q-13 -5 -38 -5zM125 295h283q-2 66 -38.5 104t-98.5 38q-60 0 -98 -36.5t-48 -105.5z" />
    <glyph glyph-name="Ecaron" unicode="&#x11a;" horiz-adv-x="609" 
d="M554 710v-77h-380v-229h354v-77h-354v-250h389v-77h-482v710h473zM473 920l-100 -144h-108l-100 144h74l80 -102l80 102h74z" />
    <glyph glyph-name="ecaron" unicode="&#x11b;" horiz-adv-x="534" 
d="M444 140l51 -52q-53 -56 -102 -79t-113 -23q-111 0 -177 70.5t-66 186.5t64.5 189.5t170.5 73.5q105 0 163.5 -63t58.5 -174q0 -14 -2 -38h-370q4 -78 45 -125.5t114 -47.5q45 0 80 18q33 17 83 64zM271 437q-60 0 -98 -37t-48 -105h284q-3 66 -39.5 104t-98.5 38z
M430 716l-100 -144h-108l-100 144h74l80 -102l80 102h74z" />
    <glyph glyph-name="Gbreve" unicode="&#x11e;" horiz-adv-x="741" 
d="M362 294v78h313v-372h-72l-7 91q-65 -106 -222 -106q-154 0 -243.5 102t-89.5 268q0 162 93.5 266t250.5 104q86 0 155 -32.5t136 -102.5l-59 -60q-64 62 -115.5 88t-117.5 26q-112 0 -180.5 -79.5t-68.5 -209.5q0 -133 65.5 -211.5t178.5 -78.5q95 0 152.5 54.5
t57.5 146.5v28h-227zM384 775q-65 0 -104.5 35.5t-39.5 95.5h68q0 -35 19.5 -56.5t56.5 -21.5t56 21.5t19 56.5h68q0 -60 -39.5 -95.5t-103.5 -35.5z" />
    <glyph glyph-name="gbreve" unicode="&#x11f;" horiz-adv-x="565" 
d="M418 492h80v-481q0 -95 -60 -149.5t-163 -54.5q-120 0 -223 73l43 63q54 -34 94 -48.5t85 -14.5q65 0 102 34.5t37 103.5v68q-51 -80 -157 -80q-94 0 -155 70.5t-61 179.5t61 179.5t155 70.5q111 0 162 -86v72zM270 79q65 0 105 49.5t40 127.5t-40 127.5t-105 49.5
t-103.5 -48.5t-38.5 -128.5t38.5 -128.5t103.5 -48.5zM283 571q-65 0 -104.5 35.5t-39.5 95.5h68q0 -35 19.5 -56.5t56.5 -21.5t56 21.5t19 56.5h68q0 -60 -39.5 -95.5t-103.5 -35.5z" />
    <glyph glyph-name="Gdotaccent" unicode="&#x120;" horiz-adv-x="741" 
d="M362 294v78h313v-372h-72l-7 91q-65 -106 -222 -106q-154 0 -243.5 102t-89.5 268q0 162 93.5 266t250.5 104q86 0 155 -32.5t136 -102.5l-59 -60q-64 62 -115.5 88t-117.5 26q-112 0 -180.5 -79.5t-68.5 -209.5q0 -133 65.5 -211.5t178.5 -78.5q95 0 152.5 54.5
t57.5 146.5v28h-227zM427 896v-103h-86v103h86z" />
    <glyph glyph-name="gdotaccent" unicode="&#x121;" horiz-adv-x="565" 
d="M418 492h80v-481q0 -95 -60 -149.5t-163 -54.5q-120 0 -223 73l43 63q54 -34 94 -48.5t85 -14.5q65 0 102 34.5t37 103.5v68q-51 -80 -157 -80q-94 0 -155 70.5t-61 179.5t61 179.5t155 70.5q111 0 162 -86v72zM270 79q65 0 105 49.5t40 127.5t-40 127.5t-105 49.5
t-103.5 -48.5t-38.5 -128.5t38.5 -128.5t103.5 -48.5zM326 692v-103h-86v103h86z" />
    <glyph glyph-name="Gcommaaccent" unicode="&#x122;" horiz-adv-x="741" 
d="M362 294v78h313v-372h-72l-7 91q-65 -106 -222 -106q-154 0 -243.5 102t-89.5 268q0 162 93.5 266t250.5 104q86 0 155 -32.5t136 -102.5l-59 -60q-64 62 -115.5 88t-117.5 26q-112 0 -180.5 -79.5t-68.5 -209.5q0 -133 65.5 -211.5t178.5 -78.5q95 0 152.5 54.5
t57.5 146.5v28h-227zM427 -73v-86l-57 -94h-48l52 94h-47v86h100z" />
    <glyph glyph-name="gcommaaccent" unicode="&#x123;" horiz-adv-x="565" 
d="M418 492h80v-481q0 -95 -60 -149.5t-163 -54.5q-120 0 -223 73l43 63q54 -34 94 -48.5t85 -14.5q65 0 102 34.5t37 103.5v68q-51 -80 -157 -80q-94 0 -155 70.5t-61 179.5t61 179.5t155 70.5q111 0 162 -86v72zM270 79q65 0 105 49.5t40 127.5t-40 127.5t-105 49.5
t-103.5 -48.5t-38.5 -128.5t38.5 -128.5t103.5 -48.5zM230 587v88l57 100h48l-51 -100h47v-88h-101z" />
    <glyph glyph-name="Hbar" unicode="&#x126;" horiz-adv-x="780" 
d="M750 599v-66h-77v-533h-92v330h-382v-330h-92v533h-77v66h77v111h92v-111h382v111h92v-111h77zM581 407v126h-382v-126h382z" />
    <glyph glyph-name="hbar" unicode="&#x127;" horiz-adv-x="571" 
d="M330 503q84 0 130 -47t46 -122v-334h-86v306q0 60 -29.5 91.5t-84.5 31.5q-52 0 -89 -37t-37 -91v-301h-86v566h-77v62h77v82h86v-82h127v-62h-127v-139q48 76 150 76z" />
    <glyph glyph-name="Imacron" unicode="&#x12a;" horiz-adv-x="270" 
d="M181 710v-710h-93v710h93zM274 864v-66h-279v66h279z" />
    <glyph glyph-name="imacron" unicode="&#x12b;" horiz-adv-x="220" 
d="M153 492v-492h-86v492h86zM250 660v-66h-279v66h279z" />
    <glyph glyph-name="Iogonek" unicode="&#x12e;" horiz-adv-x="270" 
d="M181 710v-710q-80 -56 -80 -110q0 -42 51 -42q16 0 27 3v-54q-13 -6 -39 -6q-46 0 -73.5 22.5t-27.5 61.5q0 66 71 125h-22v710h93z" />
    <glyph glyph-name="iogonek" unicode="&#x12f;" horiz-adv-x="220" 
d="M67 692h86v-103h-86v103zM67 0v492h86v-492q-80 -56 -80 -110q0 -42 51 -42q16 0 27 3v-54q-13 -6 -39 -6q-46 0 -73.5 22.5t-27.5 61.5q0 66 71 125h-15z" />
    <glyph glyph-name="Idot" unicode="&#x130;" horiz-adv-x="270" 
d="M181 710v-710h-93v710h93zM177 896v-103h-86v103h86z" />
    <glyph glyph-name="dotlessi" unicode="&#x131;" horiz-adv-x="220" 
d="M153 492v-492h-86v492h86z" />
    <glyph glyph-name="IJ" unicode="&#x132;" horiz-adv-x="732" 
d="M181 710v-710h-93v710h93zM655 710v-527q0 -195 -192 -195q-92 0 -181 47l32 72q90 -38 146 -38q103 0 103 122v519h92z" />
    <glyph glyph-name="ij" unicode="&#x133;" horiz-adv-x="444" 
d="M153 692v-103h-86v103h86zM376 692v-103h-86v103h86zM153 492v-492h-86v492h86zM142 -177l17 66q36 -10 68 -10q35 0 49 19.5t14 63.5v530h86v-530q0 -154 -139 -154q-47 0 -95 15z" />
    <glyph glyph-name="Kcommaaccent" unicode="&#x136;" horiz-adv-x="656" 
d="M544 0l-243 366l-127 -130v-236h-93v710h93v-363l346 363h114l-271 -279l286 -431h-105zM396 -73v-86l-57 -94h-48l52 94h-47v86h100z" />
    <glyph glyph-name="kcommaaccent" unicode="&#x137;" horiz-adv-x="508" 
d="M407 0l-165 247l-89 -90v-157h-86v710h86v-456l228 238h101l-181 -189l201 -303h-95zM322 -73v-86l-57 -94h-48l52 94h-47v86h100z" />
    <glyph glyph-name="Lacute" unicode="&#x139;" horiz-adv-x="533" 
d="M174 710v-632h332v-78h-425v710h93zM257 920l-92 -144h-76l72 144h96z" />
    <glyph glyph-name="lacute" unicode="&#x13a;" horiz-adv-x="226" 
d="M156 710v-710h-86v710h86zM240 910l-92 -144h-76l72 144h96z" />
    <glyph glyph-name="Lcommaaccent" unicode="&#x13b;" horiz-adv-x="533" 
d="M174 710v-632h332v-78h-425v710h93zM349 -73v-86l-57 -94h-48l52 94h-47v86h100z" />
    <glyph glyph-name="lcommaaccent" unicode="&#x13c;" horiz-adv-x="226" 
d="M156 710v-710h-86v710h86zM164 -73v-86l-57 -94h-48l52 94h-47v86h100z" />
    <glyph glyph-name="Lcaron" unicode="&#x13d;" horiz-adv-x="533" 
d="M174 710v-632h332v-78h-425v710h93zM380 710l-61 -198h-55l30 198h86z" />
    <glyph glyph-name="lcaron" unicode="&#x13e;" horiz-adv-x="370" 
d="M156 710v-710h-86v710h86zM359 710l-61 -198h-55l30 198h86z" />
    <glyph glyph-name="Ldot" unicode="&#x13f;" horiz-adv-x="533" 
d="M174 710v-632h332v-78h-425v710h93zM434 422v-108h-102v108h102z" />
    <glyph glyph-name="ldot" unicode="&#x140;" horiz-adv-x="396" 
d="M156 710v-710h-86v710h86zM357 367v-108h-102v108h102z" />
    <glyph glyph-name="Lslash" unicode="&#x141;" horiz-adv-x="566" 
d="M204 78h334v-78h-427v291l-84 -47v80l84 47v339h93v-292l153 85v-79l-153 -86v-260z" />
    <glyph glyph-name="lslash" unicode="&#x142;" horiz-adv-x="342" 
d="M305 496v-75l-88 -52v-369h-86v319l-94 -55v75l94 55v316h86v-266z" />
    <glyph glyph-name="Nacute" unicode="&#x143;" horiz-adv-x="731" 
d="M560 710h90v-710h-102l-211 323q-23 38 -43 67q-95 146 -128 205q5 -122 5 -276v-319h-90v710h104l213 -328q5 -9 13 -20.5t9 -13.5q61 -95 64 -99q32 -50 80 -132q-4 100 -4 269v324zM502 920l-92 -144h-76l72 144h96z" />
    <glyph glyph-name="nacute" unicode="&#x144;" horiz-adv-x="545" 
d="M303 506q84 0 130 -47t46 -122v-337h-86v310q0 60 -29 91.5t-84 31.5q-54 0 -90.5 -36.5t-36.5 -91.5v-305h-86v492h81v-64q49 78 155 78zM401 716l-92 -144h-76l72 144h96z" />
    <glyph glyph-name="Ncommaaccent" unicode="&#x145;" horiz-adv-x="731" 
d="M560 710h90v-710h-102l-211 323q-23 38 -43 67q-95 146 -128 205q5 -122 5 -276v-319h-90v710h104l213 -328q5 -9 13 -20.5t9 -13.5q61 -95 64 -99q32 -50 80 -132q-4 100 -4 269v324zM417 -73v-86l-57 -94h-48l52 94h-47v86h100z" />
    <glyph glyph-name="ncommaaccent" unicode="&#x146;" horiz-adv-x="545" 
d="M303 506q84 0 130 -47t46 -122v-337h-86v310q0 60 -29 91.5t-84 31.5q-54 0 -90.5 -36.5t-36.5 -91.5v-305h-86v492h81v-64q49 78 155 78zM320 -73v-86l-57 -94h-48l52 94h-47v86h100z" />
    <glyph glyph-name="Ncaron" unicode="&#x147;" horiz-adv-x="731" 
d="M560 710h90v-710h-102l-211 323q-23 38 -43 67q-95 146 -128 205q5 -122 5 -276v-319h-90v710h104l213 -328q5 -9 13 -20.5t9 -13.5q61 -95 64 -99q32 -50 80 -132q-4 100 -4 269v324zM527 920l-100 -144h-108l-100 144h74l80 -102l80 102h74z" />
    <glyph glyph-name="ncaron" unicode="&#x148;" horiz-adv-x="545" 
d="M303 506q84 0 130 -47t46 -122v-337h-86v310q0 60 -29 91.5t-84 31.5q-54 0 -90.5 -36.5t-36.5 -91.5v-305h-86v492h81v-64q49 78 155 78zM427 716l-100 -144h-108l-100 144h74l80 -102l80 102h74z" />
    <glyph glyph-name="Eng" unicode="&#x14a;" horiz-adv-x="731" 
d="M560 710h90v-754q0 -153 -144 -153q-48 0 -107 18l19 72q48 -14 77 -14q36 0 52.5 20t16.5 62v13l-227 349l-16 25q-94 146 -154 245q4 -77 4 -274v-319h-90v710h103l214 -328l20 -31q106 -165 146 -235q-4 100 -4 270v324z" />
    <glyph glyph-name="eng" unicode="&#x14b;" horiz-adv-x="546" 
d="M303 506q84 0 130 -47t46 -122v-375q0 -154 -139 -154q-46 0 -96 15l18 66q36 -10 68 -10q35 0 49 19.5t14 63.5v348q0 60 -29 91.5t-84 31.5q-54 0 -90.5 -36.5t-36.5 -91.5v-305h-86v492h81v-64q49 78 155 78z" />
    <glyph glyph-name="Omacron" unicode="&#x14c;" horiz-adv-x="757" 
d="M379 726q153 0 245 -104.5t92 -266.5t-92 -266.5t-245 -104.5t-245.5 104.5t-92.5 266.5t92.5 266.5t245.5 104.5zM379 645q-108 0 -176 -81.5t-68 -208.5q0 -128 67.5 -209t176.5 -81t176 80.5t67 209.5q0 128 -67 209t-176 81zM518 864v-66h-279v66h279z" />
    <glyph glyph-name="omacron" unicode="&#x14d;" horiz-adv-x="561" 
d="M280 506q107 0 175.5 -72.5t68.5 -187.5t-68.5 -187.5t-175.5 -72.5t-175 72.5t-68 187.5t68 187.5t175 72.5zM280 434q-71 0 -113 -51.5t-42 -136.5t42 -136.5t113 -51.5t113.5 52t42.5 136t-42.5 136t-113.5 52zM418 660v-66h-279v66h279z" />
    <glyph glyph-name="Ohungarumlaut" unicode="&#x150;" horiz-adv-x="757" 
d="M379 726q153 0 245 -104.5t92 -266.5t-92 -266.5t-245 -104.5t-245.5 104.5t-92.5 266.5t92.5 266.5t245.5 104.5zM379 645q-108 0 -176 -81.5t-68 -208.5q0 -128 67.5 -209t176.5 -81t176 80.5t67 209.5q0 128 -67 209t-176 81zM429 920l-93 -145h-66l72 145h87z
M584 920l-94 -145h-67l74 145h87z" />
    <glyph glyph-name="ohungarumlaut" unicode="&#x151;" horiz-adv-x="561" 
d="M280 506q107 0 175.5 -72.5t68.5 -187.5t-68.5 -187.5t-175.5 -72.5t-175 72.5t-68 187.5t68 187.5t175 72.5zM280 434q-71 0 -113 -51.5t-42 -136.5t42 -136.5t113 -51.5t113.5 52t42.5 136t-42.5 136t-113.5 52zM328 716l-93 -145h-66l72 145h87zM483 716l-94 -145h-67
l74 145h87z" />
    <glyph glyph-name="OE" unicode="&#x152;" horiz-adv-x="1150" 
d="M715 77h389v-77h-482v107q-86 -123 -245 -123q-153 0 -244.5 104t-91.5 267t91.5 267t244.5 104q159 0 245 -123v107h473v-77h-380v-229h353v-77h-353v-250zM379 65q109 0 176 80.5t67 209.5q0 128 -67 209t-176 81q-108 0 -176 -81.5t-68 -208.5q0 -128 67.5 -209
t176.5 -81z" />
    <glyph glyph-name="oe" unicode="&#x153;" horiz-adv-x="935" 
d="M845 140l51 -52q-51 -55 -101.5 -78.5t-113.5 -23.5q-139 0 -202 105q-64 -105 -199 -105q-107 0 -175 72.5t-68 187.5t68 187.5t175 72.5q65 0 117 -28t83 -78q63 106 193 106q105 0 163.5 -63t58.5 -174l-2 -39h-369q4 -77 44.5 -124.5t113.5 -47.5q46 0 81 18
q33 18 82 64zM673 438q-60 0 -98 -38t-48 -107h284q-2 67 -39 106t-99 39zM280 58q71 0 113.5 52t42.5 136t-42.5 136t-113.5 52t-113 -51.5t-42 -136.5t42 -136.5t113 -51.5z" />
    <glyph glyph-name="Racute" unicode="&#x154;" horiz-adv-x="667" 
d="M634 0h-104l-190 285h-166v-285h-93v710h299q101 0 165.5 -57.5t64.5 -154.5q0 -82 -46 -137t-125 -70zM174 633v-271h191q72 0 112.5 35.5t40.5 100.5t-41 100t-113 35h-190zM459 920l-92 -144h-76l72 144h96z" />
    <glyph glyph-name="racute" unicode="&#x155;" horiz-adv-x="358" 
d="M270 497q34 0 78 -14l-16 -72q-34 10 -64 10q-52 0 -83.5 -42.5t-31.5 -114.5v-264h-86v492h81v-75q38 80 122 80zM333 716l-92 -144h-76l72 144h96z" />
    <glyph glyph-name="Rcommaaccent" unicode="&#x156;" horiz-adv-x="667" 
d="M634 0h-104l-190 285h-166v-285h-93v710h299q101 0 165.5 -57.5t64.5 -154.5q0 -82 -46 -137t-125 -70zM174 633v-271h191q72 0 112.5 35.5t40.5 100.5t-41 100t-113 35h-190zM386 -73v-86l-57 -94h-48l52 94h-47v86h100z" />
    <glyph glyph-name="rcommaaccent" unicode="&#x157;" horiz-adv-x="358" 
d="M270 497q34 0 78 -14l-16 -72q-34 10 -64 10q-52 0 -83.5 -42.5t-31.5 -114.5v-264h-86v492h81v-75q38 80 122 80zM159 -73v-86l-57 -94h-48l52 94h-47v86h100z" />
    <glyph glyph-name="Rcaron" unicode="&#x158;" horiz-adv-x="667" 
d="M634 0h-104l-190 285h-166v-285h-93v710h299q101 0 165.5 -57.5t64.5 -154.5q0 -82 -46 -137t-125 -70zM174 633v-271h191q72 0 112.5 35.5t40.5 100.5t-41 100t-113 35h-190zM484 920l-100 -144h-108l-100 144h74l80 -102l80 102h74z" />
    <glyph glyph-name="rcaron" unicode="&#x159;" horiz-adv-x="358" 
d="M270 497q34 0 78 -14l-16 -72q-34 10 -64 10q-52 0 -83.5 -42.5t-31.5 -114.5v-264h-86v492h81v-75q38 80 122 80zM358 716l-100 -144h-108l-100 144h74l80 -102l80 102h74z" />
    <glyph glyph-name="Sacute" unicode="&#x15a;" horiz-adv-x="629" 
d="M308 725q80 0 142 -24.5t126 -79.5l-54 -64q-56 49 -104.5 69t-109.5 20q-72 0 -117.5 -32.5t-45.5 -83.5q0 -66 81 -92q38 -14 114 -30q138 -33 191 -76t55 -128q0 -98 -73.5 -159t-188.5 -61q-89 0 -154 29q-71 30 -145 94l55 65q74 -62 130 -85q55 -23 115 -23
q75 0 122 36.5t47 98.5q0 72 -84 102q-38 13 -114 30q-138 31 -189.5 72.5t-51.5 124.5q0 86 73 141.5t180 55.5zM442 920l-92 -144h-76l72 144h96z" />
    <glyph glyph-name="sacute" unicode="&#x15b;" horiz-adv-x="479" 
d="M235 506q61 0 107 -16.5t95 -55.5l-47 -58q-45 35 -78.5 47.5t-76.5 12.5q-49 0 -78.5 -20.5t-29.5 -52.5q4 -31 26 -42.5t106 -30.5q102 -24 144 -56.5t42 -94.5q0 -69 -54 -111t-143 -42q-67 0 -118.5 20.5t-108.5 71.5l51 56q52 -44 91.5 -60.5t85.5 -16.5
q49 0 80.5 21t31.5 57q0 35 -30 52t-108 34q-105 24 -141 50.5t-38 88.5q0 65 53 105.5t138 40.5zM360 716l-92 -144h-76l72 144h96z" />
    <glyph glyph-name="Scedilla" unicode="&#x15e;" horiz-adv-x="629" 
d="M586 204q0 -96 -70.5 -157t-183.5 -63l-24 -51q47 2 77 -19.5t30 -58.5q0 -40 -29.5 -65t-75.5 -25q-53 0 -108 35l25 42q45 -27 81 -27q24 0 39 10.5t15 28.5q0 17 -16.5 27t-41.5 10q-17 0 -29 -3l-27 27l33 71q-69 6 -129 34.5t-127 86.5l55 65q74 -62 130 -85
q55 -23 115 -23q75 0 122 36t47 96q0 75 -84 105q-38 13 -114 30q-138 31 -189.5 72.5t-51.5 124.5q0 86 73.5 142t179.5 56q78 0 141 -25t127 -80l-54 -64q-56 49 -104.5 69t-109.5 20q-72 0 -117.5 -32.5t-45.5 -83.5q0 -66 81 -92q38 -14 114 -30q138 -33 191 -76
t55 -128z" />
    <glyph glyph-name="scedilla" unicode="&#x15f;" horiz-adv-x="479" 
d="M445 139q0 -68 -53 -110t-140 -43l-25 -53q47 2 77.5 -19.5t30.5 -58.5q0 -40 -29.5 -65t-76.5 -25q-53 0 -108 35l25 42q47 -27 82 -27q24 0 38.5 10.5t14.5 28.5q0 17 -16.5 27t-41.5 10q-16 0 -28 -3l-28 27l34 74q-89 10 -180 89l51 56q52 -44 91.5 -60.5t85.5 -16.5
q49 0 80.5 21t31.5 57q0 35 -30 52t-108 34q-105 24 -141 50.5t-38 88.5q0 65 53 105.5t138 40.5q61 0 107 -16.5t95 -55.5l-47 -58q-45 35 -78.5 47.5t-76.5 12.5q-49 0 -78.5 -20.5t-29.5 -52.5q4 -31 26 -42.5t106 -30.5q102 -24 144 -56.5t42 -94.5z" />
    <glyph glyph-name="Scaron" unicode="&#x160;" horiz-adv-x="629" 
d="M308 725q80 0 142 -24.5t126 -79.5l-54 -64q-56 49 -104.5 69t-109.5 20q-72 0 -117.5 -32.5t-45.5 -83.5q0 -66 81 -92q38 -14 114 -30q138 -33 191 -76t55 -128q0 -98 -73.5 -159t-188.5 -61q-89 0 -154 29q-71 30 -145 94l55 65q74 -62 130 -85q55 -23 115 -23
q75 0 122 36.5t47 98.5q0 72 -84 102q-38 13 -114 30q-138 31 -189.5 72.5t-51.5 124.5q0 86 73 141.5t180 55.5zM468 920l-100 -144h-108l-100 144h74l80 -102l80 102h74z" />
    <glyph glyph-name="scaron" unicode="&#x161;" horiz-adv-x="479" 
d="M235 506q61 0 107 -16.5t95 -55.5l-47 -58q-45 35 -78.5 47.5t-76.5 12.5q-49 0 -78.5 -20.5t-29.5 -52.5q4 -31 26 -42.5t106 -30.5q102 -24 144 -56.5t42 -94.5q0 -69 -54 -111t-143 -42q-67 0 -118.5 20.5t-108.5 71.5l51 56q52 -44 91.5 -60.5t85.5 -16.5
q49 0 80.5 21t31.5 57q0 35 -30 52t-108 34q-105 24 -141 50.5t-38 88.5q0 65 53 105.5t138 40.5zM386 716l-100 -144h-108l-100 144h74l80 -102l80 102h74z" />
    <glyph glyph-name="uni0162" unicode="&#x162;" horiz-adv-x="599" 
d="M346 0h-20l-31 -67q47 2 77 -19.5t30 -58.5q0 -40 -29.5 -65t-76.5 -25q-53 0 -108 35l26 42q45 -27 81 -27q24 0 38.5 10.5t14.5 28.5q0 17 -16 27t-41 10q-17 0 -29 -3l-28 27l40 85h-21v632h-223v78h539v-78h-223v-632z" />
    <glyph glyph-name="uni0163" unicode="&#x163;" horiz-adv-x="356" 
d="M236 -9l-27 -58q47 2 77 -19.5t30 -58.5q0 -40 -29.5 -65t-76.5 -25q-54 0 -107 35l25 42q45 -27 81 -27q24 0 38.5 10.5t14.5 28.5q0 17 -16 27t-41 10q-17 0 -29 -3l-28 27l38 81q-76 22 -76 118v313h-92v65h92v165h86v-165h133v-65h-133v-303q0 -33 13.5 -46.5
t44.5 -13.5q28 0 71 12l13 -68q-48 -17 -101 -17h-1z" />
    <glyph glyph-name="Tcaron" unicode="&#x164;" horiz-adv-x="598" 
d="M568 710v-78h-223v-632h-92v632h-223v78h538zM453 920l-100 -144h-108l-100 144h74l80 -102l80 102h74z" />
    <glyph glyph-name="tcaron" unicode="&#x165;" horiz-adv-x="381" 
d="M325 76l13 -68q-48 -17 -101 -17q-67 0 -97 30.5t-30 92.5v313h-92v65h92v165h86v-165h133v-65h-133v-303q0 -33 13.5 -46.5t44.5 -13.5q28 0 71 12zM391 773l-61 -198h-55l30 198h86z" />
    <glyph glyph-name="Tbar" unicode="&#x166;" horiz-adv-x="599" 
d="M569 632h-223v-216h128v-66h-128v-350h-93v350h-126v66h126v216h-223v78h539v-78z" />
    <glyph glyph-name="tbar" unicode="&#x167;" horiz-adv-x="356" 
d="M325 76l13 -68q-48 -17 -101 -17q-67 0 -97 30.5t-30 92.5v114h-92v67h92v132h-92v65h92v165h86v-165h133v-65h-133v-132h133v-67h-133v-104q0 -33 13.5 -46.5t44.5 -13.5q28 0 71 12z" />
    <glyph glyph-name="Umacron" unicode="&#x16a;" horiz-adv-x="688" 
d="M612 710v-484q0 -118 -68 -179.5t-200 -61.5q-131 0 -199 61.5t-68 179.5v484h92v-479q0 -81 44.5 -123t130.5 -42t130.5 42t44.5 123v479h93zM484 864v-66h-279v66h279z" />
    <glyph glyph-name="umacron" unicode="&#x16b;" horiz-adv-x="537" 
d="M384 492h86v-492h-80v61q-45 -75 -149 -75q-87 0 -131 43t-44 118v345h86v-324q0 -108 103 -108q58 0 93.5 35t35.5 97v300zM400 660v-66h-279v66h279z" />
    <glyph glyph-name="Uring" unicode="&#x16e;" horiz-adv-x="686" 
d="M612 710v-484q0 -118 -68 -179.5t-200 -61.5q-131 0 -199 61.5t-68 179.5v484h92v-479q0 -81 44.5 -123t130.5 -42t130.5 42t44.5 123v479h93zM343 938q44 0 75.5 -30.5t31.5 -73.5t-31.5 -73.5t-75.5 -30.5q-45 0 -76 30.5t-31 73.5q0 44 31 74t76 30zM343 895
q-26 0 -43 -17t-17 -44t17 -44t43 -17t42.5 17t16.5 44t-16.5 44t-42.5 17z" />
    <glyph glyph-name="uring" unicode="&#x16f;" horiz-adv-x="537" 
d="M384 492h86v-492h-80v61q-45 -75 -149 -75q-87 0 -131 43t-44 118v345h86v-324q0 -108 103 -108q58 0 93.5 35t35.5 97v300zM261 767q44 0 75.5 -30.5t31.5 -73.5t-31.5 -73.5t-75.5 -30.5q-45 0 -76 30.5t-31 73.5q0 44 31 74t76 30zM261 724q-26 0 -43 -17t-17 -44
t17 -44t43 -17t42.5 17t16.5 44t-16.5 44t-42.5 17z" />
    <glyph glyph-name="Uhungarumlaut" unicode="&#x170;" horiz-adv-x="688" 
d="M612 710v-484q0 -118 -68 -179.5t-200 -61.5q-131 0 -199 61.5t-68 179.5v484h92v-479q0 -81 44.5 -123t130.5 -42t130.5 42t44.5 123v479h93zM394 920l-93 -145h-66l72 145h87zM549 920l-94 -145h-67l74 145h87z" />
    <glyph glyph-name="uhungarumlaut" unicode="&#x171;" horiz-adv-x="537" 
d="M384 492h86v-492h-80v61q-45 -75 -149 -75q-87 0 -131 43t-44 118v345h86v-324q0 -108 103 -108q58 0 93.5 35t35.5 97v300zM310 716l-93 -145h-66l72 145h87zM465 716l-94 -145h-67l74 145h87z" />
    <glyph glyph-name="Uogonek" unicode="&#x172;" horiz-adv-x="688" 
d="M519 710h93v-483q0 -77 -24 -123q-26 -47 -85 -90q-91 -64 -91 -122q0 -21 13.5 -32.5t37.5 -11.5q17 0 27 3v-54q-14 -6 -38 -6q-48 0 -75.5 23t-27.5 64q0 58 54 111q-21 -4 -59 -4q-131 0 -199 61.5t-68 179.5v484h92v-479q0 -81 44.5 -123t130.5 -42t130.5 42
t44.5 123v479z" />
    <glyph glyph-name="uogonek" unicode="&#x173;" horiz-adv-x="537" 
d="M470 492v-492q-80 -56 -80 -110q0 -42 51 -42q15 0 26 3v-54q-13 -6 -38 -6q-46 0 -73.5 22.5t-27.5 61.5q0 66 71 125h-9v61q-45 -75 -149 -75q-87 0 -131 43t-44 118v345h86v-324q0 -108 103 -108q58 0 93.5 35t35.5 97v300h86z" />
    <glyph glyph-name="Wcircumflex" unicode="&#x174;" horiz-adv-x="939" 
d="M816 710h91l-171 -710h-113l-87 326q-44 166 -66 265q-35 -153 -65 -266l-88 -325h-114l-172 710h94l81 -342q23 -98 58 -274q35 159 69 274l93 342h93l91 -342q24 -87 67 -273l10 49q30 141 49 224zM549 776l-80 101l-80 -101h-74l100 144h108l100 -144h-74z" />
    <glyph glyph-name="wcircumflex" unicode="&#x175;" horiz-adv-x="735" 
d="M626 493h88l-138 -493h-104l-46 158q-36 126 -60 230q-28 -117 -60 -231l-43 -157h-104l-138 493h89l49 -184q25 -94 56 -234q31 127 60 234l52 184h81l52 -184q26 -88 61 -235q20 98 56 235zM447 572l-80 101l-80 -101h-74l100 144h108l100 -144h-74z" />
    <glyph glyph-name="Ycircumflex" unicode="&#x176;" horiz-adv-x="631" 
d="M516 710h100l-252 -407v-303h-92v304l-250 406h102l196 -325zM399 776l-80 101l-80 -101h-74l100 144h108l100 -144h-74z" />
    <glyph glyph-name="ycircumflex" unicode="&#x177;" horiz-adv-x="484" 
d="M379 492h87l-197 -560q-25 -70 -56 -97.5t-92 -27.5q-43 0 -76 10l15 66q27 -6 53 -6q31 0 49.5 17t33.5 61l6 18l-185 519h91l55 -163q56 -166 67 -199l14 -42l22 66q25 80 58 177zM320 572l-80 101l-80 -101h-74l100 144h108l100 -144h-74z" />
    <glyph glyph-name="Ydieresis" unicode="&#x178;" horiz-adv-x="631" 
d="M516 710h100l-252 -407v-303h-92v304l-250 406h102l196 -325zM273 896v-103h-84v103h84zM450 896v-103h-84v103h84z" />
    <glyph glyph-name="Zacute" unicode="&#x179;" horiz-adv-x="623" 
d="M581 710v-74l-430 -559h429v-77h-539v74l430 559h-411v77h521zM453 920l-92 -144h-76l72 144h96z" />
    <glyph glyph-name="zacute" unicode="&#x17a;" horiz-adv-x="478" 
d="M434 492v-63l-290 -358h290v-71h-396v64l290 358h-272v70h378zM369 716l-92 -144h-76l72 144h96z" />
    <glyph glyph-name="Zdotaccent" unicode="&#x17b;" horiz-adv-x="623" 
d="M581 710v-74l-430 -559h429v-77h-539v74l430 559h-411v77h521zM367 896v-103h-86v103h86z" />
    <glyph glyph-name="zdotaccent" unicode="&#x17c;" horiz-adv-x="478" 
d="M434 492v-63l-290 -358h290v-71h-396v64l290 358h-272v70h378zM284 692v-103h-86v103h86z" />
    <glyph glyph-name="Zcaron" unicode="&#x17d;" horiz-adv-x="623" 
d="M581 710v-74l-430 -559h429v-77h-539v74l430 559h-411v77h521zM478 920l-100 -144h-108l-100 144h74l80 -102l80 102h74z" />
    <glyph glyph-name="zcaron" unicode="&#x17e;" horiz-adv-x="478" 
d="M434 492v-63l-290 -358h290v-71h-396v64l290 358h-272v70h378zM395 716l-100 -144h-108l-100 144h74l80 -102l80 102h74z" />
    <glyph glyph-name="florin" unicode="&#x192;" 
d="M320 462h129v-65h-129v-438q0 -153 -139 -153q-51 0 -96 15l18 65q41 -10 68 -10q35 0 49 19.5t14 64.5v437h-112v65h112v82q0 73 38 112t110 39q49 0 100 -17l-18 -66q-40 12 -68 12q-41 0 -58.5 -21t-17.5 -69v-72z" />
    <glyph glyph-name="Scommaaccent" unicode="&#x218;" horiz-adv-x="629" 
d="M308 725q80 0 142 -24.5t126 -79.5l-54 -64q-56 49 -104.5 69t-109.5 20q-72 0 -117.5 -32.5t-45.5 -83.5q0 -66 81 -92q38 -14 114 -30q138 -33 191 -76t55 -128q0 -98 -73.5 -159t-188.5 -61q-89 0 -154 29q-71 30 -145 94l55 65q74 -62 130 -85q55 -23 115 -23
q75 0 122 36.5t47 98.5q0 72 -84 102q-38 13 -114 30q-138 31 -189.5 72.5t-51.5 124.5q0 86 73 141.5t180 55.5zM362 -73v-86l-57 -94h-48l52 94h-47v86h100z" />
    <glyph glyph-name="scommaaccent" unicode="&#x219;" horiz-adv-x="479" 
d="M235 506q61 0 107 -16.5t95 -55.5l-47 -58q-45 35 -78.5 47.5t-76.5 12.5q-49 0 -78.5 -20.5t-29.5 -52.5q4 -31 26 -42.5t106 -30.5q102 -24 144 -56.5t42 -94.5q0 -69 -54 -111t-143 -42q-67 0 -118.5 20.5t-108.5 71.5l51 56q52 -44 91.5 -60.5t85.5 -16.5
q49 0 80.5 21t31.5 57q0 35 -30 52t-108 34q-105 24 -141 50.5t-38 88.5q0 65 53 105.5t138 40.5zM283 -73v-86l-57 -94h-48l52 94h-47v86h100z" />
    <glyph glyph-name="uni021A" unicode="&#x21a;" horiz-adv-x="598" 
d="M568 710v-78h-223v-632h-92v632h-223v78h538zM349 -73v-86l-57 -94h-48l52 94h-47v86h100z" />
    <glyph glyph-name="uni021B" unicode="&#x21b;" horiz-adv-x="356" 
d="M325 76l13 -68q-48 -17 -101 -17q-67 0 -97 30.5t-30 92.5v313h-92v65h92v165h86v-165h133v-65h-133v-303q0 -33 13.5 -46.5t44.5 -13.5q28 0 71 12zM273 -73v-86l-57 -94h-48l52 94h-47v86h100z" />
    <glyph glyph-name="uni0237" unicode="&#x237;" horiz-adv-x="224" 
d="M-78 -177l17 66q36 -10 68 -10q35 0 49 19.5t14 63.5v530h86v-530q0 -154 -139 -154q-47 0 -95 15z" />
    <glyph glyph-name="circumflex" unicode="&#x2c6;" horiz-adv-x="467" 
d="M315 572l-80 101l-80 -101h-74l100 144h108l100 -144h-74z" />
    <glyph glyph-name="caron" unicode="&#x2c7;" horiz-adv-x="488" 
d="M398 716l-100 -144h-108l-100 144h74l80 -102l80 102h74z" />
    <glyph glyph-name="breve" unicode="&#x2d8;" horiz-adv-x="490" 
d="M245 571q-65 0 -104.5 35.5t-39.5 95.5h68q0 -35 19.5 -56.5t56.5 -21.5t56 21.5t19 56.5h68q0 -60 -39.5 -95.5t-103.5 -35.5z" />
    <glyph glyph-name="dotaccent" unicode="&#x2d9;" horiz-adv-x="286" 
d="M186 692v-103h-86v103h86z" />
    <glyph glyph-name="ring" unicode="&#x2da;" horiz-adv-x="426" 
d="M213 767q44 0 75.5 -30.5t31.5 -73.5t-31.5 -73.5t-75.5 -30.5q-45 0 -76 30.5t-31 73.5q0 44 31 74t76 30zM213 724q-26 0 -43 -17t-17 -44t17 -44t43 -17t42.5 17t16.5 44t-16.5 44t-42.5 17z" />
    <glyph glyph-name="ogonek" unicode="&#x2db;" horiz-adv-x="358" 
d="M231 23l39 -23q-80 -56 -80 -110q0 -42 51 -42q15 0 26 3v-54q-14 -6 -38 -6q-46 0 -73.5 22.5t-27.5 61.5q0 81 103 148z" />
    <glyph glyph-name="tilde" unicode="&#x2dc;" horiz-adv-x="520" 
d="M193 696q30 0 81 -30q34 -23 56 -23q32 0 32 53h54q0 -51 -22 -81t-59 -30q-26 0 -77 28q-44 24 -65 24q-34 0 -34 -51h-55q0 51 24.5 80.5t64.5 29.5z" />
    <glyph glyph-name="hungarumlaut" unicode="&#x2dd;" horiz-adv-x="507" 
d="M257 716l-93 -145h-66l72 145h87zM412 716l-94 -145h-67l74 145h87z" />
    <glyph glyph-name="uni0326" unicode="&#x326;" horiz-adv-x="0" 
d="M-100 -73v-86l-57 -94h-48l52 94h-47v86h100z" />
    <glyph glyph-name="Delta" unicode="&#x394;" horiz-adv-x="669" 
d="M395 710l258 -710h-636l257 710h121zM138 77h392l-97 274q-78 219 -100 292q-24 -83 -99 -293z" />
    <glyph glyph-name="Omega" unicode="&#x3a9;" horiz-adv-x="781" 
d="M515 78h219v-78h-307v121q90 17 146.5 88t56.5 176q0 115 -67 187.5t-176 72.5q-108 0 -175.5 -72.5t-67.5 -187.5q0 -105 57 -176t146 -88v-121h-300v78h212q-97 34 -153 115.5t-56 191.5q0 150 92 245.5t245 95.5t245 -95.5t92 -245.5q0 -110 -56 -191.5t-153 -115.5z
" />
    <glyph glyph-name="mu" unicode="&#x3bc;" horiz-adv-x="537" 
d="M384 492h86v-492h-78v68q-43 -82 -139 -82q-67 0 -101 34v-203h-86v675h86v-324q0 -108 108 -108q55 0 89.5 35t34.5 97v300z" />
    <glyph glyph-name="pi" unicode="&#x3c0;" horiz-adv-x="604" 
d="M575 73l10 -67q-42 -16 -85 -16q-64 0 -90.5 29.5t-26.5 95.5v311h-187v-426h-86v426h-92v66h539v-66h-88v-296q0 -38 10.5 -52.5t38.5 -14.5q26 0 57 10z" />
    <glyph glyph-name="Wgrave" unicode="&#x1e80;" horiz-adv-x="939" 
d="M816 710h91l-171 -710h-113l-87 326q-44 166 -66 265q-35 -153 -65 -266l-88 -325h-114l-172 710h94l81 -342q23 -98 58 -274q35 159 69 274l93 342h93l91 -342q24 -87 67 -273l10 49q30 141 49 224zM341 920h96l72 -144h-76z" />
    <glyph glyph-name="wgrave" unicode="&#x1e81;" horiz-adv-x="735" 
d="M626 493h88l-138 -493h-104l-46 158q-36 126 -60 230q-28 -117 -60 -231l-43 -157h-104l-138 493h89l49 -184q25 -94 56 -234q31 127 60 234l52 184h81l52 -184q26 -88 61 -235q20 98 56 235zM239 716h96l72 -144h-76z" />
    <glyph glyph-name="Wacute" unicode="&#x1e82;" horiz-adv-x="939" 
d="M816 710h91l-171 -710h-113l-87 326q-44 166 -66 265q-35 -153 -65 -266l-88 -325h-114l-172 710h94l81 -342q23 -98 58 -274q35 159 69 274l93 342h93l91 -342q24 -87 67 -273l10 49q30 141 49 224zM598 920l-92 -144h-76l72 144h96z" />
    <glyph glyph-name="wacute" unicode="&#x1e83;" horiz-adv-x="735" 
d="M626 493h88l-138 -493h-104l-46 158q-36 126 -60 230q-28 -117 -60 -231l-43 -157h-104l-138 493h89l49 -184q25 -94 56 -234q31 127 60 234l52 184h81l52 -184q26 -88 61 -235q20 98 56 235zM496 716l-92 -144h-76l72 144h96z" />
    <glyph glyph-name="Wdieresis" unicode="&#x1e84;" horiz-adv-x="939" 
d="M816 710h91l-171 -710h-113l-87 326q-44 166 -66 265q-35 -153 -65 -266l-88 -325h-114l-172 710h94l81 -342q23 -98 58 -274q35 159 69 274l93 342h93l91 -342q24 -87 67 -273l10 49q30 141 49 224zM424 896v-103h-84v103h84zM601 896v-103h-84v103h84z" />
    <glyph glyph-name="wdieresis" unicode="&#x1e85;" horiz-adv-x="735" 
d="M626 493h88l-138 -493h-104l-46 158q-36 126 -60 230q-28 -117 -60 -231l-43 -157h-104l-138 493h89l49 -184q25 -94 56 -234q31 127 60 234l52 184h81l52 -184q26 -88 61 -235q20 98 56 235zM321 692v-103h-84v103h84zM498 692v-103h-84v103h84z" />
    <glyph glyph-name="Ygrave" unicode="&#x1ef2;" horiz-adv-x="631" 
d="M516 710h100l-252 -407v-303h-92v304l-250 406h102l196 -325zM191 920h96l72 -144h-76z" />
    <glyph glyph-name="ygrave" unicode="&#x1ef3;" horiz-adv-x="484" 
d="M379 492h87l-197 -560q-25 -70 -56 -97.5t-92 -27.5q-43 0 -76 10l15 66q27 -6 53 -6q31 0 49.5 17t33.5 61l6 18l-185 519h91l55 -163q56 -166 67 -199l14 -42l22 66q25 80 58 177zM112 716h96l72 -144h-76z" />
    <glyph glyph-name="endash" unicode="&#x2013;" horiz-adv-x="723" 
d="M655 324v-73h-587v73h587z" />
    <glyph glyph-name="emdash" unicode="&#x2014;" horiz-adv-x="966" 
d="M886 324v-73h-807v73h807z" />
    <glyph glyph-name="quoteleft" unicode="&#x2018;" horiz-adv-x="200" 
d="M47 489v102l58 119h51l-53 -119h48v-102h-104z" />
    <glyph glyph-name="quoteright" unicode="&#x2019;" horiz-adv-x="200" 
d="M153 710v-102l-59 -119h-50l53 119h-48v102h104z" />
    <glyph glyph-name="quotesinglbase" unicode="&#x201a;" horiz-adv-x="197" 
d="M150 104v-104l-58 -114h-48l49 114h-47v104h104z" />
    <glyph glyph-name="quotedblleft" unicode="&#x201c;" horiz-adv-x="381" 
d="M47 489v102l58 119h51l-53 -119h48v-102h-104zM228 489v102l58 119h51l-53 -119h48v-102h-104z" />
    <glyph glyph-name="quotedblright" unicode="&#x201d;" horiz-adv-x="381" 
d="M153 710v-102l-59 -119h-50l53 119h-48v102h104zM334 710v-102l-59 -119h-50l53 119h-48v102h104z" />
    <glyph glyph-name="quotedblbase" unicode="&#x201e;" horiz-adv-x="378" 
d="M150 104v-104l-58 -114h-48l49 114h-47v104h104zM331 104v-104l-58 -114h-48l49 114h-47v104h104z" />
    <glyph glyph-name="dagger" unicode="&#x2020;" 
d="M550 442v-77h-210v-562h-87v562h-210v77h210v268h87v-268h210z" />
    <glyph glyph-name="daggerdbl" unicode="&#x2021;" 
d="M550 415h-210v-230h210v-77h-210v-305h-87v305h-210v77h210v230h-210v77h210v218h87v-218h210v-77z" />
    <glyph glyph-name="bullet" unicode="&#x2022;" horiz-adv-x="500" 
d="M250 475q72 0 124 -52t52 -124q0 -71 -52.5 -124t-123.5 -53q-72 0 -124.5 53t-52.5 124q0 73 52 124.5t125 51.5z" />
    <glyph glyph-name="ellipsis" unicode="&#x2026;" horiz-adv-x="630" 
d="M159 108v-108h-102v108h102zM366 108v-108h-102v108h102zM574 108v-108h-102v108h102z" />
    <glyph glyph-name="perthousand" unicode="&#x2030;" horiz-adv-x="1238" 
d="M642 695l54 -33l-477 -677l-52 34zM212 691q66 0 110.5 -45t44.5 -114q0 -70 -44.5 -115t-110.5 -45t-110.5 45t-44.5 115q0 69 44.5 114t110.5 45zM212 633q-40 0 -64.5 -28.5t-24.5 -72.5q0 -46 24 -74t65 -28t65 28t24 74q0 44 -24.5 72.5t-64.5 28.5zM646 308
q66 0 111 -44.5t45 -113.5q0 -70 -45 -115t-111 -45t-110.5 45t-44.5 115q0 69 44.5 113.5t110.5 44.5zM1012 308q66 0 111 -44.5t45 -113.5q0 -70 -45 -115t-111 -45t-110.5 45t-44.5 115q0 69 44.5 113.5t110.5 44.5zM646 251q-39 0 -63.5 -28t-24.5 -73q0 -46 23.5 -74
t64.5 -28t65 28t24 74q0 44 -24.5 72.5t-64.5 28.5zM1012 251q-39 0 -63.5 -28t-24.5 -73q0 -46 23.5 -74t64.5 -28t65 28t24 74q0 44 -24.5 72.5t-64.5 28.5z" />
    <glyph glyph-name="guilsinglleft" unicode="&#x2039;" horiz-adv-x="354" 
d="M287 471l-141 -218l141 -218h-86l-139 218l139 218h86z" />
    <glyph glyph-name="guilsinglright" unicode="&#x203a;" horiz-adv-x="354" 
d="M67 471h85l140 -218l-140 -218h-85l139 218z" />
    <glyph glyph-name="fraction" unicode="&#x2044;" horiz-adv-x="195" 
d="M308 695l54 -33l-476 -677l-53 34z" />
    <glyph glyph-name="Euro" unicode="&#x20ac;" horiz-adv-x="610" 
d="M393 60q42 0 74 11t73 41l48 -62q-51 -37 -94 -51.5t-101 -14.5q-104 0 -173.5 68.5t-91.5 186.5h-73v63h65l-1 38q0 28 3 55h-67v64h77q24 111 92 174t169 63q59 0 102.5 -15t92.5 -51l-48 -62q-41 30 -73 41t-74 11q-62 0 -106 -42t-64 -119h258v-64h-269
q-3 -25 -3 -55q0 -4 2 -38h270v-63h-262q18 -85 63.5 -132t110.5 -47z" />
    <glyph glyph-name="uni20B9" unicode="&#x20b9;" 
d="M545 617h-115q42 -42 51 -105h64v-62h-63q-10 -78 -69 -123.5t-149 -45.5h-68l297 -281h-121l-291 281v68h173q59 0 96 26t45 75h-314v62h313q-20 93 -140 93h-173v75h464v-63z" />
    <glyph glyph-name="uni20BA" unicode="&#x20ba;" 
d="M468 299l80 -13l-12 -61q-23 -126 -89 -175.5t-197 -49.5h-111v257l-93 -41v66l93 41v105l-93 -41v66l93 41v186h88v-147l165 74v-66l-165 -74v-105l165 74v-66l-165 -74v-220h12q74 1 113.5 13.5t64.5 47.5t40 105z" />
    <glyph glyph-name="uni20BD" unicode="&#x20bd;" horiz-adv-x="610" 
d="M340 283h-120v-92h215v-62h-215v-129h-88v129h-94v62h94v92h-94v67h94v330h208q96 0 157.5 -55t61.5 -146q0 -90 -61 -143t-158 -53zM220 605v-255h111q66 0 104 34t38 94t-38 93.5t-104 33.5h-111z" />
    <glyph glyph-name="uni2116" unicode="&#x2116;" horiz-adv-x="1098" 
d="M897 332q-82 0 -133.5 53t-51.5 139q0 87 51.5 139.5t133.5 52.5q81 0 132.5 -52.5t51.5 -139.5t-51 -139.5t-133 -52.5zM533 386v324h90v-710h-101l-197 323l-21 35q-38 63 -58 96q-39 64 -79 135q4 -76 4 -270v-319h-90v710h102l200 -328q5 -8 18.5 -31t22.5 -37
q79 -132 113 -195q-4 100 -4 267zM897 650q-48 0 -78.5 -34.5t-30.5 -91.5t30.5 -91.5t78.5 -34.5t78.5 34.5t30.5 91.5t-30.5 91.5t-78.5 34.5zM731 202v68h332v-68h-332z" />
    <glyph glyph-name="uni2117" unicode="&#x2117;" horiz-adv-x="856" 
d="M428 723q153 3 261.5 -105.5t106.5 -262.5q2 -154 -106.5 -262.5t-261.5 -105.5q-153 -3 -261.5 105.5t-106.5 262.5q-2 154 106.5 262.5t261.5 105.5zM428 670q-129 2 -218.5 -90.5t-87.5 -224.5q-2 -132 87.5 -224.5t218.5 -90.5q129 -2 218.5 90.5t87.5 224.5
q2 132 -87.5 224.5t-218.5 90.5zM295 562h167q59 0 96 -36t37 -93q0 -61 -34.5 -92t-98.5 -31h-102v-162h-65v414zM447 504h-87v-140h87q84 0 84 70q0 33 -21.5 51.5t-62.5 18.5z" />
    <glyph glyph-name="trademark" unicode="&#x2122;" horiz-adv-x="955" 
d="M373 710v-54h-136v-333h-64v333h-136v54h336zM881 710v-387h-59v310l-127 -310h-57l-131 306v-306h-60v387h88l132 -313l125 313h89z" />
    <glyph glyph-name="uni2154" unicode="&#x2154;" horiz-adv-x="1005" 
d="M239 434l-28 -15q-52 -29 -72 -46t-25 -42h242v-59h-314v28q0 58 31 95t99 73q4 2 13 7t13 7q50 26 69 43t19 44q0 29 -21.5 44.5t-58.5 15.5q-56 0 -118 -55l-40 46q74 70 159 70q68 0 109 -33.5t41 -84.5q-2 -36 -17 -60.5t-35 -38.5t-66 -39zM725 695l54 -33
l-476 -677l-53 34zM818 245h4q61 0 100.5 -33t39.5 -88t-42 -94.5t-113 -39.5q-80 0 -164 52l35 50q70 -41 128 -41q39 0 62 20t23 53q0 32 -24.5 51t-67.5 19q-37 0 -52 -7l-31 43l145 119h-199v59h285v-58z" />
    <glyph glyph-name="oneeighth" unicode="&#x215b;" horiz-adv-x="913" 
d="M165 680h53v-408h-69v323l-75 -55l-35 48zM626 695l54 -33l-476 -677l-53 34zM797 218q79 -29 79 -106q0 -54 -44 -87.5t-119 -33.5t-119 33.5t-44 87.5q0 77 79 106q-62 30 -62 91q0 49 40.5 80t105.5 31t105.5 -31t40.5 -80q0 -61 -62 -91zM713 363q-36 0 -58.5 -16.5
t-22.5 -42.5q0 -27 23 -45t58 -18t57.5 18t22.5 45q0 26 -22 42.5t-58 16.5zM713 49q43 0 67.5 19t24.5 50q0 32 -24.5 51.5t-67.5 19.5t-68 -20t-25 -51t25 -50t68 -19z" />
    <glyph glyph-name="threeeighths" unicode="&#x215c;" horiz-adv-x="988" 
d="M205 517h4q61 0 100.5 -33t39.5 -88t-42 -94.5t-113 -39.5q-80 0 -164 52l35 50q70 -41 128 -41q39 0 62 20t23 53q0 32 -24.5 51t-67.5 19q-37 0 -52 -7l-31 43l145 119h-199v59h285v-58zM701 695l54 -33l-476 -677l-53 34zM872 218q79 -29 79 -106q0 -54 -44 -87.5
t-119 -33.5t-119 33.5t-44 87.5q0 77 79 106q-62 30 -62 91q0 49 40.5 80t105.5 31t105.5 -31t40.5 -80q0 -61 -62 -91zM788 363q-36 0 -58.5 -16.5t-22.5 -42.5q0 -27 23 -45t58 -18t57.5 18t22.5 45q0 26 -22 42.5t-58 16.5zM788 49q43 0 67.5 19t24.5 50q0 32 -24.5 51.5
t-67.5 19.5t-68 -20t-25 -51t25 -50t68 -19z" />
    <glyph glyph-name="fiveeighths" unicode="&#x215d;" horiz-adv-x="990" 
d="M221 539q62 0 100.5 -37.5t38.5 -93.5q0 -64 -44.5 -105t-116.5 -41q-80 0 -167 54l35 51q76 -44 130 -44q40 0 65.5 23t25.5 58q0 36 -22.5 56t-64.5 20q-47 0 -84 -32l-56 6l17 226h262v-59h-204l-9 -112q38 30 94 30zM703 695l54 -33l-476 -677l-53 34zM875 218
q79 -29 79 -106q0 -54 -44 -87.5t-119 -33.5t-119 33.5t-44 87.5q0 77 79 106q-62 30 -62 91q0 49 40.5 80t105.5 31t105.5 -31t40.5 -80q0 -61 -62 -91zM791 363q-36 0 -58.5 -16.5t-22.5 -42.5q0 -27 23 -45t58 -18t57.5 18t22.5 45q0 26 -22 42.5t-58 16.5zM791 49
q43 0 67.5 19t24.5 50q0 32 -24.5 51.5t-67.5 19.5t-68 -20t-25 -51t25 -50t68 -19z" />
    <glyph glyph-name="seveneighths" unicode="&#x215e;" horiz-adv-x="908" 
d="M27 680h319v-54q-154 -173 -168 -354h-75q7 83 54 181q45 94 112 168h-242v59zM621 695l54 -33l-476 -677l-53 34zM792 218q79 -29 79 -106q0 -54 -44 -87.5t-119 -33.5t-119 33.5t-44 87.5q0 77 79 106q-62 30 -62 91q0 49 40.5 80t105.5 31t105.5 -31t40.5 -80
q0 -61 -62 -91zM708 363q-36 0 -58.5 -16.5t-22.5 -42.5q0 -27 23 -45t58 -18t57.5 18t22.5 45q0 26 -22 42.5t-58 16.5zM708 49q43 0 67.5 19t24.5 50q0 32 -24.5 51.5t-67.5 19.5t-68 -20t-25 -51t25 -50t68 -19z" />
    <glyph glyph-name="arrowleft" unicode="&#x2190;" horiz-adv-x="923" 
d="M870 376v-73h-701l256 -252l-54 -53l-341 341l341 341l54 -53l-255 -251h700z" />
    <glyph glyph-name="arrowup" unicode="&#x2191;" horiz-adv-x="728" 
d="M688 441l-51 -52l-232 235v-624h-80v625l-233 -236l-52 52l325 325z" />
    <glyph glyph-name="arrowright" unicode="&#x2192;" horiz-adv-x="923" 
d="M552 680l341 -341l-341 -341l-53 53l255 252h-701v73h700l-254 251z" />
    <glyph glyph-name="arrowdown" unicode="&#x2193;" horiz-adv-x="728" 
d="M637 321l51 -52l-323 -325l-325 325l52 52l233 -236v625h80v-624z" />
    <glyph glyph-name="uni2196" unicode="&#x2196;" horiz-adv-x="731" 
d="M701 131l-53 -52l-504 505v-363h-74v489h489v-72h-364z" />
    <glyph glyph-name="uni2197" unicode="&#x2197;" horiz-adv-x="731" 
d="M172 710h489v-489h-73v363l-505 -505l-53 52l507 507h-365v72z" />
    <glyph glyph-name="uni2198" unicode="&#x2198;" horiz-adv-x="731" 
d="M588 489h73v-489h-489v72h365l-507 507l53 52l505 -505v363z" />
    <glyph glyph-name="uni2199" unicode="&#x2199;" horiz-adv-x="731" 
d="M701 579l-506 -507h364v-72h-489v489h74v-363l504 505z" />
    <glyph glyph-name="partialdiff" unicode="&#x2202;" horiz-adv-x="555" 
d="M134 646l19 74q181 -24 273.5 -133.5t92.5 -293.5q0 -143 -65 -226t-179 -83q-106 0 -172 73t-66 175q0 101 61 172.5t158 71.5q120 0 178 -96q-39 228 -300 266zM275 59q66 0 108 49.5t42 122.5q0 71 -45 121t-111 50t-105 -49q-40 -49 -40 -122q0 -72 41 -122t110 -50z
" />
    <glyph glyph-name="product" unicode="&#x220f;" horiz-adv-x="716" 
d="M635 710v-820h-93v743h-368v-743h-93v820h554z" />
    <glyph glyph-name="summation" unicode="&#x2211;" horiz-adv-x="597" 
d="M540 710v-77h-379l249 -332l-252 -337h409v-77h-517v72l252 342l-249 337v72h487z" />
    <glyph glyph-name="minus" unicode="&#x2212;" horiz-adv-x="600" 
d="M560 347v-74h-520v74h520z" />
    <glyph glyph-name="radical" unicode="&#x221a;" horiz-adv-x="611" 
d="M491 710h94l-254 -710h-121l-183 492h95l150 -412z" />
    <glyph glyph-name="infinity" unicode="&#x221e;" horiz-adv-x="807" 
d="M590 456q72 0 119 -47.5t47 -118.5q0 -70 -46 -117.5t-114 -47.5q-97 0 -190 108l-4 5q-53 -63 -96 -88t-97 -25q-67 0 -112 47.5t-45 117.5q0 71 47.5 118.5t119.5 47.5q51 0 94 -26.5t90 -83.5l1 -2q95 112 186 112zM212 192q38 0 71 21.5t76 73.5l-2 2l-16 18
q-39 47 -63.5 63.5t-59.5 16.5q-42 0 -68 -27.5t-26 -70.5t25 -70t63 -27zM593 192q40 0 65 26.5t25 70.5q0 43 -26 70.5t-68 27.5q-71 0 -142 -95l4 -5q42 -50 73.5 -72.5t68.5 -22.5z" />
    <glyph glyph-name="integral" unicode="&#x222b;" horiz-adv-x="600" 
d="M320 564v-605q0 -153 -139 -153q-51 0 -96 15l18 65q41 -10 68 -10q35 0 49 19.5t14 64.5v614q0 73 38 112t110 39q49 0 100 -17l-18 -66q-40 12 -68 12q-41 0 -58.5 -21t-17.5 -69z" />
    <glyph glyph-name="approxequal" unicode="&#x2248;" horiz-adv-x="603" 
d="M201 468q41 0 110 -30q66 -26 91 -26q27 0 46 9.5t54 41.5l43 -49q-44 -46 -70 -58q-30 -14 -71 -14q-33 0 -102 28q-68 27 -100 27q-29 0 -50 -10.5t-52 -40.5l-43 49q38 41 71 57t73 16zM201 268q41 0 110 -30q66 -26 91 -26q27 0 46 9.5t54 41.5l43 -49
q-44 -46 -70 -58q-30 -14 -71 -14q-36 0 -101 28q-68 27 -101 27q-29 0 -50 -10.5t-52 -40.5l-43 49q38 41 71 57t73 16z" />
    <glyph glyph-name="notequal" unicode="&#x2260;" horiz-adv-x="600" 
d="M560 373h-202l-46 -126h248v-74h-275l-44 -118h-76l43 118h-168v74h195l46 126h-241v74h268l42 114h77l-42 -114h175v-74z" />
    <glyph glyph-name="lessequal" unicode="&#x2264;" horiz-adv-x="600" 
d="M540 548v-80l-384 -139l384 -139v-80l-480 180v78zM560 74v-74h-520v74h520z" />
    <glyph glyph-name="greaterequal" unicode="&#x2265;" horiz-adv-x="600" 
d="M60 548l480 -180v-78l-480 -180v80l384 139l-384 139v80zM560 74v-74h-520v74h520z" />
    <glyph glyph-name="lozenge" unicode="&#x25ca;" horiz-adv-x="609" 
d="M356 710l216 -356l-216 -354h-103l-216 354l216 356h103zM305 640l-175 -286l175 -284l173 284z" />
    <glyph glyph-name="uni2923" unicode="&#x2923;" horiz-adv-x="632" 
d="M247 696l25 -26l26 -26q78 -81 116 -126q43 -52 70 -111q28 -60 28 -130q0 -119 -102 -242q-32 -40 -118 -131l-19 -20l-59 56l16 17q76 81 107 118q38 46 64 97q25 50 25 105q0 105 -94 215q-41 47 -116 125l-25 26v-241h-71v363h363v-69h-236z" />
    <glyph glyph-name="uni2924" unicode="&#x2924;" horiz-adv-x="632" 
d="M149 765h363v-363h-71v241l-26 -26q-75 -78 -116 -125q-39 -44 -67 -101q-27 -55 -27 -114q0 -97 89 -201q32 -40 106 -117l18 -19l-59 -56l-19 20q-79 84 -117 131q-46 55 -73 114q-30 61 -30 128q0 123 101 243q40 47 117 127l22 23l24 26h-235v69z" />
    <glyph glyph-name="uni2925" unicode="&#x2925;" horiz-adv-x="632" 
d="M441 291h71v-363h-363v69h236l-25 26l-22 23q-77 80 -117 127q-43 50 -72 113t-29 130q0 119 103 243q40 48 117 130l19 20l59 -56l-18 -19q-74 -77 -106 -117q-38 -46 -64 -97q-25 -50 -25 -104q0 -104 94 -214q50 -57 116 -126l26 -27v242z" />
    <glyph glyph-name="uni2926" unicode="&#x2926;" horiz-adv-x="632" 
d="M272 23l-25 -26h236v-69h-363v363h71v-241l25 26q66 69 116 126q40 46 67 101q27 54 27 113q0 98 -89 202q-31 37 -107 118l-16 17l59 56l19 -20q85 -90 118 -130q42 -51 73 -114q29 -63 29 -129q0 -122 -98 -240q-45 -54 -116 -127z" />
    <glyph glyph-name="uniE000" unicode="&#xe000;" horiz-adv-x="1792" 
d="M315 0h-265v230h13q38 -101 105 -159t145 -58q59 0 94.5 37.5t35.5 92.5q0 54 -38 94q-22 22 -48.5 34.5t-86.5 31.5q-59 17 -93 33.5t-62 44.5q-58 58 -58 144q0 78 49 131.5t126 53.5h243v-197h-10q-42 72 -76 106q-77 78 -158 78q-44 0 -78 -25q-36 -26 -36 -84
q0 -54 34 -88q23 -23 53 -36.5t88 -30.5q67 -20 105.5 -38t70.5 -50q50 -48 50 -135q0 -98 -55 -154t-148 -56zM503 710h375q141 2 233.5 -105.5t90.5 -261.5q0 -65 -19.5 -125t-59 -110t-105 -79.5t-149.5 -28.5h-365v13h20q56 0 82.5 23.5t26.5 75.5v486q0 51 -26.5 75
t-82.5 24h-21v13zM1149 13h16q57 0 83.5 24t26.5 75v486q0 52 -26.5 75.5t-83.5 23.5h-17v13h384v-13h-27q-56 0 -82 -23.5t-26 -75.5v-486q0 -55 16.5 -77t58.5 -22h66q37 2 60.5 18t52.5 63t79 150h12v-244h-593v13zM1654 697v13h-55v-13h20v-54h15v54h20zM1742 643v67
h-22l-17 -45l-16 45h-23v-67h15v49l18 -49h11l19 49v-49h15zM862 13q110 0 160 90q50 89 50 226q0 185 -60 276.5t-153 91.5h-65q-23 0 -31 -9.5t-8 -36.5v-554q0 -84 107 -84z" />
    <glyph glyph-name="uniE001" unicode="&#xe001;" horiz-adv-x="1011" 
d="M313 -39q-121 56 -192 169.5t-71 243.5q0 101 43 191q56 121 169 192t244 71q102 0 192 -43q121 -56 192 -169.5t71 -243.5q0 -101 -43 -191q-56 -121 -169 -192t-244 -71q-102 0 -192 43zM692 773q-90 41 -186 41q-126 0 -236 -68t-165 -186q-41 -90 -41 -186
q0 -126 68 -236q67 -109 187 -165q90 -41 186 -41q126 0 236.5 68.5t163.5 185.5q41 90 41 186q0 127 -68 237q-67 108 -186 164zM527 720l8 64l45 -6l-2 -15l-23 2l-1 -9l22 -3l-2 -16l-22 3l-3 -23zM430 723l-1 11l22 3l1 -4q0 -2 6 -2l5 3l-1 5q0 2 -6 2h-2q-21 0 -27 8
l-3 18q6 16 34 16q15 0 21 -9l2 -11l-23 -3v4q-2 2 -6 2q-5 -2 -5 -3v-4q2 -2 7 -2h2q23 -2 27 -8l2 -18q-4 -16 -33 -16q-14 0 -22 8zM621 700l-4 23l-5 2l-6 -20l-22 7l20 62l35 -12q13 -4 16 -16l-7 -21q-4 -3 -10 -5l4 -14l-4 -12zM402 704l-17 16l-4 -1l6 -20l-21 -7
l-21 61l35 12q2 1 8 1q9 0 14 -5l7 -20q-1 -8 -5 -11l12 -8l4 -12zM617 739l7 -3q5 0 6 1l3 8q-1 3 -5 4l-7 3zM376 733l8 3q1 0 4 3l-3 9q-3 1 -6 0l-7 -3zM314 663l-32 57l41 23l8 -14l-21 -12l4 -7l20 11l7 -14l-19 -11l4 -8l22 12l7 -14zM655 700l20 35q4 4 12 4
q9 0 19 -5q19 -10 19 -26l-20 -35q-4 -4 -12 -4t-20 5q-18 10 -18 26zM688 688l15 26q0 3 -5 5t-6 1l-15 -27q0 -3 4 -4q5 -3 7 -1zM276 633l-32 37l-11 -9l-10 12l40 33l10 -12l-11 -9l31 -38zM710 656l43 48l21 -19l-8 -22l2 -2l20 11l21 -19l-43 -48l-16 14l22 25l-1 1
l-23 -10l-7 7l8 23l-2 2l-22 -25zM371 84q-85 40 -135 120q-49 79 -49 170q0 70 30 134q41 86 119 135q79 49 170 49q70 0 134 -30q86 -41 135 -119t49 -171q0 -68 -30 -134q-41 -86 -119 -135q-79 -49 -170 -49q-69 0 -134 30zM634 649q-64 29 -128 29q-88 0 -164 -47.5
t-113 -128.5q-29 -64 -29 -128q0 -86 48 -163q46 -77 129 -114q64 -29 128 -29q88 0 164 47.5t113 128.5q29 66 29 129q0 87 -48 162t-129 114zM232 586l-38 32l-9 -12l-12 11l33 40l12 -10l-9 -12l37 -31zM799 579l9 5l12 -19l-4 -2q-1 -1 1 -6q1 -4 4 -4l4 2q2 2 0 7l-1 2
q-5 12 -5 19q0 3 2 9l15 9q14 0 25 -18q6 -7 6 -19q0 -6 -3 -11l-9 -5l-12 19l4 2q1 1 -1 6q-1 4 -4 4l-4 -2q0 -5 1 -7l1 -2q5 -17 5 -20q0 -2 -2 -8l-16 -9q-14 0 -25 18q-6 12 -6 19q0 5 3 11zM193 525l-56 32l23 41l14 -8l-12 -21l7 -4l11 19l14 -7l-11 -20l8 -5l12 22
l13 -8zM510 516q-12 -23 -29 -23q-16 0 -16 21q0 8 5 21q11 23 28 23t17 -21q0 -8 -5 -21zM827 507l47 25l12 3l6 -21l-33 -14v-2l37 3l5 -16l-32 -18v-1l36 5l6 -18l-12 -4l-53 -6l-7 26l21 12l-1 1l-24 -1zM174 475l-61 23l8 21l46 -17l6 17l15 -5zM652 450
q-11 -23 -28 -23t-17 21q0 8 5 21q11 23 28 23t17 -21q0 -8 -5 -21zM140 425q-2 -7 -10 -7l-5 1q-7 4 -7 11l1 5q3 6 10 6q5 0 6 -1q6 -2 6 -9q0 -5 -1 -6zM849 421l65 5l3 -46l-15 -2l-2 25l-8 -1l1 -23l-16 -1l-1 23l-9 -1l1 -24l-15 -2zM627 264l-15 7q-19 -32 -52 -50.5
t-69 -18.5q-33 0 -59 13q-38 18 -59.5 52.5t-21.5 74.5q0 21 8 47l-15 7q-10 -24 -10 -54q0 -45 24.5 -84t66.5 -58q31 -15 66 -15q42 0 78.5 21t57.5 58zM161 326l-65 -4l-2 20l22 7l-1 1l-21 4l-2 20l66 4l1 -15l-35 -2v-2l24 -4l1 -8l-24 -7v-1l35 2zM853 362l64 -7
l-3 -33q-3 -17 -15 -22l-40 4q-10 7 -10 22v3zM866 338l-1 -7q0 -3 2 -5l29 -3q2 0 2 5l1 7zM170 286l-64 -14l-4 16l52 12l-3 12l12 3zM844 294l61 -20l-13 -44l-15 4l7 24l-8 2l-7 -22l-15 5l7 22l-9 2l-7 -23l-15 4zM178 233l-45 -16q-12 0 -17 15q-1 2 -1 9q0 12 5 14
l44 16q12 0 17 -15l2 -9q0 -9 -5 -14zM164 254l-33 -12q-2 -2 -1 -5q2 -2 3 -2l34 12l1 4q-2 3 -4 3zM826 237l57 -30l-11 -21h-32l-1 -2l25 -13l-10 -18l-57 30l11 21h32l1 2l-25 13zM211 190l-58 -32l-8 15l22 12l-4 6l-21 -12l-8 15l57 31l8 -14l-23 -13l3 -7l24 13z
M240 149l-52 -39l-10 13l13 10v1l-19 -4l-7 11l8 6l20 2l15 24l9 7l8 -11l-12 -18l3 1l14 10zM270 106l-33 -34q-11 -4 -22 7q-8 8 -8 20l14 14l11 -11l-8 -9q-1 -1 -0.5 -3t3.5 -2h2l25 25q0 3 -1 4l-4 1l-10 -9l-11 11l15 15q10 3 20 -7q8 -10 8 -18zM800 118
q-3 -7 -11 -7q-4 0 -5 1q-6 3 -6 11q0 3 1 4q4 7 10 7q4 0 5 -1q7 -3 7 -11q0 -3 -1 -4zM730 108l39 -53l-17 -12l-17 14l-1 -1l8 -20l-16 -12l-39 53l13 9l21 -28l1 1l-9 23l6 4l18 -16l1 1l-20 28zM312 73l-27 -38q-11 -4 -23 4q-10 6 -10 17v3l28 38q8 8 22 -3
q10 -7 10 -17v-4zM290 83l-21 -29q-1 -1 1 -4q3 -2 5 0l21 29q-1 3 -2 4h-4zM653 60l9 -14l8 4l-5 15l13 7l4 -10l17 -53l-23 -11l-32 45l-5 10zM350 63l-25 -46l9 -5l-6 -11l-32 16l6 12l9 -5l25 47zM402 34l-4 -13l-15 5l2 6q0 3 -3 3q-2 2 -4 0l-2 -7q0 -2 3 -4l1 -1
q12 -11 12 -18l-7 -19q-6 -3 -13 -3q-6 0 -8 1q-12 5 -15 16l4 12l15 -5l-2 -6q0 -3 4 -3q2 0 3 1l2 5q0 2 -3 5h-1q-12 9 -12 18l7 20q7 4 12 4q1 0 9 -2q15 -5 15 -15zM629 49l19 -63l-23 -7q-10 -4 -18 4l-14 45q0 8 12 13zM681 19l-7 19l-6 -3l11 -17zM578 34l11 -65
l-30 -5l-2 13l14 2l-3 13l-13 -2l-2 12l13 3l-2 14l-14 -3l-2 13zM483 27l-9 -65l-17 2l-5 32h-1l-4 -31l-16 2l8 65l18 -2l5 -32l1 -1l4 32zM617 31l-4 -1q-3 0 -3 -3l11 -34q3 -3 4 -1l4 1zM512 26v-65h-17v66z" />
    <glyph glyph-name="uniE002" unicode="&#xe002;" 
d="M553 191q0 -77 -45 -127t-121 -61v-103h-64v100h-80v-100h-64v100h-110v680h110v100h64v-100h80v100h64v-105q66 -12 104.5 -55.5t38.5 -111.5q0 -53 -26.5 -91.5t-73.5 -56.5q58 -18 90.5 -62.5t32.5 -106.5zM159 607v-215h156q60 0 94 29.5t34 81.5q0 104 -128 104
h-156zM159 73h161q70 0 107 32t37 91q0 57 -37.5 90t-105.5 33h-162v-246z" />
    <glyph glyph-name="Adieresis.ss02" horiz-adv-x="669" 
d="M558 0l-65 181h-318l-65 -181h-93l257 710h121l258 -710h-95zM202 259h264l-33 93q-67 185 -100 289q-23 -74 -41 -127q-8 -23 -20 -58.5t-16 -45.5l-21 -59zM246 792q-23 0 -39 16t-16 39q0 22 16 38t39 16q22 0 38.5 -16t16.5 -38t-16 -38.5t-39 -16.5zM424 792
q-22 0 -38.5 16.5t-16.5 38.5t16.5 38t38.5 16q23 0 39 -16t16 -38q0 -23 -16 -39t-39 -16z" />
    <glyph glyph-name="Cdotaccent.ss02" horiz-adv-x="666" 
d="M383 726q69 0 127 -23.5t122 -78.5l-53 -63q-55 47 -100.5 65.5t-96.5 18.5q-113 0 -180 -80.5t-67 -209.5q0 -128 67 -209t174 -81q58 0 104 23.5t109 80.5l56 -62q-68 -67 -129 -95t-138 -28q-155 0 -246 103.5t-91 268.5t91 267.5t251 102.5zM382 789
q-24 0 -40.5 16.5t-16.5 39.5q0 24 16.5 40t40.5 16t40 -16.5t16 -39.5t-16 -39.5t-40 -16.5z" />
    <glyph glyph-name="Edieresis.ss02" horiz-adv-x="609" 
d="M554 710v-77h-380v-229h354v-77h-354v-250h389v-77h-482v710h473zM231 792q-23 0 -39 16t-16 39q0 22 16 38t39 16q22 0 38.5 -16t16.5 -38t-16 -38.5t-39 -16.5zM409 792q-22 0 -38.5 16.5t-16.5 38.5t16.5 38t38.5 16q23 0 39 -16t16 -38q0 -23 -16 -39t-39 -16z" />
    <glyph glyph-name="Edotaccent.ss02" horiz-adv-x="609" 
d="M554 710v-77h-380v-229h354v-77h-354v-250h389v-77h-482v710h473zM319 789q-24 0 -40.5 16.5t-16.5 39.5q0 24 16.5 40t40.5 16t40 -16.5t16 -39.5t-16 -39.5t-40 -16.5z" />
    <glyph glyph-name="Gcommaaccent.ss02" horiz-adv-x="741" 
d="M362 294v78h313v-372h-72l-7 91q-65 -106 -222 -106q-154 0 -243.5 102t-89.5 268q0 162 93.5 266t250.5 104q86 0 155 -32.5t136 -102.5l-59 -60q-64 62 -115.5 88t-117.5 26q-112 0 -180.5 -79.5t-68.5 -209.5q0 -133 65.5 -211.5t178.5 -78.5q95 0 152.5 54.5
t57.5 146.5v28h-227zM373 -69q29 0 47 -19t18 -52q0 -48 -31.5 -80.5t-81.5 -32.5v36q23 2 41.5 16t23.5 37q-8 -3 -17 -3q-25 0 -39.5 13t-14.5 35q0 21 16 35.5t38 14.5z" />
    <glyph glyph-name="Gdotaccent.ss02" horiz-adv-x="741" 
d="M362 294v78h313v-372h-72l-7 91q-65 -106 -222 -106q-154 0 -243.5 102t-89.5 268q0 162 93.5 266t250.5 104q86 0 155 -32.5t136 -102.5l-59 -60q-64 62 -115.5 88t-117.5 26q-112 0 -180.5 -79.5t-68.5 -209.5q0 -133 65.5 -211.5t178.5 -78.5q95 0 152.5 54.5
t57.5 146.5v28h-227zM384 789q-24 0 -40.5 16.5t-16.5 39.5q0 24 16.5 40t40.5 16t40 -16.5t16 -39.5t-16 -39.5t-40 -16.5z" />
    <glyph glyph-name="Idieresis.ss02" horiz-adv-x="270" 
d="M181 710v-710h-93v710h93zM47 792q-23 0 -39 16t-16 39q0 22 16 38t39 16q22 0 38.5 -16t16.5 -38t-16 -38.5t-39 -16.5zM225 792q-22 0 -38.5 16.5t-16.5 38.5t16.5 38t38.5 16q23 0 39 -16t16 -38q0 -23 -16 -39t-39 -16z" />
    <glyph glyph-name="Idotaccent.ss02" horiz-adv-x="270" 
d="M181 710v-710h-93v710h93zM134 789q-24 0 -40.5 16.5t-16.5 39.5q0 24 16.5 40t40.5 16t40 -16.5t16 -39.5t-16 -39.5t-40 -16.5z" />
    <glyph glyph-name="K.ss01" horiz-adv-x="656" 
d="M544 0l-241 364l-129 -124v-240h-93v710h93v-360l385 374l59 -57l-252 -242l283 -425h-105z" />
    <glyph glyph-name="Kcommaaccent.ss01" horiz-adv-x="656" 
d="M544 0l-241 364l-129 -124v-240h-93v710h93v-360l385 374l59 -57l-252 -242l283 -425h-105zM406 -73v-86l-57 -94h-48l52 94h-47v86h100z" />
    <glyph glyph-name="Kcommaaccent.ss01.ss02" horiz-adv-x="656" 
d="M544 0l-241 364l-129 -124v-240h-93v710h93v-360l385 374l59 -57l-252 -242l283 -425h-105zM352 -69q29 0 47 -19t18 -52q0 -48 -31.5 -80.5t-81.5 -32.5v36q23 2 41.5 16t23.5 37q-7 -3 -17 -3q-25 0 -39.5 13t-14.5 35q0 21 16 35.5t38 14.5z" />
    <glyph glyph-name="Kcommaaccent.ss02" horiz-adv-x="656" 
d="M544 0l-243 366l-127 -130v-236h-93v710h93v-363l346 363h114l-271 -279l286 -431h-105zM342 -69q29 0 47 -19t18 -52q0 -48 -31.5 -80.5t-81.5 -32.5v36q23 2 41.5 16t23.5 37q-7 -3 -17 -3q-25 0 -39.5 13t-14.5 35q0 21 16 35.5t38 14.5z" />
    <glyph glyph-name="Lcommaaccent.ss02" horiz-adv-x="533" 
d="M174 710v-632h332v-78h-425v710h93zM295 -69q29 0 47 -19t18 -52q0 -48 -31.5 -80.5t-81.5 -32.5v36q23 2 41.5 16t23.5 37q-8 -3 -17 -3q-25 0 -39.5 13t-14.5 35q0 21 16 35.5t38 14.5z" />
    <glyph glyph-name="Ldot.ss02" horiz-adv-x="533" 
d="M174 710v-632h332v-78h-425v710h93zM394 305q-25 0 -43.5 18.5t-18.5 44.5q0 25 18.5 43.5t43.5 18.5t43.5 -18.5t18.5 -43.5q0 -26 -18.5 -44.5t-43.5 -18.5z" />
    <glyph glyph-name="Ncommaaccent.ss02" horiz-adv-x="731" 
d="M560 710h90v-710h-102l-211 323q-23 38 -43 67q-95 146 -128 205q5 -122 5 -276v-319h-90v710h104l213 -328q5 -9 13 -20.5t9 -13.5q61 -95 64 -99q32 -50 80 -132q-4 100 -4 269v324zM363 -69q29 0 47 -19t18 -52q0 -48 -31.5 -80.5t-81.5 -32.5v36q23 2 41.5 16
t23.5 37q-8 -3 -17 -3q-25 0 -39.5 13t-14.5 35q0 21 16 35.5t38 14.5z" />
    <glyph glyph-name="Odieresis.ss02" horiz-adv-x="757" 
d="M379 726q153 0 245 -104.5t92 -266.5t-92 -266.5t-245 -104.5t-245.5 104.5t-92.5 266.5t92.5 266.5t245.5 104.5zM379 645q-108 0 -176 -81.5t-68 -208.5q0 -128 67.5 -209t176.5 -81t176 80.5t67 209.5q0 128 -67 209t-176 81zM291 792q-23 0 -39 16t-16 39q0 22 16 38
t39 16q22 0 38.5 -16t16.5 -38t-16 -38.5t-39 -16.5zM469 792q-22 0 -38.5 16.5t-16.5 38.5t16.5 38t38.5 16q23 0 39 -16t16 -38q0 -23 -16 -39t-39 -16z" />
    <glyph glyph-name="Rcommaaccent.ss02" horiz-adv-x="667" 
d="M634 0h-104l-190 285h-166v-285h-93v710h299q101 0 165.5 -57.5t64.5 -154.5q0 -82 -46 -137t-125 -70zM174 633v-271h191q72 0 112.5 35.5t40.5 100.5t-41 100t-113 35h-190zM332 -69q29 0 47 -19t18 -52q0 -48 -31.5 -80.5t-81.5 -32.5v36q23 2 41.5 16t23.5 37
q-7 -3 -17 -3q-25 0 -39.5 13t-14.5 35q0 21 16 35.5t38 14.5z" />
    <glyph glyph-name="Scommaaccent.ss02" horiz-adv-x="629" 
d="M308 725q80 0 142 -24.5t126 -79.5l-54 -64q-56 49 -104.5 69t-109.5 20q-72 0 -117.5 -32.5t-45.5 -83.5q0 -66 81 -92q38 -14 114 -30q138 -33 191 -76t55 -128q0 -98 -73.5 -159t-188.5 -61q-89 0 -154 29q-71 30 -145 94l55 65q74 -62 130 -85q55 -23 115 -23
q75 0 122 36.5t47 98.5q0 72 -84 102q-38 13 -114 30q-138 31 -189.5 72.5t-51.5 124.5q0 86 73 141.5t180 55.5zM308 -69q29 0 47 -19t18 -52q0 -48 -31.5 -80.5t-81.5 -32.5v36q23 2 41.5 16t23.5 37q-7 -3 -17 -3q-25 0 -39.5 13t-14.5 35q0 21 16 35.5t38 14.5z" />
    <glyph glyph-name="uni021A.ss02" horiz-adv-x="598" 
d="M568 710v-78h-223v-632h-92v632h-223v78h538zM295 -69q29 0 47 -19t18 -52q0 -48 -31.5 -80.5t-81.5 -32.5v36q23 2 41.5 16t23.5 37q-8 -3 -17 -3q-25 0 -39.5 13t-14.5 35q0 21 16 35.5t38 14.5z" />
    <glyph glyph-name="Udieresis.ss02" horiz-adv-x="688" 
d="M612 710v-484q0 -118 -68 -179.5t-200 -61.5q-131 0 -199 61.5t-68 179.5v484h92v-479q0 -81 44.5 -123t130.5 -42t130.5 42t44.5 123v479h93zM256 792q-23 0 -39 16t-16 39q0 22 16 38t39 16q22 0 38.5 -16t16.5 -38t-16 -38.5t-39 -16.5zM434 792q-22 0 -38.5 16.5
t-16.5 38.5t16.5 38t38.5 16q23 0 39 -16t16 -38q0 -23 -16 -39t-39 -16z" />
    <glyph glyph-name="Wdieresis.ss02" horiz-adv-x="939" 
d="M816 710h91l-171 -710h-113l-87 326q-44 166 -66 265q-35 -153 -65 -266l-88 -325h-114l-172 710h94l81 -342q23 -98 58 -274q35 159 69 274l93 342h93l91 -342q24 -87 67 -273l10 49q30 141 49 224zM382 792q-23 0 -39 16t-16 39q0 22 16 38t39 16q22 0 38.5 -16
t16.5 -38t-16 -38.5t-39 -16.5zM560 792q-22 0 -38.5 16.5t-16.5 38.5t16.5 38t38.5 16q23 0 39 -16t16 -38q0 -23 -16 -39t-39 -16z" />
    <glyph glyph-name="Ydieresis.ss02" horiz-adv-x="631" 
d="M516 710h100l-252 -407v-303h-92v304l-250 406h102l196 -325zM231 792q-23 0 -39 16t-16 39q0 22 16 38t39 16q22 0 38.5 -16t16.5 -38t-16 -38.5t-39 -16.5zM409 792q-22 0 -38.5 16.5t-16.5 38.5t16.5 38t38.5 16q23 0 39 -16t16 -38q0 -23 -16 -39t-39 -16z" />
    <glyph glyph-name="Zdotaccent.ss02" horiz-adv-x="623" 
d="M581 710v-74l-430 -559h429v-77h-539v74l430 559h-411v77h521zM324 789q-24 0 -40.5 16.5t-16.5 39.5q0 24 16.5 40t40.5 16t40 -16.5t16 -39.5t-16 -39.5t-40 -16.5z" />
    <glyph glyph-name="adieresis.ss02" horiz-adv-x="532" 
d="M266 506q94 0 147 -44.5t53 -119.5v-342h-78v60q-51 -76 -167 -76q-81 0 -128.5 35t-47.5 103q0 79 60 115q59 36 169 56l110 20v25q0 45 -31.5 71t-83.5 26q-45 0 -80.5 -18.5t-81.5 -64.5l-55 49q89 105 214 105zM230 55q67 0 110.5 35.5t43.5 93.5v65l-90 -18
q-92 -19 -126.5 -39t-38.5 -67q0 -34 26.5 -52t74.5 -18zM180 588q-23 0 -39 16t-16 39q0 22 16 38t39 16q22 0 38.5 -16t16.5 -38t-16 -38.5t-39 -16.5zM358 588q-22 0 -38.5 16.5t-16.5 38.5t16.5 38t38.5 16q23 0 39 -16t16 -38q0 -23 -16 -39t-39 -16z" />
    <glyph glyph-name="cdotaccent.ss02" horiz-adv-x="500" 
d="M473 412l-56 -52q-38 41 -71 57.5t-72 16.5q-73 0 -110 -55q-39 -55 -39 -133t39 -132q39 -55 112 -55q40 0 72.5 17.5t74.5 64.5l56 -48q-48 -59 -94 -83t-109 -24q-108 0 -173.5 71t-65.5 189q0 117 66 188.5t173 71.5q61 0 107 -21.5t90 -72.5zM273 585
q-24 0 -40.5 16.5t-16.5 39.5q0 24 16.5 40t40.5 16t40 -16.5t16 -39.5t-16 -39.5t-40 -16.5z" />
    <glyph glyph-name="edieresis.ss02" horiz-adv-x="534" 
d="M444 140l51 -52q-53 -56 -102 -79t-113 -23q-111 0 -177 70.5t-66 186.5t64.5 189.5t170.5 73.5q105 0 163.5 -63t58.5 -174q0 -14 -2 -38h-370q4 -78 45 -125.5t114 -47.5q45 0 80 18q33 17 83 64zM271 437q-60 0 -98 -37t-48 -105h284q-3 66 -39.5 104t-98.5 38z
M188 588q-23 0 -39 16t-16 39q0 22 16 38t39 16q22 0 38.5 -16t16.5 -38t-16 -38.5t-39 -16.5zM366 588q-22 0 -38.5 16.5t-16.5 38.5t16.5 38t38.5 16q23 0 39 -16t16 -38q0 -23 -16 -39t-39 -16z" />
    <glyph glyph-name="edotaccent.ss02" horiz-adv-x="534" 
d="M444 140l51 -52q-53 -56 -102 -79t-113 -23q-111 0 -177 70.5t-66 186.5t64.5 189.5t170.5 73.5q105 0 163.5 -63t58.5 -174q0 -14 -2 -38h-370q4 -78 45 -125.5t114 -47.5q45 0 80 18q33 17 83 64zM271 437q-60 0 -98 -37t-48 -105h284q-3 66 -39.5 104t-98.5 38z
M276 585q-24 0 -40.5 16.5t-16.5 39.5q0 24 16.5 40t40.5 16t40 -16.5t16 -39.5t-16 -39.5t-40 -16.5z" />
    <glyph glyph-name="gcommaaccent.ss02" horiz-adv-x="565" 
d="M418 492h80v-481q0 -95 -60 -149.5t-163 -54.5q-120 0 -223 73l43 63q54 -34 94 -48.5t85 -14.5q65 0 102 34.5t37 103.5v68q-51 -80 -157 -80q-94 0 -155 70.5t-61 179.5t61 179.5t155 70.5q111 0 162 -86v72zM270 79q65 0 105 49.5t40 127.5t-40 127.5t-105 49.5
t-103.5 -48.5t-38.5 -128.5t38.5 -128.5t103.5 -48.5zM288 685q25 0 39.5 -13t14.5 -35t-16 -36.5t-39 -14.5q-28 0 -46 19.5t-18 52.5q0 48 32 80.5t81 31.5v-35q-23 -2 -41.5 -16t-24.5 -37q9 3 18 3z" />
    <glyph glyph-name="gdotaccent.ss02" horiz-adv-x="565" 
d="M418 492h80v-481q0 -95 -60 -149.5t-163 -54.5q-120 0 -223 73l43 63q54 -34 94 -48.5t85 -14.5q65 0 102 34.5t37 103.5v68q-51 -80 -157 -80q-94 0 -155 70.5t-61 179.5t61 179.5t155 70.5q111 0 162 -86v72zM270 79q65 0 105 49.5t40 127.5t-40 127.5t-105 49.5
t-103.5 -48.5t-38.5 -128.5t38.5 -128.5t103.5 -48.5zM283 585q-24 0 -40.5 16.5t-16.5 39.5q0 24 16.5 40t40.5 16t40 -16.5t16 -39.5t-16 -39.5t-40 -16.5z" />
    <glyph glyph-name="i.ss02" horiz-adv-x="220" 
d="M153 492v-492h-86v492h86zM110 585q-24 0 -40.5 16.5t-16.5 39.5q0 24 16.5 40t40.5 16t40 -16.5t16 -39.5t-16 -39.5t-40 -16.5z" />
    <glyph glyph-name="idieresis.ss02" horiz-adv-x="220" 
d="M153 492v-492h-86v492h86zM22 588q-23 0 -39 16t-16 39q0 22 16 38t39 16q22 0 38.5 -16t16.5 -38t-16 -38.5t-39 -16.5zM200 588q-22 0 -38.5 16.5t-16.5 38.5t16.5 38t38.5 16q23 0 39 -16t16 -38q0 -23 -16 -39t-39 -16z" />
    <glyph glyph-name="i.loclTRK" horiz-adv-x="220" 
d="M153 492v-492h-86v492h86zM153 692v-103h-86v103h86z" />
    <glyph glyph-name="i.loclTRK.ss02" horiz-adv-x="220" 
d="M153 492v-492h-86v492h86zM110 585q-24 0 -40.5 16.5t-16.5 39.5q0 24 16.5 40t40.5 16t40 -16.5t16 -39.5t-16 -39.5t-40 -16.5z" />
    <glyph glyph-name="ij.ss02" horiz-adv-x="444" 
d="M110 585q-24 0 -40.5 16.5t-16.5 39.5q0 24 16.5 40t40.5 16t40 -16.5t16 -39.5t-16 -39.5t-40 -16.5zM333 585q-24 0 -40.5 16.5t-16.5 39.5q0 24 16.5 40t40.5 16t40 -16.5t16 -39.5t-16 -39.5t-40 -16.5zM153 492v-492h-86v492h86zM142 -177l17 66q36 -10 68 -10
q35 0 49 19.5t14 63.5v530h86v-530q0 -154 -139 -154q-47 0 -95 15z" />
    <glyph glyph-name="iogonek.ss02" horiz-adv-x="220" 
d="M110 584q-24 0 -40.5 16.5t-16.5 40.5q0 23 16.5 39t40.5 16t40.5 -16t16.5 -39q0 -24 -16.5 -40.5t-40.5 -16.5zM67 0v492h86v-492q-80 -56 -80 -110q0 -42 51 -42q16 0 27 3v-54q-13 -6 -39 -6q-46 0 -73.5 22.5t-27.5 61.5q0 66 71 125h-15z" />
    <glyph glyph-name="j.calt" horiz-adv-x="222" 
d="M155 692v-103h-86v103h86zM-17 -187l9 67q18 -2 29 -2q27 0 37.5 14.5t10.5 47.5v552h86v-556q0 -67 -28 -97.5t-91 -30.5q-23 0 -53 5z" />
    <glyph glyph-name="j.calt.ss02" horiz-adv-x="224" 
d="M113 585q-24 0 -40.5 16.5t-16.5 39.5t16.5 39.5t40.5 16.5t40.5 -16.5t16.5 -39.5t-16.5 -39.5t-40.5 -16.5zM-17 -187l9 67q18 -2 29 -2q27 0 37.5 14.5t10.5 47.5v552h86v-556q0 -67 -28 -97.5t-91 -30.5q-23 0 -53 5z" />
    <glyph glyph-name="j.ss02" horiz-adv-x="224" 
d="M-78 -177l17 66q36 -10 68 -10q35 0 49 19.5t14 63.5v530h86v-530q0 -154 -139 -154q-47 0 -95 15zM113 585q-24 0 -40.5 16.5t-16.5 39.5q0 24 16.5 40t40.5 16t40 -16.5t16 -39.5t-16 -39.5t-40 -16.5z" />
    <glyph glyph-name="k.ss01" horiz-adv-x="508" 
d="M407 0l-154 231l-98 -93v-138h-88v710h88v-473l274 265l53 -53l-171 -162l191 -287h-95z" />
    <glyph glyph-name="kcommaaccent.ss01" horiz-adv-x="508" 
d="M407 0l-154 231l-98 -93v-138h-88v710h88v-473l274 265l53 -53l-171 -162l191 -287h-95zM326 -73v-86l-57 -94h-48l52 94h-47v86h100z" />
    <glyph glyph-name="kcommaaccent.ss01.ss02" horiz-adv-x="508" 
d="M407 0l-154 231l-98 -93v-138h-88v710h88v-473l274 265l53 -53l-171 -162l191 -287h-95zM272 -69q29 0 47 -19t18 -52q0 -48 -31.5 -80.5t-81.5 -32.5v36q23 2 41.5 16t23.5 37q-7 -3 -17 -3q-25 0 -39.5 13t-14.5 35q0 21 16 35.5t38 14.5z" />
    <glyph glyph-name="kcommaaccent.ss02" horiz-adv-x="508" 
d="M407 0l-165 247l-89 -90v-157h-86v710h86v-456l228 238h101l-181 -189l201 -303h-95zM268 -69q29 0 47 -19t18 -52q0 -48 -31.5 -80.5t-81.5 -32.5v36q23 2 41.5 16t23.5 37q-7 -3 -17 -3q-25 0 -39.5 13t-14.5 35q0 21 16 35.5t38 14.5z" />
    <glyph glyph-name="lcommaaccent.ss02" horiz-adv-x="226" 
d="M156 710v-710h-86v710h86zM110 -69q29 0 47 -19t18 -52q0 -48 -31.5 -80.5t-81.5 -32.5v36q23 2 41.5 16t23.5 37q-7 -3 -17 -3q-25 0 -39.5 13t-14.5 35q0 21 16 35.5t38 14.5z" />
    <glyph glyph-name="ldot.ss02" horiz-adv-x="418" 
d="M156 710v-710h-86v710h86zM317 246q-25 0 -43.5 18.5t-18.5 44.5q0 25 18.5 43.5t43.5 18.5t43.5 -18.5t18.5 -43.5q0 -26 -18.5 -44.5t-43.5 -18.5z" />
    <glyph glyph-name="ncommaaccent.ss02" horiz-adv-x="545" 
d="M303 506q84 0 130 -47t46 -122v-337h-86v310q0 60 -29 91.5t-84 31.5q-54 0 -90.5 -36.5t-36.5 -91.5v-305h-86v492h81v-64q49 78 155 78zM266 -69q29 0 47 -19t18 -52q0 -48 -31.5 -80.5t-81.5 -32.5v36q23 2 41.5 16t23.5 37q-8 -3 -17 -3q-25 0 -39.5 13t-14.5 35
q0 21 16 35.5t38 14.5z" />
    <glyph glyph-name="odieresis.ss02" horiz-adv-x="561" 
d="M280 506q107 0 175.5 -72.5t68.5 -187.5t-68.5 -187.5t-175.5 -72.5t-175 72.5t-68 187.5t68 187.5t175 72.5zM280 434q-71 0 -113 -51.5t-42 -136.5t42 -136.5t113 -51.5t113.5 52t42.5 136t-42.5 136t-113.5 52zM190 588q-23 0 -39 16t-16 39q0 22 16 38t39 16
q22 0 38.5 -16t16.5 -38t-16 -38.5t-39 -16.5zM368 588q-22 0 -38.5 16.5t-16.5 38.5t16.5 38t38.5 16q23 0 39 -16t16 -38q0 -23 -16 -39t-39 -16z" />
    <glyph glyph-name="rcommaaccent.ss02" horiz-adv-x="358" 
d="M270 497q34 0 78 -14l-16 -72q-34 10 -64 10q-52 0 -83.5 -42.5t-31.5 -114.5v-264h-86v492h81v-75q38 80 122 80zM105 -69q29 0 47 -19t18 -52q0 -48 -31.5 -80.5t-81.5 -32.5v36q23 2 41.5 16t23.5 37q-7 -3 -17 -3q-25 0 -39.5 13t-14.5 35q0 21 16 35.5t38 14.5z" />
    <glyph glyph-name="scommaaccent.ss02" horiz-adv-x="479" 
d="M235 506q61 0 107 -16.5t95 -55.5l-47 -58q-45 35 -78.5 47.5t-76.5 12.5q-49 0 -78.5 -20.5t-29.5 -52.5q4 -31 26 -42.5t106 -30.5q102 -24 144 -56.5t42 -94.5q0 -69 -54 -111t-143 -42q-67 0 -118.5 20.5t-108.5 71.5l51 56q52 -44 91.5 -60.5t85.5 -16.5
q49 0 80.5 21t31.5 57q0 35 -30 52t-108 34q-105 24 -141 50.5t-38 88.5q0 65 53 105.5t138 40.5zM229 -69q29 0 47 -19t18 -52q0 -48 -31.5 -80.5t-81.5 -32.5v36q23 2 41.5 16t23.5 37q-8 -3 -17 -3q-25 0 -39.5 13t-14.5 35q0 21 16 35.5t38 14.5z" />
    <glyph glyph-name="uni021B.ss02" horiz-adv-x="356" 
d="M325 76l13 -68q-48 -17 -101 -17q-67 0 -97 30.5t-30 92.5v313h-92v65h92v165h86v-165h133v-65h-133v-303q0 -33 13.5 -46.5t44.5 -13.5q28 0 71 12zM219 -69q29 0 47 -19t18 -52q0 -48 -31.5 -80.5t-81.5 -32.5v36q23 2 41.5 16t23.5 37q-8 -3 -17 -3q-25 0 -39.5 13
t-14.5 35q0 21 16 35.5t38 14.5z" />
    <glyph glyph-name="udieresis.ss02" horiz-adv-x="537" 
d="M384 492h86v-492h-80v61q-45 -75 -149 -75q-87 0 -131 43t-44 118v345h86v-324q0 -108 103 -108q58 0 93.5 35t35.5 97v300zM172 588q-23 0 -39 16t-16 39q0 22 16 38t39 16q22 0 38.5 -16t16.5 -38t-16 -38.5t-39 -16.5zM350 588q-22 0 -38.5 16.5t-16.5 38.5t16.5 38
t38.5 16q23 0 39 -16t16 -38q0 -23 -16 -39t-39 -16z" />
    <glyph glyph-name="wdieresis.ss02" horiz-adv-x="735" 
d="M626 493h88l-138 -493h-104l-46 158q-36 126 -60 230q-28 -117 -60 -231l-43 -157h-104l-138 493h89l49 -184q25 -94 56 -234q31 127 60 234l52 184h81l52 -184q26 -88 61 -235q20 98 56 235zM279 588q-23 0 -39 16t-16 39q0 22 16 38t39 16q22 0 38.5 -16t16.5 -38
t-16 -38.5t-39 -16.5zM457 588q-22 0 -38.5 16.5t-16.5 38.5t16.5 38t38.5 16q23 0 39 -16t16 -38q0 -23 -16 -39t-39 -16z" />
    <glyph glyph-name="ydieresis.ss02" horiz-adv-x="484" 
d="M379 492h87l-197 -560q-25 -70 -56 -97.5t-92 -27.5q-43 0 -76 10l15 66q27 -6 53 -6q31 0 49.5 17t33.5 61l6 18l-185 519h91l55 -163q56 -166 67 -199l14 -42l22 66q25 80 58 177zM152 588q-23 0 -39 16t-16 39q0 22 16 38t39 16q22 0 38.5 -16t16.5 -38t-16 -38.5
t-39 -16.5zM330 588q-22 0 -38.5 16.5t-16.5 38.5t16.5 38t38.5 16q23 0 39 -16t16 -38q0 -23 -16 -39t-39 -16z" />
    <glyph glyph-name="zdotaccent.ss02" horiz-adv-x="478" 
d="M434 492v-63l-290 -358h290v-71h-396v64l290 358h-272v70h378zM241 585q-24 0 -40.5 16.5t-16.5 39.5q0 24 16.5 40t40.5 16t40 -16.5t16 -39.5t-16 -39.5t-40 -16.5z" />
    <glyph glyph-name="f_f_i.liga.ss02" horiz-adv-x="872" 
d="M271 650q-41 0 -58.5 -20.5t-17.5 -68.5v-69h102v-65h-102v-427h-86v427h-91v65h91v78q0 73 38 112.5t110 39.5q46 0 99 -17l-17 -66q-39 11 -68 11zM428 492v78q0 73 37.5 112.5t107.5 39.5q35 0 80 -12l-13 -66q-34 6 -52 6q-41 0 -57.5 -20.5t-16.5 -69.5v-68h123v-65
h-123v-427h-86v427h-82v65h82zM762 584q-24 0 -40.5 16.5t-16.5 40.5q0 23 16.5 39t40.5 16t40.5 -16t16.5 -39q0 -24 -16.5 -40.5t-40.5 -16.5zM719 0v492h86v-492h-86z" />
    <glyph glyph-name="f_f_j.liga.ss02" horiz-adv-x="872" 
d="M271 650q-41 0 -58.5 -20.5t-17.5 -68.5v-69h102v-65h-102v-427h-86v427h-91v65h91v78q0 73 38 112.5t110 39.5q46 0 99 -17l-17 -66q-39 11 -68 11zM637 427h-123v-427h-86v427h-82v65h82v78q0 73 37.5 112.5t107.5 39.5q35 0 80 -12l-13 -66q-34 6 -52 6
q-41 0 -57.5 -20.5t-16.5 -69.5v-68h123v-65zM762 584q-24 0 -40.5 16.5t-16.5 40.5q0 23 16.5 39t40.5 16t40.5 -16t16.5 -39q0 -24 -16.5 -40.5t-40.5 -16.5zM719 -38v530h86v-530q0 -154 -139 -154q-46 0 -96 15l18 66q36 -10 68 -10q35 0 49 19.5t14 63.5z" />
    <glyph glyph-name="f_j.liga.ss02" horiz-adv-x="553" 
d="M318 427h-123v-427h-86v427h-91v65h91v78q0 73 37.5 112.5t108.5 39.5q34 0 79 -12l-13 -66q-34 6 -52 6q-41 0 -57.5 -20.5t-16.5 -69.5v-68h123v-65zM443 584q-24 0 -40.5 16.5t-16.5 40.5q0 23 16.5 39t40.5 16t40 -16t16 -39q0 -24 -16 -40.5t-40 -16.5zM400 -38v530
h86v-530q0 -154 -139 -154q-48 0 -96 15l18 66q36 -10 68 -10q35 0 49 19.5t14 63.5z" />
    <glyph glyph-name="fi.ss02" horiz-adv-x="554" 
d="M109 492v78q0 73 37.5 112.5t108.5 39.5q34 0 79 -12l-13 -66q-34 6 -52 6q-41 0 -57.5 -20.5t-16.5 -69.5v-68h123v-65h-123v-427h-86v427h-91v65h91zM443 584q-24 0 -40.5 16.5t-16.5 40.5q0 23 16.5 39t40.5 16t40.5 -16t16.5 -39q0 -24 -16.5 -40.5t-40.5 -16.5z
M400 0v492h86v-492h-86z" />
    <glyph glyph-name="zero.case" horiz-adv-x="600" 
d="M300 726q143 0 211 -131q49 -97 49 -240q0 -142 -49 -239q-68 -132 -211 -132t-211 132q-49 97 -49 239q0 143 49 240q68 131 211 131zM300 650q-90 0 -133 -93q-37 -75 -37 -202q0 -126 37 -201q43 -94 133 -94t133 94q37 75 37 201q0 127 -37 202q-43 93 -133 93z" />
    <glyph glyph-name="one.case" horiz-adv-x="468" 
d="M253 710h67v-710h-88v598l-154 -109l-44 61z" />
    <glyph glyph-name="two.case" horiz-adv-x="582" 
d="M132 75h407v-75h-496v33q0 133 93 209q37 31 113 79l53 31q59 34 84.5 53t42.5 47q19 29 19 71q0 59 -39.5 92.5t-100.5 33.5q-62 -2 -101.5 -28.5t-99.5 -100.5l-65 46q58 82 120.5 120.5t143.5 38.5q102 0 166 -56.5t64 -142.5q0 -106 -85 -172q-33 -25 -100 -65
l-50 -30q-69 -44 -91 -60q-28 -21 -51 -51q-23 -32 -27 -73z" />
    <glyph glyph-name="three.case" horiz-adv-x="585" 
d="M284 424l14 1q105 0 170.5 -55.5t65.5 -153.5q0 -92 -67 -162t-180 -70q-129 0 -260 88l45 65q66 -42 113.5 -59.5t98.5 -17.5q72 0 116.5 43.5t44.5 111.5q0 67 -44 104t-126 37q-51 0 -83 -13l-41 56l255 236h-343v75h451v-73z" />
    <glyph glyph-name="four.case" 
d="M469 240h106v-73h-106v-167h-86v167h-356v80l292 463h99l-297 -470h262v164h86v-164z" />
    <glyph glyph-name="five.case" horiz-adv-x="597" 
d="M315 459q103 0 167 -63.5t64 -163.5q0 -101 -69.5 -174t-178.5 -73q-76 0 -133 21t-132 72l45 65q71 -48 114 -65q43 -18 98 -18q76 0 121.5 48.5t45.5 121.5q0 72 -41.5 113t-116.5 41q-87 0 -145 -57l-77 8l31 375h406v-75h-330l-19 -224q59 48 150 48z" />
    <glyph glyph-name="six.case" horiz-adv-x="600" 
d="M325 466q106 0 171.5 -69.5t65.5 -169.5t-70 -171t-184 -71q-120 0 -189 77.5t-69 198.5q0 109 53 202.5t163 197.5l51 49h117v-1l-98 -91q-137 -127 -181 -225q57 73 170 73zM308 60q75 0 120 46.5t45 119.5t-43.5 119t-117.5 46q-76 0 -123.5 -47t-47.5 -118
q0 -72 46 -119t121 -47z" />
    <glyph glyph-name="seven.case" horiz-adv-x="542" 
d="M21 710h501v-64q-103 -129 -182 -300q-80 -176 -104 -346h-97q22 158 103 334q82 176 179 302h-400v74z" />
    <glyph glyph-name="eight.case" horiz-adv-x="599" 
d="M426 384q65 -25 100.5 -74.5t35.5 -115.5q0 -92 -71.5 -151.5t-191.5 -59.5t-191 59.5t-71 151.5q0 66 35.5 115.5t100.5 74.5q-47 22 -73.5 62t-26.5 92q0 83 62.5 135t163.5 52t164 -52t63 -135q0 -52 -26.5 -92t-73.5 -62zM299 654q-63 0 -102 -32.5t-39 -84.5
q0 -54 39 -87.5t102 -33.5t102.5 33.5t39.5 87.5q0 52 -38.5 84.5t-103.5 32.5zM299 58q79 0 126 39t47 102q0 66 -46.5 106t-126.5 40q-78 0 -125 -40t-47 -106q0 -63 46.5 -102t125.5 -39z" />
    <glyph glyph-name="nine.case" horiz-adv-x="599" 
d="M291 725q120 0 189 -76.5t69 -198.5q0 -114 -55 -206q-56 -93 -161 -194l-51 -50h-117v1l99 91q138 129 180 226q-57 -73 -170 -73q-105 0 -171 69t-66 169t70 171t184 71zM287 319q76 0 123.5 47.5t47.5 117.5q0 72 -46 119t-121 47t-120 -46.5t-45 -119.5t43.5 -119
t117.5 -46z" />
    <glyph glyph-name="zero.tf" 
d="M295 696q142 0 207 -126q48 -93 48 -230t-48 -230q-65 -126 -207 -126t-207 126q-48 93 -48 230t48 230q65 126 207 126zM295 620q-87 0 -129 -88q-36 -74 -36 -192t36 -192q42 -88 129 -88t129 88q36 74 36 192t-36 192q-42 88 -129 88z" />
    <glyph glyph-name="one.tf" 
d="M371 69h165v-69h-429v69h175v500l-152 -109l-44 61l218 159h67v-611z" />
    <glyph glyph-name="two.tf" 
d="M139 75h396v-75h-486v33q0 125 93 200q44 35 111 76l50 29q55 31 80.5 50.5t42.5 45.5q18 29 18 67q0 56 -37 87.5t-95 31.5q-57 0 -100 -27.5t-97 -94.5l-65 46q105 152 260 152q100 0 161.5 -54.5t61.5 -137.5q0 -102 -83 -166q-34 -26 -98 -63l-47 -28l-19 -11
q-54 -32 -79.5 -51.5t-43.5 -45.5q-20 -27 -24 -64z" />
    <glyph glyph-name="three.tf" 
d="M283 406l13 1q99 0 163 -54t64 -147q0 -88 -65 -155t-175 -67q-127 0 -252 84l45 65q64 -40 109 -56.5t95 -16.5q69 0 111.5 40.5t42.5 104.5q0 63 -43 98.5t-120 35.5q-51 0 -81 -13l-41 56l245 223h-329v75h438v-73z" />
    <glyph glyph-name="four.tf" 
d="M470 232h102v-73h-102v-159h-86v159h-345v80l282 441h98l-286 -448h251v155h86v-155z" />
    <glyph glyph-name="five.tf" 
d="M312 439q100 0 162.5 -61t62.5 -156q0 -97 -68 -167.5t-174 -70.5q-72 0 -129 20q-50 18 -128 70l44 65q71 -47 110 -62q45 -17 95 -17q71 0 116 45.5t45 112.5t-40.5 107t-111.5 40q-84 0 -139 -54l-77 8l30 361h395v-75h-319l-18 -211q57 45 144 45z" />
    <glyph glyph-name="six.tf" 
d="M323 445q101 0 164 -66t63 -162t-67.5 -164t-178.5 -68q-116 0 -183.5 74t-67.5 191q0 104 52 195t157 189l49 46h118v-1l-108 -99q-114 -102 -158 -197q59 62 160 62zM304 60q71 0 114 43.5t43 112.5q0 68 -41.5 111.5t-111.5 43.5q-74 0 -119 -43.5t-45 -111.5
t44.5 -112t115.5 -44z" />
    <glyph glyph-name="seven.tf" 
d="M45 680h488v-64q-100 -124 -176 -287q-79 -166 -101 -329h-96q21 151 98 314q78 164 173 292h-386v74z" />
    <glyph glyph-name="eight.tf" 
d="M419 369q63 -24 97 -71.5t34 -110.5q0 -88 -69.5 -145.5t-186.5 -57.5q-116 0 -185.5 57.5t-69.5 145.5q0 63 34 110.5t97 71.5q-96 45 -96 148q0 80 61 129.5t159 49.5q99 0 160 -49.5t61 -129.5q0 -103 -96 -148zM294 625q-61 0 -98 -30.5t-37 -79.5q0 -50 37.5 -82
t97.5 -32q61 0 98.5 32t37.5 82q0 49 -37 79.5t-99 30.5zM294 58q76 0 121 37.5t45 96.5q0 63 -44.5 101t-121.5 38q-75 0 -120 -38t-45 -101q0 -59 45 -96.5t120 -37.5z" />
    <glyph glyph-name="nine.tf" 
d="M286 695q116 0 183.5 -74t67.5 -191q0 -104 -52 -195t-157 -189l-49 -46h-117v1l108 99q113 103 158 197q-59 -62 -161 -62q-100 0 -163.5 66.5t-63.5 161.5t68 163.5t178 68.5zM283 309q73 0 118 43.5t45 111.5t-44.5 112t-115.5 44t-114 -43.5t-43 -112.5
q0 -68 42 -111.5t112 -43.5z" />
    <glyph glyph-name="zero.zero" 
d="M502 570q48 -93 48 -230t-48 -230q-65 -126 -207 -126t-207 126q-48 93 -48 230t48 230q65 126 207 126t207 -126zM166 532q-36 -74 -36 -192q0 -101 27 -170l239 405q-37 45 -101 45q-87 0 -129 -88zM424 148q36 74 36 192q0 103 -28 174l-241 -407q39 -47 104 -47
q87 0 129 88z" />
    <glyph glyph-name="zero.dnom" horiz-adv-x="399" 
d="M199 418q77 0 120.5 -58.5t43.5 -155.5t-43.5 -155.5t-120.5 -58.5q-79 0 -122 58.5t-43 155.5t43 155.5t122 58.5zM199 357q-44 0 -68.5 -40.5t-24.5 -112.5t24.5 -112.5t68.5 -40.5t68 40.5t24 112.5t-24 112.5t-68 40.5z" />
    <glyph glyph-name="one.dnom" horiz-adv-x="318" 
d="M165 408h53v-408h-69v323l-75 -55l-35 48z" />
    <glyph glyph-name="two.dnom" horiz-adv-x="397" 
d="M239 162l-28 -15q-54 -31 -73 -47t-24 -41h242v-59h-314v28q0 58 31 95t99 73q4 2 13 7t13 7q50 26 69 43t19 44q0 29 -21.5 44.5t-58.5 15.5q-56 0 -118 -55l-40 46q74 70 159 70q68 0 109 -33.5t41 -84.5q-2 -36 -17 -60.5t-35 -38.5t-66 -39z" />
    <glyph glyph-name="three.dnom" horiz-adv-x="393" 
d="M205 245h4q61 0 100.5 -33t39.5 -88t-42 -94.5t-113 -39.5q-80 0 -164 52l35 50q70 -41 128 -41q39 0 62 20t23 53q0 32 -24.5 51t-67.5 19q-37 0 -52 -7l-31 43l145 119h-199v59h285v-58z" />
    <glyph glyph-name="four.dnom" horiz-adv-x="396" 
d="M309 149h57v-57h-57v-92h-69v92h-207v65l168 251h76l-173 -259h136v86h69v-86z" />
    <glyph glyph-name="five.dnom" horiz-adv-x="395" 
d="M221 267q62 0 100.5 -37.5t38.5 -93.5q0 -64 -44.5 -105t-116.5 -41q-80 0 -167 54l35 51q76 -44 130 -44q40 0 65.5 23t25.5 58q0 36 -22.5 56t-64.5 20q-47 0 -84 -32l-56 6l17 226h262v-59h-204l-9 -112q38 30 94 30z" />
    <glyph glyph-name="six.dnom" horiz-adv-x="398" 
d="M219 274q64 0 104 -40.5t40 -98.5q0 -59 -45 -102t-117 -43q-77 0 -121 45.5t-44 122.5q0 140 155 250h98v-1q-132 -86 -170 -170q37 37 100 37zM201 51q42 0 68 23t26 59t-24.5 59t-65.5 23q-42 0 -69.5 -23.5t-27.5 -58.5q0 -36 25.5 -59t67.5 -23z" />
    <glyph glyph-name="seven.dnom" horiz-adv-x="370" 
d="M27 408h319v-54q-154 -173 -168 -354h-75q7 83 54 181q45 94 112 168h-242v59z" />
    <glyph glyph-name="eight.dnom" horiz-adv-x="400" 
d="M284 218q79 -29 79 -106q0 -54 -44 -87.5t-119 -33.5t-119 33.5t-44 87.5q0 77 79 106q-62 30 -62 91q0 49 40.5 80t105.5 31t105.5 -31t40.5 -80q0 -61 -62 -91zM200 363q-36 0 -58.5 -16.5t-22.5 -42.5q0 -27 23 -45t58 -18t57.5 18t22.5 45q0 26 -22 42.5t-58 16.5z
M200 49q43 0 67.5 19t24.5 50q0 32 -24.5 51.5t-67.5 19.5t-68 -20t-25 -51t25 -50t68 -19z" />
    <glyph glyph-name="nine.dnom" horiz-adv-x="397" 
d="M195 418q78 0 121.5 -45.5t43.5 -122.5q0 -141 -154 -250h-98v1q130 84 167 168q-35 -35 -97 -35q-65 0 -105 40.5t-40 98.5q0 59 45 102t117 43zM192 193q42 0 69 23.5t27 58.5q0 36 -25.5 59t-67.5 23t-67.5 -23t-25.5 -59t24.5 -59t65.5 -23z" />
    <glyph glyph-name="zero.numr" horiz-adv-x="399" 
d="M199 690q77 0 120.5 -58.5t43.5 -155.5t-43.5 -155.5t-120.5 -58.5q-79 0 -122 58.5t-43 155.5t43 155.5t122 58.5zM199 629q-44 0 -68.5 -40.5t-24.5 -112.5t24.5 -112.5t68.5 -40.5t68 40.5t24 112.5t-24 112.5t-68 40.5z" />
    <glyph glyph-name="one.numr" horiz-adv-x="318" 
d="M165 680h53v-408h-69v323l-75 -55l-35 48z" />
    <glyph glyph-name="two.numr" horiz-adv-x="397" 
d="M239 434l-28 -15q-52 -29 -72 -46t-25 -42h242v-59h-314v28q0 58 31 95t99 73q4 2 13 7t13 7q50 26 69 43t19 44q0 29 -21.5 44.5t-58.5 15.5q-56 0 -118 -55l-40 46q74 70 159 70q68 0 109 -33.5t41 -84.5q-2 -36 -17 -60.5t-35 -38.5t-66 -39z" />
    <glyph glyph-name="three.numr" horiz-adv-x="393" 
d="M205 517h4q61 0 100.5 -33t39.5 -88t-42 -94.5t-113 -39.5q-80 0 -164 52l35 50q70 -41 128 -41q39 0 62 20t23 53q0 32 -24.5 51t-67.5 19q-37 0 -52 -7l-31 43l145 119h-199v59h285v-58z" />
    <glyph glyph-name="four.numr" horiz-adv-x="396" 
d="M309 421h57v-57h-57v-92h-69v92h-207v65l168 251h76l-172 -259h135v86h69v-86z" />
    <glyph glyph-name="five.numr" horiz-adv-x="395" 
d="M221 539q62 0 100.5 -37.5t38.5 -93.5q0 -64 -44.5 -105t-116.5 -41q-80 0 -167 54l35 51q76 -44 130 -44q40 0 65.5 23t25.5 58q0 36 -22.5 56t-64.5 20q-47 0 -84 -32l-56 6l17 226h262v-59h-204l-9 -112q38 30 94 30z" />
    <glyph glyph-name="six.numr" horiz-adv-x="398" 
d="M219 546q64 0 104 -40.5t40 -98.5q0 -59 -45 -102t-117 -43q-77 0 -121 45.5t-44 122.5q0 140 155 250h98v-1q-132 -86 -170 -170q37 37 100 37zM201 323q42 0 68 23t26 59t-24.5 59t-65.5 23q-42 0 -69.5 -23.5t-27.5 -58.5q0 -36 25.5 -59t67.5 -23z" />
    <glyph glyph-name="seven.numr" horiz-adv-x="370" 
d="M27 680h319v-54q-154 -173 -168 -354h-75q7 83 54 181q45 94 112 168h-242v59z" />
    <glyph glyph-name="eight.numr" horiz-adv-x="400" 
d="M284 493q79 -29 79 -106q0 -53 -44.5 -87t-118.5 -34t-118.5 34t-44.5 87q0 77 79 106q-62 29 -62 91q0 49 40.5 80t105.5 31t105.5 -31t40.5 -80q0 -59 -62 -91zM200 638q-37 0 -59 -16.5t-22 -42.5q0 -27 23 -45t58 -18t57.5 18t22.5 45q0 26 -22 42.5t-58 16.5z
M200 325q43 0 67.5 18.5t24.5 49.5t-25 51.5t-67 20.5q-43 0 -68 -20t-25 -52q0 -31 25 -49.5t68 -18.5z" />
    <glyph glyph-name="nine.numr" horiz-adv-x="397" 
d="M195 690q78 0 121.5 -45.5t43.5 -122.5q0 -141 -154 -250h-98v1q130 84 167 168q-35 -35 -97 -35q-65 0 -105 40.5t-40 98.5q0 59 45 102t117 43zM192 465q42 0 69 23.5t27 58.5q0 36 -25.5 59t-67.5 23t-67.5 -23t-25.5 -59t24.5 -59t65.5 -23z" />
    <glyph glyph-name="exclamdown.case" horiz-adv-x="265" 
d="M82 602v108h102v-108h-102zM86 0v213l21 296h53l20 -296v-213h-94z" />
    <glyph glyph-name="questiondown.case" horiz-adv-x="485" 
d="M210 602v108h102v-108h-102zM226 -16q-92 0 -153.5 48.5t-61.5 131.5q2 40 16.5 71.5t34 53t59.5 55.5l23 20q42 36 60 61q15 21 20 60l3 29h71v-36q0 -58 -16.5 -88.5t-76.5 -81.5q-19 -17 -20 -17q-47 -40 -65 -65.5t-18 -59.5q0 -47 34.5 -74.5t91.5 -27.5
q45 0 84.5 18.5t93.5 63.5l53 -59q-115 -103 -233 -103z" />
    <glyph glyph-name="periodcentered.ss02" horiz-adv-x="238" 
d="M119 250q-25 0 -43.5 18.5t-18.5 44.5q0 25 18.5 43.5t43.5 18.5t43.5 -18.5t18.5 -43.5q0 -26 -18.5 -44.5t-43.5 -18.5z" />
    <glyph glyph-name="exclamdown.case.ss02" horiz-adv-x="265" 
d="M134 719q25 0 43.5 -18.5t18.5 -44.5q0 -25 -18.5 -43.5t-43.5 -18.5t-43.5 18.5t-18.5 43.5q0 26 18.5 44.5t43.5 18.5zM86 0v213l21 296h53l20 -296v-213h-94z" />
    <glyph glyph-name="questiondown.case.ss02" horiz-adv-x="485" 
d="M264 726q25 0 43.5 -18.5t18.5 -44.5q0 -25 -18.5 -43.5t-43.5 -18.5t-43.5 18.5t-18.5 43.5q0 26 18.5 44.5t43.5 18.5zM226 -9q-92 0 -153.5 48.5t-61.5 132.5q3 57 27 92t83 87l23 20q42 36 60 61q15 21 20 60l3 29h71v-35q0 -59 -16.5 -89.5t-76.5 -81.5
q-19 -16 -20 -17q-47 -40 -65 -65.5t-18 -59.5q0 -47 34.5 -74.5t91.5 -27.5q44 0 83.5 18.5t94.5 64.5l53 -60q-115 -103 -233 -103z" />
    <glyph glyph-name="colon.ss02" horiz-adv-x="258" 
d="M129 373q-25 0 -43.5 18.5t-18.5 44.5q0 25 18.5 43.5t43.5 18.5t43.5 -18.5t18.5 -43.5q0 -26 -18.5 -44.5t-43.5 -18.5zM129 -9q-25 0 -43.5 18.5t-18.5 44.5q0 25 18.5 43.5t43.5 18.5t43.5 -18.5t18.5 -43.5q0 -26 -18.5 -44.5t-43.5 -18.5z" />
    <glyph glyph-name="comma.ss02" horiz-adv-x="218" 
d="M110 115q32 0 52 -24.5t20 -67.5q0 -57 -35.5 -104t-93.5 -50v42q26 3 48 26.5t27 57.5q-9 -3 -19 -3q-27 0 -44.5 17t-17.5 44q0 26 18.5 44t44.5 18z" />
    <glyph glyph-name="ellipsis.ss02" horiz-adv-x="653" 
d="M119 -9q-25 0 -43.5 18.5t-18.5 44.5q0 25 18.5 43.5t43.5 18.5t43.5 -18.5t18.5 -43.5q0 -26 -18.5 -44.5t-43.5 -18.5zM327 -9q-26 0 -44.5 18.5t-18.5 44.5q0 25 18.5 43.5t44.5 18.5q25 0 43 -18.5t18 -43.5q0 -26 -18 -44.5t-43 -18.5zM534 -9q-25 0 -43.5 18.5
t-18.5 44.5q0 25 18.5 43.5t43.5 18.5t43.5 -18.5t18.5 -43.5q0 -26 -18.5 -44.5t-43.5 -18.5z" />
    <glyph glyph-name="exclam.ss02" horiz-adv-x="273" 
d="M188 710v-213l-20 -296h-53l-20 296v213h93zM141 -9q-25 0 -43.5 18.5t-18.5 44.5q0 25 18.5 43.5t43.5 18.5t43.5 -18.5t18.5 -43.5q0 -26 -18.5 -44.5t-43.5 -18.5z" />
    <glyph glyph-name="exclamdown.ss02" horiz-adv-x="225" 
d="M137 502q25 0 43 -18.5t18 -44.5q0 -25 -18 -43.5t-43 -18.5q-26 0 -44.5 18.5t-18.5 43.5q0 26 18.5 44.5t44.5 18.5zM89 -217v213l20 296h53l20 -296v-213h-93z" />
    <glyph glyph-name="period.ss02" horiz-adv-x="218" 
d="M109 -9q-25 0 -43.5 18.5t-18.5 44.5q0 25 18.5 43.5t43.5 18.5t43.5 -18.5t18.5 -43.5q0 -26 -18.5 -44.5t-43.5 -18.5z" />
    <glyph glyph-name="question.ss02" horiz-adv-x="491" 
d="M260 726q91 0 152.5 -48.5t61.5 -131.5q0 -69 -51 -125q-26 -26 -58 -54l-23 -21q-42 -36 -60 -61q-17 -23 -20 -60l-3 -29h-71v36q0 58 16.5 88t75.5 82l18 15q48 39 66.5 65.5t18.5 61.5q0 47 -34 74.5t-91 27.5q-45 0 -84.5 -18.5t-94.5 -63.5l-52 59q115 103 233 103
zM222 -9q-25 0 -43.5 18.5t-18.5 44.5q0 25 18.5 43.5t43.5 18.5t43.5 -18.5t18.5 -43.5q0 -26 -18.5 -44.5t-43.5 -18.5z" />
    <glyph glyph-name="questiondown.ss02" horiz-adv-x="464" 
d="M259 501q26 0 44 -18.5t18 -44.5q0 -25 -18.5 -43t-43.5 -18t-43.5 18t-18.5 43q0 26 18 44.5t44 18.5zM221 -233q-92 0 -153.5 48.5t-61.5 131.5q2 57 26.5 92.5t82.5 85.5l24 21q46 43 60 62q15 21 20 59l3 29h71v-35q0 -58 -16.5 -88.5t-76.5 -81.5q-1 -1 -19 -16
q-46 -40 -65 -66.5t-19 -60.5q0 -46 34.5 -74t91.5 -28q44 0 83 18.5t95 64.5l53 -59q-115 -103 -233 -103z" />
    <glyph glyph-name="semicolon.ss02" horiz-adv-x="258" 
d="M129 373q-25 0 -43.5 18.5t-18.5 44.5q0 25 18.5 43.5t43.5 18.5t43.5 -18.5t18.5 -43.5q0 -26 -18.5 -44.5t-43.5 -18.5zM130 115q32 0 52 -24.5t20 -67.5q0 -57 -35.5 -104t-93.5 -50v42q26 3 48 26.5t27 57.5q-9 -3 -19 -3q-27 0 -44.5 17t-17.5 44q0 26 18.5 44
t44.5 18z" />
    <glyph glyph-name="emdash.case" horiz-adv-x="966" 
d="M886 383v-73h-807v73h807z" />
    <glyph glyph-name="endash.case" horiz-adv-x="723" 
d="M655 383v-73h-587v73h587z" />
    <glyph glyph-name="hyphen.case" horiz-adv-x="405" 
d="M348 385v-77h-291v77h291z" />
    <glyph glyph-name="guillemotleft.case" horiz-adv-x="571" 
d="M287 551l-141 -218l141 -218h-86l-139 218l139 218h86zM505 551l-141 -218l141 -218h-86l-139 218l139 218h86z" />
    <glyph glyph-name="guillemotright.case" horiz-adv-x="571" 
d="M67 551h85l140 -218l-140 -218h-85l139 218zM285 551h85l140 -218l-140 -218h-85l139 218z" />
    <glyph glyph-name="guilsinglleft.case" horiz-adv-x="354" 
d="M287 551l-141 -218l141 -218h-86l-139 218l139 218h86z" />
    <glyph glyph-name="guilsinglright.case" horiz-adv-x="354" 
d="M67 551h85l140 -218l-140 -218h-85l139 218z" />
    <glyph glyph-name="quotedblbase.ss02" horiz-adv-x="400" 
d="M104 109q31 0 50 -23t19 -64q0 -55 -33.5 -99t-89.5 -47v39q25 3 46 25.5t25 54.5q-7 -3 -17 -3q-26 0 -43 16.5t-17 41.5q0 24 18 41.5t42 17.5zM284 109q31 0 50 -23t19 -64q0 -55 -33.5 -99t-89.5 -47v39q25 3 46 25.5t26 54.5q-9 -3 -18 -3q-26 0 -43 16.5t-17 41.5
q0 24 18 41.5t42 17.5z" />
    <glyph glyph-name="quotedblleft.ss02" horiz-adv-x="403" 
d="M116 598q26 0 43 -16.5t17 -41.5q0 -24 -18 -41t-42 -17q-31 0 -50 22.5t-19 64.5q0 55 33.5 99t89.5 47v-40q-25 -3 -46 -25.5t-25 -54.5q9 3 17 3zM300 598q25 0 42 -16.5t17 -41.5q0 -24 -18 -41t-42 -17q-31 0 -50 22.5t-19 64.5q0 55 33.5 99t90.5 47v-40
q-26 -3 -47 -25.5t-25 -54.5q9 3 18 3z" />
    <glyph glyph-name="quotedblright.ss02" horiz-adv-x="400" 
d="M104 714q31 0 50 -23t19 -64q0 -55 -33.5 -99t-89.5 -47v39q25 3 46 25.5t25 54.5q-8 -3 -17 -3q-26 0 -43 16.5t-17 41.5q0 24 18 41.5t42 17.5zM284 714q31 0 50 -23t19 -64q0 -55 -33.5 -99t-89.5 -47v39q25 3 46 25.5t26 54.5q-9 -3 -18 -3q-26 0 -43 16.5t-17 41.5
q0 24 18 41.5t42 17.5z" />
    <glyph glyph-name="quoteleft.ss02" horiz-adv-x="220" 
d="M116 598q26 0 43 -16.5t17 -41.5q0 -24 -18 -41t-42 -17q-31 0 -50 22.5t-19 64.5q0 55 33.5 99t89.5 47v-40q-25 -3 -46 -25.5t-25 -54.5q9 3 17 3z" />
    <glyph glyph-name="quoteright.ss02" horiz-adv-x="220" 
d="M104 714q31 0 50 -23t19 -64q0 -55 -33.5 -99t-89.5 -47v39q25 3 46 25.5t25 54.5q-8 -3 -17 -3q-26 0 -43 16.5t-17 41.5q0 24 18 41.5t42 17.5z" />
    <glyph glyph-name="quotesinglbase.ss02" horiz-adv-x="220" 
d="M104 109q31 0 50 -23t19 -64q0 -55 -33.5 -99t-89.5 -47v39q25 3 46 25.5t25 54.5q-7 -3 -17 -3q-26 0 -43 16.5t-17 41.5q0 24 18 41.5t42 17.5z" />
    <glyph glyph-name="divide.ss02" horiz-adv-x="600" 
d="M301 434q-26 0 -44.5 18.5t-18.5 44.5q0 25 18.5 43t44.5 18q25 0 43.5 -18t18.5 -43q0 -26 -18.5 -44.5t-43.5 -18.5zM560 347v-74h-520v74h520zM301 62q-26 0 -44.5 18.5t-18.5 43.5t18.5 43.5t44.5 18.5q25 0 43.5 -18.5t18.5 -43.5t-18.5 -43.5t-43.5 -18.5z" />
    <glyph glyph-name="registered.ss03" horiz-adv-x="856" 
d="M428 723q153 3 261.5 -105.5t106.5 -262.5q2 -154 -106.5 -262.5t-261.5 -105.5q-153 -3 -261.5 105.5t-106.5 262.5q-2 154 106.5 262.5t261.5 105.5zM428 670q-129 2 -218.5 -90.5t-87.5 -224.5q-2 -132 87.5 -224.5t218.5 -90.5q129 -2 218.5 90.5t87.5 224.5
q2 132 -87.5 224.5t-218.5 90.5zM285 567h167q59 0 96 -36t37 -93q0 -40 -21.5 -70t-59.5 -44l106 -171h-73l-98 162h-89v-162h-65v414zM437 509h-87v-140h87q84 0 84 70q0 33 -21.5 51.5t-62.5 18.5z" />
    <glyph glyph-name="uni0326.alt" horiz-adv-x="0" 
d="M-205 587v88l57 100h48l-51 -100h47v-88h-101z" />
    <glyph glyph-name="uni0326.alt.ss02" horiz-adv-x="0" 
d="M-150 685q25 0 39.5 -13t14.5 -35t-16 -36.5t-39 -14.5q-28 0 -46 19.5t-18 52.5q0 48 32 80.5t81 31.5v-35q-23 -2 -41.5 -16t-24.5 -37q9 3 18 3z" />
    <glyph glyph-name="uni0326.ss02" horiz-adv-x="0" 
d="M-154 -69q29 0 47 -19t18 -52q0 -48 -31.5 -80.5t-81.5 -32.5v36q23 2 41.5 16t23.5 37q-8 -3 -17 -3q-25 0 -39.5 13t-14.5 35q0 21 16 35.5t38 14.5z" />
    <glyph glyph-name="caron.alt" horiz-adv-x="296" 
d="M209 710l-61 -198h-55l30 198h86z" />
    <glyph glyph-name="dieresis.ss02" horiz-adv-x="461" 
d="M142 588q-23 0 -39 16t-16 39q0 22 16 38t39 16q22 0 38.5 -16t16.5 -38t-16 -38.5t-39 -16.5zM320 588q-22 0 -38.5 16.5t-16.5 38.5t16.5 38t38.5 16q23 0 39 -16t16 -38q0 -23 -16 -39t-39 -16z" />
    <glyph glyph-name="dotaccent.ss02" horiz-adv-x="286" 
d="M143 585q-24 0 -40.5 16.5t-16.5 39.5q0 24 16.5 40t40.5 16t40 -16.5t16 -39.5t-16 -39.5t-40 -16.5z" />
    </font>
</defs>
</svg>
