<?xml version="1.0" standalone="no"?>
<!DOCTYPE svg PUBLIC "-//W3C//DTD SVG 1.1//EN" "http://www.w3.org/Graphics/SVG/1.1/DTD/svg11.dtd" >
<svg xmlns="http://www.w3.org/2000/svg" xmlns:xlink="http://www.w3.org/1999/xlink" version="1.1">
<metadata>
Created by FontForge 20170731 at Sun Apr 17 02:55:01 2016
 By Aleksey,,,
Copyright (c) 2015 by Letters from Sweden &#38; Stockholm Design Lab. All rights reserved.
</metadata>
<defs>
<font id="LabGrotesque-Black" horiz-adv-x="590" >
  <font-face 
    font-family="Lab Grotesque Black"
    font-weight="900"
    font-stretch="normal"
    units-per-em="1000"
    panose-1="0 0 10 0 0 0 0 0 0 0"
    ascent="750"
    descent="-250"
    x-height="520"
    cap-height="710"
    bbox="-264 -260 1742 944"
    underline-thickness="102"
    underline-position="-343"
    unicode-range="U+0020-FB02"
  />
<missing-glyph horiz-adv-x="579" 
d="M479 810v-910h-379v910h379z" />
    <glyph glyph-name="fi" unicode="fi" horiz-adv-x="623" 
d="M301 598q-30 0 -41 -12t-11 -43v-23h108v-112h-108v-408h-150v408h-87v112h87v30q0 172 165 172q46 0 96 -12l-17 -116q-23 4 -42 4zM421 710h150v-125h-150v125zM421 0v520h150v-520h-150z" />
    <glyph glyph-name="fl" unicode="fl" horiz-adv-x="625" 
d="M301 598q-30 0 -41 -12t-11 -43v-23h108v-112h-108v-408h-150v408h-87v112h87v30q0 172 165 172q46 0 96 -12l-17 -116q-23 4 -42 4zM421 710h150v-710h-150v710z" />
    <glyph glyph-name="f_f.liga" unicode="ff" horiz-adv-x="732" 
d="M305 606q-56 0 -56 -55v-31h90v-112h-90v-408h-150v408h-87v112h87v37q0 172 174 172q55 0 114 -18l-26 -111q-30 6 -56 6zM663 606q-56 0 -56 -55v-31h110v-112h-110v-408h-150v408h-77v112h77v37q0 172 174 172q55 0 114 -18l-26 -111q-30 6 -56 6z" />
    <glyph glyph-name="f_f_i.liga" unicode="ffi" horiz-adv-x="982" 
d="M305 599q-56 0 -56 -55v-24h90v-112h-90v-408h-150v408h-87v112h87v30q0 172 174 172q55 0 114 -18l-26 -111q-30 6 -56 6zM659 598q-30 0 -41 -12t-11 -43v-23h108v-112h-108v-408h-150v408h-77v112h77v30q0 172 165 172q46 0 96 -12l-17 -116q-23 4 -42 4zM780 710h150
v-125h-150v125zM780 0v520h150v-520h-150z" />
    <glyph glyph-name="f_f_j.liga" unicode="ffj" horiz-adv-x="982" 
d="M305 599q-56 0 -56 -55v-24h90v-112h-90v-408h-150v408h-87v112h87v30q0 172 174 172q55 0 114 -18l-26 -111q-30 6 -56 6zM715 408h-108v-408h-150v408h-77v112h77v30q0 172 165 172q46 0 96 -12l-17 -116q-23 4 -42 4q-30 0 -41 -12t-11 -43v-23h108v-112zM780 710h150
v-125h-150v125zM780 -15v535h150v-531q0 -94 -41.5 -137t-126.5 -43q-60 0 -109 15l25 111q33 -5 53 -5q27 0 38 12.5t11 42.5z" />
    <glyph glyph-name="f_j.liga" unicode="fj" horiz-adv-x="623" 
d="M357 408h-108v-408h-150v408h-87v112h87v30q0 172 165 172q46 0 96 -12l-17 -116q-23 4 -42 4q-30 0 -41 -12t-11 -43v-23h108v-112zM421 710h150v-125h-150v125zM421 -17v537h150v-532q0 -94 -41.5 -137t-126.5 -43q-64 0 -109 15l25 111q36 -6 53 -6q25 0 37 13t12 42z
" />
    <glyph glyph-name=".notdef" horiz-adv-x="579" 
d="M479 810v-910h-379v910h379z" />
    <glyph glyph-name=".null" horiz-adv-x="0" 
 />
    <glyph glyph-name="nonmarkingreturn" horiz-adv-x="333" 
 />
    <glyph glyph-name="space" unicode=" " horiz-adv-x="217" 
 />
    <glyph glyph-name="exclam" unicode="!" horiz-adv-x="309" 
d="M77 710h164v-216l-36 -258h-92l-36 258v216zM239 162v-162h-160v162h160z" />
    <glyph glyph-name="quotedbl" unicode="&#x22;" horiz-adv-x="469" 
d="M193 710l-14 -297h-119l-13 297h146zM422 710l-14 -297h-119l-13 297h146z" />
    <glyph glyph-name="numbersign" unicode="#" 
d="M564 421h-78l-34 -160h78l-20 -96h-78l-35 -165h-108l35 165h-119l-35 -165h-108l35 165h-80l20 96h80l34 160h-80l21 96h79l35 163h108l-35 -163h119l35 163h108l-35 -163h79zM344 261l34 160h-119l-34 -160h119z" />
    <glyph glyph-name="dollar" unicode="$" horiz-adv-x="610" 
d="M570 199q0 -85 -56 -143.5t-154 -70.5v-85h-104v85q-66 7 -122.5 36.5t-119.5 89.5l98 100q41 -43 74 -63.5t70 -27.5v165q-119 38 -164 83.5t-45 121.5q0 78 58 136t151 70v84h104v-85q56 -7 104 -31.5t103 -73.5l-94 -100q-65 59 -113 71v-159q117 -35 163.5 -79
t46.5 -124zM195 494q0 -21 14 -35t47 -26v128q-61 -14 -61 -67zM360 254v-134q62 19 62 70q0 23 -14.5 37.5t-47.5 26.5z" />
    <glyph glyph-name="percent" unicode="%" horiz-adv-x="893" 
d="M641 698l85 -53l-466 -663l-84 54zM218 693q74 0 123 -48.5t49 -122.5q0 -75 -49 -123.5t-123 -48.5t-122.5 48.5t-48.5 123.5q0 74 48.5 122.5t122.5 48.5zM218 604q-33 0 -52.5 -23t-19.5 -59q0 -37 19.5 -60t52.5 -23t53 23t20 60q0 36 -20 59t-53 23zM674 331
q74 0 123 -48.5t49 -122.5q0 -75 -49 -123.5t-123 -48.5t-122.5 48.5t-48.5 123.5q0 74 48.5 122.5t122.5 48.5zM674 242q-33 0 -52.5 -23t-19.5 -59q0 -37 19.5 -60t52.5 -23t53 23t20 60q0 36 -20 59t-53 23z" />
    <glyph glyph-name="ampersand" unicode="&#x26;" horiz-adv-x="726" 
d="M736 0h-184l-57 65q-88 -81 -217 -81q-108 0 -175.5 54t-67.5 140q0 68 40.5 120t129.5 101q-63 83 -63 151q0 77 58.5 128t143.5 51q90 0 146 -48t56 -122q0 -59 -30 -99q-34 -44 -104 -88l87 -100l94 113l105 -81l-109 -135zM345 622q-28 0 -46.5 -18t-18.5 -47
q0 -34 53 -94q44 25 61.5 46t17.5 49t-19 46t-48 18zM290 110q59 0 118 55l-126 144q-53 -31 -74 -56t-21 -59q0 -37 28 -60.5t75 -23.5z" />
    <glyph glyph-name="quotesingle" unicode="'" horiz-adv-x="240" 
d="M193 710l-14 -297h-119l-13 297h146z" />
    <glyph glyph-name="parenleft" unicode="(" horiz-adv-x="347" 
d="M256 783l94 -71q-82 -116 -118 -205q-36 -88 -36 -200t37 -199q36 -90 117 -206l-94 -71q-100 109 -151 224t-51 252t51 252t151 224z" />
    <glyph glyph-name="parenright" unicode=")" horiz-adv-x="347" 
d="M91 -164l-94 71q79 113 119 206q36 89 36 199t-36 199q-39 92 -119 207l94 70q100 -109 151 -224t51 -252t-51 -252t-151 -224z" />
    <glyph glyph-name="asterisk" unicode="*" horiz-adv-x="438" 
d="M265 710v-121l107 39l29 -83l-114 -38l76 -92l-72 -56l-74 98l-69 -96l-71 56l73 90l-113 38l28 83l106 -39v121h94z" />
    <glyph glyph-name="plus" unicode="+" horiz-adv-x="600" 
d="M366 570v-195h194v-130h-194v-195h-132v195h-194v130h194v195h132z" />
    <glyph glyph-name="comma" unicode="," horiz-adv-x="254" 
d="M216 162v-162l-88 -158h-83l76 158h-74v162h169z" />
    <glyph glyph-name="hyphen" unicode="-" horiz-adv-x="410" 
d="M364 359v-135h-319v135h319z" />
    <glyph glyph-name="period" unicode="." horiz-adv-x="254" 
d="M207 162v-162h-160v162h160z" />
    <glyph glyph-name="slash" unicode="/" horiz-adv-x="483" 
d="M471 710l-310 -710h-149l310 710h149z" />
    <glyph glyph-name="zero" unicode="0" 
d="M295 698q153 0 223 -133q46 -93 46 -225t-46 -225q-70 -133 -223 -133t-223 133q-47 92 -47 225t47 225q70 133 223 133zM295 563q-56 0 -85 -60q-26 -57 -26 -163t26 -163q29 -60 85 -60q57 0 86 60q26 54 26 163t-26 163q-29 60 -86 60z" />
    <glyph glyph-name="one" unicode="1" horiz-adv-x="460" 
d="M224 680h122v-680h-156v490l-105 -71l-76 106z" />
    <glyph glyph-name="two" unicode="2" horiz-adv-x="605" 
d="M373 256l-40 -24q-8 -6 -33 -19q-50 -29 -71 -45.5t-30 -38.5h359v-129h-523v62q0 125 97 200q35 28 105 70l45 27q71 41 95.5 64.5t28.5 65.5q0 34 -24.5 55t-64.5 21q-42 0 -81.5 -27t-86.5 -86l-114 81q112 165 284 165q116 0 179 -58.5t63 -145.5q0 -108 -84 -171
q-38 -29 -104 -67z" />
    <glyph glyph-name="three" unicode="3" horiz-adv-x="581" 
d="M516 553l-170 -140q88 -6 144 -60q55 -55 55 -142q0 -94 -71 -161.5t-192 -67.5q-142 0 -267 90l74 109q61 -36 102.5 -51t86.5 -15q53 0 82 25.5t29 70.5q0 43 -32.5 68t-83.5 25q-48 0 -83 -13l-67 93l205 167h-277v129h465v-127z" />
    <glyph glyph-name="four" unicode="4" horiz-adv-x="586" 
d="M489 268h91v-124h-91v-144h-152v144h-315v146l249 390h172l-263 -412h157v129h152v-129z" />
    <glyph glyph-name="five" unicode="5" horiz-adv-x="577" 
d="M320 443q96 0 157.5 -62.5t61.5 -148.5q0 -112 -73.5 -181t-185.5 -69q-79 0 -138 23q-59 22 -134 72l76 109q62 -38 103 -55q38 -16 83 -16q49 0 82 28t33 74t-29.5 73t-77.5 27q-53 0 -93 -32l-137 12l30 383h426v-129h-294l-12 -140q52 32 122 32z" />
    <glyph glyph-name="six" unicode="6" horiz-adv-x="587" 
d="M335 451q98 0 162.5 -66.5t64.5 -161.5q0 -97 -72 -168t-190 -71q-121 0 -194.5 77.5t-73.5 207.5q0 188 196 375l37 36h201v-2l-117 -109q-87 -81 -129 -148q45 30 115 30zM299 117q48 0 79 29t31 75t-31.5 75t-79.5 29t-80.5 -29.5t-32.5 -74.5t32.5 -74.5t81.5 -29.5z
" />
    <glyph glyph-name="seven" unicode="7" horiz-adv-x="549" 
d="M23 680h512v-118q-92 -110 -159 -259q-68 -148 -88 -303h-174q16 139 84 283q66 144 160 268h-335v129z" />
    <glyph glyph-name="eight" unicode="8" horiz-adv-x="585" 
d="M454 368q111 -56 111 -175q0 -92 -73.5 -151.5t-199.5 -59.5t-199.5 59.5t-73.5 151.5q0 121 112 175q-82 49 -82 146q0 82 67 133.5t176 51.5t176.5 -51.5t67.5 -133.5q0 -94 -82 -146zM292 581q-42 0 -67.5 -22t-25.5 -55q0 -36 25.5 -58t67.5 -22t68 22t26 58
q0 33 -26 55t-68 22zM292 109q53 0 84.5 27t31.5 70t-31.5 71.5t-84.5 28.5t-84 -28.5t-31 -71.5t31 -70t84 -27z" />
    <glyph glyph-name="nine" unicode="9" horiz-adv-x="587" 
d="M287 696q121 0 194.5 -77.5t73.5 -207.5q0 -187 -196 -375l-37 -36h-201v2l117 109q87 81 129 148q-45 -30 -115 -30q-98 0 -162.5 66.5t-64.5 161.5q0 97 72 168t190 71zM178 459q0 -46 31.5 -75t79.5 -29t80.5 29.5t32.5 74.5t-32.5 74.5t-81.5 29.5q-48 0 -79 -29
t-31 -75z" />
    <glyph glyph-name="colon" unicode=":" horiz-adv-x="294" 
d="M227 520v-162h-160v162h160zM227 162v-162h-160v162h160z" />
    <glyph glyph-name="semicolon" unicode=";" horiz-adv-x="294" 
d="M238 162v-162l-88 -158h-83l76 158h-74v162h169zM232 520v-162h-160v162h160z" />
    <glyph glyph-name="less" unicode="&#x3c;" horiz-adv-x="600" 
d="M540 544v-130l-310 -104l310 -104v-130l-480 180v108z" />
    <glyph glyph-name="equal" unicode="=" horiz-adv-x="600" 
d="M560 475v-130h-520v130h520zM560 275v-130h-520v130h520z" />
    <glyph glyph-name="greater" unicode="&#x3e;" horiz-adv-x="600" 
d="M60 544l480 -180v-108l-480 -180v130l310 104l-310 104v130z" />
    <glyph glyph-name="question" unicode="?" horiz-adv-x="516" 
d="M272 728q111 0 174 -52t63 -142q0 -54 -26 -92q-27 -39 -97 -100q-2 -2 -6 -5.5t-11 -9.5t-13 -11q-25 -21 -34 -36q-11 -15 -16 -35l-3 -14h-135v14q0 45 5 66.5t26 47.5q20 27 71 69l20 17q32 26 44.5 42.5t12.5 38.5q0 28 -22 45t-59 17q-35 0 -69 -16.5t-92 -58.5
l-88 106q122 109 255 109zM318 162v-162h-160v162h160z" />
    <glyph glyph-name="at" unicode="@" horiz-adv-x="988" 
d="M739 493l-58 -269q-6 -27 -6 -49q0 -60 59 -60q46 0 73 52.5t27 138.5q0 150 -86.5 228.5t-238.5 78.5q-164 0 -255 -97.5t-91 -262.5q0 -163 92 -251t270 -88h234v-104h-261q-214 0 -337.5 121t-123.5 324q-2 205 127.5 338t337.5 130q196 2 323.5 -115t125.5 -300
q0 -130 -61 -207.5t-162 -77.5q-118 0 -151 79q-25 -37 -66 -58t-87 -21q-83 0 -125.5 46.5t-42.5 128.5q-1 71 28.5 141.5t85.5 117t122 44.5q89 0 119 -65l8 57h120zM443 128q42 -1 72 34.5t41.5 78.5t11.5 82q0 73 -60 73q-52 0 -88 -60.5t-36 -131.5q0 -76 59 -76z" />
    <glyph glyph-name="A" unicode="A" horiz-adv-x="731" 
d="M556 0l-41 124h-304l-42 -124h-162l252 710h213l253 -710h-169zM257 258h214l-27 80l-23 68q-2 6 -5.5 17t-9.5 28.5t-11 33.5q-19 57 -33 102q-27 -100 -80 -254z" />
    <glyph glyph-name="B" unicode="B" horiz-adv-x="690" 
d="M524 373q65 -19 99.5 -63t34.5 -110q0 -93 -59.5 -146.5t-161.5 -53.5h-370v710h349q94 0 156 -48q61 -49 61 -136q0 -116 -109 -153zM228 587v-156h147q48 0 74.5 21.5t26.5 59.5q0 75 -100 75h-148zM228 123h149q119 0 119 91q0 44 -30.5 68t-88.5 24h-149v-183z" />
    <glyph glyph-name="C" unicode="C" horiz-adv-x="680" 
d="M391 728q85 0 145 -25q61 -26 125 -84l-95 -112q-53 45 -90.5 61.5t-85.5 16.5q-89 0 -141.5 -61.5t-52.5 -167.5q0 -107 52.5 -169t140.5 -62q52 0 90 19q39 18 99 66l93 -110q-66 -61 -132.5 -89.5t-147.5 -28.5q-164 0 -262 105.5t-98 270.5q0 162 97 266t263 104z
" />
    <glyph glyph-name="D" unicode="D" horiz-adv-x="722" 
d="M67 710h296q150 0 239 -98t89 -257t-89 -257t-239 -98h-296v710zM339 574h-111v-438h111q85 0 134.5 55.5t49.5 163.5t-49.5 163.5t-134.5 55.5z" />
    <glyph glyph-name="E" unicode="E" horiz-adv-x="636" 
d="M578 710v-136h-349v-138h328v-137h-328v-163h361v-136h-523v710h511z" />
    <glyph glyph-name="F" unicode="F" horiz-adv-x="613" 
d="M578 710v-136h-349v-159h324v-136h-324v-279h-162v710h511z" />
    <glyph glyph-name="G" unicode="G" horiz-adv-x="757" 
d="M365 268v136h338v-404h-123l-6 61q-61 -78 -195 -78q-160 0 -254 104t-94 269q-2 162 98.5 267.5t265.5 103.5q93 0 164.5 -30t145.5 -102l-102 -106q-60 53 -107 74t-101 21q-92 0 -145.5 -59t-53.5 -168q0 -112 52.5 -172.5t143.5 -60.5q78 0 121.5 37.5t43.5 103.5v3
h-192z" />
    <glyph glyph-name="H" unicode="H" horiz-adv-x="745" 
d="M678 710v-710h-162v307h-287v-307h-162v710h162v-267h287v267h162z" />
    <glyph glyph-name="I" unicode="I" horiz-adv-x="310" 
d="M236 710v-710h-162v710h162z" />
    <glyph glyph-name="J" unicode="J" horiz-adv-x="478" 
d="M414 710v-517q0 -104 -59.5 -156.5t-162.5 -52.5q-99 0 -190 41l45 130q81 -26 134 -26q71 0 71 84v497h162z" />
    <glyph glyph-name="K" unicode="K" horiz-adv-x="709" 
d="M530 0l-200 323l-101 -107v-216h-162v710h162v-295l268 295h198l-255 -271l272 -439h-182z" />
    <glyph glyph-name="L" unicode="L" horiz-adv-x="565" 
d="M229 710v-571h306v-139h-468v710h162z" />
    <glyph glyph-name="M" unicode="M" horiz-adv-x="926" 
d="M610 710h249v-710h-157v362q0 110 3 216q-37 -136 -61 -216l-109 -362h-140l-111 362l-31 101q-9 29 -17.5 58.5t-12.5 41.5t-4 14q3 -106 3 -214v-363h-155v710h253l85 -278q42 -140 61 -219q22 95 60 219z" />
    <glyph glyph-name="N" unicode="N" horiz-adv-x="747" 
d="M523 710h157v-710h-170l-167 272q-86 138 -125 214q6 -123 6 -275v-211h-157v710h174l181 -296q75 -122 105 -177q-4 84 -4 245v228z" />
    <glyph glyph-name="O" unicode="O" horiz-adv-x="775" 
d="M388 728q159 2 258.5 -106t97.5 -267q2 -159 -97.5 -267t-258.5 -106q-159 -2 -259 106t-98 267q-2 159 98 267t259 106zM388 584q-87 0 -138.5 -62t-51.5 -167q0 -106 51.5 -167.5t138.5 -61.5t138 61.5t51 167.5t-51 167.5t-138 61.5z" />
    <glyph glyph-name="P" unicode="P" horiz-adv-x="694" 
d="M67 710h359q107 0 171 -63.5t64 -165.5t-64 -165t-171 -63h-197v-253h-162v710zM395 576h-167v-189h167q49 0 77 24.5t28 69.5t-28 70t-77 25z" />
    <glyph glyph-name="Q" unicode="Q" horiz-adv-x="775" 
d="M744 355q0 -173 -108 -279l56 -73l-114 -79l-60 79q-58 -21 -130 -21q-159 -2 -259 106t-98 267q-2 159 98 267t259 106q159 2 258.5 -106t97.5 -267zM388 126q18 0 34 3l-75 98l112 79l79 -103q39 61 39 152q0 106 -51 167.5t-138 61.5t-138.5 -62t-51.5 -167
q0 -106 51.5 -167.5t138.5 -61.5z" />
    <glyph glyph-name="R" unicode="R" horiz-adv-x="704" 
d="M681 0h-177l-160 253h-115v-253h-162v710h353q103 0 169.5 -65t66.5 -164q0 -75 -40 -132.5t-108 -81.5zM228 387h162q49 0 77.5 25t28.5 69q0 45 -28.5 70t-77.5 25h-162v-189z" />
    <glyph glyph-name="S" unicode="S" horiz-adv-x="652" 
d="M323 727q88 0 157 -26q67 -26 137 -87l-96 -113q-61 52 -101 68q-43 17 -100 17q-53 0 -85 -20.5t-32 -53.5q4 -32 26 -43t111 -32l28 -7q144 -36 199 -78t58 -133q0 -105 -78.5 -171t-211.5 -66q-98 0 -170 31q-73 30 -155 104l98 114q69 -61 117 -84q49 -23 113 -23
q57 0 92 21.5t35 59.5q-4 33 -26.5 45.5t-95.5 30.5q-24 5 -51 12q-143 37 -195.5 82.5t-52.5 128.5q0 92 78 157.5t201 65.5z" />
    <glyph glyph-name="T" unicode="T" horiz-adv-x="614" 
d="M589 710v-139h-202v-571h-162v571h-200v139h564z" />
    <glyph glyph-name="U" unicode="U" horiz-adv-x="714" 
d="M650 710v-464q0 -264 -293 -264t-293 264v464h162v-459q0 -125 131 -125q65 0 98 32.5t33 92.5v459h162z" />
    <glyph glyph-name="V" unicode="V" horiz-adv-x="681" 
d="M508 710h165l-233 -710h-200l-232 710h168l105 -335q31 -97 62 -213q35 125 61 211z" />
    <glyph glyph-name="W" unicode="W" horiz-adv-x="987" 
d="M807 710h158l-171 -710h-185l-62 250q-27 106 -52 225q-16 -79 -52 -224l-62 -251h-185l-174 710h166l66 -290q22 -94 44 -216q25 116 50 216l76 290h150l73 -290q25 -100 50 -223q22 126 43 223z" />
    <glyph glyph-name="X" unicode="X" horiz-adv-x="733" 
d="M724 0h-181l-177 260l-179 -260h-178l261 379l-232 331h183l147 -217l147 217h180l-233 -332z" />
    <glyph glyph-name="Y" unicode="Y" horiz-adv-x="649" 
d="M473 710h171l-250 -414v-296h-162v297l-250 413h178l156 -270z" />
    <glyph glyph-name="Z" unicode="Z" horiz-adv-x="649" 
d="M604 710v-134l-363 -440h362v-136h-558v134l363 440h-351v136h547z" />
    <glyph glyph-name="bracketleft" unicode="[" horiz-adv-x="363" 
d="M336 781v-109h-110v-728h110v-108h-249v945h249z" />
    <glyph glyph-name="backslash" unicode="\" horiz-adv-x="483" 
d="M12 710h149l310 -710h-149z" />
    <glyph glyph-name="bracketright" unicode="]" horiz-adv-x="363" 
d="M27 781h249v-945h-249v108h111v728h-111v109z" />
    <glyph glyph-name="asciicircum" unicode="^" 
d="M349 710l199 -430h-116l-135 296l-137 -296h-117l200 430h106z" />
    <glyph glyph-name="underscore" unicode="_" horiz-adv-x="600" 
d="M605 -88v-102h-610v102h610z" />
    <glyph glyph-name="grave" unicode="`" horiz-adv-x="396" 
d="M82 734h163l67 -152h-132z" />
    <glyph glyph-name="a" unicode="a" horiz-adv-x="563" 
d="M282 538q112 0 171.5 -51t59.5 -140v-347h-135v52q-51 -70 -165 -70q-84 0 -134.5 39t-50.5 112q0 79 56 122t168 61l119 20v6q0 35 -23 54t-64 19q-57 0 -106 -36q-33 -28 -53 -47l-95 86q106 120 252 120zM245 99q55 0 90.5 28.5t35.5 84.5v20l-86 -16
q-59 -11 -86 -27.5t-27 -43.5q0 -21 19 -33.5t54 -12.5z" />
    <glyph glyph-name="b" unicode="b" horiz-adv-x="612" 
d="M354 536q101 0 165.5 -75.5t64.5 -199.5q0 -125 -64.5 -200.5t-166.5 -75.5q-109 0 -162 77v-62h-139v710h150v-238q54 64 152 64zM314 114q53 0 86 40t33 107t-32 107.5t-86 40.5q-52 0 -85 -41t-33 -107t33 -106.5t84 -40.5z" />
    <glyph glyph-name="c" unicode="c" horiz-adv-x="541" 
d="M523 441l-91 -94q-73 64 -130 64t-90.5 -41.5t-33.5 -108.5t33 -108.5t89 -41.5q35 0 64.5 17.5t70.5 60.5l100 -83q-53 -67 -109.5 -95t-128.5 -28q-121 0 -196 75.5t-75 202.5t76 202t198 75q65 0 118 -22.5t105 -74.5z" />
    <glyph glyph-name="d" unicode="d" horiz-adv-x="612" 
d="M410 710h150v-710h-139v63q-55 -79 -163 -79q-101 0 -165.5 75.5t-64.5 199.5q0 125 64.5 200.5t166.5 75.5q97 0 151 -62v237zM297 111q52 0 85 41t33 107t-33 106.5t-84 40.5q-53 0 -86 -40t-33 -107t32 -107.5t86 -40.5z" />
    <glyph glyph-name="e" unicode="e" horiz-adv-x="574" 
d="M309 110q41 0 73 14.5t76 51.5l82 -94q-103 -99 -235 -99q-128 0 -203.5 75t-75.5 200q0 123 72 201.5t194 78.5q119 0 183.5 -69t64.5 -194q0 -28 -2 -58h-367q24 -107 138 -107zM290 421q-91 0 -116 -99h223q-11 99 -107 99z" />
    <glyph glyph-name="f" unicode="f" horiz-adv-x="374" 
d="M302 607q-29 0 -41 -12.5t-12 -43.5v-31h109v-112h-109v-408h-150v408h-87v112h87v37q0 172 174 172q54 0 114 -18l-26 -111q-29 7 -59 7z" />
    <glyph glyph-name="g" unicode="g" horiz-adv-x="601" 
d="M411 520h138v-489q0 -109 -73 -168.5t-189 -59.5q-131 0 -252 75l72 109q103 -59 178 -59q117 0 117 117v30q-50 -59 -145 -59q-98 0 -163.5 73t-65.5 188t65.5 188t163.5 73q105 0 154 -69v51zM293 143q51 0 83 37t32 97t-32 96.5t-83 36.5t-82.5 -36.5t-31.5 -96.5
t32 -97t82 -37z" />
    <glyph glyph-name="h" unicode="h" horiz-adv-x="581" 
d="M345 538q87 0 136.5 -49t49.5 -133v-356h-150v312q0 46 -22.5 71t-64.5 25q-41 0 -66.5 -27t-25.5 -72v-309h-150v710h150v-233q54 61 143 61z" />
    <glyph glyph-name="i" unicode="i" horiz-adv-x="254" 
d="M202 520v-520h-150v520h150zM202 710v-125h-150v125h150z" />
    <glyph glyph-name="j" unicode="j" horiz-adv-x="259" 
d="M-70 -176l25 112q29 -6 52 -6q27 0 38.5 12.5t11.5 42.5v535h150v-530q0 -94 -41.5 -137.5t-126.5 -43.5q-59 0 -109 15zM207 710v-125h-150v125h150z" />
    <glyph glyph-name="k" unicode="k" horiz-adv-x="567" 
d="M406 0l-139 230l-65 -66v-164h-150v710h150v-381l177 191h173l-181 -191l200 -329h-165z" />
    <glyph glyph-name="l" unicode="l" horiz-adv-x="258" 
d="M204 710v-710h-150v710h150z" />
    <glyph glyph-name="m" unicode="m" horiz-adv-x="858" 
d="M635 538q83 0 128 -46.5t45 -128.5v-363h-150v320q0 88 -73 88q-38 0 -59 -24t-21 -66v-318h-150v320q0 88 -73 88q-39 0 -59.5 -26t-20.5 -70v-312h-150v520h139v-57q46 75 148 75q101 0 143 -75q54 75 153 75z" />
    <glyph glyph-name="n" unicode="n" horiz-adv-x="581" 
d="M345 538q87 0 136.5 -49t49.5 -133v-356h-150v314q0 45 -22.5 69.5t-64.5 24.5t-67 -26t-25 -71v-311h-150v520h139v-56q53 74 154 74z" />
    <glyph glyph-name="o" unicode="o" horiz-adv-x="601" 
d="M301 538q120 0 197 -77.5t77 -199.5q0 -123 -77 -200.5t-197 -77.5q-121 0 -198 77.5t-77 200.5q0 122 77 199.5t198 77.5zM301 411q-55 0 -89 -41t-34 -109q0 -69 34 -110t89 -41t88.5 41t33.5 110q0 68 -34 109t-88 41z" />
    <glyph glyph-name="p" unicode="p" horiz-adv-x="612" 
d="M354 536q101 0 165.5 -75.5t64.5 -199.5q0 -125 -64.5 -200.5t-166.5 -75.5q-97 0 -151 62v-227h-150v700h139v-63q55 79 163 79zM314 114q53 0 86 40t33 107t-32 107.5t-86 40.5q-52 0 -85 -41t-33 -107t33 -106.5t84 -40.5z" />
    <glyph glyph-name="q" unicode="q" horiz-adv-x="612" 
d="M421 520h139v-700h-150v228q-54 -64 -152 -64q-101 0 -165.5 75.5t-64.5 199.5q0 125 64.5 200.5t166.5 75.5q110 0 162 -76v61zM297 111q52 0 85 41t33 107t-33 106.5t-84 40.5q-53 0 -86 -40t-33 -107t32 -107.5t86 -40.5z" />
    <glyph glyph-name="r" unicode="r" horiz-adv-x="411" 
d="M321 529q31 0 85 -18l-28 -132q-47 11 -68 11q-50 0 -79 -38.5t-29 -105.5v-246h-150v520h139v-74q42 83 130 83z" />
    <glyph glyph-name="s" unicode="s" horiz-adv-x="523" 
d="M261 538q69 0 122.5 -19.5t107.5 -64.5l-79 -96q-75 59 -155 59q-35 0 -55.5 -11t-20.5 -30t22 -28t91 -23q114 -25 158.5 -60.5t44.5 -107.5q0 -77 -61.5 -125.5t-167.5 -48.5q-75 0 -136 23t-122 77l85 95q57 -45 93 -59q37 -15 85 -15q34 0 56 12t22 33
q0 20 -18.5 29.5t-71.5 19.5l-31 7q-110 25 -151 59.5t-41 99.5q0 74 61 124t162 50z" />
    <glyph glyph-name="t" unicode="t" horiz-adv-x="398" 
d="M361 126l17 -120q-63 -19 -119 -19q-83 0 -119.5 36t-36.5 115v270h-91v112h91v152h150v-152h117v-112h-117v-243q0 -26 12 -36.5t37 -10.5q19 0 59 8z" />
    <glyph glyph-name="u" unicode="u" horiz-adv-x="573" 
d="M371 520h150v-520h-137v55q-47 -72 -151 -72q-92 0 -137.5 44t-45.5 126v367h150v-327q0 -79 77 -79q94 0 94 99v307z" />
    <glyph glyph-name="v" unicode="v" horiz-adv-x="542" 
d="M380 520h156l-175 -520h-181l-174 520h158l47 -161q45 -156 61 -224q16 68 61 224z" />
    <glyph glyph-name="w" unicode="w" horiz-adv-x="823" 
d="M654 521h157l-144 -521h-178l-35 130q-6 23 -38 163l-7 33q-15 -84 -41 -195l-33 -131h-179l-144 521h160l37 -161q20 -78 46 -221l11 52q16 82 37 169l41 161h137l41 -161q19 -78 42 -191l7 -32q23 131 46 223z" />
    <glyph glyph-name="x" unicode="x" horiz-adv-x="544" 
d="M542 0h-164l-107 164l-108 -164h-161l187 274l-169 246h162l91 -138l90 138h161l-167 -242z" />
    <glyph glyph-name="y" unicode="y" horiz-adv-x="538" 
d="M379 520h154l-198 -572q-26 -77 -71 -110.5t-120 -33.5q-63 0 -108 15l25 111q30 -6 63 -6q55 0 77 46l-196 550h158l40 -121q51 -151 70 -221q22 79 67 221z" />
    <glyph glyph-name="z" unicode="z" horiz-adv-x="507" 
d="M469 520v-114l-250 -284h250v-122h-437v113l252 286h-237v121h422z" />
    <glyph glyph-name="braceleft" unicode="{" horiz-adv-x="376" 
d="M349 781v-109h-19q-61 0 -66 -38q-2 -22 -2 -67v-127q0 -56 -20.5 -84.5t-73.5 -37.5v-2q53 -9 73.5 -37.5t20.5 -84.5v-145v-44q0 -37 16 -49t52 -12h19v-108h-53q-89 0 -130.5 39.5t-41.5 128.5v165q0 59 -12 75.5t-62 16.5v111q50 0 62 16t12 77v148q0 89 41.5 128.5
t130.5 39.5h53z" />
    <glyph glyph-name="bar" unicode="|" horiz-adv-x="393" 
d="M259 800v-940h-125v940h125z" />
    <glyph glyph-name="braceright" unicode="}" horiz-adv-x="376" 
d="M27 781h53q89 0 131 -39.5t42 -128.5v-148q0 -61 12 -77t61 -16v-111q-51 -3 -61 -16.5t-12 -75.5v-165q0 -89 -42 -128.5t-131 -39.5h-53v108h19q61 0 66 38q2 22 2 67v145q0 56 20.5 84.5t73.5 37.5v2q-53 9 -73.5 37.5t-20.5 84.5v127v45q0 36 -16 48q-17 12 -52 12
h-19v109z" />
    <glyph glyph-name="asciitilde" unicode="~" horiz-adv-x="600" 
d="M196 429q56 0 120 -27q45 -20 75 -20q45 0 50 39h119q1 -75 -41 -117t-107 -42q-61 0 -127 29q-51 19 -74 19q-21 0 -36 -10.5t-19 -29.5h-117q0 75 46 117t111 42z" />
    <glyph glyph-name="exclamdown" unicode="&#xa1;" horiz-adv-x="267" 
d="M58 359v162h160v-162h-160zM220 -189h-164v216l36 258h92l36 -258v-216z" />
    <glyph glyph-name="cent" unicode="&#xa2;" 
d="M456 189l100 -83q-81 -102 -177 -118v-88h-104v86q-105 13 -166.5 86t-61.5 189q0 113 62 186t166 88v77h104v-78q93 -17 165 -94l-92 -93q-38 35 -73 52v-274q34 16 77 64zM199 261q0 -51 20 -88.5t56 -52.5v282q-36 -16 -56 -53t-20 -88z" />
    <glyph glyph-name="sterling" unicode="&#xa3;" 
d="M517 151l47 -118q-77 -46 -149 -46q-58 0 -136 22q-72 18 -105 18q-46 0 -98 -25l-43 115q3 1 41 14q35 12 54 37t19 61q0 22 -1 29h-92v115h63q-16 57 -16 126q0 87 67.5 140.5t164.5 53.5q126 0 225 -79l-81 -107q-85 53 -138 53q-37 0 -59 -21.5t-22 -60.5
q0 -40 18 -105h185v-115h-162v-4q0 -66 -60 -111q12 -2 49 -11q71 -16 111 -16q56 0 118 35z" />
    <glyph glyph-name="currency" unicode="&#xa4;" 
d="M489 591l57 -56l-61 -62q40 -53 40 -133t-40 -133l61 -62l-57 -56l-62 63q-55 -34 -130 -34t-133 36l-64 -65l-56 56l63 64q-38 56 -38 131q0 78 39 130l-65 65l57 56l65 -64q59 35 132 35q75 0 130 -34zM297 472q-58 0 -92.5 -35t-34.5 -97t34.5 -97t92.5 -35
q59 0 93.5 35t34.5 97t-34.5 97t-93.5 35z" />
    <glyph glyph-name="yen" unicode="&#xa5;" 
d="M581 680l-145 -268h106v-102h-161l-8 -14v-38h169v-102h-169v-156h-156v156h-168v102h168v39l-7 13h-161v102h106l-145 268h171l117 -233l119 233h164z" />
    <glyph glyph-name="brokenbar" unicode="&#xa6;" horiz-adv-x="393" 
d="M259 800v-400h-125v400h125zM259 260v-400h-125v400h125z" />
    <glyph glyph-name="section" unicode="&#xa7;" 
d="M495 184q42 -39 42 -112q0 -77 -66.5 -128t-178.5 -51q-77 0 -135 20.5t-118 70.5l81 97q51 -38 89 -52.5t86 -14.5q46 0 72.5 14.5t26.5 39.5q0 30 -50 44q-8 2 -86 19q-127 28 -179 67.5t-52 115.5q0 82 69 119q-43 37 -43 112q0 77 66.5 129t177.5 52q76 0 135 -20.5
t119 -70.5l-81 -98q-50 38 -89 52.5t-87 14.5q-45 0 -71.5 -15t-26.5 -40q0 -29 49 -42q23 -7 87 -21q127 -28 179 -67.5t52 -114.5q0 -79 -68 -120zM173 322q0 -24 23.5 -35.5t88.5 -25.5l17.5 -3.5t18.5 -4.5l40 -9q55 15 55 51q0 26 -26 38.5t-100 27.5l-22 5l-37 9
q-58 -18 -58 -53z" />
    <glyph glyph-name="dieresis" unicode="&#xa8;" horiz-adv-x="529" 
d="M232 710v-125h-143v125h143zM440 710v-125h-143v125h143z" />
    <glyph glyph-name="copyright" unicode="&#xa9;" horiz-adv-x="856" 
d="M428 723q153 3 261.5 -105.5t106.5 -262.5q2 -154 -106.5 -262.5t-261.5 -105.5q-153 -3 -261.5 105.5t-106.5 262.5q-2 154 106.5 262.5t261.5 105.5zM428 655q-125 2 -210 -85.5t-83 -214.5q-2 -127 83 -214.5t210 -85.5q126 0 209 85.5t83 214.5t-83 214.5t-209 85.5z
M432 576q122 0 176 -107l-76 -35q-40 61 -100 61q-55 0 -87.5 -37.5t-32.5 -102.5q0 -64 32.5 -102t87.5 -38q36 0 58 15.5t46 55.5l75 -37q-31 -61 -72.5 -88t-106.5 -27q-92 0 -150 63t-58 158t58 158t150 63z" />
    <glyph glyph-name="ordfeminine" unicode="&#xaa;" horiz-adv-x="451" 
d="M225 718q88 0 136 -40t48 -110v-275h-99v44q-44 -57 -140 -57q-63 0 -103 30.5t-40 88.5q0 63 44.5 95t143.5 50l87 15q0 31 -21.5 47.5t-60.5 16.5q-60 0 -118 -59l-71 67q73 87 194 87zM196 370q46 0 76 23t30 69v17l-69 -16q-58 -14 -76.5 -24t-18.5 -33
q0 -16 15.5 -26t42.5 -10z" />
    <glyph glyph-name="guillemotleft" unicode="&#xab;" horiz-adv-x="630" 
d="M335 481l-148 -228l148 -228h-138l-145 228l145 228h138zM573 481l-148 -228l148 -228h-138l-145 228l145 228h138z" />
    <glyph glyph-name="logicalnot" unicode="&#xac;" horiz-adv-x="600" 
d="M40 375h520v-313h-129v183h-391v130z" />
    <glyph glyph-name="registered" unicode="&#xae;" horiz-adv-x="542" 
d="M271 722q94 0 157.5 -63.5t63.5 -157.5t-63.5 -157.5t-157.5 -63.5t-157.5 63.5t-63.5 157.5t63.5 157.5t157.5 63.5zM271 674q-74 0 -121 -49t-47 -124t47 -124t121 -49q73 0 120.5 49.5t47.5 123.5t-47.5 123.5t-120.5 49.5zM185 631h106q35 0 57.5 -23t22.5 -57
q0 -25 -13 -45.5t-34 -29.5l56 -95h-60l-53 90h-27v-90h-55v250zM282 581h-42v-63h42q34 0 34 32q0 13 -9.5 22t-24.5 9z" />
    <glyph glyph-name="overscore" unicode="&#xaf;" horiz-adv-x="496" 
d="M417 696v-106h-338v106h338z" />
    <glyph glyph-name="degree" unicode="&#xb0;" horiz-adv-x="442" 
d="M222 727q68 0 114 -45.5t46 -113.5q0 -67 -46 -112.5t-114 -45.5t-115 45.5t-47 112.5t47 113t115 46zM222 644q-33 0 -54 -21.5t-21 -54.5q0 -32 21 -53.5t54 -21.5q32 0 53 21.5t21 53.5t-21 54t-53 22z" />
    <glyph glyph-name="plusminus" unicode="&#xb1;" horiz-adv-x="600" 
d="M366 700v-195h194v-130h-194v-195h-132v195h-194v130h194v195h132zM560 130v-130h-520v130h520z" />
    <glyph glyph-name="uni00B2" unicode="&#xb2;" horiz-adv-x="398" 
d="M232 442l-23 -12q-50 -26 -59 -40h228v-88h-340v43q0 59 33 96t102 70l29 15q42 20 58 33.5t16 32.5q0 16 -16 27t-43 11q-55 0 -120 -48l-53 70q80 69 174 69q74 0 118.5 -37t44.5 -89q0 -67 -54 -102q-24 -15 -73 -40z" />
    <glyph glyph-name="uni00B3" unicode="&#xb3;" horiz-adv-x="395" 
d="M338 623l-104 -75q57 -6 91.5 -39t34.5 -82q0 -58 -46 -97t-124 -39q-99 0 -179 55l50 73q73 -37 128 -37q64 0 64 45q0 49 -82 49q-29 0 -46 -6l-44 61l125 91h-172v88h304v-87z" />
    <glyph glyph-name="acute" unicode="&#xb4;" horiz-adv-x="396" 
d="M314 734l-97 -152h-133l68 152h162z" />
    <glyph glyph-name="paragraph" unicode="&#xb6;" horiz-adv-x="700" 
d="M443 710v-810h-112v350h-77q-101 0 -164 64.5t-63 166.5t62.5 165.5t164.5 63.5h189zM633 710v-810h-112v810h112z" />
    <glyph glyph-name="middot" unicode="&#xb7;" horiz-adv-x="254" 
d="M207 421v-162h-160v162h160z" />
    <glyph glyph-name="cedilla" unicode="&#xb8;" horiz-adv-x="435" 
d="M269 0l-29 -63q48 -1 76 -24.5t28 -59.5q0 -45 -33 -71t-90 -26q-60 0 -115 40l37 57q43 -27 79 -27q40 0 40 26t-43 26q-17 0 -29 -3l-37 33l53 114z" />
    <glyph glyph-name="uni00B9" unicode="&#xb9;" horiz-adv-x="320" 
d="M142 710h82v-408h-105v285l-59 -40l-51 70z" />
    <glyph glyph-name="ordmasculine" unicode="&#xba;" horiz-adv-x="484" 
d="M242 718q92 0 151 -61.5t59 -157.5t-59.5 -157.5t-150.5 -61.5t-150.5 61.5t-59.5 157.5t59 157.5t151 61.5zM242 621q-43 0 -68.5 -33.5t-25.5 -88.5q0 -56 25.5 -89t68.5 -33t68.5 33t25.5 89q0 55 -25.5 88.5t-68.5 33.5z" />
    <glyph glyph-name="guillemotright" unicode="&#xbb;" horiz-adv-x="630" 
d="M57 481h139l144 -228l-144 -228h-139l142 228zM295 481h139l144 -228l-144 -228h-139l142 228z" />
    <glyph glyph-name="onequarter" unicode="&#xbc;" horiz-adv-x="902" 
d="M152 680h82v-408h-105v285l-59 -40l-51 70zM628 698l85 -53l-466 -663l-84 54zM827 167h53v-82h-53v-85h-96v85h-199v98l151 225h113l-161 -241h96v74h96v-74z" />
    <glyph glyph-name="onehalf" unicode="&#xbd;" horiz-adv-x="954" 
d="M152 680h82v-408h-105v285l-59 -40l-51 70zM628 698l85 -53l-466 -663l-84 54zM777 140l-23 -12q-50 -26 -59 -40h228v-88h-340v43q0 59 33 96t102 70l29 15q42 20 58 33.5t16 32.5q0 16 -16 27t-43 11q-55 0 -120 -48l-53 70q80 69 174 69q74 0 118.5 -37t44.5 -89
q0 -67 -54 -102q-24 -15 -73 -40z" />
    <glyph glyph-name="threequarters" unicode="&#xbe;" horiz-adv-x="977" 
d="M344 593l-104 -75q57 -6 91.5 -39t34.5 -82q0 -58 -46 -97t-124 -39q-99 0 -179 55l50 73q73 -37 128 -37q64 0 64 45q0 49 -82 49q-29 0 -46 -6l-44 61l125 91h-172v88h304v-87zM703 698l85 -53l-466 -663l-84 54zM902 167h53v-82h-53v-85h-96v85h-199v98l151 225h113
l-161 -241h96v74h96v-74z" />
    <glyph glyph-name="questiondown" unicode="&#xbf;" horiz-adv-x="499" 
d="M188 359v162h160v-162h-160zM234 -207q-111 0 -174 52t-63 142q0 54 27 93q26 38 96 99l30 26q22 19 35 37q11 17 15 34l3 14h135v-14q0 -45 -5 -66.5t-25 -47.5q-22 -28 -72 -69l-20 -17q-32 -26 -44.5 -42.5t-12.5 -38.5q0 -28 22 -45t59 -17q35 0 69 16.5t92 58.5
l88 -106q-122 -109 -255 -109z" />
    <glyph glyph-name="Agrave" unicode="&#xc0;" horiz-adv-x="731" 
d="M556 0l-41 124h-304l-42 -124h-162l252 710h213l253 -710h-169zM257 258h214l-27 80l-23 68q-2 6 -5.5 17t-9.5 28.5t-11 33.5q-19 57 -33 102q-27 -100 -80 -254zM204 924h163l67 -152h-132z" />
    <glyph glyph-name="Aacute" unicode="&#xc1;" horiz-adv-x="731" 
d="M556 0l-41 124h-304l-42 -124h-162l252 710h213l253 -710h-169zM257 258h214l-27 80l-23 68q-2 6 -5.5 17t-9.5 28.5t-11 33.5q-19 57 -33 102q-27 -100 -80 -254zM525 924l-97 -152h-133l68 152h162z" />
    <glyph glyph-name="Acircumflex" unicode="&#xc2;" horiz-adv-x="731" 
d="M556 0l-41 124h-304l-42 -124h-162l252 710h213l253 -710h-169zM257 258h214l-27 80l-23 68q-2 6 -5.5 17t-9.5 28.5t-11 33.5q-19 57 -33 102q-27 -100 -80 -254zM437 772l-73 91l-74 -91h-126l106 152h188l106 -152h-127z" />
    <glyph glyph-name="Atilde" unicode="&#xc3;" horiz-adv-x="731" 
d="M556 0l-41 124h-304l-42 -124h-162l252 710h213l253 -710h-169zM257 258h214l-27 80l-23 68q-2 6 -5.5 17t-9.5 28.5t-11 33.5q-19 57 -33 102q-27 -100 -80 -254zM294 903q40 0 86 -24q29 -16 49 -16q30 0 32 38h88q0 -66 -29 -99t-77 -33q-33 0 -86 24q-27 16 -53 16
q-16 0 -23 -8.5t-9 -29.5h-89q0 64 31.5 98t79.5 34z" />
    <glyph glyph-name="Adieresis" unicode="&#xc4;" horiz-adv-x="731" 
d="M556 0l-41 124h-304l-42 -124h-162l252 710h213l253 -710h-169zM257 258h214l-27 80l-23 68q-2 6 -5.5 17t-9.5 28.5t-11 33.5q-19 57 -33 102q-27 -100 -80 -254zM333 900v-125h-143v125h143zM541 900v-125h-143v125h143z" />
    <glyph glyph-name="Aring" unicode="&#xc5;" horiz-adv-x="738" 
d="M565 0l-42 127h-312l-43 -127h-161l249 703q-33 37 -33 89q0 58 42.5 99t102.5 41q61 0 104 -41t43 -99q0 -50 -32 -88l249 -704h-167zM369 861q-29 0 -49 -19.5t-20 -49.5t20 -50t49 -20q31 0 51 19.5t20 50.5t-20 50t-51 19zM255 258h224l-26 78q-1 4 -5 16.5
t-8.5 25.5t-9.5 27q-48 143 -64 202q-19 -73 -69 -224q-5 -12 -17 -49z" />
    <glyph glyph-name="AE" unicode="&#xc6;" horiz-adv-x="1025" 
d="M618 136h361v-136h-523v124h-234l-62 -124h-163l362 710h608v-136h-349v-138h328v-137h-328v-163zM289 258h167v336z" />
    <glyph glyph-name="Ccedilla" unicode="&#xc7;" horiz-adv-x="680" 
d="M409 -18l-21 -45q48 -1 76 -24.5t28 -59.5q0 -45 -33 -71t-90 -26q-60 0 -115 40l37 57q43 -27 79 -27q40 0 40 26t-43 26q-17 0 -29 -3l-37 33l36 77q-141 18 -223.5 120.5t-82.5 252.5q0 162 97 266t263 104q85 0 145 -25q61 -26 125 -84l-95 -112q-53 45 -90.5 61.5
t-85.5 16.5q-89 0 -141.5 -61.5t-52.5 -167.5q0 -107 52.5 -169t140.5 -62q52 0 90 19q39 18 99 66l93 -110q-118 -112 -262 -118z" />
    <glyph glyph-name="Egrave" unicode="&#xc8;" horiz-adv-x="636" 
d="M578 710v-136h-349v-138h328v-137h-328v-163h361v-136h-523v710h511zM168 924h163l67 -152h-132z" />
    <glyph glyph-name="Eacute" unicode="&#xc9;" horiz-adv-x="636" 
d="M578 710v-136h-349v-138h328v-137h-328v-163h361v-136h-523v710h511zM489 924l-97 -152h-133l68 152h162z" />
    <glyph glyph-name="Ecircumflex" unicode="&#xca;" horiz-adv-x="636" 
d="M578 710v-136h-349v-138h328v-137h-328v-163h361v-136h-523v710h511zM401 772l-73 91l-74 -91h-126l106 152h188l106 -152h-127z" />
    <glyph glyph-name="Edieresis" unicode="&#xcb;" horiz-adv-x="636" 
d="M578 710v-136h-349v-138h328v-137h-328v-163h361v-136h-523v710h511zM297 900v-125h-143v125h143zM505 900v-125h-143v125h143z" />
    <glyph glyph-name="Igrave" unicode="&#xcc;" horiz-adv-x="310" 
d="M236 710v-710h-162v710h162zM-7 924h163l67 -152h-132z" />
    <glyph glyph-name="Iacute" unicode="&#xcd;" horiz-adv-x="310" 
d="M236 710v-710h-162v710h162zM314 924l-97 -152h-133l68 152h162z" />
    <glyph glyph-name="Icircumflex" unicode="&#xce;" horiz-adv-x="310" 
d="M236 710v-710h-162v710h162zM226 772l-73 91l-74 -91h-126l106 152h188l106 -152h-127z" />
    <glyph glyph-name="Idieresis" unicode="&#xcf;" horiz-adv-x="310" 
d="M236 710v-710h-162v710h162zM122 900v-125h-143v125h143zM330 900v-125h-143v125h143z" />
    <glyph glyph-name="Eth" unicode="&#xd0;" horiz-adv-x="754" 
d="M99 710h296q150 0 239 -98t89 -257t-89 -257t-239 -98h-296v299h-73v135h73v276zM260 136h111q85 0 134.5 55.5t49.5 163.5t-49.5 163.5t-134.5 55.5h-111v-140h161v-135h-161v-163z" />
    <glyph glyph-name="Ntilde" unicode="&#xd1;" horiz-adv-x="747" 
d="M523 710h157v-710h-170l-167 272q-86 138 -125 214q6 -123 6 -275v-211h-157v710h174l181 -296q75 -122 105 -177q-4 84 -4 245v228zM312 903q40 0 86 -24q29 -16 49 -16q30 0 32 38h88q0 -66 -29 -99t-77 -33q-33 0 -86 24q-27 16 -53 16q-16 0 -23 -8.5t-9 -29.5h-89
q0 64 31.5 98t79.5 34z" />
    <glyph glyph-name="Ograve" unicode="&#xd2;" horiz-adv-x="775" 
d="M388 728q159 2 258.5 -106t97.5 -267q2 -159 -97.5 -267t-258.5 -106q-159 -2 -259 106t-98 267q-2 159 98 267t259 106zM388 584q-87 0 -138.5 -62t-51.5 -167q0 -106 51.5 -167.5t138.5 -61.5t138 61.5t51 167.5t-51 167.5t-138 61.5zM227 924h163l67 -152h-132z" />
    <glyph glyph-name="Oacute" unicode="&#xd3;" horiz-adv-x="775" 
d="M388 728q159 2 258.5 -106t97.5 -267q2 -159 -97.5 -267t-258.5 -106q-159 -2 -259 106t-98 267q-2 159 98 267t259 106zM388 584q-87 0 -138.5 -62t-51.5 -167q0 -106 51.5 -167.5t138.5 -61.5t138 61.5t51 167.5t-51 167.5t-138 61.5zM548 924l-97 -152h-133l68 152
h162z" />
    <glyph glyph-name="Ocircumflex" unicode="&#xd4;" horiz-adv-x="775" 
d="M388 728q159 2 258.5 -106t97.5 -267q2 -159 -97.5 -267t-258.5 -106q-159 -2 -259 106t-98 267q-2 159 98 267t259 106zM388 584q-87 0 -138.5 -62t-51.5 -167q0 -106 51.5 -167.5t138.5 -61.5t138 61.5t51 167.5t-51 167.5t-138 61.5zM460 772l-73 91l-74 -91h-126
l106 152h188l106 -152h-127z" />
    <glyph glyph-name="Otilde" unicode="&#xd5;" horiz-adv-x="775" 
d="M388 728q159 2 258.5 -106t97.5 -267q2 -159 -97.5 -267t-258.5 -106q-159 -2 -259 106t-98 267q-2 159 98 267t259 106zM388 584q-87 0 -138.5 -62t-51.5 -167q0 -106 51.5 -167.5t138.5 -61.5t138 61.5t51 167.5t-51 167.5t-138 61.5zM317 903q39 0 86 -24
q29 -16 49 -16q30 0 32 38h88q0 -66 -29 -99t-77 -33q-33 0 -86 24q-27 16 -53 16q-16 0 -23 -8.5t-9 -29.5h-89q0 64 31.5 98t79.5 34z" />
    <glyph glyph-name="Odieresis" unicode="&#xd6;" horiz-adv-x="775" 
d="M388 728q159 2 258.5 -106t97.5 -267q2 -159 -97.5 -267t-258.5 -106q-159 -2 -259 106t-98 267q-2 159 98 267t259 106zM388 584q-87 0 -138.5 -62t-51.5 -167q0 -106 51.5 -167.5t138.5 -61.5t138 61.5t51 167.5t-51 167.5t-138 61.5zM356 900v-125h-143v125h143z
M564 900v-125h-143v125h143z" />
    <glyph glyph-name="multiply" unicode="&#xd7;" horiz-adv-x="600" 
d="M549 468l-158 -158l158 -158l-91 -91l-158 158l-158 -158l-91 91l158 158l-158 158l91 91l158 -158l158 158z" />
    <glyph glyph-name="Oslash" unicode="&#xd8;" horiz-adv-x="775" 
d="M707 653l-43 -51q80 -100 80 -247q2 -159 -97.5 -267t-258.5 -106q-114 0 -199 55l-39 -47l-82 67l43 51q-80 100 -80 247q-2 159 98 267t259 106q112 0 198 -54l40 48zM198 355q0 -65 21 -117l268 319q-41 27 -99 27q-87 0 -138.5 -62t-51.5 -167zM388 126
q87 0 138 61.5t51 167.5q0 69 -21 118l-268 -319q43 -28 100 -28z" />
    <glyph glyph-name="Ugrave" unicode="&#xd9;" horiz-adv-x="714" 
d="M650 710v-464q0 -264 -293 -264t-293 264v464h162v-459q0 -125 131 -125q65 0 98 32.5t33 92.5v459h162zM196 924h163l67 -152h-132z" />
    <glyph glyph-name="Uacute" unicode="&#xda;" horiz-adv-x="714" 
d="M650 710v-464q0 -264 -293 -264t-293 264v464h162v-459q0 -125 131 -125q65 0 98 32.5t33 92.5v459h162zM517 924l-97 -152h-133l68 152h162z" />
    <glyph glyph-name="Ucircumflex" unicode="&#xdb;" horiz-adv-x="714" 
d="M650 710v-464q0 -264 -293 -264t-293 264v464h162v-459q0 -125 131 -125q65 0 98 32.5t33 92.5v459h162zM429 772l-73 91l-74 -91h-126l106 152h188l106 -152h-127z" />
    <glyph glyph-name="Udieresis" unicode="&#xdc;" horiz-adv-x="714" 
d="M650 710v-464q0 -264 -293 -264t-293 264v464h162v-459q0 -125 131 -125q65 0 98 32.5t33 92.5v459h162zM325 900v-125h-143v125h143zM533 900v-125h-143v125h143z" />
    <glyph glyph-name="Yacute" unicode="&#xdd;" horiz-adv-x="649" 
d="M473 710h171l-250 -414v-296h-162v297l-250 413h178l156 -270zM474 924l-97 -152h-133l68 152h162z" />
    <glyph glyph-name="Thorn" unicode="&#xde;" horiz-adv-x="694" 
d="M229 594h196q108 0 172 -63.5t64 -165.5t-64 -165t-172 -63h-196v-137h-162v710h162v-116zM229 271h166q49 0 77 24.5t28 69.5t-28 70t-77 25h-166v-189z" />
    <glyph glyph-name="germandbls" unicode="&#xdf;" horiz-adv-x="617" 
d="M454 395q133 -46 133 -183q0 -96 -60.5 -159t-167.5 -63q-60 0 -111 13l21 123q32 -5 73 -5q43 0 67.5 26t24.5 72q0 47 -36 72t-100 25h-22v122h22q42 0 65.5 21t23.5 57t-25 59t-64 23q-43 0 -69.5 -30t-26.5 -82v-486h-150v491q0 115 70.5 174.5t175.5 59.5t170.5 -58
t65.5 -138q0 -93 -80 -134z" />
    <glyph glyph-name="agrave" unicode="&#xe0;" horiz-adv-x="563" 
d="M282 538q112 0 171.5 -51t59.5 -140v-347h-135v52q-51 -70 -165 -70q-84 0 -134.5 39t-50.5 112q0 79 56 122t168 61l119 20v6q0 35 -23 54t-64 19q-57 0 -106 -36q-33 -28 -53 -47l-95 86q106 120 252 120zM245 99q55 0 90.5 28.5t35.5 84.5v20l-86 -16
q-59 -11 -86 -27.5t-27 -43.5q0 -21 19 -33.5t54 -12.5zM120 734h163l67 -152h-132z" />
    <glyph glyph-name="aacute" unicode="&#xe1;" horiz-adv-x="563" 
d="M282 538q112 0 171.5 -51t59.5 -140v-347h-135v52q-51 -70 -165 -70q-84 0 -134.5 39t-50.5 112q0 79 56 122t168 61l119 20v6q0 35 -23 54t-64 19q-57 0 -106 -36q-33 -28 -53 -47l-95 86q106 120 252 120zM245 99q55 0 90.5 28.5t35.5 84.5v20l-86 -16
q-59 -11 -86 -27.5t-27 -43.5q0 -21 19 -33.5t54 -12.5zM441 734l-97 -152h-133l68 152h162z" />
    <glyph glyph-name="acircumflex" unicode="&#xe2;" horiz-adv-x="563" 
d="M282 538q112 0 171.5 -51t59.5 -140v-347h-135v52q-51 -70 -165 -70q-84 0 -134.5 39t-50.5 112q0 79 56 122t168 61l119 20v6q0 35 -23 54t-64 19q-57 0 -106 -36q-33 -28 -53 -47l-95 86q106 120 252 120zM245 99q55 0 90.5 28.5t35.5 84.5v20l-86 -16
q-59 -11 -86 -27.5t-27 -43.5q0 -21 19 -33.5t54 -12.5zM353 582l-73 91l-74 -91h-126l106 152h188l106 -152h-127z" />
    <glyph glyph-name="atilde" unicode="&#xe3;" horiz-adv-x="563" 
d="M282 538q112 0 171.5 -51t59.5 -140v-347h-135v52q-51 -70 -165 -70q-84 0 -134.5 39t-50.5 112q0 79 56 122t168 61l119 20v6q0 35 -23 54t-64 19q-57 0 -106 -36q-33 -28 -53 -47l-95 86q106 120 252 120zM245 99q55 0 90.5 28.5t35.5 84.5v20l-86 -16
q-59 -11 -86 -27.5t-27 -43.5q0 -21 19 -33.5t54 -12.5zM210 713q40 0 86 -24q29 -16 49 -16q30 0 32 38h88q0 -66 -29 -99t-77 -33q-33 0 -86 24q-27 16 -53 16q-16 0 -23 -8.5t-9 -29.5h-89q0 64 31.5 98t79.5 34z" />
    <glyph glyph-name="adieresis" unicode="&#xe4;" horiz-adv-x="563" 
d="M282 538q112 0 171.5 -51t59.5 -140v-347h-135v52q-51 -70 -165 -70q-84 0 -134.5 39t-50.5 112q0 79 56 122t168 61l119 20v6q0 35 -23 54t-64 19q-57 0 -106 -36q-33 -28 -53 -47l-95 86q106 120 252 120zM245 99q55 0 90.5 28.5t35.5 84.5v20l-86 -16
q-59 -11 -86 -27.5t-27 -43.5q0 -21 19 -33.5t54 -12.5zM249 710v-125h-143v125h143zM457 710v-125h-143v125h143z" />
    <glyph glyph-name="aring" unicode="&#xe5;" horiz-adv-x="563" 
d="M282 538q112 0 171.5 -51t59.5 -140v-347h-135v52q-51 -70 -165 -70q-84 0 -134.5 39t-50.5 112q0 79 56 122t168 61l119 20v6q0 35 -23 54t-64 19q-57 0 -106 -36q-33 -28 -53 -47l-95 86q106 120 252 120zM245 99q55 0 90.5 28.5t35.5 84.5v20l-86 -16
q-59 -11 -86 -27.5t-27 -43.5q0 -21 19 -33.5t54 -12.5zM282 820q52 0 90.5 -36.5t38.5 -85.5q0 -50 -38.5 -86.5t-90.5 -36.5q-53 0 -91 36.5t-38 86.5t38.5 86t90.5 36zM281 758q-26 0 -43 -17t-17 -43q0 -27 17 -44t43 -17t43.5 17t17.5 44q0 26 -17.5 43t-43.5 17z" />
    <glyph glyph-name="ae" unicode="&#xe6;" horiz-adv-x="919" 
d="M885 275q0 -24 -2 -54h-364q18 -111 133 -111q41 0 71 14t74 51l85 -93q-54 -53 -109.5 -76t-124.5 -23q-135 0 -210 81q-87 -82 -211 -82q-199 0 -199 150q0 74 51 116t161 63l130 24v1q0 79 -93 79q-41 0 -74.5 -19t-75.5 -68l-99 87q55 65 112 94t141 29
q118 0 181 -57q72 57 173 57q120 0 185 -69.5t65 -193.5zM522 324h218q-3 48 -30.5 73.5t-75.5 25.5q-86 0 -112 -99zM250 102q83 0 134 60q-10 33 -13 68l-112 -26q-84 -19 -84 -59q0 -43 75 -43z" />
    <glyph glyph-name="ccedilla" unicode="&#xe7;" horiz-adv-x="541" 
d="M435 189l100 -83q-49 -61 -98 -89t-111 -33l-22 -47q48 -1 76 -24.5t28 -59.5q0 -45 -33 -71t-90 -26q-60 0 -115 40l37 57q43 -27 79 -27q40 0 40 26t-43 26q-17 0 -29 -3l-37 33l36 78q-104 13 -165.5 86.5t-61.5 188.5q0 127 76 202t198 75q65 0 118 -22.5t105 -74.5
l-91 -94q-73 64 -130 64t-90.5 -41.5t-33.5 -108.5t33 -108.5t89 -41.5q35 0 64.5 17.5t70.5 60.5z" />
    <glyph glyph-name="egrave" unicode="&#xe8;" horiz-adv-x="574" 
d="M309 110q41 0 73 14.5t76 51.5l82 -94q-103 -99 -235 -99q-128 0 -203.5 75t-75.5 200q0 123 72 201.5t194 78.5q119 0 183.5 -69t64.5 -194q0 -28 -2 -58h-367q24 -107 138 -107zM290 421q-91 0 -116 -99h223q-11 99 -107 99zM136 734h163l67 -152h-132z" />
    <glyph glyph-name="eacute" unicode="&#xe9;" horiz-adv-x="574" 
d="M309 110q41 0 73 14.5t76 51.5l82 -94q-103 -99 -235 -99q-128 0 -203.5 75t-75.5 200q0 123 72 201.5t194 78.5q119 0 183.5 -69t64.5 -194q0 -28 -2 -58h-367q24 -107 138 -107zM290 421q-91 0 -116 -99h223q-11 99 -107 99zM457 734l-97 -152h-133l68 152h162z" />
    <glyph glyph-name="ecircumflex" unicode="&#xea;" horiz-adv-x="574" 
d="M309 110q41 0 73 14.5t76 51.5l82 -94q-103 -99 -235 -99q-128 0 -203.5 75t-75.5 200q0 123 72 201.5t194 78.5q119 0 183.5 -69t64.5 -194q0 -28 -2 -58h-367q24 -107 138 -107zM290 421q-91 0 -116 -99h223q-11 99 -107 99zM369 582l-73 91l-74 -91h-126l106 152h188
l106 -152h-127z" />
    <glyph glyph-name="edieresis" unicode="&#xeb;" horiz-adv-x="574" 
d="M309 110q41 0 73 14.5t76 51.5l82 -94q-103 -99 -235 -99q-128 0 -203.5 75t-75.5 200q0 123 72 201.5t194 78.5q119 0 183.5 -69t64.5 -194q0 -28 -2 -58h-367q24 -107 138 -107zM290 421q-91 0 -116 -99h223q-11 99 -107 99zM265 710v-125h-143v125h143zM473 710v-125
h-143v125h143z" />
    <glyph glyph-name="igrave" unicode="&#xec;" horiz-adv-x="254" 
d="M202 520v-520h-150v520h150zM-34 734h163l67 -152h-132z" />
    <glyph glyph-name="iacute" unicode="&#xed;" horiz-adv-x="254" 
d="M202 520v-520h-150v520h150zM287 734l-97 -152h-133l68 152h162z" />
    <glyph glyph-name="icircumflex" unicode="&#xee;" horiz-adv-x="254" 
d="M202 520v-520h-150v520h150zM199 582l-73 91l-74 -91h-126l106 152h188l106 -152h-127z" />
    <glyph glyph-name="idieresis" unicode="&#xef;" horiz-adv-x="254" 
d="M202 520v-520h-150v520h150zM95 710v-125h-143v125h143zM303 710v-125h-143v125h143z" />
    <glyph glyph-name="eth" unicode="&#xf0;" horiz-adv-x="583" 
d="M459 652l-54 -34q139 -115 139 -325q0 -148 -71.5 -229t-193.5 -81q-117 0 -185 73.5t-68 179.5q0 101 61.5 169.5t161.5 68.5q86 0 140 -56q-27 69 -112 121l-76 -48l-43 61l41 26l-32 12l-49 18l54 121l55 -18q63 -21 111 -47l76 47zM278 114q48 0 78 34t30 85
q0 50 -30.5 82.5t-76.5 32.5q-47 0 -75.5 -32t-28.5 -83q0 -52 28 -85.5t75 -33.5z" />
    <glyph glyph-name="ntilde" unicode="&#xf1;" horiz-adv-x="581" 
d="M345 538q87 0 136.5 -49t49.5 -133v-356h-150v314q0 45 -22.5 69.5t-64.5 24.5t-67 -26t-25 -71v-311h-150v520h139v-56q53 74 154 74zM218 713q40 0 86 -24q29 -16 49 -16q30 0 32 38h88q0 -66 -29 -99t-77 -33q-33 0 -86 24q-27 16 -53 16q-16 0 -23 -8.5t-9 -29.5h-89
q0 64 31.5 98t79.5 34z" />
    <glyph glyph-name="ograve" unicode="&#xf2;" horiz-adv-x="601" 
d="M301 538q120 0 197 -77.5t77 -199.5q0 -123 -77 -200.5t-197 -77.5q-121 0 -198 77.5t-77 200.5q0 122 77 199.5t198 77.5zM301 411q-55 0 -89 -41t-34 -109q0 -69 34 -110t89 -41t88.5 41t33.5 110q0 68 -34 109t-88 41zM138 734h163l67 -152h-132z" />
    <glyph glyph-name="oacute" unicode="&#xf3;" horiz-adv-x="601" 
d="M301 538q120 0 197 -77.5t77 -199.5q0 -123 -77 -200.5t-197 -77.5q-121 0 -198 77.5t-77 200.5q0 122 77 199.5t198 77.5zM301 411q-55 0 -89 -41t-34 -109q0 -69 34 -110t89 -41t88.5 41t33.5 110q0 68 -34 109t-88 41zM459 734l-97 -152h-133l68 152h162z" />
    <glyph glyph-name="ocircumflex" unicode="&#xf4;" horiz-adv-x="601" 
d="M301 538q120 0 197 -77.5t77 -199.5q0 -123 -77 -200.5t-197 -77.5q-121 0 -198 77.5t-77 200.5q0 122 77 199.5t198 77.5zM301 411q-55 0 -89 -41t-34 -109q0 -69 34 -110t89 -41t88.5 41t33.5 110q0 68 -34 109t-88 41zM371 582l-73 91l-74 -91h-126l106 152h188
l106 -152h-127z" />
    <glyph glyph-name="otilde" unicode="&#xf5;" horiz-adv-x="601" 
d="M301 538q120 0 197 -77.5t77 -199.5q0 -123 -77 -200.5t-197 -77.5q-121 0 -198 77.5t-77 200.5q0 122 77 199.5t198 77.5zM301 411q-55 0 -89 -41t-34 -109q0 -69 34 -110t89 -41t88.5 41t33.5 110q0 68 -34 109t-88 41zM228 713q40 0 86 -24q29 -16 49 -16q30 0 32 38
h88q0 -66 -29 -99t-77 -33q-33 0 -86 24q-27 16 -53 16q-16 0 -23 -8.5t-9 -29.5h-89q0 64 31.5 98t79.5 34z" />
    <glyph glyph-name="odieresis" unicode="&#xf6;" horiz-adv-x="601" 
d="M301 538q120 0 197 -77.5t77 -199.5q0 -123 -77 -200.5t-197 -77.5q-121 0 -198 77.5t-77 200.5q0 122 77 199.5t198 77.5zM301 411q-55 0 -89 -41t-34 -109q0 -69 34 -110t89 -41t88.5 41t33.5 110q0 68 -34 109t-88 41zM267 710v-125h-143v125h143zM475 710v-125h-143
v125h143z" />
    <glyph glyph-name="divide" unicode="&#xf7;" horiz-adv-x="600" 
d="M380 584v-162h-160v162h160zM560 375v-130h-520v130h520zM380 198v-162h-160v162h160z" />
    <glyph glyph-name="oslash" unicode="&#xf8;" horiz-adv-x="603" 
d="M523 493l-23 -32q77 -77 77 -200t-77 -200.5t-198 -77.5q-66 0 -120 24l-25 -36l-77 54l24 34q-78 78 -78 202q0 122 78 199.5t198 77.5q66 0 120 -24l24 34zM178 261q0 -42 14 -76l153 218q-22 8 -43 8q-56 0 -90 -41t-34 -109zM302 110q55 0 89 41t34 110q0 40 -13 73
l-153 -217q17 -7 43 -7z" />
    <glyph glyph-name="ugrave" unicode="&#xf9;" horiz-adv-x="573" 
d="M371 520h150v-520h-137v55q-47 -72 -151 -72q-92 0 -137.5 44t-45.5 126v367h150v-327q0 -79 77 -79q94 0 94 99v307zM119 734h163l67 -152h-132z" />
    <glyph glyph-name="uacute" unicode="&#xfa;" horiz-adv-x="573" 
d="M371 520h150v-520h-137v55q-47 -72 -151 -72q-92 0 -137.5 44t-45.5 126v367h150v-327q0 -79 77 -79q94 0 94 99v307zM440 734l-97 -152h-133l68 152h162z" />
    <glyph glyph-name="ucircumflex" unicode="&#xfb;" horiz-adv-x="573" 
d="M371 520h150v-520h-137v55q-47 -72 -151 -72q-92 0 -137.5 44t-45.5 126v367h150v-327q0 -79 77 -79q94 0 94 99v307zM352 582l-73 91l-74 -91h-126l106 152h188l106 -152h-127z" />
    <glyph glyph-name="udieresis" unicode="&#xfc;" horiz-adv-x="573" 
d="M371 520h150v-520h-137v55q-47 -72 -151 -72q-92 0 -137.5 44t-45.5 126v367h150v-327q0 -79 77 -79q94 0 94 99v307zM248 710v-125h-143v125h143zM456 710v-125h-143v125h143z" />
    <glyph glyph-name="yacute" unicode="&#xfd;" horiz-adv-x="538" 
d="M379 520h154l-198 -572q-26 -77 -71 -110.5t-120 -33.5q-63 0 -108 15l25 111q30 -6 63 -6q55 0 77 46l-196 550h158l40 -121q51 -151 70 -221q22 79 67 221zM430 734l-97 -152h-133l68 152h162z" />
    <glyph glyph-name="thorn" unicode="&#xfe;" horiz-adv-x="612" 
d="M354 536q101 0 165.5 -75.5t64.5 -199.5q0 -125 -64.5 -200.5t-166.5 -75.5q-97 0 -151 62v-227h-150v891h150v-239q54 64 152 64zM314 114q53 0 86 40t33 107t-32 107.5t-86 40.5q-52 0 -85 -41t-33 -107t33 -106.5t84 -40.5z" />
    <glyph glyph-name="ydieresis" unicode="&#xff;" horiz-adv-x="538" 
d="M379 520h154l-198 -572q-26 -77 -71 -110.5t-120 -33.5q-63 0 -108 15l25 111q30 -6 63 -6q55 0 77 46l-196 550h158l40 -121q51 -151 70 -221q22 79 67 221zM238 710v-125h-143v125h143zM446 710v-125h-143v125h143z" />
    <glyph glyph-name="Amacron" unicode="&#x100;" horiz-adv-x="731" 
d="M556 0l-41 124h-304l-42 -124h-162l252 710h213l253 -710h-169zM257 258h214l-27 80l-23 68q-2 6 -5.5 17t-9.5 28.5t-11 33.5q-19 57 -33 102q-27 -100 -80 -254zM534 886v-106h-338v106h338z" />
    <glyph glyph-name="amacron" unicode="&#x101;" horiz-adv-x="563" 
d="M282 538q112 0 171.5 -51t59.5 -140v-347h-135v52q-51 -70 -165 -70q-84 0 -134.5 39t-50.5 112q0 79 56 122t168 61l119 20v6q0 35 -23 54t-64 19q-57 0 -106 -36q-33 -28 -53 -47l-95 86q106 120 252 120zM245 99q55 0 90.5 28.5t35.5 84.5v20l-86 -16
q-59 -11 -86 -27.5t-27 -43.5q0 -21 19 -33.5t54 -12.5zM450 696v-106h-338v106h338z" />
    <glyph glyph-name="Abreve" unicode="&#x102;" horiz-adv-x="731" 
d="M556 0l-41 124h-304l-42 -124h-162l252 710h213l253 -710h-169zM257 258h214l-27 80l-23 68q-2 6 -5.5 17t-9.5 28.5t-11 33.5q-19 57 -33 102q-27 -100 -80 -254zM365 759q-78 0 -125.5 40.5t-47.5 115.5h109q0 -34 17 -53t47 -19t47.5 19t17.5 53h108
q0 -75 -47.5 -115.5t-125.5 -40.5z" />
    <glyph glyph-name="abreve" unicode="&#x103;" horiz-adv-x="563" 
d="M282 538q112 0 171.5 -51t59.5 -140v-347h-135v52q-51 -70 -165 -70q-84 0 -134.5 39t-50.5 112q0 79 56 122t168 61l119 20v6q0 35 -23 54t-64 19q-57 0 -106 -36q-33 -28 -53 -47l-95 86q106 120 252 120zM245 99q55 0 90.5 28.5t35.5 84.5v20l-86 -16
q-59 -11 -86 -27.5t-27 -43.5q0 -21 19 -33.5t54 -12.5zM281 569q-78 0 -125.5 40.5t-47.5 115.5h109q0 -34 17 -53t47 -19t47.5 19t17.5 53h108q0 -75 -47.5 -115.5t-125.5 -40.5z" />
    <glyph glyph-name="Aogonek" unicode="&#x104;" horiz-adv-x="731" 
d="M638 -97q0 -36 52 -36q12 0 27 3v-82q-19 -10 -53 -10q-61 0 -93 27t-32 72q0 64 66 123h-49l-41 124h-304l-42 -124h-162l252 710h213l253 -710q-87 -48 -87 -97zM257 258h214l-27 80l-23 68q-2 6 -5.5 17t-9.5 28.5t-11 33.5q-19 57 -33 102q-27 -100 -80 -254z" />
    <glyph glyph-name="aogonek" unicode="&#x105;" horiz-adv-x="563" 
d="M513 347v-347q-87 -48 -87 -97q0 -36 52 -36q12 0 27 3v-82q-19 -10 -53 -10q-61 0 -93 27t-32 72q0 64 66 123h-15v52q-51 -70 -165 -70q-84 0 -134.5 39t-50.5 112q0 79 56 122t168 61l119 20v6q0 35 -23 54t-64 19q-57 0 -106 -36q-33 -28 -53 -47l-95 86
q106 120 252 120q112 0 171.5 -51t59.5 -140zM245 99q55 0 90.5 28.5t35.5 84.5v20l-86 -16q-59 -11 -86 -27.5t-27 -43.5q0 -21 19 -33.5t54 -12.5z" />
    <glyph glyph-name="Cacute" unicode="&#x106;" horiz-adv-x="680" 
d="M391 728q85 0 145 -25q61 -26 125 -84l-95 -112q-53 45 -90.5 61.5t-85.5 16.5q-89 0 -141.5 -61.5t-52.5 -167.5q0 -107 52.5 -169t140.5 -62q52 0 90 19q39 18 99 66l93 -110q-66 -61 -132.5 -89.5t-147.5 -28.5q-164 0 -262 105.5t-98 270.5q0 162 97 266t263 104z
M551 924l-97 -152h-133l68 152h162z" />
    <glyph glyph-name="cacute" unicode="&#x107;" horiz-adv-x="541" 
d="M523 441l-91 -94q-73 64 -130 64t-90.5 -41.5t-33.5 -108.5t33 -108.5t89 -41.5q35 0 64.5 17.5t70.5 60.5l100 -83q-53 -67 -109.5 -95t-128.5 -28q-121 0 -196 75.5t-75 202.5t76 202t198 75q65 0 118 -22.5t105 -74.5zM454 734l-97 -152h-133l68 152h162z" />
    <glyph glyph-name="Cdotaccent" unicode="&#x10a;" horiz-adv-x="680" 
d="M391 728q85 0 145 -25q61 -26 125 -84l-95 -112q-53 45 -90.5 61.5t-85.5 16.5q-89 0 -141.5 -61.5t-52.5 -167.5q0 -107 52.5 -169t140.5 -62q52 0 90 19q39 18 99 66l93 -110q-66 -61 -132.5 -89.5t-147.5 -28.5q-164 0 -262 105.5t-98 270.5q0 162 97 266t263 104z
M466 900v-125h-150v125h150z" />
    <glyph glyph-name="cdotaccent" unicode="&#x10b;" horiz-adv-x="541" 
d="M523 441l-91 -94q-73 64 -130 64t-90.5 -41.5t-33.5 -108.5t33 -108.5t89 -41.5q35 0 64.5 17.5t70.5 60.5l100 -83q-53 -67 -109.5 -95t-128.5 -28q-121 0 -196 75.5t-75 202.5t76 202t198 75q65 0 118 -22.5t105 -74.5zM369 710v-125h-150v125h150z" />
    <glyph glyph-name="Ccaron" unicode="&#x10c;" horiz-adv-x="680" 
d="M391 728q85 0 145 -25q61 -26 125 -84l-95 -112q-53 45 -90.5 61.5t-85.5 16.5q-89 0 -141.5 -61.5t-52.5 -167.5q0 -107 52.5 -169t140.5 -62q52 0 90 19q39 18 99 66l93 -110q-66 -61 -132.5 -89.5t-147.5 -28.5q-164 0 -262 105.5t-98 270.5q0 162 97 266t263 104z
M591 924l-106 -152h-188l-106 152h126l74 -91l73 91h127z" />
    <glyph glyph-name="ccaron" unicode="&#x10d;" horiz-adv-x="541" 
d="M523 441l-91 -94q-73 64 -130 64t-90.5 -41.5t-33.5 -108.5t33 -108.5t89 -41.5q35 0 64.5 17.5t70.5 60.5l100 -83q-53 -67 -109.5 -95t-128.5 -28q-121 0 -196 75.5t-75 202.5t76 202t198 75q65 0 118 -22.5t105 -74.5zM494 734l-106 -152h-188l-106 152h126l74 -91
l73 91h127z" />
    <glyph glyph-name="Dcaron" unicode="&#x10e;" horiz-adv-x="722" 
d="M67 710h296q150 0 239 -98t89 -257t-89 -257t-239 -98h-296v710zM339 574h-111v-438h111q85 0 134.5 55.5t49.5 163.5t-49.5 163.5t-134.5 55.5zM561 924l-106 -152h-188l-106 152h126l74 -91l73 91h127z" />
    <glyph glyph-name="dcaron" unicode="&#x10f;" horiz-adv-x="784" 
d="M408 710h150v-710h-139v63q-55 -79 -163 -79q-101 0 -165.5 75.5t-64.5 199.5q0 125 64.5 200.5t166.5 75.5q97 0 151 -62v237zM295 111q52 0 85 41t33 107t-33 106.5t-84 40.5q-53 0 -86 -40t-33 -107t32 -107.5t86 -40.5zM785 710l-74 -215h-94l29 215h139z" />
    <glyph glyph-name="Dcroat" unicode="&#x110;" horiz-adv-x="754" 
d="M99 710h296q150 0 239 -98t89 -257t-89 -257t-239 -98h-296v299h-73v135h73v276zM260 136h111q85 0 134.5 55.5t49.5 163.5t-49.5 163.5t-134.5 55.5h-111v-140h161v-135h-161v-163z" />
    <glyph glyph-name="dslash" unicode="&#x111;" horiz-adv-x="627" 
d="M621 648v-99h-68v-549h-138v54q-54 -70 -157 -70q-101 0 -165.5 74.5t-64.5 193.5q0 120 65.5 194.5t165.5 74.5q91 0 144 -54v82h-123v99h123v62h150v-62h68zM297 111q52 0 85 39.5t33 101.5t-33 101t-84 39q-52 0 -85.5 -38.5t-33.5 -101.5t32 -102t86 -39z" />
    <glyph glyph-name="Emacron" unicode="&#x112;" horiz-adv-x="636" 
d="M578 710v-136h-349v-138h328v-137h-328v-163h361v-136h-523v710h511zM498 886v-106h-338v106h338z" />
    <glyph glyph-name="emacron" unicode="&#x113;" horiz-adv-x="574" 
d="M309 110q41 0 73 14.5t76 51.5l82 -94q-103 -99 -235 -99q-128 0 -203.5 75t-75.5 200q0 123 72 201.5t194 78.5q119 0 183.5 -69t64.5 -194q0 -28 -2 -58h-367q24 -107 138 -107zM290 421q-91 0 -116 -99h223q-11 99 -107 99zM466 696v-106h-338v106h338z" />
    <glyph glyph-name="Edotaccent" unicode="&#x116;" horiz-adv-x="636" 
d="M578 710v-136h-349v-138h328v-137h-328v-163h361v-136h-523v710h511zM404 900v-125h-150v125h150z" />
    <glyph glyph-name="edotaccent" unicode="&#x117;" horiz-adv-x="574" 
d="M309 110q41 0 73 14.5t76 51.5l82 -94q-103 -99 -235 -99q-128 0 -203.5 75t-75.5 200q0 123 72 201.5t194 78.5q119 0 183.5 -69t64.5 -194q0 -28 -2 -58h-367q24 -107 138 -107zM290 421q-91 0 -116 -99h223q-11 99 -107 99zM372 710v-125h-150v125h150z" />
    <glyph glyph-name="Eogonek" unicode="&#x118;" horiz-adv-x="636" 
d="M590 136v-136q-87 -48 -87 -97q0 -36 52 -36q12 0 27 3v-82q-19 -10 -53 -10q-61 0 -93 27t-32 72q0 64 66 123h-403v710h511v-136h-349v-138h328v-137h-328v-163h361z" />
    <glyph glyph-name="eogonek" unicode="&#x119;" horiz-adv-x="574" 
d="M426 -222q-63 0 -95.5 27.5t-32.5 72.5q0 56 45 107q-34 -2 -38 -2q-128 0 -203.5 75t-75.5 200q0 123 72 201.5t194 78.5q119 0 183.5 -69t64.5 -194q0 -28 -2 -58h-367q24 -107 138 -107q41 0 73 14.5t76 51.5l82 -94q-2 -2 -8 -7t-12.5 -11t-14.5 -12q-67 -56 -86 -90
q-20 -35 -20 -59q0 -36 52 -36q12 0 27 3v-85q-18 -7 -52 -7zM174 322h223q-11 99 -107 99q-91 0 -116 -99z" />
    <glyph glyph-name="Ecaron" unicode="&#x11a;" horiz-adv-x="636" 
d="M578 710v-136h-349v-138h328v-137h-328v-163h361v-136h-523v710h511zM529 924l-106 -152h-188l-106 152h126l74 -91l73 91h127z" />
    <glyph glyph-name="ecaron" unicode="&#x11b;" horiz-adv-x="574" 
d="M309 110q41 0 73 14.5t76 51.5l82 -94q-103 -99 -235 -99q-128 0 -203.5 75t-75.5 200q0 123 72 201.5t194 78.5q119 0 183.5 -69t64.5 -194q0 -28 -2 -58h-367q24 -107 138 -107zM290 421q-91 0 -116 -99h223q-11 99 -107 99zM497 734l-106 -152h-188l-106 152h126
l74 -91l73 91h127z" />
    <glyph glyph-name="Gbreve" unicode="&#x11e;" horiz-adv-x="757" 
d="M365 268v136h338v-404h-123l-6 61q-61 -78 -195 -78q-160 0 -254 104t-94 269q-2 162 98.5 267.5t265.5 103.5q93 0 164.5 -30t145.5 -102l-102 -106q-60 53 -107 74t-101 21q-92 0 -145.5 -59t-53.5 -168q0 -112 52.5 -172.5t143.5 -60.5q78 0 121.5 37.5t43.5 103.5v3
h-192zM387 759q-78 0 -125.5 40.5t-47.5 115.5h109q0 -34 17 -53t47 -19t47.5 19t17.5 53h108q0 -75 -47.5 -115.5t-125.5 -40.5z" />
    <glyph glyph-name="gbreve" unicode="&#x11f;" horiz-adv-x="601" 
d="M411 520h138v-489q0 -109 -73 -168.5t-189 -59.5q-131 0 -252 75l72 109q103 -59 178 -59q117 0 117 117v30q-50 -59 -145 -59q-98 0 -163.5 73t-65.5 188t65.5 188t163.5 73q105 0 154 -69v51zM293 143q51 0 83 37t32 97t-32 96.5t-83 36.5t-82.5 -36.5t-31.5 -96.5
t32 -97t82 -37zM301 569q-78 0 -125.5 40.5t-47.5 115.5h109q0 -34 17 -53t47 -19t47.5 19t17.5 53h108q0 -75 -47.5 -115.5t-125.5 -40.5z" />
    <glyph glyph-name="Gdotaccent" unicode="&#x120;" horiz-adv-x="757" 
d="M365 268v136h338v-404h-123l-6 61q-61 -78 -195 -78q-160 0 -254 104t-94 269q-2 162 98.5 267.5t265.5 103.5q93 0 164.5 -30t145.5 -102l-102 -106q-60 53 -107 74t-101 21q-92 0 -145.5 -59t-53.5 -168q0 -112 52.5 -172.5t143.5 -60.5q78 0 121.5 37.5t43.5 103.5v3
h-192zM462 900v-125h-150v125h150z" />
    <glyph glyph-name="gdotaccent" unicode="&#x121;" horiz-adv-x="601" 
d="M411 520h138v-489q0 -109 -73 -168.5t-189 -59.5q-131 0 -252 75l72 109q103 -59 178 -59q117 0 117 117v30q-50 -59 -145 -59q-98 0 -163.5 73t-65.5 188t65.5 188t163.5 73q105 0 154 -69v51zM293 143q51 0 83 37t32 97t-32 96.5t-83 36.5t-82.5 -36.5t-31.5 -96.5
t32 -97t82 -37zM376 710v-125h-150v125h150z" />
    <glyph glyph-name="Gcommaaccent" unicode="&#x122;" horiz-adv-x="757" 
d="M365 268v136h338v-404h-123l-6 61q-61 -78 -195 -78q-160 0 -254 104t-94 269q-2 162 98.5 267.5t265.5 103.5q93 0 164.5 -30t145.5 -102l-102 -106q-60 53 -107 74t-101 21q-92 0 -145.5 -59t-53.5 -168q0 -112 52.5 -172.5t143.5 -60.5q78 0 121.5 37.5t43.5 103.5v3
h-192zM464 -53v-115l-79 -92h-77l72 92h-68v115h152z" />
    <glyph glyph-name="gcommaaccent" unicode="&#x123;" horiz-adv-x="601" 
d="M411 520h138v-489q0 -109 -73 -168.5t-189 -59.5q-131 0 -252 75l72 109q103 -59 178 -59q117 0 117 117v30q-50 -59 -145 -59q-98 0 -163.5 73t-65.5 188t65.5 188t163.5 73q105 0 154 -69v51zM293 143q51 0 83 37t32 97t-32 96.5t-83 36.5t-82.5 -36.5t-31.5 -96.5
t32 -97t82 -37zM225 585v117l79 101h77l-73 -101h69v-117h-152z" />
    <glyph glyph-name="Hbar" unicode="&#x126;" horiz-adv-x="805" 
d="M775 619v-106h-67v-513h-162v307h-287v-307h-162v513h-67v106h67v91h162v-91h287v91h162v-91h67zM546 443v70h-287v-70h287z" />
    <glyph glyph-name="hbar" unicode="&#x127;" horiz-adv-x="603" 
d="M367 525q87 0 136.5 -49t49.5 -133v-343h-150v299q0 46 -22.5 71.5t-64.5 25.5q-41 0 -66.5 -27.5t-25.5 -72.5v-296h-150v549h-67v99h67v62h150v-62h124v-99h-124v-91q52 67 143 67z" />
    <glyph glyph-name="Imacron" unicode="&#x12a;" horiz-adv-x="310" 
d="M236 710v-710h-162v710h162zM323 886v-106h-338v106h338z" />
    <glyph glyph-name="imacron" unicode="&#x12b;" horiz-adv-x="254" 
d="M202 520v-520h-150v520h150zM296 696v-106h-338v106h338z" />
    <glyph glyph-name="Iogonek" unicode="&#x12e;" horiz-adv-x="310" 
d="M236 710v-710q-87 -48 -87 -97q0 -36 52 -36q12 0 27 3v-82q-19 -10 -53 -10q-61 0 -93 27t-32 72q0 64 66 123h-42v710h162z" />
    <glyph glyph-name="iogonek" unicode="&#x12f;" horiz-adv-x="254" 
d="M52 710h150v-125h-150v125zM52 0v520h150v-520q-87 -48 -87 -97q0 -36 52 -36q12 0 27 3v-82q-19 -10 -53 -10q-61 0 -93 27t-32 72q0 64 66 123h-30z" />
    <glyph glyph-name="Idot" unicode="&#x130;" horiz-adv-x="310" 
d="M236 710v-710h-162v710h162zM229 900v-125h-150v125h150z" />
    <glyph glyph-name="dotlessi" unicode="&#x131;" horiz-adv-x="254" 
d="M202 520v-520h-150v520h150z" />
    <glyph glyph-name="IJ" unicode="&#x132;" horiz-adv-x="788" 
d="M236 710v-710h-162v710h162zM724 710v-517q0 -104 -59.5 -156.5t-162.5 -52.5q-99 0 -190 41l45 130q81 -26 134 -26q71 0 71 84v497h162z" />
    <glyph glyph-name="ij" unicode="&#x133;" horiz-adv-x="513" 
d="M202 710v-125h-150v125h150zM461 710v-125h-150v125h150zM202 520v-520h-150v520h150zM184 -176l25 112q29 -6 52 -6q27 0 38.5 12.5t11.5 42.5v535h150v-530q0 -94 -41.5 -137.5t-126.5 -43.5q-60 0 -109 15z" />
    <glyph glyph-name="Kcommaaccent" unicode="&#x136;" horiz-adv-x="709" 
d="M530 0l-200 323l-101 -107v-216h-162v710h162v-295l268 295h198l-255 -271l272 -439h-182zM442 -53v-115l-79 -92h-77l72 92h-68v115h152z" />
    <glyph glyph-name="kcommaaccent" unicode="&#x137;" horiz-adv-x="567" 
d="M406 0l-139 230l-65 -66v-164h-150v710h150v-381l177 191h173l-181 -191l200 -329h-165zM378 -53v-115l-79 -92h-77l72 92h-68v115h152z" />
    <glyph glyph-name="Lacute" unicode="&#x139;" horiz-adv-x="565" 
d="M229 710v-571h306v-139h-468v710h162zM307 924l-97 -152h-133l68 152h162z" />
    <glyph glyph-name="lacute" unicode="&#x13a;" horiz-adv-x="258" 
d="M204 710v-710h-150v710h150zM287 920l-97 -152h-133l68 152h162z" />
    <glyph glyph-name="Lcommaaccent" unicode="&#x13b;" horiz-adv-x="565" 
d="M229 710v-571h306v-139h-468v710h162zM377 -53v-115l-79 -92h-77l72 92h-68v115h152z" />
    <glyph glyph-name="lcommaaccent" unicode="&#x13c;" horiz-adv-x="258" 
d="M204 710v-710h-150v710h150zM204 -53v-115l-79 -92h-77l72 92h-68v115h152z" />
    <glyph glyph-name="Lcaron" unicode="&#x13d;" horiz-adv-x="565" 
d="M229 710v-571h306v-139h-468v710h162zM463 710l-74 -215h-94l29 215h139z" />
    <glyph glyph-name="lcaron" unicode="&#x13e;" horiz-adv-x="438" 
d="M204 710v-710h-150v710h150zM439 710l-74 -215h-94l29 215h139z" />
    <glyph glyph-name="Ldot" unicode="&#x13f;" horiz-adv-x="565" 
d="M229 710v-571h306v-139h-468v710h162zM476 460v-162h-160v162h160z" />
    <glyph glyph-name="ldot" unicode="&#x140;" horiz-adv-x="505" 
d="M204 710v-710h-150v710h150zM457 421v-162h-160v162h160z" />
    <glyph glyph-name="Lslash" unicode="&#x141;" horiz-adv-x="597" 
d="M260 139h307v-139h-469v242l-81 -44v133l81 45v334h162v-252l141 77v-134l-141 -77v-185z" />
    <glyph glyph-name="lslash" unicode="&#x142;" horiz-adv-x="364" 
d="M338 522v-121l-81 -46v-355h-150v271l-81 -46v121l81 46v318h150v-234z" />
    <glyph glyph-name="Nacute" unicode="&#x143;" horiz-adv-x="747" 
d="M523 710h157v-710h-170l-167 272q-86 138 -125 214q6 -123 6 -275v-211h-157v710h174l181 -296q75 -122 105 -177q-4 84 -4 245v228zM543 924l-97 -152h-133l68 152h162z" />
    <glyph glyph-name="nacute" unicode="&#x144;" horiz-adv-x="581" 
d="M345 538q87 0 136.5 -49t49.5 -133v-356h-150v314q0 45 -22.5 69.5t-64.5 24.5t-67 -26t-25 -71v-311h-150v520h139v-56q53 74 154 74zM449 734l-97 -152h-133l68 152h162z" />
    <glyph glyph-name="Ncommaaccent" unicode="&#x145;" horiz-adv-x="747" 
d="M523 710h157v-710h-170l-167 272q-86 138 -125 214q6 -123 6 -275v-211h-157v710h174l181 -296q75 -122 105 -177q-4 84 -4 245v228zM456 -53v-115l-79 -92h-77l72 92h-68v115h152z" />
    <glyph glyph-name="ncommaaccent" unicode="&#x146;" horiz-adv-x="581" 
d="M345 538q87 0 136.5 -49t49.5 -133v-356h-150v314q0 45 -22.5 69.5t-64.5 24.5t-67 -26t-25 -71v-311h-150v520h139v-56q53 74 154 74zM363 -53v-115l-79 -92h-77l72 92h-68v115h152z" />
    <glyph glyph-name="Ncaron" unicode="&#x147;" horiz-adv-x="747" 
d="M523 710h157v-710h-170l-167 272q-86 138 -125 214q6 -123 6 -275v-211h-157v710h174l181 -296q75 -122 105 -177q-4 84 -4 245v228zM583 924l-106 -152h-188l-106 152h126l74 -91l73 91h127z" />
    <glyph glyph-name="ncaron" unicode="&#x148;" horiz-adv-x="581" 
d="M345 538q87 0 136.5 -49t49.5 -133v-356h-150v314q0 45 -22.5 69.5t-64.5 24.5t-67 -26t-25 -71v-311h-150v520h139v-56q53 74 154 74zM489 734l-106 -152h-188l-106 152h126l74 -91l73 91h127z" />
    <glyph glyph-name="Eng" unicode="&#x14a;" horiz-adv-x="747" 
d="M680 710v-710l-1 -1v-17q0 -181 -173 -181q-57 0 -113 17l25 123q42 -8 61 -8q42 0 48 40l-184 298q-86 138 -125 214q6 -122 6 -274v-211h-157v710h173l181 -295q77 -128 106 -182q-4 85 -4 249v228h157z" />
    <glyph glyph-name="eng" unicode="&#x14b;" horiz-adv-x="581" 
d="M345 538q87 0 136.5 -49t49.5 -133v-366q0 -94 -41.5 -137.5t-126.5 -43.5q-59 0 -109 15l25 112q29 -6 52 -6q27 0 38.5 12.5t11.5 42.5v327q0 46 -22.5 71t-64.5 25q-41 0 -66.5 -27t-25.5 -72v-309h-150v520h139v-56q52 74 154 74z" />
    <glyph glyph-name="Omacron" unicode="&#x14c;" horiz-adv-x="775" 
d="M388 728q159 2 258.5 -106t97.5 -267q2 -159 -97.5 -267t-258.5 -106q-159 -2 -259 106t-98 267q-2 159 98 267t259 106zM388 584q-87 0 -138.5 -62t-51.5 -167q0 -106 51.5 -167.5t138.5 -61.5t138 61.5t51 167.5t-51 167.5t-138 61.5zM557 886v-106h-338v106h338z" />
    <glyph glyph-name="omacron" unicode="&#x14d;" horiz-adv-x="601" 
d="M301 538q120 0 197 -77.5t77 -199.5q0 -123 -77 -200.5t-197 -77.5q-121 0 -198 77.5t-77 200.5q0 122 77 199.5t198 77.5zM301 411q-55 0 -89 -41t-34 -109q0 -69 34 -110t89 -41t88.5 41t33.5 110q0 68 -34 109t-88 41zM468 696v-106h-338v106h338z" />
    <glyph glyph-name="Ohungarumlaut" unicode="&#x150;" horiz-adv-x="775" 
d="M388 728q159 2 258.5 -106t97.5 -267q2 -159 -97.5 -267t-258.5 -106q-159 -2 -259 106t-98 267q-2 159 98 267t259 106zM388 584q-87 0 -138.5 -62t-51.5 -167q0 -106 51.5 -167.5t138.5 -61.5t138 61.5t51 167.5t-51 167.5t-138 61.5zM448 924l-100 -153h-104l67 153
h137zM625 924l-100 -153h-104l67 153h137z" />
    <glyph glyph-name="ohungarumlaut" unicode="&#x151;" horiz-adv-x="601" 
d="M301 538q120 0 197 -77.5t77 -199.5q0 -123 -77 -200.5t-197 -77.5q-121 0 -198 77.5t-77 200.5q0 122 77 199.5t198 77.5zM301 411q-55 0 -89 -41t-34 -109q0 -69 34 -110t89 -41t88.5 41t33.5 110q0 68 -34 109t-88 41zM359 734l-100 -153h-104l67 153h137zM536 734
l-100 -153h-104l67 153h137z" />
    <glyph glyph-name="OE" unicode="&#x152;" horiz-adv-x="1146" 
d="M739 136h361v-136h-523v52q-79 -70 -195 -70q-160 0 -255.5 105t-95.5 268t95.5 268t255.5 105q116 0 195 -70v52h511v-136h-349v-138h328v-137h-328v-163zM388 126q87 0 138 61.5t51 167.5t-51 167.5t-138 61.5t-138.5 -62t-51.5 -167q0 -106 51.5 -167.5t138.5 -61.5z
" />
    <glyph glyph-name="oe" unicode="&#x153;" horiz-adv-x="980" 
d="M715 110q41 0 71 14t77 52l83 -94q-103 -99 -235 -99q-134 0 -209 81q-75 -81 -200 -81q-121 0 -198.5 77.5t-77.5 200.5q0 122 78 199.5t198 77.5q125 0 200 -81q73 81 196 81q119 0 183.5 -69t64.5 -194q0 -27 -2 -57h-364q9 -52 43.5 -80t91.5 -28zM699 421
q-91 0 -116 -99h223q-11 99 -107 99zM302 110q55 0 89 41t34 110q0 68 -34 109t-89 41q-56 0 -90 -41t-34 -109q0 -69 34 -110t90 -41z" />
    <glyph glyph-name="Racute" unicode="&#x154;" horiz-adv-x="704" 
d="M681 0h-177l-160 253h-115v-253h-162v710h353q103 0 169.5 -65t66.5 -164q0 -75 -40 -132.5t-108 -81.5zM228 387h162q49 0 77.5 25t28.5 69q0 45 -28.5 70t-77.5 25h-162v-189zM509 924l-97 -152h-133l68 152h162z" />
    <glyph glyph-name="racute" unicode="&#x155;" horiz-adv-x="411" 
d="M321 529q31 0 85 -18l-28 -132q-47 11 -68 11q-50 0 -79 -38.5t-29 -105.5v-246h-150v520h139v-74q42 83 130 83zM378 734l-97 -152h-133l68 152h162z" />
    <glyph glyph-name="Rcommaaccent" unicode="&#x156;" horiz-adv-x="704" 
d="M681 0h-177l-160 253h-115v-253h-162v710h353q103 0 169.5 -65t66.5 -164q0 -75 -40 -132.5t-108 -81.5zM228 387h162q49 0 77.5 25t28.5 69q0 45 -28.5 70t-77.5 25h-162v-189zM425 -53v-115l-79 -92h-77l72 92h-68v115h152z" />
    <glyph glyph-name="rcommaaccent" unicode="&#x157;" horiz-adv-x="411" 
d="M321 529q31 0 85 -18l-28 -132q-47 11 -68 11q-50 0 -79 -38.5t-29 -105.5v-246h-150v520h139v-74q42 83 130 83zM204 -53v-115l-79 -92h-77l72 92h-68v115h152z" />
    <glyph glyph-name="Rcaron" unicode="&#x158;" horiz-adv-x="704" 
d="M681 0h-177l-160 253h-115v-253h-162v710h353q103 0 169.5 -65t66.5 -164q0 -75 -40 -132.5t-108 -81.5zM228 387h162q49 0 77.5 25t28.5 69q0 45 -28.5 70t-77.5 25h-162v-189zM549 924l-106 -152h-188l-106 152h126l74 -91l73 91h127z" />
    <glyph glyph-name="rcaron" unicode="&#x159;" horiz-adv-x="411" 
d="M321 529q31 0 85 -18l-28 -132q-47 11 -68 11q-50 0 -79 -38.5t-29 -105.5v-246h-150v520h139v-74q42 83 130 83zM418 734l-106 -152h-188l-106 152h126l74 -91l73 91h127z" />
    <glyph glyph-name="Sacute" unicode="&#x15a;" horiz-adv-x="652" 
d="M323 727q88 0 157 -26q67 -26 137 -87l-96 -113q-61 52 -101 68q-43 17 -100 17q-53 0 -85 -20.5t-32 -53.5q4 -32 26 -43t111 -32l28 -7q144 -36 199 -78t58 -133q0 -105 -78.5 -171t-211.5 -66q-98 0 -170 31q-73 30 -155 104l98 114q69 -61 117 -84q49 -23 113 -23
q57 0 92 21.5t35 59.5q-4 33 -26.5 45.5t-95.5 30.5q-24 5 -51 12q-143 37 -195.5 82.5t-52.5 128.5q0 92 78 157.5t201 65.5zM486 924l-97 -152h-133l68 152h162z" />
    <glyph glyph-name="sacute" unicode="&#x15b;" horiz-adv-x="523" 
d="M261 538q69 0 122.5 -19.5t107.5 -64.5l-79 -96q-75 59 -155 59q-35 0 -55.5 -11t-20.5 -30t22 -28t91 -23q114 -25 158.5 -60.5t44.5 -107.5q0 -77 -61.5 -125.5t-167.5 -48.5q-75 0 -136 23t-122 77l85 95q57 -45 93 -59q37 -15 85 -15q34 0 56 12t22 33
q0 20 -18.5 29.5t-71.5 19.5l-31 7q-110 25 -151 59.5t-41 99.5q0 74 61 124t162 50zM422 734l-97 -152h-133l68 152h162z" />
    <glyph glyph-name="Scedilla" unicode="&#x15e;" horiz-adv-x="652" 
d="M625 219q0 -98 -69 -163.5t-188 -72.5l-21 -45q48 -1 76 -24.5t28 -59.5q0 -45 -33 -71t-90 -26q-60 0 -115 40l37 57q44 -27 79 -27q40 0 40 26t-43 26q-17 0 -29 -3l-37 33l35 74q-81 6 -146.5 37t-138.5 97l98 114q69 -61 117 -84q49 -23 113 -23q55 0 91 21.5
t36 56.5q-4 35 -26.5 48t-97.5 31l-49 12q-143 37 -195.5 82.5t-52.5 128.5q0 93 78 158.5t201 65.5q89 0 156 -26q67 -27 138 -88l-96 -113q-61 52 -101 68q-43 17 -100 17q-53 0 -85 -20.5t-32 -53.5q4 -32 26 -43t111 -32l28 -7q144 -36 199 -78t58 -133z" />
    <glyph glyph-name="scedilla" unicode="&#x15f;" horiz-adv-x="523" 
d="M497 157q0 -73 -53.5 -119.5t-147.5 -53.5l-22 -47q48 -1 76 -24.5t28 -59.5q0 -45 -33 -71t-90 -26q-60 0 -115 40l37 57q43 -27 79 -27q40 0 40 26t-43 26q-17 0 -29 -3l-37 33l36 77q-114 10 -213 98l85 95q57 -45 93 -59q37 -15 85 -15q34 0 56 12t22 33
q0 20 -18.5 29.5t-71.5 19.5l-31 7q-110 25 -151 59.5t-41 99.5q0 74 61 124t162 50q69 0 122.5 -19.5t107.5 -64.5l-79 -96q-75 59 -155 59q-35 0 -55.5 -11t-20.5 -30t22 -28t91 -23q114 -25 158.5 -60.5t44.5 -107.5z" />
    <glyph glyph-name="Scaron" unicode="&#x160;" horiz-adv-x="652" 
d="M323 727q88 0 157 -26q67 -26 137 -87l-96 -113q-61 52 -101 68q-43 17 -100 17q-53 0 -85 -20.5t-32 -53.5q4 -32 26 -43t111 -32l28 -7q144 -36 199 -78t58 -133q0 -105 -78.5 -171t-211.5 -66q-98 0 -170 31q-73 30 -155 104l98 114q69 -61 117 -84q49 -23 113 -23
q57 0 92 21.5t35 59.5q-4 33 -26.5 45.5t-95.5 30.5q-24 5 -51 12q-143 37 -195.5 82.5t-52.5 128.5q0 92 78 157.5t201 65.5zM526 924l-106 -152h-188l-106 152h126l74 -91l73 91h127z" />
    <glyph glyph-name="scaron" unicode="&#x161;" horiz-adv-x="523" 
d="M261 538q69 0 122.5 -19.5t107.5 -64.5l-79 -96q-75 59 -155 59q-35 0 -55.5 -11t-20.5 -30t22 -28t91 -23q114 -25 158.5 -60.5t44.5 -107.5q0 -77 -61.5 -125.5t-167.5 -48.5q-75 0 -136 23t-122 77l85 95q57 -45 93 -59q37 -15 85 -15q34 0 56 12t22 33
q0 20 -18.5 29.5t-71.5 19.5l-31 7q-110 25 -151 59.5t-41 99.5q0 74 61 124t162 50zM462 734l-106 -152h-188l-106 152h126l74 -91l73 91h127z" />
    <glyph glyph-name="uni0162" unicode="&#x162;" horiz-adv-x="624" 
d="M392 0h-41l-29 -63q48 -1 75.5 -24t27.5 -60q0 -46 -32.5 -71.5t-89.5 -25.5q-56 0 -114 40l38 57q44 -27 76 -27q41 0 41 26t-44 26q-16 0 -28 -3l-37 33l43 92h-48v571h-205v139h574v-139h-207v-571z" />
    <glyph glyph-name="uni0163" unicode="&#x163;" horiz-adv-x="398" 
d="M271 -13l-23 -50q48 -1 75.5 -24t27.5 -60q0 -46 -32.5 -71.5t-89.5 -25.5q-56 0 -114 40l38 57q44 -27 76 -27q41 0 41 26t-44 26q-16 0 -28 -3l-37 33l39 85q-51 11 -74 46t-23 99v270h-91v112h91v152h150v-152h117v-112h-117v-243q0 -26 12 -36.5t37 -10.5q19 0 59 8
l17 -120q-62 -18 -107 -19z" />
    <glyph glyph-name="Tcaron" unicode="&#x164;" horiz-adv-x="614" 
d="M589 710v-139h-202v-571h-162v571h-200v139h564zM507 924l-106 -152h-188l-106 152h126l74 -91l73 91h127z" />
    <glyph glyph-name="tcaron" unicode="&#x165;" horiz-adv-x="435" 
d="M361 126l17 -120q-63 -19 -119 -19q-83 0 -119.5 36t-36.5 115v270h-91v112h91v152h150v-152h117v-112h-117v-243q0 -26 12 -36.5t37 -10.5q19 0 59 8zM484 804l-74 -215h-94l29 215h139z" />
    <glyph glyph-name="Tbar" unicode="&#x166;" horiz-adv-x="624" 
d="M599 571h-207v-164h125v-106h-125v-301h-162v301h-122v106h122v164h-205v139h574v-139z" />
    <glyph glyph-name="tbar" unicode="&#x167;" horiz-adv-x="398" 
d="M361 126l17 -120q-63 -19 -119 -19q-83 0 -119.5 36t-36.5 115v80h-91v112h91v78h-91v112h91v152h150v-152h117v-112h-117v-78h117v-112h-117v-53q0 -26 12 -36.5t37 -10.5q19 0 59 8z" />
    <glyph glyph-name="Umacron" unicode="&#x16a;" horiz-adv-x="714" 
d="M650 710v-464q0 -264 -293 -264t-293 264v464h162v-459q0 -125 131 -125q65 0 98 32.5t33 92.5v459h162zM526 886v-106h-338v106h338z" />
    <glyph glyph-name="umacron" unicode="&#x16b;" horiz-adv-x="573" 
d="M371 520h150v-520h-137v55q-47 -72 -151 -72q-92 0 -137.5 44t-45.5 126v367h150v-327q0 -79 77 -79q94 0 94 99v307zM449 696v-106h-338v106h338z" />
    <glyph glyph-name="Uring" unicode="&#x16e;" horiz-adv-x="712" 
d="M650 710v-464q0 -264 -293 -264t-293 264v464h162v-459q0 -125 131 -125q65 0 98 32.5t33 92.5v459h162zM357 944q52 0 90.5 -36.5t38.5 -85.5q0 -50 -38.5 -86.5t-90.5 -36.5q-53 0 -91 36.5t-38 86.5t38.5 86t90.5 36zM356 882q-26 0 -43 -17t-17 -43q0 -27 17 -44
t43 -17t43.5 17t17.5 44q0 26 -17.5 43t-43.5 17z" />
    <glyph glyph-name="uring" unicode="&#x16f;" horiz-adv-x="573" 
d="M371 520h150v-520h-137v55q-47 -72 -151 -72q-92 0 -137.5 44t-45.5 126v367h150v-327q0 -79 77 -79q94 0 94 99v307zM281 820q52 0 90.5 -36.5t38.5 -85.5q0 -50 -38.5 -86.5t-90.5 -36.5q-53 0 -91 36.5t-38 86.5t38.5 86t90.5 36zM280 758q-26 0 -43 -17t-17 -43
q0 -27 17 -44t43 -17t43.5 17t17.5 44q0 26 -17.5 43t-43.5 17z" />
    <glyph glyph-name="Uhungarumlaut" unicode="&#x170;" horiz-adv-x="714" 
d="M650 710v-464q0 -264 -293 -264t-293 264v464h162v-459q0 -125 131 -125q65 0 98 32.5t33 92.5v459h162zM417 924l-100 -153h-104l67 153h137zM594 924l-100 -153h-104l67 153h137z" />
    <glyph glyph-name="uhungarumlaut" unicode="&#x171;" horiz-adv-x="573" 
d="M371 520h150v-520h-137v55q-47 -72 -151 -72q-92 0 -137.5 44t-45.5 126v367h150v-327q0 -79 77 -79q94 0 94 99v307zM340 734l-100 -153h-104l67 153h137zM517 734l-100 -153h-104l67 153h137z" />
    <glyph glyph-name="Uogonek" unicode="&#x172;" horiz-adv-x="714" 
d="M488 710h162v-464q0 -86 -28 -138t-93 -93q-86 -55 -86 -111q0 -37 52 -37q13 0 27 3v-82q-19 -10 -53 -10q-61 0 -93 27.5t-32 72.5q0 56 40 105q-6 -1 -27 -1q-293 0 -293 264v464h162v-459q0 -125 131 -125q65 0 98 32.5t33 92.5v459z" />
    <glyph glyph-name="uogonek" unicode="&#x173;" horiz-adv-x="573" 
d="M521 520v-520q-87 -48 -87 -97q0 -36 52 -36q12 0 27 3v-82q-19 -10 -53 -10q-61 0 -93 27t-32 72q0 64 66 123h-17v55q-47 -72 -151 -72q-92 0 -137.5 44t-45.5 126v367h150v-327q0 -79 77 -79q94 0 94 99v307h150z" />
    <glyph glyph-name="Wcircumflex" unicode="&#x174;" horiz-adv-x="987" 
d="M807 710h158l-171 -710h-185l-62 250q-27 106 -52 225q-16 -79 -52 -224l-62 -251h-185l-174 710h166l66 -290q22 -94 44 -216q25 116 50 216l76 290h150l73 -290q25 -100 50 -223q22 126 43 223zM567 772l-73 91l-74 -91h-126l106 152h188l106 -152h-127z" />
    <glyph glyph-name="wcircumflex" unicode="&#x175;" horiz-adv-x="823" 
d="M654 521h157l-144 -521h-178l-35 130q-6 23 -38 163l-7 33q-15 -84 -41 -195l-33 -131h-179l-144 521h160l37 -161q20 -78 46 -221l11 52q16 82 37 169l41 161h137l41 -161q19 -78 42 -191l7 -32q23 131 46 223zM486 582l-73 91l-74 -91h-126l106 152h188l106 -152h-127z
" />
    <glyph glyph-name="Ycircumflex" unicode="&#x176;" horiz-adv-x="649" 
d="M473 710h171l-250 -414v-296h-162v297l-250 413h178l156 -270zM386 772l-73 91l-74 -91h-126l106 152h188l106 -152h-127z" />
    <glyph glyph-name="ycircumflex" unicode="&#x177;" horiz-adv-x="538" 
d="M379 520h154l-198 -572q-26 -77 -71 -110.5t-120 -33.5q-63 0 -108 15l25 111q30 -6 63 -6q55 0 77 46l-196 550h158l40 -121q51 -151 70 -221q22 79 67 221zM342 582l-73 91l-74 -91h-126l106 152h188l106 -152h-127z" />
    <glyph glyph-name="Ydieresis" unicode="&#x178;" horiz-adv-x="649" 
d="M473 710h171l-250 -414v-296h-162v297l-250 413h178l156 -270zM282 900v-125h-143v125h143zM490 900v-125h-143v125h143z" />
    <glyph glyph-name="Zacute" unicode="&#x179;" horiz-adv-x="649" 
d="M604 710v-134l-363 -440h362v-136h-558v134l363 440h-351v136h547zM495 924l-97 -152h-133l68 152h162z" />
    <glyph glyph-name="zacute" unicode="&#x17a;" horiz-adv-x="507" 
d="M469 520v-114l-250 -284h250v-122h-437v113l252 286h-237v121h422zM416 734l-97 -152h-133l68 152h162z" />
    <glyph glyph-name="Zdotaccent" unicode="&#x17b;" horiz-adv-x="649" 
d="M604 710v-134l-363 -440h362v-136h-558v134l363 440h-351v136h547zM410 900v-125h-150v125h150z" />
    <glyph glyph-name="zdotaccent" unicode="&#x17c;" horiz-adv-x="507" 
d="M469 520v-114l-250 -284h250v-122h-437v113l252 286h-237v121h422zM331 710v-125h-150v125h150z" />
    <glyph glyph-name="Zcaron" unicode="&#x17d;" horiz-adv-x="649" 
d="M604 710v-134l-363 -440h362v-136h-558v134l363 440h-351v136h547zM535 924l-106 -152h-188l-106 152h126l74 -91l73 91h127z" />
    <glyph glyph-name="zcaron" unicode="&#x17e;" horiz-adv-x="507" 
d="M469 520v-114l-250 -284h250v-122h-437v113l252 286h-237v121h422zM456 734l-106 -152h-188l-106 152h126l74 -91l73 91h127z" />
    <glyph glyph-name="florin" unicode="&#x192;" 
d="M357 490h115v-115h-115v-390q0 -94 -41.5 -137t-126.5 -43q-64 0 -109 15l25 111q36 -6 53 -6q25 0 37 13t12 42v395h-98v115h98v34q0 172 175 172q60 0 113 -18l-26 -111q-30 6 -56 6q-56 0 -56 -55v-28z" />
    <glyph glyph-name="Scommaaccent" unicode="&#x218;" horiz-adv-x="652" 
d="M323 727q88 0 157 -26q67 -26 137 -87l-96 -113q-61 52 -101 68q-43 17 -100 17q-53 0 -85 -20.5t-32 -53.5q4 -32 26 -43t111 -32l28 -7q144 -36 199 -78t58 -133q0 -105 -78.5 -171t-211.5 -66q-98 0 -170 31q-73 30 -155 104l98 114q69 -61 117 -84q49 -23 113 -23
q57 0 92 21.5t35 59.5q-4 33 -26.5 45.5t-95.5 30.5q-24 5 -51 12q-143 37 -195.5 82.5t-52.5 128.5q0 92 78 157.5t201 65.5zM402 -53v-115l-79 -92h-77l72 92h-68v115h152z" />
    <glyph glyph-name="scommaaccent" unicode="&#x219;" horiz-adv-x="523" 
d="M261 538q69 0 122.5 -19.5t107.5 -64.5l-79 -96q-75 59 -155 59q-35 0 -55.5 -11t-20.5 -30t22 -28t91 -23q114 -25 158.5 -60.5t44.5 -107.5q0 -77 -61.5 -125.5t-167.5 -48.5q-75 0 -136 23t-122 77l85 95q57 -45 93 -59q37 -15 85 -15q34 0 56 12t22 33
q0 20 -18.5 29.5t-71.5 19.5l-31 7q-110 25 -151 59.5t-41 99.5q0 74 61 124t162 50zM337 -53v-115l-79 -92h-77l72 92h-68v115h152z" />
    <glyph glyph-name="uni021A" unicode="&#x21a;" horiz-adv-x="614" 
d="M589 710v-139h-202v-571h-162v571h-200v139h564zM384 -53v-115l-79 -92h-77l72 92h-68v115h152z" />
    <glyph glyph-name="uni021B" unicode="&#x21b;" horiz-adv-x="398" 
d="M361 126l17 -120q-63 -19 -119 -19q-83 0 -119.5 36t-36.5 115v270h-91v112h91v152h150v-152h117v-112h-117v-243q0 -26 12 -36.5t37 -10.5q19 0 59 8zM312 -53v-115l-79 -92h-77l72 92h-68v115h152z" />
    <glyph glyph-name="uni0237" unicode="&#x237;" horiz-adv-x="259" 
d="M-70 -176l25 112q29 -6 52 -6q27 0 38.5 12.5t11.5 42.5v535h150v-530q0 -94 -41.5 -137.5t-126.5 -43.5q-59 0 -109 15z" />
    <glyph glyph-name="circumflex" unicode="&#x2c6;" horiz-adv-x="548" 
d="M342 582l-73 91l-74 -91h-126l106 152h188l106 -152h-127z" />
    <glyph glyph-name="caron" unicode="&#x2c7;" horiz-adv-x="580" 
d="M490 734l-106 -152h-188l-106 152h126l74 -91l73 91h127z" />
    <glyph glyph-name="breve" unicode="&#x2d8;" horiz-adv-x="536" 
d="M268 569q-78 0 -125.5 40.5t-47.5 115.5h109q0 -34 17 -53t47 -19t47.5 19t17.5 53h108q0 -75 -47.5 -115.5t-125.5 -40.5z" />
    <glyph glyph-name="dotaccent" unicode="&#x2d9;" horiz-adv-x="330" 
d="M240 710v-125h-150v125h150z" />
    <glyph glyph-name="ring" unicode="&#x2da;" horiz-adv-x="472" 
d="M237 820q52 0 90.5 -36.5t38.5 -85.5q0 -50 -38.5 -86.5t-90.5 -36.5q-53 0 -91 36.5t-38 86.5t38.5 86t90.5 36zM236 758q-26 0 -43 -17t-17 -43q0 -27 17 -44t43 -17t43.5 17t17.5 44q0 26 -17.5 43t-43.5 17z" />
    <glyph glyph-name="ogonek" unicode="&#x2db;" horiz-adv-x="378" 
d="M218 31l79 -31q-87 -48 -87 -97q0 -36 52 -36q12 0 27 3v-82q-19 -10 -53 -10q-61 0 -93 27t-32 72q0 82 107 154z" />
    <glyph glyph-name="tilde" unicode="&#x2dc;" horiz-adv-x="549" 
d="M203 713q39 0 86 -24q29 -16 49 -16q30 0 32 38h88q0 -66 -29 -99t-77 -33q-33 0 -86 24q-27 16 -53 16q-16 0 -23 -8.5t-9 -29.5h-89q0 64 31.5 98t79.5 34z" />
    <glyph glyph-name="hungarumlaut" unicode="&#x2dd;" horiz-adv-x="558" 
d="M295 734l-100 -153h-104l67 153h137zM472 734l-100 -153h-104l67 153h137z" />
    <glyph glyph-name="uni0326" unicode="&#x326;" horiz-adv-x="0" 
d="M-100 -53v-115l-79 -92h-77l72 92h-68v115h152z" />
    <glyph glyph-name="Delta" unicode="&#x394;" horiz-adv-x="731" 
d="M472 710l253 -710h-718l252 710h213zM214 134h299l-67 201q-55 162 -83 257q-16 -59 -72 -229l-10 -31z" />
    <glyph glyph-name="Omega" unicode="&#x3a9;" horiz-adv-x="797" 
d="M588 139h172v-139h-320v211q66 12 107.5 63.5t41.5 125.5q0 84 -51.5 134t-137.5 50t-138 -50t-52 -134q0 -74 41.5 -125t108.5 -64v-211h-323v139h175q-81 37 -125 104.5t-44 156.5q-2 139 98.5 234t258.5 94q160 0 258 -93.5t98 -234.5q0 -89 -43.5 -156.5
t-124.5 -104.5z" />
    <glyph glyph-name="mu" unicode="&#x3bc;" horiz-adv-x="573" 
d="M371 520h150v-520h-136v60q-38 -77 -115 -77q-42 0 -70 21v-187h-150v703h150v-332q0 -74 82 -74q42 0 65.5 24.5t23.5 69.5v312z" />
    <glyph glyph-name="pi" unicode="&#x3c0;" horiz-adv-x="635" 
d="M603 124l12 -118q-51 -17 -105 -17q-81 0 -115 37.5t-34 120.5v257h-108v-404h-150v404h-91v116h584v-116h-85v-249q0 -38 41 -38q24 0 51 7z" />
    <glyph glyph-name="Wgrave" unicode="&#x1e80;" horiz-adv-x="987" 
d="M807 710h158l-171 -710h-185l-62 250q-27 106 -52 225q-16 -79 -52 -224l-62 -251h-185l-174 710h166l66 -290q22 -94 44 -216q25 116 50 216l76 290h150l73 -290q25 -100 50 -223q22 126 43 223zM334 924h163l67 -152h-132z" />
    <glyph glyph-name="wgrave" unicode="&#x1e81;" horiz-adv-x="823" 
d="M654 521h157l-144 -521h-178l-35 130q-6 23 -38 163l-7 33q-15 -84 -41 -195l-33 -131h-179l-144 521h160l37 -161q20 -78 46 -221l11 52q16 82 37 169l41 161h137l41 -161q19 -78 42 -191l7 -32q23 131 46 223zM253 734h163l67 -152h-132z" />
    <glyph glyph-name="Wacute" unicode="&#x1e82;" horiz-adv-x="987" 
d="M807 710h158l-171 -710h-185l-62 250q-27 106 -52 225q-16 -79 -52 -224l-62 -251h-185l-174 710h166l66 -290q22 -94 44 -216q25 116 50 216l76 290h150l73 -290q25 -100 50 -223q22 126 43 223zM655 924l-97 -152h-133l68 152h162z" />
    <glyph glyph-name="wacute" unicode="&#x1e83;" horiz-adv-x="823" 
d="M654 521h157l-144 -521h-178l-35 130q-6 23 -38 163l-7 33q-15 -84 -41 -195l-33 -131h-179l-144 521h160l37 -161q20 -78 46 -221l11 52q16 82 37 169l41 161h137l41 -161q19 -78 42 -191l7 -32q23 131 46 223zM574 734l-97 -152h-133l68 152h162z" />
    <glyph glyph-name="Wdieresis" unicode="&#x1e84;" horiz-adv-x="987" 
d="M807 710h158l-171 -710h-185l-62 250q-27 106 -52 225q-16 -79 -52 -224l-62 -251h-185l-174 710h166l66 -290q22 -94 44 -216q25 116 50 216l76 290h150l73 -290q25 -100 50 -223q22 126 43 223zM463 900v-125h-143v125h143zM671 900v-125h-143v125h143z" />
    <glyph glyph-name="wdieresis" unicode="&#x1e85;" horiz-adv-x="823" 
d="M654 521h157l-144 -521h-178l-35 130q-6 23 -38 163l-7 33q-15 -84 -41 -195l-33 -131h-179l-144 521h160l37 -161q20 -78 46 -221l11 52q16 82 37 169l41 161h137l41 -161q19 -78 42 -191l7 -32q23 131 46 223zM382 710v-125h-143v125h143zM590 710v-125h-143v125h143z
" />
    <glyph glyph-name="Ygrave" unicode="&#x1ef2;" horiz-adv-x="649" 
d="M473 710h171l-250 -414v-296h-162v297l-250 413h178l156 -270zM153 924h163l67 -152h-132z" />
    <glyph glyph-name="ygrave" unicode="&#x1ef3;" horiz-adv-x="538" 
d="M379 520h154l-198 -572q-26 -77 -71 -110.5t-120 -33.5q-63 0 -108 15l25 111q30 -6 63 -6q55 0 77 46l-196 550h158l40 -121q51 -151 70 -221q22 79 67 221zM109 734h163l67 -152h-132z" />
    <glyph glyph-name="endash" unicode="&#x2013;" horiz-adv-x="722" 
d="M676 356v-128h-631v128h631z" />
    <glyph glyph-name="emdash" unicode="&#x2014;" horiz-adv-x="955" 
d="M909 356v-128h-864v128h864z" />
    <glyph glyph-name="quoteleft" unicode="&#x2018;" horiz-adv-x="239" 
d="M37 405v154l85 151h82l-78 -151h74v-154h-163z" />
    <glyph glyph-name="quoteright" unicode="&#x2019;" horiz-adv-x="239" 
d="M202 710v-154l-85 -151h-82l78 151h-74v154h163z" />
    <glyph glyph-name="quotesinglbase" unicode="&#x201a;" horiz-adv-x="237" 
d="M200 161v-161l-84 -146h-81l74 146h-72v161h163z" />
    <glyph glyph-name="quotedblleft" unicode="&#x201c;" horiz-adv-x="474" 
d="M37 405v154l85 151h82l-78 -151h74v-154h-163zM272 405v154l85 151h82l-78 -151h74v-154h-163z" />
    <glyph glyph-name="quotedblright" unicode="&#x201d;" horiz-adv-x="474" 
d="M202 710v-154l-85 -151h-82l78 151h-74v154h163zM437 710v-154l-85 -151h-82l78 151h-74v154h163z" />
    <glyph glyph-name="quotedblbase" unicode="&#x201e;" horiz-adv-x="472" 
d="M200 161v-161l-84 -146h-81l74 146h-72v161h163zM435 161v-161l-84 -146h-81l74 146h-72v161h163z" />
    <glyph glyph-name="dagger" unicode="&#x2020;" 
d="M550 470v-137h-177v-530h-156v530h-178v137h178v240h156v-240h177z" />
    <glyph glyph-name="daggerdbl" unicode="&#x2021;" 
d="M550 383h-177v-163h177v-137h-177v-280h-156v280h-178v137h178v163h-178v137h178v190h156v-190h177v-137z" />
    <glyph glyph-name="bullet" unicode="&#x2022;" horiz-adv-x="528" 
d="M265 494q82 0 142 -60t60 -142t-60 -142t-142 -60t-142 60t-60 142t59.5 142t142.5 60z" />
    <glyph glyph-name="ellipsis" unicode="&#x2026;" horiz-adv-x="756" 
d="M207 162v-162h-160v162h160zM458 162v-162h-160v162h160zM709 162v-162h-160v162h160z" />
    <glyph glyph-name="perthousand" unicode="&#x2030;" horiz-adv-x="1302" 
d="M641 698l85 -53l-466 -663l-84 54zM218 693q74 0 123 -48.5t49 -122.5q0 -75 -49 -123.5t-123 -48.5t-122.5 48.5t-48.5 123.5q0 74 48.5 122.5t122.5 48.5zM218 604q-33 0 -52.5 -23t-19.5 -59q0 -37 19.5 -60t52.5 -23t53 23t20 60q0 36 -20 59t-53 23zM674 331
q74 0 123 -48.5t49 -122.5q0 -75 -49 -123.5t-123 -48.5t-122.5 48.5t-48.5 123.5q0 74 48.5 122.5t122.5 48.5zM1067 331q74 0 123 -48.5t49 -122.5q0 -75 -49 -123.5t-123 -48.5t-122.5 48.5t-48.5 123.5q0 74 48.5 122.5t122.5 48.5zM674 242q-33 0 -52.5 -23t-19.5 -59
q0 -37 19.5 -60t52.5 -23t53 23t20 60q0 36 -20 59t-53 23zM1067 242q-33 0 -52.5 -23t-19.5 -59q0 -37 19.5 -60t52.5 -23t53 23t20 60q0 36 -20 59t-53 23z" />
    <glyph glyph-name="guilsinglleft" unicode="&#x2039;" horiz-adv-x="392" 
d="M335 481l-148 -228l148 -228h-138l-145 228l145 228h138z" />
    <glyph glyph-name="guilsinglright" unicode="&#x203a;" horiz-adv-x="392" 
d="M57 481h139l144 -228l-144 -228h-139l142 228z" />
    <glyph glyph-name="fraction" unicode="&#x2044;" horiz-adv-x="236" 
d="M308 698l85 -53l-466 -663l-84 54z" />
    <glyph glyph-name="Euro" unicode="&#x20ac;" horiz-adv-x="610" 
d="M390 115q36 0 62 9q25 9 65 36l81 -103q-48 -40 -96 -57.5t-112 -17.5q-103 0 -174.5 64.5t-98.5 174.5h-69v100h56v19q0 28 1 36h-57v100h74q30 104 99.5 163t168.5 59q116 0 208 -75l-81 -103q-40 27 -65 36q-26 9 -62 9q-75 0 -108 -89h208v-100h-227q-1 -8 -1 -36
v-19h228v-100h-213q31 -106 113 -106z" />
    <glyph glyph-name="uni20B9" unicode="&#x20b9;" 
d="M557 585h-104q21 -32 28 -72h76v-95h-76q-14 -74 -70.5 -118t-142.5 -48l238 -252h-202l-227 252v117h164q69 0 87 49h-251v95h245q-21 38 -81 38h-164v129h480v-95z" />
    <glyph glyph-name="uni20BA" unicode="&#x20ba;" 
d="M438 311l140 -24l-11 -56q-24 -126 -84 -177.5t-210 -53.5h-152v225l-87 -38v108l87 38v63l-87 -38v108l87 38v176h156v-108l125 55v-108l-125 -55v-63l125 55v-108l-125 -55v-160h5q65 0 97.5 24t46.5 95z" />
    <glyph glyph-name="uni20BD" unicode="&#x20bd;" horiz-adv-x="610" 
d="M344 251h-74v-53h178v-95h-178v-103h-156v103h-81v95h81v53h-81v118h81v311h230q107 0 169.5 -57.5t62.5 -156.5t-62.5 -157t-169.5 -58zM270 551v-182h62q43 0 68.5 24.5t25.5 65.5q0 42 -25.5 67t-68.5 25h-62z" />
    <glyph glyph-name="uni2116" unicode="&#x2116;" horiz-adv-x="1138" 
d="M929 309q-89 0 -146 56.5t-57 148.5q0 90 57 146.5t146 56.5q88 0 145 -56.5t57 -146.5q0 -93 -55 -148q-56 -57 -147 -57zM496 482v228h157v-710h-169l-153 271l-34 60q-68 122 -79 144q6 -119 6 -264v-211h-157v710h169l168 -295l16 -28q59 -106 80 -148q-4 84 -4 243z
M928 622q-41 0 -67 -29.5t-26 -78.5t26.5 -79.5t66.5 -30.5q42 0 68 30t26 80t-26 79t-68 29zM747 160v97h362v-97h-362z" />
    <glyph glyph-name="uni2117" unicode="&#x2117;" horiz-adv-x="856" 
d="M428 723q153 3 261.5 -105.5t106.5 -262.5q2 -154 -106.5 -262.5t-261.5 -105.5q-153 -3 -261.5 105.5t-106.5 262.5q-2 154 106.5 262.5t261.5 105.5zM428 655q-125 2 -210 -85.5t-83 -214.5q-2 -127 83 -214.5t210 -85.5q126 0 209 85.5t83 214.5t-83 214.5t-209 85.5z
M293 564h170q59 0 96 -37t37 -94q0 -64 -36 -96t-97 -32h-92v-156h-78v415zM449 492h-77v-121h77q71 0 71 62q0 59 -71 59z" />
    <glyph glyph-name="trademark" unicode="&#x2122;" horiz-adv-x="954" 
d="M372 710v-82h-124v-305h-96v305h-125v82h345zM900 710v-387h-87v263l-102 -263h-77l-106 259v-259h-88v387h121l112 -274l106 274h121z" />
    <glyph glyph-name="uni2154" unicode="&#x2154;" horiz-adv-x="1049" 
d="M221 412l-23 -12q-50 -26 -59 -40h228v-88h-340v43q0 59 33 96t102 70l29 15q42 20 58 33.5t16 32.5q0 16 -16 27t-43 11q-55 0 -120 -48l-53 70q80 69 174 69q74 0 118.5 -37t44.5 -89q0 -67 -54 -102q-24 -15 -73 -40zM726 698l85 -53l-466 -663l-84 54zM998 321
l-104 -75q57 -6 91.5 -39t34.5 -82q0 -58 -46 -97t-124 -39q-99 0 -179 55l50 73q73 -37 128 -37q64 0 64 45q0 49 -82 49q-30 0 -46 -6l-44 61l125 91h-172v88h304v-87z" />
    <glyph glyph-name="oneeighth" unicode="&#x215b;" horiz-adv-x="955" 
d="M152 680h82v-408h-105v285l-59 -40l-51 70zM628 698l85 -53l-466 -663l-84 54zM859 217q70 -31 70 -104q0 -55 -47 -90t-127 -35t-127.5 35t-47.5 90q0 73 70 104q-53 32 -53 88q0 49 44 82t114 33t113.5 -32.5t43.5 -82.5q0 -56 -53 -88zM755 337q-26 0 -43 -12t-17 -30
t17 -31t43 -13t42 13t16 31t-16.5 30t-41.5 12zM755 73q33 0 51.5 14.5t18.5 36.5q0 23 -19 38t-51 15t-51 -15t-19 -38q0 -22 18.5 -36.5t51.5 -14.5z" />
    <glyph glyph-name="threeeighths" unicode="&#x215c;" horiz-adv-x="1030" 
d="M344 593l-104 -75q57 -6 91.5 -39t34.5 -82q0 -58 -46 -97t-124 -39q-99 0 -179 55l50 73q73 -37 128 -37q64 0 64 45q0 49 -82 49q-29 0 -46 -6l-44 61l125 91h-172v88h304v-87zM703 698l85 -53l-466 -663l-84 54zM934 217q70 -31 70 -104q0 -55 -47 -90t-127 -35
t-127.5 35t-47.5 90q0 73 70 104q-53 32 -53 88q0 49 44 82t114 33t113.5 -32.5t43.5 -82.5q0 -56 -53 -88zM830 337q-26 0 -43 -12t-17 -30t17 -31t43 -13t42 13t16 31t-16.5 30t-41.5 12zM830 73q33 0 51.5 14.5t18.5 36.5q0 23 -19 38t-51 15t-51 -15t-19 -38
q0 -22 18.5 -36.5t51.5 -14.5z" />
    <glyph glyph-name="fiveeighths" unicode="&#x215d;" horiz-adv-x="1031" 
d="M233 541q62 0 101 -38.5t39 -90.5q0 -71 -46.5 -111.5t-122.5 -40.5q-88 0 -185 56l50 76q76 -40 127 -40q69 0 69 53q0 23 -18 36.5t-50 13.5q-37 0 -66 -23l-84 9l18 239h286v-88h-198l-6 -73q35 22 86 22zM704 698l85 -53l-466 -663l-84 54zM935 217q70 -31 70 -104
q0 -55 -47 -90t-127 -35t-127.5 35t-47.5 90q0 73 70 104q-53 32 -53 88q0 49 44 82t114 33t113.5 -32.5t43.5 -82.5q0 -56 -53 -88zM831 337q-26 0 -43 -12t-17 -30t17 -31t43 -13t42 13t16 31t-16.5 30t-41.5 12zM831 73q33 0 51.5 14.5t18.5 36.5q0 23 -19 38t-51 15
t-51 -15t-19 -38q0 -22 18.5 -36.5t51.5 -14.5z" />
    <glyph glyph-name="seveneighths" unicode="&#x215e;" horiz-adv-x="947" 
d="M26 680h335v-77q-140 -158 -157 -331h-115q4 85 49 173q44 85 99 147h-211v88zM620 698l85 -53l-466 -663l-84 54zM851 217q70 -31 70 -104q0 -55 -47 -90t-127 -35t-127.5 35t-47.5 90q0 73 70 104q-53 32 -53 88q0 49 44 82t114 33t113.5 -32.5t43.5 -82.5
q0 -56 -53 -88zM747 337q-26 0 -43 -12t-17 -30t17 -31t43 -13t42 13t16 31t-16.5 30t-41.5 12zM747 73q33 0 51.5 14.5t18.5 36.5q0 23 -19 38t-51 15t-51 -15t-19 -38q0 -22 18.5 -36.5t51.5 -14.5z" />
    <glyph glyph-name="arrowleft" unicode="&#x2190;" horiz-adv-x="940" 
d="M890 399v-125h-625l195 -192l-88 -89l-342 344l342 343l88 -88l-196 -193h626z" />
    <glyph glyph-name="arrowup" unicode="&#x2191;" horiz-adv-x="751" 
d="M711 429l-84 -85l-184 186v-530h-134v531l-184 -187l-85 85l335 336z" />
    <glyph glyph-name="arrowright" unicode="&#x2192;" horiz-adv-x="940" 
d="M568 680l342 -343l-342 -344l-88 89l195 192h-625v125h626l-196 193z" />
    <glyph glyph-name="arrowdown" unicode="&#x2193;" horiz-adv-x="751" 
d="M627 366l84 -85l-336 -336l-335 336l85 85l184 -187v531h134v-530z" />
    <glyph glyph-name="uni2196" unicode="&#x2196;" horiz-adv-x="763" 
d="M733 135l-89 -88l-452 453v-295h-122v505h505v-121h-296z" />
    <glyph glyph-name="uni2197" unicode="&#x2197;" horiz-adv-x="763" 
d="M188 710h505v-505h-122v295l-452 -453l-89 88l454 454h-296v121z" />
    <glyph glyph-name="uni2198" unicode="&#x2198;" horiz-adv-x="763" 
d="M571 505h122v-505h-505v121h296l-454 454l89 88l452 -453v295z" />
    <glyph glyph-name="uni2199" unicode="&#x2199;" horiz-adv-x="763" 
d="M733 575l-454 -454h296v-121h-505v505h122v-295l452 453z" />
    <glyph glyph-name="partialdiff" unicode="&#x2202;" horiz-adv-x="570" 
d="M120 591l32 139q214 -28 303 -147q89 -121 89 -290q0 -148 -71.5 -229t-193.5 -81q-117 0 -185 73.5t-68 179.5q0 101 61.5 170t161.5 69q71 0 121 -38q-66 130 -250 154zM278 114q48 0 78 34t30 85q0 50 -31 82.5t-77 32.5q-47 0 -75 -32t-28 -83q0 -52 28 -85.5
t75 -33.5z" />
    <glyph glyph-name="product" unicode="&#x220f;" horiz-adv-x="722" 
d="M655 710v-820h-162v684h-264v-684h-162v820h588z" />
    <glyph glyph-name="summation" unicode="&#x2211;" horiz-adv-x="607" 
d="M553 710v-134h-315l236 -278l-237 -283h340v-134h-527v129l232 288l-230 283v129h501z" />
    <glyph glyph-name="minus" unicode="&#x2212;" horiz-adv-x="600" 
d="M560 375v-130h-520v130h520z" />
    <glyph glyph-name="radical" unicode="&#x221a;" horiz-adv-x="649" 
d="M468 710h166l-240 -710h-201l-176 520h167l116 -351z" />
    <glyph glyph-name="infinity" unicode="&#x221e;" horiz-adv-x="835" 
d="M598 476q74 0 128 -54t54 -132t-53.5 -131.5t-130.5 -53.5q-44 0 -94 25.5t-88 68.5q-79 -94 -173 -94q-76 0 -130 53.5t-54 131.5t53.5 132t129.5 54q104 0 186 -96q79 96 172 96zM244 223q54 0 103 57q-34 42 -57 58.5t-48 16.5q-23 0 -42.5 -19t-19.5 -47t19 -47
t45 -19zM598 223q23 0 41 19t18 47t-18.5 47t-41.5 19q-53 0 -103 -61q31 -38 54 -54.5t50 -16.5z" />
    <glyph glyph-name="integral" unicode="&#x222b;" horiz-adv-x="600" 
d="M357 548v-563q0 -94 -41.5 -137t-126.5 -43q-64 0 -109 15l25 111q36 -6 53 -6q25 0 37 13t12 42v574q0 172 175 172q60 0 113 -18l-26 -111q-30 6 -56 6q-56 0 -56 -55z" />
    <glyph glyph-name="approxequal" unicode="&#x2248;" horiz-adv-x="613" 
d="M202 496q46 0 111 -28q60 -25 94 -25q28 0 49 9t50 37l67 -93q-48 -46 -81 -63q-34 -17 -77 -17q-34 0 -104 27q-67 26 -102 26q-27 0 -47.5 -10t-54.5 -38l-68 93q45 45 82 63.5t81 18.5zM202 296q46 0 112 -28q63 -25 93 -25q28 0 49 9t50 37l67 -93q-48 -46 -81 -63
q-34 -17 -77 -17q-35 0 -101 26q-68 27 -105 27q-27 0 -47.5 -10t-54.5 -38l-68 93q45 45 82 63.5t81 18.5z" />
    <glyph glyph-name="notequal" unicode="&#x2260;" horiz-adv-x="600" 
d="M560 345h-188l-25 -70h213v-130h-260l-33 -90h-124l33 90h-136v130h183l25 70h-208v130h255l34 93h124l-34 -93h141v-130z" />
    <glyph glyph-name="lessequal" unicode="&#x2264;" horiz-adv-x="600" 
d="M540 622v-130l-310 -104l310 -104v-130l-480 180v108zM560 130v-130h-520v130h520z" />
    <glyph glyph-name="greaterequal" unicode="&#x2265;" horiz-adv-x="600" 
d="M60 622l480 -180v-108l-480 -180v130l310 104l-310 104v130zM560 130v-130h-520v130h520z" />
    <glyph glyph-name="lozenge" unicode="&#x25ca;" horiz-adv-x="619" 
d="M381 710l211 -356l-211 -354h-143l-211 354l211 356h143zM309 563l-124 -209l124 -207l124 207z" />
    <glyph glyph-name="uni2923" unicode="&#x2923;" horiz-adv-x="660" 
d="M525 654h-204q77 -80 117 -127q42 -50 73 -114q29 -66 29 -136q0 -128 -108 -258q-46 -55 -123 -135l-17 -18l-97 90l15 16q70 74 104 117q38 46 63 94q25 47 25 95q0 66 -39.5 130t-129.5 157v-205h-113v405h405v-111z" />
    <glyph glyph-name="uni2924" unicode="&#x2924;" horiz-adv-x="660" 
d="M540 360h-113v205q-90 -93 -129.5 -157t-39.5 -130q0 -85 88 -189q34 -43 104 -117l15 -16l-97 -90l-17 18q-80 83 -122 135q-44 51 -77 120q-32 67 -32 138q0 128 102 250q40 47 117 127h-204v111h405v-405z" />
    <glyph glyph-name="uni2925" unicode="&#x2925;" horiz-adv-x="660" 
d="M427 333h113v-405h-405v111h204q-77 80 -117 127q-44 52 -72 115q-30 63 -30 135q0 129 109 259q45 54 122 134l17 18l97 -90l-15 -16q-67 -71 -104 -116q-38 -47 -63 -94q-25 -49 -25 -96q0 -66 39.5 -130t129.5 -157v205z" />
    <glyph glyph-name="uni2926" unicode="&#x2926;" horiz-adv-x="660" 
d="M540 416q0 -128 -102 -250q-40 -47 -117 -127h204v-111h-405v405h113v-205q90 93 129.5 157t39.5 130q0 85 -88 190q-37 45 -104 116l-15 16l97 90l17 -18q72 -75 123 -134q47 -58 77 -121q31 -65 31 -138z" />
    <glyph glyph-name="uniE000" unicode="&#xe000;" horiz-adv-x="1792" 
d="M315 0h-265v230h13q38 -101 105 -159t145 -58q59 0 94.5 37.5t35.5 92.5q0 54 -38 94q-22 22 -48.5 34.5t-86.5 31.5q-59 17 -93 33.5t-62 44.5q-58 58 -58 144q0 78 49 131.5t126 53.5h243v-197h-10q-42 72 -76 106q-77 78 -158 78q-44 0 -78 -25q-36 -26 -36 -84
q0 -54 34 -88q23 -23 53 -36.5t88 -30.5q67 -20 105.5 -38t70.5 -50q50 -48 50 -135q0 -98 -55 -154t-148 -56zM503 710h375q141 2 233.5 -105.5t90.5 -261.5q0 -65 -19.5 -125t-59 -110t-105 -79.5t-149.5 -28.5h-365v13h20q56 0 82.5 23.5t26.5 75.5v486q0 51 -26.5 75
t-82.5 24h-21v13zM1149 13h16q57 0 83.5 24t26.5 75v486q0 52 -26.5 75.5t-83.5 23.5h-17v13h384v-13h-27q-56 0 -82 -23.5t-26 -75.5v-486q0 -55 16.5 -77t58.5 -22h66q37 2 60.5 18t52.5 63t79 150h12v-244h-593v13zM1654 697v13h-55v-13h20v-54h15v54h20zM1742 643v67
h-22l-17 -45l-16 45h-23v-67h15v49l18 -49h11l19 49v-49h15zM862 13q110 0 160 90q50 89 50 226q0 185 -60 276.5t-153 91.5h-65q-23 0 -31 -9.5t-8 -36.5v-554q0 -84 107 -84z" />
    <glyph glyph-name="uniE001" unicode="&#xe001;" horiz-adv-x="1011" 
d="M313 -39q-121 56 -192 169.5t-71 243.5q0 101 43 191q56 121 169 192t244 71q102 0 192 -43q121 -56 192 -169.5t71 -243.5q0 -101 -43 -191q-56 -121 -169 -192t-244 -71q-102 0 -192 43zM692 773q-90 41 -186 41q-126 0 -236 -68t-165 -186q-41 -90 -41 -186
q0 -126 68 -236q67 -109 187 -165q90 -41 186 -41q126 0 236.5 68.5t163.5 185.5q41 90 41 186q0 127 -68 237q-67 108 -186 164zM527 720l8 64l45 -6l-2 -15l-23 2l-1 -9l22 -3l-2 -16l-22 3l-3 -23zM430 723l-1 11l22 3l1 -4q0 -2 6 -2l5 3l-1 5q0 2 -6 2h-2q-21 0 -27 8
l-3 18q6 16 34 16q15 0 21 -9l2 -11l-23 -3v4q-2 2 -6 2q-5 -2 -5 -3v-4q2 -2 7 -2h2q23 -2 27 -8l2 -18q-4 -16 -33 -16q-14 0 -22 8zM621 700l-4 23l-5 2l-6 -20l-22 7l20 62l35 -12q13 -4 16 -16l-7 -21q-4 -3 -10 -5l4 -14l-4 -12zM402 704l-17 16l-4 -1l6 -20l-21 -7
l-21 61l35 12q2 1 8 1q9 0 14 -5l7 -20q-1 -8 -5 -11l12 -8l4 -12zM617 739l7 -3q5 0 6 1l3 8q-1 3 -5 4l-7 3zM376 733l8 3q1 0 4 3l-3 9q-3 1 -6 0l-7 -3zM314 663l-32 57l41 23l8 -14l-21 -12l4 -7l20 11l7 -14l-19 -11l4 -8l22 12l7 -14zM655 700l20 35q4 4 12 4
q9 0 19 -5q19 -10 19 -26l-20 -35q-4 -4 -12 -4t-20 5q-18 10 -18 26zM688 688l15 26q0 3 -5 5t-6 1l-15 -27q0 -3 4 -4q5 -3 7 -1zM276 633l-32 37l-11 -9l-10 12l40 33l10 -12l-11 -9l31 -38zM710 656l43 48l21 -19l-8 -22l2 -2l20 11l21 -19l-43 -48l-16 14l22 25l-1 1
l-23 -10l-7 7l8 23l-2 2l-22 -25zM371 84q-85 40 -135 120q-49 79 -49 170q0 70 30 134q41 86 119 135q79 49 170 49q70 0 134 -30q86 -41 135 -119t49 -171q0 -68 -30 -134q-41 -86 -119 -135q-79 -49 -170 -49q-69 0 -134 30zM634 649q-64 29 -128 29q-88 0 -164 -47.5
t-113 -128.5q-29 -64 -29 -128q0 -86 48 -163q46 -77 129 -114q64 -29 128 -29q88 0 164 47.5t113 128.5q29 66 29 129q0 87 -48 162t-129 114zM232 586l-38 32l-9 -12l-12 11l33 40l12 -10l-9 -12l37 -31zM799 579l9 5l12 -19l-4 -2q-1 -1 1 -6q1 -4 4 -4l4 2q2 2 0 7l-1 2
q-5 12 -5 19q0 3 2 9l15 9q14 0 25 -18q6 -7 6 -19q0 -6 -3 -11l-9 -5l-12 19l4 2q1 1 -1 6q-1 4 -4 4l-4 -2q0 -5 1 -7l1 -2q5 -17 5 -20q0 -2 -2 -8l-16 -9q-14 0 -25 18q-6 12 -6 19q0 5 3 11zM193 525l-56 32l23 41l14 -8l-12 -21l7 -4l11 19l14 -7l-11 -20l8 -5l12 22
l13 -8zM510 516q-12 -23 -29 -23q-16 0 -16 21q0 8 5 21q11 23 28 23t17 -21q0 -8 -5 -21zM827 507l47 25l12 3l6 -21l-33 -14v-2l37 3l5 -16l-32 -18v-1l36 5l6 -18l-12 -4l-53 -6l-7 26l21 12l-1 1l-24 -1zM174 475l-61 23l8 21l46 -17l6 17l15 -5zM652 450
q-11 -23 -28 -23t-17 21q0 8 5 21q11 23 28 23t17 -21q0 -8 -5 -21zM140 425q-2 -7 -10 -7l-5 1q-7 4 -7 11l1 5q3 6 10 6q5 0 6 -1q6 -2 6 -9q0 -5 -1 -6zM849 421l65 5l3 -46l-15 -2l-2 25l-8 -1l1 -23l-16 -1l-1 23l-9 -1l1 -24l-15 -2zM627 264l-15 7q-19 -32 -52 -50.5
t-69 -18.5q-33 0 -59 13q-38 18 -59.5 52.5t-21.5 74.5q0 21 8 47l-15 7q-10 -24 -10 -54q0 -45 24.5 -84t66.5 -58q31 -15 66 -15q42 0 78.5 21t57.5 58zM161 326l-65 -4l-2 20l22 7l-1 1l-21 4l-2 20l66 4l1 -15l-35 -2v-2l24 -4l1 -8l-24 -7v-1l35 2zM853 362l64 -7
l-3 -33q-3 -17 -15 -22l-40 4q-10 7 -10 22v3zM866 338l-1 -7q0 -3 2 -5l29 -3q2 0 2 5l1 7zM170 286l-64 -14l-4 16l52 12l-3 12l12 3zM844 294l61 -20l-13 -44l-15 4l7 24l-8 2l-7 -22l-15 5l7 22l-9 2l-7 -23l-15 4zM178 233l-45 -16q-12 0 -17 15q-1 2 -1 9q0 12 5 14
l44 16q12 0 17 -15l2 -9q0 -9 -5 -14zM164 254l-33 -12q-2 -2 -1 -5q2 -2 3 -2l34 12l1 4q-2 3 -4 3zM826 237l57 -30l-11 -21h-32l-1 -2l25 -13l-10 -18l-57 30l11 21h32l1 2l-25 13zM211 190l-58 -32l-8 15l22 12l-4 6l-21 -12l-8 15l57 31l8 -14l-23 -13l3 -7l24 13z
M240 149l-52 -39l-10 13l13 10v1l-19 -4l-7 11l8 6l20 2l15 24l9 7l8 -11l-12 -18l3 1l14 10zM270 106l-33 -34q-11 -4 -22 7q-8 8 -8 20l14 14l11 -11l-8 -9q-1 -1 -0.5 -3t3.5 -2h2l25 25q0 3 -1 4l-4 1l-10 -9l-11 11l15 15q10 3 20 -7q8 -10 8 -18zM800 118
q-3 -7 -11 -7q-4 0 -5 1q-6 3 -6 11q0 3 1 4q4 7 10 7q4 0 5 -1q7 -3 7 -11q0 -3 -1 -4zM730 108l39 -53l-17 -12l-17 14l-1 -1l8 -20l-16 -12l-39 53l13 9l21 -28l1 1l-9 23l6 4l18 -16l1 1l-20 28zM312 73l-27 -38q-11 -4 -23 4q-10 6 -10 17v3l28 38q8 8 22 -3
q10 -7 10 -17v-4zM290 83l-21 -29q-1 -1 1 -4q3 -2 5 0l21 29q-1 3 -2 4h-4zM653 60l9 -14l8 4l-5 15l13 7l4 -10l17 -53l-23 -11l-32 45l-5 10zM350 63l-25 -46l9 -5l-6 -11l-32 16l6 12l9 -5l25 47zM402 34l-4 -13l-15 5l2 6q0 3 -3 3q-2 2 -4 0l-2 -7q0 -2 3 -4l1 -1
q12 -11 12 -18l-7 -19q-6 -3 -13 -3q-6 0 -8 1q-12 5 -15 16l4 12l15 -5l-2 -6q0 -3 4 -3q2 0 3 1l2 5q0 2 -3 5h-1q-12 9 -12 18l7 20q7 4 12 4q1 0 9 -2q15 -5 15 -15zM629 49l19 -63l-23 -7q-10 -4 -18 4l-14 45q0 8 12 13zM681 19l-7 19l-6 -3l11 -17zM578 34l11 -65
l-30 -5l-2 13l14 2l-3 13l-13 -2l-2 12l13 3l-2 14l-14 -3l-2 13zM483 27l-9 -65l-17 2l-5 32h-1l-4 -31l-16 2l8 65l18 -2l5 -32l1 -1l4 32zM617 31l-4 -1q-3 0 -3 -3l11 -34q3 -3 4 -1l4 1zM512 26v-65h-17v66z" />
    <glyph glyph-name="uniE002" unicode="&#xe002;" 
d="M557 193q0 -75 -39 -124t-108 -63v-106h-107v100h-62v-100h-107v100h-84v680h84v100h107v-100h62v100h107v-110q58 -16 90.5 -58t32.5 -104q0 -53 -27 -92.5t-74 -57.5q60 -17 92.5 -59.5t32.5 -105.5zM383 488q0 69 -87 69h-90v-143h89q88 0 88 74zM206 123h90
q105 0 105 85q0 83 -105 83h-90v-168z" />
    <glyph glyph-name="Adieresis.ss02" horiz-adv-x="731" 
d="M556 0l-41 124h-304l-42 -124h-162l252 710h213l253 -710h-169zM257 258h214l-27 80l-23 68q-2 6 -5.5 17t-9.5 28.5t-11 33.5q-19 57 -33 102q-27 -100 -80 -254zM262 765q-33 0 -56.5 22t-23.5 55t23.5 55t56.5 22t56.5 -22t23.5 -55t-23.5 -55t-56.5 -22zM471 765
q-33 0 -56.5 22t-23.5 55t23.5 55t56.5 22t56.5 -22t23.5 -55t-23.5 -55t-56.5 -22z" />
    <glyph glyph-name="Cdotaccent.ss02" horiz-adv-x="680" 
d="M391 728q85 0 145 -25q61 -26 125 -84l-95 -112q-53 45 -90.5 61.5t-85.5 16.5q-89 0 -141.5 -61.5t-52.5 -167.5q0 -107 52.5 -169t140.5 -62q52 0 90 19q39 18 99 66l93 -110q-66 -61 -132.5 -89.5t-147.5 -28.5q-164 0 -262 105.5t-98 270.5q0 162 97 266t263 104z
M391 757q-36 0 -60 23t-24 58t24 58t60 23t60 -23t24 -58t-24 -58t-60 -23z" />
    <glyph glyph-name="Edieresis.ss02" horiz-adv-x="636" 
d="M578 710v-136h-349v-138h328v-137h-328v-163h361v-136h-523v710h511zM226 765q-33 0 -56.5 22t-23.5 55t23.5 55t56.5 22t56.5 -22t23.5 -55t-23.5 -55t-56.5 -22zM435 765q-33 0 -56.5 22t-23.5 55t23.5 55t56.5 22t56.5 -22t23.5 -55t-23.5 -55t-56.5 -22z" />
    <glyph glyph-name="Edotaccent.ss02" horiz-adv-x="636" 
d="M578 710v-136h-349v-138h328v-137h-328v-163h361v-136h-523v710h511zM329 757q-36 0 -60 23t-24 58t24 58t60 23t60 -23t24 -58t-24 -58t-60 -23z" />
    <glyph glyph-name="Gcommaaccent.ss02" horiz-adv-x="757" 
d="M365 268v136h338v-404h-123l-6 61q-61 -78 -195 -78q-160 0 -254 104t-94 269q-2 162 98.5 267.5t265.5 103.5q93 0 164.5 -30t145.5 -102l-102 -106q-60 53 -107 74t-101 21q-92 0 -145.5 -59t-53.5 -168q0 -112 52.5 -172.5t143.5 -60.5q78 0 121.5 37.5t43.5 103.5v3
h-192zM382 -46q36 0 59.5 -24t23.5 -62q0 -59 -39 -93t-106 -34v49q62 2 75 41q-16 -2 -20 -2q-30 0 -48.5 16t-18.5 44q0 27 21.5 46t52.5 19z" />
    <glyph glyph-name="Gdotaccent.ss02" horiz-adv-x="757" 
d="M365 268v136h338v-404h-123l-6 61q-61 -78 -195 -78q-160 0 -254 104t-94 269q-2 162 98.5 267.5t265.5 103.5q93 0 164.5 -30t145.5 -102l-102 -106q-60 53 -107 74t-101 21q-92 0 -145.5 -59t-53.5 -168q0 -112 52.5 -172.5t143.5 -60.5q78 0 121.5 37.5t43.5 103.5v3
h-192zM387 757q-36 0 -60 23t-24 58t24 58t60 23t60 -23t24 -58t-24 -58t-60 -23z" />
    <glyph glyph-name="Idieresis.ss02" horiz-adv-x="310" 
d="M236 710v-710h-162v710h162zM51 765q-33 0 -56.5 22t-23.5 55t23.5 55t56.5 22t56.5 -22t23.5 -55t-23.5 -55t-56.5 -22zM260 765q-33 0 -56.5 22t-23.5 55t23.5 55t56.5 22t56.5 -22t23.5 -55t-23.5 -55t-56.5 -22z" />
    <glyph glyph-name="Idotaccent.ss02" horiz-adv-x="310" 
d="M236 710v-710h-162v710h162zM154 757q-36 0 -60 23t-24 58t24 58t60 23t60 -23t24 -58t-24 -58t-60 -23z" />
    <glyph glyph-name="K.ss01" horiz-adv-x="709" 
d="M531 0l-196 315l-106 -97v-218h-162v710h162v-300l336 318l103 -108l-217 -198l261 -422h-181z" />
    <glyph glyph-name="Kcommaaccent.ss01" horiz-adv-x="709" 
d="M531 0l-196 315l-106 -97v-218h-162v710h162v-300l336 318l103 -108l-217 -198l261 -422h-181zM451 -53v-115l-79 -92h-77l72 92h-68v115h152z" />
    <glyph glyph-name="Kcommaaccent.ss01.ss02" horiz-adv-x="709" 
d="M531 0l-196 315l-106 -97v-218h-162v710h162v-300l336 318l103 -108l-217 -198l261 -422h-181zM369 -46q36 0 59.5 -24t23.5 -62q0 -59 -39 -93t-106 -34v49q62 2 75 41q-16 -2 -20 -2q-30 0 -48.5 16t-18.5 44q0 27 21.5 46t52.5 19z" />
    <glyph glyph-name="Kcommaaccent.ss02" horiz-adv-x="709" 
d="M530 0l-200 323l-101 -107v-216h-162v710h162v-295l268 295h198l-255 -271l272 -439h-182zM360 -46q36 0 59.5 -24t23.5 -62q0 -59 -39 -93t-106 -34v49q62 2 75 41q-16 -2 -20 -2q-30 0 -48.5 16t-18.5 44q0 27 21.5 46t52.5 19z" />
    <glyph glyph-name="Lcommaaccent.ss02" horiz-adv-x="565" 
d="M229 710v-571h306v-139h-468v710h162zM295 -46q36 0 59.5 -24t23.5 -62q0 -59 -39 -93t-106 -34v49q62 2 75 41q-16 -2 -20 -2q-30 0 -48.5 16t-18.5 44q0 27 21.5 46t52.5 19z" />
    <glyph glyph-name="Ldot.ss02" horiz-adv-x="565" 
d="M229 710v-571h306v-139h-468v710h162zM410 288q-39 0 -66.5 27.5t-27.5 66.5q0 38 27.5 65.5t66.5 27.5q38 0 65.5 -27.5t27.5 -65.5q0 -39 -27.5 -66.5t-65.5 -27.5z" />
    <glyph glyph-name="Ncommaaccent.ss02" horiz-adv-x="747" 
d="M523 710h157v-710h-170l-167 272q-86 138 -125 214q6 -123 6 -275v-211h-157v710h174l181 -296q75 -122 105 -177q-4 84 -4 245v228zM374 -46q36 0 59.5 -24t23.5 -62q0 -59 -39 -93t-106 -34v49q62 2 75 41q-16 -2 -20 -2q-30 0 -48.5 16t-18.5 44q0 27 21.5 46t52.5 19
z" />
    <glyph glyph-name="Odieresis.ss02" horiz-adv-x="775" 
d="M388 728q159 2 258.5 -106t97.5 -267q2 -159 -97.5 -267t-258.5 -106q-159 -2 -259 106t-98 267q-2 159 98 267t259 106zM388 584q-87 0 -138.5 -62t-51.5 -167q0 -106 51.5 -167.5t138.5 -61.5t138 61.5t51 167.5t-51 167.5t-138 61.5zM285 765q-33 0 -56.5 22t-23.5 55
t23.5 55t56.5 22t56.5 -22t23.5 -55t-23.5 -55t-56.5 -22zM494 765q-33 0 -56.5 22t-23.5 55t23.5 55t56.5 22t56.5 -22t23.5 -55t-23.5 -55t-56.5 -22z" />
    <glyph glyph-name="Rcommaaccent.ss02" horiz-adv-x="704" 
d="M681 0h-177l-160 253h-115v-253h-162v710h353q103 0 169.5 -65t66.5 -164q0 -75 -40 -132.5t-108 -81.5zM228 387h162q49 0 77.5 25t28.5 69q0 45 -28.5 70t-77.5 25h-162v-189zM343 -46q36 0 59.5 -24t23.5 -62q0 -59 -39 -93t-106 -34v49q62 2 75 41q-16 -2 -20 -2
q-30 0 -48.5 16t-18.5 44q0 27 21.5 46t52.5 19z" />
    <glyph glyph-name="Scommaaccent.ss02" horiz-adv-x="652" 
d="M323 727q88 0 157 -26q67 -26 137 -87l-96 -113q-61 52 -101 68q-43 17 -100 17q-53 0 -85 -20.5t-32 -53.5q4 -32 26 -43t111 -32l28 -7q144 -36 199 -78t58 -133q0 -105 -78.5 -171t-211.5 -66q-98 0 -170 31q-73 30 -155 104l98 114q69 -61 117 -84q49 -23 113 -23
q57 0 92 21.5t35 59.5q-4 33 -26.5 45.5t-95.5 30.5q-24 5 -51 12q-143 37 -195.5 82.5t-52.5 128.5q0 92 78 157.5t201 65.5zM320 -46q36 0 59.5 -24t23.5 -62q0 -59 -39 -93t-106 -34v49q62 2 75 41q-16 -2 -20 -2q-30 0 -48.5 16t-18.5 44q0 27 21.5 46t52.5 19z" />
    <glyph glyph-name="uni021A.ss02" horiz-adv-x="614" 
d="M589 710v-139h-202v-571h-162v571h-200v139h564zM302 -46q36 0 59.5 -24t23.5 -62q0 -59 -39 -93t-106 -34v49q62 2 75 41q-16 -2 -20 -2q-30 0 -48.5 16t-18.5 44q0 27 21.5 46t52.5 19z" />
    <glyph glyph-name="Udieresis.ss02" horiz-adv-x="714" 
d="M650 710v-464q0 -264 -293 -264t-293 264v464h162v-459q0 -125 131 -125q65 0 98 32.5t33 92.5v459h162zM254 765q-33 0 -56.5 22t-23.5 55t23.5 55t56.5 22t56.5 -22t23.5 -55t-23.5 -55t-56.5 -22zM463 765q-33 0 -56.5 22t-23.5 55t23.5 55t56.5 22t56.5 -22t23.5 -55
t-23.5 -55t-56.5 -22z" />
    <glyph glyph-name="Wdieresis.ss02" horiz-adv-x="987" 
d="M807 710h158l-171 -710h-185l-62 250q-27 106 -52 225q-16 -79 -52 -224l-62 -251h-185l-174 710h166l66 -290q22 -94 44 -216q25 116 50 216l76 290h150l73 -290q25 -100 50 -223q22 126 43 223zM392 765q-33 0 -56.5 22t-23.5 55t23.5 55t56.5 22t56.5 -22t23.5 -55
t-23.5 -55t-56.5 -22zM601 765q-33 0 -56.5 22t-23.5 55t23.5 55t56.5 22t56.5 -22t23.5 -55t-23.5 -55t-56.5 -22z" />
    <glyph glyph-name="Ydieresis.ss02" horiz-adv-x="649" 
d="M473 710h171l-250 -414v-296h-162v297l-250 413h178l156 -270zM211 765q-33 0 -56.5 22t-23.5 55t23.5 55t56.5 22t56.5 -22t23.5 -55t-23.5 -55t-56.5 -22zM420 765q-33 0 -56.5 22t-23.5 55t23.5 55t56.5 22t56.5 -22t23.5 -55t-23.5 -55t-56.5 -22z" />
    <glyph glyph-name="Zdotaccent.ss02" horiz-adv-x="649" 
d="M604 710v-134l-363 -440h362v-136h-558v134l363 440h-351v136h547zM335 757q-36 0 -60 23t-24 58t24 58t60 23t60 -23t24 -58t-24 -58t-60 -23z" />
    <glyph glyph-name="adieresis.ss02" horiz-adv-x="563" 
d="M282 538q112 0 171.5 -51t59.5 -140v-347h-135v52q-51 -70 -165 -70q-84 0 -134.5 39t-50.5 112q0 79 56 122t168 61l119 20v6q0 35 -23 54t-64 19q-57 0 -106 -36q-33 -28 -53 -47l-95 86q106 120 252 120zM245 99q55 0 90.5 28.5t35.5 84.5v20l-86 -16
q-59 -11 -86 -27.5t-27 -43.5q0 -21 19 -33.5t54 -12.5zM178 575q-33 0 -56.5 22t-23.5 55t23.5 55t56.5 22t56.5 -22t23.5 -55t-23.5 -55t-56.5 -22zM387 575q-33 0 -56.5 22t-23.5 55t23.5 55t56.5 22t56.5 -22t23.5 -55t-23.5 -55t-56.5 -22z" />
    <glyph glyph-name="cdotaccent.ss02" horiz-adv-x="541" 
d="M523 441l-91 -94q-73 64 -130 64t-90.5 -41.5t-33.5 -108.5t33 -108.5t89 -41.5q35 0 64.5 17.5t70.5 60.5l100 -83q-53 -67 -109.5 -95t-128.5 -28q-121 0 -196 75.5t-75 202.5t76 202t198 75q65 0 118 -22.5t105 -74.5zM294 567q-36 0 -60 23t-24 58t24 58t60 23
t60 -23t24 -58t-24 -58t-60 -23z" />
    <glyph glyph-name="edieresis.ss02" horiz-adv-x="574" 
d="M309 110q41 0 73 14.5t76 51.5l82 -94q-103 -99 -235 -99q-128 0 -203.5 75t-75.5 200q0 123 72 201.5t194 78.5q119 0 183.5 -69t64.5 -194q0 -28 -2 -58h-367q24 -107 138 -107zM290 421q-91 0 -116 -99h223q-11 99 -107 99zM194 575q-33 0 -56.5 22t-23.5 55t23.5 55
t56.5 22t56.5 -22t23.5 -55t-23.5 -55t-56.5 -22zM403 575q-33 0 -56.5 22t-23.5 55t23.5 55t56.5 22t56.5 -22t23.5 -55t-23.5 -55t-56.5 -22z" />
    <glyph glyph-name="edotaccent.ss02" horiz-adv-x="574" 
d="M309 110q41 0 73 14.5t76 51.5l82 -94q-103 -99 -235 -99q-128 0 -203.5 75t-75.5 200q0 123 72 201.5t194 78.5q119 0 183.5 -69t64.5 -194q0 -28 -2 -58h-367q24 -107 138 -107zM290 421q-91 0 -116 -99h223q-11 99 -107 99zM297 567q-36 0 -60 23t-24 58t24 58t60 23
t60 -23t24 -58t-24 -58t-60 -23z" />
    <glyph glyph-name="gcommaaccent.ss02" horiz-adv-x="601" 
d="M411 520h138v-489q0 -109 -73 -168.5t-189 -59.5q-131 0 -252 75l72 109q103 -59 178 -59q117 0 117 117v30q-50 -59 -145 -59q-98 0 -163.5 73t-65.5 188t65.5 188t163.5 73q105 0 154 -69v51zM293 143q51 0 83 37t32 97t-32 96.5t-83 36.5t-82.5 -36.5t-31.5 -96.5
t32 -97t82 -37zM307 702q30 0 48.5 -16t18.5 -44q0 -27 -21.5 -46t-52.5 -19q-36 0 -59.5 24t-23.5 62q0 59 39 93t106 34v-49q-62 -2 -75 -41q16 2 20 2z" />
    <glyph glyph-name="gdotaccent.ss02" horiz-adv-x="601" 
d="M411 520h138v-489q0 -109 -73 -168.5t-189 -59.5q-131 0 -252 75l72 109q103 -59 178 -59q117 0 117 117v30q-50 -59 -145 -59q-98 0 -163.5 73t-65.5 188t65.5 188t163.5 73q105 0 154 -69v51zM293 143q51 0 83 37t32 97t-32 96.5t-83 36.5t-82.5 -36.5t-31.5 -96.5
t32 -97t82 -37zM301 567q-36 0 -60 23t-24 58t24 58t60 23t60 -23t24 -58t-24 -58t-60 -23z" />
    <glyph glyph-name="i.ss02" horiz-adv-x="254" 
d="M202 520v-520h-150v520h150zM127 567q-36 0 -60 23t-24 58t24 58t60 23t60 -23t24 -58t-24 -58t-60 -23z" />
    <glyph glyph-name="idieresis.ss02" horiz-adv-x="254" 
d="M202 520v-520h-150v520h150zM24 575q-33 0 -56.5 22t-23.5 55t23.5 55t56.5 22t56.5 -22t23.5 -55t-23.5 -55t-56.5 -22zM233 575q-33 0 -56.5 22t-23.5 55t23.5 55t56.5 22t56.5 -22t23.5 -55t-23.5 -55t-56.5 -22z" />
    <glyph glyph-name="i.loclTRK" horiz-adv-x="254" 
d="M202 520v-520h-150v520h150zM202 710v-125h-150v125h150z" />
    <glyph glyph-name="i.loclTRK.ss02" horiz-adv-x="254" 
d="M202 520v-520h-150v520h150zM127 567q-36 0 -60 23t-24 58t24 58t60 23t60 -23t24 -58t-24 -58t-60 -23z" />
    <glyph glyph-name="ij.ss02" horiz-adv-x="513" 
d="M127 567q-36 0 -60 23t-24 58t24 58t60 23t60 -23t24 -58t-24 -58t-60 -23zM386 567q-36 0 -60 23t-24 58t24 58t60 23t60 -23t24 -58t-24 -58t-60 -23zM202 520v-520h-150v520h150zM184 -176l25 112q29 -6 52 -6q27 0 38.5 12.5t11.5 42.5v535h150v-530
q0 -94 -41.5 -137.5t-126.5 -43.5q-60 0 -109 15z" />
    <glyph glyph-name="iogonek.ss02" horiz-adv-x="254" 
d="M127 566q-36 0 -60 23t-24 58t24 58t60 23t60 -23t24 -58t-24 -58t-60 -23zM52 0v520h150v-520q-87 -48 -87 -97q0 -36 52 -36q12 0 27 3v-82q-19 -10 -53 -10q-61 0 -93 27t-32 72q0 64 66 123h-30z" />
    <glyph glyph-name="j.calt" horiz-adv-x="257" 
d="M206 710v-125h-150v125h150zM-18 -69l30 -2q24 0 34 10t10 39v542h150v-555q0 -156 -158 -156q-44 0 -84 9z" />
    <glyph glyph-name="j.calt.ss02" horiz-adv-x="259" 
d="M132 567q-36 0 -60 23t-24 58t24 58t60 23t60 -23t24 -58t-24 -58t-60 -23zM-18 -69l30 -2q24 0 34 10t10 39v542h150v-555q0 -156 -158 -156q-44 0 -84 9z" />
    <glyph glyph-name="j.ss02" horiz-adv-x="259" 
d="M-70 -176l25 112q29 -6 52 -6q27 0 38.5 12.5t11.5 42.5v535h150v-530q0 -94 -41.5 -137.5t-126.5 -43.5q-59 0 -109 15zM132 567q-36 0 -60 23t-24 58t24 58t60 23t60 -23t24 -58t-24 -58t-60 -23z" />
    <glyph glyph-name="k.ss01" horiz-adv-x="568" 
d="M406 0l-121 199l-79 -71v-128h-154v710h154v-413l259 237l87 -95l-159 -143l179 -296h-166z" />
    <glyph glyph-name="kcommaaccent.ss01" horiz-adv-x="568" 
d="M406 0l-121 199l-79 -71v-128h-154v710h154v-413l259 237l87 -95l-159 -143l179 -296h-166zM378 -53v-115l-79 -92h-77l72 92h-68v115h152z" />
    <glyph glyph-name="kcommaaccent.ss01.ss02" horiz-adv-x="568" 
d="M406 0l-121 199l-79 -71v-128h-154v710h154v-413l259 237l87 -95l-159 -143l179 -296h-166zM296 -46q36 0 59.5 -24t23.5 -62q0 -59 -39 -93t-106 -34v49q62 2 75 41q-16 -2 -20 -2q-30 0 -48.5 16t-18.5 44q0 27 21.5 46t52.5 19z" />
    <glyph glyph-name="kcommaaccent.ss02" horiz-adv-x="567" 
d="M406 0l-139 230l-65 -66v-164h-150v710h150v-381l177 191h173l-181 -191l200 -329h-165zM296 -46q36 0 59.5 -24t23.5 -62q0 -59 -39 -93t-106 -34v49q62 2 75 41q-16 -2 -20 -2q-30 0 -48.5 16t-18.5 44q0 27 21.5 46t52.5 19z" />
    <glyph glyph-name="lcommaaccent.ss02" horiz-adv-x="258" 
d="M204 710v-710h-150v710h150zM122 -46q36 0 59.5 -24t23.5 -62q0 -59 -39 -93t-106 -34v49q62 2 75 41q-16 -2 -20 -2q-30 0 -48.5 16t-18.5 44q0 27 21.5 46t52.5 19z" />
    <glyph glyph-name="ldot.ss02" horiz-adv-x="528" 
d="M204 710v-710h-150v710h150zM387 241q-39 0 -66.5 27.5t-27.5 66.5q0 38 27.5 65.5t66.5 27.5q38 0 65.5 -27.5t27.5 -65.5q0 -39 -27.5 -66.5t-65.5 -27.5z" />
    <glyph glyph-name="ncommaaccent.ss02" horiz-adv-x="581" 
d="M345 538q87 0 136.5 -49t49.5 -133v-356h-150v314q0 45 -22.5 69.5t-64.5 24.5t-67 -26t-25 -71v-311h-150v520h139v-56q53 74 154 74zM281 -46q36 0 59.5 -24t23.5 -62q0 -59 -39 -93t-106 -34v49q62 2 75 41q-16 -2 -20 -2q-30 0 -48.5 16t-18.5 44q0 27 21.5 46
t52.5 19z" />
    <glyph glyph-name="odieresis.ss02" horiz-adv-x="601" 
d="M301 538q120 0 197 -77.5t77 -199.5q0 -123 -77 -200.5t-197 -77.5q-121 0 -198 77.5t-77 200.5q0 122 77 199.5t198 77.5zM301 411q-55 0 -89 -41t-34 -109q0 -69 34 -110t89 -41t88.5 41t33.5 110q0 68 -34 109t-88 41zM196 575q-33 0 -56.5 22t-23.5 55t23.5 55
t56.5 22t56.5 -22t23.5 -55t-23.5 -55t-56.5 -22zM405 575q-33 0 -56.5 22t-23.5 55t23.5 55t56.5 22t56.5 -22t23.5 -55t-23.5 -55t-56.5 -22z" />
    <glyph glyph-name="rcommaaccent.ss02" horiz-adv-x="411" 
d="M321 529q31 0 85 -18l-28 -132q-47 11 -68 11q-50 0 -79 -38.5t-29 -105.5v-246h-150v520h139v-74q42 83 130 83zM122 -46q36 0 59.5 -24t23.5 -62q0 -59 -39 -93t-106 -34v49q62 2 75 41q-16 -2 -20 -2q-30 0 -48.5 16t-18.5 44q0 27 21.5 46t52.5 19z" />
    <glyph glyph-name="scommaaccent.ss02" horiz-adv-x="523" 
d="M261 538q69 0 122.5 -19.5t107.5 -64.5l-79 -96q-75 59 -155 59q-35 0 -55.5 -11t-20.5 -30t22 -28t91 -23q114 -25 158.5 -60.5t44.5 -107.5q0 -77 -61.5 -125.5t-167.5 -48.5q-75 0 -136 23t-122 77l85 95q57 -45 93 -59q37 -15 85 -15q34 0 56 12t22 33
q0 20 -18.5 29.5t-71.5 19.5l-31 7q-110 25 -151 59.5t-41 99.5q0 74 61 124t162 50zM255 -46q36 0 59.5 -24t23.5 -62q0 -59 -39 -93t-106 -34v49q62 2 75 41q-16 -2 -20 -2q-30 0 -48.5 16t-18.5 44q0 27 21.5 46t52.5 19z" />
    <glyph glyph-name="uni021B.ss02" horiz-adv-x="398" 
d="M361 126l17 -120q-63 -19 -119 -19q-83 0 -119.5 36t-36.5 115v270h-91v112h91v152h150v-152h117v-112h-117v-243q0 -26 12 -36.5t37 -10.5q19 0 59 8zM230 -46q36 0 59.5 -24t23.5 -62q0 -59 -39 -93t-106 -34v49q62 2 75 41q-16 -2 -20 -2q-30 0 -48.5 16t-18.5 44
q0 27 21.5 46t52.5 19z" />
    <glyph glyph-name="udieresis.ss02" horiz-adv-x="573" 
d="M371 520h150v-520h-137v55q-47 -72 -151 -72q-92 0 -137.5 44t-45.5 126v367h150v-327q0 -79 77 -79q94 0 94 99v307zM177 575q-33 0 -56.5 22t-23.5 55t23.5 55t56.5 22t56.5 -22t23.5 -55t-23.5 -55t-56.5 -22zM386 575q-33 0 -56.5 22t-23.5 55t23.5 55t56.5 22
t56.5 -22t23.5 -55t-23.5 -55t-56.5 -22z" />
    <glyph glyph-name="wdieresis.ss02" horiz-adv-x="823" 
d="M654 521h157l-144 -521h-178l-35 130q-6 23 -38 163l-7 33q-15 -84 -41 -195l-33 -131h-179l-144 521h160l37 -161q20 -78 46 -221l11 52q16 82 37 169l41 161h137l41 -161q19 -78 42 -191l7 -32q23 131 46 223zM311 575q-33 0 -56.5 22t-23.5 55t23.5 55t56.5 22
t56.5 -22t23.5 -55t-23.5 -55t-56.5 -22zM520 575q-33 0 -56.5 22t-23.5 55t23.5 55t56.5 22t56.5 -22t23.5 -55t-23.5 -55t-56.5 -22z" />
    <glyph glyph-name="ydieresis.ss02" horiz-adv-x="538" 
d="M379 520h154l-198 -572q-26 -77 -71 -110.5t-120 -33.5q-63 0 -108 15l25 111q30 -6 63 -6q55 0 77 46l-196 550h158l40 -121q51 -151 70 -221q22 79 67 221zM167 575q-33 0 -56.5 22t-23.5 55t23.5 55t56.5 22t56.5 -22t23.5 -55t-23.5 -55t-56.5 -22zM376 575
q-33 0 -56.5 22t-23.5 55t23.5 55t56.5 22t56.5 -22t23.5 -55t-23.5 -55t-56.5 -22z" />
    <glyph glyph-name="zdotaccent.ss02" horiz-adv-x="507" 
d="M469 520v-114l-250 -284h250v-122h-437v113l252 286h-237v121h422zM256 567q-36 0 -60 23t-24 58t24 58t60 23t60 -23t24 -58t-24 -58t-60 -23z" />
    <glyph glyph-name="f_f_i.liga.ss02" horiz-adv-x="982" 
d="M855 566q-36 0 -60 23t-24 58t24 58t60 23t60 -23t24 -58t-24 -58t-60 -23zM305 599q-56 0 -56 -55v-24h90v-112h-90v-408h-150v408h-87v112h87v30q0 172 174 172q55 0 114 -18l-26 -111q-30 6 -56 6zM659 598q-30 0 -41 -12t-11 -43v-23h108v-112h-108v-408h-150v408
h-77v112h77v30q0 172 165 172q46 0 96 -12l-17 -116q-23 4 -42 4zM780 0v520h150v-520h-150z" />
    <glyph glyph-name="f_f_j.liga.ss02" horiz-adv-x="982" 
d="M855 566q-36 0 -60 23t-24 58t24 58t60 23t60 -23t24 -58t-24 -58t-60 -23zM305 599q-56 0 -56 -55v-24h90v-112h-90v-408h-150v408h-87v112h87v30q0 172 174 172q55 0 114 -18l-26 -111q-30 6 -56 6zM715 408h-108v-408h-150v408h-77v112h77v30q0 172 165 172
q46 0 96 -12l-17 -116q-23 4 -42 4q-30 0 -41 -12t-11 -43v-23h108v-112zM780 -15v535h150v-530q0 -94 -41.5 -137.5t-126.5 -43.5q-60 0 -109 15l25 112q28 -6 52 -6q27 0 38.5 12.5t11.5 42.5z" />
    <glyph glyph-name="f_j.liga.ss02" horiz-adv-x="623" 
d="M496 566q-36 0 -60 23t-24 58t24 58t60 23t60 -23t24 -58t-24 -58t-60 -23zM357 408h-108v-408h-150v408h-87v112h87v30q0 172 165 172q46 0 96 -12l-17 -116q-23 4 -42 4q-30 0 -41 -12t-11 -43v-23h108v-112zM421 -15v535h150v-530q0 -94 -41.5 -137.5t-126.5 -43.5
q-59 0 -109 15l25 112q29 -6 52 -6q27 0 38.5 12.5t11.5 42.5z" />
    <glyph glyph-name="fi.ss02" horiz-adv-x="624" 
d="M497 566q-36 0 -60 23t-24 58t24 58t60 23t60 -23t24 -58t-24 -58t-60 -23zM301 598q-30 0 -41 -12t-11 -43v-23h108v-112h-108v-408h-150v408h-87v112h87v30q0 172 165 172q46 0 96 -12l-17 -116q-23 4 -42 4zM422 0v520h150v-520h-150z" />
    <glyph glyph-name="zero.case" horiz-adv-x="600" 
d="M300 728q157 0 227 -139q47 -99 47 -234q0 -134 -47 -233q-71 -140 -227 -140t-227 140q-48 96 -48 233q0 138 48 234q70 139 227 139zM300 595q-61 0 -89 -67q-27 -63 -27 -173q0 -109 27 -172q29 -68 89 -68t90 68q27 63 27 172q0 110 -27 173q-30 67 -90 67z" />
    <glyph glyph-name="one.case" horiz-adv-x="469" 
d="M234 710h122v-710h-156v520l-115 -78l-76 106z" />
    <glyph glyph-name="two.case" horiz-adv-x="615" 
d="M340 244l-31 -19q-53 -30 -76.5 -50t-32.5 -46h369v-129h-532v62q0 129 99 210q44 34 107 72l51 31q74 44 98 67.5t27 68.5q0 38 -26 60.5t-69 22.5q-44 0 -81.5 -27.5t-88.5 -94.5l-116 81q63 95 131 134.5t150 39.5q120 0 187.5 -62t67.5 -152q0 -110 -83 -172
q-34 -27 -104 -69z" />
    <glyph glyph-name="three.case" horiz-adv-x="591" 
d="M528 583l-180 -152q91 -4 151 -61q58 -57 58 -149q0 -97 -73.5 -168t-196.5 -71q-74 0 -137 21.5t-138 72.5l74 109q63 -38 106.5 -54t89.5 -16q57 0 88 28t31 77q0 47 -34.5 74t-90.5 27q-46 0 -84 -13l-67 93l216 180h-291v129h478v-127z" />
    <glyph glyph-name="four.case" horiz-adv-x="596" 
d="M498 276h95v-124h-95v-152h-152v152h-326v146l259 412h172l-272 -434h167v138h152v-138z" />
    <glyph glyph-name="five.case" horiz-adv-x="587" 
d="M325 463q99 0 163 -65t64 -156q0 -117 -74.5 -188.5t-192.5 -71.5q-81 0 -139 23q-62 23 -139 76l76 109q64 -38 109 -58q39 -17 84 -17q55 0 87.5 31.5t32.5 86.5q0 49 -30.5 76t-83.5 27q-56 0 -96 -35l-138 12l31 397h437v-129h-306l-12 -154q50 36 127 36z" />
    <glyph glyph-name="six.case" horiz-adv-x="599" 
d="M341 472q100 0 167 -70t67 -169q0 -102 -73.5 -175.5t-195.5 -73.5q-126 0 -201 80.5t-75 215.5q0 102 50.5 196.5t152.5 194.5l39 39h205v-2l-126 -118q-94 -85 -135 -155q46 37 125 37zM307 117q51 0 83 32t32 82q0 51 -33 82.5t-84 31.5t-85.5 -32t-34.5 -82t35 -82
t87 -32z" />
    <glyph glyph-name="seven.case" horiz-adv-x="559" 
d="M20 710h525v-118q-91 -112 -163 -272q-71 -159 -95 -320h-175q19 146 90 301q68 150 164 280h-346v129z" />
    <glyph glyph-name="eight.case" horiz-adv-x="595" 
d="M457 383q119 -55 119 -183q0 -96 -75.5 -157.5t-203.5 -61.5t-203.5 61.5t-75.5 157.5q0 128 119 183q-87 50 -87 153q0 85 68 138.5t179 53.5q112 0 180 -53.5t68 -138.5q0 -101 -88 -153zM297 610q-45 0 -72.5 -23.5t-27.5 -59.5q0 -39 27.5 -63.5t72.5 -24.5
t72.5 24.5t27.5 63.5q0 36 -27.5 59.5t-72.5 23.5zM297 109q58 0 90.5 29t32.5 76t-32.5 77.5t-90.5 30.5q-57 0 -89.5 -30.5t-32.5 -77.5t32 -76t90 -29z" />
    <glyph glyph-name="nine.case" horiz-adv-x="597" 
d="M292 726q125 0 200 -80t75 -215q0 -100 -51 -194t-152 -197l-39 -40h-204v2l125 118q97 91 136 156q-46 -37 -126 -37q-99 0 -166.5 69.5t-67.5 168.5q0 102 74 175.5t196 73.5zM292 365q51 0 85.5 32t34.5 82t-34.5 82t-86.5 32q-51 0 -83.5 -31.5t-32.5 -82.5
q0 -50 33 -82t84 -32z" />
    <glyph glyph-name="zero.tf" 
d="M295 698q153 0 223 -133q46 -93 46 -225t-46 -225q-70 -133 -223 -133t-223 133q-47 92 -47 225t47 225q70 133 223 133zM295 563q-56 0 -85 -60q-26 -57 -26 -163t26 -163q29 -60 85 -60q57 0 86 60q26 54 26 163t-26 163q-29 60 -86 60z" />
    <glyph glyph-name="one.tf" 
d="M403 118h153v-118h-468v118h159v372l-108 -74l-76 107l218 157h122v-562z" />
    <glyph glyph-name="two.tf" 
d="M364 256l-40 -24q-8 -6 -33 -19q-50 -29 -71 -45.5t-30 -38.5h359v-129h-523v62q0 125 97 200q35 28 105 70l45 27q71 41 95.5 64.5t28.5 65.5q0 34 -24.5 55t-64.5 21q-42 0 -81.5 -27t-86.5 -86l-114 81q112 165 284 165q116 0 179 -58.5t63 -145.5q0 -108 -84 -171
q-38 -29 -104 -67z" />
    <glyph glyph-name="three.tf" 
d="M513 553l-170 -140q89 -6 144 -60q55 -55 55 -142q0 -94 -71 -161.5t-192 -67.5q-143 0 -267 90l74 109q61 -36 102.5 -51t86.5 -15q53 0 82 25.5t29 70.5q0 43 -32.5 68t-83.5 25q-48 0 -83 -13l-67 93l205 167h-277v129h465v-127z" />
    <glyph glyph-name="four.tf" 
d="M492 268h91v-124h-91v-144h-152v144h-315v146l249 390h172l-263 -412h157v129h152v-129z" />
    <glyph glyph-name="five.tf" 
d="M328 443q96 0 157.5 -62.5t61.5 -148.5q0 -112 -73.5 -181t-185.5 -69q-79 0 -138 23q-59 22 -134 72l76 109q62 -38 103 -55q38 -16 83 -16q49 0 82 28t33 74t-29.5 73t-77.5 27q-53 0 -93 -32l-137 12l30 383h426v-129h-294l-12 -140q52 32 122 32z" />
    <glyph glyph-name="six.tf" 
d="M338 451q98 0 162.5 -66.5t64.5 -161.5q0 -97 -72 -168t-190 -71q-121 0 -194.5 77.5t-73.5 207.5q0 188 196 375l37 36h201v-2l-117 -109q-87 -81 -129 -148q45 30 115 30zM302 117q48 0 79 29t31 75t-31.5 75t-79.5 29t-80.5 -29.5t-32.5 -74.5t32.5 -74.5t81.5 -29.5z
" />
    <glyph glyph-name="seven.tf" 
d="M40 680h512v-118q-92 -110 -159 -259q-68 -148 -88 -303h-174q16 139 84 283q66 144 160 268h-335v129z" />
    <glyph glyph-name="eight.tf" 
d="M454 368q111 -56 111 -175q0 -92 -73.5 -151.5t-199.5 -59.5t-199.5 59.5t-73.5 151.5q0 121 112 175q-82 49 -82 146q0 82 67 133.5t176 51.5t176.5 -51.5t67.5 -133.5q0 -94 -82 -146zM292 581q-42 0 -67.5 -22t-25.5 -55q0 -36 25.5 -58t67.5 -22t68 22t26 58
q0 33 -26 55t-68 22zM292 109q53 0 84.5 27t31.5 70t-31.5 71.5t-84.5 28.5t-84 -28.5t-31 -71.5t31 -70t84 -27z" />
    <glyph glyph-name="nine.tf" 
d="M287 696q121 0 194.5 -77.5t73.5 -207.5q0 -187 -196 -375l-37 -36h-201v2l117 109q87 81 129 148q-45 -30 -115 -30q-98 0 -162.5 66.5t-64.5 161.5q0 97 72 168t190 71zM178 459q0 -46 31.5 -75t79.5 -29t80.5 29.5t32.5 74.5t-32.5 74.5t-81.5 29.5q-48 0 -79 -29
t-31 -75z" />
    <glyph glyph-name="zero.zero" 
d="M518 564q46 -93 46 -224t-46 -224q-72 -134 -223 -134q-152 0 -223 134q-47 92 -47 224t47 224q71 134 223 134q151 0 223 -134zM210 503q-26 -61 -26 -163q0 -33 5 -78l168 277q-23 26 -62 26q-58 0 -85 -62zM381 177q26 61 26 163q0 37 -5 84l-171 -281q25 -28 64 -28
q57 0 86 62z" />
    <glyph glyph-name="zero.dnom" horiz-adv-x="399" 
d="M201 419q83 0 128.5 -58.5t45.5 -156.5t-45.5 -156.5t-128.5 -58.5q-84 0 -130.5 58.5t-46.5 156.5t46.5 156.5t130.5 58.5zM201 328q-70 0 -70 -124t70 -124q67 0 67 124t-67 124z" />
    <glyph glyph-name="one.dnom" horiz-adv-x="320" 
d="M152 408h82v-408h-105v285l-59 -40l-51 70z" />
    <glyph glyph-name="two.dnom" horiz-adv-x="398" 
d="M221 140l-23 -12q-50 -26 -59 -40h228v-88h-340v43q0 59 33 96t102 70l29 15q42 20 58 33.5t16 32.5q0 16 -16 27t-43 11q-55 0 -120 -48l-53 70q80 69 174 69q74 0 118.5 -37t44.5 -89q0 -67 -54 -102q-24 -15 -73 -40z" />
    <glyph glyph-name="three.dnom" horiz-adv-x="395" 
d="M344 321l-104 -75q57 -6 91.5 -39t34.5 -82q0 -58 -46 -97t-124 -39q-99 0 -179 55l50 73q73 -37 128 -37q64 0 64 45q0 49 -82 49q-29 0 -46 -6l-44 61l125 91h-172v88h304v-87z" />
    <glyph glyph-name="four.dnom" horiz-adv-x="396" 
d="M321 167h53v-82h-53v-85h-96v85h-199v98l151 225h113l-161 -241h96v74h96v-74z" />
    <glyph glyph-name="five.dnom" horiz-adv-x="396" 
d="M233 269q62 0 101 -38.5t39 -90.5q0 -71 -46.5 -111.5t-122.5 -40.5q-88 0 -185 56l50 76q76 -40 127 -40q69 0 69 53q0 23 -18 36.5t-50 13.5q-37 0 -66 -23l-84 9l18 239h286v-88h-198l-6 -73q35 22 86 22z" />
    <glyph glyph-name="six.dnom" horiz-adv-x="396" 
d="M229 275q61 0 102.5 -40.5t41.5 -97.5q0 -59 -47 -103.5t-125 -44.5q-82 0 -129.5 46t-47.5 126q0 131 135 247h138v-1q-70 -55 -104.5 -90.5t-48.5 -72.5q32 31 85 31zM201 80q32 0 51.5 15t19.5 39t-19 39.5t-51 15.5t-51.5 -15.5t-19.5 -39.5q0 -25 19 -39.5t51 -14.5
z" />
    <glyph glyph-name="seven.dnom" horiz-adv-x="372" 
d="M26 408h335v-77q-140 -158 -157 -331h-115q4 85 49 173q44 85 99 147h-211v88z" />
    <glyph glyph-name="eight.dnom" horiz-adv-x="399" 
d="M303 217q70 -31 70 -104q0 -55 -47 -90t-127 -35t-127.5 35t-47.5 90q0 73 70 104q-53 32 -53 88q0 49 44 82t114 33t113.5 -32.5t43.5 -82.5q0 -56 -53 -88zM199 337q-26 0 -43 -12t-17 -30t17 -31t43 -13t42 13t16 31t-16.5 30t-41.5 12zM199 73q33 0 51.5 14.5
t18.5 36.5q0 23 -19 38t-51 15t-51 -15t-19 -38q0 -22 18.5 -36.5t51.5 -14.5z" />
    <glyph glyph-name="nine.dnom" horiz-adv-x="396" 
d="M193 419q83 0 130 -46t47 -126q0 -131 -135 -247h-136v1q67 55 100 89.5t47 69.5q-30 -27 -80 -27q-63 0 -104 40.5t-41 97.5q0 59 47.5 103.5t124.5 44.5zM124 274q0 -24 19 -39.5t51 -15.5q31 0 51 15.5t20 39.5q0 25 -19.5 39.5t-51.5 14.5q-31 0 -50.5 -15t-19.5 -39
z" />
    <glyph glyph-name="zero.numr" horiz-adv-x="399" 
d="M201 691q83 0 128.5 -58.5t45.5 -156.5t-45.5 -156.5t-128.5 -58.5q-84 0 -130.5 58.5t-46.5 156.5t46.5 156.5t130.5 58.5zM201 600q-70 0 -70 -124t70 -124q67 0 67 124t-67 124z" />
    <glyph glyph-name="one.numr" horiz-adv-x="320" 
d="M152 680h82v-408h-105v285l-59 -40l-51 70z" />
    <glyph glyph-name="two.numr" horiz-adv-x="398" 
d="M221 412l-23 -12q-50 -26 -59 -40h228v-88h-340v43q0 59 33 96t102 70l29 15q42 20 58 33.5t16 32.5q0 16 -16 27t-43 11q-55 0 -120 -48l-53 70q80 69 174 69q74 0 118.5 -37t44.5 -89q0 -67 -54 -102q-24 -15 -73 -40z" />
    <glyph glyph-name="three.numr" horiz-adv-x="395" 
d="M344 593l-104 -75q57 -6 91.5 -39t34.5 -82q0 -58 -46 -97t-124 -39q-99 0 -179 55l50 73q73 -37 128 -37q64 0 64 45q0 49 -82 49q-29 0 -46 -6l-44 61l125 91h-172v88h304v-87z" />
    <glyph glyph-name="four.numr" horiz-adv-x="396" 
d="M321 439h53v-82h-53v-85h-96v85h-199v98l151 225h113l-161 -241h96v74h96v-74z" />
    <glyph glyph-name="five.numr" horiz-adv-x="396" 
d="M233 541q62 0 101 -38.5t39 -90.5q0 -71 -46.5 -111.5t-122.5 -40.5q-88 0 -185 56l50 76q76 -40 127 -40q69 0 69 53q0 23 -18 36.5t-50 13.5q-37 0 -66 -23l-84 9l18 239h286v-88h-198l-6 -73q35 22 86 22z" />
    <glyph glyph-name="six.numr" horiz-adv-x="396" 
d="M229 547q61 0 102.5 -40.5t41.5 -97.5q0 -59 -47 -103.5t-125 -44.5q-82 0 -129.5 46t-47.5 126q0 131 135 247h138v-1q-70 -55 -104.5 -90.5t-48.5 -72.5q32 31 85 31zM201 352q32 0 51.5 15t19.5 39t-19 39.5t-51 15.5t-51.5 -15.5t-19.5 -39.5q0 -25 19 -39.5
t51 -14.5z" />
    <glyph glyph-name="seven.numr" horiz-adv-x="372" 
d="M26 680h335v-77q-140 -158 -157 -331h-115q4 85 49 173q44 85 99 147h-211v88z" />
    <glyph glyph-name="eight.numr" horiz-adv-x="399" 
d="M303 489q70 -31 70 -104q0 -55 -47 -90t-127 -35t-127.5 35t-47.5 90q0 73 70 104q-53 32 -53 88q0 49 44 82t114 33t113.5 -32.5t43.5 -82.5q0 -56 -53 -88zM199 609q-26 0 -43 -12t-17 -30t17 -31t43 -13t42 13t16 31t-16.5 30t-41.5 12zM199 345q33 0 51.5 14.5
t18.5 36.5q0 23 -19 38t-51 15t-51 -15t-19 -38q0 -22 18.5 -36.5t51.5 -14.5z" />
    <glyph glyph-name="nine.numr" horiz-adv-x="396" 
d="M193 691q83 0 130 -46t47 -126q0 -131 -135 -247h-136v1q67 55 100 89.5t47 69.5q-30 -27 -80 -27q-63 0 -104 40.5t-41 97.5q0 59 47.5 103.5t124.5 44.5zM124 546q0 -24 19 -39.5t51 -15.5q31 0 51 15.5t20 39.5q0 25 -19.5 39.5t-51.5 14.5q-31 0 -50.5 -15t-19.5 -39
z" />
    <glyph glyph-name="exclamdown.case" horiz-adv-x="307" 
d="M78 548v162h160v-162h-160zM240 0h-164v216l36 258h92l36 -258v-216z" />
    <glyph glyph-name="questiondown.case" horiz-adv-x="511" 
d="M193 548v162h160v-162h-160zM239 -18q-111 0 -174 52t-63 142q0 54 27 93q25 37 96 99l30 26q22 19 35 37q11 17 15 34l3 14h135v-14q0 -45 -5 -66.5t-25 -47.5q-23 -29 -72 -69l-20 -17q-32 -26 -44.5 -42.5t-12.5 -38.5q0 -28 22 -45t59 -17q35 0 69 16.5t92 58.5
l88 -106q-122 -109 -255 -109z" />
    <glyph glyph-name="periodcentered.ss02" horiz-adv-x="281" 
d="M141 249q-39 0 -66.5 27.5t-27.5 66.5q0 38 27.5 65.5t66.5 27.5q38 0 65.5 -27.5t27.5 -65.5q0 -39 -27.5 -66.5t-65.5 -27.5z" />
    <glyph glyph-name="exclamdown.case.ss02" horiz-adv-x="307" 
d="M159 720q38 0 65.5 -27.5t27.5 -66.5q0 -38 -27.5 -65.5t-65.5 -27.5q-39 0 -66.5 27.5t-27.5 65.5q0 39 27.5 66.5t66.5 27.5zM240 0h-164v216l36 258h92l36 -258v-216z" />
    <glyph glyph-name="questiondown.case.ss02" horiz-adv-x="511" 
d="M278 728q38 0 65.5 -27.5t27.5 -66.5q0 -38 -27.5 -65.5t-65.5 -27.5q-39 0 -66.5 27.5t-27.5 65.5q0 39 27.5 66.5t66.5 27.5zM239 -10q-111 0 -174 52t-63 142q0 54 27 93q25 37 96 99l30 26q22 19 35 37q11 17 15 34l3 14h135v-14q0 -45 -5 -66.5t-25 -47.5
q-23 -29 -72 -69l-20 -17q-32 -26 -44.5 -42.5t-12.5 -38.5q0 -28 22 -45t59 -17q35 0 69 16.5t92 58.5l88 -106q-122 -109 -255 -109z" />
    <glyph glyph-name="colon.ss02" horiz-adv-x="301" 
d="M151 342q-39 0 -66.5 27.5t-27.5 66.5q0 38 27.5 65.5t66.5 27.5q38 0 65.5 -27.5t27.5 -65.5q0 -39 -27.5 -66.5t-65.5 -27.5zM151 -10q-39 0 -66.5 27.5t-27.5 66.5q0 38 27.5 65.5t66.5 27.5q38 0 65.5 -27.5t27.5 -65.5q0 -39 -27.5 -66.5t-65.5 -27.5z" />
    <glyph glyph-name="comma.ss02" horiz-adv-x="261" 
d="M132 175q46 0 75 -34t29 -93q0 -84 -49.5 -145.5t-137.5 -64.5v66q34 2 61.5 26t38.5 64q-16 -2 -18 -2q-41 0 -67.5 25.5t-26.5 65.5q0 38 28 65t67 27z" />
    <glyph glyph-name="ellipsis.ss02" horiz-adv-x="783" 
d="M140 -10q-38 0 -65.5 27.5t-27.5 66.5q0 38 27.5 65.5t65.5 27.5q39 0 66.5 -27.5t27.5 -65.5q0 -39 -27.5 -66.5t-66.5 -27.5zM391 -10q-38 0 -65.5 27.5t-27.5 66.5q0 38 27.5 65.5t65.5 27.5q39 0 66.5 -27.5t27.5 -65.5q0 -39 -27.5 -66.5t-66.5 -27.5zM642 -10
q-38 0 -65.5 27.5t-27.5 66.5q0 38 27.5 65.5t65.5 27.5q39 0 66.5 -27.5t27.5 -65.5q0 -39 -27.5 -66.5t-66.5 -27.5z" />
    <glyph glyph-name="exclam.ss02" horiz-adv-x="309" 
d="M77 710h164v-216l-36 -258h-92l-36 258v216zM158 -10q-38 0 -65.5 27.5t-27.5 66.5q0 38 27.5 65.5t65.5 27.5q39 0 66.5 -27.5t27.5 -65.5q0 -39 -27.5 -66.5t-66.5 -27.5z" />
    <glyph glyph-name="exclamdown.ss02" horiz-adv-x="267" 
d="M162 531q38 0 65.5 -27.5t27.5 -66.5q0 -38 -27.5 -65.5t-65.5 -27.5q-39 0 -66.5 27.5t-27.5 65.5q0 39 27.5 66.5t66.5 27.5zM243 -189h-164v216l36 258h92l36 -258v-216z" />
    <glyph glyph-name="period.ss02" horiz-adv-x="261" 
d="M131 -10q-39 0 -66.5 27.5t-27.5 66.5q0 38 27.5 65.5t66.5 27.5q38 0 65.5 -27.5t27.5 -65.5q0 -39 -27.5 -66.5t-65.5 -27.5z" />
    <glyph glyph-name="question.ss02" horiz-adv-x="516" 
d="M272 728q111 0 174 -52t63 -142q0 -54 -26 -92q-27 -39 -97 -100q-2 -2 -6 -5.5t-11 -9.5t-13 -11q-25 -21 -34 -36q-11 -15 -16 -35l-3 -14h-135v14q0 45 5 66.5t26 47.5q20 27 71 69l20 17q32 26 44.5 42.5t12.5 38.5q0 28 -22 45t-59 17q-35 0 -69 -16.5t-92 -58.5
l-88 106q122 109 255 109zM233 -10q-38 0 -65.5 27.5t-27.5 66.5q0 38 27.5 65.5t65.5 27.5q39 0 66.5 -27.5t27.5 -65.5q0 -39 -27.5 -66.5t-66.5 -27.5z" />
    <glyph glyph-name="questiondown.ss02" horiz-adv-x="499" 
d="M273 532q38 0 65.5 -27.5t27.5 -66.5q0 -38 -27.5 -65.5t-65.5 -27.5q-39 0 -66.5 27.5t-27.5 65.5q0 39 27.5 66.5t66.5 27.5zM234 -206q-111 0 -174 52t-63 142q0 54 27 93q26 37 96 99q2 2 6 5.5t11 9.5t13 11q22 19 35 37q11 17 15 34l3 14h135v-14q0 -45 -5 -66.5
t-25 -47.5q-22 -29 -72 -69l-20 -17q-32 -26 -44.5 -42.5t-12.5 -38.5q0 -28 22 -45t59 -17q35 0 69 16.5t92 58.5l88 -106q-122 -109 -255 -109z" />
    <glyph glyph-name="semicolon.ss02" horiz-adv-x="301" 
d="M151 342q-39 0 -66.5 27.5t-27.5 66.5q0 38 27.5 65.5t66.5 27.5q38 0 65.5 -27.5t27.5 -65.5q0 -39 -27.5 -66.5t-65.5 -27.5zM152 175q46 0 75 -34t29 -93q0 -84 -49.5 -145.5t-137.5 -64.5v66q34 2 61.5 26t38.5 64q-16 -2 -18 -2q-41 0 -67.5 25.5t-26.5 65.5
q0 38 28 65t67 27z" />
    <glyph glyph-name="emdash.case" horiz-adv-x="955" 
d="M909 432v-128h-864v128h864z" />
    <glyph glyph-name="endash.case" horiz-adv-x="722" 
d="M676 432v-128h-631v128h631z" />
    <glyph glyph-name="hyphen.case" horiz-adv-x="410" 
d="M364 435v-135h-319v135h319z" />
    <glyph glyph-name="guillemotleft.case" horiz-adv-x="630" 
d="M335 561l-148 -228l148 -228h-138l-145 228l145 228h138zM573 561l-148 -228l148 -228h-138l-145 228l145 228h138z" />
    <glyph glyph-name="guillemotright.case" horiz-adv-x="630" 
d="M57 561h139l144 -228l-144 -228h-139l142 228zM295 561h139l144 -228l-144 -228h-139l142 228z" />
    <glyph glyph-name="guilsinglleft.case" horiz-adv-x="392" 
d="M335 561l-148 -228l148 -228h-138l-145 228l145 228h138z" />
    <glyph glyph-name="guilsinglright.case" horiz-adv-x="392" 
d="M57 561h139l144 -228l-144 -228h-139l142 228z" />
    <glyph glyph-name="quotedblbase.ss02" horiz-adv-x="498" 
d="M125 166q44 0 71.5 -32t27.5 -88q0 -80 -47.5 -138.5t-129.5 -61.5v63q32 2 58.5 25t35.5 60q-16 -2 -17 -2q-38 0 -63.5 24.5t-25.5 62.5q0 36 26.5 61.5t63.5 25.5zM362 166q44 0 71.5 -32t27.5 -88q0 -80 -47.5 -138.5t-129.5 -61.5v63q32 2 58.5 25t35.5 60
q-16 -2 -17 -2q-38 0 -63.5 24.5t-25.5 62.5q0 36 26.5 61.5t63.5 25.5z" />
    <glyph glyph-name="quotedblleft.ss02" horiz-adv-x="498" 
d="M137 571q38 0 63.5 -24.5t25.5 -62.5q0 -36 -26.5 -61.5t-63.5 -25.5q-44 0 -71.5 32t-27.5 88q0 80 47.5 138.5t129.5 61.5v-63q-32 -2 -58.5 -25t-35.5 -60q16 2 17 2zM374 571q38 0 63.5 -24.5t25.5 -62.5q0 -36 -26.5 -61.5t-63.5 -25.5q-44 0 -71.5 32t-27.5 88
q0 80 47.5 138.5t129.5 61.5v-63q-32 -2 -58.5 -25t-35.5 -60q16 2 17 2z" />
    <glyph glyph-name="quotedblright.ss02" horiz-adv-x="498" 
d="M125 718q44 0 71.5 -32t27.5 -88q0 -80 -47.5 -138.5t-129.5 -61.5v63q32 2 58.5 25t35.5 60q-16 -2 -17 -2q-38 0 -63.5 24.5t-25.5 62.5q0 36 26.5 61.5t63.5 25.5zM362 718q44 0 71.5 -32t27.5 -88q0 -80 -47.5 -138.5t-129.5 -61.5v63q32 2 58.5 25t35.5 60
q-16 -2 -17 -2q-38 0 -63.5 24.5t-25.5 62.5q0 36 26.5 61.5t63.5 25.5z" />
    <glyph glyph-name="quoteleft.ss02" horiz-adv-x="261" 
d="M137 571q38 0 63.5 -24.5t25.5 -62.5q0 -36 -26.5 -61.5t-63.5 -25.5q-44 0 -71.5 32t-27.5 88q0 80 47.5 138.5t129.5 61.5v-63q-32 -2 -58.5 -25t-35.5 -60q16 2 17 2z" />
    <glyph glyph-name="quoteright.ss02" horiz-adv-x="261" 
d="M125 718q44 0 71.5 -32t27.5 -88q0 -80 -47.5 -138.5t-129.5 -61.5v63q32 2 58.5 25t35.5 60q-16 -2 -17 -2q-38 0 -63.5 24.5t-25.5 62.5q0 36 26.5 61.5t63.5 25.5z" />
    <glyph glyph-name="quotesinglbase.ss02" horiz-adv-x="261" 
d="M125 166q44 0 71.5 -32t27.5 -88q0 -80 -47.5 -138.5t-129.5 -61.5v63q32 2 58.5 25t35.5 60q-16 -2 -17 -2q-38 0 -63.5 24.5t-25.5 62.5q0 36 26.5 61.5t63.5 25.5z" />
    <glyph glyph-name="divide.ss02" horiz-adv-x="600" 
d="M301 421q-39 0 -66.5 27.5t-27.5 66.5q0 38 27.5 65.5t66.5 27.5q38 0 65.5 -27.5t27.5 -65.5q0 -39 -27.5 -66.5t-65.5 -27.5zM560 375v-130h-520v130h520zM301 11q-39 0 -66.5 27.5t-27.5 66.5q0 38 27.5 65.5t66.5 27.5q38 0 65.5 -27.5t27.5 -65.5q0 -39 -27.5 -66.5
t-65.5 -27.5z" />
    <glyph glyph-name="registered.ss03" horiz-adv-x="856" 
d="M428 723q153 3 261.5 -105.5t106.5 -262.5q2 -154 -106.5 -262.5t-261.5 -105.5q-153 -3 -261.5 105.5t-106.5 262.5q-2 154 106.5 262.5t261.5 105.5zM428 655q-125 2 -210 -85.5t-83 -214.5q-2 -127 83 -214.5t210 -85.5q126 0 209 85.5t83 214.5t-83 214.5t-209 85.5z
M283 569h170q59 0 96 -37t37 -94q0 -40 -21 -72t-58 -47l101 -165h-89l-92 156h-66v-156h-78v415zM439 497h-77v-121h77q71 0 71 62q0 59 -71 59z" />
    <glyph glyph-name="uni0326.alt" horiz-adv-x="0" 
d="M-256 585v117l79 101h77l-73 -101h69v-117h-152z" />
    <glyph glyph-name="uni0326.alt.ss02" horiz-adv-x="0" 
d="M-174 702q30 0 48.5 -16t18.5 -44q0 -27 -21.5 -46t-52.5 -19q-36 0 -59.5 24t-23.5 62q0 59 39 93t106 34v-49q-62 -2 -75 -41q16 2 20 2z" />
    <glyph glyph-name="uni0326.ss02" horiz-adv-x="0" 
d="M-182 -46q36 0 59.5 -24t23.5 -62q0 -59 -39 -93t-106 -34v49q62 2 75 41q-16 -2 -20 -2q-30 0 -48.5 16t-18.5 44q0 27 21.5 46t52.5 19z" />
    <glyph glyph-name="caron.alt" horiz-adv-x="337" 
d="M267 710l-74 -215h-94l29 215h139z" />
    <glyph glyph-name="dieresis.ss02" horiz-adv-x="529" 
d="M161 575q-33 0 -56.5 22t-23.5 55t23.5 55t56.5 22t56.5 -22t23.5 -55t-23.5 -55t-56.5 -22zM370 575q-33 0 -56.5 22t-23.5 55t23.5 55t56.5 22t56.5 -22t23.5 -55t-23.5 -55t-56.5 -22z" />
    <glyph glyph-name="dotaccent.ss02" horiz-adv-x="330" 
d="M165 567q-36 0 -60 23t-24 58t24 58t60 23t60 -23t24 -58t-24 -58t-60 -23z" />
    </font>
</defs>
</svg>
