<?xml version="1.0" standalone="no"?>
<!DOCTYPE svg PUBLIC "-//W3C//DTD SVG 1.1//EN" "http://www.w3.org/Graphics/SVG/1.1/DTD/svg11.dtd" >
<svg xmlns="http://www.w3.org/2000/svg" xmlns:xlink="http://www.w3.org/1999/xlink" version="1.1">
<metadata>
Created by FontForge 20170731 at Sun Apr 17 02:54:58 2016
 By Aleksey,,,
Copyright (c) 2015 by Letters from Sweden &#38; Stockholm Design Lab. All rights reserved.
</metadata>
<defs>
<font id="LabGrotesque-Bold" horiz-adv-x="590" >
  <font-face 
    font-family="Lab Grotesque"
    font-weight="700"
    font-stretch="normal"
    units-per-em="1000"
    panose-1="0 0 8 0 0 0 0 0 0 0"
    ascent="750"
    descent="-250"
    x-height="511"
    cap-height="710"
    bbox="-243 -260 1742 944"
    underline-thickness="90"
    underline-position="-325"
    unicode-range="U+0020-FB02"
  />
<missing-glyph horiz-adv-x="579" 
d="M479 810v-910h-379v910h379z" />
    <glyph glyph-name="fi" unicode="fi" horiz-adv-x="605" 
d="M294 614q-34 0 -46.5 -14.5t-12.5 -51.5v-37h112v-99h-112v-412h-130v412h-88v99h88v45q0 166 159 166q42 0 91 -12l-16 -101q-28 5 -45 5zM418 710h130v-122h-130v122zM418 0v511h130v-511h-130z" />
    <glyph glyph-name="fl" unicode="fl" horiz-adv-x="607" 
d="M294 614q-34 0 -46.5 -14.5t-12.5 -51.5v-37h112v-99h-112v-412h-130v412h-88v99h88v45q0 166 159 166q42 0 91 -12l-16 -101q-28 5 -45 5zM418 710h130v-710h-130v710z" />
    <glyph glyph-name="f_f.liga" unicode="ff" horiz-adv-x="712" 
d="M297 621q-33 0 -47.5 -15t-14.5 -51v-44h94v-99h-94v-412h-130v412h-88v99h88v51q0 166 166 166q55 0 109 -18l-23 -97q-38 8 -60 8zM643 621q-33 0 -47.5 -15t-14.5 -51v-44h114v-99h-114v-412h-130v412h-79v99h79v51q0 166 166 166q55 0 109 -18l-23 -97q-38 8 -60 8z
" />
    <glyph glyph-name="f_f_i.liga" unicode="ffi" horiz-adv-x="951" 
d="M297 615q-33 0 -47.5 -15t-14.5 -51v-38h94v-99h-94v-412h-130v412h-88v99h88v45q0 166 166 166q55 0 109 -18l-23 -97q-38 8 -60 8zM640 614q-34 0 -46.5 -14.5t-12.5 -51.5v-37h112v-99h-112v-412h-130v412h-79v99h79v45q0 166 159 166q42 0 91 -12l-16 -101
q-28 5 -45 5zM764 710h130v-122h-130v122zM764 0v511h130v-511h-130z" />
    <glyph glyph-name="f_f_j.liga" unicode="ffj" horiz-adv-x="951" 
d="M297 615q-33 0 -47.5 -15t-14.5 -51v-38h94v-99h-94v-412h-130v412h-88v99h88v45q0 166 166 166q55 0 109 -18l-23 -97q-38 8 -60 8zM693 412h-112v-412h-130v412h-79v99h79v45q0 166 159 166q42 0 91 -12l-16 -101q-28 5 -45 5q-34 0 -46.5 -14.5t-12.5 -51.5v-37h112
v-99zM764 710h130v-122h-130v122zM764 -22v533h130v-530q0 -172 -159 -172q-57 0 -105 15l23 97q32 -7 57 -7q29 0 41.5 15t12.5 49z" />
    <glyph glyph-name="f_j.liga" unicode="fj" horiz-adv-x="605" 
d="M347 412h-112v-412h-130v412h-88v99h88v45q0 166 159 166q42 0 91 -12l-16 -101q-28 5 -45 5q-34 0 -46.5 -14.5t-12.5 -51.5v-37h112v-99zM418 710h130v-122h-130v122zM418 -23v534h130v-531q0 -172 -159 -172q-57 0 -105 15l23 97q32 -7 57 -7q29 0 41.5 15t12.5 49z
" />
    <glyph glyph-name=".notdef" horiz-adv-x="579" 
d="M479 810v-910h-379v910h379z" />
    <glyph glyph-name=".null" horiz-adv-x="0" 
 />
    <glyph glyph-name="nonmarkingreturn" horiz-adv-x="333" 
 />
    <glyph glyph-name="space" unicode=" " horiz-adv-x="220" 
 />
    <glyph glyph-name="exclam" unicode="!" horiz-adv-x="298" 
d="M225 710v-215l-31 -270h-80l-31 270v215h142zM225 145v-145h-142v145h142z" />
    <glyph glyph-name="quotedbl" unicode="&#x22;" horiz-adv-x="439" 
d="M176 710l-12 -277h-102l-12 277h126zM389 710l-12 -277h-102l-12 277h126z" />
    <glyph glyph-name="numbersign" unicode="#" 
d="M565 426h-84l-36 -170h84l-18 -85h-84l-36 -171h-96l36 171h-131l-36 -171h-96l36 171h-86l18 85h86l36 170h-86l19 85h85l36 169h96l-36 -169h131l36 169h96l-36 -169h85zM349 256l36 170h-131l-36 -170h131z" />
    <glyph glyph-name="dollar" unicode="$" horiz-adv-x="610" 
d="M565 196q0 -85 -56.5 -142.5t-154.5 -68.5v-85h-92v85q-67 7 -123 35.5t-119 87.5l84 87q86 -82 158 -93v195q-119 36 -164 79t-45 120t58.5 133.5t150.5 66.5v84h92v-85q109 -12 208 -103l-82 -87q-72 63 -126 74v-181q117 -33 164 -77.5t47 -124.5zM181 499
q0 -27 18.5 -43.5t62.5 -31.5v156q-81 -17 -81 -81zM354 269v-167q82 18 82 87q0 31 -19 49t-63 31z" />
    <glyph glyph-name="percent" unicode="%" horiz-adv-x="882" 
d="M641 697l75 -47l-469 -667l-74 48zM216 692q71 0 119 -47.5t48 -119.5q0 -73 -48 -120.5t-119 -47.5q-72 0 -119 47t-47 121q0 72 47.5 119.5t118.5 47.5zM216 613q-35 0 -56 -24.5t-21 -63.5q0 -40 21 -64.5t56 -24.5q36 0 57 24.5t21 64.5q0 39 -21 63.5t-57 24.5z
M665 324q71 0 119 -47.5t48 -119.5q0 -73 -48 -120.5t-119 -47.5q-72 0 -119 47t-47 121q0 72 47.5 119.5t118.5 47.5zM665 245q-35 0 -56 -24.5t-21 -63.5q0 -40 21 -64.5t56 -24.5q36 0 57 24.5t21 64.5q0 39 -21 63.5t-57 24.5z" />
    <glyph glyph-name="ampersand" unicode="&#x26;" horiz-adv-x="721" 
d="M721 0h-157l-67 78q-95 -94 -222 -94q-103 0 -169 54.5t-66 139.5q0 69 41 120t137 106q-68 87 -68 154q0 75 55.5 122t137.5 47q85 0 139.5 -46t54.5 -114q0 -60 -31 -100q-33 -43 -109 -89l104 -122l96 117l89 -69l-110 -135zM345 632q-31 0 -52.5 -20.5t-21.5 -50.5
q0 -40 58 -104q51 29 70 52.5t19 56.5q0 28 -21 47t-52 19zM284 93q68 0 139 72l-138 161q-64 -40 -89 -69.5t-25 -68.5q0 -43 30.5 -69t82.5 -26z" />
    <glyph glyph-name="quotesingle" unicode="'" horiz-adv-x="226" 
d="M176 710l-12 -277h-102l-12 277h126z" />
    <glyph glyph-name="parenleft" unicode="(" horiz-adv-x="344" 
d="M262 783l82 -63q-85 -115 -122 -206q-38 -93 -38 -207t39 -207q37 -91 121 -206l-82 -63q-100 110 -151 225t-51 251t51 251t151 225z" />
    <glyph glyph-name="parenright" unicode=")" horiz-adv-x="344" 
d="M82 -165l-82 63q85 115 122 206q38 93 38 207q0 113 -38 207q-39 93 -122 206l82 63q100 -110 151 -225t51 -251t-51 -251t-151 -225z" />
    <glyph glyph-name="asterisk" unicode="*" horiz-adv-x="437" 
d="M259 710v-125l113 40l25 -73l-118 -39l78 -97l-63 -49l-77 102l-73 -100l-63 49l77 95l-118 39l25 73l111 -40v125h83z" />
    <glyph glyph-name="plus" unicode="+" horiz-adv-x="600" 
d="M357 570v-204h203v-112h-203v-204h-114v204h-203v112h203v204h114z" />
    <glyph glyph-name="comma" unicode="," horiz-adv-x="242" 
d="M200 145v-145l-80 -148h-73l70 148h-67v145h150z" />
    <glyph glyph-name="hyphen" unicode="-" horiz-adv-x="410" 
d="M360 349v-117h-310v117h310z" />
    <glyph glyph-name="period" unicode="." horiz-adv-x="242" 
d="M192 145v-145h-142v145h142z" />
    <glyph glyph-name="slash" unicode="/" horiz-adv-x="469" 
d="M454 710l-310 -710h-129l310 710h129z" />
    <glyph glyph-name="zero" unicode="0" 
d="M295 697q149 0 218 -131q47 -92 47 -226t-47 -226q-69 -131 -218 -131t-218 131q-47 92 -47 226t47 226q69 131 218 131zM295 582q-68 0 -99 -70q-29 -66 -29 -172t29 -172q31 -70 99 -70t99 70q29 66 29 172t-29 172q-31 70 -99 70z" />
    <glyph glyph-name="one" unicode="1" horiz-adv-x="460" 
d="M230 680h105v-680h-135v515l-117 -81l-66 92z" />
    <glyph glyph-name="two" unicode="2" horiz-adv-x="595" 
d="M323 237l-30 -18q-56 -33 -81 -55t-33 -52h368v-112h-509v53q0 125 95 200q37 28 107 72q47 28 48 28q51 29 74 46t38 39q16 22 16 55q0 41 -28 65t-73 24q-46 0 -86.5 -27t-89.5 -89l-99 70q108 161 272 161q111 0 174.5 -58t63.5 -144q0 -106 -82 -167
q-37 -28 -101 -65z" />
    <glyph glyph-name="three" unicode="3" horiz-adv-x="579" 
d="M512 570l-186 -158q95 -5 153 -58q59 -56 59 -145q0 -92 -69.5 -159t-186.5 -67q-70 0 -130.5 20t-131.5 68l65 95q61 -37 104 -52.5t89 -15.5q59 0 92 29.5t33 80.5q0 50 -36 78.5t-96 28.5q-48 0 -81 -13l-59 81l218 185h-294v112h457v-110z" />
    <glyph glyph-name="four" unicode="4" horiz-adv-x="584" 
d="M480 257h94v-108h-94v-149h-132v149h-324v125l259 406h148l-270 -423h187v137h132v-137z" />
    <glyph glyph-name="five" unicode="5" horiz-adv-x="580" 
d="M317 442q97 0 159 -62.5t62 -150.5q0 -107 -72.5 -176.5t-181.5 -69.5q-74 0 -133 21q-56 20 -134 72l66 95q67 -41 106 -57t86 -16q55 0 92 33.5t37 85.5q0 54 -32.5 84.5t-89.5 30.5q-61 0 -105 -39l-119 11l30 376h416v-112h-302l-14 -163q52 37 129 37z" />
    <glyph glyph-name="six" unicode="6" horiz-adv-x="588" 
d="M331 449q98 0 162.5 -66.5t64.5 -161.5q0 -97 -70.5 -167t-186.5 -70q-120 0 -191.5 76t-71.5 203q0 189 200 378l41 39h177v-2l-116 -105q-98 -91 -140 -164q50 40 131 40zM302 99q55 0 89 33.5t34 86.5t-34 86.5t-89 33.5q-56 0 -92.5 -34t-36.5 -86t36.5 -86t92.5 -34
z" />
    <glyph glyph-name="seven" unicode="7" horiz-adv-x="544" 
d="M23 680h505v-101q-94 -114 -164 -267q-72 -158 -94 -312h-149q19 142 89 293q70 152 163 275h-350v112z" />
    <glyph glyph-name="eight" unicode="8" horiz-adv-x="586" 
d="M441 368q119 -52 119 -177q0 -91 -72 -149.5t-195 -58.5t-195 58.5t-72 149.5q0 125 119 177q-87 50 -87 148q0 81 65 131.5t170 50.5t170 -50.5t65 -131.5q0 -98 -87 -148zM293 595q-48 0 -77.5 -24t-29.5 -63q0 -40 29.5 -65.5t77.5 -25.5t77.5 25.5t29.5 65.5
q0 39 -29.5 63t-77.5 24zM293 93q61 0 96 30.5t35 78.5q0 50 -35 81.5t-96 31.5t-96 -31.5t-35 -81.5q0 -48 35 -78.5t96 -30.5z" />
    <glyph glyph-name="nine" unicode="9" horiz-adv-x="588" 
d="M287 696q120 0 191.5 -76t71.5 -203q0 -187 -200 -378l-41 -39h-177v2l116 105q98 91 140 164q-50 -40 -131 -40q-98 0 -162.5 66.5t-64.5 161.5q0 97 70.5 167t186.5 70zM286 341q56 0 92.5 34t36.5 86t-36.5 86t-92.5 34q-55 0 -89 -33.5t-34 -86.5t34 -86.5t89 -33.5z
" />
    <glyph glyph-name="colon" unicode=":" horiz-adv-x="282" 
d="M212 511v-145h-142v145h142zM212 145v-145h-142v145h142z" />
    <glyph glyph-name="semicolon" unicode=";" horiz-adv-x="282" 
d="M223 145v-145l-80 -148h-73l70 148h-67v145h150zM218 511v-145h-142v145h142z" />
    <glyph glyph-name="less" unicode="&#x3c;" horiz-adv-x="600" 
d="M540 539v-114l-333 -115l333 -115v-114l-480 180v98z" />
    <glyph glyph-name="equal" unicode="=" horiz-adv-x="600" 
d="M560 466v-112h-520v112h520zM560 266v-112h-520v112h520z" />
    <glyph glyph-name="greater" unicode="&#x3e;" horiz-adv-x="600" 
d="M60 539l480 -180v-98l-480 -180v114l333 115l-333 115v114z" />
    <glyph glyph-name="question" unicode="?" horiz-adv-x="508" 
d="M268 727q105 0 167.5 -52t62.5 -141q0 -71 -52 -123q-25 -25 -74 -68q-44 -38 -59.5 -57t-20.5 -47l-3 -19h-115v21q1 35 3 50.5t12 36.5t28.5 40t55.5 52l18 15q38 32 52.5 51.5t14.5 45.5q0 34 -26 54t-69 20q-38 0 -73.5 -17t-92.5 -60l-77 91q122 107 248 107z
M305 145v-145h-142v145h142z" />
    <glyph glyph-name="at" unicode="@" horiz-adv-x="975" 
d="M725 483l-57 -267q-6 -27 -6 -50q0 -64 63 -64q49 0 78.5 54.5t29.5 141.5q0 153 -90.5 235t-240.5 82q-164 0 -258.5 -101t-94.5 -267q0 -164 95 -255.5t274 -91.5h229v-90h-253q-211 0 -332.5 120t-121.5 319q-2 202 125 332.5t331 128.5q192 2 317 -113.5t122 -296.5
q0 -127 -59.5 -203t-156.5 -76q-119 0 -145 84q-57 -84 -157 -84q-79 0 -120.5 44.5t-41.5 124.5q-1 70 28.5 140t85.5 116.5t122 44.5q45 0 76.5 -18.5t43.5 -51.5l9 62h105zM433 113q45 -1 78.5 36.5t47 83.5t12.5 86q0 80 -67 80q-58 0 -97.5 -64t-39.5 -139
q0 -83 66 -83z" />
    <glyph glyph-name="A" unicode="A" horiz-adv-x="712" 
d="M557 0l-48 142h-309l-49 -142h-141l254 710h184l254 -710h-145zM240 258h229l-28 82q-16 45 -17 50q-48 136 -70 212q-19 -65 -77 -234l-10 -30z" />
    <glyph glyph-name="B" unicode="B" horiz-adv-x="682" 
d="M514 373q135 -42 135 -173q0 -93 -59 -146.5t-161 -53.5h-357v710h338q96 0 155 -49t59 -134q0 -57 -29 -96.5t-81 -57.5zM212 602v-178h164q54 0 83 24.5t29 67.5q0 86 -111 86h-165zM212 108h167q63 0 96.5 27t33.5 76t-34 76.5t-96 27.5h-167v-207z" />
    <glyph glyph-name="C" unicode="C" horiz-adv-x="675" 
d="M388 727q79 0 139 -24.5t125 -81.5l-82 -97q-52 45 -93 62.5t-90 17.5q-97 0 -153.5 -67.5t-56.5 -180.5t57 -181.5t151 -68.5q55 0 95 21q39 19 101 70l82 -95q-67 -63 -131 -91t-145 -28q-161 0 -257 105t-96 269q0 163 95 266.5t259 103.5z" />
    <glyph glyph-name="D" unicode="D" horiz-adv-x="718" 
d="M72 710h289q149 0 236 -98t87 -257t-87 -257t-236 -98h-289v710zM340 592h-128v-474h128q93 0 146.5 61t53.5 176t-53.5 176t-146.5 61z" />
    <glyph glyph-name="E" unicode="E" horiz-adv-x="628" 
d="M571 710v-118h-359v-166h336v-118h-336v-190h370v-118h-510v710h499z" />
    <glyph glyph-name="F" unicode="F" horiz-adv-x="608" 
d="M571 710v-118h-359v-185h336v-118h-336v-289h-140v710h499z" />
    <glyph glyph-name="G" unicode="G" horiz-adv-x="754" 
d="M364 276v118h330v-394h-107l-7 67q-62 -83 -203 -83q-159 0 -251 103t-92 269q0 162 97 266t261 104q92 0 161.5 -30.5t140.5 -102.5l-88 -91q-62 56 -109.5 78.5t-105.5 22.5q-98 0 -156 -65.5t-58 -181.5q0 -119 56 -184.5t155 -65.5q84 0 131.5 42.5t47.5 116.5v11
h-203z" />
    <glyph glyph-name="H" unicode="H" horiz-adv-x="741" 
d="M669 710v-710h-140v314h-317v-314h-140v710h140v-278h317v278h140z" />
    <glyph glyph-name="I" unicode="I" horiz-adv-x="298" 
d="M219 710v-710h-140v710h140z" />
    <glyph glyph-name="J" unicode="J" horiz-adv-x="473" 
d="M405 710v-520q0 -102 -56 -153.5t-157 -51.5q-96 0 -187 43l41 112q86 -30 138 -30q81 0 81 96v504h140z" />
    <glyph glyph-name="K" unicode="K" horiz-adv-x="693" 
d="M535 0l-213 337l-110 -116v-221h-140v710h140v-318l293 318h172l-260 -273l276 -437h-158z" />
    <glyph glyph-name="L" unicode="L" horiz-adv-x="556" 
d="M212 710v-590h314v-120h-454v710h140z" />
    <glyph glyph-name="M" unicode="M" horiz-adv-x="909" 
d="M620 710h217v-710h-136v360q0 18 2 162l1 79q-18 -66 -73 -241l-114 -360h-122l-116 360q-8 24 -30 92q-22 66 -46 146q3 -118 3 -238v-360h-134v710h220l93 -289q46 -143 72 -242q23 93 71 242z" />
    <glyph glyph-name="N" unicode="N" horiz-adv-x="743" 
d="M535 710h136v-710h-149l-180 288l-20 32q-84 136 -120 201q6 -125 6 -276v-245h-136v710h152l191 -306l27 -45q62 -100 98 -163q-5 105 -5 256v258z" />
    <glyph glyph-name="O" unicode="O" horiz-adv-x="769" 
d="M385 727q157 2 254.5 -105t95.5 -267q2 -160 -95.5 -267t-254.5 -105q-159 0 -255 105t-96 267t96 267t255 105zM385 603q-94 0 -150.5 -68t-56.5 -180t56.5 -180t150.5 -68q93 0 149.5 68t56.5 180t-56.5 180t-149.5 68z" />
    <glyph glyph-name="P" unicode="P" horiz-adv-x="681" 
d="M72 710h342q107 0 170.5 -61.5t63.5 -162.5t-63.5 -162t-170.5 -61h-202v-263h-140v710zM389 594h-177v-215h177q56 0 88 28t32 79t-31.5 79.5t-88.5 28.5z" />
    <glyph glyph-name="Q" unicode="Q" horiz-adv-x="769" 
d="M735 355q0 -179 -111 -284l57 -75l-99 -69l-61 80q-65 -24 -136 -24q-159 0 -255 105t-96 267t96 267t255 105q157 2 254.5 -105t95.5 -267zM385 107q33 0 55 7l-82 108l98 69l84 -110q51 66 51 174q0 112 -56.5 180t-149.5 68q-94 0 -150.5 -68t-56.5 -180t56.5 -180
t150.5 -68z" />
    <glyph glyph-name="R" unicode="R" horiz-adv-x="693" 
d="M669 0h-156l-170 263h-131v-263h-140v710h336q102 0 168 -62.5t66 -161.5q0 -78 -41 -134t-113 -78zM212 594v-215h171q57 0 89 28t32 79t-32 79.5t-89 28.5h-171z" />
    <glyph glyph-name="S" unicode="S" horiz-adv-x="645" 
d="M319 726q88 0 151 -25q63 -26 133 -85l-82 -98q-62 52 -104 69q-43 18 -101 18q-59 0 -94.5 -24t-35.5 -63q0 -26 16.5 -42t51.5 -27q44 -14 105 -28q142 -35 196 -77t57 -130q0 -102 -76.5 -166.5t-204.5 -64.5q-93 0 -164 30q-71 29 -151 101l84 99q72 -63 121 -85
q51 -23 113 -23q63 0 101 26.5t38 71.5q0 49 -62 71q-29 9 -84 21l-34 8q-141 34 -193 79.5t-52 131.5q0 90 76 151t195 61z" />
    <glyph glyph-name="T" unicode="T" horiz-adv-x="610" 
d="M584 710v-120h-209v-590h-140v590h-209v120h558z" />
    <glyph glyph-name="U" unicode="U" horiz-adv-x="706" 
d="M638 710v-470q0 -129 -73.5 -193t-211.5 -64t-211.5 64t-73.5 193v470h140v-465q0 -67 36.5 -102.5t108.5 -35.5q71 0 108 35.5t37 102.5v465h140z" />
    <glyph glyph-name="V" unicode="V" horiz-adv-x="667" 
d="M511 710h145l-235 -710h-175l-235 710h147l109 -340q32 -98 68 -230q20 72 68 228z" />
    <glyph glyph-name="W" unicode="W" horiz-adv-x="971" 
d="M808 710h138l-172 -710h-161l-70 274q-37 151 -57 245q-21 -98 -58 -245l-70 -274h-160l-173 710h142l71 -306q31 -136 47 -232q36 162 55 232l81 306h136l79 -306q25 -96 54 -236q25 143 47 236z" />
    <glyph glyph-name="X" unicode="X" horiz-adv-x="705" 
d="M695 0h-157l-186 275l-187 -275h-155l258 377l-231 333h158l159 -235l158 235h156l-232 -334z" />
    <glyph glyph-name="Y" unicode="Y" horiz-adv-x="657" 
d="M500 710h149l-251 -412v-298h-140v299l-250 411h154l169 -288z" />
    <glyph glyph-name="Z" unicode="Z" horiz-adv-x="641" 
d="M597 710v-115l-385 -477h384v-118h-552v115l385 477h-371v118h539z" />
    <glyph glyph-name="bracketleft" unicode="[" horiz-adv-x="352" 
d="M322 774v-95h-111v-742h111v-94h-232v931h232z" />
    <glyph glyph-name="backslash" unicode="\" horiz-adv-x="469" 
d="M15 710h129l310 -710h-129z" />
    <glyph glyph-name="bracketright" unicode="]" horiz-adv-x="352" 
d="M30 774h232v-931h-232v94h111v742h-111v95z" />
    <glyph glyph-name="asciicircum" unicode="^" 
d="M344 710l199 -430h-103l-144 314l-145 -314h-104l200 430h97z" />
    <glyph glyph-name="underscore" unicode="_" horiz-adv-x="600" 
d="M605 -100v-90h-610v90h610z" />
    <glyph glyph-name="grave" unicode="`" horiz-adv-x="379" 
d="M80 728h142l69 -149h-115z" />
    <glyph glyph-name="a" unicode="a" horiz-adv-x="560" 
d="M281 528q106 0 164 -49t58 -134v-345h-117v53q-51 -70 -165 -70q-82 0 -132.5 38t-50.5 108q0 77 56 119t165 61l120 22v12q0 37 -25.5 57.5t-70.5 20.5q-49 0 -80 -19q-36 -22 -79 -64l-82 75q97 115 239 115zM243 87q60 0 98 31t38 90v30l-86 -18q-69 -15 -98.5 -32.5
t-29.5 -49.5q0 -24 20.5 -37.5t57.5 -13.5z" />
    <glyph glyph-name="b" unicode="b" horiz-adv-x="599" 
d="M341 526q99 0 162.5 -74.5t63.5 -195.5t-64 -195.5t-163 -74.5q-108 0 -162 79v-65h-121v710h130v-253q55 69 154 69zM310 99q57 0 91 42.5t34 114.5t-33.5 115t-90.5 43t-93 -43.5t-36 -114.5q0 -72 35.5 -114.5t92.5 -42.5z" />
    <glyph glyph-name="c" unicode="c" horiz-adv-x="528" 
d="M508 431l-81 -80q-40 38 -70 52.5t-63 14.5q-61 0 -96.5 -45.5t-35.5 -116.5t35 -116t96 -45q36 0 67.5 18t71.5 61l86 -72q-52 -65 -104.5 -91.5t-122.5 -26.5q-117 0 -189 74t-72 198t73 198t191 74q65 0 115.5 -22.5t98.5 -74.5z" />
    <glyph glyph-name="d" unicode="d" horiz-adv-x="599" 
d="M412 710h130v-710h-121v67q-55 -82 -163 -82q-99 0 -162.5 74.5t-63.5 195.5t64 195.5t163 74.5q101 0 153 -67v252zM288 97q57 0 93 43.5t36 114.5q0 72 -35.5 114.5t-92.5 42.5t-91 -42.5t-34 -114.5t33.5 -115t90.5 -43z" />
    <glyph glyph-name="e" unicode="e" horiz-adv-x="560" 
d="M301 94q43 0 74 15q31 16 78 55l73 -80q-53 -54 -107 -77t-121 -23q-123 0 -195.5 73t-72.5 196q0 121 70 198t187 77q114 0 176.5 -67t62.5 -188q0 -21 -2 -51h-367q9 -61 45.5 -94.5t98.5 -33.5zM283 426q-99 0 -123 -111h239q-4 52 -34.5 81.5t-81.5 29.5z" />
    <glyph glyph-name="f" unicode="f" horiz-adv-x="366" 
d="M297 621q-33 0 -47.5 -15t-14.5 -51v-44h114v-99h-114v-412h-130v412h-88v99h88v51q0 166 166 166q55 0 109 -18l-23 -97q-38 8 -60 8z" />
    <glyph glyph-name="g" unicode="g" 
d="M413 511h120v-486q0 -105 -69 -163t-181 -58q-127 0 -243 75l63 94q57 -34 96.5 -47.5t81.5 -13.5q59 0 92 31t33 93v41q-53 -65 -149 -65q-98 0 -161.5 72t-63.5 186q0 113 64 185.5t161 72.5q106 0 156 -74v57zM286 122q54 0 89 41t35 107t-35 106.5t-89 40.5
q-55 0 -89 -40.5t-34 -106.5t34 -107t89 -41z" />
    <glyph glyph-name="h" unicode="h" horiz-adv-x="572" 
d="M332 528q86 0 134.5 -48.5t48.5 -129.5v-350h-130v311q0 51 -24.5 78t-70.5 27q-45 0 -74 -30t-29 -78v-308h-130v710h130v-245q52 63 145 63z" />
    <glyph glyph-name="i" unicode="i" horiz-adv-x="244" 
d="M187 511v-511h-130v511h130zM187 710v-122h-130v122h130z" />
    <glyph glyph-name="j" unicode="j" horiz-adv-x="248" 
d="M-73 -176l23 97q32 -7 57 -7q29 0 41.5 15t12.5 49v533h130v-530q0 -172 -159 -172q-57 0 -105 15zM191 710v-122h-130v122h130z" />
    <glyph glyph-name="k" unicode="k" horiz-adv-x="549" 
d="M406 0l-147 235l-72 -73v-162h-130v710h130v-405l193 206h151l-182 -191l200 -320h-143z" />
    <glyph glyph-name="l" unicode="l" horiz-adv-x="248" 
d="M189 710v-710h-130v710h130z" />
    <glyph glyph-name="m" unicode="m" horiz-adv-x="846" 
d="M619 528q80 0 125 -46t45 -125v-357h-130v318q0 98 -81 98q-42 0 -66 -28t-24 -74v-314h-130v318q0 98 -81 98q-42 0 -66 -28t-24 -74v-314h-130v511h121v-57q45 74 146 74q98 0 142 -75q52 75 153 75z" />
    <glyph glyph-name="n" unicode="n" horiz-adv-x="572" 
d="M332 528q86 0 134.5 -48.5t48.5 -129.5v-350h-130v311q0 51 -24.5 78t-70.5 27q-45 0 -74 -30t-29 -78v-308h-130v511h121v-58q52 75 154 75z" />
    <glyph glyph-name="o" unicode="o" horiz-adv-x="591" 
d="M296 528q116 0 190.5 -75.5t74.5 -196.5t-74.5 -196.5t-190.5 -75.5q-117 0 -191.5 75.5t-74.5 196.5t74.5 196.5t191.5 75.5zM296 418q-61 0 -97.5 -44.5t-36.5 -117.5q0 -74 36.5 -118t97.5 -44q60 0 96.5 44t36.5 118q0 73 -36.5 117.5t-96.5 44.5z" />
    <glyph glyph-name="p" unicode="p" horiz-adv-x="599" 
d="M341 526q99 0 162.5 -74.5t63.5 -195.5t-64 -195.5t-163 -74.5q-101 0 -153 67v-233h-130v691h121v-67q55 82 163 82zM310 99q57 0 91 42.5t34 114.5t-33.5 115t-90.5 43t-93 -43.5t-36 -114.5q0 -72 35.5 -114.5t92.5 -42.5z" />
    <glyph glyph-name="q" unicode="q" horiz-adv-x="599" 
d="M421 511h121v-691h-130v234q-55 -69 -154 -69t-162.5 74.5t-63.5 195.5t64 195.5t163 74.5q108 0 162 -79v65zM288 97q57 0 93 43.5t36 114.5q0 72 -35.5 114.5t-92.5 42.5t-91 -42.5t-34 -114.5t33.5 -115t90.5 -43z" />
    <glyph glyph-name="r" unicode="r" horiz-adv-x="396" 
d="M306 517q31 0 81 -15l-23 -113q-37 10 -65 10q-52 0 -82 -39t-30 -108v-252h-130v511h121v-75q40 81 128 81z" />
    <glyph glyph-name="s" unicode="s" horiz-adv-x="509" 
d="M253 528q67 0 117 -18t103 -62l-70 -85q-44 35 -77.5 47.5t-75.5 12.5q-39 0 -62.5 -14t-23.5 -37q0 -27 44 -40q21 -6 75 -18q111 -25 154.5 -59t43.5 -104q0 -76 -59 -121.5t-160 -45.5q-74 0 -130.5 22t-116.5 75l75 84q56 -46 92 -60q36 -16 83 -16q40 0 64.5 14
t24.5 40q0 34 -51 49q-7 1 -31.5 7t-43.5 10q-109 24 -148.5 57.5t-39.5 101.5t57.5 114t155.5 46z" />
    <glyph glyph-name="t" unicode="t" horiz-adv-x="387" 
d="M353 110l15 -103q-56 -19 -115 -19q-75 0 -110 35.5t-35 108.5v280h-91v99h91v158h130v-158h122v-99h-122v-264q0 -26 12 -36.5t39 -10.5t64 9z" />
    <glyph glyph-name="u" unicode="u" horiz-adv-x="564" 
d="M377 511h130v-511h-119v54q-43 -70 -150 -70q-89 0 -135 43t-46 119v365h130v-329q0 -40 22 -62.5t63 -22.5q49 0 77 27.5t28 78.5v308z" />
    <glyph glyph-name="v" unicode="v" horiz-adv-x="521" 
d="M378 511h135l-174 -511h-158l-173 511h137l51 -167q46 -153 66 -232q31 124 65 232z" />
    <glyph glyph-name="w" unicode="w" horiz-adv-x="792" 
d="M644 512h134l-142 -512h-154l-38 139q-20 75 -50 208q-23 -114 -47 -208l-36 -139h-155l-142 512h137l41 -168q18 -69 49 -226q32 149 52 226l44 168h120l44 -168q20 -76 53 -228q31 153 49 228z" />
    <glyph glyph-name="x" unicode="x" horiz-adv-x="524" 
d="M519 0h-143l-115 175l-116 -175h-140l184 268l-167 243h141l100 -150l98 150h140l-165 -238z" />
    <glyph glyph-name="y" unicode="y" horiz-adv-x="521" 
d="M379 511h132l-197 -568q-26 -74 -66.5 -106t-110.5 -32q-56 0 -98 13l22 97q31 -6 60 -6q60 0 81 64l-192 538h136l45 -134q44 -131 73 -227q41 135 71 228z" />
    <glyph glyph-name="z" unicode="z" horiz-adv-x="498" 
d="M458 511v-98l-263 -307h263v-106h-424v98l265 308h-249v105h408z" />
    <glyph glyph-name="braceleft" unicode="{" horiz-adv-x="373" 
d="M343 774v-95h-24q-61 0 -66 -38q-2 -22 -2 -67v-135q0 -56 -20.5 -85t-73.5 -38v-2q53 -9 73.5 -38t20.5 -85v-149v-45q0 -36 16 -48q17 -12 52 -12h24v-94h-53q-85 0 -122.5 37t-37.5 126v164q0 58 -15 76t-65 18v102q50 0 65 18t15 76v151q0 89 37.5 126t122.5 37h53z
" />
    <glyph glyph-name="bar" unicode="|" horiz-adv-x="390" 
d="M250 800v-940h-110v940h110z" />
    <glyph glyph-name="braceright" unicode="}" horiz-adv-x="373" 
d="M30 774h53q85 0 122.5 -37t37.5 -126v-151q0 -58 15 -76t65 -18v-102q-50 0 -65 -18t-15 -76v-164q0 -89 -37.5 -126t-122.5 -37h-53v94h24q61 0 66 38q2 22 2 67v149q0 56 20.5 85t73.5 38v2q-53 9 -73.5 38t-20.5 85v135v45q0 36 -16 48t-52 12h-24v95z" />
    <glyph glyph-name="asciitilde" unicode="~" horiz-adv-x="600" 
d="M196 421q55 0 121 -29q45 -22 81 -22q48 0 53 44h104q0 -68 -39.5 -108t-100.5 -40q-51 0 -125 30q-59 22 -83 22q-51 0 -59 -45h-103q1 69 43.5 108.5t107.5 39.5z" />
    <glyph glyph-name="exclamdown" unicode="&#xa1;" horiz-adv-x="254" 
d="M59 367v145h142v-145h-142zM59 -198v215l31 270h80l31 -270v-215h-142z" />
    <glyph glyph-name="cent" unicode="&#xa2;" 
d="M457 174l86 -72q-77 -98 -174 -114v-88h-92v86q-102 12 -162 84.5t-60 185.5q0 112 60 184t162 85v82h92v-82q89 -13 164 -94l-81 -80q-46 45 -83 58v-305q37 15 88 70zM187 256q0 -57 24 -98.5t66 -56.5v310q-42 -14 -66 -55.5t-24 -99.5z" />
    <glyph glyph-name="sterling" unicode="&#xa3;" 
d="M521 135l42 -102q-76 -46 -148 -46q-51 0 -134 21q-72 18 -105 18q-49 0 -103 -26l-38 101q34 13 47 18.5t28.5 16.5t27.5 26q17 25 17 64q0 22 -3 40h-94v100h69q-20 66 -20 134q0 87 65.5 140t160.5 53q123 0 221 -79l-71 -93q-82 57 -145 57q-43 0 -69 -24.5
t-26 -68.5q0 -48 21 -119h194v-100h-173q1 -5 1 -21q0 -71 -63 -116q40 -7 66 -14q71 -16 113 -16q55 0 119 36z" />
    <glyph glyph-name="currency" unicode="&#xa4;" 
d="M488 586l53 -52l-63 -63q41 -56 41 -131t-41 -131l63 -63l-53 -52l-64 64q-53 -34 -127 -34q-75 0 -130 36l-66 -66l-52 52l65 65q-39 55 -39 129q0 75 39 128l-66 66l53 52l66 -66q55 36 130 36q74 0 127 -34zM297 474q-60 0 -95.5 -36t-35.5 -98t35.5 -98t95.5 -36
t95.5 36t35.5 98t-35.5 98t-95.5 36z" />
    <glyph glyph-name="yen" unicode="&#xa5;" 
d="M573 680l-148 -268h111v-90h-161l-13 -24v-41h174v-90h-174v-167h-135v167h-172v90h172v42l-13 23h-159v90h110l-148 268h148l132 -255l134 255h142z" />
    <glyph glyph-name="brokenbar" unicode="&#xa6;" horiz-adv-x="390" 
d="M250 800v-400h-110v400h110zM250 260v-400h-110v400h110z" />
    <glyph glyph-name="section" unicode="&#xa7;" 
d="M480 187q48 -36 48 -111q0 -74 -64 -123.5t-170 -49.5q-74 0 -130 20t-115 67l70 85q53 -38 91 -52.5t86 -14.5q49 0 78.5 17.5t29.5 46.5q0 35 -54 49q-23 7 -88 21q-123 25 -175 64.5t-52 112.5q0 82 76 121q-49 35 -49 111q0 75 64 124.5t170 49.5q73 0 129.5 -20
t115.5 -67l-70 -86q-51 38 -89.5 52.5t-87.5 14.5t-78.5 -17.5t-29.5 -46.5q0 -35 54 -49q23 -7 88 -21q123 -25 175 -64t52 -112q0 -81 -75 -122zM162 326q4 -32 29.5 -44.5t103.5 -29.5l22 -5l38 -9q73 20 73 63q0 42 -65 59q-25 8 -90 21q-9 3 -37 8q-34 -8 -54 -25
t-20 -38z" />
    <glyph glyph-name="dieresis" unicode="&#xa8;" horiz-adv-x="520" 
d="M224 710v-122h-125v122h125zM421 710v-122h-125v122h125z" />
    <glyph glyph-name="copyright" unicode="&#xa9;" horiz-adv-x="856" 
d="M428 723q153 3 261.5 -105.5t106.5 -262.5q2 -154 -106.5 -262.5t-261.5 -105.5q-153 -3 -261.5 105.5t-106.5 262.5q-2 154 106.5 262.5t261.5 105.5zM428 660q-126 2 -212.5 -87t-84.5 -218q-2 -129 84.5 -218t212.5 -87q127 -2 213 87t84 218q2 129 -84 218t-213 87z
M432 576q122 0 176 -107l-71 -33q-39 65 -105 65q-57 0 -91 -40t-34 -106t34 -106t91 -40q38 0 61.5 16.5t47.5 58.5l70 -35q-31 -61 -72.5 -88t-106.5 -27q-92 0 -150 63t-58 158t58 158t150 63z" />
    <glyph glyph-name="ordfeminine" unicode="&#xaa;" horiz-adv-x="440" 
d="M220 717q84 0 129.5 -38.5t45.5 -104.5v-270h-88v45q-43 -58 -137 -58q-63 0 -101.5 29.5t-38.5 85.5q0 60 45 91.5t140 48.5l85 15v5q0 33 -22 50.5t-62 17.5q-62 0 -119 -60l-63 59q73 84 186 84zM191 371q48 0 78.5 24.5t30.5 70.5v24l-68 -15q-61 -13 -82.5 -25.5
t-21.5 -37.5q0 -41 63 -41z" />
    <glyph glyph-name="guillemotleft" unicode="&#xab;" horiz-adv-x="612" 
d="M320 478l-146 -225l146 -225h-122l-143 225l143 225h122zM552 478l-146 -225l146 -225h-122l-143 225l143 225h122z" />
    <glyph glyph-name="logicalnot" unicode="&#xac;" horiz-adv-x="600" 
d="M40 366h520v-300h-112v188h-408v112z" />
    <glyph glyph-name="registered" unicode="&#xae;" horiz-adv-x="542" 
d="M271 722q94 0 157.5 -63.5t63.5 -157.5t-63.5 -157.5t-157.5 -63.5t-157.5 63.5t-63.5 157.5t63.5 157.5t157.5 63.5zM271 677q-75 0 -123 -50t-48 -126t48 -126t123 -50q74 0 122.5 50.5t48.5 125.5t-48.5 125.5t-122.5 50.5zM185 630h105q35 0 57.5 -23t22.5 -56
q0 -25 -13 -45t-35 -29l58 -96h-57l-54 91h-32v-91h-52v249zM281 583h-44v-67h44q37 0 37 34q0 15 -9.5 24t-27.5 9z" />
    <glyph glyph-name="overscore" unicode="&#xaf;" horiz-adv-x="487" 
d="M404 685v-94h-320v94h320z" />
    <glyph glyph-name="degree" unicode="&#xb0;" horiz-adv-x="432" 
d="M216 725q66 0 111 -44t45 -109t-45 -109t-111 -44q-65 0 -110.5 44t-45.5 109t45.5 109t110.5 44zM216 650q-34 0 -55.5 -22t-21.5 -56t21.5 -56t55.5 -22t55.5 22t21.5 56t-21.5 56t-55.5 22z" />
    <glyph glyph-name="plusminus" unicode="&#xb1;" horiz-adv-x="600" 
d="M357 688v-204h203v-112h-203v-204h-114v204h-203v112h203v204h114zM560 112v-112h-520v112h520z" />
    <glyph glyph-name="uni00B2" unicode="&#xb2;" horiz-adv-x="398" 
d="M248 456l-23 -12q-42 -19 -67 -40q-14 -11 -20 -23h233v-79h-332v38q0 59 31.5 95t101.5 72l28 14q46 23 62.5 37t16.5 36q0 20 -17.5 32.5t-48.5 12.5q-54 0 -119 -50l-49 62q79 70 169 70q72 0 115.5 -36t43.5 -88q0 -67 -54 -101q-20 -13 -71 -40z" />
    <glyph glyph-name="uni00B3" unicode="&#xb3;" horiz-adv-x="394" 
d="M335 632l-113 -84q59 -4 96 -37t37 -84q0 -57 -45 -96.5t-121 -39.5q-93 0 -174 54l45 66q72 -38 128 -38q71 0 71 54q0 26 -23 40.5t-62 14.5q-32 0 -48 -6l-40 55l132 100h-181v79h298v-78z" />
    <glyph glyph-name="acute" unicode="&#xb4;" horiz-adv-x="379" 
d="M299 728l-96 -149h-115l69 149h142z" />
    <glyph glyph-name="paragraph" unicode="&#xb6;" horiz-adv-x="684" 
d="M433 710v-810h-99v357h-77q-101 0 -164 63t-63 164t63 163.5t164 62.5h176zM612 710v-810h-99v810h99z" />
    <glyph glyph-name="middot" unicode="&#xb7;" horiz-adv-x="242" 
d="M192 404v-145h-142v145h142z" />
    <glyph glyph-name="cedilla" unicode="&#xb8;" horiz-adv-x="428" 
d="M261 0l-30 -66q47 -1 75.5 -23.5t28.5 -58.5q0 -43 -31.5 -69.5t-83.5 -26.5q-57 0 -114 39l34 52q44 -27 80 -27q20 0 32.5 8.5t12.5 22.5t-14.5 22.5t-35.5 8.5q-16 0 -28 -3l-34 31l51 111z" />
    <glyph glyph-name="uni00B9" unicode="&#xb9;" horiz-adv-x="319" 
d="M148 710h73v-408h-94v297l-64 -45l-46 63z" />
    <glyph glyph-name="ordmasculine" unicode="&#xba;" horiz-adv-x="474" 
d="M237 718q88 0 145 -59.5t57 -153.5q0 -93 -57 -153t-145 -60t-145 60t-57 153q0 94 57 153.5t145 59.5zM237 633q-46 0 -73 -35t-27 -93q0 -59 27 -93.5t73 -34.5t73 34.5t27 93.5q0 58 -27 93t-73 35z" />
    <glyph glyph-name="guillemotright" unicode="&#xbb;" horiz-adv-x="612" 
d="M60 478h122l143 -225l-143 -225h-122l141 225zM292 478h122l143 -225l-143 -225h-122l141 225z" />
    <glyph glyph-name="onequarter" unicode="&#xbc;" horiz-adv-x="908" 
d="M156 680h73v-408h-94v297l-64 -45l-46 63zM627 697l75 -47l-469 -667l-74 48zM829 161h54v-74h-54v-87h-93v87h-196v88l156 233h100l-162 -247h102v78h93v-78z" />
    <glyph glyph-name="onehalf" unicode="&#xbd;" horiz-adv-x="940" 
d="M156 680h73v-408h-94v297l-64 -45l-46 63zM627 697l75 -47l-469 -667l-74 48zM783 154l-23 -12q-42 -19 -67 -40q-14 -11 -20 -23h233v-79h-332v38q0 59 31.5 95t101.5 72l28 14q46 23 62.5 37t16.5 36q0 20 -18 32.5t-48 12.5q-54 0 -119 -50l-49 62q79 70 169 70
q72 0 115.5 -36t43.5 -88q0 -67 -54 -101q-20 -13 -71 -40z" />
    <glyph glyph-name="threequarters" unicode="&#xbe;" horiz-adv-x="983" 
d="M341 602l-113 -84q59 -4 96 -37t37 -84q0 -57 -45 -96.5t-121 -39.5q-93 0 -174 54l45 66q72 -38 128 -38q71 0 71 54q0 26 -23 40.5t-62 14.5q-32 0 -48 -6l-40 55l132 100h-181v79h298v-78zM702 697l75 -47l-469 -667l-74 48zM904 161h54v-74h-54v-87h-93v87h-196v88
l156 233h100l-162 -247h102v78h93v-78z" />
    <glyph glyph-name="questiondown" unicode="&#xbf;" horiz-adv-x="488" 
d="M193 367v145h142v-145h-142zM230 -215q-105 0 -167.5 52t-62.5 141q0 71 53 124q23 24 73 67q44 38 59.5 57t20.5 47l3 19h115v-21q-1 -35 -3 -50.5t-12 -36.5t-28.5 -40t-55.5 -52l-18 -15q-38 -32 -52.5 -51.5t-14.5 -45.5q0 -34 26 -54t69 -20q38 0 73.5 17t92.5 60
l77 -91q-122 -107 -248 -107z" />
    <glyph glyph-name="Agrave" unicode="&#xc0;" horiz-adv-x="712" 
d="M557 0l-48 142h-309l-49 -142h-141l254 710h184l254 -710h-145zM240 258h229l-28 82q-16 45 -17 50q-48 136 -70 212q-19 -65 -77 -234l-10 -30zM204 927h142l69 -149h-115z" />
    <glyph glyph-name="Aacute" unicode="&#xc1;" horiz-adv-x="712" 
d="M557 0l-48 142h-309l-49 -142h-141l254 710h184l254 -710h-145zM240 258h229l-28 82q-16 45 -17 50q-48 136 -70 212q-19 -65 -77 -234l-10 -30zM506 927l-96 -149h-115l69 149h142z" />
    <glyph glyph-name="Acircumflex" unicode="&#xc2;" horiz-adv-x="712" 
d="M557 0l-48 142h-309l-49 -142h-141l254 710h184l254 -710h-145zM240 258h229l-28 82q-16 45 -17 50q-48 136 -70 212q-19 -65 -77 -234l-10 -30zM430 778l-75 94l-76 -94h-110l104 149h163l104 -149h-110z" />
    <glyph glyph-name="Atilde" unicode="&#xc3;" horiz-adv-x="712" 
d="M557 0l-48 142h-309l-49 -142h-141l254 710h184l254 -710h-145zM240 258h229l-28 82q-16 45 -17 50q-48 136 -70 212q-19 -65 -77 -234l-10 -30zM286 913q41 0 84 -29q36 -20 52 -20q15 0 24 13.5t9 35.5h73q0 -61 -27 -95t-71 -34q-30 0 -83 28q-41 21 -57 21
q-15 0 -24.5 -14t-9.5 -35h-74q0 60 29.5 94.5t74.5 34.5z" />
    <glyph glyph-name="Adieresis" unicode="&#xc4;" horiz-adv-x="712" 
d="M557 0l-48 142h-309l-49 -142h-141l254 710h184l254 -710h-145zM240 258h229l-28 82q-16 45 -17 50q-48 136 -70 212q-19 -65 -77 -234l-10 -30zM319 909v-122h-125v122h125zM516 909v-122h-125v122h125z" />
    <glyph glyph-name="Aring" unicode="&#xc5;" horiz-adv-x="719" 
d="M564 0l-49 144h-315l-49 -144h-141l250 701q-39 39 -39 93t41 93.5t97 39.5q57 0 98 -39.5t41 -93.5t-39 -93l250 -701h-145zM359 863q-30 0 -49.5 -19.5t-19.5 -49.5q0 -31 19.5 -50.5t49.5 -19.5t50 19.5t20 50.5q0 30 -20 49.5t-50 19.5zM239 258h237l-28 83l-31 90
q-39 109 -60 181q-13 -52 -36 -117q-6 -17 -13 -36.5t-10.5 -29.5t-4.5 -14l-12 -36t-9.5 -27.5t-4.5 -12.5z" />
    <glyph glyph-name="AE" unicode="&#xc6;" horiz-adv-x="1005" 
d="M589 118h370v-118h-510v142h-235l-72 -142h-142l364 710h584v-118h-359v-166h336v-118h-336v-190zM272 258h177v351z" />
    <glyph glyph-name="Ccedilla" unicode="&#xc7;" horiz-adv-x="675" 
d="M402 -17l-22 -49q47 -1 75.5 -23.5t28.5 -58.5q0 -43 -31.5 -69.5t-83.5 -26.5q-57 0 -114 39l34 52q44 -27 80 -27q20 0 32.5 8.5t12.5 22.5t-14.5 22.5t-35.5 8.5q-16 0 -28 -3l-34 31l35 76q-140 16 -221.5 118t-81.5 253q0 163 95 266.5t259 103.5q79 0 139 -24.5
t125 -81.5l-82 -97q-52 45 -93 62.5t-90 17.5q-97 0 -153.5 -67.5t-56.5 -180.5t57 -181.5t151 -68.5q55 0 95 21q39 19 101 70l82 -95q-64 -60 -125 -88t-136 -31z" />
    <glyph glyph-name="Egrave" unicode="&#xc8;" horiz-adv-x="628" 
d="M571 710v-118h-359v-166h336v-118h-336v-190h370v-118h-510v710h499zM176 927h142l69 -149h-115z" />
    <glyph glyph-name="Eacute" unicode="&#xc9;" horiz-adv-x="628" 
d="M571 710v-118h-359v-166h336v-118h-336v-190h370v-118h-510v710h499zM478 927l-96 -149h-115l69 149h142z" />
    <glyph glyph-name="Ecircumflex" unicode="&#xca;" horiz-adv-x="628" 
d="M571 710v-118h-359v-166h336v-118h-336v-190h370v-118h-510v710h499zM402 778l-75 94l-76 -94h-110l104 149h163l104 -149h-110z" />
    <glyph glyph-name="Edieresis" unicode="&#xcb;" horiz-adv-x="628" 
d="M571 710v-118h-359v-166h336v-118h-336v-190h370v-118h-510v710h499zM291 909v-122h-125v122h125zM488 909v-122h-125v122h125z" />
    <glyph glyph-name="Igrave" unicode="&#xcc;" horiz-adv-x="298" 
d="M219 710v-710h-140v710h140zM-2 927h142l69 -149h-115z" />
    <glyph glyph-name="Iacute" unicode="&#xcd;" horiz-adv-x="298" 
d="M219 710v-710h-140v710h140zM300 927l-96 -149h-115l69 149h142z" />
    <glyph glyph-name="Icircumflex" unicode="&#xce;" horiz-adv-x="298" 
d="M219 710v-710h-140v710h140zM224 778l-75 94l-76 -94h-110l104 149h163l104 -149h-110z" />
    <glyph glyph-name="Idieresis" unicode="&#xcf;" horiz-adv-x="298" 
d="M219 710v-710h-140v710h140zM113 909v-122h-125v122h125zM310 909v-122h-125v122h125z" />
    <glyph glyph-name="Eth" unicode="&#xd0;" horiz-adv-x="748" 
d="M102 710h289q149 0 236 -98t87 -257t-87 -257t-236 -98h-289v308h-76v117h76v285zM242 118h128q93 0 146.5 61t53.5 176t-53.5 176t-146.5 61h-128v-167h169v-117h-169v-190z" />
    <glyph glyph-name="Ntilde" unicode="&#xd1;" horiz-adv-x="743" 
d="M535 710h136v-710h-149l-180 288l-20 32q-84 136 -120 201q6 -125 6 -276v-245h-136v710h152l191 -306l27 -45q62 -100 98 -163q-5 105 -5 256v258zM312 913q41 0 84 -29q36 -20 52 -20q15 0 24 13.5t9 35.5h73q0 -61 -27 -95t-71 -34q-30 0 -83 28q-41 21 -57 21
q-15 0 -24.5 -14t-9.5 -35h-74q0 60 29.5 94.5t74.5 34.5z" />
    <glyph glyph-name="Ograve" unicode="&#xd2;" horiz-adv-x="769" 
d="M385 727q157 2 254.5 -105t95.5 -267q2 -160 -95.5 -267t-254.5 -105q-159 0 -255 105t-96 267t96 267t255 105zM385 603q-94 0 -150.5 -68t-56.5 -180t56.5 -180t150.5 -68q93 0 149.5 68t56.5 180t-56.5 180t-149.5 68zM234 927h142l69 -149h-115z" />
    <glyph glyph-name="Oacute" unicode="&#xd3;" horiz-adv-x="769" 
d="M385 727q157 2 254.5 -105t95.5 -267q2 -160 -95.5 -267t-254.5 -105q-159 0 -255 105t-96 267t96 267t255 105zM385 603q-94 0 -150.5 -68t-56.5 -180t56.5 -180t150.5 -68q93 0 149.5 68t56.5 180t-56.5 180t-149.5 68zM536 927l-96 -149h-115l69 149h142z" />
    <glyph glyph-name="Ocircumflex" unicode="&#xd4;" horiz-adv-x="769" 
d="M385 727q157 2 254.5 -105t95.5 -267q2 -160 -95.5 -267t-254.5 -105q-159 0 -255 105t-96 267t96 267t255 105zM385 603q-94 0 -150.5 -68t-56.5 -180t56.5 -180t150.5 -68q93 0 149.5 68t56.5 180t-56.5 180t-149.5 68zM460 778l-75 94l-76 -94h-110l104 149h163
l104 -149h-110z" />
    <glyph glyph-name="Otilde" unicode="&#xd5;" horiz-adv-x="769" 
d="M385 727q157 2 254.5 -105t95.5 -267q2 -160 -95.5 -267t-254.5 -105q-159 0 -255 105t-96 267t96 267t255 105zM385 603q-94 0 -150.5 -68t-56.5 -180t56.5 -180t150.5 -68q93 0 149.5 68t56.5 180t-56.5 180t-149.5 68zM316 913q41 0 84 -29q36 -20 52 -20
q15 0 24 13.5t9 35.5h73q0 -61 -27 -95t-71 -34q-30 0 -83 28q-41 21 -57 21q-15 0 -24.5 -14t-9.5 -35h-74q0 60 29.5 94.5t74.5 34.5z" />
    <glyph glyph-name="Odieresis" unicode="&#xd6;" horiz-adv-x="769" 
d="M385 727q157 2 254.5 -105t95.5 -267q2 -160 -95.5 -267t-254.5 -105q-159 0 -255 105t-96 267t96 267t255 105zM385 603q-94 0 -150.5 -68t-56.5 -180t56.5 -180t150.5 -68q93 0 149.5 68t56.5 180t-56.5 180t-149.5 68zM349 909v-122h-125v122h125zM546 909v-122h-125
v122h125z" />
    <glyph glyph-name="multiply" unicode="&#xd7;" horiz-adv-x="600" 
d="M543 474l-164 -164l164 -164l-79 -79l-164 164l-164 -164l-79 79l164 164l-164 164l79 79l164 -164l164 164z" />
    <glyph glyph-name="Oslash" unicode="&#xd8;" horiz-adv-x="769" 
d="M700 658l-45 -54q80 -100 80 -249q2 -160 -95.5 -267t-254.5 -105q-117 0 -202 59l-42 -50l-72 60l45 54q-80 100 -80 249q0 162 96 267t255 105q116 0 201 -58l42 50zM178 355q0 -78 29 -138l294 350q-49 36 -116 36q-94 0 -150.5 -68t-56.5 -180zM385 107
q93 0 149.5 68t56.5 180q0 78 -29 138l-294 -350q50 -36 117 -36z" />
    <glyph glyph-name="Ugrave" unicode="&#xd9;" horiz-adv-x="706" 
d="M638 710v-470q0 -129 -73.5 -193t-211.5 -64t-211.5 64t-73.5 193v470h140v-465q0 -67 36.5 -102.5t108.5 -35.5q71 0 108 35.5t37 102.5v465h140zM202 927h142l69 -149h-115z" />
    <glyph glyph-name="Uacute" unicode="&#xda;" horiz-adv-x="706" 
d="M638 710v-470q0 -129 -73.5 -193t-211.5 -64t-211.5 64t-73.5 193v470h140v-465q0 -67 36.5 -102.5t108.5 -35.5q71 0 108 35.5t37 102.5v465h140zM504 927l-96 -149h-115l69 149h142z" />
    <glyph glyph-name="Ucircumflex" unicode="&#xdb;" horiz-adv-x="706" 
d="M638 710v-470q0 -129 -73.5 -193t-211.5 -64t-211.5 64t-73.5 193v470h140v-465q0 -67 36.5 -102.5t108.5 -35.5q71 0 108 35.5t37 102.5v465h140zM428 778l-75 94l-76 -94h-110l104 149h163l104 -149h-110z" />
    <glyph glyph-name="Udieresis" unicode="&#xdc;" horiz-adv-x="706" 
d="M638 710v-470q0 -129 -73.5 -193t-211.5 -64t-211.5 64t-73.5 193v470h140v-465q0 -67 36.5 -102.5t108.5 -35.5q71 0 108 35.5t37 102.5v465h140zM317 909v-122h-125v122h125zM514 909v-122h-125v122h125z" />
    <glyph glyph-name="Yacute" unicode="&#xdd;" horiz-adv-x="657" 
d="M500 710h149l-251 -412v-298h-140v299l-250 411h154l169 -288zM480 927l-96 -149h-115l69 149h142z" />
    <glyph glyph-name="Thorn" unicode="&#xde;" horiz-adv-x="681" 
d="M212 590h202q107 0 170.5 -61.5t63.5 -162.5t-63.5 -162t-170.5 -61h-202v-143h-140v710h140v-120zM212 259h177q56 0 88 28t32 79t-31.5 79.5t-88.5 28.5h-177v-215z" />
    <glyph glyph-name="germandbls" unicode="&#xdf;" horiz-adv-x="606" 
d="M436 399q137 -48 137 -187q0 -94 -60 -157.5t-164 -63.5q-57 0 -113 14l19 106q48 -8 80 -8q48 0 77 30.5t29 83.5q0 54 -40 83.5t-110 29.5h-23v105h23q47 0 73 24t26 66q0 40 -27.5 65t-70.5 25q-48 0 -76.5 -32t-28.5 -89v-494h-130v500q0 108 67 166.5t168 58.5
q100 0 162.5 -56t62.5 -134q0 -95 -81 -136z" />
    <glyph glyph-name="agrave" unicode="&#xe0;" horiz-adv-x="560" 
d="M281 528q106 0 164 -49t58 -134v-345h-117v53q-51 -70 -165 -70q-82 0 -132.5 38t-50.5 108q0 77 56 119t165 61l120 22v12q0 37 -25.5 57.5t-70.5 20.5q-49 0 -80 -19q-36 -22 -79 -64l-82 75q97 115 239 115zM243 87q60 0 98 31t38 90v30l-86 -18q-69 -15 -98.5 -32.5
t-29.5 -49.5q0 -24 20.5 -37.5t57.5 -13.5zM134 728h142l69 -149h-115z" />
    <glyph glyph-name="aacute" unicode="&#xe1;" horiz-adv-x="560" 
d="M281 528q106 0 164 -49t58 -134v-345h-117v53q-51 -70 -165 -70q-82 0 -132.5 38t-50.5 108q0 77 56 119t165 61l120 22v12q0 37 -25.5 57.5t-70.5 20.5q-49 0 -80 -19q-36 -22 -79 -64l-82 75q97 115 239 115zM243 87q60 0 98 31t38 90v30l-86 -18q-69 -15 -98.5 -32.5
t-29.5 -49.5q0 -24 20.5 -37.5t57.5 -13.5zM436 728l-96 -149h-115l69 149h142z" />
    <glyph glyph-name="acircumflex" unicode="&#xe2;" horiz-adv-x="560" 
d="M281 528q106 0 164 -49t58 -134v-345h-117v53q-51 -70 -165 -70q-82 0 -132.5 38t-50.5 108q0 77 56 119t165 61l120 22v12q0 37 -25.5 57.5t-70.5 20.5q-49 0 -80 -19q-36 -22 -79 -64l-82 75q97 115 239 115zM243 87q60 0 98 31t38 90v30l-86 -18q-69 -15 -98.5 -32.5
t-29.5 -49.5q0 -24 20.5 -37.5t57.5 -13.5zM360 579l-75 94l-76 -94h-110l104 149h163l104 -149h-110z" />
    <glyph glyph-name="atilde" unicode="&#xe3;" horiz-adv-x="560" 
d="M281 528q106 0 164 -49t58 -134v-345h-117v53q-51 -70 -165 -70q-82 0 -132.5 38t-50.5 108q0 77 56 119t165 61l120 22v12q0 37 -25.5 57.5t-70.5 20.5q-49 0 -80 -19q-36 -22 -79 -64l-82 75q97 115 239 115zM243 87q60 0 98 31t38 90v30l-86 -18q-69 -15 -98.5 -32.5
t-29.5 -49.5q0 -24 20.5 -37.5t57.5 -13.5zM216 714q41 0 84 -29q36 -20 52 -20q15 0 24 13.5t9 35.5h73q0 -61 -27 -95t-71 -34q-30 0 -83 28q-41 21 -57 21q-15 0 -24.5 -14t-9.5 -35h-74q0 60 29.5 94.5t74.5 34.5z" />
    <glyph glyph-name="adieresis" unicode="&#xe4;" horiz-adv-x="560" 
d="M281 528q106 0 164 -49t58 -134v-345h-117v53q-51 -70 -165 -70q-82 0 -132.5 38t-50.5 108q0 77 56 119t165 61l120 22v12q0 37 -25.5 57.5t-70.5 20.5q-49 0 -80 -19q-36 -22 -79 -64l-82 75q97 115 239 115zM243 87q60 0 98 31t38 90v30l-86 -18q-69 -15 -98.5 -32.5
t-29.5 -49.5q0 -24 20.5 -37.5t57.5 -13.5zM249 710v-122h-125v122h125zM446 710v-122h-125v122h125z" />
    <glyph glyph-name="aring" unicode="&#xe5;" horiz-adv-x="560" 
d="M281 528q106 0 164 -49t58 -134v-345h-117v53q-51 -70 -165 -70q-82 0 -132.5 38t-50.5 108q0 77 56 119t165 61l120 22v12q0 37 -25.5 57.5t-70.5 20.5q-49 0 -80 -19q-36 -22 -79 -64l-82 75q97 115 239 115zM243 87q60 0 98 31t38 90v30l-86 -18q-69 -15 -98.5 -32.5
t-29.5 -49.5q0 -24 20.5 -37.5t57.5 -13.5zM285 805q51 0 86 -34q36 -35 36 -82q0 -49 -36 -83q-35 -34 -86 -34t-86 34q-36 34 -36 83q0 47 36 82q35 34 86 34zM285 749q-26 0 -43 -17t-17 -43q0 -27 17 -44t43 -17t43 17t17 44q0 26 -17 43t-43 17z" />
    <glyph glyph-name="ae" unicode="&#xe6;" horiz-adv-x="910" 
d="M876 273q0 -19 -2 -49h-366q7 -61 43 -95.5t98 -34.5q43 0 75 15q30 15 76 55l74 -80q-53 -54 -107 -77t-121 -23q-132 0 -204 84q-85 -85 -212 -85q-90 0 -141 36.5t-51 108.5t49 113t157 61l135 25v8q0 44 -24 65t-75 21q-40 0 -74.5 -18.5t-78.5 -65.5l-85 76
q55 61 110 88t132 27q119 0 177 -64q68 64 174 64q115 0 178 -67.5t63 -187.5zM511 314h239q-3 54 -33 84t-83 30q-99 0 -123 -114zM249 87q90 0 145 67q-11 38 -14 81l-116 -26q-98 -22 -98 -70q0 -52 83 -52z" />
    <glyph glyph-name="ccedilla" unicode="&#xe7;" horiz-adv-x="528" 
d="M432 174l86 -72q-47 -59 -94.5 -86t-107.5 -31l-23 -51q47 -1 75.5 -23.5t28.5 -58.5q0 -43 -31.5 -69.5t-83.5 -26.5q-57 0 -114 39l34 52q44 -27 80 -27q20 0 32.5 8.5t12.5 22.5t-14.5 22.5t-35.5 8.5q-16 0 -28 -3l-34 31l35 77q-101 12 -160.5 84t-59.5 185
q0 124 73 198t191 74q65 0 115.5 -22.5t98.5 -74.5l-81 -80q-40 38 -70 52.5t-63 14.5q-61 0 -96.5 -45.5t-35.5 -116.5t35 -116t96 -45q36 0 67.5 18t71.5 61z" />
    <glyph glyph-name="egrave" unicode="&#xe8;" horiz-adv-x="560" 
d="M301 94q43 0 74 15q31 16 78 55l73 -80q-53 -54 -107 -77t-121 -23q-123 0 -195.5 73t-72.5 196q0 121 70 198t187 77q114 0 176.5 -67t62.5 -188q0 -21 -2 -51h-367q9 -61 45.5 -94.5t98.5 -33.5zM283 426q-99 0 -123 -111h239q-4 52 -34.5 81.5t-81.5 29.5zM140 728
h142l69 -149h-115z" />
    <glyph glyph-name="eacute" unicode="&#xe9;" horiz-adv-x="560" 
d="M301 94q43 0 74 15q31 16 78 55l73 -80q-53 -54 -107 -77t-121 -23q-123 0 -195.5 73t-72.5 196q0 121 70 198t187 77q114 0 176.5 -67t62.5 -188q0 -21 -2 -51h-367q9 -61 45.5 -94.5t98.5 -33.5zM283 426q-99 0 -123 -111h239q-4 52 -34.5 81.5t-81.5 29.5zM442 728
l-96 -149h-115l69 149h142z" />
    <glyph glyph-name="ecircumflex" unicode="&#xea;" horiz-adv-x="560" 
d="M301 94q43 0 74 15q31 16 78 55l73 -80q-53 -54 -107 -77t-121 -23q-123 0 -195.5 73t-72.5 196q0 121 70 198t187 77q114 0 176.5 -67t62.5 -188q0 -21 -2 -51h-367q9 -61 45.5 -94.5t98.5 -33.5zM283 426q-99 0 -123 -111h239q-4 52 -34.5 81.5t-81.5 29.5zM366 579
l-75 94l-76 -94h-110l104 149h163l104 -149h-110z" />
    <glyph glyph-name="edieresis" unicode="&#xeb;" horiz-adv-x="560" 
d="M301 94q43 0 74 15q31 16 78 55l73 -80q-53 -54 -107 -77t-121 -23q-123 0 -195.5 73t-72.5 196q0 121 70 198t187 77q114 0 176.5 -67t62.5 -188q0 -21 -2 -51h-367q9 -61 45.5 -94.5t98.5 -33.5zM283 426q-99 0 -123 -111h239q-4 52 -34.5 81.5t-81.5 29.5zM255 710
v-122h-125v122h125zM452 710v-122h-125v122h125z" />
    <glyph glyph-name="igrave" unicode="&#xec;" horiz-adv-x="244" 
d="M187 511v-511h-130v511h130zM-29 728h142l69 -149h-115z" />
    <glyph glyph-name="iacute" unicode="&#xed;" horiz-adv-x="244" 
d="M187 511v-511h-130v511h130zM273 728l-96 -149h-115l69 149h142z" />
    <glyph glyph-name="icircumflex" unicode="&#xee;" horiz-adv-x="244" 
d="M187 511v-511h-130v511h130zM197 579l-75 94l-76 -94h-110l104 149h163l104 -149h-110z" />
    <glyph glyph-name="idieresis" unicode="&#xef;" horiz-adv-x="244" 
d="M187 511v-511h-130v511h130zM86 710v-122h-125v122h125zM283 710v-122h-125v122h125z" />
    <glyph glyph-name="eth" unicode="&#xf0;" horiz-adv-x="583" 
d="M456 656l-59 -37q140 -113 140 -326q0 -147 -70 -228.5t-189 -81.5q-113 0 -180.5 73.5t-67.5 178.5q0 101 61.5 170.5t160.5 69.5q95 0 150 -65q-26 85 -114 140l-85 -53l-39 55l55 35l-45 18l-48 18l47 104l51 -17q67 -22 113 -50l79 50zM278 97q53 0 87 38.5t34 96.5
q0 57 -35 95t-88 38t-84.5 -37t-31.5 -96t32.5 -97t85.5 -38z" />
    <glyph glyph-name="ntilde" unicode="&#xf1;" horiz-adv-x="572" 
d="M332 528q86 0 134.5 -48.5t48.5 -129.5v-350h-130v311q0 51 -24.5 78t-70.5 27q-45 0 -74 -30t-29 -78v-308h-130v511h121v-58q52 75 154 75zM215 714q41 0 84 -29q36 -20 52 -20q15 0 24 13.5t9 35.5h73q0 -61 -27 -95t-71 -34q-30 0 -83 28q-41 21 -57 21
q-15 0 -24.5 -14t-9.5 -35h-74q0 60 29.5 94.5t74.5 34.5z" />
    <glyph glyph-name="ograve" unicode="&#xf2;" horiz-adv-x="591" 
d="M296 528q116 0 190.5 -75.5t74.5 -196.5t-74.5 -196.5t-190.5 -75.5q-117 0 -191.5 75.5t-74.5 196.5t74.5 196.5t191.5 75.5zM296 418q-61 0 -97.5 -44.5t-36.5 -117.5q0 -74 36.5 -118t97.5 -44q60 0 96.5 44t36.5 118q0 73 -36.5 117.5t-96.5 44.5zM143 728h142
l69 -149h-115z" />
    <glyph glyph-name="oacute" unicode="&#xf3;" horiz-adv-x="591" 
d="M296 528q116 0 190.5 -75.5t74.5 -196.5t-74.5 -196.5t-190.5 -75.5q-117 0 -191.5 75.5t-74.5 196.5t74.5 196.5t191.5 75.5zM296 418q-61 0 -97.5 -44.5t-36.5 -117.5q0 -74 36.5 -118t97.5 -44q60 0 96.5 44t36.5 118q0 73 -36.5 117.5t-96.5 44.5zM445 728l-96 -149
h-115l69 149h142z" />
    <glyph glyph-name="ocircumflex" unicode="&#xf4;" horiz-adv-x="591" 
d="M296 528q116 0 190.5 -75.5t74.5 -196.5t-74.5 -196.5t-190.5 -75.5q-117 0 -191.5 75.5t-74.5 196.5t74.5 196.5t191.5 75.5zM296 418q-61 0 -97.5 -44.5t-36.5 -117.5q0 -74 36.5 -118t97.5 -44q60 0 96.5 44t36.5 118q0 73 -36.5 117.5t-96.5 44.5zM369 579l-75 94
l-76 -94h-110l104 149h163l104 -149h-110z" />
    <glyph glyph-name="otilde" unicode="&#xf5;" horiz-adv-x="591" 
d="M296 528q116 0 190.5 -75.5t74.5 -196.5t-74.5 -196.5t-190.5 -75.5q-117 0 -191.5 75.5t-74.5 196.5t74.5 196.5t191.5 75.5zM296 418q-61 0 -97.5 -44.5t-36.5 -117.5q0 -74 36.5 -118t97.5 -44q60 0 96.5 44t36.5 118q0 73 -36.5 117.5t-96.5 44.5zM225 714
q41 0 84 -29q36 -20 52 -20q15 0 24 13.5t9 35.5h73q0 -61 -27 -95t-71 -34q-30 0 -83 28q-41 21 -57 21q-15 0 -24.5 -14t-9.5 -35h-74q0 60 29.5 94.5t74.5 34.5z" />
    <glyph glyph-name="odieresis" unicode="&#xf6;" horiz-adv-x="591" 
d="M296 528q116 0 190.5 -75.5t74.5 -196.5t-74.5 -196.5t-190.5 -75.5q-117 0 -191.5 75.5t-74.5 196.5t74.5 196.5t191.5 75.5zM296 418q-61 0 -97.5 -44.5t-36.5 -117.5q0 -74 36.5 -118t97.5 -44q60 0 96.5 44t36.5 118q0 73 -36.5 117.5t-96.5 44.5zM258 710v-122h-125
v122h125zM455 710v-122h-125v122h125z" />
    <glyph glyph-name="divide" unicode="&#xf7;" horiz-adv-x="600" 
d="M371 571v-145h-142v145h142zM560 366v-112h-520v112h520zM371 194v-145h-142v145h142z" />
    <glyph glyph-name="oslash" unicode="&#xf8;" horiz-adv-x="591" 
d="M510 490l-25 -36q76 -76 76 -198q0 -121 -74.5 -196.5t-190.5 -75.5q-65 0 -122 26l-26 -37l-68 48l26 37q-76 76 -76 198q0 121 74.5 196.5t191.5 75.5q64 0 121 -26l25 36zM162 256q0 -52 19 -91l169 242q-27 11 -54 11q-61 0 -97.5 -44.5t-36.5 -117.5zM296 94
q60 0 96.5 44t36.5 118q0 52 -19 91l-169 -242q27 -11 55 -11z" />
    <glyph glyph-name="ugrave" unicode="&#xf9;" horiz-adv-x="564" 
d="M377 511h130v-511h-119v54q-43 -70 -150 -70q-89 0 -135 43t-46 119v365h130v-329q0 -40 22 -62.5t63 -22.5q49 0 77 27.5t28 78.5v308zM125 728h142l69 -149h-115z" />
    <glyph glyph-name="uacute" unicode="&#xfa;" horiz-adv-x="564" 
d="M377 511h130v-511h-119v54q-43 -70 -150 -70q-89 0 -135 43t-46 119v365h130v-329q0 -40 22 -62.5t63 -22.5q49 0 77 27.5t28 78.5v308zM427 728l-96 -149h-115l69 149h142z" />
    <glyph glyph-name="ucircumflex" unicode="&#xfb;" horiz-adv-x="564" 
d="M377 511h130v-511h-119v54q-43 -70 -150 -70q-89 0 -135 43t-46 119v365h130v-329q0 -40 22 -62.5t63 -22.5q49 0 77 27.5t28 78.5v308zM351 579l-75 94l-76 -94h-110l104 149h163l104 -149h-110z" />
    <glyph glyph-name="udieresis" unicode="&#xfc;" horiz-adv-x="564" 
d="M377 511h130v-511h-119v54q-43 -70 -150 -70q-89 0 -135 43t-46 119v365h130v-329q0 -40 22 -62.5t63 -22.5q49 0 77 27.5t28 78.5v308zM240 710v-122h-125v122h125zM437 710v-122h-125v122h125z" />
    <glyph glyph-name="yacute" unicode="&#xfd;" horiz-adv-x="521" 
d="M379 511h132l-197 -568q-26 -74 -66.5 -106t-110.5 -32q-56 0 -98 13l22 97q31 -6 60 -6q60 0 81 64l-192 538h136l45 -134q44 -131 73 -227q41 135 71 228zM412 728l-96 -149h-115l69 149h142z" />
    <glyph glyph-name="thorn" unicode="&#xfe;" horiz-adv-x="599" 
d="M341 526q99 0 162.5 -74.5t63.5 -195.5t-64 -195.5t-163 -74.5q-101 0 -153 67v-233h-130v891h130v-254q55 69 154 69zM310 99q57 0 91 42.5t34 114.5t-33.5 115t-90.5 43t-93 -43.5t-36 -114.5q0 -72 35.5 -114.5t92.5 -42.5z" />
    <glyph glyph-name="ydieresis" unicode="&#xff;" horiz-adv-x="521" 
d="M379 511h132l-197 -568q-26 -74 -66.5 -106t-110.5 -32q-56 0 -98 13l22 97q31 -6 60 -6q60 0 81 64l-192 538h136l45 -134q44 -131 73 -227q41 135 71 228zM225 710v-122h-125v122h125zM422 710v-122h-125v122h125z" />
    <glyph glyph-name="Amacron" unicode="&#x100;" horiz-adv-x="712" 
d="M557 0l-48 142h-309l-49 -142h-141l254 710h184l254 -710h-145zM240 258h229l-28 82q-16 45 -17 50q-48 136 -70 212q-19 -65 -77 -234l-10 -30zM515 884v-94h-320v94h320z" />
    <glyph glyph-name="amacron" unicode="&#x101;" horiz-adv-x="560" 
d="M281 528q106 0 164 -49t58 -134v-345h-117v53q-51 -70 -165 -70q-82 0 -132.5 38t-50.5 108q0 77 56 119t165 61l120 22v12q0 37 -25.5 57.5t-70.5 20.5q-49 0 -80 -19q-36 -22 -79 -64l-82 75q97 115 239 115zM243 87q60 0 98 31t38 90v30l-86 -18q-69 -15 -98.5 -32.5
t-29.5 -49.5q0 -24 20.5 -37.5t57.5 -13.5zM445 685v-94h-320v94h320z" />
    <glyph glyph-name="Abreve" unicode="&#x102;" horiz-adv-x="712" 
d="M557 0l-48 142h-309l-49 -142h-141l254 710h184l254 -710h-145zM240 258h229l-28 82q-16 45 -17 50q-48 136 -70 212q-19 -65 -77 -234l-10 -30zM355 769q-73 0 -118.5 39t-45.5 109h96q0 -34 17.5 -54t50.5 -20t50.5 20t17.5 54h96q0 -70 -45.5 -109t-118.5 -39z" />
    <glyph glyph-name="abreve" unicode="&#x103;" horiz-adv-x="560" 
d="M281 528q106 0 164 -49t58 -134v-345h-117v53q-51 -70 -165 -70q-82 0 -132.5 38t-50.5 108q0 77 56 119t165 61l120 22v12q0 37 -25.5 57.5t-70.5 20.5q-49 0 -80 -19q-36 -22 -79 -64l-82 75q97 115 239 115zM243 87q60 0 98 31t38 90v30l-86 -18q-69 -15 -98.5 -32.5
t-29.5 -49.5q0 -24 20.5 -37.5t57.5 -13.5zM285 570q-73 0 -118.5 39t-45.5 109h96q0 -34 17.5 -54t50.5 -20t50.5 20t17.5 54h96q0 -70 -45.5 -109t-118.5 -39z" />
    <glyph glyph-name="Aogonek" unicode="&#x104;" horiz-adv-x="712" 
d="M616 -103q0 -36 49 -36q17 0 29 4v-75q-18 -8 -49 -8q-58 0 -88.5 24.5t-30.5 67.5q0 68 72 126h-41l-48 142h-309l-49 -142h-141l254 710h184l254 -710q-86 -53 -86 -103zM240 258h229l-28 82q-16 45 -17 50q-48 136 -70 212q-19 -65 -77 -234l-10 -30z" />
    <glyph glyph-name="aogonek" unicode="&#x105;" horiz-adv-x="560" 
d="M503 345v-345q-86 -53 -86 -103q0 -36 49 -36q17 0 29 4v-75q-18 -8 -49 -8q-58 0 -88.5 24.5t-30.5 67.5q0 68 72 126h-13v53q-51 -70 -165 -70q-82 0 -132.5 38t-50.5 108q0 77 56 119t165 61l120 22v12q0 37 -25.5 57.5t-70.5 20.5q-49 0 -80 -19q-36 -22 -79 -64
l-82 75q97 115 239 115q106 0 164 -49t58 -134zM243 87q60 0 98 31t38 90v30l-86 -18q-69 -15 -98.5 -32.5t-29.5 -49.5q0 -24 20.5 -37.5t57.5 -13.5z" />
    <glyph glyph-name="Cacute" unicode="&#x106;" horiz-adv-x="675" 
d="M388 727q79 0 139 -24.5t125 -81.5l-82 -97q-52 45 -93 62.5t-90 17.5q-97 0 -153.5 -67.5t-56.5 -180.5t57 -181.5t151 -68.5q55 0 95 21q39 19 101 70l82 -95q-67 -63 -131 -91t-145 -28q-161 0 -257 105t-96 269q0 163 95 266.5t259 103.5zM539 927l-96 -149h-115
l69 149h142z" />
    <glyph glyph-name="cacute" unicode="&#x107;" horiz-adv-x="528" 
d="M508 431l-81 -80q-40 38 -70 52.5t-63 14.5q-61 0 -96.5 -45.5t-35.5 -116.5t35 -116t96 -45q36 0 67.5 18t71.5 61l86 -72q-52 -65 -104.5 -91.5t-122.5 -26.5q-117 0 -189 74t-72 198t73 198t191 74q65 0 115.5 -22.5t98.5 -74.5zM439 728l-96 -149h-115l69 149h142z
" />
    <glyph glyph-name="Cdotaccent" unicode="&#x10a;" horiz-adv-x="675" 
d="M388 727q79 0 139 -24.5t125 -81.5l-82 -97q-52 45 -93 62.5t-90 17.5q-97 0 -153.5 -67.5t-56.5 -180.5t57 -181.5t151 -68.5q55 0 95 21q39 19 101 70l82 -95q-67 -63 -131 -91t-145 -28q-161 0 -257 105t-96 269q0 163 95 266.5t259 103.5zM453 909v-122h-130v122h130
z" />
    <glyph glyph-name="cdotaccent" unicode="&#x10b;" horiz-adv-x="528" 
d="M508 431l-81 -80q-40 38 -70 52.5t-63 14.5q-61 0 -96.5 -45.5t-35.5 -116.5t35 -116t96 -45q36 0 67.5 18t71.5 61l86 -72q-52 -65 -104.5 -91.5t-122.5 -26.5q-117 0 -189 74t-72 198t73 198t191 74q65 0 115.5 -22.5t98.5 -74.5zM353 710v-122h-130v122h130z" />
    <glyph glyph-name="Ccaron" unicode="&#x10c;" horiz-adv-x="675" 
d="M388 727q79 0 139 -24.5t125 -81.5l-82 -97q-52 45 -93 62.5t-90 17.5q-97 0 -153.5 -67.5t-56.5 -180.5t57 -181.5t151 -68.5q55 0 95 21q39 19 101 70l82 -95q-67 -63 -131 -91t-145 -28q-161 0 -257 105t-96 269q0 163 95 266.5t259 103.5zM573 927l-104 -149h-163
l-104 149h110l76 -94l75 94h110z" />
    <glyph glyph-name="ccaron" unicode="&#x10d;" horiz-adv-x="528" 
d="M508 431l-81 -80q-40 38 -70 52.5t-63 14.5q-61 0 -96.5 -45.5t-35.5 -116.5t35 -116t96 -45q36 0 67.5 18t71.5 61l86 -72q-52 -65 -104.5 -91.5t-122.5 -26.5q-117 0 -189 74t-72 198t73 198t191 74q65 0 115.5 -22.5t98.5 -74.5zM473 728l-104 -149h-163l-104 149h110
l76 -94l75 94h110z" />
    <glyph glyph-name="Dcaron" unicode="&#x10e;" horiz-adv-x="718" 
d="M72 710h289q149 0 236 -98t87 -257t-87 -257t-236 -98h-289v710zM340 592h-128v-474h128q93 0 146.5 61t53.5 176t-53.5 176t-146.5 61zM542 927l-104 -149h-163l-104 149h110l76 -94l75 94h110z" />
    <glyph glyph-name="dcaron" unicode="&#x10f;" horiz-adv-x="767" 
d="M410 710h130v-710h-121v67q-55 -82 -163 -82q-99 0 -162.5 74.5t-63.5 195.5t64 195.5t163 74.5q101 0 153 -67v252zM286 97q57 0 93 43.5t36 114.5q0 72 -35.5 114.5t-92.5 42.5t-91 -42.5t-34 -114.5t33.5 -115t90.5 -43zM762 710l-74 -215h-80l27 215h127z" />
    <glyph glyph-name="Dcroat" unicode="&#x110;" horiz-adv-x="748" 
d="M102 710h289q149 0 236 -98t87 -257t-87 -257t-236 -98h-289v308h-76v117h76v285zM242 118h128q93 0 146.5 61t53.5 176t-53.5 176t-146.5 61h-128v-167h169v-117h-169v-190z" />
    <glyph glyph-name="dslash" unicode="&#x111;" horiz-adv-x="622" 
d="M612 642v-87h-70v-555h-120v68q-54 -83 -164 -83q-99 0 -162.5 73.5t-63.5 191.5t64 191.5t163 73.5q101 0 153 -66v106h-125v87h125v68h130v-68h70zM288 97q57 0 93 42t36 111t-36 110.5t-92 41.5t-90.5 -41.5t-34.5 -110.5t33.5 -111t90.5 -42z" />
    <glyph glyph-name="Emacron" unicode="&#x112;" horiz-adv-x="628" 
d="M571 710v-118h-359v-166h336v-118h-336v-190h370v-118h-510v710h499zM487 884v-94h-320v94h320z" />
    <glyph glyph-name="emacron" unicode="&#x113;" horiz-adv-x="560" 
d="M301 94q43 0 74 15q31 16 78 55l73 -80q-53 -54 -107 -77t-121 -23q-123 0 -195.5 73t-72.5 196q0 121 70 198t187 77q114 0 176.5 -67t62.5 -188q0 -21 -2 -51h-367q9 -61 45.5 -94.5t98.5 -33.5zM283 426q-99 0 -123 -111h239q-4 52 -34.5 81.5t-81.5 29.5zM451 685
v-94h-320v94h320z" />
    <glyph glyph-name="Edotaccent" unicode="&#x116;" horiz-adv-x="628" 
d="M571 710v-118h-359v-166h336v-118h-336v-190h370v-118h-510v710h499zM392 909v-122h-130v122h130z" />
    <glyph glyph-name="edotaccent" unicode="&#x117;" horiz-adv-x="560" 
d="M301 94q43 0 74 15q31 16 78 55l73 -80q-53 -54 -107 -77t-121 -23q-123 0 -195.5 73t-72.5 196q0 121 70 198t187 77q114 0 176.5 -67t62.5 -188q0 -21 -2 -51h-367q9 -61 45.5 -94.5t98.5 -33.5zM283 426q-99 0 -123 -111h239q-4 52 -34.5 81.5t-81.5 29.5zM356 710
v-122h-130v122h130z" />
    <glyph glyph-name="Eogonek" unicode="&#x118;" horiz-adv-x="628" 
d="M582 118v-118q-86 -53 -86 -103q0 -36 49 -36q17 0 29 4v-75q-18 -8 -49 -8q-58 0 -88.5 24.5t-30.5 67.5q0 68 72 126h-406v710h499v-118h-359v-166h336v-118h-336v-190h370z" />
    <glyph glyph-name="eogonek" unicode="&#x119;" horiz-adv-x="560" 
d="M415 -218q-59 0 -90 25.5t-31 68.5q0 62 49 111q-23 -3 -45 -3q-123 0 -195.5 73t-72.5 196q0 121 70 198t187 77q114 0 176.5 -67t62.5 -188q0 -21 -2 -51h-367q9 -61 45.5 -94.5t98.5 -33.5q43 0 74 15q31 16 78 55l73 -80q-6 -6 -48 -44q-94 -81 -94 -140
q0 -39 49 -39q17 0 29 4v-77q-19 -6 -47 -6zM160 315h239q-4 52 -34.5 81.5t-81.5 29.5q-99 0 -123 -111z" />
    <glyph glyph-name="Ecaron" unicode="&#x11a;" horiz-adv-x="628" 
d="M571 710v-118h-359v-166h336v-118h-336v-190h370v-118h-510v710h499zM512 927l-104 -149h-163l-104 149h110l76 -94l75 94h110z" />
    <glyph glyph-name="ecaron" unicode="&#x11b;" horiz-adv-x="560" 
d="M301 94q43 0 74 15q31 16 78 55l73 -80q-53 -54 -107 -77t-121 -23q-123 0 -195.5 73t-72.5 196q0 121 70 198t187 77q114 0 176.5 -67t62.5 -188q0 -21 -2 -51h-367q9 -61 45.5 -94.5t98.5 -33.5zM283 426q-99 0 -123 -111h239q-4 52 -34.5 81.5t-81.5 29.5zM476 728
l-104 -149h-163l-104 149h110l76 -94l75 94h110z" />
    <glyph glyph-name="Gbreve" unicode="&#x11e;" horiz-adv-x="754" 
d="M364 276v118h330v-394h-107l-7 67q-62 -83 -203 -83q-159 0 -251 103t-92 269q0 162 97 266t261 104q92 0 161.5 -30.5t140.5 -102.5l-88 -91q-62 56 -109.5 78.5t-105.5 22.5q-98 0 -156 -65.5t-58 -181.5q0 -119 56 -184.5t155 -65.5q84 0 131.5 42.5t47.5 116.5v11
h-203zM386 769q-73 0 -118.5 39t-45.5 109h96q0 -34 17.5 -54t50.5 -20t50.5 20t17.5 54h96q0 -70 -45.5 -109t-118.5 -39z" />
    <glyph glyph-name="gbreve" unicode="&#x11f;" 
d="M413 511h120v-486q0 -105 -69 -163t-181 -58q-127 0 -243 75l63 94q57 -34 96.5 -47.5t81.5 -13.5q59 0 92 31t33 93v41q-53 -65 -149 -65q-98 0 -161.5 72t-63.5 186q0 113 64 185.5t161 72.5q106 0 156 -74v57zM286 122q54 0 89 41t35 107t-35 106.5t-89 40.5
q-55 0 -89 -40.5t-34 -106.5t34 -107t89 -41zM296 570q-73 0 -118.5 39t-45.5 109h96q0 -34 17.5 -54t50.5 -20t50.5 20t17.5 54h96q0 -70 -45.5 -109t-118.5 -39z" />
    <glyph glyph-name="Gdotaccent" unicode="&#x120;" horiz-adv-x="754" 
d="M364 276v118h330v-394h-107l-7 67q-62 -83 -203 -83q-159 0 -251 103t-92 269q0 162 97 266t261 104q92 0 161.5 -30.5t140.5 -102.5l-88 -91q-62 56 -109.5 78.5t-105.5 22.5q-98 0 -156 -65.5t-58 -181.5q0 -119 56 -184.5t155 -65.5q84 0 131.5 42.5t47.5 116.5v11
h-203zM451 909v-122h-130v122h130z" />
    <glyph glyph-name="gdotaccent" unicode="&#x121;" 
d="M413 511h120v-486q0 -105 -69 -163t-181 -58q-127 0 -243 75l63 94q57 -34 96.5 -47.5t81.5 -13.5q59 0 92 31t33 93v41q-53 -65 -149 -65q-98 0 -161.5 72t-63.5 186q0 113 64 185.5t161 72.5q106 0 156 -74v57zM286 122q54 0 89 41t35 107t-35 106.5t-89 40.5
q-55 0 -89 -40.5t-34 -106.5t34 -107t89 -41zM361 710v-122h-130v122h130z" />
    <glyph glyph-name="Gcommaaccent" unicode="&#x122;" horiz-adv-x="754" 
d="M364 276v118h330v-394h-107l-7 67q-62 -83 -203 -83q-159 0 -251 103t-92 269q0 162 97 266t261 104q92 0 161.5 -30.5t140.5 -102.5l-88 -91q-62 56 -109.5 78.5t-105.5 22.5q-98 0 -156 -65.5t-58 -181.5q0 -119 56 -184.5t155 -65.5q84 0 131.5 42.5t47.5 116.5v11
h-203zM453 -60v-106l-72 -92h-68l66 92h-62v106h136z" />
    <glyph glyph-name="gcommaaccent" unicode="&#x123;" 
d="M413 511h120v-486q0 -105 -69 -163t-181 -58q-127 0 -243 75l63 94q57 -34 96.5 -47.5t81.5 -13.5q59 0 92 31t33 93v41q-53 -65 -149 -65q-98 0 -161.5 72t-63.5 186q0 113 64 185.5t161 72.5q106 0 156 -74v57zM286 122q54 0 89 41t35 107t-35 106.5t-89 40.5
q-55 0 -89 -40.5t-34 -106.5t34 -107t89 -41zM233 588v108l72 101h68l-66 -101h62v-108h-136z" />
    <glyph glyph-name="Hbar" unicode="&#x126;" horiz-adv-x="797" 
d="M767 613v-94h-70v-519h-140v314h-317v-314h-140v519h-70v94h70v97h140v-97h317v97h140v-97h70zM557 432v87h-317v-87h317z" />
    <glyph glyph-name="hbar" unicode="&#x127;" horiz-adv-x="595" 
d="M355 518q87 0 135 -48t48 -130v-340h-130v301q0 51 -24.5 78t-70.5 27q-45 0 -74 -30t-29 -78v-298h-130v555h-70v87h70v68h130v-68h125v-87h-125v-107q50 70 145 70z" />
    <glyph glyph-name="Imacron" unicode="&#x12a;" horiz-adv-x="298" 
d="M219 710v-710h-140v710h140zM309 884v-94h-320v94h320z" />
    <glyph glyph-name="imacron" unicode="&#x12b;" horiz-adv-x="244" 
d="M187 511v-511h-130v511h130zM282 685v-94h-320v94h320z" />
    <glyph glyph-name="Iogonek" unicode="&#x12e;" horiz-adv-x="298" 
d="M219 710v-710q-86 -53 -86 -103q0 -36 49 -36q17 0 29 4v-75q-18 -8 -49 -8q-58 0 -88.5 24.5t-30.5 67.5q0 68 72 126h-36v710h140z" />
    <glyph glyph-name="iogonek" unicode="&#x12f;" horiz-adv-x="244" 
d="M57 710h130v-122h-130v122zM57 0v511h130v-511q-86 -53 -86 -103q0 -36 49 -36q17 0 29 4v-75q-18 -8 -49 -8q-58 0 -88.5 24.5t-30.5 67.5q0 68 72 126h-26z" />
    <glyph glyph-name="Idot" unicode="&#x130;" horiz-adv-x="298" 
d="M219 710v-710h-140v710h140zM214 909v-122h-130v122h130z" />
    <glyph glyph-name="dotlessi" unicode="&#x131;" horiz-adv-x="244" 
d="M187 511v-511h-130v511h130z" />
    <glyph glyph-name="IJ" unicode="&#x132;" horiz-adv-x="771" 
d="M219 710v-710h-140v710h140zM703 710v-520q0 -102 -56 -153.5t-157 -51.5q-96 0 -187 43l41 112q86 -30 138 -30q81 0 81 96v504h140z" />
    <glyph glyph-name="ij" unicode="&#x133;" horiz-adv-x="492" 
d="M187 710v-122h-130v122h130zM435 710v-122h-130v122h130zM187 511v-511h-130v511h130zM171 -176l23 97q32 -7 57 -7q29 0 41.5 15t12.5 49v533h130v-530q0 -172 -159 -172q-57 0 -105 15z" />
    <glyph glyph-name="Kcommaaccent" unicode="&#x136;" horiz-adv-x="693" 
d="M535 0l-213 337l-110 -116v-221h-140v710h140v-318l293 318h172l-260 -273l276 -437h-158zM429 -60v-106l-72 -92h-68l66 92h-62v106h136z" />
    <glyph glyph-name="kcommaaccent" unicode="&#x137;" horiz-adv-x="549" 
d="M406 0l-147 235l-72 -73v-162h-130v710h130v-405l193 206h151l-182 -191l200 -320h-143zM361 -60v-106l-72 -92h-68l66 92h-62v106h136z" />
    <glyph glyph-name="Lacute" unicode="&#x139;" horiz-adv-x="556" 
d="M212 710v-590h314v-120h-454v710h140zM293 927l-96 -149h-115l69 149h142z" />
    <glyph glyph-name="lacute" unicode="&#x13a;" horiz-adv-x="248" 
d="M189 710v-710h-130v710h130zM273 917l-96 -149h-115l69 149h142z" />
    <glyph glyph-name="Lcommaaccent" unicode="&#x13b;" horiz-adv-x="556" 
d="M212 710v-590h314v-120h-454v710h140zM369 -60v-106l-72 -92h-68l66 92h-62v106h136z" />
    <glyph glyph-name="lcommaaccent" unicode="&#x13c;" horiz-adv-x="248" 
d="M189 710v-710h-130v710h130zM192 -60v-106l-72 -92h-68l66 92h-62v106h136z" />
    <glyph glyph-name="Lcaron" unicode="&#x13d;" horiz-adv-x="556" 
d="M212 710v-590h314v-120h-454v710h140zM441 710l-74 -215h-80l27 215h127z" />
    <glyph glyph-name="lcaron" unicode="&#x13e;" horiz-adv-x="423" 
d="M189 710v-710h-130v710h130zM418 710l-74 -215h-80l27 215h127z" />
    <glyph glyph-name="Ldot" unicode="&#x13f;" horiz-adv-x="556" 
d="M212 710v-590h314v-120h-454v710h140zM463 443v-145h-142v145h142z" />
    <glyph glyph-name="ldot" unicode="&#x140;" horiz-adv-x="471" 
d="M189 710v-710h-130v710h130zM426 404v-145h-142v145h142z" />
    <glyph glyph-name="Lslash" unicode="&#x141;" horiz-adv-x="588" 
d="M242 120h316v-120h-456v257l-82 -45v117l82 45v336h140v-264l145 79v-117l-145 -79v-209z" />
    <glyph glyph-name="lslash" unicode="&#x142;" horiz-adv-x="358" 
d="M328 514v-107l-83 -47v-360h-130v285l-85 -48v107l85 48v318h130v-243z" />
    <glyph glyph-name="Nacute" unicode="&#x143;" horiz-adv-x="743" 
d="M535 710h136v-710h-149l-180 288l-20 32q-84 136 -120 201q6 -125 6 -276v-245h-136v710h152l191 -306l27 -45q62 -100 98 -163q-5 105 -5 256v258zM532 927l-96 -149h-115l69 149h142z" />
    <glyph glyph-name="nacute" unicode="&#x144;" horiz-adv-x="572" 
d="M332 528q86 0 134.5 -48.5t48.5 -129.5v-350h-130v311q0 51 -24.5 78t-70.5 27q-45 0 -74 -30t-29 -78v-308h-130v511h121v-58q52 75 154 75zM435 728l-96 -149h-115l69 149h142z" />
    <glyph glyph-name="Ncommaaccent" unicode="&#x145;" horiz-adv-x="743" 
d="M535 710h136v-710h-149l-180 288l-20 32q-84 136 -120 201q6 -125 6 -276v-245h-136v710h152l191 -306l27 -45q62 -100 98 -163q-5 105 -5 256v258zM445 -60v-106l-72 -92h-68l66 92h-62v106h136z" />
    <glyph glyph-name="ncommaaccent" unicode="&#x146;" horiz-adv-x="572" 
d="M332 528q86 0 134.5 -48.5t48.5 -129.5v-350h-130v311q0 51 -24.5 78t-70.5 27q-45 0 -74 -30t-29 -78v-308h-130v511h121v-58q52 75 154 75zM350 -60v-106l-72 -92h-68l66 92h-62v106h136z" />
    <glyph glyph-name="Ncaron" unicode="&#x147;" horiz-adv-x="743" 
d="M535 710h136v-710h-149l-180 288l-20 32q-84 136 -120 201q6 -125 6 -276v-245h-136v710h152l191 -306l27 -45q62 -100 98 -163q-5 105 -5 256v258zM566 927l-104 -149h-163l-104 149h110l76 -94l75 94h110z" />
    <glyph glyph-name="ncaron" unicode="&#x148;" horiz-adv-x="572" 
d="M332 528q86 0 134.5 -48.5t48.5 -129.5v-350h-130v311q0 51 -24.5 78t-70.5 27q-45 0 -74 -30t-29 -78v-308h-130v511h121v-58q52 75 154 75zM469 728l-104 -149h-163l-104 149h110l76 -94l75 94h110z" />
    <glyph glyph-name="Eng" unicode="&#x14a;" horiz-adv-x="743" 
d="M535 710h136v-736q0 -172 -164 -172q-57 0 -111 17l23 107q39 -10 66 -10q50 0 56 55l-199 316q-92 145 -140 234q6 -125 6 -276v-245h-136v710h151l191 -305l12 -20q77 -124 114 -191q-5 105 -5 258v258z" />
    <glyph glyph-name="eng" unicode="&#x14b;" horiz-adv-x="572" 
d="M332 528q86 0 134.5 -48t48.5 -130v-369q0 -172 -159 -172q-57 0 -105 15l23 97q32 -7 57 -7q29 0 41.5 15t12.5 49v333q0 51 -24.5 78t-70.5 27q-45 0 -74 -30t-29 -78v-308h-130v511h121v-58q52 75 154 75z" />
    <glyph glyph-name="Omacron" unicode="&#x14c;" horiz-adv-x="769" 
d="M385 727q157 2 254.5 -105t95.5 -267q2 -160 -95.5 -267t-254.5 -105q-159 0 -255 105t-96 267t96 267t255 105zM385 603q-94 0 -150.5 -68t-56.5 -180t56.5 -180t150.5 -68q93 0 149.5 68t56.5 180t-56.5 180t-149.5 68zM545 884v-94h-320v94h320z" />
    <glyph glyph-name="omacron" unicode="&#x14d;" horiz-adv-x="591" 
d="M296 528q116 0 190.5 -75.5t74.5 -196.5t-74.5 -196.5t-190.5 -75.5q-117 0 -191.5 75.5t-74.5 196.5t74.5 196.5t191.5 75.5zM296 418q-61 0 -97.5 -44.5t-36.5 -117.5q0 -74 36.5 -118t97.5 -44q60 0 96.5 44t36.5 118q0 73 -36.5 117.5t-96.5 44.5zM454 685v-94h-320
v94h320z" />
    <glyph glyph-name="Ohungarumlaut" unicode="&#x150;" horiz-adv-x="769" 
d="M385 727q157 2 254.5 -105t95.5 -267q2 -160 -95.5 -267t-254.5 -105q-159 0 -255 105t-96 267t96 267t255 105zM385 603q-94 0 -150.5 -68t-56.5 -180t56.5 -180t150.5 -68q93 0 149.5 68t56.5 180t-56.5 180t-149.5 68zM442 927l-98 -150h-92l69 150h121zM612 927
l-98 -150h-92l69 150h121z" />
    <glyph glyph-name="ohungarumlaut" unicode="&#x151;" horiz-adv-x="591" 
d="M296 528q116 0 190.5 -75.5t74.5 -196.5t-74.5 -196.5t-190.5 -75.5q-117 0 -191.5 75.5t-74.5 196.5t74.5 196.5t191.5 75.5zM296 418q-61 0 -97.5 -44.5t-36.5 -117.5q0 -74 36.5 -118t97.5 -44q60 0 96.5 44t36.5 118q0 73 -36.5 117.5t-96.5 44.5zM351 728l-98 -150
h-92l69 150h121zM521 728l-98 -150h-92l69 150h121z" />
    <glyph glyph-name="OE" unicode="&#x152;" horiz-adv-x="1147" 
d="M731 118h370v-118h-510v67q-83 -84 -211 -84q-156 -2 -252 104.5t-94 267.5q-2 161 94 267.5t252 104.5q128 0 211 -84v67h499v-118h-359v-166h336v-118h-336v-190zM385 107q93 0 149.5 68t56.5 180t-56.5 180t-149.5 68q-94 0 -150.5 -68t-56.5 -180t56.5 -180
t150.5 -68z" />
    <glyph glyph-name="oe" unicode="&#x153;" horiz-adv-x="965" 
d="M931 273q0 -19 -2 -49h-366q7 -61 43 -95.5t98 -34.5q44 0 75 15q30 15 76 55l74 -80q-53 -54 -107 -77t-121 -23q-135 0 -205 87q-75 -87 -200 -87q-117 0 -191.5 75.5t-74.5 196.5t74.5 196.5t191.5 75.5q127 0 200 -87q68 87 194 87q115 0 178 -67.5t63 -187.5z
M689 428q-99 0 -123 -114h239q-3 54 -33 84t-83 30zM296 94q60 0 96.5 44t36.5 118q0 73 -36.5 117.5t-96.5 44.5q-61 0 -97.5 -44.5t-36.5 -117.5q0 -74 36.5 -118t97.5 -44z" />
    <glyph glyph-name="Racute" unicode="&#x154;" horiz-adv-x="693" 
d="M669 0h-156l-170 263h-131v-263h-140v710h336q102 0 168 -62.5t66 -161.5q0 -78 -41 -134t-113 -78zM212 594v-215h171q57 0 89 28t32 79t-32 79.5t-89 28.5h-171zM495 927l-96 -149h-115l69 149h142z" />
    <glyph glyph-name="racute" unicode="&#x155;" horiz-adv-x="396" 
d="M306 517q31 0 81 -15l-23 -113q-37 10 -65 10q-52 0 -82 -39t-30 -108v-252h-130v511h121v-75q40 81 128 81zM365 728l-96 -149h-115l69 149h142z" />
    <glyph glyph-name="Rcommaaccent" unicode="&#x156;" horiz-adv-x="693" 
d="M669 0h-156l-170 263h-131v-263h-140v710h336q102 0 168 -62.5t66 -161.5q0 -78 -41 -134t-113 -78zM212 594v-215h171q57 0 89 28t32 79t-32 79.5t-89 28.5h-171zM414 -60v-106l-72 -92h-68l66 92h-62v106h136z" />
    <glyph glyph-name="rcommaaccent" unicode="&#x157;" horiz-adv-x="396" 
d="M306 517q31 0 81 -15l-23 -113q-37 10 -65 10q-52 0 -82 -39t-30 -108v-252h-130v511h121v-75q40 81 128 81zM190 -60v-106l-72 -92h-68l66 92h-62v106h136z" />
    <glyph glyph-name="Rcaron" unicode="&#x158;" horiz-adv-x="693" 
d="M669 0h-156l-170 263h-131v-263h-140v710h336q102 0 168 -62.5t66 -161.5q0 -78 -41 -134t-113 -78zM212 594v-215h171q57 0 89 28t32 79t-32 79.5t-89 28.5h-171zM529 927l-104 -149h-163l-104 149h110l76 -94l75 94h110z" />
    <glyph glyph-name="rcaron" unicode="&#x159;" horiz-adv-x="396" 
d="M306 517q31 0 81 -15l-23 -113q-37 10 -65 10q-52 0 -82 -39t-30 -108v-252h-130v511h121v-75q40 81 128 81zM399 728l-104 -149h-163l-104 149h110l76 -94l75 94h110z" />
    <glyph glyph-name="Sacute" unicode="&#x15a;" horiz-adv-x="645" 
d="M319 726q88 0 151 -25q63 -26 133 -85l-82 -98q-62 52 -104 69q-43 18 -101 18q-59 0 -94.5 -24t-35.5 -63q0 -26 16.5 -42t51.5 -27q44 -14 105 -28q142 -35 196 -77t57 -130q0 -102 -76.5 -166.5t-204.5 -64.5q-93 0 -164 30q-71 29 -151 101l84 99q72 -63 121 -85
q51 -23 113 -23q63 0 101 26.5t38 71.5q0 49 -62 71q-29 9 -84 21l-34 8q-141 34 -193 79.5t-52 131.5q0 90 76 151t195 61zM473 927l-96 -149h-115l69 149h142z" />
    <glyph glyph-name="sacute" unicode="&#x15b;" horiz-adv-x="509" 
d="M253 528q67 0 117 -18t103 -62l-70 -85q-44 35 -77.5 47.5t-75.5 12.5q-39 0 -62.5 -14t-23.5 -37q0 -27 44 -40q21 -6 75 -18q111 -25 154.5 -59t43.5 -104q0 -76 -59 -121.5t-160 -45.5q-74 0 -130.5 22t-116.5 75l75 84q56 -46 92 -60q36 -16 83 -16q40 0 64.5 14
t24.5 40q0 34 -51 49q-7 1 -31.5 7t-43.5 10q-109 24 -148.5 57.5t-39.5 101.5t57.5 114t155.5 46zM404 728l-96 -149h-115l69 149h142z" />
    <glyph glyph-name="Scedilla" unicode="&#x15e;" horiz-adv-x="645" 
d="M612 214q0 -98 -69.5 -161t-187.5 -69l-22 -50q47 -1 75.5 -23.5t28.5 -58.5q0 -43 -31.5 -69.5t-83.5 -26.5q-57 0 -114 39l34 52q44 -27 80 -27q20 0 32.5 8.5t12.5 22.5t-14.5 22.5t-35.5 8.5q-16 0 -28 -3l-34 31l34 74q-76 6 -139 36t-134 94l84 99q72 -63 121 -85
q51 -23 113 -23q61 0 100 26.5t39 68.5q-4 44 -31.5 59.5t-115.5 35.5l-33 8q-141 34 -193 79.5t-52 131.5q0 91 76 152t195 61q88 0 151 -25q61 -25 133 -86l-82 -98q-62 52 -104 69q-43 18 -101 18q-59 0 -94.5 -24t-35.5 -63q0 -26 16.5 -42t51.5 -27q44 -14 105 -28
q142 -35 196 -77t57 -130z" />
    <glyph glyph-name="scedilla" unicode="&#x15f;" horiz-adv-x="509" 
d="M481 151q0 -72 -53 -117t-146 -50l-23 -50q47 -1 75.5 -23.5t28.5 -58.5q0 -43 -31.5 -69.5t-83.5 -26.5q-57 0 -114 39l34 52q44 -27 80 -27q20 0 32.5 8.5t12.5 22.5t-14.5 22.5t-35.5 8.5q-16 0 -28 -3l-34 31l35 76q-105 10 -201 95l75 84q56 -46 92 -60
q36 -16 83 -16q40 0 64.5 14t24.5 40q0 34 -51 49q-7 1 -31.5 7t-43.5 10q-109 24 -148.5 57.5t-39.5 101.5t57.5 114t155.5 46q67 0 117 -18t103 -62l-70 -85q-44 35 -77.5 47.5t-75.5 12.5q-39 0 -62.5 -14t-23.5 -37q0 -27 44 -40q21 -6 75 -18q111 -25 154.5 -59
t43.5 -104z" />
    <glyph glyph-name="Scaron" unicode="&#x160;" horiz-adv-x="645" 
d="M319 726q88 0 151 -25q63 -26 133 -85l-82 -98q-62 52 -104 69q-43 18 -101 18q-59 0 -94.5 -24t-35.5 -63q0 -26 16.5 -42t51.5 -27q44 -14 105 -28q142 -35 196 -77t57 -130q0 -102 -76.5 -166.5t-204.5 -64.5q-93 0 -164 30q-71 29 -151 101l84 99q72 -63 121 -85
q51 -23 113 -23q63 0 101 26.5t38 71.5q0 49 -62 71q-29 9 -84 21l-34 8q-141 34 -193 79.5t-52 131.5q0 90 76 151t195 61zM507 927l-104 -149h-163l-104 149h110l76 -94l75 94h110z" />
    <glyph glyph-name="scaron" unicode="&#x161;" horiz-adv-x="509" 
d="M253 528q67 0 117 -18t103 -62l-70 -85q-44 35 -77.5 47.5t-75.5 12.5q-39 0 -62.5 -14t-23.5 -37q0 -27 44 -40q21 -6 75 -18q111 -25 154.5 -59t43.5 -104q0 -76 -59 -121.5t-160 -45.5q-74 0 -130.5 22t-116.5 75l75 84q56 -46 92 -60q36 -16 83 -16q40 0 64.5 14
t24.5 40q0 34 -51 49q-7 1 -31.5 7t-43.5 10q-109 24 -148.5 57.5t-39.5 101.5t57.5 114t155.5 46zM438 728l-104 -149h-163l-104 149h110l76 -94l75 94h110z" />
    <glyph glyph-name="uni0162" unicode="&#x162;" horiz-adv-x="615" 
d="M377 0h-35l-30 -66q47 -1 75.5 -23.5t28.5 -58.5q0 -43 -31.5 -69.5t-83.5 -26.5q-57 0 -114 39l34 52q44 -27 80 -27q20 0 32.5 8.5t12.5 22.5t-14.5 22.5t-35.5 8.5q-16 0 -28 -3l-34 31l41 90h-38v590h-211v120h563v-120h-212v-590z" />
    <glyph glyph-name="uni0163" unicode="&#x163;" horiz-adv-x="387" 
d="M261 -12l-24 -54q47 -1 75.5 -23.5t28.5 -58.5q0 -43 -31.5 -69.5t-83.5 -26.5q-57 0 -114 39l34 52q44 -27 80 -27q20 0 32.5 8.5t12.5 22.5t-14.5 22.5t-35.5 8.5q-16 0 -28 -3l-34 31l39 84q-90 23 -90 138v280h-91v99h91v158h130v-158h122v-99h-122v-264
q0 -26 12 -36.5t39 -10.5t64 9l15 -103q-53 -18 -107 -19z" />
    <glyph glyph-name="Tcaron" unicode="&#x164;" horiz-adv-x="610" 
d="M584 710v-120h-209v-590h-140v590h-209v120h558zM490 927l-104 -149h-163l-104 149h110l76 -94l75 94h110z" />
    <glyph glyph-name="tcaron" unicode="&#x165;" horiz-adv-x="422" 
d="M353 110l15 -103q-56 -19 -115 -19q-75 0 -110 35.5t-35 108.5v280h-91v99h91v158h130v-158h122v-99h-122v-264q0 -26 12 -36.5t39 -10.5t64 9zM459 802l-74 -215h-80l27 215h127z" />
    <glyph glyph-name="Tbar" unicode="&#x166;" horiz-adv-x="615" 
d="M589 590h-212v-180h126v-94h-126v-316h-140v316h-124v94h124v180h-211v120h563v-120z" />
    <glyph glyph-name="tbar" unicode="&#x167;" horiz-adv-x="387" 
d="M353 110l15 -103q-56 -19 -115 -19q-75 0 -110 35.5t-35 108.5v87h-91v100h91v93h-91v99h91v158h130v-158h122v-99h-122v-93h122v-100h-122v-71q0 -26 12 -36.5t39 -10.5t64 9z" />
    <glyph glyph-name="Umacron" unicode="&#x16a;" horiz-adv-x="706" 
d="M638 710v-470q0 -129 -73.5 -193t-211.5 -64t-211.5 64t-73.5 193v470h140v-465q0 -67 36.5 -102.5t108.5 -35.5q71 0 108 35.5t37 102.5v465h140zM513 884v-94h-320v94h320z" />
    <glyph glyph-name="umacron" unicode="&#x16b;" horiz-adv-x="564" 
d="M377 511h130v-511h-119v54q-43 -70 -150 -70q-89 0 -135 43t-46 119v365h130v-329q0 -40 22 -62.5t63 -22.5q49 0 77 27.5t28 78.5v308zM436 685v-94h-320v94h320z" />
    <glyph glyph-name="Uring" unicode="&#x16e;" horiz-adv-x="704" 
d="M638 710v-470q0 -129 -73.5 -193t-211.5 -64t-211.5 64t-73.5 193v470h140v-465q0 -67 36.5 -102.5t108.5 -35.5q71 0 108 35.5t37 102.5v465h140zM352 944q51 0 86 -34q36 -34 36 -82t-36 -83q-35 -34 -86 -34t-86 34q-36 35 -36 83t36 82q35 34 86 34zM352 888
q-26 0 -43 -17t-17 -43q0 -27 17 -44t43 -17t43 17t17 44q0 26 -17 43t-43 17z" />
    <glyph glyph-name="uring" unicode="&#x16f;" horiz-adv-x="564" 
d="M377 511h130v-511h-119v54q-43 -70 -150 -70q-89 0 -135 43t-46 119v365h130v-329q0 -40 22 -62.5t63 -22.5q49 0 77 27.5t28 78.5v308zM276 805q51 0 86 -34q36 -35 36 -82q0 -49 -36 -83q-35 -34 -86 -34t-86 34q-36 34 -36 83q0 47 36 82q35 34 86 34zM276 749
q-26 0 -43 -17t-17 -43q0 -27 17 -44t43 -17t43 17t17 44q0 26 -17 43t-43 17z" />
    <glyph glyph-name="Uhungarumlaut" unicode="&#x170;" horiz-adv-x="706" 
d="M638 710v-470q0 -129 -73.5 -193t-211.5 -64t-211.5 64t-73.5 193v470h140v-465q0 -67 36.5 -102.5t108.5 -35.5q71 0 108 35.5t37 102.5v465h140zM410 927l-98 -150h-92l69 150h121zM580 927l-98 -150h-92l69 150h121z" />
    <glyph glyph-name="uhungarumlaut" unicode="&#x171;" horiz-adv-x="564" 
d="M377 511h130v-511h-119v54q-43 -70 -150 -70q-89 0 -135 43t-46 119v365h130v-329q0 -40 22 -62.5t63 -22.5q49 0 77 27.5t28 78.5v308zM333 728l-98 -150h-92l69 150h121zM503 728l-98 -150h-92l69 150h121z" />
    <glyph glyph-name="Uogonek" unicode="&#x172;" horiz-adv-x="706" 
d="M498 710h140v-468q0 -84 -26 -134q-28 -51 -89 -94q-91 -65 -91 -117q0 -36 48 -36q18 0 30 4v-75q-18 -8 -49 -8q-58 0 -89 25.5t-31 67.5q0 57 48 109q-8 -1 -36 -1q-138 0 -211.5 64t-73.5 193v470h140v-465q0 -67 36.5 -102.5t108.5 -35.5q71 0 108 35.5t37 102.5
v465z" />
    <glyph glyph-name="uogonek" unicode="&#x173;" horiz-adv-x="564" 
d="M507 511v-511q-86 -53 -86 -103q0 -36 49 -36q17 0 29 4v-75q-18 -8 -49 -8q-58 0 -88.5 24.5t-30.5 67.5q0 68 72 126h-15v54q-43 -70 -150 -70q-89 0 -135 43t-46 119v365h130v-329q0 -40 22 -62.5t63 -22.5q49 0 77 27.5t28 78.5v308h130z" />
    <glyph glyph-name="Wcircumflex" unicode="&#x174;" horiz-adv-x="971" 
d="M808 710h138l-172 -710h-161l-70 274q-37 151 -57 245q-21 -98 -58 -245l-70 -274h-160l-173 710h142l71 -306q31 -136 47 -232q36 162 55 232l81 306h136l79 -306q25 -96 54 -236q25 143 47 236zM561 778l-75 94l-76 -94h-110l104 149h163l104 -149h-110z" />
    <glyph glyph-name="wcircumflex" unicode="&#x175;" horiz-adv-x="792" 
d="M644 512h134l-142 -512h-154l-38 139q-20 75 -50 208q-23 -114 -47 -208l-36 -139h-155l-142 512h137l41 -168q18 -69 49 -226q32 149 52 226l44 168h120l44 -168q20 -76 53 -228q31 153 49 228zM473 579l-75 94l-76 -94h-110l104 149h163l104 -149h-110z" />
    <glyph glyph-name="Ycircumflex" unicode="&#x176;" horiz-adv-x="657" 
d="M500 710h149l-251 -412v-298h-140v299l-250 411h154l169 -288zM404 778l-75 94l-76 -94h-110l104 149h163l104 -149h-110z" />
    <glyph glyph-name="ycircumflex" unicode="&#x177;" horiz-adv-x="521" 
d="M379 511h132l-197 -568q-26 -74 -66.5 -106t-110.5 -32q-56 0 -98 13l22 97q31 -6 60 -6q60 0 81 64l-192 538h136l45 -134q44 -131 73 -227q41 135 71 228zM336 579l-75 94l-76 -94h-110l104 149h163l104 -149h-110z" />
    <glyph glyph-name="Ydieresis" unicode="&#x178;" horiz-adv-x="657" 
d="M500 710h149l-251 -412v-298h-140v299l-250 411h154l169 -288zM293 909v-122h-125v122h125zM490 909v-122h-125v122h125z" />
    <glyph glyph-name="Zacute" unicode="&#x179;" horiz-adv-x="641" 
d="M597 710v-115l-385 -477h384v-118h-552v115l385 477h-371v118h539zM483 927l-96 -149h-115l69 149h142z" />
    <glyph glyph-name="zacute" unicode="&#x17a;" horiz-adv-x="498" 
d="M458 511v-98l-263 -307h263v-106h-424v98l265 308h-249v105h408zM398 728l-96 -149h-115l69 149h142z" />
    <glyph glyph-name="Zdotaccent" unicode="&#x17b;" horiz-adv-x="641" 
d="M597 710v-115l-385 -477h384v-118h-552v115l385 477h-371v118h539zM397 909v-122h-130v122h130z" />
    <glyph glyph-name="zdotaccent" unicode="&#x17c;" horiz-adv-x="498" 
d="M458 511v-98l-263 -307h263v-106h-424v98l265 308h-249v105h408zM312 710v-122h-130v122h130z" />
    <glyph glyph-name="Zcaron" unicode="&#x17d;" horiz-adv-x="641" 
d="M597 710v-115l-385 -477h384v-118h-552v115l385 477h-371v118h539zM517 927l-104 -149h-163l-104 149h110l76 -94l75 94h110z" />
    <glyph glyph-name="zcaron" unicode="&#x17e;" horiz-adv-x="498" 
d="M458 511v-98l-263 -307h263v-106h-424v98l265 308h-249v105h408zM432 728l-104 -149h-163l-104 149h110l76 -94l75 94h110z" />
    <glyph glyph-name="florin" unicode="&#x192;" 
d="M346 481h119v-99h-119v-405q0 -172 -159 -172q-57 0 -105 15l23 97q32 -7 57 -7q29 0 41.5 15t12.5 49v408h-103v99h103v49q0 166 166 166q55 0 109 -18l-23 -97q-38 8 -60 8q-33 0 -47.5 -15t-14.5 -51v-42z" />
    <glyph glyph-name="Scommaaccent" unicode="&#x218;" horiz-adv-x="645" 
d="M319 726q88 0 151 -25q63 -26 133 -85l-82 -98q-62 52 -104 69q-43 18 -101 18q-59 0 -94.5 -24t-35.5 -63q0 -26 16.5 -42t51.5 -27q44 -14 105 -28q142 -35 196 -77t57 -130q0 -102 -76.5 -166.5t-204.5 -64.5q-93 0 -164 30q-71 29 -151 101l84 99q72 -63 121 -85
q51 -23 113 -23q63 0 101 26.5t38 71.5q0 49 -62 71q-29 9 -84 21l-34 8q-141 34 -193 79.5t-52 131.5q0 90 76 151t195 61zM390 -60v-106l-72 -92h-68l66 92h-62v106h136z" />
    <glyph glyph-name="scommaaccent" unicode="&#x219;" horiz-adv-x="509" 
d="M253 528q67 0 117 -18t103 -62l-70 -85q-44 35 -77.5 47.5t-75.5 12.5q-39 0 -62.5 -14t-23.5 -37q0 -27 44 -40q21 -6 75 -18q111 -25 154.5 -59t43.5 -104q0 -76 -59 -121.5t-160 -45.5q-74 0 -130.5 22t-116.5 75l75 84q56 -46 92 -60q36 -16 83 -16q40 0 64.5 14
t24.5 40q0 34 -51 49q-7 1 -31.5 7t-43.5 10q-109 24 -148.5 57.5t-39.5 101.5t57.5 114t155.5 46zM321 -60v-106l-72 -92h-68l66 92h-62v106h136z" />
    <glyph glyph-name="uni021A" unicode="&#x21a;" horiz-adv-x="610" 
d="M584 710v-120h-209v-590h-140v590h-209v120h558zM375 -60v-106l-72 -92h-68l66 92h-62v106h136z" />
    <glyph glyph-name="uni021B" unicode="&#x21b;" horiz-adv-x="387" 
d="M353 110l15 -103q-56 -19 -115 -19q-75 0 -110 35.5t-35 108.5v280h-91v99h91v158h130v-158h122v-99h-122v-264q0 -26 12 -36.5t39 -10.5t64 9zM308 -60v-106l-72 -92h-68l66 92h-62v106h136z" />
    <glyph glyph-name="uni0237" unicode="&#x237;" horiz-adv-x="248" 
d="M-73 -176l23 97q32 -7 57 -7q29 0 41.5 15t12.5 49v533h130v-530q0 -172 -159 -172q-57 0 -105 15z" />
    <glyph glyph-name="circumflex" unicode="&#x2c6;" horiz-adv-x="523" 
d="M334 579l-75 94l-76 -94h-110l104 149h163l104 -149h-110z" />
    <glyph glyph-name="caron" unicode="&#x2c7;" horiz-adv-x="551" 
d="M461 728l-104 -149h-163l-104 149h110l76 -94l75 94h110z" />
    <glyph glyph-name="breve" unicode="&#x2d8;" horiz-adv-x="522" 
d="M261 570q-73 0 -118.5 39t-45.5 109h96q0 -34 17.5 -54t50.5 -20t50.5 20t17.5 54h96q0 -70 -45.5 -109t-118.5 -39z" />
    <glyph glyph-name="dotaccent" unicode="&#x2d9;" horiz-adv-x="330" 
d="M230 710v-122h-130v122h130z" />
    <glyph glyph-name="ring" unicode="&#x2da;" horiz-adv-x="458" 
d="M229 805q51 0 86 -34q36 -35 36 -82q0 -49 -36 -83q-35 -34 -86 -34t-86 34q-36 34 -36 83q0 47 36 82q35 34 86 34zM229 749q-26 0 -43 -17t-17 -43q0 -27 17 -44t43 -17t43 17t17 44q0 26 -17 43t-43 17z" />
    <glyph glyph-name="ogonek" unicode="&#x2db;" horiz-adv-x="372" 
d="M219 24l71 -24q-86 -53 -86 -103q0 -36 49 -36q17 0 29 4v-75q-18 -8 -49 -8q-58 0 -88.5 24.5t-30.5 67.5q0 82 105 150z" />
    <glyph glyph-name="tilde" unicode="&#x2dc;" horiz-adv-x="540" 
d="M201 714q41 0 84 -29q36 -20 52 -20q15 0 24 13.5t9 35.5h73q0 -61 -27 -95t-71 -34q-30 0 -83 28q-41 21 -57 21q-15 0 -24.5 -14t-9.5 -35h-74q0 60 29.5 94.5t74.5 34.5z" />
    <glyph glyph-name="hungarumlaut" unicode="&#x2dd;" horiz-adv-x="542" 
d="M283 728l-98 -150h-92l69 150h121zM453 728l-98 -150h-92l69 150h121z" />
    <glyph glyph-name="uni0326" unicode="&#x326;" horiz-adv-x="0" 
d="M-100 -60v-106l-72 -92h-68l66 92h-62v106h136z" />
    <glyph glyph-name="Delta" unicode="&#x394;" horiz-adv-x="712" 
d="M448 710l254 -710h-692l254 710h184zM190 116h328l-76 224q-63 181 -88 269q-27 -96 -88 -271z" />
    <glyph glyph-name="Omega" unicode="&#x3a9;" horiz-adv-x="792" 
d="M566 120h186v-120h-316v183q74 13 120 70.5t46 141.5q0 93 -56 151q-57 57 -150 57t-150 -57t-57 -151q0 -83 46.5 -140t120.5 -72v-183h-316v120h186q-86 37 -133.5 108.5t-47.5 166.5q0 143 97 237.5t254 94.5q156 2 254 -94t96 -238q0 -95 -47 -166.5t-133 -108.5z
" />
    <glyph glyph-name="mu" unicode="&#x3bc;" horiz-adv-x="564" 
d="M377 511h130v-511h-118v63q-39 -79 -122 -79q-48 0 -80 24v-191h-130v694h130v-329q0 -85 90 -85q47 0 73.5 27.5t26.5 78.5v308z" />
    <glyph glyph-name="pi" unicode="&#x3c0;" horiz-adv-x="628" 
d="M597 108l12 -102q-51 -17 -99 -17q-76 0 -107.5 34.5t-31.5 113.5v274h-133v-411h-130v411h-91v100h570v-100h-86v-264q0 -26 10.5 -36.5t32.5 -10.5q21 0 53 8z" />
    <glyph glyph-name="Wgrave" unicode="&#x1e80;" horiz-adv-x="971" 
d="M808 710h138l-172 -710h-161l-70 274q-37 151 -57 245q-21 -98 -58 -245l-70 -274h-160l-173 710h142l71 -306q31 -136 47 -232q36 162 55 232l81 306h136l79 -306q25 -96 54 -236q25 143 47 236zM335 927h142l69 -149h-115z" />
    <glyph glyph-name="wgrave" unicode="&#x1e81;" horiz-adv-x="792" 
d="M644 512h134l-142 -512h-154l-38 139q-20 75 -50 208q-23 -114 -47 -208l-36 -139h-155l-142 512h137l41 -168q18 -69 49 -226q32 149 52 226l44 168h120l44 -168q20 -76 53 -228q31 153 49 228zM247 728h142l69 -149h-115z" />
    <glyph glyph-name="Wacute" unicode="&#x1e82;" horiz-adv-x="971" 
d="M808 710h138l-172 -710h-161l-70 274q-37 151 -57 245q-21 -98 -58 -245l-70 -274h-160l-173 710h142l71 -306q31 -136 47 -232q36 162 55 232l81 306h136l79 -306q25 -96 54 -236q25 143 47 236zM637 927l-96 -149h-115l69 149h142z" />
    <glyph glyph-name="wacute" unicode="&#x1e83;" horiz-adv-x="792" 
d="M644 512h134l-142 -512h-154l-38 139q-20 75 -50 208q-23 -114 -47 -208l-36 -139h-155l-142 512h137l41 -168q18 -69 49 -226q32 149 52 226l44 168h120l44 -168q20 -76 53 -228q31 153 49 228zM549 728l-96 -149h-115l69 149h142z" />
    <glyph glyph-name="Wdieresis" unicode="&#x1e84;" horiz-adv-x="971" 
d="M808 710h138l-172 -710h-161l-70 274q-37 151 -57 245q-21 -98 -58 -245l-70 -274h-160l-173 710h142l71 -306q31 -136 47 -232q36 162 55 232l81 306h136l79 -306q25 -96 54 -236q25 143 47 236zM450 909v-122h-125v122h125zM647 909v-122h-125v122h125z" />
    <glyph glyph-name="wdieresis" unicode="&#x1e85;" horiz-adv-x="792" 
d="M644 512h134l-142 -512h-154l-38 139q-20 75 -50 208q-23 -114 -47 -208l-36 -139h-155l-142 512h137l41 -168q18 -69 49 -226q32 149 52 226l44 168h120l44 -168q20 -76 53 -228q31 153 49 228zM362 710v-122h-125v122h125zM559 710v-122h-125v122h125z" />
    <glyph glyph-name="Ygrave" unicode="&#x1ef2;" horiz-adv-x="657" 
d="M500 710h149l-251 -412v-298h-140v299l-250 411h154l169 -288zM178 927h142l69 -149h-115z" />
    <glyph glyph-name="ygrave" unicode="&#x1ef3;" horiz-adv-x="521" 
d="M379 511h132l-197 -568q-26 -74 -66.5 -106t-110.5 -32q-56 0 -98 13l22 97q31 -6 60 -6q60 0 81 64l-192 538h136l45 -134q44 -131 73 -227q41 135 71 228zM110 728h142l69 -149h-115z" />
    <glyph glyph-name="endash" unicode="&#x2013;" horiz-adv-x="737" 
d="M677 346v-111h-617v111h617z" />
    <glyph glyph-name="emdash" unicode="&#x2014;" horiz-adv-x="986" 
d="M916 346v-111h-846v111h846z" />
    <glyph glyph-name="quoteleft" unicode="&#x2018;" horiz-adv-x="227" 
d="M40 431v138l77 141h72l-70 -141h66v-138h-145z" />
    <glyph glyph-name="quoteright" unicode="&#x2019;" horiz-adv-x="227" 
d="M187 710v-138l-77 -141h-72l70 141h-66v138h145z" />
    <glyph glyph-name="quotesinglbase" unicode="&#x201a;" horiz-adv-x="225" 
d="M185 143v-143l-76 -136h-71l66 136h-64v143h145z" />
    <glyph glyph-name="quotedblleft" unicode="&#x201c;" horiz-adv-x="445" 
d="M40 431v138l77 141h72l-70 -141h66v-138h-145zM258 431v138l77 141h72l-70 -141h66v-138h-145z" />
    <glyph glyph-name="quotedblright" unicode="&#x201d;" horiz-adv-x="445" 
d="M187 710v-138l-77 -141h-72l70 141h-66v138h145zM405 710v-138l-77 -141h-72l70 141h-66v138h145z" />
    <glyph glyph-name="quotedblbase" unicode="&#x201e;" horiz-adv-x="443" 
d="M185 143v-143l-76 -136h-71l66 136h-64v143h145zM403 143v-143l-76 -136h-71l66 136h-64v143h145z" />
    <glyph glyph-name="dagger" unicode="&#x2020;" 
d="M550 461v-118h-188v-540h-134v540h-188v118h188v249h134v-249h188z" />
    <glyph glyph-name="daggerdbl" unicode="&#x2021;" 
d="M550 393h-188v-184h188v-118h-188v-288h-134v288h-188v118h188v184h-188v118h188v199h134v-199h188v-118z" />
    <glyph glyph-name="bullet" unicode="&#x2022;" horiz-adv-x="519" 
d="M260 488q79 0 136.5 -57t57.5 -137q0 -79 -57.5 -136.5t-136.5 -57.5t-136.5 57.5t-57.5 136.5q0 80 57 137t137 57z" />
    <glyph glyph-name="ellipsis" unicode="&#x2026;" horiz-adv-x="717" 
d="M192 145v-145h-142v145h142zM429 145v-145h-142v145h142zM667 145v-145h-142v145h142z" />
    <glyph glyph-name="perthousand" unicode="&#x2030;" horiz-adv-x="1282" 
d="M641 697l75 -47l-469 -667l-74 48zM216 692q71 0 119 -47.5t48 -119.5q0 -73 -48 -120.5t-119 -47.5q-72 0 -119 47t-47 121q0 72 47.5 119.5t118.5 47.5zM216 613q-35 0 -56 -24.5t-21 -63.5q0 -40 21 -64.5t56 -24.5q36 0 57 24.5t21 64.5q0 39 -21 63.5t-57 24.5z
M665 324q71 0 119 -47.5t48 -119.5q0 -73 -48 -120.5t-119 -47.5q-72 0 -119 47t-47 121q0 72 47.5 119.5t118.5 47.5zM1050 324q71 0 119 -47.5t48 -119.5q0 -73 -48 -120.5t-119 -47.5q-72 0 -119 47t-47 121q0 72 47.5 119.5t118.5 47.5zM665 245q-35 0 -56 -24.5
t-21 -63.5q0 -40 21 -64.5t56 -24.5q36 0 57 24.5t21 64.5q0 39 -21 63.5t-57 24.5zM1050 245q-35 0 -56 -24.5t-21 -63.5q0 -40 21 -64.5t56 -24.5q36 0 57 24.5t21 64.5q0 39 -21 63.5t-57 24.5z" />
    <glyph glyph-name="guilsinglleft" unicode="&#x2039;" horiz-adv-x="380" 
d="M320 478l-146 -225l146 -225h-122l-143 225l143 225h122z" />
    <glyph glyph-name="guilsinglright" unicode="&#x203a;" horiz-adv-x="380" 
d="M60 478h122l143 -225l-143 -225h-122l141 225z" />
    <glyph glyph-name="fraction" unicode="&#x2044;" horiz-adv-x="223" 
d="M308 697l75 -47l-469 -667l-74 48z" />
    <glyph glyph-name="Euro" unicode="&#x20ac;" horiz-adv-x="610" 
d="M391 98q40 0 66 10q29 10 67 37l71 -90q-48 -39 -94.5 -55.5t-109.5 -16.5q-103 0 -174 65t-96 178h-71v90h59v24q0 32 1 41h-60v90h75q28 106 97 166t169 60q63 0 109.5 -16.5t94.5 -55.5l-71 -90q-36 25 -67 38q-27 9 -66 9q-91 0 -127 -111h223v-90h-240q-1 -9 -1 -41
v-24h241v-90h-228q35 -128 132 -128z" />
    <glyph glyph-name="uni20B9" unicode="&#x20b9;" 
d="M553 595h-106q26 -35 33 -82h73v-85h-72q-13 -78 -73 -122.5t-152 -44.5h-11l257 -261h-177l-247 261v102h167q86 0 104 65h-271v85h267q-22 55 -100 55h-167v112h475v-85z" />
    <glyph glyph-name="uni20BA" unicode="&#x20ba;" 
d="M448 307l121 -20l-11 -58q-26 -127 -87 -177t-205 -52h-139v235l-89 -39v95l89 39v76l-89 -39v95l89 39v179h135v-119l137 60v-95l-137 -60v-76l137 60v-95l-137 -60v-180h7q78 0 114.5 26.5t52.5 107.5z" />
    <glyph glyph-name="uni20BD" unicode="&#x20bd;" horiz-adv-x="610" 
d="M343 261h-88v-65h189v-85h-189v-111h-135v111h-85v85h85v65h-85v102h85v317h223q104 0 166 -57t62 -153t-62 -152.5t-166 -56.5zM255 568v-205h77q50 0 79.5 27.5t29.5 74.5q0 48 -29.5 75.5t-79.5 27.5h-77z" />
    <glyph glyph-name="uni2116" unicode="&#x2116;" horiz-adv-x="1126" 
d="M919 316q-86 0 -141.5 56t-55.5 145t55.5 144.5t141.5 55.5t141.5 -55.5t55.5 -144.5q0 -91 -54 -146t-143 -55zM508 452v258h136v-710h-148l-166 287l-12 20q-71 122 -115 206q5 -150 5 -268v-245h-136v710h148l178 -305l30 -52q72 -129 85 -155q-5 105 -5 254zM919 631
q-43 0 -70.5 -31.5t-27.5 -82.5q0 -52 27.5 -83.5t70.5 -31.5t71 31.5t28 83.5q0 51 -28 82.5t-71 31.5zM743 173v88h352v-88h-352z" />
    <glyph glyph-name="uni2117" unicode="&#x2117;" horiz-adv-x="856" 
d="M428 723q153 3 261.5 -105.5t106.5 -262.5q2 -154 -106.5 -262.5t-261.5 -105.5q-153 -3 -261.5 105.5t-106.5 262.5q-2 154 106.5 262.5t261.5 105.5zM428 660q-126 2 -212.5 -87t-84.5 -218q-2 -129 84.5 -218t212.5 -87q127 -2 213 87t84 218q2 129 -84 218t-213 87z
M294 563h169q59 0 96 -36.5t37 -93.5q0 -126 -133 -126h-95v-158h-74v414zM448 496h-80v-127h80q75 0 75 64q0 63 -75 63z" />
    <glyph glyph-name="trademark" unicode="&#x2122;" horiz-adv-x="954" 
d="M372 710v-73h-128v-314h-85v314h-129v73h342zM894 710v-387h-78v278l-110 -278h-71l-114 274v-274h-79v387h111l118 -286l112 286h111z" />
    <glyph glyph-name="uni2154" unicode="&#x2154;" horiz-adv-x="1035" 
d="M241 426l-23 -12q-42 -19 -67 -40q-14 -11 -20 -23h233v-79h-332v38q0 59 31.5 95t101.5 72l28 14q46 23 62.5 37t16.5 36q0 20 -18 32.5t-48 12.5q-54 0 -119 -50l-49 62q79 70 169 70q72 0 115.5 -36t43.5 -88q0 -67 -54 -101q-20 -13 -71 -40zM726 697l75 -47
l-469 -667l-74 48zM982 330l-113 -84q59 -4 96 -37t37 -84q0 -57 -45 -96.5t-121 -39.5q-93 0 -174 54l45 66q72 -38 128 -38q71 0 71 54q0 26 -23 40.5t-62 14.5q-31 0 -48 -6l-40 55l132 100h-181v79h298v-78z" />
    <glyph glyph-name="oneeighth" unicode="&#x215b;" horiz-adv-x="941" 
d="M156 680h73v-408h-94v297l-64 -45l-46 63zM627 697l75 -47l-469 -667l-74 48zM839 216q73 -31 73 -104q0 -55 -46 -89.5t-125 -34.5t-125 34.5t-46 89.5q0 74 73 105q-56 30 -56 88q0 49 43 81.5t111 32.5t111 -32.5t43 -81.5q0 -59 -56 -89zM741 344q-29 0 -47.5 -13.5
t-18.5 -33.5q0 -21 18.5 -35.5t47.5 -14.5t47 14.5t18 35.5q0 20 -18 33.5t-47 13.5zM741 65q36 0 56.5 15.5t20.5 40.5t-21 42t-56 17t-56 -17t-21 -42t20.5 -40.5t56.5 -15.5z" />
    <glyph glyph-name="threeeighths" unicode="&#x215c;" horiz-adv-x="1016" 
d="M341 602l-113 -84q59 -4 96 -37t37 -84q0 -57 -45 -96.5t-121 -39.5q-93 0 -174 54l45 66q72 -38 128 -38q71 0 71 54q0 26 -23 40.5t-62 14.5q-32 0 -48 -6l-40 55l132 100h-181v79h298v-78zM702 697l75 -47l-469 -667l-74 48zM914 216q73 -31 73 -104q0 -55 -46 -89.5
t-125 -34.5t-125 34.5t-46 89.5q0 74 73 105q-56 30 -56 88q0 49 43 81.5t111 32.5t111 -32.5t43 -81.5q0 -59 -56 -89zM816 344q-29 0 -47.5 -13.5t-18.5 -33.5q0 -21 18.5 -35.5t47.5 -14.5t47 14.5t18 35.5q0 20 -18 33.5t-47 13.5zM816 65q36 0 56.5 15.5t20.5 40.5
t-21 42t-56 17t-56 -17t-21 -42t20.5 -40.5t56.5 -15.5z" />
    <glyph glyph-name="fiveeighths" unicode="&#x215d;" horiz-adv-x="1018" 
d="M229 540q62 0 101 -38.5t39 -90.5q0 -69 -46 -109.5t-121 -40.5q-86 0 -179 55l45 68q76 -41 128 -41q35 0 55.5 16t20.5 46q0 27 -19 42.5t-55 15.5q-40 0 -72 -26l-75 8l18 235h278v-79h-199l-8 -85q34 24 89 24zM704 697l75 -47l-469 -667l-74 48zM916 216
q73 -31 73 -104q0 -55 -46 -89.5t-125 -34.5t-125 34.5t-46 89.5q0 74 73 105q-56 30 -56 88q0 49 43 81.5t111 32.5t111 -32.5t43 -81.5q0 -59 -56 -89zM818 344q-29 0 -47.5 -13.5t-18.5 -33.5q0 -21 18.5 -35.5t47.5 -14.5t47 14.5t18 35.5q0 20 -18 33.5t-47 13.5z
M818 65q36 0 56.5 15.5t20.5 40.5t-21 42t-56 17t-56 -17t-21 -42t20.5 -40.5t56.5 -15.5z" />
    <glyph glyph-name="seveneighths" unicode="&#x215e;" horiz-adv-x="927" 
d="M26 680h330v-70q-145 -160 -160 -338h-103q6 86 51 176q46 90 103 153h-221v79zM613 697l75 -47l-469 -667l-74 48zM825 216q73 -31 73 -104q0 -55 -46 -89.5t-125 -34.5t-125 34.5t-46 89.5q0 74 73 105q-56 30 -56 88q0 49 43 81.5t111 32.5t111 -32.5t43 -81.5
q0 -59 -56 -89zM727 344q-29 0 -47.5 -13.5t-18.5 -33.5q0 -21 18.5 -35.5t47.5 -14.5t47 14.5t18 35.5q0 20 -18 33.5t-47 13.5zM727 65q36 0 56.5 15.5t20.5 40.5t-21 42t-56 17t-56 -17t-21 -42t20.5 -40.5t56.5 -15.5z" />
    <glyph glyph-name="arrowleft" unicode="&#x2190;" horiz-adv-x="930" 
d="M870 392v-109h-634l213 -210l-77 -78l-342 343l342 342l77 -77l-214 -211h635z" />
    <glyph glyph-name="arrowup" unicode="&#x2191;" horiz-adv-x="744" 
d="M704 433l-74 -75l-199 201v-559h-117v560l-199 -202l-75 75l332 332z" />
    <glyph glyph-name="arrowright" unicode="&#x2192;" horiz-adv-x="930" 
d="M558 680l342 -342l-342 -343l-77 78l213 210h-634v109h635l-214 211z" />
    <glyph glyph-name="arrowdown" unicode="&#x2193;" horiz-adv-x="744" 
d="M630 352l74 -75l-332 -332l-332 332l75 75l199 -202v560h117v-559z" />
    <glyph glyph-name="uni2196" unicode="&#x2196;" horiz-adv-x="753" 
d="M723 134l-78 -77l-468 469v-316h-107v500h500v-106h-317z" />
    <glyph glyph-name="uni2197" unicode="&#x2197;" horiz-adv-x="753" 
d="M183 710h500v-500h-107v316l-468 -469l-78 77l470 470h-317v106z" />
    <glyph glyph-name="uni2198" unicode="&#x2198;" horiz-adv-x="753" 
d="M576 500h107v-500h-500v106h317l-470 470l78 77l468 -469v316z" />
    <glyph glyph-name="uni2199" unicode="&#x2199;" horiz-adv-x="753" 
d="M723 576l-470 -470h317v-106h-500v500h107v-316l468 469z" />
    <glyph glyph-name="partialdiff" unicode="&#x2202;" horiz-adv-x="567" 
d="M125 608l28 119q204 -27 294 -143q90 -117 90 -291q0 -147 -70 -228.5t-189 -81.5q-113 0 -180.5 73.5t-67.5 178.5q0 101 61.5 170.5t160.5 69.5q87 0 142 -55q-58 160 -269 188zM278 97q53 0 87 38.5t34 96.5q0 57 -35 95t-88 38t-84.5 -37t-31.5 -96t32.5 -97
t85.5 -38z" />
    <glyph glyph-name="product" unicode="&#x220f;" horiz-adv-x="721" 
d="M649 710v-820h-140v702h-297v-702h-140v820h577z" />
    <glyph glyph-name="summation" unicode="&#x2211;" horiz-adv-x="604" 
d="M549 710v-116h-335l240 -295l-242 -300h362v-116h-524v111l238 305l-236 300v111h497z" />
    <glyph glyph-name="minus" unicode="&#x2212;" horiz-adv-x="600" 
d="M560 366v-112h-520v112h520z" />
    <glyph glyph-name="radical" unicode="&#x221a;" horiz-adv-x="637" 
d="M475 710h144l-245 -710h-176l-178 511h145l126 -371z" />
    <glyph glyph-name="infinity" unicode="&#x221e;" horiz-adv-x="826" 
d="M595 470q74 0 125.5 -52t51.5 -128t-51 -127.5t-125 -51.5q-100 0 -186 100q-83 -100 -179 -100q-73 0 -124.5 52t-51.5 127q0 76 51.5 128t126.5 52q101 0 186 -102q83 102 176 102zM234 213q57 0 116 69q-40 48 -63.5 65.5t-52.5 17.5t-50.5 -22t-21.5 -54
q0 -33 21 -54.5t51 -21.5zM596 213q28 0 48.5 21.5t20.5 54.5t-20.5 54.5t-50.5 21.5q-57 0 -115 -71q36 -44 61 -62.5t56 -18.5z" />
    <glyph glyph-name="integral" unicode="&#x222b;" horiz-adv-x="600" 
d="M346 553v-576q0 -172 -159 -172q-57 0 -105 15l23 97q32 -7 57 -7q29 0 41.5 15t12.5 49v586q0 166 166 166q55 0 109 -18l-23 -97q-38 8 -60 8q-33 0 -47.5 -15t-14.5 -51z" />
    <glyph glyph-name="approxequal" unicode="&#x2248;" horiz-adv-x="610" 
d="M202 487q37 0 111 -29q63 -25 93 -25q27 0 47.5 9.5t51.5 38.5l60 -79q-45 -46 -77 -62q-31 -16 -76 -16q-35 0 -103 27q-65 27 -102 27q-27 0 -47.5 -10.5t-54.5 -38.5l-60 79q43 43 78.5 61t78.5 18zM202 287q39 0 111 -29q60 -25 93 -25q27 0 47.5 9.5t51.5 38.5
l60 -79q-45 -45 -77 -62q-31 -16 -76 -16q-37 0 -101 27q-68 27 -104 27q-27 0 -47.5 -10.5t-54.5 -38.5l-60 79q43 43 78.5 61t78.5 18z" />
    <glyph glyph-name="notequal" unicode="&#x2260;" horiz-adv-x="600" 
d="M560 354h-192l-32 -88h224v-112h-265l-36 -99h-110l36 99h-145v112h186l32 88h-218v112h259l36 100h110l-36 -100h151v-112z" />
    <glyph glyph-name="lessequal" unicode="&#x2264;" horiz-adv-x="600" 
d="M540 599v-114l-333 -115l333 -115v-114l-480 180v98zM560 112v-112h-520v112h520z" />
    <glyph glyph-name="greaterequal" unicode="&#x2265;" horiz-adv-x="600" 
d="M60 599l480 -180v-98l-480 -180v114l333 115l-333 115v114zM560 112v-112h-520v112h520z" />
    <glyph glyph-name="lozenge" unicode="&#x25ca;" horiz-adv-x="616" 
d="M373 710l213 -356l-213 -354h-130l-213 354l213 356h130zM308 587l-140 -233l140 -231l139 231z" />
    <glyph glyph-name="uni2923" unicode="&#x2923;" horiz-adv-x="652" 
d="M510 662h-203q72 -74 120 -131q44 -55 75 -118q30 -65 30 -136q0 -127 -114 -263q-48 -57 -132 -144l-87 84q68 72 114 125q40 46 67 97q26 52 26 101q0 90 -83 193q-38 47 -98 110v-205h-105v390h390v-103z" />
    <glyph glyph-name="uni2924" unicode="&#x2924;" horiz-adv-x="652" 
d="M532 375h-105v205q-120 -126 -158 -204q-23 -51 -23 -99q0 -89 93 -198q46 -53 114 -125l-87 -84q-87 90 -131 144q-47 54 -81 124q-34 67 -34 139q0 127 106 254q43 54 119 131h-203v103h390v-390z" />
    <glyph glyph-name="uni2925" unicode="&#x2925;" horiz-adv-x="652" 
d="M427 318h105v-390h-390v103h203q-76 77 -119 131q-44 53 -75 119q-31 63 -31 135q0 127 115 264q46 55 131 143l87 -84q-79 -84 -114 -124q-40 -46 -66 -98q-27 -51 -27 -101q0 -90 83 -193q38 -47 98 -110v205z" />
    <glyph glyph-name="uni2926" unicode="&#x2926;" horiz-adv-x="652" 
d="M532 416q0 -126 -105 -254q-48 -57 -120 -131h203v-103h-390v390h105v-205q121 127 158 205q23 49 23 98q0 90 -93 199q-35 40 -114 124l87 84q80 -83 132 -143q47 -58 81 -124q33 -68 33 -140z" />
    <glyph glyph-name="uniE000" unicode="&#xe000;" horiz-adv-x="1792" 
d="M315 0h-265v230h13q38 -101 105 -159t145 -58q59 0 94.5 37.5t35.5 92.5q0 54 -38 94q-22 22 -48.5 34.5t-86.5 31.5q-59 17 -93 33.5t-62 44.5q-58 58 -58 144q0 78 49 131.5t126 53.5h243v-197h-10q-42 72 -76 106q-77 78 -158 78q-44 0 -78 -25q-36 -26 -36 -84
q0 -54 34 -88q23 -23 53 -36.5t88 -30.5q67 -20 105.5 -38t70.5 -50q50 -48 50 -135q0 -98 -55 -154t-148 -56zM503 710h375q141 2 233.5 -105.5t90.5 -261.5q0 -65 -19.5 -125t-59 -110t-105 -79.5t-149.5 -28.5h-365v13h20q56 0 82.5 23.5t26.5 75.5v486q0 51 -26.5 75
t-82.5 24h-21v13zM1149 13h16q57 0 83.5 24t26.5 75v486q0 52 -26.5 75.5t-83.5 23.5h-17v13h384v-13h-27q-56 0 -82 -23.5t-26 -75.5v-486q0 -55 16.5 -77t58.5 -22h66q37 2 60.5 18t52.5 63t79 150h12v-244h-593v13zM1654 697v13h-55v-13h20v-54h15v54h20zM1742 643v67
h-22l-17 -45l-16 45h-23v-67h15v49l18 -49h11l19 49v-49h15zM862 13q110 0 160 90q50 89 50 226q0 185 -60 276.5t-153 91.5h-65q-23 0 -31 -9.5t-8 -36.5v-554q0 -84 107 -84z" />
    <glyph glyph-name="uniE001" unicode="&#xe001;" horiz-adv-x="1011" 
d="M313 -39q-121 56 -192 169.5t-71 243.5q0 101 43 191q56 121 169 192t244 71q102 0 192 -43q121 -56 192 -169.5t71 -243.5q0 -101 -43 -191q-56 -121 -169 -192t-244 -71q-102 0 -192 43zM692 773q-90 41 -186 41q-126 0 -236 -68t-165 -186q-41 -90 -41 -186
q0 -126 68 -236q67 -109 187 -165q90 -41 186 -41q126 0 236.5 68.5t163.5 185.5q41 90 41 186q0 127 -68 237q-67 108 -186 164zM527 720l8 64l45 -6l-2 -15l-23 2l-1 -9l22 -3l-2 -16l-22 3l-3 -23zM430 723l-1 11l22 3l1 -4q0 -2 6 -2l5 3l-1 5q0 2 -6 2h-2q-21 0 -27 8
l-3 18q6 16 34 16q15 0 21 -9l2 -11l-23 -3v4q-2 2 -6 2q-5 -2 -5 -3v-4q2 -2 7 -2h2q23 -2 27 -8l2 -18q-4 -16 -33 -16q-14 0 -22 8zM621 700l-4 23l-5 2l-6 -20l-22 7l20 62l35 -12q13 -4 16 -16l-7 -21q-4 -3 -10 -5l4 -14l-4 -12zM402 704l-17 16l-4 -1l6 -20l-21 -7
l-21 61l35 12q2 1 8 1q9 0 14 -5l7 -20q-1 -8 -5 -11l12 -8l4 -12zM617 739l7 -3q5 0 6 1l3 8q-1 3 -5 4l-7 3zM376 733l8 3q1 0 4 3l-3 9q-3 1 -6 0l-7 -3zM314 663l-32 57l41 23l8 -14l-21 -12l4 -7l20 11l7 -14l-19 -11l4 -8l22 12l7 -14zM655 700l20 35q4 4 12 4
q9 0 19 -5q19 -10 19 -26l-20 -35q-4 -4 -12 -4t-20 5q-18 10 -18 26zM688 688l15 26q0 3 -5 5t-6 1l-15 -27q0 -3 4 -4q5 -3 7 -1zM276 633l-32 37l-11 -9l-10 12l40 33l10 -12l-11 -9l31 -38zM710 656l43 48l21 -19l-8 -22l2 -2l20 11l21 -19l-43 -48l-16 14l22 25l-1 1
l-23 -10l-7 7l8 23l-2 2l-22 -25zM371 84q-85 40 -135 120q-49 79 -49 170q0 70 30 134q41 86 119 135q79 49 170 49q70 0 134 -30q86 -41 135 -119t49 -171q0 -68 -30 -134q-41 -86 -119 -135q-79 -49 -170 -49q-69 0 -134 30zM634 649q-64 29 -128 29q-88 0 -164 -47.5
t-113 -128.5q-29 -64 -29 -128q0 -86 48 -163q46 -77 129 -114q64 -29 128 -29q88 0 164 47.5t113 128.5q29 66 29 129q0 87 -48 162t-129 114zM232 586l-38 32l-9 -12l-12 11l33 40l12 -10l-9 -12l37 -31zM799 579l9 5l12 -19l-4 -2q-1 -1 1 -6q1 -4 4 -4l4 2q2 2 0 7l-1 2
q-5 12 -5 19q0 3 2 9l15 9q14 0 25 -18q6 -7 6 -19q0 -6 -3 -11l-9 -5l-12 19l4 2q1 1 -1 6q-1 4 -4 4l-4 -2q0 -5 1 -7l1 -2q5 -17 5 -20q0 -2 -2 -8l-16 -9q-14 0 -25 18q-6 12 -6 19q0 5 3 11zM193 525l-56 32l23 41l14 -8l-12 -21l7 -4l11 19l14 -7l-11 -20l8 -5l12 22
l13 -8zM510 516q-12 -23 -29 -23q-16 0 -16 21q0 8 5 21q11 23 28 23t17 -21q0 -8 -5 -21zM827 507l47 25l12 3l6 -21l-33 -14v-2l37 3l5 -16l-32 -18v-1l36 5l6 -18l-12 -4l-53 -6l-7 26l21 12l-1 1l-24 -1zM174 475l-61 23l8 21l46 -17l6 17l15 -5zM652 450
q-11 -23 -28 -23t-17 21q0 8 5 21q11 23 28 23t17 -21q0 -8 -5 -21zM140 425q-2 -7 -10 -7l-5 1q-7 4 -7 11l1 5q3 6 10 6q5 0 6 -1q6 -2 6 -9q0 -5 -1 -6zM849 421l65 5l3 -46l-15 -2l-2 25l-8 -1l1 -23l-16 -1l-1 23l-9 -1l1 -24l-15 -2zM627 264l-15 7q-19 -32 -52 -50.5
t-69 -18.5q-33 0 -59 13q-38 18 -59.5 52.5t-21.5 74.5q0 21 8 47l-15 7q-10 -24 -10 -54q0 -45 24.5 -84t66.5 -58q31 -15 66 -15q42 0 78.5 21t57.5 58zM161 326l-65 -4l-2 20l22 7l-1 1l-21 4l-2 20l66 4l1 -15l-35 -2v-2l24 -4l1 -8l-24 -7v-1l35 2zM853 362l64 -7
l-3 -33q-3 -17 -15 -22l-40 4q-10 7 -10 22v3zM866 338l-1 -7q0 -3 2 -5l29 -3q2 0 2 5l1 7zM170 286l-64 -14l-4 16l52 12l-3 12l12 3zM844 294l61 -20l-13 -44l-15 4l7 24l-8 2l-7 -22l-15 5l7 22l-9 2l-7 -23l-15 4zM178 233l-45 -16q-12 0 -17 15q-1 2 -1 9q0 12 5 14
l44 16q12 0 17 -15l2 -9q0 -9 -5 -14zM164 254l-33 -12q-2 -2 -1 -5q2 -2 3 -2l34 12l1 4q-2 3 -4 3zM826 237l57 -30l-11 -21h-32l-1 -2l25 -13l-10 -18l-57 30l11 21h32l1 2l-25 13zM211 190l-58 -32l-8 15l22 12l-4 6l-21 -12l-8 15l57 31l8 -14l-23 -13l3 -7l24 13z
M240 149l-52 -39l-10 13l13 10v1l-19 -4l-7 11l8 6l20 2l15 24l9 7l8 -11l-12 -18l3 1l14 10zM270 106l-33 -34q-11 -4 -22 7q-8 8 -8 20l14 14l11 -11l-8 -9q-1 -1 -0.5 -3t3.5 -2h2l25 25q0 3 -1 4l-4 1l-10 -9l-11 11l15 15q10 3 20 -7q8 -10 8 -18zM800 118
q-3 -7 -11 -7q-4 0 -5 1q-6 3 -6 11q0 3 1 4q4 7 10 7q4 0 5 -1q7 -3 7 -11q0 -3 -1 -4zM730 108l39 -53l-17 -12l-17 14l-1 -1l8 -20l-16 -12l-39 53l13 9l21 -28l1 1l-9 23l6 4l18 -16l1 1l-20 28zM312 73l-27 -38q-11 -4 -23 4q-10 6 -10 17v3l28 38q8 8 22 -3
q10 -7 10 -17v-4zM290 83l-21 -29q-1 -1 1 -4q3 -2 5 0l21 29q-1 3 -2 4h-4zM653 60l9 -14l8 4l-5 15l13 7l4 -10l17 -53l-23 -11l-32 45l-5 10zM350 63l-25 -46l9 -5l-6 -11l-32 16l6 12l9 -5l25 47zM402 34l-4 -13l-15 5l2 6q0 3 -3 3q-2 2 -4 0l-2 -7q0 -2 3 -4l1 -1
q12 -11 12 -18l-7 -19q-6 -3 -13 -3q-6 0 -8 1q-12 5 -15 16l4 12l15 -5l-2 -6q0 -3 4 -3q2 0 3 1l2 5q0 2 -3 5h-1q-12 9 -12 18l7 20q7 4 12 4q1 0 9 -2q15 -5 15 -15zM629 49l19 -63l-23 -7q-10 -4 -18 4l-14 45q0 8 12 13zM681 19l-7 19l-6 -3l11 -17zM578 34l11 -65
l-30 -5l-2 13l14 2l-3 13l-13 -2l-2 12l13 3l-2 14l-14 -3l-2 13zM483 27l-9 -65l-17 2l-5 32h-1l-4 -31l-16 2l8 65l18 -2l5 -32l1 -1l4 32zM617 31l-4 -1q-3 0 -3 -3l11 -34q3 -3 4 -1l4 1zM512 26v-65h-17v66z" />
    <glyph glyph-name="uniE002" unicode="&#xe002;" 
d="M561 191q0 -77 -42.5 -126t-118.5 -61v-104h-92v100h-68v-100h-92v100h-93v680h93v100h92v-100h68v100h92v-107q64 -15 100.5 -58t36.5 -109q0 -109 -93 -147q55 -21 86 -64.5t31 -103.5zM403 494q0 78 -100 78h-109v-165h108q48 0 74.5 23.5t26.5 63.5zM194 108h113
q117 0 117 95q0 46 -30 71t-87 25h-113v-191z" />
    <glyph glyph-name="Adieresis.ss02" horiz-adv-x="712" 
d="M557 0l-48 142h-309l-49 -142h-141l254 710h184l254 -710h-145zM240 258h229l-28 82q-16 45 -17 50q-48 136 -70 212q-19 -65 -77 -234l-10 -30zM253 776q-31 0 -52.5 21.5t-21.5 51.5t21.5 51.5t52.5 21.5t52.5 -21.5t21.5 -51.5t-21.5 -51.5t-52.5 -21.5zM457 776
q-31 0 -52.5 21.5t-21.5 51.5t21.5 51.5t52.5 21.5t52.5 -21.5t21.5 -51.5t-21.5 -51.5t-52.5 -21.5z" />
    <glyph glyph-name="Cdotaccent.ss02" horiz-adv-x="675" 
d="M388 727q79 0 139 -24.5t125 -81.5l-82 -97q-52 45 -93 62.5t-90 17.5q-97 0 -153.5 -67.5t-56.5 -180.5t57 -181.5t151 -68.5q55 0 95 21q39 19 101 70l82 -95q-67 -63 -131 -91t-145 -28q-161 0 -257 105t-96 269q0 163 95 266.5t259 103.5zM388 771q-32 0 -54.5 22
t-22.5 54t22.5 54t54.5 22t54.5 -22t22.5 -54t-22.5 -54t-54.5 -22z" />
    <glyph glyph-name="Edieresis.ss02" horiz-adv-x="628" 
d="M571 710v-118h-359v-166h336v-118h-336v-190h370v-118h-510v710h499zM225 776q-31 0 -52.5 21.5t-21.5 51.5t21.5 51.5t52.5 21.5t52.5 -21.5t21.5 -51.5t-21.5 -51.5t-52.5 -21.5zM429 776q-31 0 -52.5 21.5t-21.5 51.5t21.5 51.5t52.5 21.5t52.5 -21.5t21.5 -51.5
t-21.5 -51.5t-52.5 -21.5z" />
    <glyph glyph-name="Edotaccent.ss02" horiz-adv-x="628" 
d="M571 710v-118h-359v-166h336v-118h-336v-190h370v-118h-510v710h499zM327 771q-32 0 -54.5 22t-22.5 54t22.5 54t54.5 22t54.5 -22t22.5 -54t-22.5 -54t-54.5 -22z" />
    <glyph glyph-name="Gcommaaccent.ss02" horiz-adv-x="754" 
d="M364 276v118h330v-394h-107l-7 67q-62 -83 -203 -83q-159 0 -251 103t-92 269q0 162 97 266t261 104q92 0 161.5 -30.5t140.5 -102.5l-88 -91q-62 56 -109.5 78.5t-105.5 22.5q-98 0 -156 -65.5t-58 -181.5q0 -119 56 -184.5t155 -65.5q84 0 131.5 42.5t47.5 116.5v11
h-203zM380 -53q34 0 56.5 -23t22.5 -60q0 -59 -37 -91.5t-101 -32.5v46q62 2 78 43q-16 -2 -18 -2q-71 0 -71 58q0 27 20 44.5t50 17.5z" />
    <glyph glyph-name="Gdotaccent.ss02" horiz-adv-x="754" 
d="M364 276v118h330v-394h-107l-7 67q-62 -83 -203 -83q-159 0 -251 103t-92 269q0 162 97 266t261 104q92 0 161.5 -30.5t140.5 -102.5l-88 -91q-62 56 -109.5 78.5t-105.5 22.5q-98 0 -156 -65.5t-58 -181.5q0 -119 56 -184.5t155 -65.5q84 0 131.5 42.5t47.5 116.5v11
h-203zM386 771q-32 0 -54.5 22t-22.5 54t22.5 54t54.5 22t54.5 -22t22.5 -54t-22.5 -54t-54.5 -22z" />
    <glyph glyph-name="Idieresis.ss02" horiz-adv-x="298" 
d="M219 710v-710h-140v710h140zM47 776q-31 0 -52.5 21.5t-21.5 51.5t21.5 51.5t52.5 21.5t52.5 -21.5t21.5 -51.5t-21.5 -51.5t-52.5 -21.5zM251 776q-31 0 -52.5 21.5t-21.5 51.5t21.5 51.5t52.5 21.5t52.5 -21.5t21.5 -51.5t-21.5 -51.5t-52.5 -21.5z" />
    <glyph glyph-name="Idotaccent.ss02" horiz-adv-x="298" 
d="M219 710v-710h-140v710h140zM149 771q-32 0 -54.5 22t-22.5 54t22.5 54t54.5 22t54.5 -22t22.5 -54t-22.5 -54t-54.5 -22z" />
    <glyph glyph-name="K.ss01" horiz-adv-x="693" 
d="M536 0l-210 332l-114 -107v-225h-140v710h140v-319l352 336l87 -90l-227 -212l269 -425h-157z" />
    <glyph glyph-name="Kcommaaccent.ss01" horiz-adv-x="693" 
d="M536 0l-210 332l-114 -107v-225h-140v710h140v-319l352 336l87 -90l-227 -212l269 -425h-157zM438 -60v-106l-72 -92h-68l66 92h-62v106h136z" />
    <glyph glyph-name="Kcommaaccent.ss01.ss02" horiz-adv-x="693" 
d="M536 0l-210 332l-114 -107v-225h-140v710h140v-319l352 336l87 -90l-227 -212l269 -425h-157zM365 -53q34 0 56.5 -23t22.5 -60q0 -59 -37 -91.5t-101 -32.5v46q62 2 78 43q-16 -2 -18 -2q-71 0 -71 58q0 27 20 44.5t50 17.5z" />
    <glyph glyph-name="Kcommaaccent.ss02" horiz-adv-x="693" 
d="M535 0l-213 337l-110 -116v-221h-140v710h140v-318l293 318h172l-260 -273l276 -437h-158zM356 -53q34 0 56.5 -23t22.5 -60q0 -59 -37 -91.5t-101 -32.5v46q62 2 78 43q-16 -2 -18 -2q-71 0 -71 58q0 27 20 44.5t50 17.5z" />
    <glyph glyph-name="Lcommaaccent.ss02" horiz-adv-x="556" 
d="M212 710v-590h314v-120h-454v710h140zM296 -53q34 0 56.5 -23t22.5 -60q0 -59 -37 -91.5t-101 -32.5v46q62 2 78 43q-16 -2 -18 -2q-71 0 -71 58q0 27 20 44.5t50 17.5z" />
    <glyph glyph-name="Ldot.ss02" horiz-adv-x="556" 
d="M212 710v-590h314v-120h-454v710h140zM408 286q-36 0 -61.5 25.5t-25.5 61.5q0 35 25.5 60.5t61.5 25.5q35 0 60.5 -25.5t25.5 -60.5q0 -36 -25.5 -61.5t-60.5 -25.5z" />
    <glyph glyph-name="Ncommaaccent.ss02" horiz-adv-x="743" 
d="M535 710h136v-710h-149l-180 288l-20 32q-84 136 -120 201q6 -125 6 -276v-245h-136v710h152l191 -306l27 -45q62 -100 98 -163q-5 105 -5 256v258zM372 -53q34 0 56.5 -23t22.5 -60q0 -59 -37 -91.5t-101 -32.5v46q62 2 78 43q-16 -2 -18 -2q-71 0 -71 58q0 27 20 44.5
t50 17.5z" />
    <glyph glyph-name="Odieresis.ss02" horiz-adv-x="769" 
d="M385 727q157 2 254.5 -105t95.5 -267q2 -160 -95.5 -267t-254.5 -105q-159 0 -255 105t-96 267t96 267t255 105zM385 603q-94 0 -150.5 -68t-56.5 -180t56.5 -180t150.5 -68q93 0 149.5 68t56.5 180t-56.5 180t-149.5 68zM283 776q-31 0 -52.5 21.5t-21.5 51.5t21.5 51.5
t52.5 21.5t52.5 -21.5t21.5 -51.5t-21.5 -51.5t-52.5 -21.5zM487 776q-31 0 -52.5 21.5t-21.5 51.5t21.5 51.5t52.5 21.5t52.5 -21.5t21.5 -51.5t-21.5 -51.5t-52.5 -21.5z" />
    <glyph glyph-name="Rcommaaccent.ss02" horiz-adv-x="693" 
d="M669 0h-156l-170 263h-131v-263h-140v710h336q102 0 168 -62.5t66 -161.5q0 -78 -41 -134t-113 -78zM212 594v-215h171q57 0 89 28t32 79t-32 79.5t-89 28.5h-171zM341 -53q34 0 56.5 -23t22.5 -60q0 -59 -37 -91.5t-101 -32.5v46q62 2 78 43q-16 -2 -18 -2q-71 0 -71 58
q0 27 20 44.5t50 17.5z" />
    <glyph glyph-name="Scommaaccent.ss02" horiz-adv-x="645" 
d="M319 726q88 0 151 -25q63 -26 133 -85l-82 -98q-62 52 -104 69q-43 18 -101 18q-59 0 -94.5 -24t-35.5 -63q0 -26 16.5 -42t51.5 -27q44 -14 105 -28q142 -35 196 -77t57 -130q0 -102 -76.5 -166.5t-204.5 -64.5q-93 0 -164 30q-71 29 -151 101l84 99q72 -63 121 -85
q51 -23 113 -23q63 0 101 26.5t38 71.5q0 49 -62 71q-29 9 -84 21l-34 8q-141 34 -193 79.5t-52 131.5q0 90 76 151t195 61zM317 -53q34 0 56.5 -23t22.5 -60q0 -59 -37 -91.5t-101 -32.5v46q62 2 78 43q-16 -2 -18 -2q-71 0 -71 58q0 27 20 44.5t50 17.5z" />
    <glyph glyph-name="uni021A.ss02" horiz-adv-x="610" 
d="M584 710v-120h-209v-590h-140v590h-209v120h558zM302 -53q34 0 56.5 -23t22.5 -60q0 -59 -37 -91.5t-101 -32.5v46q62 2 78 43q-16 -2 -18 -2q-71 0 -71 58q0 27 20 44.5t50 17.5z" />
    <glyph glyph-name="Udieresis.ss02" horiz-adv-x="706" 
d="M638 710v-470q0 -129 -73.5 -193t-211.5 -64t-211.5 64t-73.5 193v470h140v-465q0 -67 36.5 -102.5t108.5 -35.5q71 0 108 35.5t37 102.5v465h140zM251 776q-31 0 -52.5 21.5t-21.5 51.5t21.5 51.5t52.5 21.5t52.5 -21.5t21.5 -51.5t-21.5 -51.5t-52.5 -21.5zM455 776
q-31 0 -52.5 21.5t-21.5 51.5t21.5 51.5t52.5 21.5t52.5 -21.5t21.5 -51.5t-21.5 -51.5t-52.5 -21.5z" />
    <glyph glyph-name="Wdieresis.ss02" horiz-adv-x="971" 
d="M808 710h138l-172 -710h-161l-70 274q-37 151 -57 245q-21 -98 -58 -245l-70 -274h-160l-173 710h142l71 -306q31 -136 47 -232q36 162 55 232l81 306h136l79 -306q25 -96 54 -236q25 143 47 236zM384 776q-31 0 -52.5 21.5t-21.5 51.5t21.5 51.5t52.5 21.5t52.5 -21.5
t21.5 -51.5t-21.5 -51.5t-52.5 -21.5zM588 776q-31 0 -52.5 21.5t-21.5 51.5t21.5 51.5t52.5 21.5t52.5 -21.5t21.5 -51.5t-21.5 -51.5t-52.5 -21.5z" />
    <glyph glyph-name="Ydieresis.ss02" horiz-adv-x="657" 
d="M500 710h149l-251 -412v-298h-140v299l-250 411h154l169 -288zM227 776q-31 0 -52.5 21.5t-21.5 51.5t21.5 51.5t52.5 21.5t52.5 -21.5t21.5 -51.5t-21.5 -51.5t-52.5 -21.5zM431 776q-31 0 -52.5 21.5t-21.5 51.5t21.5 51.5t52.5 21.5t52.5 -21.5t21.5 -51.5
t-21.5 -51.5t-52.5 -21.5z" />
    <glyph glyph-name="Zdotaccent.ss02" horiz-adv-x="641" 
d="M597 710v-115l-385 -477h384v-118h-552v115l385 477h-371v118h539zM332 771q-32 0 -54.5 22t-22.5 54t22.5 54t54.5 22t54.5 -22t22.5 -54t-22.5 -54t-54.5 -22z" />
    <glyph glyph-name="adieresis.ss02" horiz-adv-x="560" 
d="M281 528q106 0 164 -49t58 -134v-345h-117v53q-51 -70 -165 -70q-82 0 -132.5 38t-50.5 108q0 77 56 119t165 61l120 22v12q0 37 -25.5 57.5t-70.5 20.5q-49 0 -80 -19q-36 -22 -79 -64l-82 75q97 115 239 115zM243 87q60 0 98 31t38 90v30l-86 -18q-69 -15 -98.5 -32.5
t-29.5 -49.5q0 -24 20.5 -37.5t57.5 -13.5zM183 577q-31 0 -52.5 21.5t-21.5 51.5t21.5 51.5t52.5 21.5t52.5 -21.5t21.5 -51.5t-21.5 -51.5t-52.5 -21.5zM387 577q-31 0 -52.5 21.5t-21.5 51.5t21.5 51.5t52.5 21.5t52.5 -21.5t21.5 -51.5t-21.5 -51.5t-52.5 -21.5z" />
    <glyph glyph-name="cdotaccent.ss02" horiz-adv-x="528" 
d="M508 431l-81 -80q-40 38 -70 52.5t-63 14.5q-61 0 -96.5 -45.5t-35.5 -116.5t35 -116t96 -45q36 0 67.5 18t71.5 61l86 -72q-52 -65 -104.5 -91.5t-122.5 -26.5q-117 0 -189 74t-72 198t73 198t191 74q65 0 115.5 -22.5t98.5 -74.5zM288 572q-32 0 -54.5 22t-22.5 54
t22.5 54t54.5 22t54.5 -22t22.5 -54t-22.5 -54t-54.5 -22z" />
    <glyph glyph-name="edieresis.ss02" horiz-adv-x="560" 
d="M301 94q43 0 74 15q31 16 78 55l73 -80q-53 -54 -107 -77t-121 -23q-123 0 -195.5 73t-72.5 196q0 121 70 198t187 77q114 0 176.5 -67t62.5 -188q0 -21 -2 -51h-367q9 -61 45.5 -94.5t98.5 -33.5zM283 426q-99 0 -123 -111h239q-4 52 -34.5 81.5t-81.5 29.5zM189 577
q-31 0 -52.5 21.5t-21.5 51.5t21.5 51.5t52.5 21.5t52.5 -21.5t21.5 -51.5t-21.5 -51.5t-52.5 -21.5zM393 577q-31 0 -52.5 21.5t-21.5 51.5t21.5 51.5t52.5 21.5t52.5 -21.5t21.5 -51.5t-21.5 -51.5t-52.5 -21.5z" />
    <glyph glyph-name="edotaccent.ss02" horiz-adv-x="560" 
d="M301 94q43 0 74 15q31 16 78 55l73 -80q-53 -54 -107 -77t-121 -23q-123 0 -195.5 73t-72.5 196q0 121 70 198t187 77q114 0 176.5 -67t62.5 -188q0 -21 -2 -51h-367q9 -61 45.5 -94.5t98.5 -33.5zM283 426q-99 0 -123 -111h239q-4 52 -34.5 81.5t-81.5 29.5zM291 572
q-32 0 -54.5 22t-22.5 54t22.5 54t54.5 22t54.5 -22t22.5 -54t-22.5 -54t-54.5 -22z" />
    <glyph glyph-name="gcommaaccent.ss02" 
d="M413 511h120v-486q0 -105 -69 -163t-181 -58q-127 0 -243 75l63 94q57 -34 96.5 -47.5t81.5 -13.5q59 0 92 31t33 93v41q-53 -65 -149 -65q-98 0 -161.5 72t-63.5 186q0 113 64 185.5t161 72.5q106 0 156 -74v57zM286 122q54 0 89 41t35 107t-35 106.5t-89 40.5
q-55 0 -89 -40.5t-34 -106.5t34 -107t89 -41zM301 692q71 0 71 -58q0 -27 -20 -44.5t-50 -17.5q-34 0 -56.5 23t-22.5 60q0 59 37 91.5t101 32.5v-46q-62 -2 -78 -43q16 2 18 2z" />
    <glyph glyph-name="gdotaccent.ss02" 
d="M413 511h120v-486q0 -105 -69 -163t-181 -58q-127 0 -243 75l63 94q57 -34 96.5 -47.5t81.5 -13.5q59 0 92 31t33 93v41q-53 -65 -149 -65q-98 0 -161.5 72t-63.5 186q0 113 64 185.5t161 72.5q106 0 156 -74v57zM286 122q54 0 89 41t35 107t-35 106.5t-89 40.5
q-55 0 -89 -40.5t-34 -106.5t34 -107t89 -41zM296 572q-32 0 -54.5 22t-22.5 54t22.5 54t54.5 22t54.5 -22t22.5 -54t-22.5 -54t-54.5 -22z" />
    <glyph glyph-name="i.ss02" horiz-adv-x="244" 
d="M187 511v-511h-130v511h130zM122 572q-32 0 -54.5 22t-22.5 54t22.5 54t54.5 22t54.5 -22t22.5 -54t-22.5 -54t-54.5 -22z" />
    <glyph glyph-name="idieresis.ss02" horiz-adv-x="244" 
d="M187 511v-511h-130v511h130zM20 577q-31 0 -52.5 21.5t-21.5 51.5t21.5 51.5t52.5 21.5t52.5 -21.5t21.5 -51.5t-21.5 -51.5t-52.5 -21.5zM224 577q-31 0 -52.5 21.5t-21.5 51.5t21.5 51.5t52.5 21.5t52.5 -21.5t21.5 -51.5t-21.5 -51.5t-52.5 -21.5z" />
    <glyph glyph-name="i.loclTRK" horiz-adv-x="244" 
d="M187 511v-511h-130v511h130zM187 710v-122h-130v122h130z" />
    <glyph glyph-name="i.loclTRK.ss02" horiz-adv-x="244" 
d="M187 511v-511h-130v511h130zM122 572q-32 0 -54.5 22t-22.5 54t22.5 54t54.5 22t54.5 -22t22.5 -54t-22.5 -54t-54.5 -22z" />
    <glyph glyph-name="ij.ss02" horiz-adv-x="492" 
d="M122 572q-32 0 -54.5 22t-22.5 54t22.5 54t54.5 22t54.5 -22t22.5 -54t-22.5 -54t-54.5 -22zM370 572q-32 0 -54.5 22t-22.5 54t22.5 54t54.5 22t54.5 -22t22.5 -54t-22.5 -54t-54.5 -22zM187 511v-511h-130v511h130zM171 -176l23 97q32 -7 57 -7q29 0 41.5 15t12.5 49
v533h130v-530q0 -172 -159 -172q-57 0 -105 15z" />
    <glyph glyph-name="iogonek.ss02" horiz-adv-x="244" 
d="M122 570q-32 0 -54.5 22t-22.5 54t22.5 54t54.5 22t54.5 -22t22.5 -54t-22.5 -54t-54.5 -22zM57 0v511h130v-511q-86 -53 -86 -103q0 -36 49 -36q17 0 29 4v-75q-18 -8 -49 -8q-58 0 -88.5 24.5t-30.5 67.5q0 68 72 126h-26z" />
    <glyph glyph-name="j.calt" horiz-adv-x="246" 
d="M190 710v-122h-130v122h130zM-30 -184l15 99q22 -2 30 -2q24 0 34.5 11.5t10.5 41.5v545h130v-555q0 -75 -35.5 -111t-110.5 -36q-43 0 -74 7z" />
    <glyph glyph-name="j.calt.ss02" horiz-adv-x="248" 
d="M126 572q-32 0 -54.5 22t-22.5 54t22.5 54t54.5 22t54.5 -22t22.5 -54t-22.5 -54t-54.5 -22zM-30 -184l15 99q22 -2 30 -2q24 0 34.5 11.5t10.5 41.5v545h130v-555q0 -75 -35.5 -111t-110.5 -36q-43 0 -74 7z" />
    <glyph glyph-name="j.ss02" horiz-adv-x="248" 
d="M-73 -176l23 97q32 -7 57 -7q29 0 41.5 15t12.5 49v533h130v-530q0 -172 -159 -172q-57 0 -105 15zM126 572q-32 0 -54.5 22t-22.5 54t22.5 54t54.5 22t54.5 -22t22.5 -54t-22.5 -54t-54.5 -22z" />
    <glyph glyph-name="k.ss01" horiz-adv-x="548" 
d="M406 0l-132 212l-84 -76v-136h-133v710h133v-430l262 244l75 -80l-163 -149l184 -295h-142z" />
    <glyph glyph-name="kcommaaccent.ss01" horiz-adv-x="548" 
d="M406 0l-132 212l-84 -76v-136h-133v710h133v-430l262 244l75 -80l-163 -149l184 -295h-142zM362 -60v-106l-72 -92h-68l66 92h-62v106h136z" />
    <glyph glyph-name="kcommaaccent.ss01.ss02" horiz-adv-x="548" 
d="M406 0l-132 212l-84 -76v-136h-133v710h133v-430l262 244l75 -80l-163 -149l184 -295h-142zM289 -53q34 0 56.5 -23t22.5 -60q0 -59 -37 -91.5t-101 -32.5v46q62 2 78 43q-16 -2 -18 -2q-71 0 -71 58q0 27 20 44.5t50 17.5z" />
    <glyph glyph-name="kcommaaccent.ss02" horiz-adv-x="549" 
d="M406 0l-147 235l-72 -73v-162h-130v710h130v-405l193 206h151l-182 -191l200 -320h-143zM288 -53q34 0 56.5 -23t22.5 -60q0 -59 -37 -91.5t-101 -32.5v46q62 2 78 43q-16 -2 -18 -2q-71 0 -71 58q0 27 20 44.5t50 17.5z" />
    <glyph glyph-name="lcommaaccent.ss02" horiz-adv-x="248" 
d="M189 710v-710h-130v710h130zM119 -53q34 0 56.5 -23t22.5 -60q0 -59 -37 -91.5t-101 -32.5v46q62 2 78 43q-16 -2 -18 -2q-71 0 -71 58q0 27 20 44.5t50 17.5z" />
    <glyph glyph-name="ldot.ss02" horiz-adv-x="502" 
d="M189 710v-710h-130v710h130zM371 240q-36 0 -61.5 25.5t-25.5 61.5q0 35 25.5 60.5t61.5 25.5q35 0 60.5 -25.5t25.5 -60.5q0 -36 -25.5 -61.5t-60.5 -25.5z" />
    <glyph glyph-name="ncommaaccent.ss02" horiz-adv-x="572" 
d="M332 528q86 0 134.5 -48.5t48.5 -129.5v-350h-130v311q0 51 -24.5 78t-70.5 27q-45 0 -74 -30t-29 -78v-308h-130v511h121v-58q52 75 154 75zM277 -53q34 0 56.5 -23t22.5 -60q0 -59 -37 -91.5t-101 -32.5v46q62 2 78 43q-16 -2 -18 -2q-71 0 -71 58q0 27 20 44.5
t50 17.5z" />
    <glyph glyph-name="odieresis.ss02" horiz-adv-x="591" 
d="M296 528q116 0 190.5 -75.5t74.5 -196.5t-74.5 -196.5t-190.5 -75.5q-117 0 -191.5 75.5t-74.5 196.5t74.5 196.5t191.5 75.5zM296 418q-61 0 -97.5 -44.5t-36.5 -117.5q0 -74 36.5 -118t97.5 -44q60 0 96.5 44t36.5 118q0 73 -36.5 117.5t-96.5 44.5zM192 577
q-31 0 -52.5 21.5t-21.5 51.5t21.5 51.5t52.5 21.5t52.5 -21.5t21.5 -51.5t-21.5 -51.5t-52.5 -21.5zM396 577q-31 0 -52.5 21.5t-21.5 51.5t21.5 51.5t52.5 21.5t52.5 -21.5t21.5 -51.5t-21.5 -51.5t-52.5 -21.5z" />
    <glyph glyph-name="rcommaaccent.ss02" horiz-adv-x="396" 
d="M306 517q31 0 81 -15l-23 -113q-37 10 -65 10q-52 0 -82 -39t-30 -108v-252h-130v511h121v-75q40 81 128 81zM117 -53q34 0 56.5 -23t22.5 -60q0 -59 -37 -91.5t-101 -32.5v46q62 2 78 43q-16 -2 -18 -2q-71 0 -71 58q0 27 20 44.5t50 17.5z" />
    <glyph glyph-name="scommaaccent.ss02" horiz-adv-x="509" 
d="M253 528q67 0 117 -18t103 -62l-70 -85q-44 35 -77.5 47.5t-75.5 12.5q-39 0 -62.5 -14t-23.5 -37q0 -27 44 -40q21 -6 75 -18q111 -25 154.5 -59t43.5 -104q0 -76 -59 -121.5t-160 -45.5q-74 0 -130.5 22t-116.5 75l75 84q56 -46 92 -60q36 -16 83 -16q40 0 64.5 14
t24.5 40q0 34 -51 49q-7 1 -31.5 7t-43.5 10q-109 24 -148.5 57.5t-39.5 101.5t57.5 114t155.5 46zM248 -53q34 0 56.5 -23t22.5 -60q0 -59 -37 -91.5t-101 -32.5v46q62 2 78 43q-16 -2 -18 -2q-71 0 -71 58q0 27 20 44.5t50 17.5z" />
    <glyph glyph-name="uni021B.ss02" horiz-adv-x="387" 
d="M353 110l15 -103q-56 -19 -115 -19q-75 0 -110 35.5t-35 108.5v280h-91v99h91v158h130v-158h122v-99h-122v-264q0 -26 12 -36.5t39 -10.5t64 9zM235 -53q34 0 56.5 -23t22.5 -60q0 -59 -37 -91.5t-101 -32.5v46q62 2 78 43q-16 -2 -18 -2q-71 0 -71 58q0 27 20 44.5
t50 17.5z" />
    <glyph glyph-name="udieresis.ss02" horiz-adv-x="564" 
d="M377 511h130v-511h-119v54q-43 -70 -150 -70q-89 0 -135 43t-46 119v365h130v-329q0 -40 22 -62.5t63 -22.5q49 0 77 27.5t28 78.5v308zM174 577q-31 0 -52.5 21.5t-21.5 51.5t21.5 51.5t52.5 21.5t52.5 -21.5t21.5 -51.5t-21.5 -51.5t-52.5 -21.5zM378 577
q-31 0 -52.5 21.5t-21.5 51.5t21.5 51.5t52.5 21.5t52.5 -21.5t21.5 -51.5t-21.5 -51.5t-52.5 -21.5z" />
    <glyph glyph-name="wdieresis.ss02" horiz-adv-x="792" 
d="M644 512h134l-142 -512h-154l-38 139q-20 75 -50 208q-23 -114 -47 -208l-36 -139h-155l-142 512h137l41 -168q18 -69 49 -226q32 149 52 226l44 168h120l44 -168q20 -76 53 -228q31 153 49 228zM296 577q-31 0 -52.5 21.5t-21.5 51.5t21.5 51.5t52.5 21.5t52.5 -21.5
t21.5 -51.5t-21.5 -51.5t-52.5 -21.5zM500 577q-31 0 -52.5 21.5t-21.5 51.5t21.5 51.5t52.5 21.5t52.5 -21.5t21.5 -51.5t-21.5 -51.5t-52.5 -21.5z" />
    <glyph glyph-name="ydieresis.ss02" horiz-adv-x="521" 
d="M379 511h132l-197 -568q-26 -74 -66.5 -106t-110.5 -32q-56 0 -98 13l22 97q31 -6 60 -6q60 0 81 64l-192 538h136l45 -134q44 -131 73 -227q41 135 71 228zM159 577q-31 0 -52.5 21.5t-21.5 51.5t21.5 51.5t52.5 21.5t52.5 -21.5t21.5 -51.5t-21.5 -51.5t-52.5 -21.5z
M363 577q-31 0 -52.5 21.5t-21.5 51.5t21.5 51.5t52.5 21.5t52.5 -21.5t21.5 -51.5t-21.5 -51.5t-52.5 -21.5z" />
    <glyph glyph-name="zdotaccent.ss02" horiz-adv-x="498" 
d="M458 511v-98l-263 -307h263v-106h-424v98l265 308h-249v105h408zM247 572q-32 0 -54.5 22t-22.5 54t22.5 54t54.5 22t54.5 -22t22.5 -54t-22.5 -54t-54.5 -22z" />
    <glyph glyph-name="f_f_i.liga.ss02" horiz-adv-x="951" 
d="M297 615q-33 0 -47.5 -15t-14.5 -51v-38h94v-99h-94v-412h-130v412h-88v99h88v45q0 166 166 166q55 0 109 -18l-23 -97q-38 8 -60 8zM640 614q-34 0 -46.5 -14.5t-12.5 -51.5v-37h112v-99h-112v-412h-130v412h-79v99h79v45q0 166 159 166q42 0 91 -12l-16 -101
q-28 5 -45 5zM829 570q-32 0 -54.5 22t-22.5 54t22.5 54t54.5 22t54.5 -22t22.5 -54t-22.5 -54t-54.5 -22zM764 0v511h130v-511h-130z" />
    <glyph glyph-name="f_f_j.liga.ss02" horiz-adv-x="951" 
d="M297 615q-33 0 -47.5 -15t-14.5 -51v-38h94v-99h-94v-412h-130v412h-88v99h88v45q0 166 166 166q55 0 109 -18l-23 -97q-38 8 -60 8zM693 412h-112v-412h-130v412h-79v99h79v45q0 166 159 166q42 0 91 -12l-16 -101q-28 5 -45 5q-34 0 -46.5 -14.5t-12.5 -51.5v-37h112
v-99zM829 570q-32 0 -54.5 22t-22.5 54t22.5 54t54.5 22t54.5 -22t22.5 -54t-22.5 -54t-54.5 -22zM764 -22v533h130v-530q0 -172 -159 -172q-57 0 -105 15l23 97q32 -7 57 -7q29 0 41.5 15t12.5 49z" />
    <glyph glyph-name="f_j.liga.ss02" horiz-adv-x="606" 
d="M347 412h-112v-412h-130v412h-88v99h88v45q0 166 159 166q42 0 91 -12l-16 -101q-28 5 -45 5q-34 0 -46.5 -14.5t-12.5 -51.5v-37h112v-99zM484 570q-32 0 -54.5 22t-22.5 54t22.5 54t54.5 22t54.5 -22t22.5 -54t-22.5 -54t-54.5 -22zM419 -22v533h130v-530
q0 -172 -159 -172q-57 0 -105 15l23 97q32 -7 57 -7q29 0 41.5 15t12.5 49z" />
    <glyph glyph-name="fi.ss02" horiz-adv-x="605" 
d="M294 614q-34 0 -46.5 -14.5t-12.5 -51.5v-37h112v-99h-112v-412h-130v412h-88v99h88v45q0 166 159 166q42 0 91 -12l-16 -101q-28 5 -45 5zM483 570q-32 0 -54.5 22t-22.5 54t22.5 54t54.5 22t54.5 -22t22.5 -54t-22.5 -54t-54.5 -22zM418 0v511h130v-511h-130z" />
    <glyph glyph-name="zero.case" horiz-adv-x="600" 
d="M300 727q153 0 222 -136q48 -96 48 -236q0 -139 -48 -235q-68 -137 -222 -137t-222 137q-48 96 -48 235q0 140 48 236q69 136 222 136zM300 612q-70 0 -103 -75q-30 -67 -30 -182q0 -113 30 -181q33 -76 103 -76t103 76q30 67 30 181q0 115 -30 182q-33 75 -103 75z" />
    <glyph glyph-name="one.case" horiz-adv-x="469" 
d="M240 710h105v-710h-135v544l-127 -87l-66 92z" />
    <glyph glyph-name="two.case" horiz-adv-x="605" 
d="M328 249l-25 -15q-64 -39 -90.5 -63t-34.5 -59h382v-112h-521v53q0 130 97 211q43 35 108 74q10 7 54 32q77 45 102 70t28 75q0 44 -30 70t-79 26q-47 0 -86 -27.5t-94 -96.5l-100 70q62 91 128.5 130t147.5 39q115 0 181 -60t66 -149q0 -108 -84 -173q-44 -34 -103 -67z
" />
    <glyph glyph-name="three.case" horiz-adv-x="589" 
d="M524 600l-196 -170q99 -3 160.5 -59.5t61.5 -151.5q0 -96 -71.5 -166t-191.5 -70q-73 0 -135.5 21t-134.5 71l65 95q63 -39 108 -55.5t93 -16.5q62 0 97 32.5t35 87.5q0 53 -37.5 83.5t-101.5 30.5q-49 0 -84 -13l-59 81l229 198h-308v112h470v-110z" />
    <glyph glyph-name="four.case" horiz-adv-x="594" 
d="M489 265h98v-108h-98v-157h-132v157h-335v125l269 428h149l-279 -445h196v146h132v-146z" />
    <glyph glyph-name="five.case" 
d="M322 462q100 0 164 -64.5t64 -158.5q0 -112 -73 -184t-188 -72q-80 0 -137 22q-61 23 -137 75l66 95q68 -43 110 -60t89 -17q61 0 98 36.5t37 97.5q0 57 -34 88t-94 31q-64 0 -111 -42l-119 11l31 390h427v-112h-313l-15 -176q52 40 135 40z" />
    <glyph glyph-name="six.case" horiz-adv-x="599" 
d="M336 470q101 0 168 -70t67 -169q0 -101 -73 -174t-192 -73q-123 0 -196.5 79.5t-73.5 210.5q0 104 51.5 198.5t155.5 195.5l43 42h177v-2l-117 -109q-109 -103 -149 -176q53 47 139 47zM307 99q59 0 95 36.5t36 93.5t-36 93.5t-95 36.5t-97.5 -36.5t-38.5 -93.5
q0 -56 38.5 -93t97.5 -37z" />
    <glyph glyph-name="seven.case" horiz-adv-x="554" 
d="M20 710h518v-101q-96 -118 -169 -281q-74 -165 -98 -328h-151q21 152 94 310q73 161 169 288h-363v112z" />
    <glyph glyph-name="eight.case" horiz-adv-x="596" 
d="M448 383q124 -55 124 -185q0 -95 -74 -155.5t-200 -60.5t-200 60.5t-74 155.5q0 130 124 185q-91 51 -91 154q0 84 66.5 137t174.5 53t174.5 -53t66.5 -137q0 -103 -91 -154zM298 624q-51 0 -82 -26t-31 -68q0 -43 31 -70.5t82 -27.5t82 27.5t31 70.5q0 42 -31 68t-82 26
zM298 93q64 0 101 32t37 84q0 53 -37 86.5t-101 33.5t-101 -33.5t-37 -86.5q0 -52 37 -84t101 -32z" />
    <glyph glyph-name="nine.case" horiz-adv-x="598" 
d="M292 726q124 0 197 -79t73 -210q0 -103 -51 -196t-156 -198l-43 -43h-177v2l117 109q107 100 149 177q-53 -47 -139 -47q-101 0 -168 69.5t-67 168.5q0 102 73 174.5t192 72.5zM291 351q59 0 97.5 37t38.5 93q0 57 -38.5 93.5t-97.5 36.5t-95 -36.5t-36 -93.5t36 -93.5
t95 -36.5z" />
    <glyph glyph-name="zero.tf" 
d="M295 697q149 0 218 -131q47 -92 47 -226t-47 -226q-69 -131 -218 -131t-218 131q-47 92 -47 226t47 226q69 131 218 131zM295 582q-68 0 -99 -70q-29 -66 -29 -172t29 -172q31 -70 99 -70t99 70q29 66 29 172t-29 172q-31 70 -99 70z" />
    <glyph glyph-name="one.tf" 
d="M393 103h157v-103h-456v103h164v411l-122 -84l-66 92l218 158h105v-577z" />
    <glyph glyph-name="two.tf" 
d="M319 237l-30 -18q-56 -33 -81 -55t-33 -52h368v-112h-509v53q0 125 95 200q37 28 107 72q47 28 48 28q51 29 74 46t38 39q16 22 16 55q0 41 -28 65t-73 24q-46 0 -86.5 -27t-89.5 -89l-99 70q108 161 272 161q111 0 174.5 -58t63.5 -144q0 -106 -82 -167
q-37 -28 -101 -65z" />
    <glyph glyph-name="three.tf" 
d="M510 570l-186 -158q95 -5 153 -58q59 -56 59 -145q0 -92 -69.5 -159t-186.5 -67q-70 0 -130.5 20t-131.5 68l65 95q61 -37 104 -52.5t89 -15.5q59 0 92 29.5t33 80.5q0 50 -36 78.5t-96 28.5q-48 0 -81 -13l-59 81l218 185h-294v112h457v-110z" />
    <glyph glyph-name="four.tf" 
d="M485 257h94v-108h-94v-149h-132v149h-324v125l259 406h148l-270 -423h187v137h132v-137z" />
    <glyph glyph-name="five.tf" 
d="M323 442q97 0 159 -62.5t62 -150.5q0 -107 -72.5 -176.5t-181.5 -69.5q-74 0 -133 21q-56 20 -134 72l66 95q67 -41 106 -57t86 -16q55 0 92 33.5t37 85.5q0 54 -32.5 84.5t-89.5 30.5q-61 0 -105 -39l-119 11l30 376h416v-112h-302l-14 -163q52 37 129 37z" />
    <glyph glyph-name="six.tf" 
d="M333 449q98 0 162.5 -66.5t64.5 -161.5q0 -97 -70.5 -167t-186.5 -70q-120 0 -191.5 76t-71.5 203q0 189 200 378l41 39h177v-2l-116 -105q-98 -91 -140 -164q50 40 131 40zM304 99q55 0 89 33.5t34 86.5t-34 86.5t-89 33.5q-56 0 -92.5 -34t-36.5 -86t36.5 -86t92.5 -34
z" />
    <glyph glyph-name="seven.tf" 
d="M41 680h505v-101q-94 -114 -164 -267q-72 -158 -94 -312h-149q19 142 89 293q70 152 163 275h-350v112z" />
    <glyph glyph-name="eight.tf" 
d="M441 368q119 -52 119 -177q0 -91 -72 -149.5t-195 -58.5t-195 58.5t-72 149.5q0 125 119 177q-87 50 -87 148q0 81 65 131.5t170 50.5t170 -50.5t65 -131.5q0 -98 -87 -148zM293 595q-48 0 -77.5 -24t-29.5 -63q0 -40 29.5 -65.5t77.5 -25.5t77.5 25.5t29.5 65.5
q0 39 -29.5 63t-77.5 24zM293 93q61 0 96 30.5t35 78.5q0 50 -35 81.5t-96 31.5t-96 -31.5t-35 -81.5q0 -48 35 -78.5t96 -30.5z" />
    <glyph glyph-name="nine.tf" 
d="M287 696q120 0 191.5 -76t71.5 -203q0 -187 -200 -378l-41 -39h-177v2l116 105q98 91 140 164q-50 -40 -131 -40q-98 0 -162.5 66.5t-64.5 161.5q0 97 70.5 167t186.5 70zM286 341q56 0 92.5 34t36.5 86t-36.5 86t-92.5 34q-55 0 -89 -33.5t-34 -86.5t34 -86.5t89 -33.5z
" />
    <glyph glyph-name="zero.zero" 
d="M513 566q47 -92 47 -226t-47 -226q-69 -131 -218 -131t-218 131q-47 92 -47 226t47 226q69 131 218 131t218 -131zM196 512q-29 -66 -29 -172q0 -65 10 -109l193 319q-29 32 -75 32q-68 0 -99 -70zM394 168q29 66 29 172q0 59 -11 114l-194 -322q30 -34 77 -34
q68 0 99 70z" />
    <glyph glyph-name="zero.dnom" horiz-adv-x="399" 
d="M200 419q82 0 126.5 -58.5t44.5 -156.5t-44.5 -156.5t-126.5 -58.5t-127.5 58.5t-45.5 156.5t45.5 156.5t127.5 58.5zM200 337q-37 0 -57 -34.5t-20 -98.5t20 -98.5t57 -34.5q75 0 75 133t-75 133z" />
    <glyph glyph-name="one.dnom" horiz-adv-x="319" 
d="M156 408h73v-408h-94v297l-64 -45l-46 63z" />
    <glyph glyph-name="two.dnom" horiz-adv-x="398" 
d="M241 154l-23 -12q-42 -19 -67 -40q-14 -11 -20 -23h233v-79h-332v38q0 59 31.5 95t101.5 72l28 14q46 23 62.5 37t16.5 36q0 20 -18 32.5t-48 12.5q-54 0 -119 -50l-49 62q79 70 169 70q72 0 115.5 -36t43.5 -88q0 -67 -54 -101q-20 -13 -71 -40z" />
    <glyph glyph-name="three.dnom" horiz-adv-x="394" 
d="M341 330l-113 -84q59 -4 96 -37t37 -84q0 -57 -45 -96.5t-121 -39.5q-93 0 -174 54l45 66q72 -38 128 -38q71 0 71 54q0 26 -23 40.5t-62 14.5q-32 0 -48 -6l-40 55l132 100h-181v79h298v-78z" />
    <glyph glyph-name="four.dnom" horiz-adv-x="396" 
d="M317 161h54v-74h-54v-87h-93v87h-196v88l156 233h100l-162 -247h102v78h93v-78z" />
    <glyph glyph-name="five.dnom" horiz-adv-x="396" 
d="M229 268q62 0 101 -38.5t39 -90.5q0 -69 -46 -109.5t-121 -40.5q-86 0 -179 55l45 68q76 -41 128 -41q35 0 55.5 16t20.5 46q0 27 -19 42.5t-55 15.5q-40 0 -72 -26l-75 8l18 235h278v-79h-199l-8 -85q34 24 89 24z" />
    <glyph glyph-name="six.dnom" horiz-adv-x="397" 
d="M226 275q63 0 103.5 -40.5t40.5 -98.5q0 -59 -46.5 -103t-122.5 -44q-81 0 -127 46.5t-46 124.5q0 136 141 248h126v-1q-67 -50 -104 -88t-54 -77q33 33 89 33zM201 71q36 0 57 17.5t21 45.5t-20.5 45.5t-55.5 17.5t-57 -18t-22 -45q0 -29 21 -46t56 -17z" />
    <glyph glyph-name="seven.dnom" horiz-adv-x="371" 
d="M26 408h330v-70q-145 -160 -160 -338h-103q6 86 51 176q46 90 103 153h-221v79z" />
    <glyph glyph-name="eight.dnom" horiz-adv-x="399" 
d="M297 216q73 -31 73 -104q0 -55 -46 -89.5t-125 -34.5t-125 34.5t-46 89.5q0 74 73 105q-56 30 -56 88q0 49 43 81.5t111 32.5t111 -32.5t43 -81.5q0 -59 -56 -89zM199 344q-29 0 -47.5 -13.5t-18.5 -33.5q0 -21 18.5 -35.5t47.5 -14.5t47 14.5t18 35.5q0 20 -18 33.5
t-47 13.5zM199 65q36 0 56.5 15.5t20.5 40.5t-21 42t-56 17t-56 -17t-21 -42t20.5 -40.5t56.5 -15.5z" />
    <glyph glyph-name="nine.dnom" horiz-adv-x="396" 
d="M194 419q80 0 126.5 -46.5t46.5 -124.5q0 -136 -141 -248h-124v1q124 94 154 161q-35 -29 -86 -29q-63 0 -104 40.5t-41 98.5q0 59 46.5 103t122.5 44zM193 211q34 0 56.5 18t22.5 45q0 28 -21.5 45.5t-56.5 17.5t-56 -17.5t-21 -45.5t20.5 -45.5t55.5 -17.5z" />
    <glyph glyph-name="zero.numr" horiz-adv-x="399" 
d="M200 691q82 0 126.5 -58.5t44.5 -156.5t-44.5 -156.5t-126.5 -58.5t-127.5 58.5t-45.5 156.5t45.5 156.5t127.5 58.5zM200 609q-37 0 -57 -34.5t-20 -98.5t20 -98.5t57 -34.5q75 0 75 133t-75 133z" />
    <glyph glyph-name="one.numr" horiz-adv-x="319" 
d="M156 680h73v-408h-94v297l-64 -45l-46 63z" />
    <glyph glyph-name="two.numr" horiz-adv-x="398" 
d="M241 426l-23 -12q-42 -19 -67 -40q-14 -11 -20 -23h233v-79h-332v38q0 59 31.5 95t101.5 72l28 14q46 23 62.5 37t16.5 36q0 20 -18 32.5t-48 12.5q-54 0 -119 -50l-49 62q79 70 169 70q72 0 115.5 -36t43.5 -88q0 -67 -54 -101q-20 -13 -71 -40z" />
    <glyph glyph-name="three.numr" horiz-adv-x="394" 
d="M341 602l-113 -84q59 -4 96 -37t37 -84q0 -57 -45 -96.5t-121 -39.5q-93 0 -174 54l45 66q72 -38 128 -38q71 0 71 54q0 26 -23 40.5t-62 14.5q-32 0 -48 -6l-40 55l132 100h-181v79h298v-78z" />
    <glyph glyph-name="four.numr" horiz-adv-x="396" 
d="M317 433h54v-74h-54v-87h-93v87h-196v88l156 233h100l-162 -247h102v78h93v-78z" />
    <glyph glyph-name="five.numr" horiz-adv-x="396" 
d="M229 540q62 0 101 -38.5t39 -90.5q0 -69 -46 -109.5t-121 -40.5q-86 0 -179 55l45 68q76 -41 128 -41q35 0 55.5 16t20.5 46q0 27 -19 42.5t-55 15.5q-40 0 -72 -26l-75 8l18 235h278v-79h-199l-8 -85q34 24 89 24z" />
    <glyph glyph-name="six.numr" horiz-adv-x="397" 
d="M226 547q63 0 103.5 -40.5t40.5 -98.5q0 -59 -46.5 -103t-122.5 -44q-81 0 -127 46.5t-46 124.5q0 136 141 248h126v-1q-67 -50 -104 -88t-54 -77q33 33 89 33zM201 343q36 0 57 17.5t21 45.5t-20.5 45.5t-55.5 17.5t-57 -18t-22 -45q0 -29 21 -46t56 -17z" />
    <glyph glyph-name="seven.numr" horiz-adv-x="371" 
d="M26 680h330v-70q-145 -160 -160 -338h-103q6 86 51 176q46 90 103 153h-221v79z" />
    <glyph glyph-name="eight.numr" horiz-adv-x="399" 
d="M297 490q73 -31 73 -104q0 -55 -46 -89.5t-125 -34.5t-125 34.5t-46 89.5q0 74 73 105q-56 30 -56 88q0 49 43 81.5t111 32.5t111 -32.5t43 -81.5q0 -59 -56 -89zM199 618q-29 0 -47.5 -13.5t-18.5 -33.5q0 -21 18.5 -35.5t47.5 -14.5t47 14.5t18 35.5q0 20 -18 33.5
t-47 13.5zM199 339q36 0 56.5 15.5t20.5 40.5t-21 42t-56 17t-56 -17t-21 -42t20.5 -40.5t56.5 -15.5z" />
    <glyph glyph-name="nine.numr" horiz-adv-x="396" 
d="M194 691q80 0 126.5 -46.5t46.5 -124.5q0 -136 -141 -248h-124v1q124 94 154 161q-35 -29 -86 -29q-63 0 -104 40.5t-41 98.5q0 59 46.5 103t122.5 44zM193 483q34 0 56.5 18t22.5 45q0 28 -21.5 45.5t-56.5 17.5t-56 -17.5t-21 -45.5t20.5 -45.5t55.5 -17.5z" />
    <glyph glyph-name="exclamdown.case" horiz-adv-x="294" 
d="M79 565v145h142v-145h-142zM79 0v215l31 270h80l31 -270v-215h-142z" />
    <glyph glyph-name="questiondown.case" horiz-adv-x="503" 
d="M198 565v145h142v-145h-142zM235 -17q-105 0 -167.5 52t-62.5 141q0 71 53 124q23 24 73 67q44 38 59.5 57t20.5 47l3 19h115v-21q-1 -35 -3 -50.5t-12 -36.5t-28.5 -40t-55.5 -52l-18 -15q-38 -32 -52.5 -51.5t-14.5 -45.5q0 -34 26 -54t69 -20q38 0 73.5 17t92.5 60
l77 -91q-122 -107 -248 -107z" />
    <glyph glyph-name="periodcentered.ss02" horiz-adv-x="273" 
d="M137 247q-36 0 -61.5 25.5t-25.5 61.5q0 35 25.5 60.5t61.5 25.5q35 0 60.5 -25.5t25.5 -60.5q0 -36 -25.5 -61.5t-60.5 -25.5z" />
    <glyph glyph-name="exclamdown.case.ss02" horiz-adv-x="294" 
d="M154 722q35 0 60.5 -25.5t25.5 -61.5q0 -35 -25.5 -60.5t-60.5 -25.5q-36 0 -61.5 25.5t-25.5 60.5q0 36 25.5 61.5t61.5 25.5zM79 0v215l31 270h80l31 -270v-215h-142z" />
    <glyph glyph-name="questiondown.case.ss02" horiz-adv-x="503" 
d="M273 727q35 0 60.5 -25.5t25.5 -61.5q0 -35 -25.5 -60.5t-60.5 -25.5q-36 0 -61.5 25.5t-25.5 60.5q0 36 25.5 61.5t61.5 25.5zM235 -12q-105 0 -167.5 52t-62.5 141q0 71 53 124q23 23 73 67q44 38 59.5 57t20.5 47l3 19h115v-21q-1 -35 -3 -50.5t-12 -36.5t-28.5 -40
t-55.5 -52l-18 -15q-38 -32 -52.5 -51.5t-14.5 -45.5q0 -34 26 -54t69 -20q38 0 73.5 17t92.5 60l77 -91q-122 -107 -248 -107z" />
    <glyph glyph-name="colon.ss02" horiz-adv-x="293" 
d="M147 347q-36 0 -61.5 25.5t-25.5 61.5q0 35 25.5 60.5t61.5 25.5q35 0 60.5 -25.5t25.5 -60.5q0 -36 -25.5 -61.5t-60.5 -25.5zM147 -12q-36 0 -61.5 25.5t-25.5 61.5q0 35 25.5 60.5t61.5 25.5q35 0 60.5 -25.5t25.5 -60.5q0 -36 -25.5 -61.5t-60.5 -25.5z" />
    <glyph glyph-name="comma.ss02" horiz-adv-x="253" 
d="M128 159q42 0 69.5 -31t27.5 -83q0 -80 -46 -138.5t-127 -59.5v60q32 2 59 25t36 60q-16 -2 -19 -2q-38 0 -63 23.5t-25 60.5q0 35 26 60t62 25z" />
    <glyph glyph-name="ellipsis.ss02" horiz-adv-x="748" 
d="M137 -12q-36 0 -61.5 25.5t-25.5 61.5q0 35 25.5 60.5t61.5 25.5q35 0 60.5 -25.5t25.5 -60.5q0 -36 -25.5 -61.5t-60.5 -25.5zM374 -12q-36 0 -61.5 25.5t-25.5 61.5q0 35 25.5 60.5t61.5 25.5q35 0 60.5 -25.5t25.5 -60.5q0 -36 -25.5 -61.5t-60.5 -25.5zM612 -12
q-36 0 -61.5 25.5t-25.5 61.5q0 35 25.5 60.5t61.5 25.5q35 0 60.5 -25.5t25.5 -60.5q0 -36 -25.5 -61.5t-60.5 -25.5z" />
    <glyph glyph-name="exclam.ss02" horiz-adv-x="298" 
d="M225 710v-215l-31 -270h-80l-31 270v215h142zM150 -12q-35 0 -60.5 25.5t-25.5 61.5q0 35 25.5 60.5t60.5 25.5q36 0 61.5 -25.5t25.5 -60.5q0 -36 -25.5 -61.5t-61.5 -25.5z" />
    <glyph glyph-name="exclamdown.ss02" horiz-adv-x="254" 
d="M165 524q35 0 60.5 -25.5t25.5 -61.5q0 -35 -25.5 -60.5t-60.5 -25.5q-36 0 -61.5 25.5t-25.5 60.5q0 36 25.5 61.5t61.5 25.5zM90 -198v215l31 270h80l31 -270v-215h-142z" />
    <glyph glyph-name="period.ss02" horiz-adv-x="253" 
d="M127 -12q-36 0 -61.5 25.5t-25.5 61.5q0 35 25.5 60.5t61.5 25.5q35 0 60.5 -25.5t25.5 -60.5q0 -36 -25.5 -61.5t-60.5 -25.5z" />
    <glyph glyph-name="question.ss02" horiz-adv-x="508" 
d="M268 727q105 0 167.5 -52t62.5 -141q0 -71 -52 -123q-25 -25 -74 -68q-44 -38 -59.5 -57t-20.5 -47l-3 -19h-115v21q1 35 3 50.5t12 36.5t28.5 40t55.5 52l18 15q38 32 52.5 51.5t14.5 45.5q0 34 -26 54t-69 20q-38 0 -73.5 -17t-92.5 -60l-77 91q122 107 248 107z
M230 -12q-35 0 -60.5 25.5t-25.5 61.5q0 35 25.5 60.5t60.5 25.5q36 0 61.5 -25.5t25.5 -60.5q0 -36 -25.5 -61.5t-61.5 -25.5z" />
    <glyph glyph-name="questiondown.ss02" horiz-adv-x="488" 
d="M268 520q35 0 60.5 -25.5t25.5 -61.5q0 -35 -25.5 -60.5t-60.5 -25.5q-36 0 -61.5 25.5t-25.5 60.5q0 36 25.5 61.5t61.5 25.5zM230 -219q-105 0 -167.5 52t-62.5 141q0 71 53 124q23 23 73 67q44 38 59.5 57t20.5 47l3 19h115v-21q-1 -35 -3 -50.5t-12 -36.5t-28.5 -40
t-55.5 -52l-18 -15q-38 -32 -52.5 -51.5t-14.5 -45.5q0 -34 26 -54t69 -20q38 0 73.5 17t92.5 60l77 -91q-122 -107 -248 -107z" />
    <glyph glyph-name="semicolon.ss02" horiz-adv-x="293" 
d="M147 347q-36 0 -61.5 25.5t-25.5 61.5q0 35 25.5 60.5t61.5 25.5q35 0 60.5 -25.5t25.5 -60.5q0 -36 -25.5 -61.5t-60.5 -25.5zM148 159q42 0 69.5 -31t27.5 -83q0 -80 -46 -138.5t-127 -59.5v60q32 2 59 25t36 60q-16 -2 -19 -2q-38 0 -63 23.5t-25 60.5q0 35 26 60
t62 25z" />
    <glyph glyph-name="emdash.case" horiz-adv-x="986" 
d="M916 417v-111h-846v111h846z" />
    <glyph glyph-name="endash.case" horiz-adv-x="737" 
d="M677 417v-111h-617v111h617z" />
    <glyph glyph-name="hyphen.case" horiz-adv-x="410" 
d="M360 420v-117h-310v117h310z" />
    <glyph glyph-name="guillemotleft.case" horiz-adv-x="612" 
d="M320 558l-146 -225l146 -225h-122l-143 225l143 225h122zM552 558l-146 -225l146 -225h-122l-143 225l143 225h122z" />
    <glyph glyph-name="guillemotright.case" horiz-adv-x="612" 
d="M60 558h122l143 -225l-143 -225h-122l141 225zM292 558h122l143 -225l-143 -225h-122l141 225z" />
    <glyph glyph-name="guilsinglleft.case" horiz-adv-x="380" 
d="M320 558l-146 -225l146 -225h-122l-143 225l143 225h122z" />
    <glyph glyph-name="guilsinglright.case" horiz-adv-x="380" 
d="M60 558h122l143 -225l-143 -225h-122l141 225z" />
    <glyph glyph-name="quotedblbase.ss02" horiz-adv-x="472" 
d="M122 151q40 0 66 -29.5t26 -78.5q0 -75 -44 -131t-121 -57v57q30 2 56 24t35 57q-16 -2 -18 -2q-36 0 -60 22t-24 57q0 34 24.5 57.5t59.5 23.5zM340 151q40 0 66 -29.5t26 -78.5q0 -75 -44 -131t-121 -57v57q30 2 56 24t35 57q-16 -2 -18 -2q-36 0 -60 22t-24 57
q0 34 24.5 57.5t59.5 23.5z" />
    <glyph glyph-name="quotedblleft.ss02" horiz-adv-x="475" 
d="M132 580q36 0 60 -22t24 -57q0 -34 -24.5 -57.5t-59.5 -23.5q-40 0 -66 29.5t-26 78.5q0 75 44 131t121 57v-57q-30 -2 -56 -24t-35 -57q16 2 18 2zM353 580q36 0 60 -22t24 -57q0 -34 -24.5 -57.5t-59.5 -23.5q-40 0 -66 29.5t-26 78.5q0 75 44 131t121 57v-57
q-30 -2 -56 -24t-35 -57q16 2 18 2z" />
    <glyph glyph-name="quotedblright.ss02" horiz-adv-x="472" 
d="M122 714q40 0 66 -29.5t26 -78.5q0 -75 -44 -131t-121 -57v57q30 2 56 24t35 57q-16 -2 -18 -2q-36 0 -60 22t-24 57q0 34 24.5 57.5t59.5 23.5zM340 714q40 0 66 -29.5t26 -78.5q0 -75 -44 -131t-121 -57v57q30 2 56 24t35 57q-16 -2 -18 -2q-36 0 -60 22t-24 57
q0 34 24.5 57.5t59.5 23.5z" />
    <glyph glyph-name="quoteleft.ss02" horiz-adv-x="254" 
d="M132 580q36 0 60 -22t24 -57q0 -34 -24.5 -57.5t-59.5 -23.5q-40 0 -66 29.5t-26 78.5q0 75 44 131t121 57v-57q-30 -2 -56 -24t-35 -57q16 2 18 2z" />
    <glyph glyph-name="quoteright.ss02" horiz-adv-x="254" 
d="M122 714q40 0 66 -29.5t26 -78.5q0 -75 -44 -131t-121 -57v57q30 2 56 24t35 57q-16 -2 -18 -2q-36 0 -60 22t-24 57q0 34 24.5 57.5t59.5 23.5z" />
    <glyph glyph-name="quotesinglbase.ss02" horiz-adv-x="254" 
d="M122 151q40 0 66 -29.5t26 -78.5q0 -75 -44 -131t-121 -57v57q30 2 56 24t35 57q-16 -2 -18 -2q-36 0 -60 22t-24 57q0 34 24.5 57.5t59.5 23.5z" />
    <glyph glyph-name="divide.ss02" horiz-adv-x="600" 
d="M301 426q-36 0 -61.5 25.5t-25.5 61.5q0 35 25.5 60.5t61.5 25.5q35 0 60.5 -25.5t25.5 -60.5q0 -36 -25.5 -61.5t-60.5 -25.5zM560 366v-112h-520v112h520zM301 21q-36 0 -61.5 25.5t-25.5 61.5q0 35 25.5 60.5t61.5 25.5q35 0 60.5 -25.5t25.5 -60.5q0 -36 -25.5 -61.5
t-60.5 -25.5z" />
    <glyph glyph-name="registered.ss03" horiz-adv-x="856" 
d="M428 723q153 3 261.5 -105.5t106.5 -262.5q2 -154 -106.5 -262.5t-261.5 -105.5q-153 -3 -261.5 105.5t-106.5 262.5q-2 154 106.5 262.5t261.5 105.5zM428 660q-126 2 -212.5 -87t-84.5 -218q-2 -129 84.5 -218t212.5 -87q127 -2 213 87t84 218q2 129 -84 218t-213 87z
M284 568h169q59 0 96 -36.5t37 -93.5q0 -41 -21.5 -72t-58.5 -45l103 -167h-84l-94 158h-73v-158h-74v414zM438 501h-80v-127h80q75 0 75 64q0 63 -75 63z" />
    <glyph glyph-name="uni0326.alt" horiz-adv-x="0" 
d="M-240 588v108l72 101h68l-66 -101h62v-108h-136z" />
    <glyph glyph-name="uni0326.alt.ss02" horiz-adv-x="0" 
d="M-158 692q71 0 71 -58q0 -27 -20 -44.5t-50 -17.5q-34 0 -56.5 23t-22.5 60q0 59 37 91.5t101 32.5v-46q-62 -2 -78 -43q16 2 18 2z" />
    <glyph glyph-name="uni0326.ss02" horiz-adv-x="0" 
d="M-173 -53q34 0 56.5 -23t22.5 -60q0 -59 -37 -91.5t-101 -32.5v46q62 2 78 43q-16 -2 -18 -2q-71 0 -71 58q0 27 20 44.5t50 17.5z" />
    <glyph glyph-name="caron.alt" horiz-adv-x="324" 
d="M252 710l-74 -215h-80l27 215h127z" />
    <glyph glyph-name="dieresis.ss02" horiz-adv-x="520" 
d="M158 577q-31 0 -52.5 21.5t-21.5 51.5t21.5 51.5t52.5 21.5t52.5 -21.5t21.5 -51.5t-21.5 -51.5t-52.5 -21.5zM362 577q-31 0 -52.5 21.5t-21.5 51.5t21.5 51.5t52.5 21.5t52.5 -21.5t21.5 -51.5t-21.5 -51.5t-52.5 -21.5z" />
    <glyph glyph-name="dotaccent.ss02" horiz-adv-x="330" 
d="M165 572q-32 0 -54.5 22t-22.5 54t22.5 54t54.5 22t54.5 -22t22.5 -54t-22.5 -54t-54.5 -22z" />
    </font>
</defs>
</svg>
